<svg xmlns="http://www.w3.org/2000/svg" width="793.707" height="1122.52" viewBox="0 0 793.707 1122.52"><defs><clipPath id="c" clipPathUnits="userSpaceOnUse"><path d="M1 0h5952v8417H1Z"/></clipPath><clipPath id="b" clipPathUnits="userSpaceOnUse"><path d="M.265 1122.828h793.699V.264H.265Z"/></clipPath><clipPath id="a" clipPathUnits="userSpaceOnUse"><path d="M.133 1122.52V.253h793.6V1122.52Z"/></clipPath><clipPath id="f" clipPathUnits="userSpaceOnUse"><path d="M1235.41 6920.7h3878.8v651.95h-3878.8Z"/></clipPath><clipPath id="e" clipPathUnits="userSpaceOnUse"><path d="M164.721 199.76h517.174v-86.927H164.72Z"/></clipPath><clipPath id="d" clipPathUnits="userSpaceOnUse"><path d="M164.721 199.76h517.174v-86.927H164.72Z"/></clipPath></defs><path d="M0 0h5952.76v8418.9H0Z" style="fill:#fff;fill-opacity:1;fill-rule:nonzero;stroke:none" transform="matrix(.13333 0 0 -.13333 0 1122.52)"/><path d="M12.949 0H9.668l-.856-2.485H4.254L3.398 0h-3.2l4.548-12.317h3.656zM8.05-4.746 6.527-9.164 5.015-4.746Zm23.605-7.57L27.155 0h-3.55l-4.49-12.317h3.329l2.977 8.649 2.976-8.649zM41.759-4.09h-6.808q.15 2.25 3.082 2.25 1.72 0 3.222-1.066h.329v2.39q-1.855.764-3.868.762-2.778 0-4.277-1.242-1.501-1.251-1.5-3.598 0-2.296 1.406-3.633 1.416-1.345 3.868-1.347 2.27 0 3.41 1.148 1.135 1.139 1.136 3.293zm-2.953-1.746q-.048-1.873-1.828-1.875-1.898.002-2.039 1.875zm11.786-.61h-.257l-.364-.07a6 6 0 0 0-.949-.07q-1.186.002-2.18.363V0h-2.976v-9.281h2.976v1.359q1.57-1.394 3.047-1.395.396 0 .703.036zM56.8-3.28l2.11-6h3.058L56.812 3.41H53.59l1.465-3.48-3.61-9.211h3.13zM78.454 0H69.57v-12.316h3.176v9.938h5.707zm6.096.294q-2.425 0-3.761-1.313-1.326-1.323-1.325-3.62 0-2.308 1.336-3.622 1.346-1.31 3.75-1.312 2.435 0 3.762 1.336 1.323 1.326 1.324 3.597 0 2.287-1.336 3.61Q86.976.294 84.55.293m2.004-4.91q0-2.883-2.004-2.883t-2.004 2.883q-.002 2.837 2.028 2.836 1.978.001 1.98-2.836M101.11 0h-3v-4.606q-.002-1.476-.293-2.004-.281-.527-1.336-.527-.787.001-1.723.55V0h-2.976v-9.281h2.976v1.02q1.627-1.276 3.153-1.278 1.547 0 2.367.914.831.904.832 2.578zm11.754-1.067q0 2.33-1.23 3.446-1.23 1.112-3.938 1.113-1.819 0-3.527-.387V.773h.363q1.556.573 2.742.574 1.394-.001 2.004-.468c.404-.314.61-.908.61-1.793v-.164a4.05 4.05 0 0 1-2.637.949q-4.068 0-4.067-4.746-.002-2.191 1.219-3.422 1.217-1.24 2.988-1.242 1.405 0 2.485.668l.105-.41h2.883zm-2.977-1.863v-4.207a3.5 3.5 0 0 0-1.289-.234q-2.355 0-2.355 2.554 0 1.35.504 1.875.502.528 1.488.528.853.001 1.652-.516M127.06-.985q-.893.705-1.57.973-.682.257-1.64.258-1.328 0-2.216-.82c-.594-.545-.89-1.243-.89-2.086q0-1.617 1.242-2.426 1.253-.817 5.086-1.02v-.047q0-.702-.563-1.03t-1.922-.329q-.949 0-2.765.668h-.27v-2.238q1.942-.467 3.657-.469 2.53.002 3.668.785 1.134.788 1.136 2.45V0h-2.953zm0-1.441V-4.36q-2.076.168-2.683.457-.611.294-.61.997 0 .646.363.902.375.246 1.22.246.912 0 1.71-.668M142.078 0h-3v-4.606q-.002-1.476-.293-2.004-.282-.527-1.336-.527-.787.001-1.723.55V0h-2.976v-9.281h2.976v1.02q1.627-1.276 3.153-1.278 1.545 0 2.367.914.83.904.832 2.578zm11.754 0h-2.977v-.973q-1.477 1.23-2.976 1.23-1.7 0-2.72-1.3-1.008-1.3-1.007-3.528-.002-2.235 1.219-3.597 1.23-1.371 3.023-1.371 1.183.001 2.461.62v-3.948h2.977zm-2.977-2.567v-4.546a3.2 3.2 0 0 0-1.289-.258q-2.355.001-2.355 2.765 0 1.363.468 1.98.478.624 1.524.622.852 0 1.652-.563M169.26 0h-7.207v-2.18h2.016v-7.945h-2.016v-2.192h7.207v2.192h-2.015v7.945h2.015zm11.508-6.586V0h-3v-4.64q0-1.547-.27-2.016-.27-.48-1.242-.48-.669 0-1.593.55V0h-2.977v-9.281h2.977v1.02q1.617-1.276 3.023-1.278 1.92 0 2.719 1.605 1.932-1.605 3.398-1.605 3.06.002 3.059 3.492V0h-2.988v-4.64q-.001-1.534-.258-2.016-.247-.48-1.254-.48-.645 0-1.594.55M192.58-.47v3.88h-2.977V-9.281h2.977v.96q1.52-1.217 3.047-1.218 1.757 0 2.707 1.289.959 1.279.96 3.48-.001 2.17-1.207 3.563-1.194 1.395-3.023 1.394a5.07 5.07 0 0 1-2.484-.656m0-6.328v4.676q.43.175 1.3.175 2.344.001 2.344-2.765-.001-1.358-.469-1.969-.457-.608-1.453-.61-.879 0-1.722.493m15.589.351h-.258l-.364-.07a6 6 0 0 0-.949-.07q-1.185.002-2.18.363V0h-2.976v-9.281h2.977v1.359q1.569-1.394 3.046-1.395.395 0 .704.036zm10.798 2.356h-6.808q.15 2.25 3.082 2.25 1.72 0 3.222-1.066h.329v2.39q-1.855.764-3.868.762-2.777 0-4.277-1.242-1.501-1.251-1.5-3.598 0-2.296 1.406-3.633 1.416-1.345 3.868-1.347 2.27 0 3.41 1.148 1.135 1.139 1.136 3.293zm-2.953-1.746q-.048-1.873-1.828-1.875-1.898.002-2.039 1.875zm4.439 5.344V-2.93h.27q1.743 1.208 3.656 1.207 1.722 0 1.722-.773-.001-.35-.363-.551c-.234-.132-.815-.264-1.734-.399q-3.505-.514-3.504-2.976 0-1.346 1.265-2.227 1.275-.888 3.469-.89a9.4 9.4 0 0 1 3.492.656v2.355h-.258q-1.546-1.029-3.222-1.03c-.487 0-.89.067-1.22.198q-.49.203-.491.563-.002.387.34.586.35.19 1.921.445 1.991.331 2.672 1.043.679.717.68 1.781 0 1.442-1.289 2.32-1.29.88-3.54.88-2.144-.002-3.866-.75m10.043 0V-2.93h.27q1.744 1.208 3.655 1.207 1.723 0 1.723-.773-.001-.35-.363-.551-.354-.197-1.735-.399-3.504-.514-3.503-2.976 0-1.346 1.265-2.227 1.275-.888 3.469-.89a9.4 9.4 0 0 1 3.492.656v2.355h-.258q-1.547-1.029-3.222-1.03c-.487 0-.89.067-1.22.198q-.49.203-.491.563-.002.387.34.586.35.19 1.921.445 1.992.331 2.672 1.043.679.717.68 1.781 0 1.442-1.289 2.32-1.29.88-3.54.88-2.144-.002-3.866-.75m13.722-10.114h-3.14v-2.261h3.14zM244.136 0h-2.976v-9.281h2.976zm12.167-9.281-3.586 9.28h-3.363l-3.562-9.28h3.152l2.144 6.375 2.133-6.375zm10.63 5.191h-6.81q.151 2.25 3.083 2.25 1.72 0 3.222-1.066h.328v2.39q-1.854.764-3.867.762-2.777 0-4.277-1.242-1.501-1.251-1.5-3.598 0-2.296 1.406-3.633 1.416-1.345 3.867-1.347 2.273 0 3.41 1.148 1.135 1.139 1.137 3.293zm-2.954-1.746q-.048-1.873-1.828-1.875-1.898.002-2.04 1.875zm-293.745 20.08h-3.844v9.926h-3.176v-9.926h-3.843v-2.39h10.863zm11.083 9.926h-3v-4.606q-.002-1.476-.293-2.004-.281-.527-1.336-.527-.787.001-1.723.55v6.587h-2.976V11.303h2.976v4.605q1.627-1.276 3.153-1.277 1.547 0 2.367.914.831.904.832 2.578zm11.871-4.09h-6.809q.15 2.25 3.083 2.25 1.72 0 3.222-1.067h.328v2.391q-1.854.764-3.867.762-2.777 0-4.277-1.242-1.501-1.252-1.5-3.598 0-2.296 1.406-3.633 1.415-1.346 3.867-1.347 2.273 0 3.41 1.148 1.135 1.139 1.137 3.293zm-2.953-1.746q-.049-1.873-1.828-1.875-1.898.002-2.04 1.875zm4.436 5.344V21.24h.269q1.745 1.208 3.656 1.207 1.723 0 1.723-.773-.002-.35-.363-.551-.354-.197-1.735-.399-3.506-.514-3.504-2.976 0-1.346 1.266-2.227 1.276-.889 3.469-.89a9.4 9.4 0 0 1 3.492.656v2.355h-.258q-1.547-1.029-3.223-1.03-.727 0-1.218.198-.492.203-.492.563c0 .258.11.454.34.586q.35.19 1.921.445 1.99.33 2.672 1.043.678.717.68 1.781 0 1.442-1.29 2.32-1.289.88-3.538.88-2.146-.002-3.867-.75M8.393 13.564h-3.14v-2.261h3.14zM8.311 24.17H5.335v-9.282H8.31zm2.197-.492V21.24h.27q1.745 1.208 3.656 1.207 1.723 0 1.723-.773-.002-.35-.363-.551-.354-.197-1.735-.399-3.506-.514-3.504-2.976 0-1.346 1.266-2.227 1.275-.889 3.469-.89a9.4 9.4 0 0 1 3.492.656v2.355h-.258q-1.547-1.029-3.223-1.03-.727 0-1.218.198-.493.203-.493.563-.001.387.34.586.35.19 1.922.445 1.99.33 2.672 1.043.678.717.68 1.781 0 1.442-1.29 2.32-1.289.88-3.538.88-2.145-.001-3.868-.75m26.236-9.434H32.9v9.926h-3.176v-9.926H25.88v-2.39h10.864Zm4.813-.68h-3.14v-2.261h3.14zm-.082 10.606H38.5v-9.282h2.976zm8.757-.082q-.962.268-2.332.27-1.747 0-2.59-.704-.843-.702-.844-2.414v-4.336h-1.23v-2.016h1.23v-2.66h2.977v2.66h2.789v2.016h-2.789v3.293q-.001 1.01.082 1.348.08.33.375.562.29.224.95.223.562 0 1.124-.281h.258zm4.995.082h-2.976V11.303h2.976zm11.956-4.09h-6.808q.15 2.25 3.082 2.25 1.72 0 3.222-1.067h.328v2.391q-1.854.764-3.867.762-2.778 0-4.277-1.242-1.501-1.252-1.5-3.598 0-2.296 1.406-3.633 1.416-1.345 3.867-1.347 2.273 0 3.41 1.148 1.136 1.139 1.137 3.293zm-2.953-1.746q-.048-1.873-1.828-1.875-1.898.002-2.04 1.875zm25.664-3.446-2.883 9.282H83.86l-1.898-6.258-1.864 6.258h-3.199l-2.848-9.282h3.118l1.593 6.399 1.98-6.399h2.638l1.886 6.399 1.57-6.399zm4.843-1.324h-3.14v-2.261h3.14zm-.082 10.606h-2.977v-9.282h2.977zm8.757-.082q-.962.268-2.332.27-1.748 0-2.59-.704-.844-.701-.844-2.414v-4.336h-1.23v-2.016h1.23v-2.66h2.977v2.66h2.789v2.016h-2.79v3.293q0 1.01.083 1.348.079.33.375.562.29.224.949.223.563 0 1.125-.281h.258zm11.11.082h-3v-4.606q-.001-1.476-.294-2.004-.281-.527-1.336-.527-.786.001-1.722.55v6.587h-2.977V11.303h2.977v4.605q1.626-1.276 3.152-1.277 1.546 0 2.367.914.831.904.832 2.578zm14.132-.985q-.894.705-1.57.973-.683.256-1.641.258-1.327 0-2.215-.82-.891-.82-.89-2.086 0-1.618 1.242-2.426 1.252-.818 5.086-1.02v-.047q0-.702-.563-1.03t-1.922-.329q-.95 0-2.765.668h-.27v-2.238q1.943-.467 3.656-.469 2.531.002 3.668.785 1.135.788 1.137 2.45v6.316h-2.953zm0-1.441V19.81q-2.076.168-2.684.457-.61.295-.61.996 0 .647.364.903.375.246 1.219.246.913 0 1.71-.668m20.467-7.5h-5.66v2.285h5.25v2.379h-5.25v5.262h-3.165V11.853h8.825zm6.24 10.219q-2.425 0-3.762-1.313-1.326-1.323-1.324-3.62 0-2.308 1.336-3.622 1.345-1.31 3.75-1.312 2.435 0 3.762 1.335 1.323 1.326 1.324 3.598 0 2.287-1.336 3.61-1.326 1.325-3.75 1.324m2.004-4.91q0-2.883-2.004-2.883t-2.004 2.883q-.001 2.837 2.027 2.835 1.98.002 1.98-2.835m11.953-1.829h-.258l-.363-.07a6 6 0 0 0-.95-.07q-1.185.002-2.179.363v6.223h-2.977v-9.282h2.977v1.36q1.57-1.394 3.047-1.395.396 0 .703.035zm9.683-2.355v2.543h-.422q-1.28-1.16-2.696-1.16c-.796 0-1.412.255-1.84.761q-.632.751-.632 2.051c0 1.823.838 2.73 2.52 2.73q1.521.001 2.648-1.136H179v2.543a7.4 7.4 0 0 1-3.153.715q-2.579.002-4.054-1.254-1.467-1.251-1.465-3.598 0-2.39 1.476-3.656 1.487-1.276 3.95-1.277 1.661 0 3.246.738m11.106 4.71h-6.809q.15 2.25 3.082 2.25 1.722.001 3.223-1.066h.328v2.391q-1.854.764-3.867.762-2.778 0-4.277-1.242-1.501-1.252-1.5-3.598 0-2.296 1.406-3.633 1.415-1.346 3.867-1.347 2.273 0 3.41 1.148 1.136 1.139 1.137 3.293zm-2.953-1.745q-.049-1.873-1.828-1.875-1.899.002-2.04 1.875zm14.083 5.836h-2.977v-.973q-1.477 1.23-2.976 1.23-1.7 0-2.719-1.3-1.01-1.3-1.008-3.528-.001-2.235 1.219-3.597 1.23-1.371 3.023-1.371 1.182.001 2.461.62v-3.948h2.977zm-2.977-2.567v-4.547a3.2 3.2 0 0 0-1.289-.257q-2.355 0-2.355 2.765-.001 1.362.469 1.98.478.624 1.523.622.853 0 1.652-.563m20.614 2.567h-8.883V11.853h3.176v9.938h5.707zm4.801-10.606h-3.14v-2.261h3.14zm-.082 10.606h-2.976v-9.282h2.976zm12.144 0h-3v-4.606q-.002-1.476-.293-2.004-.282-.527-1.336-.527-.786.001-1.723.55v6.587h-2.976v-9.282h2.976v1.02q1.627-1.276 3.153-1.277 1.547 0 2.367.914.832.904.832 2.578zm11.871-4.09h-6.809q.15 2.25 3.082 2.25 1.722 0 3.223-1.067h.328v2.391q-1.854.764-3.867.762-2.778 0-4.277-1.242-1.502-1.252-1.5-3.598 0-2.296 1.406-3.633 1.414-1.345 3.867-1.347 2.273 0 3.41 1.148 1.135 1.139 1.137 3.293zm-2.953-1.746q-.049-1.873-1.828-1.875-1.899.002-2.04 1.875zm11.013 5.836V11.853h4.78q1.863 0 2.802.246c.632.159 1.142.457 1.535.903q.597.668.597 1.722-.001 1.82-1.804 2.637v.059q2.624.577 2.625 2.976 0 1.654-1.266 2.719-1.256 1.055-3.89 1.055zm3.164-10.055v2.602h.492q1.381 0 1.781-.07.397-.08.715-.364.316-.28.316-.95 0-.455-.27-.76-.257-.317-.75-.388-.481-.07-1.991-.07zm0 4.734v3.059h1.37q1.042 0 1.56-.105.514-.117.831-.47.317-.36.317-.984 0-.76-.422-1.113-.422-.351-1.606-.387zm16.306-1.125h-.257l-.364-.07a6 6 0 0 0-.949-.07q-1.187.002-2.18.363v6.223h-2.976v-9.282h2.976v1.36q1.57-1.394 3.047-1.395.396 0 .703.035zm10.796 2.356h-6.808q.15 2.25 3.082 2.25 1.72 0 3.222-1.067h.328v2.391q-1.854.764-3.867.762-2.777 0-4.277-1.242-1.502-1.252-1.5-3.598 0-2.296 1.406-3.633 1.416-1.345 3.867-1.347 2.273 0 3.41 1.148 1.135 1.139 1.137 3.293zm-2.953-1.746q-.048-1.873-1.828-1.875-1.898.002-2.04 1.875zm10.667 4.851q-.894.705-1.57.973-.682.257-1.64.258-1.329 0-2.216-.82-.89-.82-.89-2.086 0-1.618 1.242-2.426 1.253-.818 5.086-1.02v-.047q0-.702-.563-1.03t-1.922-.329q-.949 0-2.765.668h-.27v-2.238q1.943-.467 3.657-.469 2.53.002 3.667.785 1.135.788 1.137 2.45v6.316h-2.953zm0-1.441V19.81q-2.076.168-2.684.457-.61.295-.609.996 0 .647.363.903.375.246 1.22.246.912 0 1.71-.668m15.545 2.426h-3.469l-2.601-4.043-.809.984v3.059h-2.977V11.303h2.977v7.687l3.211-4.102h3.434l-3.352 3.997zM60.454 121.016q0 .858-.528 1.325-.518.469-1.406.468-.528 0-1.148-.129v-.808h.058l.34.094q.36.095.633.093.737.001.96-.293.222-.303.224-1.078v-3.797h-1.383v-.691h2.25zm4.89 1.84q-1.035.002-1.641-.691-.61-.69-.61-1.887 0-1.204.61-1.898.607-.691 1.64-.692 1.03 0 1.641.703.62.693.621 1.887 0 1.196-.621 1.887-.611.693-1.64.691m0-4.453q-1.407.001-1.407 1.875 0 .915.363 1.395.375.469 1.043.468.655 0 1.032-.468.374-.467.375-1.395 0-1.874-1.407-1.875m9.436 4.313h-.82v-2.79q-.001-.878-.235-1.16-.236-.291-.797-.293-.634.001-1.418.586v3.657h-.82v-6.809h.82v2.461q.818-.678 1.641-.68 1.627 0 1.629 1.852zm7.567 0h-.82v-2.79q-.001-.878-.234-1.16-.237-.291-.797-.293-.635.001-1.418.586v3.657h-.82v-4.887h.82v.539q.819-.678 1.64-.68 1.628 0 1.63 1.852zm12.876-6.516-2.367 6.516h-1.16l-2.367-6.516h.925l2.04 5.73 2.05-5.73zm6.765 4.16H98.39q0 .823.457 1.29c.31.304.739.456 1.278.456q.957.002 1.722-.586h.047v.903q-.984.411-1.758.41-1.221.001-1.898-.656-.68-.668-.68-1.875t.645-1.91q.654-.704 1.722-.704.995.001 1.524.586.537.577.539 1.64zm-.797-.633q-.013-1.358-1.3-1.359-.66 0-1.055.387a1.5 1.5 0 0 0-.446.972zm6.879-1.007h-.035l-.235-.036a3 3 0 0 0-.539-.047q-.67.002-1.418.61v3.469h-.82v-4.887h.82v.715q.89-.714 1.63-.715.29.001.597.047zm6.36-.891-2.86 6.691h-.878l.914-2.039-1.945-4.652h.89l1.5 3.621 1.512-3.621zm11.241 4.887h-4.125V116.2h.868v5.742h3.257zm4.372.14q-1.034.002-1.641-.691-.61-.69-.61-1.887 0-1.204.61-1.898.607-.691 1.64-.692 1.03 0 1.641.703.62.693.621 1.887-.001 1.196-.62 1.887-.613.693-1.641.691m0-4.453q-1.407.001-1.407 1.875-.001.915.364 1.395.374.469 1.043.468.654 0 1.03-.468.375-.467.376-1.395 0-1.874-1.406-1.875m9.436 4.313h-.82v-2.79q-.001-.878-.235-1.16-.235-.291-.796-.293-.635.001-1.418.586v3.657h-.82v-4.887h.82v.539q.817-.678 1.64-.68 1.628 0 1.63 1.852zm7.453-.551q0 1.227-.562 1.816-.554.585-1.746.586-.74 0-1.489-.21v-.844h.047q.853.316 1.512.316.738-.001 1.066-.328.34-.317.34-1.008v-.445q-.4.315-.726.457-.33.14-.844.14-.88 0-1.395-.633-.516-.632-.515-1.792 0-1.17.644-1.852.655-.678 1.524-.68.689 0 1.312.352l.059-.211h.773zm-.832-.797v-2.66a2.75 2.75 0 0 0-1.172-.281q-.68.001-1.066.468-.387.459-.387 1.313 0 .857.293 1.265c.202.276.519.41.95.41q.724.001 1.382-.515m8.397 1.348h-.82v-2.79q-.001-.878-.235-1.16-.236-.291-.797-.293-.634.001-1.418.586v3.657h-.82v-4.887h.82v.539q.818-.678 1.64-.68 1.629 0 1.63 1.852zm7.274 0h-.82v-.516q-.588.436-.973.54a2.7 2.7 0 0 1-.773.116q-.668.002-1.125-.445a1.5 1.5 0 0 1-.457-1.113q-.002-.88.656-1.301.668-.431 2.672-.516v-.129q-.002-.456-.293-.68-.282-.233-1.02-.234-.668.002-1.535.328h-.047v-.832q.89-.22 1.594-.222 1.135 0 1.629.422.492.421.492 1.265zm-.82-1.207v-1.36q-1.632.071-2.063.34-.422.272-.422.75 0 .844 1.032.844.724.001 1.453-.574m11.344 1.207h-.82v-2.79q-.001-.948-.235-1.195-.224-.257-.75-.258-.589.002-1.383.61.035.247.035.504v3.129h-.832v-2.79q-.001-.948-.222-1.195-.224-.257-.75-.258-.588.001-1.36.586v3.657h-.82v-4.887h.82v.539q.819-.678 1.594-.68.982.001 1.36.797.935-.796 1.792-.797 1.57 0 1.57 1.852zm8.586-2.356h-3.597q0 .823.457 1.29.467.456 1.277.456.958.002 1.723-.586h.047v.903q-.985.411-1.758.41-1.222.001-1.899-.656-.68-.668-.68-1.875t.645-1.91q.655-.704 1.723-.704.995.001 1.523.586.538.577.54 1.64zm-.796-.633q-.015-1.358-1.301-1.359-.66 0-1.055.387a1.5 1.5 0 0 0-.445.972zm8.109 2.989V116.2h1.629q1.464.002 2.238.398.773.387 1.207 1.114.432.728.434 1.746 0 1.115-.563 1.91-.564.798-1.347 1.078-.788.272-1.957.27zm.867-5.778v5.028h.809q1.59.002 2.25-.657.668-.654.668-1.863 0-2.507-2.918-2.508zm10.193 5.918q-1.034.002-1.641-.691-.61-.69-.61-1.887 0-1.204.61-1.898.607-.691 1.64-.692 1.03 0 1.641.703.62.693.621 1.887-.001 1.196-.62 1.887-.613.693-1.641.691m0-4.453q-1.407.002-1.407 1.875-.001.915.364 1.395.374.469 1.043.468.654 0 1.03-.468.375-.466.376-1.395 0-1.873-1.406-1.875m9.436 1.957h-3.598q0 .823.457 1.29.468.456 1.278.456.958.002 1.722-.586h.047v.903q-.984.411-1.758.41-1.221.001-1.898-.656-.68-.668-.68-1.875t.645-1.91q.654-.704 1.723-.704.994.001 1.523.586c.357.384.54.932.54 1.64zm-.797-.633q-.013-1.358-1.3-1.359-.66 0-1.055.387a1.5 1.5 0 0 0-.446.972zM12.298 140.232h-.996q-1.63-1.862-1.629-4.312-.001-2.436 1.63-4.301h.995v.047a5.5 5.5 0 0 0-1.37 1.922 5.8 5.8 0 0 0-.493 2.332q-.002 1.265.516 2.39.513 1.124 1.347 1.875zm8.687-1.804h-.867v-5.614l-1.817 3.82h-.515l-1.793-3.82v5.614h-.809v-6.516h1.184l1.734 3.621 1.676-3.621h1.207zm8.004 0h-.82v-.516q-.588.437-.973.539a2.7 2.7 0 0 1-.774.117q-.668.002-1.125-.445a1.5 1.5 0 0 1-.457-1.113q-.001-.88.657-1.301.668-.431 2.672-.516v-.129q-.002-.456-.293-.68-.282-.233-1.02-.234-.668.002-1.535.328h-.047v-.832q.89-.22 1.594-.222 1.135 0 1.629.422.492.421.492 1.265zm-.82-1.207v-1.36q-1.632.071-2.063.34-.422.272-.422.75 0 .844 1.031.844.725.001 1.454-.574m3.878.914v-.926h.047q.866.644 1.782.644 1.147.001 1.148-.726 0-.362-.246-.504-.235-.141-1.008-.281-1.046-.197-1.371-.54-.329-.35-.328-.89 0-.643.527-1.066.536-.423 1.442-.422.866.001 1.64.363v.879h-.047q-.786-.55-1.652-.551c-.299 0-.55.059-.762.176a.56.56 0 0 0-.304.515q0 .343.246.504.245.155 1.043.305.654.119.96.258.304.14.505.422.198.281.199.726 0 .67-.563 1.102-.552.422-1.5.422-.905.001-1.758-.41m9.1.246c-.375.09-.709.14-.996.14q-1.524 0-1.523-1.687v-2.602h-.563v-.691h.563v-1.406h.82v1.406h1.7v.691h-1.7v2.227q-.002.61.058.844a.73.73 0 0 0 .247.375q.186.13.609.128.338.002.738-.164h.047zm6.258-2.309h-3.598q0 .823.457 1.29c.31.304.739.456 1.278.456q.957.002 1.722-.586h.047v.903q-.984.411-1.758.41-1.221.001-1.898-.657-.68-.667-.68-1.875 0-1.204.645-1.91.654-.702 1.722-.703.995 0 1.524.586.537.577.539 1.64zm-.797-.633q-.013-1.359-1.3-1.36-.66 0-1.055.388a1.5 1.5 0 0 0-.446.972zm6.879-1.008h-.035l-.235-.035a3 3 0 0 0-.539-.047q-.67.001-1.418.61v3.468h-.82v-4.886h.82v.715q.89-.714 1.63-.715.29.001.597.047zm4.963-2.812-3.14 8.144h-.75l3.116-8.144zm2.546 6.809v-6.516h1.922q.887 0 1.359.117.48.106.773.445.305.33.305.903 0 .869-.867 1.312v.035q.654.132 1.031.575.387.448.387 1.125-.002.89-.645 1.453-.646.552-1.957.55zm.867-5.778v1.887h1.113q.853 0 1.16-.258.317-.255.317-.797-.002-.397-.258-.61-.26-.22-1.3-.222zm0 2.613v2.426h1.148q1.219.001 1.606-.328.387-.326.387-.902 0-.668-.375-.926-.378-.27-1.407-.27zm7.04 2.766v-1.09h.059q.478.414 1.136.633.656.224 1.23.223.796 0 1.243-.293.457-.303.457-.809-.001-.563-.363-.773-.365-.21-1.207-.328-.999-.15-1.465-.34a1.8 1.8 0 0 1-.762-.586q-.293-.386-.293-1.008-.001-.817.691-1.336.69-.527 1.758-.527 1.218 0 2.274.457v1.02h-.059q-.364-.316-.984-.516a3.8 3.8 0 0 0-1.23-.211q-.704.002-1.126.293-.421.28-.422.738-.001.376.164.586.175.21.481.316.302.106 1.102.235 1.51.26 1.921.703.422.447.422 1.148 0 .822-.703 1.407-.693.574-1.91.574-1.245.002-2.414-.516m12.023.094q-.844.411-1.57.41-1.126.001-1.77-.656-.632-.656-.632-1.887-.001-1.205.656-1.887c.445-.45 1.025-.68 1.746-.68q.737.001 1.57.41v.915h-.047c-.533-.404-1.051-.61-1.558-.61q-.729 0-1.125.493-.387.482-.387 1.359 0 .893.387 1.36.396.469 1.125.468.773 0 1.558-.598h.047zm7.694-5.403h-.938v-.855h.938zm-.059 5.707h-.82v-4.886h.82zm6.533 0h-.82v-2.789q-.001-.879-.234-1.16-.237-.291-.797-.293-.635.001-1.418.586v3.656h-.82v-4.886h.82v.539q.818-.678 1.64-.68 1.628 0 1.63 1.852zm12.715 0h-1.066l-3.094-5.835v5.835h-.809v-6.515h1.336l2.825 5.32v-5.32h.808zm7.7 0h-.82v-.515q-.588.437-.974.539a2.7 2.7 0 0 1-.773.117q-.667.002-1.125-.445a1.5 1.5 0 0 1-.457-1.113q-.001-.88.656-1.301.668-.431 2.672-.516v-.129q-.002-.456-.293-.68-.28-.233-1.02-.234-.668.001-1.535.328h-.046v-.832c.591-.146 1.125-.222 1.593-.222q1.135 0 1.63.421.49.423.491 1.266zm-.82-1.207v-1.359q-1.632.071-2.063.34-.422.272-.422.75-.001.844 1.031.844.724.001 1.453-.575m11.343 1.207h-.82v-2.789q-.001-.948-.235-1.195-.224-.257-.75-.258-.587.001-1.383.61.036.248.036.504v3.128h-.832v-2.789q-.002-.948-.223-1.195-.224-.256-.75-.258-.588.001-1.36.586v3.656h-.82v-4.886h.82v.539q.82-.678 1.594-.68.983.001 1.36.797.936-.796 1.793-.797 1.569 0 1.57 1.852zm8.587-2.355h-3.598q0 .823.457 1.29.467.456 1.277.456.959.002 1.723-.586h.047v.903q-.984.411-1.758.41-1.221.001-1.898-.657-.68-.667-.68-1.875 0-1.205.645-1.91.654-.702 1.722-.703.995 0 1.524.586.537.577.539 1.64zm-.797-.633q-.015-1.359-1.3-1.36-.66 0-1.056.388a1.5 1.5 0 0 0-.445.972zm9.95 3.13q-1.035 0-1.642-.692-.61-.69-.609-1.887-.001-1.205.61-1.898.607-.691 1.64-.692 1.03 0 1.64.703.621.693.622 1.887 0 1.196-.621 1.887-.612.693-1.64.691m0-4.454q-1.407.002-1.407 1.875 0 .915.363 1.395.375.469 1.043.468.655 0 1.031-.468.375-.467.375-1.395 0-1.873-1.406-1.875m7.982-1.7h-.046l-.258-.058a2 2 0 0 0-.48-.07q-.528 0-.774.234-.236.237-.235.856v.164h1.477v.691h-1.453v4.195h-.82v-4.195h-.563v-.691h.563v-.164q0-.88.421-1.336.432-.467 1.266-.469.431 0 .902.094zm6.707 3.587v2.425h-.868v-6.515h1.77q1.239.001 1.863.515.633.519.633 1.454 0 .891-.633 1.511-.633.611-1.898.61zm0-3.352v2.613h.726c1.178 0 1.77-.45 1.77-1.359q0-1.253-1.641-1.254zm9.319 1.781h-.035l-.235-.035a3 3 0 0 0-.539-.047q-.67.001-1.418.61v3.468h-.82v-4.886h.82v.715q.89-.714 1.63-.715.29.001.597.047zm6.076 1.641h-3.598q0 .823.457 1.29.468.456 1.278.456.958.002 1.722-.586h.047v.903q-.984.411-1.757.41-1.222.001-1.899-.657-.68-.667-.68-1.875 0-1.205.645-1.91.654-.702 1.723-.703.994 0 1.523.586c.357.384.54.932.54 1.64zm-.797-.633q-.013-1.359-1.3-1.36-.66 0-1.055.388a1.5 1.5 0 0 0-.446.972zM181 133.54l-1.98 4.886h-.821l-1.969-4.886h.89l1.512 3.89 1.5-3.89zm3.738-.82h-.938v-.856h.938zm-.059 5.706h-.82v-4.886h.82zm4.354.141q-1.034.002-1.64-.691-.611-.69-.61-1.887-.001-1.205.61-1.898.606-.691 1.64-.692 1.029 0 1.64.703.62.693.621 1.887-.001 1.196-.62 1.887-.613.693-1.641.691m0-4.453q-1.406.002-1.406 1.875 0 .915.363 1.395.374.469 1.043.468.654 0 1.031-.468.374-.467.375-1.395 0-1.873-1.406-1.875m9.401 4.312h-.82v-.539q-.845.681-1.64.68-.787.002-1.208-.48-.422-.48-.422-1.371v-3.176h.82v2.777q0 .834.212 1.149.209.316.832.316.619 0 1.406-.598v-3.644h.82zm3.185-.292v-.926h.047q.866.644 1.78.644 1.149.002 1.15-.726 0-.362-.247-.504-.235-.141-1.008-.281-1.046-.197-1.37-.54-.33-.35-.329-.89 0-.643.527-1.067.537-.42 1.442-.421.867.001 1.64.363v.879h-.046q-.788-.55-1.653-.551-.447 0-.761.176a.56.56 0 0 0-.305.515q0 .343.246.504.245.155 1.043.305.654.118.96.258.303.14.505.422.198.281.199.726 0 .67-.562 1.102-.553.422-1.5.422-.906.001-1.758-.41m10.822.292v-6.515h1.629q1.464.002 2.238.398.773.387 1.207 1.114.432.727.434 1.746 0 1.116-.563 1.91-.564.798-1.347 1.078-.788.272-1.957.27zm.867-5.777v5.027h.809q1.59.002 2.25-.656.668-.654.668-1.863 0-2.506-2.918-2.508zm12.372 3.422h-3.597q0 .823.457 1.29.467.456 1.277.456.958.002 1.723-.586h.046v.903q-.984.411-1.757.41-1.222.001-1.899-.657-.68-.667-.68-1.875 0-1.205.645-1.91.654-.702 1.723-.703.995 0 1.523.586.538.577.54 1.64zm-.797-.633q-.013-1.359-1.3-1.36-.66 0-1.055.388a1.5 1.5 0 0 0-.445.972zm7.805 2.438q0 1.227-.562 1.816-.553.586-1.747.586-.74 0-1.488-.21v-.845h.047q.852.317 1.512.317.737-.002 1.066-.328.34-.317.34-1.008v-.445q-.401.316-.727.457-.33.14-.843.14-.88 0-1.395-.633c-.346-.422-.515-1.02-.515-1.793q-.001-1.17.644-1.851.654-.678 1.524-.68.689 0 1.312.352l.059-.211h.773zm-.832-.797v-2.66a2.75 2.75 0 0 0-1.172-.282q-.68.002-1.066.47-.387.457-.387 1.312 0 .857.293 1.265c.202.276.519.41.95.41q.724.001 1.382-.515m7.354-2.649h-.036l-.234-.035a3 3 0 0 0-.54-.047c-.444 0-.919.205-1.417.61v3.468h-.82v-4.886h.82v.715q.89-.714 1.629-.715.29.001.597.047zm6.076 1.641h-3.598q0 .823.457 1.29.467.456 1.277.456.959.002 1.723-.586h.047v.903q-.984.411-1.758.41-1.221.001-1.898-.657-.68-.667-.68-1.875 0-1.205.645-1.91.654-.702 1.722-.703.995 0 1.524.586.537.577.539 1.64zm-.797-.633q-.014-1.359-1.301-1.36-.66 0-1.055.388a1.5 1.5 0 0 0-.445.972zm7.922.633h-3.598q0 .823.457 1.29.467.456 1.277.456.959.002 1.723-.586h.047v.903q-.984.411-1.758.41-1.221.001-1.898-.657-.68-.667-.68-1.875 0-1.205.645-1.91.654-.702 1.722-.703.995 0 1.524.586.537.577.539 1.64zm-.797-.633q-.014-1.359-1.301-1.36-.66 0-1.055.388a1.5 1.5 0 0 0-.445.972zm4.664 4.793h-.996v-.047q.83-.75 1.347-1.875.515-1.125.516-2.39-.001-1.23-.504-2.356a5.4 5.4 0 0 0-1.36-1.898v-.047h.997c1.093 1.242 1.64 2.678 1.64 4.3 0 1.635-.547 3.07-1.64 4.313M8.364 186.387v-6.516h1.629q1.463.002 2.238.398.773.388 1.207 1.114.432.727.434 1.746 0 1.116-.563 1.91-.564.798-1.347 1.078-.788.272-1.958.27zm.867-5.778v5.028h.809q1.59.001 2.25-.657.668-.654.668-1.863 0-2.506-2.918-2.508zm6.867.07h-.937v-.855h.937zm-.058 5.708h-.82V181.5h.82zm1.298-.293v-.926h.046q.867.644 1.782.644 1.147.002 1.148-.726 0-.362-.246-.504-.236-.141-1.008-.281-1.046-.197-1.37-.54-.33-.35-.33-.89 0-.643.528-1.067.537-.42 1.442-.421.866.001 1.64.363v.879h-.047q-.786-.55-1.652-.551c-.299 0-.55.059-.762.176a.56.56 0 0 0-.304.515q0 .343.246.504.245.155 1.043.305.654.118.96.258.303.14.505.422.198.281.199.726 0 .67-.563 1.102-.552.422-1.5.422-.906.001-1.757-.41m4.67 0v-.926h.046q.866.644 1.782.644 1.147.002 1.148-.726 0-.362-.246-.504-.236-.141-1.008-.281-1.046-.197-1.371-.54-.329-.35-.328-.89 0-.643.527-1.067.537-.42 1.442-.421.866.001 1.64.363v.879h-.047q-.786-.55-1.652-.551c-.299 0-.55.059-.762.176a.56.56 0 0 0-.304.515q0 .343.246.504.245.155 1.043.305.654.118.96.258.303.14.505.422.198.281.199.726 0 .67-.563 1.102-.552.422-1.5.422-.905.001-1.758-.41m9.09-2.063H27.5q0 .823.457 1.29.467.456 1.277.456.958.002 1.723-.586h.046v.903q-.984.411-1.757.41-1.223.001-1.899-.657-.68-.667-.68-1.875 0-1.205.645-1.91.655-.702 1.723-.703.995 0 1.523.586.538.577.54 1.64zm-.797-.633q-.012-1.359-1.3-1.36-.66 0-1.055.388a1.5 1.5 0 0 0-.445.972zm5.098-1.008h-.035l-.235-.035a3 3 0 0 0-.539-.047q-.67.001-1.418.61v3.468h-.82V181.5h.82v.715q.89-.714 1.63-.715.29.001.597.047zm3.378 3.95c-.375.09-.709.14-.996.14q-1.525 0-1.524-1.687v-2.602h-.562v-.691h.562v-1.406h.82v1.406h1.7v.691h-1.7v2.227q-.001.61.06.844a.73.73 0 0 0 .245.375q.186.13.61.128.337.002.738-.164h.047zm4.857.047h-.82v-.516q-.588.437-.973.539a2.7 2.7 0 0 1-.773.117q-.667.002-1.125-.445a1.5 1.5 0 0 1-.457-1.113q-.001-.88.656-1.301.668-.431 2.672-.516v-.129q-.002-.456-.293-.68-.28-.233-1.02-.234-.668.002-1.535.328h-.046v-.832c.591-.146 1.125-.222 1.593-.222q1.135 0 1.63.422.49.421.491 1.265zm-.82-1.207v-1.36q-1.631.071-2.062.34-.422.272-.422.75-.001.844 1.03.844.726.001 1.454-.574m6.035.902q-.844.411-1.57.41-1.126.001-1.77-.656-.632-.656-.632-1.887-.002-1.205.656-1.887c.445-.45 1.025-.68 1.746-.68q.737.001 1.57.41v.915h-.047c-.533-.404-1.051-.61-1.558-.61q-.73 0-1.125.493-.387.482-.387 1.359 0 .893.387 1.36.395.469 1.125.468.772 0 1.558-.597h.047zm-2.883 2.039v-.691h.036q.408.151.714.152.89 0 .891-.727 0-.202-.035-.55h.668q.035.291.035.468-.001.712-.41 1.09-.4.375-1.031.375-.412 0-.868-.117m7.729-1.734h-.82v-.516q-.588.437-.973.539a2.7 2.7 0 0 1-.773.117q-.668.002-1.125-.445a1.5 1.5 0 0 1-.458-1.113q-.002-.88.657-1.301.668-.431 2.672-.516v-.129q-.002-.456-.293-.68-.282-.233-1.02-.234-.668.002-1.535.328h-.047v-.832q.89-.22 1.594-.222 1.135 0 1.629.422.492.421.492 1.265zm-.82-1.207v-1.36q-1.632.071-2.063.34-.422.272-.422.75 0 .844 1.031.844.725.001 1.454-.574m.761-5.883q-.094 1.349-1.113 1.347-.447.002-.82-.34c-.276-.249-.492-.374-.657-.374q-.435 0-.48.726h-.562q.02-.654.328-.996.315-.34.773-.34.43.001.809.328.408.364.668.364.444 0 .492-.715zm3.56 7.23q-1.034.002-1.64-.691-.611-.69-.61-1.887-.001-1.205.61-1.898.606-.691 1.64-.692 1.028 0 1.64.703.621.693.622 1.887 0 1.196-.621 1.887-.613.693-1.641.691m0-4.453q-1.407.002-1.406 1.875 0 .915.363 1.395.375.469 1.043.468.654 0 1.031-.468.375-.467.375-1.395 0-1.873-1.406-1.875m9.223 4.266c-.375.09-.71.14-.997.14q-1.524 0-1.523-1.687v-2.602h-.562v-.691h.562v-1.406h.82v1.406h1.7v.691h-1.7v2.227q-.001.61.059.844a.73.73 0 0 0 .246.375q.186.13.61.128c.225 0 .471-.052.738-.164h.047zm2.9.187q-1.034.002-1.64-.691-.611-.69-.61-1.887-.001-1.205.61-1.898.606-.691 1.64-.692 1.029 0 1.64.703.621.693.622 1.887 0 1.196-.621 1.887-.613.693-1.641.691m0-4.453q-1.406.002-1.406 1.875 0 .915.363 1.395.374.469 1.043.468.654 0 1.031-.468.375-.467.375-1.395 0-1.873-1.406-1.875m8.599 4.453q-1.034.002-1.641-.691-.61-.69-.61-1.887 0-1.205.61-1.898.607-.691 1.64-.692 1.03 0 1.641.703.62.693.621 1.887-.001 1.196-.62 1.887-.613.693-1.641.691m0-4.453q-1.407.002-1.407 1.875-.001.915.364 1.395.374.469 1.043.468.654 0 1.03-.468.376-.467.376-1.395 0-1.873-1.406-1.875m4.353 4.09-.047.223h-.773v-6.81h.82v2.427q.774-.643 1.617-.645.867 0 1.36.668.503.669.504 1.875-.002 1.173-.61 1.899-.61.727-1.523.726-.716-.001-1.348-.363m0-3.469v2.813q.608.27 1.172.27 1.465.001 1.465-1.852 0-1.781-1.219-1.782-.694.001-1.418.551m7.31 3.645c-.375.09-.71.14-.996.14q-1.525 0-1.524-1.687v-2.602h-.56v-.691h.562v-1.406h.82v1.406h1.7v.691h-1.7v2.227q-.001.61.059.844a.73.73 0 0 0 .246.375q.186.13.61.128c.225 0 .471-.052.738-.164h.047zm4.848.047h-.82v-.516q-.588.437-.973.539a2.7 2.7 0 0 1-.773.117q-.667.002-1.125-.445a1.5 1.5 0 0 1-.457-1.113q-.001-.88.656-1.301.668-.431 2.672-.516v-.129q-.002-.456-.293-.68-.28-.233-1.02-.234-.668.002-1.535.328h-.047v-.832q.89-.22 1.594-.222 1.135 0 1.63.422.49.421.491 1.265zm-.82-1.207v-1.36q-1.63.071-2.063.34-.42.272-.421.75-.001.844 1.03.844.726.001 1.454-.574m3.302-4.5h-.938v-.856h.938zm-.059 5.707h-.82V181.5h.82zm5.716 0h-.82v-2.79q-.001-.878-.235-1.16-.236-.291-.797-.293-.633.001-1.418.586v3.657h-.82V181.5h.82v.539q.818-.678 1.641-.68 1.628 0 1.629 1.852zm7.286-.047c-.375.09-.709.14-.996.14q-1.524 0-1.523-1.687v-2.602h-.563v-.691h.563v-1.406h.82v1.406h1.7v.691h-1.7v2.227q-.002.61.058.844a.73.73 0 0 0 .247.375q.186.13.609.128c.226 0 .472-.052.738-.164h.047zm5.077.047h-.82v-2.79q-.002-.878-.234-1.16c-.159-.193-.422-.293-.797-.293q-.635.001-1.418.586v3.657h-.82v-6.809h.82v2.46c.545-.45 1.092-.679 1.64-.679q1.628 0 1.63 1.852zm5.678-2.356h-3.598q0 .823.457 1.29c.31.304.739.456 1.278.456q.958.002 1.722-.586h.047v.903q-.984.411-1.758.41-1.221.001-1.898-.656-.68-.668-.68-1.875t.645-1.91q.654-.704 1.723-.704.994.001 1.523.586.537.577.539 1.64zm-.797-.633q-.013-1.359-1.3-1.36-.66 0-1.055.388a1.5 1.5 0 0 0-.446.972zm9.179 2.989h-.832v-.516q-.753.658-1.57.656-.88 0-1.395-.668c-.346-.45-.516-1.078-.516-1.875q0-1.181.633-1.898.633-.726 1.547-.727.677 0 1.3.34v-2.121h.833zm-.832-1.207v-2.801a2.7 2.7 0 0 0-1.16-.27q-.693 0-1.078.48-.387.484-.387 1.372-.001 1.783 1.254 1.781.654 0 1.37-.562m6.536-1.149h-3.598q0 .823.457 1.29c.31.304.739.456 1.278.456q.958.002 1.722-.586h.047v.903q-.984.411-1.758.41-1.221.001-1.898-.656-.68-.668-.68-1.875t.645-1.91q.654-.704 1.722-.704.995.001 1.524.586.537.577.539 1.64zm-.797-.633q-.013-1.359-1.3-1.36-.66 0-1.055.388a1.5 1.5 0 0 0-.446.972zm6.023 2.438q0 1.227-.562 1.816-.553.585-1.746.586-.74 0-1.488-.21v-.845h.047q.852.317 1.511.317.738-.001 1.067-.328.339-.317.34-1.008v-.445q-.401.316-.727.457-.33.14-.844.14-.88 0-1.394-.633-.518-.633-.516-1.793 0-1.17.645-1.851.654-.678 1.523-.68.689 0 1.312.352l.06-.211h.773zm-.832-.797v-2.66a2.75 2.75 0 0 0-1.171-.281q-.681.001-1.067.468-.387.459-.387 1.313 0 .857.293 1.265c.203.276.519.41.95.41q.724.001 1.382-.515m5.494-2.649h-.036l-.234-.035a3 3 0 0 0-.539-.047q-.67.001-1.418.61v3.469h-.82V181.5h.82v.715q.89-.714 1.629-.715.29.001.598.047zm4.807 1.641h-3.597q0 .823.457 1.29.467.456 1.277.456.958.002 1.723-.586h.047v.903q-.986.411-1.758.41-1.222.001-1.899-.656-.68-.668-.68-1.875t.645-1.91q.654-.704 1.723-.704.995.001 1.523.586.538.577.54 1.64zm-.797-.633q-.013-1.359-1.3-1.36-.66 0-1.055.388a1.5 1.5 0 0 0-.445.972zm6.141.633h-3.598q0 .823.457 1.29c.31.304.739.456 1.278.456q.958.002 1.722-.586h.047v.903q-.984.411-1.758.41-1.221.001-1.898-.656-.68-.668-.68-1.875t.645-1.91q.654-.704 1.723-.704.994.001 1.523.586.537.577.539 1.64zm-.797-.633q-.013-1.359-1.3-1.36-.66 0-1.055.388a1.5 1.5 0 0 0-.446.972zm7.108 3.13q-1.034 0-1.641-.692-.61-.69-.61-1.887 0-1.204.61-1.898.607-.691 1.64-.692 1.03 0 1.641.703.62.693.621 1.887-.001 1.196-.62 1.887-.613.693-1.641.691m0-4.454q-1.407.001-1.407 1.875-.001.915.364 1.395.374.469 1.043.468.654 0 1.03-.468.375-.466.376-1.395 0-1.874-1.406-1.875m6.17-1.7h-.047l-.258-.058a2 2 0 0 0-.48-.07q-.528 0-.774.234-.236.238-.235.856v.164h1.477v.691h-1.453v4.196h-.82v-4.196h-.563v-.691h.563v-.164q0-.879.421-1.336.432-.467 1.266-.469.432 0 .902.094zm9.539 6.013h-.868v-5.614l-1.816 3.82h-.516l-1.793-3.82v5.614h-.808v-6.516h1.183l1.735 3.621 1.675-3.621h1.208zm5.484 0h-.82v-.516q-.588.437-.973.539a2.7 2.7 0 0 1-.774.117q-.667.002-1.125-.445a1.5 1.5 0 0 1-.457-1.113q-.001-.88.657-1.301.668-.431 2.672-.516v-.129q-.002-.456-.293-.68-.282-.233-1.02-.234-.668.002-1.535.328h-.047v-.832q.89-.22 1.594-.222 1.135 0 1.629.422.492.421.492 1.265zm-.82-1.207v-1.36q-1.632.071-2.063.34-.422.272-.422.75 0 .844 1.031.844.725.001 1.454-.574m2.083.914v-.926h.046q.867.645 1.782.644 1.147.001 1.148-.726 0-.362-.246-.504-.236-.141-1.008-.281-1.046-.196-1.37-.54-.33-.35-.329-.89 0-.643.527-1.066.536-.422 1.442-.422.866.001 1.64.363v.879h-.046q-.787-.55-1.653-.55c-.299 0-.55.058-.762.175a.56.56 0 0 0-.304.515q0 .343.246.504.245.155 1.043.305.654.119.96.258.304.14.505.422.198.281.199.726 0 .67-.563 1.102-.552.422-1.5.422-.905.001-1.757-.41m7.544.246c-.375.09-.71.14-.997.14q-1.524 0-1.523-1.687v-2.602h-.562v-.691h.562v-1.406h.82v1.406h1.7v.691h-1.7v2.227q-.001.61.059.844a.73.73 0 0 0 .246.375q.186.13.61.128c.225 0 .471-.052.738-.164h.047zm5.077-2.309h-3.598q0 .823.457 1.29.467.456 1.277.456.959.002 1.723-.586h.047v.903q-.984.411-1.758.41-1.221.001-1.898-.656-.68-.668-.68-1.875t.645-1.91q.654-.704 1.722-.704.995.001 1.524.586.537.577.539 1.64zm-.797-.633q-.014-1.359-1.301-1.36-.66 0-1.055.388a1.5 1.5 0 0 0-.445.972zm5.1-1.008h-.035l-.234-.035a3 3 0 0 0-.54-.047q-.67.001-1.417.61v3.469h-.82V181.5h.82v.715q.89-.714 1.629-.715.29.001.597.047zm5.848 4.137q-1.033.002-1.64-.691-.611-.69-.61-1.887-.001-1.204.61-1.898.607-.691 1.64-.692 1.03 0 1.64.703.621.693.622 1.887 0 1.196-.621 1.887-.612.693-1.64.691m0-4.453q-1.406.001-1.406 1.875 0 .915.363 1.395.375.469 1.043.468.655 0 1.031-.468.375-.466.375-1.395 0-1.874-1.406-1.875m6.167-1.7h-.047l-.258-.058a2 2 0 0 0-.48-.07q-.528 0-.774.234-.236.238-.234.856v.164h1.477v.691h-1.454v4.196h-.82v-4.196h-.562v-.691h.562v-.164q0-.879.422-1.336.43-.467 1.266-.469.432 0 .902.094zm3.454 5.614v-1.09h.059q.479.414 1.136.633.655.224 1.23.223.796 0 1.243-.293.457-.303.457-.809-.001-.563-.363-.773-.364-.21-1.207-.328-.998-.15-1.465-.34a1.8 1.8 0 0 1-.762-.586q-.293-.386-.293-1.008-.001-.817.692-1.336.69-.527 1.758-.527 1.218 0 2.273.457v1.02h-.059q-.364-.316-.984-.516a3.8 3.8 0 0 0-1.23-.211q-.704.002-1.125.293-.422.28-.422.738-.002.376.164.586.174.21.48.316.303.106 1.102.235c1.008.173 1.646.407 1.922.703q.42.447.421 1.148 0 .822-.703 1.407-.693.574-1.91.574-1.244.001-2.414-.516m9.979.094q-.845.411-1.57.41-1.126.001-1.77-.656-.633-.656-.633-1.887-.001-1.205.656-1.887c.446-.45 1.026-.68 1.746-.68q.738.001 1.57.41v.915h-.046c-.533-.404-1.052-.61-1.559-.61q-.729 0-1.125.493-.387.482-.387 1.359 0 .893.387 1.36.396.469 1.125.468.773 0 1.559-.598h.047zm1.94-5.403h-.938v-.855h.937zm-.06 5.708h-.82V181.5h.82zm5.716-2.356h-3.597q0 .823.457 1.29.467.456 1.277.456.958.002 1.723-.586h.047v.903q-.985.411-1.758.41-1.222.001-1.899-.657-.68-.667-.68-1.875 0-1.204.645-1.91.654-.703 1.723-.703.995 0 1.523.586.538.577.54 1.64zm-.797-.633q-.013-1.359-1.3-1.36-.66 0-1.055.388a1.5 1.5 0 0 0-.445.972zm6.141 2.989h-.82v-2.79q-.001-.878-.235-1.16-.235-.291-.796-.293-.635.001-1.418.586v3.657h-.82V181.5h.82v.539q.817-.678 1.64-.68 1.628 0 1.63 1.852zm5.206-.305q-.844.411-1.57.41-1.126.001-1.77-.656-.633-.656-.633-1.887-.001-1.205.657-1.887c.445-.45 1.025-.68 1.746-.68q.736.001 1.57.41v.915h-.047c-.533-.404-1.052-.61-1.558-.61q-.73 0-1.125.493-.387.482-.387 1.359 0 .893.387 1.36.395.469 1.125.468.772 0 1.558-.598h.047zm5.142-2.05h-3.598q0 .822.457 1.288.467.457 1.277.457.959.002 1.723-.586h.047v.903q-.984.411-1.758.41-1.221.001-1.898-.657-.68-.667-.68-1.875 0-1.204.645-1.91.654-.703 1.722-.703.995 0 1.524.586.537.577.539 1.64zm-.797-.634q-.015-1.359-1.3-1.36-.66 0-1.056.388a1.5 1.5 0 0 0-.445.972zm6.088-2.719h-.938v-.855h.938zm-.059 5.708h-.82V181.5h.82zm5.713 0h-.82v-2.79q-.001-.878-.235-1.16-.236-.291-.797-.293-.634.001-1.417.586v3.657h-.82V181.5h.82v.539q.817-.678 1.64-.68 1.628 0 1.629 1.852zM2.311 196.863v-1.09h.059q.479.414 1.136.633.656.224 1.23.223.796 0 1.243-.293.457-.303.457-.809-.001-.563-.363-.773-.364-.21-1.207-.328-.998-.15-1.465-.34a1.8 1.8 0 0 1-.762-.586q-.294-.386-.293-1.008-.001-.817.692-1.336.69-.528 1.758-.527 1.218 0 2.273.457v1.02H7.01q-.364-.317-.984-.516a3.8 3.8 0 0 0-1.23-.211q-.704.002-1.125.293-.422.28-.422.738-.002.376.164.586.174.21.48.316.303.106 1.102.235 1.51.26 1.922.703.42.447.421 1.148 0 .822-.703 1.406-.693.575-1.91.575-1.244.001-2.414-.516m8.898.352c-.375.09-.71.14-.997.14q-1.523 0-1.523-1.687v-2.602h-.562v-.691h.562v-1.406h.82v1.406h1.7v.691h-1.7v2.227q-.001.61.059.844a.73.73 0 0 0 .246.375q.186.13.61.128c.225 0 .471-.052.738-.164h.047zm5.045.047h-.82v-.54q-.845.681-1.641.68-.787.001-1.207-.48-.422-.48-.422-1.371v-3.176h.82v2.777q0 .834.21 1.149.211.315.833.316.62 0 1.406-.598v-3.644h.82zm5.595 0h-.832v-.516q-.751.658-1.57.656-.88 0-1.395-.668-.516-.678-.515-1.875 0-1.181.633-1.898.632-.727 1.546-.727.678 0 1.301.34v-2.121h.832zm-.832-1.207v-2.801a2.7 2.7 0 0 0-1.16-.27q-.693 0-1.078.48-.387.484-.387 1.372-.001 1.783 1.254 1.781.655 0 1.371-.562m6.674-3.68-2.86 6.691h-.878l.914-2.039-1.946-4.652h.891l1.5 3.62 1.512-3.62zm5.162 2.46v2.427h-.867v-6.516h1.77q1.239 0 1.863.516.633.517.633 1.453 0 .891-.633 1.511-.633.611-1.899.61zm0-3.35v2.612h.727c1.177 0 1.77-.45 1.77-1.359q-.002-1.253-1.641-1.254zm7.518 1.78h-.035l-.235-.035a3 3 0 0 0-.539-.047q-.67.001-1.418.61v3.468h-.82v-4.886h.82v.715q.89-.714 1.629-.715.29.001.598.047zm2.692 4.137q-1.033.002-1.64-.691-.611-.69-.61-1.887-.001-1.204.61-1.898.607-.691 1.64-.692 1.03 0 1.64.703.621.693.622 1.887 0 1.196-.621 1.887-.612.693-1.64.691m0-4.453q-1.406.002-1.406 1.875 0 .915.363 1.395.375.469 1.043.468.655 0 1.031-.468.375-.467.375-1.395 0-1.873-1.406-1.875m7.503 3.762q0 1.227-.562 1.816-.553.585-1.747.586-.74 0-1.488-.21v-.845h.047q.852.317 1.512.317.737-.001 1.066-.328.34-.317.34-1.008v-.445q-.401.315-.727.457-.33.14-.843.14-.88 0-1.395-.633c-.346-.421-.515-1.02-.515-1.793q-.001-1.17.644-1.851.654-.678 1.523-.68.69 0 1.313.352l.059-.211h.773zm-.832-.797v-2.66a2.75 2.75 0 0 0-1.172-.282q-.68.002-1.066.47-.387.457-.387 1.312 0 .857.293 1.265.303.412.95.41.724.001 1.382-.515m5.493-2.649h-.035l-.234-.035a3 3 0 0 0-.54-.047c-.445 0-.92.205-1.417.61v3.468h-.82v-4.886H53v.715q.888-.714 1.628-.715.29.001.598.047zm4.58 3.997h-.821v-.516q-.588.437-.973.539a2.7 2.7 0 0 1-.773.117q-.668.002-1.125-.445a1.5 1.5 0 0 1-.457-1.113q-.001-.88.656-1.301.668-.431 2.672-.516v-.129q-.002-.455-.293-.68-.281-.233-1.02-.234-.668.002-1.535.328h-.047v-.832q.89-.22 1.594-.222 1.134 0 1.63.422.49.421.491 1.265zm-.821-1.207v-1.36q-1.63.071-2.063.34-.42.272-.421.75-.001.844 1.03.844.725.001 1.454-.574m9.548 1.207h-.82v-2.79q-.001-.948-.235-1.195-.224-.257-.75-.258-.587.001-1.383.61.035.248.035.504v3.129h-.832v-2.79q-.001-.948-.222-1.195-.224-.256-.75-.258-.588.001-1.36.586v3.657h-.82v-4.887h.82v.539q.82-.678 1.594-.68.983.001 1.36.797.936-.796 1.792-.797 1.57 0 1.57 1.852zm9.782 0H77.25l-3.094-5.836v5.836h-.809v-6.516h1.336l2.824 5.32v-5.32h.809zm5.467 0h-.82v-.516q-.588.437-.973.539a2.7 2.7 0 0 1-.774.117q-.667.002-1.125-.445a1.5 1.5 0 0 1-.457-1.113q-.002-.88.657-1.301.668-.431 2.672-.516v-.129q-.002-.455-.293-.68-.282-.233-1.02-.234c-.445 0-.958.112-1.535.328h-.047v-.832q.89-.22 1.594-.222 1.135 0 1.629.422.492.421.492 1.265zm-.82-1.208v-1.359q-1.631.071-2.063.34-.422.272-.422.75 0 .844 1.031.844.725.001 1.454-.575m9.547 1.208h-.82v-2.79q-.002-.948-.234-1.195-.224-.257-.75-.258-.589.001-1.383.61.035.248.035.504v3.129h-.832v-2.79q-.001-.948-.223-1.195-.224-.257-.75-.258-.586.001-1.36.586v3.657h-.82v-4.887h.82v.539q.82-.678 1.595-.68.982.001 1.36.797.934-.796 1.792-.797 1.57 0 1.57 1.852zm5.678-2.356H94.59q0 .823.457 1.29.468.456 1.278.456.958.002 1.722-.586h.047v.903q-.984.411-1.757.41-1.222.002-1.899-.657-.68-.667-.68-1.875 0-1.204.645-1.91.654-.703 1.723-.703.994 0 1.523.586c.357.384.54.932.54 1.64zm-.797-.633q-.013-1.359-1.3-1.36-.66 0-1.055.388a1.5 1.5 0 0 0-.446.972zm1.828 2.59v-1.09h.059q.478.414 1.137.633.654.224 1.23.223.794 0 1.242-.293.457-.303.457-.809-.001-.563-.363-.773-.364-.21-1.207-.328-.998-.15-1.465-.34a1.8 1.8 0 0 1-.762-.586q-.293-.386-.293-1.008-.001-.817.692-1.336.69-.528 1.758-.527 1.218 0 2.273.457v1.02h-.058q-.366-.317-.985-.516a3.8 3.8 0 0 0-1.23-.211q-.703.002-1.125.293-.422.28-.422.738-.001.376.164.586.174.21.48.316.304.106 1.102.235 1.51.26 1.922.703.422.447.422 1.148 0 .822-.703 1.406-.695.575-1.91.575-1.245.001-2.415-.516m7.175.152v2.051h-.82v-6.691h.82v.504q.774-.644 1.617-.645.867 0 1.36.668.502.669.504 1.852 0 1.186-.621 1.898-.623.703-1.536.703-.703.002-1.324-.34m0-3.445v2.777q.585.272 1.172.27.69 0 1.078-.457.387-.466.387-1.383 0-1.758-1.23-1.758-.66.001-1.407.551m8.857 1.336h-3.598q0 .823.457 1.29.467.456 1.277.456.958.002 1.723-.586h.047v.903q-.984.411-1.758.41-1.221.002-1.898-.657-.681-.667-.68-1.875 0-1.204.644-1.91.655-.703 1.723-.703.995 0 1.524.586.537.577.539 1.64zm-.797-.633q-.015-1.359-1.301-1.36-.66 0-1.055.388a1.5 1.5 0 0 0-.445.972zm5.672 2.684q-.845.411-1.57.41c-.75 0-1.343-.217-1.77-.656q-.633-.656-.633-1.887-.001-1.205.656-1.887c.445-.45 1.026-.68 1.746-.68q.737.001 1.57.41v.915h-.046q-.8-.608-1.559-.61-.729 0-1.125.493-.387.481-.387 1.359 0 .893.387 1.36.396.469 1.125.468.773 0 1.559-.598h.047zm1.942-5.403h-.938v-.855h.938zm-.059 5.708h-.82v-4.887h.82zm5.42 0h-.82v-.516q-.588.437-.973.539a2.7 2.7 0 0 1-.773.117q-.667.002-1.125-.445a1.5 1.5 0 0 1-.457-1.113q-.001-.88.656-1.301.668-.431 2.672-.516v-.129q-.002-.456-.293-.68-.28-.233-1.02-.234-.668.002-1.535.328h-.047v-.832q.89-.22 1.594-.222 1.135 0 1.63.421.49.423.491 1.266zm-.82-1.208v-1.359q-1.63.071-2.063.34-.42.272-.421.75-.001.844 1.03.844.725.001 1.454-.575m3.246 1.208h-.82v-6.81h.82zm2.514-5.708h-.938v-.855h.938zm-.059 5.708h-.82v-4.887h.82zm5.177 0h-3.95v-.61l2.848-3.598h-2.789v-.68h3.809v.587l-2.86 3.61h2.942zm4.954 0h-.82v-.516q-.588.437-.973.539a2.7 2.7 0 0 1-.773.117q-.668.002-1.125-.445a1.5 1.5 0 0 1-.457-1.113q-.002-.88.656-1.301.668-.431 2.672-.516v-.129q-.002-.456-.293-.68-.282-.233-1.02-.234-.668.002-1.535.328h-.047v-.832q.89-.22 1.594-.222 1.135 0 1.629.421.492.423.492 1.266zm-.82-1.208v-1.359q-1.631.071-2.063.34-.422.272-.422.75 0 .844 1.032.844.724.001 1.453-.575m4.954 1.16c-.375.091-.71.141-.996.141q-1.525 0-1.524-1.687v-2.602h-.562v-.691h.562v-1.406h.82v1.406h1.7v.691h-1.7v2.227q-.002.61.06.844a.73.73 0 0 0 .245.375q.186.13.61.128.338.002.738-.164h.047zm1.88-5.66h-.937v-.855h.938zm-.058 5.708h-.82v-4.887h.82zm3.533.14q-1.033.002-1.64-.691-.611-.69-.61-1.887-.001-1.205.61-1.898.607-.691 1.64-.692 1.03 0 1.64.703.621.693.622 1.887 0 1.196-.621 1.887-.612.693-1.64.691m0-4.453q-1.406.001-1.406 1.875 0 .915.363 1.395.375.469 1.043.468.655 0 1.031-.468.375-.467.375-1.395 0-1.874-1.406-1.875m7.623 4.313h-.82v-2.79q-.001-.878-.234-1.16-.236-.291-.797-.293-.635.001-1.418.586v3.657h-.82v-4.887h.82v.539q.819-.678 1.64-.68 1.628 0 1.63 1.852zm5.625-5.708h-.937v-.855h.937zm-.058 5.708h-.82v-4.887h.82zm5.713 0h-.82v-2.79q-.001-.878-.235-1.16-.236-.291-.797-.293-.634.001-1.418.586v3.657h-.82v-4.887h.82v.539q.818-.678 1.64-.68 1.629 0 1.63 1.852zm4.52-.399v-1.09h.059q.478.414 1.136.633.656.224 1.23.223.795 0 1.243-.293.457-.303.457-.809-.001-.563-.363-.773-.364-.21-1.207-.328-.999-.15-1.465-.34a1.8 1.8 0 0 1-.762-.586q-.293-.386-.293-1.008-.001-.817.692-1.336.69-.528 1.757-.527 1.218 0 2.274.457v1.02h-.059q-.364-.317-.984-.516a3.8 3.8 0 0 0-1.23-.211q-.704.002-1.126.293-.42.28-.421.738c0 .252.052.445.164.586q.174.21.48.316.302.106 1.102.235 1.51.26 1.922.703.42.447.421 1.148 0 .822-.703 1.406-.693.575-1.91.575-1.244.001-2.414-.516m7.175.152v2.051h-.82v-6.691h.82v.504q.774-.644 1.617-.645.866 0 1.36.668.501.669.503 1.852-.001 1.186-.62 1.898-.624.703-1.536.703-.704.002-1.324-.34m0-3.445v2.777q.584.272 1.172.27.69 0 1.078-.457.387-.466.387-1.383 0-1.758-1.23-1.758-.66.001-1.407.551m8.856 1.336h-3.597q0 .823.457 1.29.467.456 1.277.456.958.002 1.723-.586h.047v.903q-.986.411-1.758.41-1.222.002-1.899-.657-.68-.667-.68-1.875 0-1.204.645-1.91.655-.703 1.723-.703.995 0 1.523.586.538.577.54 1.64zm-.797-.633q-.013-1.359-1.3-1.36-.66 0-1.055.388a1.5 1.5 0 0 0-.445.972zm5.672 2.684q-.844.411-1.57.41-1.126.001-1.77-.656-.632-.656-.632-1.887-.002-1.205.656-1.887c.445-.45 1.025-.68 1.746-.68q.737.001 1.57.41v.915h-.047q-.798-.608-1.558-.61-.729 0-1.125.493-.387.481-.387 1.359 0 .893.387 1.36.396.469 1.125.468.772 0 1.558-.598h.047zm1.943-5.403h-.938v-.855h.938zm-.059 5.708h-.82v-4.887h.82zm5.42 0h-.82v-.516q-.588.437-.973.539a2.7 2.7 0 0 1-.773.117q-.668.002-1.125-.445a1.5 1.5 0 0 1-.457-1.113q-.002-.88.656-1.301.668-.431 2.672-.516v-.129q-.002-.456-.293-.68-.282-.233-1.02-.234-.668.002-1.535.328h-.047v-.832q.89-.22 1.594-.222 1.135 0 1.629.421.492.423.492 1.266zm-.82-1.208v-1.359q-1.631.071-2.063.34-.422.272-.422.75 0 .844 1.032.844.724.001 1.453-.575m3.246 1.208h-.82v-6.81h.82zm2.514-5.708h-.938v-.855h.938zm-.06 5.708h-.82v-4.887h.82zm5.178 0h-3.95v-.61l2.848-3.598h-2.789v-.68h3.809v.587l-2.86 3.61h2.942zm4.95 0h-.82v-.516q-.587.437-.972.539a2.7 2.7 0 0 1-.774.117q-.668.002-1.125-.445a1.5 1.5 0 0 1-.457-1.113q-.001-.88.657-1.301.668-.431 2.672-.516v-.129q-.002-.456-.293-.68-.282-.233-1.02-.234-.668.002-1.535.328h-.047v-.832q.89-.22 1.594-.222 1.135 0 1.629.421.492.423.492 1.266zm-.82-1.208v-1.359q-1.63.071-2.062.34-.422.272-.422.75 0 .844 1.031.844.725.001 1.454-.575m4.958 1.16c-.375.091-.71.141-.997.141q-1.524 0-1.523-1.687v-2.602h-.562v-.691h.562v-1.406h.82v1.406h1.7v.691h-1.7v2.227q-.001.61.059.844a.73.73 0 0 0 .246.375q.186.13.61.128.338.002.738-.164h.047zm1.88-5.66h-.937v-.855h.937zm-.058 5.708h-.82v-4.887h.82zm3.533.14q-1.033.002-1.64-.691-.611-.69-.61-1.887-.001-1.205.61-1.898.607-.691 1.64-.692 1.03 0 1.64.703.621.693.622 1.887 0 1.196-.621 1.887-.612.693-1.641.691m0-4.453q-1.406.001-1.406 1.875 0 .915.363 1.395.375.469 1.043.468.655 0 1.031-.468.375-.467.375-1.395 0-1.874-1.406-1.875m7.623 4.313h-.82v-2.79q-.001-.878-.235-1.16-.236-.291-.797-.293-.633.001-1.417.586v3.657h-.82v-4.887h.82v.539q.817-.678 1.64-.68 1.628 0 1.63 1.852zm9.782 0h-1.066l-3.094-5.836v5.836h-.808v-6.516h1.335l2.825 5.32v-5.32h.808zm5.464 0h-.82v-.516q-.588.437-.973.539a2.7 2.7 0 0 1-.773.117q-.668.002-1.125-.445a1.5 1.5 0 0 1-.457-1.113q-.001-.88.656-1.301.668-.431 2.672-.516v-.129q-.002-.456-.293-.68-.281-.233-1.02-.234-.668.002-1.535.328h-.047v-.832q.89-.22 1.594-.222 1.135 0 1.629.421.492.423.492 1.266zm-.82-1.208v-1.359q-1.631.071-2.063.34-.421.272-.422.75 0 .844 1.032.844.724.001 1.453-.575m9.548 1.208h-.82v-2.79q-.001-.948-.235-1.195-.224-.257-.75-.258-.589.001-1.383.61.035.248.035.504v3.129h-.832v-2.79q-.001-.948-.222-1.195-.224-.257-.75-.258-.588.001-1.36.586v3.657h-.82v-4.887h.82v.539q.819-.678 1.594-.68.982.001 1.36.797.935-.796 1.792-.797 1.57 0 1.57 1.852zm5.677-2.356h-3.597q0 .823.457 1.29.467.456 1.277.456.958.002 1.723-.586h.047v.903q-.985.411-1.758.41-1.222.002-1.899-.657-.68-.667-.68-1.875 0-1.204.645-1.91.655-.703 1.723-.703.995 0 1.523.586.538.577.54 1.64zm-.796-.633q-.014-1.359-1.301-1.36-.66 0-1.055.388a1.5 1.5 0 0 0-.445.972zm3.263 2.989h-1.043v-1.243h1.043zM102.436 481.137q-.002.904-.644 1.464c-.422.37-1.04.551-1.852.551q-.915 0-1.547-.129V481.7h.153q.55.21 1.019.211.537.001.785-.164a.72.72 0 0 0 .328-.422q.07-.268.07-.996v-2.602H99.26v-1.195h3.176zm4.474 1.394q-.483.364-.844.504-.352.14-.855.14-.705.001-1.184-.433-.47-.432-.469-1.102-.001-.853.656-1.289c.446-.287 1.342-.468 2.696-.539v-.023q-.001-.374-.305-.54-.295-.174-1.008-.175-.506 0-1.465.352h-.14v-1.196a8.8 8.8 0 0 1 1.933-.234q1.346 0 1.946.422.597.411.597 1.289v3.34h-1.558zm0-.762v-1.03q-1.104.096-1.43.245-.315.155-.316.528-.001.341.187.468.197.131.645.13.492.001.914-.34m7.945 1.278h-1.582v-2.438q-.001-.782-.164-1.055-.154-.28-.703-.28-.413.001-.914.292v3.48h-1.57v-4.91h1.57v.54q.864-.679 1.664-.68.83 0 1.265.48.433.484.434 1.371zm6.337 0h-1.57v-.54q-.554.413-.89.54a2 2 0 0 1-.774.14q-.822 0-1.266-.468-.435-.468-.434-1.383v-3.2h1.582v2.438q-.001.926.2 1.137.197.2.668.199.444 0 .914-.293v-3.48h1.57zm4.474-.516q-.484.364-.844.504c-.234.094-.522.14-.856.14q-.703.001-1.183-.433-.47-.432-.469-1.102-.001-.853.656-1.289.667-.432 2.696-.539v-.023q-.001-.374-.305-.54-.295-.174-1.008-.175-.506 0-1.465.352h-.14v-1.196a8.8 8.8 0 0 1 1.933-.234q1.347 0 1.946.422.597.411.597 1.289v3.34h-1.558zm0-.762v-1.03q-1.104.096-1.43.245-.316.155-.316.528-.001.341.187.468.197.131.645.13.492.001.914-.34m6.577-2.132h-.14l-.2-.036a3.4 3.4 0 0 0-.504-.035q-.623.002-1.148.188v3.293h-1.57v-4.91h1.57v.714q.83-.738 1.617-.738.209.001.375.023zm3.287 1.675 1.125-3.175h1.617l-2.73 6.714h-1.711l.773-1.84-1.91-4.874h1.652zm5.23.012-1.583 3.34h-.972l.867-3.34zm9.518 1.723h-5.121v-1.078q.782-.572 1.535-1.196.748-.632 1.148-1.148.41-.527.41-1.031 0-.925-1.113-.926-.764 0-1.664.586h-.14v-1.442a5.7 5.7 0 0 1 2.132-.41q1.205 0 1.852.516.656.505.656 1.453-.001.87-.62 1.652-.625.788-2.005 1.781h2.93zm3.633.14q-1.397 0-2.051-.808-.645-.819-.645-2.59c0-1.178.217-2.04.657-2.578q.654-.81 2.039-.809 1.392.002 2.039.82.655.822.656 2.567-.002 1.76-.644 2.578-.646.821-2.051.82m0-5.59q-.554 0-.785.516-.224.506-.223 1.676-.002 1.16.234 1.676.246.516.774.515.525.001.761-.515.235-.516.235-1.676-.001-1.17-.223-1.676-.225-.515-.773-.516m6.375 5.59q-1.397 0-2.051-.808-.645-.819-.645-2.59c0-1.178.217-2.04.657-2.578q.654-.81 2.039-.809 1.392.002 2.039.82.655.822.656 2.567-.002 1.76-.644 2.578-.646.821-2.051.82m0-5.59q-.554 0-.785.516-.224.506-.223 1.676-.002 1.16.234 1.676.246.516.774.515.525.001.761-.515.235-.516.235-1.676-.001-1.17-.223-1.676-.225-.515-.773-.516m6.375 5.59q-1.397 0-2.051-.808-.645-.819-.645-2.59c0-1.178.217-2.04.657-2.578q.654-.81 2.039-.809 1.392.002 2.039.82.655.822.656 2.567-.002 1.76-.644 2.578-.646.821-2.051.82m0-5.59q-.554 0-.785.516-.224.506-.223 1.676-.002 1.16.234 1.676.246.516.774.515.525.001.761-.515.235-.516.235-1.676-.001-1.17-.223-1.676-.225-.515-.773-.516m0 0" aria-label="AVeryLongandImpressive ThesisTitlewithaForcedLineBreak JohnVeryLongnameDoe (Master/BScinNameofPreviousDegree) DissertaçãotoobtainthedegreeofMasterofSciencein StudyProgramNameSpecializationinSpecializationName. January,2000" style="fill:#5f1437;fill-opacity:1;fill-rule:nonzero;stroke:none" transform="translate(237.133 412.067)scale(1.33333)"/><g clip-path="url(#a)"><g clip-path="url(#b)"><path d="M207.203 8416.92h14.598c-2.637-64.23-1.211-128.6-.5-192.9 65.867 63.23 128.883 129.46 194.531 192.9h16.664c.711-67.87 0-135.8.496-203.67 66.363-.29 132.801-.36 199.164.07.641 67.87.141 135.73.426 203.6h10.965c3.203-64.44-.285-128.96 1.922-193.4 66.008 63.66 128.738 130.67 195.601 193.4h16.875c.571-67.94-.14-135.87.426-203.74 66.152-.29 132.371.14 198.519-.43 2.14 68.08.72 136.09.93 204.17h16.95c65.36-63.09 128.3-128.6 193.1-192.33.29 64.16.08 128.24.22 192.33h16.09c.14-67.94-.43-135.87.5-203.81 65.65-.07 131.3.07 196.88-.07.42 67.94.14 135.94.28 203.88h11.18c5.48-64.23.22-128.74 2.78-193.12 66.29 62.95 128.74 129.96 194.82 193.12h15.73c2.21-64.44-.28-128.89 1.78-193.33 66.58 62.87 128.96 130.1 195.03 193.33h16.02c1.71-67.94 0-135.87 1-203.81 66.51 0 133.09-.22 199.66.14.43 67.87-.07 135.8.29 203.67h16.94c65.72-63.37 128.53-129.81 194.46-192.97.93 64.3.15 128.67.57 192.97h13.53c.43-68.01-.28-135.94.43-203.96 65.58.15 131.16.22 196.74 0 .57 68.02.28 135.95.14 203.96h19.01c65.51-63.23 128.88-128.67 193.68-192.69.5 64.23.07 128.46.21 192.69h13.04c3.62-67.94-.5-135.94 2.2-203.96 66.01.29 132.09 0 198.09.22.57 67.87.08 135.8.36 203.74h11.11c4.63-138.72 0-277.67 2.35-416.47 137.28-.36 274.64-.07 411.92-.14 1.85 138.87.14 277.74.85 416.61h10.83c3.55-135.38.07-270.9 1.71-406.28 135.64 135.6 270.22 272.33 407.5 406.28h17.73c.71-138.87-.42-277.67.57-416.54 136.36-.29 272.65.07 409-.14 1.14 138.87.15 277.81.57 416.68h18.59c135.14-136.52 271.43-271.97 407.36-407.7.93 135.95-.07 271.83.43 407.7h11.68c3.91-138.8-.15-277.74 2.06-416.61 136.71.07 273.5-.29 410.28.21.79 138.8-.21 277.6.5 416.4h16.95c136.36-134.38 271.36-270.26 406.37-406.06 0 135.38 0 270.68.07 406.06h14.09c.72-138.8-.35-277.53.58-416.33 140.7-2.06 281.54 2.71 422.1-2.42v-11.76c-367.92 2.56-735.91.28-1103.89 1.07H970.164c-30.332-.36-60.949 1.99-91.07-2.14-31.258-4.99-55.043-27.88-76.262-49.55-101.394-102.8-203.93-204.45-306.039-306.47-22.359-22.31-47.848-44.41-57.32-75.71-10.395-34.36-5.91-70.72-6.692-106 0-2483.29.071-4966.64 0-7449.919h-11.89c-3.207 189.985-.43 380.039-1.356 570.098-.07 772.981.074 1545.971-.07 2318.961-139.133 1.14-278.34.29-417.477.43v14.04c135.719-.07 271.364-.71 407.082.36-135.789 135.66-271.718 271.25-407.082 407.27v17.18c139.207-2.57 278.485-1.28 417.762-.5-.57 137.02.07 274.04-.355 411.06-139.137.57-278.27 0-417.407.28v11.69c135.649 3.42 271.364 0 407.082 1.57-134.507 137.3-272.074 271.61-407.082 408.41v18.75c139.137-.57 278.344-.28 417.477-.14.07 136.52.144 273.04 0 409.56-139.133.78-278.34.07-417.477.35v15.33c135.008 136.8 271.934 271.75 407.223 408.34-135.715 1.86-271.504.36-407.223.79v13.76c139.207-.22 278.344-.72 417.547.21.074 136.87-.14 273.82.145 410.77-139.278.92-278.485.14-417.692.42v15.76c68.43 0 136.785-.43 205.215-.5-.07 65.73-.07 131.46 0 197.11-68.43.5-136.785.22-205.215.29v14.97c64.442-2.56 129.024-.85 193.465-.64-63.156 66.3-130.234 128.89-193.465 195.19v17.11c68.29-.72 136.575-.15 204.93-.43.5 66.3.141 132.53.215 198.75-68.36.5-136.785.29-205.145.22v13.26c65.156-.43 130.379-.86 195.532.43-64.372 66.08-130.66 130.24-195.532 195.9v16.47c68.43-.29 136.785-.15 205.215-.08-.07 66.09-.07 132.17 0 198.26-68.43.36-136.785.14-205.215.21v18.4c65.297 64.16 129.879 129.03 194.606 193.83-64.867 1.5-129.735.5-194.606.71v18.47c66.723 63.23 131.09 129.1 195.817 194.4-65.227 1.78-130.52.5-195.817.93v10.48c68.215 3.78 136.575.57 204.789 1.64q.85 99.555 0 199.11c-68.214.14-136.5.14-204.789.07v12.12c65.157 3.35 130.45 0 195.672 1.85-64.226 66.51-131.656 129.96-195.672 196.62v16.32c68.43-.36 136.785-.21 205.215-.07-.07 65.59.07 131.1-.144 196.69-68.356.14-136.711.21-205.07 0v18.96c64.23 65.66 129.878 129.96 194.96 194.76-65.011 1.21-129.949.36-194.96.64v13.9c68.288-2.99 136.644-.71 204.999-1.14.285 66.3.215 132.6 0 198.9-68.285.36-136.64.22-205 .14v16.33c64.301 66.23 130.805 130.39 195.317 196.47-65.082 1.85-130.235.5-195.317.93v11.26c68.215 3.28 136.645.5 204.93 1.5.426 67.94.141 135.8.285 203.74m23.781-204.03c62.735.57 125.536-.14 188.266.29.855 62.8-.355 125.54.57 188.34-63.086-62.73-126.175-125.47-188.836-188.63m425.45.29c62.875-.07 125.75-.29 188.625.07.425 62.8-.145 125.61.14 188.42-64.086-61.6-126.816-124.69-188.765-188.49m415.556 187.99c-.5-62.74-.5-125.47 0-188.13 61.73.35 123.47-.72 185.2.64-59.95 64.16-124.04 124.4-185.2 187.49m434.14-188.42c62.66.57 125.32.14 188.05.36.71 62.66 0 125.39.28 188.06-63.37-62.17-125.82-125.33-188.33-188.42m211.9.07c62.95.72 125.96-.14 188.91.5.57 62.66-.07 125.4.35 188.13-64.01-61.88-125.67-126.25-189.26-188.63m414.56 189.77c.28-63.23-.5-126.39.35-189.55 63.02-.08 126.04.42 189.05-.29-62.94 63.45-126.46 126.39-189.4 189.84m2975.44-.43c-1.14-133.95-.78-267.97-.21-401.92 133.29.57 266.59-.79 399.88.71-131.94 134.95-266.87 267.05-399.67 401.21m-2548.28-1.85c-2-62.52-3.49-125.04-.29-187.56 61.88.86 123.75-.36 185.63.79-60.17 63.8-123.68 124.39-185.34 186.77m859.08-399.65c132.87-.92 265.81 0 398.68-.42 3.78 133.24-.57 266.62 1.49 399.93-134.86-131.67-267.44-265.69-400.17-399.51m839.22 401.01c-.99-133.67-.78-267.48-.14-401.15 133.8-.14 267.52-.78 401.24.29-132.86 134.45-266.52 268.19-401.1 400.86M220.805 8189.58c-.215-63.59-1.356-127.25.925-190.84 65.864.93 131.727-.07 197.665.64.214 66.94.14 133.81.07 200.68-58.461.71-116.988.07-175.449.5-8.332-1.43-26.203 4.07-23.211-10.98m212.117 10.62c.07-63.16-.711-126.39.5-189.56 62.73 63.24 125.461 126.4 188.836 188.92-63.09 1.71-126.246.64-189.336.64m212.121.07c-.355-67.08-.43-134.16.07-201.24 66.649.14 133.297-.08 199.946.14.285 66.94.07 133.95.07 200.96-66.649.5-133.367.22-200.086.14m213.117-.07c.211-67.15-.715-134.31.57-201.46 66.29 3.14 132.653.5 199.02 2 .64 66.15-.22 132.31.57 198.39-66.722 2.57-133.441.86-200.16 1.07m213.61.15c.57-66.87-1.49-133.81 1.07-200.61 65.16 1.49 130.23-.36 195.39 1.07-.43 66.51-.07 132.95-.21 199.46-65.44.22-130.88.15-196.25.08m220.81-.22c30.19-29.94 59.53-60.74 90.43-89.9 29.62 29.38 59.53 58.61 88.01 89.19-59.46 1.92-118.98.78-178.44.71m202.87 0c-.15-63.09-.86-126.11.49-189.2 63.73 61.66 125.82 125.11 187.91 188.42-62.8 2.06-125.6.78-188.4.78m211.9.07c.21-66.65-.64-133.24.57-199.89 66.22 0 132.44-.22 198.66.21 1.35 66.44.22 132.96.64 199.47-66.65.71-133.22.43-199.87.21m212.69.07c.07-66.65-.86-133.38.5-200.03 66.36.14 132.65-.15 199.01.21.86 66.59.29 133.17.36 199.75-66.64.36-133.29.22-199.87.07m212.62 0c.21-66.65-1.07-133.38.78-200.1 66.15.57 132.3-.58 198.45.64-.21 66.58 1.07 133.17-.93 199.75-66.15-.43-132.23 0-198.3-.29m223.94-.42c60.38-64.38 124.32-125.4 186.2-188.35.57 62.95.35 125.9.21 188.85-62.16-.22-124.32.64-186.41-.5m202.08.64c-.57-66.73-2.14-133.45.92-200.18 65.37.07 130.74-.36 196.1.35.21 66.52.14 133.1.07 199.69-65.72.07-131.37-.08-197.09.14m220.52-.29c63.94-62.87 126.89-126.75 190.33-190.06-.14 63.38.07 126.76-.14 190.13-63.37.15-126.82.29-190.19-.07M16.941 7998.81c63.375.57 126.747.14 190.047.22.215 63.37.285 126.75-.07 190.12-63.16-63.59-126.746-126.75-189.977-190.34m425.309.43c63.375-.36 126.746-.21 190.117 0 .145 63.45.356 126.89-.07 190.34-63.942-62.88-127.598-126.11-190.047-190.34m842.5 189.63c-.71-59.32-1.07-118.55.14-177.87 26.7 29.45 57.68 54.96 83.1 85.41l.56 5.7c-25.56 31.01-56.82 56.89-83.8 86.76m107.88-88.97c29.12-30.37 59.59-59.38 89-89.47.28 59.6-.07 119.2.28 178.72-29.76-29.72-59.66-59.31-89.28-89.25m114.07-99.66c62.44.28 124.89-.15 187.34.21 1.06 62.88-.15 125.75.71 188.7-63.3-62.37-126.11-125.32-188.05-188.91m839.14 189.06c.15-63.17-1.13-126.33.93-189.42 62.23 1 124.47-.14 186.7.64-61.95 63.52-125.18 125.76-187.63 188.78m424.81-.15c-.78-62.66-.42-125.32-.35-188.06 62.59-1.42 125.25-1 187.84-.28-61.45 63.8-124.75 125.82-187.49 188.34m-1474.94-188.49c58.18-.49 116.35-.57 174.6 0-27.99 30.73-57.96 59.46-87.44 88.62-29.55-29.02-59.74-57.53-87.16-88.62m-1074.265-13.68c-1.711-62.17-1.211-124.4-.215-186.57 63.586 60.6 124.895 123.69 186.84 186-62.16.78-124.394 0-186.625.57m211.407-.5c.214-66.37-.786-132.74.64-199.04 66.078-.07 132.086.14 198.164 0 1.782 66.3.426 132.6.782 198.9-66.504.71-133.083.64-199.586.14m212.191.14c-.355-63.3-.215-126.54-.07-189.77 39.945 40.06 79.75 80.27 119.765 120.26 24.778 24.17 47.422 51.19 77.188 69.58-65.653-.07-131.305.29-196.883-.07m-414.699-198.75c61.879 0 123.828-1.71 185.633.42l2.707 2.71c2.347 61.74-.075 123.76.711 185.57-63.731-62.16-126.391-125.4-189.051-188.7m-9.754-13.19c.07-66.23-.145-132.46 0-198.68 66.363-.43 132.797-2.71 199.09.71-.356 65.94-.145 131.81-.071 197.68-66.363.93-132.726.36-199.019.29m212.121 0c.426-66.02-.5-132.03.566-198.04 9.758 14.4 19.653 28.73 31.973 41.06 52.691 52.18 104.672 105.08 157.719 156.91-63.446.43-126.887.35-190.258.07M20.359 7575.71c62.235-1.71 124.469.86 186.7-.42 0 63.01.644 126.03-.426 188.98-61.875-63.09-127.102-122.9-186.274-188.56m200.301-15.11c0-65.66-.57-131.24.285-196.9 66.223.07 132.371-.07 198.52.21.07 65.38.144 130.82-.141 196.26-66.222 1-132.441.29-198.664.43M17.512 7349.3c62.52-63.31 125.89-125.83 189.336-188.21.57 62.88.355 125.76.211 188.56-63.157.15-126.387.79-189.547-.35m203.433.5c-1.066-66.09.141-132.25-.64-198.33 66.363-2.14 132.797-.57 199.16-.78.144 66.08-.07 132.24.215 198.32-66.223 1.86-132.512.43-198.735.79m13.957-213.16c24.778-33.29 55.68-61.73 86.586-89.32 28.696 30.01 59.313 58.17 87.227 88.97-57.961 1.35-115.852.85-173.813.35m-13.816-9.34c-.781-59.59-1.066-119.19.215-178.79 29.906 28.52 58.176 58.6 88.297 86.83-26.278 33.58-58.606 61.74-88.512 91.96m109.016-90.53c29.125-30.23 60.097-58.68 89.363-88.76.144 59.53-.5 119.06.426 178.58-29.621-30.3-60.094-59.67-89.789-89.82m-98.832-99.17c59.312.65 118.558-.35 177.871.65-27.559 31.43-58.672 59.38-87.727 89.32-31.113-28.87-60.309-59.74-90.144-89.97m-10.465-12.05c-.145-62.66-1.141-125.39.64-188.05a6737 6737 0 0 1 187.696 187.2c-62.731 1.93-125.536.64-188.336.85m-200.16-199.53c62.093-.72 124.113-.57 186.132-.07.711 62.59.356 125.18.356 187.77-61.879-62.8-125.82-123.61-186.489-187.7m212.192.07c62.234-.43 124.539-1.5 186.699.71 0 62.31-.07 124.61 0 186.92-62.305-62.45-126.031-123.54-186.699-187.63m-12.106-14.26c-.14-66.51-.496-133.1.145-199.68 66.148.07 132.441-1.35 198.59.86-.07 66.22.144 132.38 0 198.61-66.219.71-132.512.43-198.735.21M18.297 6512.22c62.8-.5 125.676-.43 188.551-.14.496 63.09.57 126.11 0 189.13-63.16-62.73-126.602-125.18-188.551-188.99m202.293-13.33c-.07-66.16-.215-132.31.07-198.47 66.293.07 132.656-.28 198.949.29-.214 65.94-.144 131.88.071 197.9-66.364.71-132.727.28-199.09.28M19.078 6286.31c62.805-62.24 125.039-124.97 187.91-187.06.356 62.45.071 124.96.145 187.48-62.66.22-125.395.57-188.055-.42m201.582.21c-.07-66.3-.355-132.67.215-199.04 66.219.07 132.441-.21 198.66.15 0 66.08-.211 132.16.145 198.25-66.293 2-132.657.92-199.02.64m10.539-211.87c62.09-63.52 126.176-125.11 188.41-188.56-.285 62.73.141 125.47-.285 188.2-62.734.5-125.394.29-188.125.36m-10.183-10.55c-.996-62.59-.286-125.18-.426-187.78 62.73-1.28 125.461-.71 188.125-.28-60.953 64.23-124.684 125.82-187.699 188.06m-203.93-201.75c63.23-63.23 126.672-126.18 189.762-189.48.57 63.09.285 126.18.285 189.27-63.375.35-126.676-.14-190.047.21m204.359.07c-1.566-66.37-1.355-132.81 0-199.18 65.578-.35 131.16.29 196.739-.35 2.707 66.29.855 132.66 1.14 198.96-65.937.86-131.875.07-197.879.57m8.614-213.37c63.375-62.87 126.39-126.1 189.621-189.12-.43 63.02 0 126.03-.285 189.05-63.09.65-126.176.43-189.336.07m-8.973-11.4c-1.066-61.74-.426-123.47-.356-185.21 62.305-.28 124.61.07 186.985-.14-62.375 61.66-123.539 124.54-186.629 185.35m198.879-636.19c-133.082-133.66-267.09-266.33-399.676-400.5 132.871-.71 265.668.29 398.465-.5 2.062 133.67-.285 267.34 1.211 401M19.008 4161.75c25.492-28.16 53.191-54.25 79.68-81.48 107.66-105.72 212.832-213.87 320.636-319.45.426 133.67.071 267.27.211 400.93a18698 18698 0 0 1-400.527 0M16.16 3312.2c135.074-133.02 267.16-269.11 403.09-401.36.715 133.74-.07 267.48.359 401.22-134.507.78-268.941.42-403.449.14" clip-path="url(#c)" style="fill:#ff3c28;fill-opacity:1;fill-rule:nonzero;stroke:none" transform="matrix(.13333 0 0 -.13333 0 1122.52)"/></g></g><g clip-path="url(#d)"><g clip-path="url(#e)"><path d="M2585.81 7293.25h-512.22v133.04l53.22 53.21h412.42v93.15h-353.22c-6.16 0-12.21-1.22-17.82-3.54a46.5 46.5 0 0 1-15.11-10.1l-158.99-158.99a46.5 46.5 0 0 1-10.09-15.11 46.3 46.3 0 0 1-3.55-17.82v-120.42c0-12.85 5.23-24.49 13.64-32.93 8.42-8.42 20.08-13.64 32.93-13.64h512.21v-133.04l-53.21-53.22h-505.57v-93.12h446.37c6.16 0 12.22 1.22 17.82 3.55a46.5 46.5 0 0 1 15.11 10.09l158.99 158.99c4.37 4.36 7.77 9.52 10.1 15.11a46.4 46.4 0 0 1 3.54 17.82v120.39c0 12.86-5.22 24.5-13.64 32.94a46.38 46.38 0 0 1-32.93 13.64" clip-path="url(#f)" style="fill:#ff3c28;fill-opacity:1;fill-rule:nonzero;stroke:none" transform="matrix(.13333 0 0 -.13333 0 1122.52)"/><path d="M1701.07 7013.86v353.23c0 6.16-1.21 12.21-3.54 17.82a46.4 46.4 0 0 1-10.09 15.11l-158.99 158.99a46.8 46.8 0 0 1-15.11 10.1 46.5 46.5 0 0 1-17.82 3.54h-260.11v-93.15h319.3l53.22-53.21v-412.43h-372.52v-93.11h651.9v93.11" clip-path="url(#f)" style="fill:#ff3c28;fill-opacity:1;fill-rule:nonzero;stroke:none" transform="matrix(.13333 0 0 -.13333 0 1122.52)"/><path d="m3616.88 7013.86-53.22 53.22v505.57h-93.12v-446.37c0-6.16 1.22-12.21 3.54-17.82 2.33-5.59 5.73-10.75 10.1-15.11l158.98-158.99c4.37-4.37 9.52-7.77 15.11-10.09a46.3 46.3 0 0 1 17.83-3.55h446.36v93.12h-505.58" clip-path="url(#f)" style="fill:#ff3c28;fill-opacity:1;fill-rule:nonzero;stroke:none" transform="matrix(.13333 0 0 -.13333 0 1122.52)"/><path d="m3224 7353.52-65.84 65.85-339.52-339.52v492.8h-93.12v-446.37c0-6.16 1.22-12.21 3.54-17.82a46.2 46.2 0 0 1 10.1-15.11l158.98-158.99c4.37-4.37 9.52-7.77 15.11-10.09a46.3 46.3 0 0 1 17.82-3.55h446.38v93.12h-493.08" clip-path="url(#f)" style="fill:#ff3c28;fill-opacity:1;fill-rule:nonzero;stroke:none" transform="matrix(.13333 0 0 -.13333 0 1122.52)"/><path d="M4308.7 7572.65h13.27v-13.27h-13.27Zm.87-22.13h11.5v-73.73h-11.5z" clip-path="url(#f)" style="fill:#ff3c28;fill-opacity:1;fill-rule:nonzero;stroke:none" transform="matrix(.13333 0 0 -.13333 0 1122.52)"/><path d="M4343.48 7550.52h9.17v-6.64h2.51l7.66 6.64h33.92l15.18-15.18v-58.52h-11.37l.15 53.95-9 9.15h-25.66l-11.2-9.43.13-53.67h-11.49" clip-path="url(#f)" style="fill:#ff3c28;fill-opacity:1;fill-rule:nonzero;stroke:none" transform="matrix(.13333 0 0 -.13333 0 1122.52)"/><path d="M4432.27 7487.25h47.77l6.18 6.35v9.13l-6.18 6.35h-35.97l-12.53 12.1v16.95l12.39 12.39h49.7l.3-10.62h-44.69l-6.35-6.05v-8.12l6.19-6.18h36.13l12.24-12.4.14-17.99-12.24-12.39h-52.78" clip-path="url(#f)" style="fill:#ff3c28;fill-opacity:1;fill-rule:nonzero;stroke:none" transform="matrix(.13333 0 0 -.13333 0 1122.52)"/><path d="M4522.36 7485.64v54.42h-14.75l-.14 10.46h14.74v19.16h11.5v-19.16h27.28l-.14-10.46h-27.27v-49.84l2.8-2.8h25.21v-10.63h-30.38" clip-path="url(#f)" style="fill:#ff3c28;fill-opacity:1;fill-rule:nonzero;stroke:none" transform="matrix(.13333 0 0 -.13333 0 1122.52)"/><path d="M4575.87 7572.65h13.27v-13.27h-13.27Zm.87-22.13h11.5v-73.73h-11.5z" clip-path="url(#f)" style="fill:#ff3c28;fill-opacity:1;fill-rule:nonzero;stroke:none" transform="matrix(.13333 0 0 -.13333 0 1122.52)"/><path d="M4616.71 7485.64v54.42h-14.74l-.13 10.46h14.74v19.16h11.49v-19.16h27.28l-.14-10.46h-27.27v-49.84l2.8-2.8h25.21v-10.63h-30.38" clip-path="url(#f)" style="fill:#ff3c28;fill-opacity:1;fill-rule:nonzero;stroke:none" transform="matrix(.13333 0 0 -.13333 0 1122.52)"/><path d="M4670.53 7492.13v58.39h11.2v-54.11l9.15-8.99h23.16l10.9 9.43v53.67h11.5v-73.73h-9.15l-.14 6.65h-2.21l-7.81-6.65h-31.42" clip-path="url(#f)" style="fill:#ff3c28;fill-opacity:1;fill-rule:nonzero;stroke:none" transform="matrix(.13333 0 0 -.13333 0 1122.52)"/><path d="M4764.89 7485.64v54.42h-14.74l-.14 10.46h14.74v19.16h11.5v-19.16h27.28l-.14-10.46h-27.28v-49.84l2.81-2.8h25.21v-10.63h-30.38" clip-path="url(#f)" style="fill:#ff3c28;fill-opacity:1;fill-rule:nonzero;stroke:none" transform="matrix(.13333 0 0 -.13333 0 1122.52)"/><path d="M4817.97 7493.3v40.55l16.37 16.65h39.95l16.65-16.51v-40.69l-16.65-16.51h-39.95zm51.31-5.88 10.33 10.32v31.85l-10.33 10.33h-29.78l-10.33-10.16v-31.99l10.46-10.33h29.65" clip-path="url(#f)" style="fill:#ff3c28;fill-opacity:1;fill-rule:nonzero;stroke:none" transform="matrix(.13333 0 0 -.13333 0 1122.52)"/><path d="M4308.11 7301.91h47.76l6.19 6.35v9.13l-6.19 6.35h-35.97l-12.53 12.1v16.95l12.4 12.39h49.69l.3-10.62h-44.68l-6.35-6.05v-8.12l6.18-6.19h36.14l12.23-12.39.14-17.99-12.24-12.39h-52.78" clip-path="url(#f)" style="fill:#ff3c28;fill-opacity:1;fill-rule:nonzero;stroke:none" transform="matrix(.13333 0 0 -.13333 0 1122.52)"/><path d="M4391.56 7306.77v58.39h11.21v-54.11l9.15-9h23.16l10.9 9.43v53.68h11.5v-73.73h-9.16l-.14 6.64h-2.2l-7.82-6.64h-31.42" clip-path="url(#f)" style="fill:#ff3c28;fill-opacity:1;fill-rule:nonzero;stroke:none" transform="matrix(.13333 0 0 -.13333 0 1122.52)"/><path d="M4479.88 7365.16h9.15l.14-7.82h2.51l9.28 7.82h32.43l16.38-16.51v-40.69l-16.38-16.51h-42.01v-29.48h-11.5zm48.22-63.11 10.33 10.33v31.85l-10.33 10.33h-24.03l-12.83-10.77v-41.72h36.86" clip-path="url(#f)" style="fill:#ff3c28;fill-opacity:1;fill-rule:nonzero;stroke:none" transform="matrix(.13333 0 0 -.13333 0 1122.52)"/><path d="M4569.38 7307.96v40.55l16.38 16.65h38.34l16.51-16.51v-26.54h-60v-9.73l10.32-10.33h44.23v-10.62h-49.4zm60.01 24.77-.14 11.5-10.33 10.33h-28.01l-10.32-10.33.13-11.5" clip-path="url(#f)" style="fill:#ff3c28;fill-opacity:1;fill-rule:nonzero;stroke:none" transform="matrix(.13333 0 0 -.13333 0 1122.52)"/><path d="M4659.91 7365.16h9.15l.14-6.48h2.37l7.38 6.48h30.08v-10.62h-26.68l-11.06-9.16.14-53.95h-11.5v73.73" clip-path="url(#f)" style="fill:#ff3c28;fill-opacity:1;fill-rule:nonzero;stroke:none" transform="matrix(.13333 0 0 -.13333 0 1122.52)"/><path d="M4718.46 7387.29h13.27v-13.273h-13.27Zm.87-22.13h11.5v-73.73h-11.5z" clip-path="url(#f)" style="fill:#ff3c28;fill-opacity:1;fill-rule:nonzero;stroke:none" transform="matrix(.13333 0 0 -.13333 0 1122.52)"/><path d="M4751.92 7307.96v40.55l16.37 16.65h39.95l16.65-16.51v-40.69l-16.65-16.51h-39.95zm51.31-5.91 10.32 10.33v31.85l-10.32 10.33h-29.78l-10.33-10.17v-31.99l10.46-10.33h29.65" clip-path="url(#f)" style="fill:#ff3c28;fill-opacity:1;fill-rule:nonzero;stroke:none" transform="matrix(.13333 0 0 -.13333 0 1122.52)"/><path d="M4845.98 7365.16h9.16l.13-6.48h2.37l7.38 6.48h30.09v-10.62h-26.68l-11.06-9.16.13-53.95H4846v73.73" clip-path="url(#f)" style="fill:#ff3c28;fill-opacity:1;fill-rule:nonzero;stroke:none" transform="matrix(.13333 0 0 -.13333 0 1122.52)"/><path d="M4951.27 7307.96v40.55l16.37 16.65h42.02v29.48h11.36v-103.21h-9.13v7.96h-2.51l-9.29-7.96h-32.43zm45.69-5.91 12.68 10.77v41.72h-36.87l-10.33-10.17v-31.99l10.47-10.33" clip-path="url(#f)" style="fill:#ff3c28;fill-opacity:1;fill-rule:nonzero;stroke:none" transform="matrix(.13333 0 0 -.13333 0 1122.52)"/><path d="M5042.98 7307.96v40.55l16.38 16.65h38.34l16.51-16.51v-26.54h-60v-9.73l10.32-10.33h44.23v-10.62h-49.4zm60 24.77-.13 11.5-10.33 10.33h-28.01l-10.33-10.33.14-11.5" clip-path="url(#f)" style="fill:#ff3c28;fill-opacity:1;fill-rule:nonzero;stroke:none" transform="matrix(.13333 0 0 -.13333 0 1122.52)"/><path d="M4308.27 7122.6v40.54l16.37 16.66h38.34l16.51-16.52v-26.54h-60v-9.72l10.32-10.33h44.23v-10.63h-49.4zm60 24.77-.14 11.5-10.33 10.33h-28.01l-10.33-10.33.14-11.5" clip-path="url(#f)" style="fill:#ff3c28;fill-opacity:1;fill-rule:nonzero;stroke:none" transform="matrix(.13333 0 0 -.13333 0 1122.52)"/><path d="M4398.76 7179.8h9.18v-6.65h2.51l7.66 6.65h33.92l15.17-15.18v-58.53h-11.36l.14 53.95-8.99 9.16h-25.67l-11.19-9.43.13-53.68h-11.5" clip-path="url(#f)" style="fill:#ff3c28;fill-opacity:1;fill-rule:nonzero;stroke:none" transform="matrix(.13333 0 0 -.13333 0 1122.52)"/><path d="M4493.14 7087.07h47.34l5.61 5.75v19.32h-2.21l-7.22-6.05h-32.59l-16.37 16.51v40.54l16.37 16.66h53.38v-91.28l-11.94-11.94h-52.48zm40.27 29.62 12.84 10.76-.14 41.72h-36.86l-10.33-10.17v-31.98l10.46-10.33" clip-path="url(#f)" style="fill:#ff3c28;fill-opacity:1;fill-rule:nonzero;stroke:none" transform="matrix(.13333 0 0 -.13333 0 1122.52)"/><path d="M4578.68 7122.6v40.54l16.37 16.66h38.34l16.51-16.52v-26.54h-60v-9.72l10.33-10.33h44.22v-10.63h-49.4zm60 24.77-.14 11.5-10.33 10.33h-28.01l-10.32-10.33.14-11.5" clip-path="url(#f)" style="fill:#ff3c28;fill-opacity:1;fill-rule:nonzero;stroke:none" transform="matrix(.13333 0 0 -.13333 0 1122.52)"/><path d="M4669.17 7179.8h9.18v-6.65h2.51l7.66 6.65h33.92l15.17-15.18v-58.53h-11.36l.14 53.95-8.99 9.16h-25.67l-11.19-9.43.13-53.68h-11.5" clip-path="url(#f)" style="fill:#ff3c28;fill-opacity:1;fill-rule:nonzero;stroke:none" transform="matrix(.13333 0 0 -.13333 0 1122.52)"/><path d="M4760.29 7209.3h11.23v-35.09h2.5l6.49 5.61h32.88l15.18-15.18v-58.53h-11.36l.14 53.95-9.29 9.15h-24.47l-12.1-10.16v-52.94h-11.2" clip-path="url(#f)" style="fill:#ff3c28;fill-opacity:1;fill-rule:nonzero;stroke:none" transform="matrix(.13333 0 0 -.13333 0 1122.52)"/><path d="m4846.88 7118.46-.14 19.75 13.71 13.58h43.05l.14 9.28-7.96 8.26h-39.51v10.47h44.38l14.31-14.31v-59.43h-8.99v7.69h-2.37l-9.29-7.66h-35.1zm43.92-1.91 12.68 10.76v13.87h-38.04l-7.39-7.22.15-11.06 6.04-6.35" clip-path="url(#f)" style="fill:#ff3c28;fill-opacity:1;fill-rule:nonzero;stroke:none" transform="matrix(.13333 0 0 -.13333 0 1122.52)"/><path d="M4936.66 7179.8h9.16l.13-6.49h2.37l7.39 6.49h30.08v-10.63h-26.68l-11.06-9.15.13-53.96h-11.49v73.74" clip-path="url(#f)" style="fill:#ff3c28;fill-opacity:1;fill-rule:nonzero;stroke:none" transform="matrix(.13333 0 0 -.13333 0 1122.52)"/><path d="M4995.19 7201.92h13.27v-13.27h-13.27Zm.9-22.12h11.5v-73.734h-11.5z" clip-path="url(#f)" style="fill:#ff3c28;fill-opacity:1;fill-rule:nonzero;stroke:none" transform="matrix(.13333 0 0 -.13333 0 1122.52)"/><path d="m5026.47 7118.46-.14 19.75 13.71 13.58h43.05l.14 9.28-7.96 8.26h-39.51v10.47h44.39l14.3-14.31v-59.43h-8.99v7.69h-2.37l-9.29-7.66h-35.1zm43.92-1.91 12.68 10.76v13.87h-38.04l-7.38-7.22.14-11.06 6.04-6.35" clip-path="url(#f)" style="fill:#ff3c28;fill-opacity:1;fill-rule:nonzero;stroke:none" transform="matrix(.13333 0 0 -.13333 0 1122.52)"/><path d="M4308.27 6937.23v40.55l16.37 16.65h42.02v29.48h11.36V6920.7h-9.13v7.96h-2.51l-9.29-7.96h-32.43zm45.69-5.88 12.67 10.76v41.72h-36.86l-10.33-10.17v-31.98l10.47-10.33" clip-path="url(#f)" style="fill:#ff3c28;fill-opacity:1;fill-rule:nonzero;stroke:none" transform="matrix(.13333 0 0 -.13333 0 1122.52)"/><path d="M4399.98 6937.23v40.55l16.38 16.65h38.34l16.51-16.51v-26.54h-60.01v-9.73l10.33-10.33h44.22v-10.62h-49.39zm60 24.77-.14 11.5-10.32 10.33h-28.01l-10.33-10.33.14-11.5" clip-path="url(#f)" style="fill:#ff3c28;fill-opacity:1;fill-rule:nonzero;stroke:none" transform="matrix(.13333 0 0 -.13333 0 1122.52)"/><path d="M4542.98 7013.31h-14.14l-.3 10.63h25.67v-103.22h-11.37" clip-path="url(#f)" style="fill:#ff3c28;fill-opacity:1;fill-rule:nonzero;stroke:none" transform="matrix(.13333 0 0 -.13333 0 1122.52)"/><path d="M4576.61 7016.55h13.27v-13.27h-13.27Zm.89-22.1h11.496v-73.73H4577.5Z" clip-path="url(#f)" style="fill:#ff3c28;fill-opacity:1;fill-rule:nonzero;stroke:none" transform="matrix(.13333 0 0 -.13333 0 1122.52)"/><path d="M4609.93 6931.19h47.77l6.18 6.35v9.12l-6.18 6.35h-35.97l-12.53 12.1v16.95l12.39 12.39h49.7l.3-10.62h-44.69l-6.35-6.05v-8.12l6.19-6.18h36.13l12.24-12.4.14-17.98-12.24-12.4h-52.78" clip-path="url(#f)" style="fill:#ff3c28;fill-opacity:1;fill-rule:nonzero;stroke:none" transform="matrix(.13333 0 0 -.13333 0 1122.52)"/><path d="M4694.86 7023.94h11.2v-35.69h2.51l7.08 6.18h32.45l16.51-16.51-.13-40.69-16.38-16.51h-53.22v103.22zm48.07-92.59 10.46 10.33-.14 31.85-10.32 10.32h-24.04l-12.83-10.76.14-41.72h36.73" clip-path="url(#f)" style="fill:#ff3c28;fill-opacity:1;fill-rule:nonzero;stroke:none" transform="matrix(.13333 0 0 -.13333 0 1122.52)"/><path d="M4784.35 6937.23v40.55l16.37 16.65h39.95l16.65-16.51v-40.69l-16.65-16.51h-39.95zm51.33-5.88 10.32 10.33v31.85l-10.32 10.32h-29.79l-10.32-10.16v-31.99l10.47-10.33h29.64" clip-path="url(#f)" style="fill:#ff3c28;fill-opacity:1;fill-rule:nonzero;stroke:none" transform="matrix(.13333 0 0 -.13333 0 1122.52)"/><path d="m4874.89 6933.12-.14 19.76 13.71 13.56h43.05l.14 9.29-7.96 8.26h-39.51v10.46h44.39l14.3-14.3v-59.43h-8.99v7.66h-2.37l-9.29-7.66h-35.09zm43.93-1.93 12.67 10.76v13.87h-38.04l-7.38-7.22.13-11.06 6.05-6.35" clip-path="url(#f)" style="fill:#ff3c28;fill-opacity:1;fill-rule:nonzero;stroke:none" transform="matrix(.13333 0 0 -.13333 0 1122.52)"/></g></g></svg>