<svg xmlns="http://www.w3.org/2000/svg" xmlns:xlink="http://www.w3.org/1999/xlink" width="793.701" height="1122.52" viewBox="0 0 595.276 841.89"><defs><symbol overflow="visible" id="i"><path style="stroke:none" d="m3.39 0 .97-2.984h4.702L10.033 0H13L8.484-13.063H4.938L.421 0Zm1.672-5.125 1.594-4.953h.11l1.609 4.953Zm0 0"/></symbol><symbol overflow="visible" id="j"><path style="stroke:none" d="M3.5-13.063H.422L4.938 0h3.546L13-13.063H9.937L6.767-3.14h-.11Zm0 0"/></symbol><symbol overflow="visible" id="k"><path style="stroke:none" d="M5.547.188c2.422 0 4.047-1.172 4.437-3L7.47-2.97c-.266.75-.969 1.125-1.875 1.125-1.36 0-2.219-.89-2.219-2.343v-.016h6.672v-.75c0-3.328-2.016-4.969-4.61-4.969-2.875 0-4.75 2.047-4.75 5.078C.688-1.75 2.532.188 5.548.188ZM3.375-5.891c.063-1.109.906-2 2.11-2 1.171 0 2 .844 2 2Zm0 0"/></symbol><symbol overflow="visible" id="l"><path style="stroke:none" d="M1.078 0h2.719v-5.547c0-1.203.875-2.031 2.078-2.031.375 0 .89.062 1.156.156v-2.422a5.167 5.167 0 0 0-.86-.094c-1.093 0-2 .641-2.359 1.86H3.72v-1.719H1.08Zm0 0"/></symbol><symbol overflow="visible" id="m"><path style="stroke:none" d="M2.766 3.672c2.015 0 3.093-1.031 3.64-2.61L10.22-9.796H7.344L5.297-2.594h-.11l-2.03-7.203H.311L3.813.281l-.156.406c-.36.922-1.031.97-2 .672l-.61 2.032c.391.171 1.032.28 1.72.28Zm0 0"/></symbol><symbol overflow="visible" id="n"><path style="stroke:none" d="M1.14 0H9.5v-2.281H3.89v-10.781H1.14Zm0 0"/></symbol><symbol overflow="visible" id="o"><path style="stroke:none" d="M5.516.188c2.968 0 4.812-2.032 4.812-5.047 0-3.032-1.844-5.063-4.812-5.063C2.53-9.922.687-7.89.687-4.859.688-1.844 2.532.187 5.516.187Zm0-2.094c-1.36 0-2.063-1.266-2.063-2.969 0-1.703.703-2.969 2.063-2.969 1.343 0 2.046 1.266 2.046 2.969 0 1.703-.703 2.969-2.046 2.969Zm0 0"/></symbol><symbol overflow="visible" id="p"><path style="stroke:none" d="M3.797-5.656c.015-1.266.765-2 1.86-2 1.093 0 1.75.703 1.734 1.906V0h2.718v-6.234c0-2.282-1.343-3.688-3.375-3.688-1.453 0-2.5.719-2.953 1.86h-.11v-1.735H1.079V0h2.719Zm0 0"/></symbol><symbol overflow="visible" id="q"><path style="stroke:none" d="M5.5 3.875c2.797 0 4.781-1.281 4.781-3.781v-9.89H7.594v1.655h-.11c-.359-.796-1.156-1.78-2.796-1.78-2.157 0-3.97 1.671-3.97 5 0 3.265 1.766 4.78 3.97 4.78 1.562 0 2.437-.78 2.796-1.593h.11V.062c0 1.344-.86 1.86-2.032 1.86-1.203 0-1.812-.516-2.03-1.11l-2.516.329C1.344 2.687 2.859 3.875 5.5 3.875Zm.047-6.063C4.219-2.188 3.5-3.234 3.5-4.921c0-1.672.703-2.844 2.047-2.844 1.328 0 2.062 1.125 2.062 2.844 0 1.719-.75 2.734-2.062 2.734Zm0 0"/></symbol><symbol overflow="visible" id="r"><path style="stroke:none" d="M3.875.188c1.453 0 2.39-.641 2.86-1.547h.077V0h2.579v-6.61c0-2.327-1.97-3.312-4.157-3.312-2.343 0-3.89 1.125-4.265 2.906l2.515.204c.188-.641.766-1.125 1.735-1.125.922 0 1.453.468 1.453 1.265v.047c0 .625-.672.703-2.375.875-1.938.172-3.672.828-3.672 3.016 0 1.937 1.39 2.921 3.25 2.921Zm.781-1.875c-.843 0-1.437-.391-1.437-1.141 0-.766.625-1.14 1.594-1.266.593-.093 1.562-.234 1.875-.437V-3.5c0 1.031-.844 1.813-2.032 1.813Zm0 0"/></symbol><symbol overflow="visible" id="s"><path style="stroke:none" d="M4.688.156c1.578 0 2.406-.906 2.78-1.718h.126V0h2.672v-13.063h-2.72v4.922H7.47c-.36-.796-1.14-1.78-2.782-1.78C2.531-9.922.72-8.25.72-4.892.719-1.609 2.453.156 4.688.156ZM5.546-2C4.219-2 3.5-3.188 3.5-4.89c0-1.704.703-2.876 2.047-2.876 1.328 0 2.062 1.125 2.062 2.875C7.61-3.156 6.86-2 5.547-2Zm0 0"/></symbol><symbol overflow="visible" id="t"><path style="stroke:none" d="M3.89-13.063H1.14V0h2.75Zm0 0"/></symbol><symbol overflow="visible" id="u"><path style="stroke:none" d="M1.078 0h2.719v-5.875c0-1.094.687-1.813 1.594-1.813.89 0 1.5.625 1.5 1.579V0h2.625v-5.984c0-1.016.578-1.704 1.578-1.704.86 0 1.515.547 1.515 1.641V0h2.704v-6.578c0-2.125-1.266-3.344-3.079-3.344-1.437 0-2.562.735-2.953 1.86h-.11c-.312-1.141-1.312-1.86-2.655-1.86-1.313 0-2.329.703-2.735 1.86h-.11v-1.735H1.079Zm0 0"/></symbol><symbol overflow="visible" id="v"><path style="stroke:none" d="M1.078 3.672h2.719v-5.235h.078c.39.813 1.203 1.72 2.781 1.72 2.235 0 3.985-1.766 3.985-5.048 0-3.359-1.829-5.03-3.97-5.03-1.64 0-2.421.983-2.796 1.78h-.11v-1.656H1.079Zm2.656-8.563c0-1.75.75-2.875 2.063-2.875 1.344 0 2.062 1.172 2.062 2.875C7.86-3.187 7.141-2 5.797-2 4.5-2 3.734-3.156 3.734-4.89Zm0 0"/></symbol><symbol overflow="visible" id="w"><path style="stroke:none" d="M9.234-7c-.25-1.797-1.703-2.922-4.171-2.922-2.5 0-4.157 1.156-4.157 3.047 0 1.469.922 2.422 2.828 2.797l1.704.344c.859.171 1.25.484 1.25.968 0 .579-.641 1-1.594 1-.969 0-1.61-.421-1.766-1.218l-2.672.14C.906-.969 2.5.187 5.094.187c2.531 0 4.36-1.296 4.36-3.218 0-1.422-.923-2.266-2.829-2.656l-1.781-.36c-.907-.187-1.235-.5-1.235-.984 0-.578.657-.969 1.5-.969.938 0 1.5.516 1.641 1.156Zm0 0"/></symbol><symbol overflow="visible" id="x"><path style="stroke:none" d="M1.078 0h2.719v-9.797H1.078Zm1.375-11.047c.797 0 1.469-.625 1.469-1.39 0-.75-.672-1.36-1.469-1.36-.812 0-1.469.61-1.469 1.36 0 .765.657 1.39 1.47 1.39Zm0 0"/></symbol><symbol overflow="visible" id="y"><path style="stroke:none" d="M10.219-9.797H7.344L5.312-2.78h-.109L3.172-9.797H.312L3.735 0h3.063Zm0 0"/></symbol><symbol overflow="visible" id="z"><path style="stroke:none" d="M.64-10.781h4V0h2.72v-10.781h4v-2.281H.64Zm0 0"/></symbol><symbol overflow="visible" id="A"><path style="stroke:none" d="M3.797-5.656c.015-1.266.781-2 1.89-2 1.11 0 1.75.703 1.75 1.906V0h2.72v-6.234c0-2.297-1.36-3.688-3.391-3.688-1.485 0-2.485.703-2.922 1.86h-.125v-5h-2.64V0h2.718Zm0 0"/></symbol><symbol overflow="visible" id="B"><path style="stroke:none" d="M6.297-9.797H4.453v-2.344H1.734v2.344H.391v2.047h1.343v5.094C1.72-.734 3.031.219 5 .14a5.12 5.12 0 0 0 1.469-.266l-.422-2.016c-.14.032-.422.094-.672.094-.547 0-.922-.203-.922-.969V-7.75h1.844Zm0 0"/></symbol><symbol overflow="visible" id="C"><path style="stroke:none" d="M3.797-13.063H1.078V0h2.719Zm0 0"/></symbol><symbol overflow="visible" id="D"><path style="stroke:none" d="M3.016 0H5.89l1.671-6.156h.125L9.376 0h2.875l2.656-9.797h-2.75L10.672-3.25h-.078l-1.61-6.547H6.281L4.703-3.219H4.61L3.094-9.797H.344Zm0 0"/></symbol><symbol overflow="visible" id="E"><path style="stroke:none" d="M1.14 0h2.75v-5.39h5.313v-2.282H3.891v-3.11h5.89v-2.28h-8.64Zm0 0"/></symbol><symbol overflow="visible" id="F"><path style="stroke:none" d="M5.516.188c2.593 0 4.234-1.532 4.359-3.782H7.312c-.156 1.047-.843 1.64-1.765 1.64-1.281 0-2.094-1.062-2.094-2.937 0-1.859.828-2.906 2.094-2.906.984 0 1.625.656 1.766 1.625h2.562c-.11-2.266-1.828-3.75-4.375-3.75-2.969 0-4.813 2.063-4.813 5.063C.688-1.875 2.5.187 5.516.187Zm0 0"/></symbol><symbol overflow="visible" id="G"><path style="stroke:none" d="M1.14 0h5.58c2.922 0 4.484-1.531 4.484-3.61 0-1.937-1.375-3.093-2.86-3.171v-.125c1.36-.297 2.36-1.266 2.36-2.797 0-1.969-1.453-3.36-4.344-3.36H1.141Zm2.75-2.25v-3.469h2.313c1.328 0 2.156.766 2.156 1.844 0 .969-.671 1.625-2.218 1.625Zm0-5.344v-3.234H6c1.219 0 1.906.64 1.906 1.578 0 1.031-.843 1.656-1.968 1.656Zm0 0"/></symbol><symbol overflow="visible" id="H"><path style="stroke:none" d="M1.078 0h2.719v-3.11l.734-.843L7.203 0h3.188L6.562-5.547l3.641-4.25H7.078L3.953-6.078h-.156v-6.984H1.078Zm0 0"/></symbol><symbol overflow="visible" id="I"><path style="stroke:none" d="M6.36-13.063v9.11c0 1.25-.563 1.922-1.579 1.922-.968 0-1.593-.61-1.61-1.64H.422C.407-1.064 2.267.171 4.642.171c2.64 0 4.437-1.594 4.453-4.125v-9.11Zm0 0"/></symbol><symbol overflow="visible" id="J"><path style="stroke:none" d="M5.766 0c3.968 0 6.39-2.453 6.39-6.547 0-4.062-2.422-6.516-6.36-6.516H1.142V0ZM3.89-2.36v-8.328h1.765c2.453 0 3.735 1.25 3.735 4.141 0 2.922-1.282 4.188-3.75 4.188Zm0 0"/></symbol><symbol overflow="visible" id="K"><path style="stroke:none" d="M7.36-4.172c.015 1.313-.891 2-1.86 2-1.031 0-1.688-.719-1.703-1.875v-5.75H1.078v6.235C1.094-1.267 2.422.124 4.406.124c1.469 0 2.532-.75 2.969-1.906h.094V0h2.61v-9.797h-2.72Zm0 0"/></symbol><symbol overflow="visible" id="L"><path style="stroke:none" d="M1.14 0h2.673v-1.563h.124C4.314-.75 5.125.157 6.72.157c2.218 0 3.968-1.766 3.968-5.048 0-3.359-1.812-5.03-3.968-5.03-1.64 0-2.422.983-2.782 1.78h-.093v-4.921H1.14Zm2.657-4.89c0-1.75.734-2.876 2.062-2.876 1.344 0 2.047 1.172 2.047 2.875C7.906-3.187 7.188-2 5.86-2 4.547-2 3.797-3.156 3.797-4.89Zm0 0"/></symbol><symbol overflow="visible" id="M"><path style="stroke:none" d="M6.344-9.797H4.406v-.656c0-.656.266-1.047 1.063-1.047.328 0 .656.063.875.14l.484-2.046a7.657 7.657 0 0 0-1.922-.266c-1.843 0-3.218 1.047-3.218 3.172v.703H.313v2.047h1.375V0h2.718v-7.75h1.938Zm0 0"/></symbol><symbol overflow="visible" id="N"><path style="stroke:none" d="M10.266 3.672V-9.797H7.594v1.656h-.125c-.36-.796-1.14-1.78-2.782-1.78C2.531-9.922.72-8.25.72-4.892.719-1.609 2.453.156 4.688.156c1.578 0 2.406-.906 2.78-1.718h.079v5.234ZM7.609-4.891C7.61-3.156 6.86-2 5.547-2 4.219-2 3.5-3.188 3.5-4.89c0-1.704.703-2.876 2.047-2.876 1.328 0 2.062 1.125 2.062 2.875Zm0 0"/></symbol><symbol overflow="visible" id="O"><path style="stroke:none" d="M1.14 0h2.75v-4.234h2.33c3 0 4.75-1.797 4.75-4.391 0-2.594-1.719-4.438-4.688-4.438h-5.14Zm2.75-6.438v-4.359h1.86c1.594 0 2.375.86 2.375 2.172 0 1.281-.781 2.188-2.36 2.188Zm0 0"/></symbol><symbol overflow="visible" id="Q"><path style="stroke:none" d="M12.063-13.063h-2.75v8.22h-.126l-5.624-8.22H1.14V0h2.75v-8.219h.093L9.672 0h2.39Zm0 0"/></symbol><symbol overflow="visible" id="P"><path style="stroke:none" d="M5.906 3.797 2.234-4.5l3.672-8.297H5L.953-4.5 5 3.797Zm0 0"/></symbol><symbol overflow="visible" id="R"><path style="stroke:none" d="m5.906-4.5-4.062-8.297h-.89L4.608-4.5.953 3.797h.89Zm0 0"/></symbol><symbol overflow="visible" id="S"><path style="stroke:none" d="M4.594 2.953 1.75-3.5l2.844-6.453H3.89L.734-3.5l3.157 6.453Zm0 0"/></symbol><symbol overflow="visible" id="Y"><path style="stroke:none" d="M4.594-3.5 1.437-9.953H.735L3.594-3.5.734 2.953h.704Zm0 0"/></symbol><symbol overflow="visible" id="T"><path style="stroke:none" d="M.844 0h2.11v-4.563c0-.843.53-1.406 1.233-1.406.704 0 1.157.469 1.157 1.219V0H7.39v-4.64c0-.798.453-1.329 1.218-1.329.672 0 1.188.422 1.188 1.266V0h2.094v-5.11c0-1.656-.97-2.593-2.391-2.593-1.11 0-1.984.562-2.297 1.437h-.078c-.234-.875-1.016-1.437-2.063-1.437-1.03 0-1.796.547-2.125 1.437H2.86v-1.343H.844Zm0 0"/></symbol><symbol overflow="visible" id="U"><path style="stroke:none" d="M4.281.156c2.313 0 3.75-1.593 3.75-3.937s-1.437-3.922-3.75-3.922c-2.312 0-3.75 1.578-3.75 3.922C.531-1.437 1.97.156 4.281.156Zm.016-1.64c-1.078 0-1.625-.985-1.625-2.313 0-1.312.547-2.297 1.625-2.297 1.031 0 1.578.985 1.578 2.297 0 1.328-.547 2.313-1.578 2.313Zm0 0"/></symbol><symbol overflow="visible" id="V"><path style="stroke:none" d="M2.953-4.39c0-.985.594-1.563 1.438-1.563.843 0 1.359.547 1.359 1.484V0h2.11v-4.844c0-1.781-1.048-2.86-2.626-2.86-1.14 0-1.953.548-2.296 1.438h-.079v-1.343H.844V0h2.11Zm0 0"/></symbol><symbol overflow="visible" id="W"><path style="stroke:none" d="M4.89-7.61H3.454v-1.827h-2.11v1.828H.314v1.593h1.03v3.954c0 1.5 1.016 2.234 2.548 2.171.53-.03.921-.14 1.14-.203l-.328-1.578c-.11.031-.328.078-.531.078-.422 0-.719-.156-.719-.75v-3.672h1.438Zm0 0"/></symbol><symbol overflow="visible" id="X"><path style="stroke:none" d="M2.953-4.39c0-.985.61-1.563 1.469-1.563.86 0 1.36.547 1.36 1.484V0H7.89v-4.844c0-1.781-1.047-2.86-2.641-2.86-1.156 0-1.922.548-2.266 1.438H2.89v-3.875H.844V0h2.11Zm0 0"/></symbol><symbol overflow="visible" id="Z"><path style="stroke:none" d="M3.14-1.39H1.39l-.03.562C1.311.516.921 1.89.78 2.484h1.36c.234-.609.812-2.015.937-3.328Zm0 0"/></symbol><symbol overflow="visible" id="aa"><path style="stroke:none" d="M2.14 2.86c1.579 0 2.407-.813 2.844-2.032l2.954-8.437H5.703L4.11-2.016h-.078L2.453-7.609H.234L2.97.219l-.125.328c-.281.703-.813.734-1.547.515L.813 2.641c.312.125.796.218 1.328.218Zm0 0"/></symbol><symbol overflow="visible" id="ab"><path style="stroke:none" d="M4.313.156c1.875 0 3.14-.922 3.437-2.328l-1.938-.14c-.218.578-.765.89-1.468.89-1.063 0-1.719-.703-1.719-1.844h5.172v-.578c0-2.578-1.563-3.86-3.578-3.86C1.984-7.703.53-6.108.53-3.765.531-1.359 1.97.156 4.312.156ZM2.625-4.578c.047-.86.703-1.547 1.64-1.547.907 0 1.548.64 1.548 1.547Zm0 0"/></symbol><symbol overflow="visible" id="ac"><path style="stroke:none" d="M3.016.14c1.125 0 1.843-.484 2.218-1.203h.063V0h2v-5.125c0-1.813-1.531-2.578-3.234-2.578-1.813 0-3.016.875-3.313 2.25l1.953.156c.14-.5.594-.875 1.36-.875.718 0 1.125.36 1.125.984v.032c0 .5-.516.562-1.844.687-1.5.14-2.86.64-2.86 2.344 0 1.5 1.079 2.266 2.532 2.266Zm.593-1.453c-.64 0-1.109-.296-1.109-.875 0-.593.484-.89 1.234-1 .47-.062 1.22-.171 1.47-.343v.812c0 .797-.657 1.406-1.595 1.406Zm0 0"/></symbol><symbol overflow="visible" id="ad"><path style="stroke:none" d="M.844 0h2.11v-4.297c0-.937.687-1.594 1.608-1.594.297 0 .704.063.891.125V-7.64a3.017 3.017 0 0 0-.656-.078c-.86 0-1.547.5-1.828 1.438H2.89v-1.33H.844Zm0 0"/></symbol><clipPath id="a"><path d="M25.945 43H74v60.012H25.945Zm0 0"/></clipPath><clipPath id="b"><path d="M35 28.547h48V89H35Zm0 0"/></clipPath><clipPath id="c"><path d="M260 53h21.059v27H260Zm0 0"/></clipPath><clipPath id="d"><path d="M91 98h6v5.012h-6Zm0 0"/></clipPath><clipPath id="e"><path d="M119 97h6v6.012h-6Zm0 0"/></clipPath><clipPath id="f"><path d="M155 97h7v6.012h-7Zm0 0"/></clipPath><clipPath id="g"><path d="M193 97h5v6.012h-5Zm0 0"/></clipPath><clipPath id="h"><path d="M202 97h7v6.012h-7Zm0 0"/></clipPath></defs><g clip-path="url(#a)"><path style="stroke:none;fill-rule:nonzero;fill:#02a593;fill-opacity:1" d="M28.969 43.738c-1.672 0-3.024 1.32-3.024 2.95v53.374c0 1.63 1.352 2.95 3.024 2.95h41.59c1.668 0 3.023-1.32 3.023-2.95V87.868c0 .195-.137.352-.305.352h-.14c-6.016 0-11.739-3-15.668-8.215l-7.711-10.23a.24.24 0 0 0-.434.144V86.36c0 1.028-.883 1.86-1.969 1.86H37.47c-1.301 0-2.352-.996-2.352-2.219V44.09c0-.195.137-.352.305-.352"/></g><g clip-path="url(#b)"><path style="stroke:none;fill-rule:nonzero;fill:#1896ca;fill-opacity:1" d="M79.86 28.547H38.015c-1.602 0-2.899 1.265-2.899 2.824V44.09c0-.195.137-.352.305-.352h1.172c5.363 0 10.46 2.672 13.965 7.32l8.382 11.126c.141.187.438.086.438-.145V46.09c0-1.3 1.11-2.35 2.484-2.35h9.367c1.301 0 2.352.995 2.352 2.222v41.906c0 .195-.137.352-.305.352h6.582c1.598 0 2.895-1.266 2.895-2.824V31.37c0-1.558-1.297-2.824-2.895-2.824"/></g><path style="stroke:none;fill-rule:nonzero;fill:#213b6c;fill-opacity:1" d="M59.379 62.04c0 .23-.297.331-.438.144L50.56 51.059c-3.504-4.649-8.602-7.32-13.965-7.32h-1.172c-.168 0-.305.156-.305.35v41.907c0 1.227 1.051 2.223 2.352 2.223h9.886c1.086 0 1.97-.832 1.97-1.86V69.918a.24.24 0 0 1 .433-.145l7.71 10.23c3.934 5.216 9.653 8.216 15.669 8.216h.14c.168 0 .305-.156.305-.352V45.961c0-1.227-1.05-2.223-2.348-2.223h-9.37c-1.376 0-2.485 1.051-2.485 2.352Zm165.312 15.92c-6.222 0-11.03-5.14-11.03-11.733v-.075c0-6.558 4.734-11.664 10.995-11.664 3.91 0 6.52 1.637 8.79 3.836l1.382-1.414c-2.683-2.46-5.48-4.176-10.137-4.176-7.527 0-13.043 6.114-13.043 13.493v.074c0 7.488 5.516 13.414 12.97 13.414 4.62 0 7.6-1.828 10.359-4.547l-1.305-1.266c-2.649 2.606-5.219 4.059-8.98 4.059m23.918-12.707c-6.184-1.266-7.598-2.942-7.598-5.7v-.074c0-2.718 2.531-4.917 6.37-4.917 2.868 0 5.329.82 7.786 2.94l1.23-1.526c-2.644-2.125-5.14-3.168-8.941-3.168-4.844 0-8.383 2.98-8.383 6.859v.074c0 3.95 2.531 6.07 8.793 7.34 5.926 1.191 7.38 2.793 7.38 5.55v.075c0 2.984-2.685 5.18-6.599 5.18-3.835 0-6.484-1.227-9.351-3.875l-1.266 1.453c3.13 2.797 6.332 4.176 10.508 4.176 5.027 0 8.645-2.907 8.645-7.118v-.074c0-3.8-2.536-5.965-8.575-7.195"/><g clip-path="url(#c)"><path style="stroke:none;fill-rule:nonzero;fill:#213b6c;fill-opacity:1" d="M279.121 53.184v12.07h-16.695v-12.07h-1.934v26.082h1.934V67.043h16.695v12.223h1.938V53.184Zm0 0"/></g><path style="stroke:none;fill-rule:nonzero;fill:#213b6c;fill-opacity:1" d="M131.39 52.328c-8.081 0-13.956 6.102-13.956 13.547v.078c0 7.445 5.796 13.469 13.882 13.469 8.082 0 13.957-6.098 13.957-13.547v-.074c0-7.446-5.8-13.473-13.882-13.473m7.859 13.625c0 4.488-3.219 8.156-7.86 8.156-4.64 0-7.933-3.742-7.933-8.234v-.074c0-4.489 3.219-8.156 7.86-8.156 4.636 0 7.933 3.742 7.933 8.23Zm27.54-13.082a4.159 4.159 0 0 0-3.895 2.711l-5.84 15.738-5.844-15.738a4.159 4.159 0 0 0-3.895-2.71h-3.472l10.59 26.382h5.09l10.59-26.383Zm-57.474 1.785h.004v14.375l-10.8-14.199a4.907 4.907 0 0 0-3.899-1.93h-2.887v26.196h5.688V62.445l11.344 14.89a4.474 4.474 0 0 0 3.554 1.763h2.438V52.87h-5.442Zm64.539-1.785L162.63 79.254h3.648a3.316 3.316 0 0 0 3.07-2.063l1.555-3.812h11.075l1.554 3.812a3.316 3.316 0 0 0 3.07 2.063h3.797l-11.23-26.383Zm-.898 15.418 3.48-8.492 3.481 8.492Zm18.707 8.719.961 2.258h.977V67.453h14.757v-1.789h-14.757V54.973h16.433v-1.79h-18.37Zm-98.949 13.32v1.695h2.437v.598h-2.437v1.961h-.695v-4.86h3.43v.606Zm6.485 3.039h-2.583l-.535 1.215h-.715l2.2-4.86h.687l2.207 4.86h-.727Zm-.243-.555-1.05-2.378-1.048 2.379Zm2.91 1.504a2.357 2.357 0 0 1-.918-.886 2.475 2.475 0 0 1-.336-1.278c0-.468.114-.894.336-1.273a2.35 2.35 0 0 1 .922-.887 2.71 2.71 0 0 1 1.32-.324c.38 0 .727.066 1.04.191.316.13.582.317.804.567l-.45.437a1.81 1.81 0 0 0-1.366-.578 2 2 0 0 0-.98.242c-.29.164-.52.387-.684.672a1.873 1.873 0 0 0-.246.953c0 .352.082.672.246.957.164.286.394.508.683.668.293.164.617.243.98.243.54 0 .997-.192 1.368-.582l.45.437a2.15 2.15 0 0 1-.81.57 2.74 2.74 0 0 1-1.042.196c-.489 0-.926-.11-1.317-.325m4.539-.23c-.363-.371-.543-.902-.543-1.598v-2.765h.696v2.738c0 1.039.453 1.559 1.367 1.559.445 0 .785-.125 1.02-.383.234-.258.355-.649.355-1.176v-2.738h.672v2.765c0 .7-.18 1.23-.543 1.598-.36.371-.864.555-1.512.555s-1.152-.188-1.512-.555m4.887-4.363h.695v4.257h2.63v.602h-3.325Zm4.02 0h2.046c.516 0 .97.101 1.368.308.398.203.707.489.925.856.223.367.332.789.332 1.265 0 .477-.109.903-.332 1.27a2.23 2.23 0 0 1-.925.855 2.967 2.967 0 0 1-1.368.305h-2.046Zm2.003 4.257a2.25 2.25 0 0 0 1.04-.23c.296-.152.527-.367.69-.64.161-.278.243-.594.243-.958 0-.359-.082-.675-.242-.953a1.687 1.687 0 0 0-.692-.64c-.296-.157-.644-.23-1.039-.23h-1.308v3.651Zm6.653-.613h-2.582l-.535 1.215h-.715l2.199-4.86h.687l2.207 4.86h-.726Zm-.242-.555-1.051-2.378-1.047 2.379Zm2.125-3.089h2.046c.512 0 .97.101 1.368.308.398.203.707.489.925.856.22.367.332.789.332 1.265 0 .477-.113.903-.332 1.27a2.23 2.23 0 0 1-.925.855 2.972 2.972 0 0 1-1.368.305h-2.046Zm2.003 4.257a2.25 2.25 0 0 0 1.04-.23c.296-.152.527-.367.69-.64.161-.278.243-.594.243-.958 0-.359-.082-.675-.242-.953a1.687 1.687 0 0 0-.691-.64c-.297-.157-.645-.23-1.04-.23h-1.312v3.651Zm7.153 0v.602h-3.528v-4.86h3.43v.606h-2.734v1.492h2.437v.59h-2.437v1.57Zm2.782-4.257h2.05c.512 0 .969.101 1.367.308.398.203.707.489.926.856.219.367.332.789.332 1.265 0 .477-.113.903-.332 1.27a2.23 2.23 0 0 1-.926.855 2.972 2.972 0 0 1-1.367.305h-2.05Zm2.007 4.257c.394 0 .738-.078 1.039-.23.297-.152.527-.367.691-.64.16-.278.243-.594.243-.958 0-.359-.083-.675-.243-.953a1.687 1.687 0 0 0-.691-.64c-.3-.157-.645-.23-1.04-.23h-1.312v3.651Zm7.153 0v.602h-3.528v-4.86h3.43v.606h-2.735v1.492h2.434v.59h-2.434v1.57Zm3.64.336c-.39-.214-.7-.511-.922-.886a2.472 2.472 0 0 1-.332-1.278c0-.468.11-.894.332-1.273a2.38 2.38 0 0 1 .926-.887 2.69 2.69 0 0 1 1.316-.324 2.8 2.8 0 0 1 1.043.191c.317.13.582.317.805.567l-.45.437a1.812 1.812 0 0 0-1.37-.578 2 2 0 0 0-.977.242c-.293.164-.52.387-.684.672a1.873 1.873 0 0 0-.246.953c0 .352.082.672.246.957.164.286.391.508.684.668.293.164.617.243.976.243.543 0 1-.192 1.372-.582l.449.437c-.223.25-.492.441-.809.57a2.74 2.74 0 0 1-1.043.196 2.68 2.68 0 0 1-1.316-.325m4.058.266h.696v-4.86h-.696Zm5.575-.602v.602h-3.528v-4.86h3.43v.606h-2.734v1.492h2.437v.59h-2.437v1.57Zm-1.168-4.652-.637-.535-.64.535h-.606l.926-.902h.636l.926.902Zm6.367.395v4.859h-.57l-2.915-3.621v3.621h-.695v-4.86h.57l2.915 3.626v-3.625Zm2.211 4.593a2.35 2.35 0 0 1-.918-.886 2.475 2.475 0 0 1-.336-1.278c0-.468.113-.894.336-1.273.219-.375.527-.672.922-.887a2.71 2.71 0 0 1 1.32-.324c.379 0 .727.066 1.04.191.315.13.581.317.804.567l-.45.437a1.81 1.81 0 0 0-1.367-.578c-.363 0-.687.082-.98.242-.293.164-.52.387-.684.672a1.873 1.873 0 0 0-.246.953c0 .352.082.672.246.957.164.286.39.508.684.668.293.164.617.243.98.243.54 0 .996-.192 1.368-.582l.449.437c-.223.25-.492.441-.809.57a2.74 2.74 0 0 1-1.043.196 2.68 2.68 0 0 1-1.316-.325m4.058.266h.692v-4.86h-.692Zm5.145-1.215h-2.582l-.535 1.215h-.715l2.2-4.86h.687l2.207 4.86h-.727Zm-.242-.555-1.051-2.378-1.047 2.379Zm2.48 1.657c-.34-.114-.61-.262-.8-.442l.253-.539c.188.164.426.301.711.407.29.101.59.156.895.156.402 0 .703-.07.902-.207a.626.626 0 0 0 .297-.543.541.541 0 0 0-.16-.406 1.098 1.098 0 0 0-.402-.243 8.023 8.023 0 0 0-.68-.187 6.993 6.993 0 0 1-.883-.262 1.47 1.47 0 0 1-.578-.406c-.16-.184-.238-.43-.238-.738 0-.262.066-.496.203-.704.136-.207.344-.375.62-.5.278-.125.626-.187 1.036-.187.29 0 .57.039.848.113.277.074.515.18.714.317l-.23.558a2.4 2.4 0 0 0-.652-.297 2.451 2.451 0 0 0-.68-.101c-.395 0-.688.074-.887.215a.668.668 0 0 0-.293.558.53.53 0 0 0 .168.406c.11.102.246.184.41.243.165.054.387.117.672.183a6.8 6.8 0 0 1 .883.262c.223.09.41.223.57.402.16.18.243.426.243.73 0 .255-.07.49-.211.7-.137.207-.348.375-.63.5-.284.121-.632.184-1.042.184-.367 0-.719-.059-1.059-.172m5.969 0c-.34-.114-.606-.262-.8-.442l.257-.539a2.2 2.2 0 0 0 .71.407c.29.101.587.156.892.156.406 0 .707-.07.902-.207.2-.137.3-.317.3-.543a.53.53 0 0 0-.163-.406 1.067 1.067 0 0 0-.403-.243 8.292 8.292 0 0 0-.675-.187 6.884 6.884 0 0 1-.887-.262 1.457 1.457 0 0 1-.574-.406c-.16-.184-.243-.43-.243-.738 0-.262.07-.496.207-.704.137-.207.344-.375.621-.5.278-.125.622-.187 1.032-.187.289 0 .57.039.847.113.278.074.52.18.715.317l-.226.558a2.4 2.4 0 0 0-.653-.297 2.5 2.5 0 0 0-.683-.101c-.39 0-.688.074-.883.215a.672.672 0 0 0-.297.558c0 .164.059.301.168.406.11.102.25.184.414.243.164.054.387.117.668.183a6.8 6.8 0 0 1 .883.262c.223.09.414.223.574.402.16.18.238.426.238.73 0 .255-.07.49-.207.7a1.45 1.45 0 0 1-.632.5c-.282.121-.63.184-1.043.184-.364 0-.72-.059-1.059-.172m4.719-.153a2.362 2.362 0 0 1-.926-.89 2.437 2.437 0 0 1-.34-1.274c0-.465.113-.89.34-1.27.223-.378.531-.675.926-.89a2.724 2.724 0 0 1 1.324-.324c.488 0 .926.11 1.32.324.395.215.703.512.922.887.223.379.336.805.336 1.273 0 .473-.113.899-.336 1.278a2.343 2.343 0 0 1-.922.886 2.71 2.71 0 0 1-1.32.325c-.488 0-.93-.11-1.324-.325m2.285-.539c.285-.16.512-.382.676-.668.164-.285.246-.605.246-.957 0-.351-.082-.668-.246-.953a1.8 1.8 0 0 0-.676-.672 1.908 1.908 0 0 0-.961-.242c-.356 0-.68.082-.969.242a1.791 1.791 0 0 0-.68.672 1.873 1.873 0 0 0-.246.953c0 .352.082.672.246.957.165.286.391.508.68.668.29.164.613.243.969.243.36 0 .68-.079.96-.243m3.434.539a2.369 2.369 0 0 1-.921-.886 2.472 2.472 0 0 1-.332-1.278c0-.468.109-.894.332-1.273.222-.375.53-.672.921-.887a2.72 2.72 0 0 1 1.32-.324c.38 0 .727.066 1.044.191.312.13.582.317.804.567l-.453.437c-.363-.386-.82-.578-1.367-.578-.36 0-.687.082-.976.242-.293.164-.52.387-.688.672-.16.285-.246.602-.246.953 0 .352.086.672.246.957.168.286.395.508.688.668.289.164.617.243.976.243.543 0 1-.192 1.367-.582l.453.437c-.222.25-.492.441-.808.57a2.76 2.76 0 0 1-1.047.196c-.484 0-.922-.11-1.313-.325m4.055.266h.695v-4.86h-.695Zm5.145-1.215h-2.582l-.536 1.215h-.714l2.203-4.86h.687l2.207 4.86h-.73Zm-.243-.555-1.046-2.378-1.051 2.379Zm2.126 1.77h.695v-4.86h-.696Zm2.406-.113c-.34-.114-.61-.262-.805-.442l.258-.539c.187.164.422.301.71.407.29.101.59.156.895.156.403 0 .703-.07.903-.207a.626.626 0 0 0 .297-.543.53.53 0 0 0-.165-.406 1.037 1.037 0 0 0-.402-.243 7.86 7.86 0 0 0-.676-.187 7.08 7.08 0 0 1-.886-.262 1.485 1.485 0 0 1-.575-.406c-.16-.184-.238-.43-.238-.738 0-.262.067-.496.203-.704.137-.207.344-.375.621-.5.278-.125.621-.187 1.036-.187.285 0 .57.039.847.113.278.074.516.18.715.317l-.23.558a2.4 2.4 0 0 0-.653-.297 2.451 2.451 0 0 0-.68-.101c-.394 0-.687.074-.886.215a.668.668 0 0 0-.293.558c0 .164.055.301.164.406.113.102.25.184.414.243.164.054.387.117.672.183.363.086.66.176.883.262.218.09.41.223.57.402.16.18.238.426.238.73 0 .255-.066.49-.207.7-.137.207-.347.375-.633.5-.28.121-.629.184-1.039.184-.367 0-.718-.059-1.058-.172m9.141-.489v.602h-3.532v-4.86h3.434v.606h-2.739v1.492h2.438v.59h-2.438v1.57Zm6.96-4.257v4.859h-.695v-2.164h-2.79v2.164h-.694v-4.86h.695v2.09h2.789v-2.09Zm1.856 4.363c-.363-.371-.543-.902-.543-1.598v-2.765h.695v2.738c0 1.039.453 1.559 1.367 1.559.446 0 .785-.125 1.02-.383.238-.258.355-.649.355-1.176v-2.738h.672v2.765c0 .7-.18 1.23-.539 1.598-.363.371-.867.555-1.516.555-.648 0-1.152-.188-1.511-.555m9.39.496-.007-3.539-1.754 2.95h-.32l-1.758-2.93v3.519h-.665v-4.86h.567l2.027 3.419 2-3.418h.57l.008 4.859Zm5.118-1.215h-2.582l-.536 1.215h-.714l2.199-4.86h.687l2.207 4.86h-.726Zm-.243-.555-1.05-2.378-1.047 2.379Zm6.305-3.089v4.859h-.57l-2.914-3.621v3.621h-.696v-4.86h.567l2.918 3.626v-3.625Zm4.449 3.644h-2.582l-.535 1.215h-.715l2.2-4.86H251l2.207 4.86h-.727Zm-.242-.555-1.05-2.378-1.048 2.379Zm2.481 1.657c-.34-.114-.61-.262-.801-.442l.254-.539c.187.164.425.301.71.407.294.101.59.156.895.156.403 0 .703-.07.903-.207a.631.631 0 0 0 .3-.543.53.53 0 0 0-.164-.406 1.098 1.098 0 0 0-.402-.243 8.022 8.022 0 0 0-.68-.187 6.993 6.993 0 0 1-.883-.262 1.47 1.47 0 0 1-.578-.406c-.16-.184-.238-.43-.238-.738 0-.262.066-.496.203-.704.137-.207.344-.375.621-.5.278-.125.625-.187 1.035-.187.29 0 .57.039.848.113.277.074.516.18.715.317l-.23.558a2.347 2.347 0 0 0-.653-.297 2.451 2.451 0 0 0-.68-.101c-.39 0-.687.074-.882.215a.662.662 0 0 0-.297.558c0 .164.054.301.168.406.109.102.246.184.41.243.168.054.39.117.672.183a6.8 6.8 0 0 1 .882.262c.223.09.415.223.57.402.161.18.243.426.243.73 0 .255-.07.49-.21.7-.138.207-.349.375-.63.5-.285.121-.633.184-1.043.184-.367 0-.719-.059-1.058-.172"/><g clip-path="url(#d)"><path style="stroke:none;fill-rule:nonzero;fill:#213b6c;fill-opacity:1" d="M92.336 102.422c-.402-.395-.602-.953-.602-1.672v-2.695h1.375v2.652c0 .777.309 1.168.922 1.168.614 0 .918-.39.918-1.168v-2.652h1.356v2.695c0 .719-.203 1.277-.602 1.672-.402.394-.96.59-1.683.59-.723 0-1.286-.196-1.684-.59"/></g><path style="stroke:none;fill-rule:nonzero;fill:#213b6c;fill-opacity:1" d="M101.855 98.055v4.86h-1.128l-2.149-2.59v2.59h-1.344v-4.86h1.13l2.148 2.59v-2.59Zm.973 4.859h1.375v-4.86h-1.375Zm7.27-4.859-2.082 4.86h-1.356l-2.074-4.86h1.484l1.32 3.164 1.348-3.164Zm4.187 3.797v1.062h-3.902v-4.86h3.812v1.063h-2.453v.82h2.16v1.028h-2.16v.887Zm2.887-.231h-.75v1.293h-1.375v-4.86h2.223c.437 0 .82.075 1.144.22.324.144.574.355.75.624.176.27.266.59.266.954a1.7 1.7 0 0 1-.246.921 1.7 1.7 0 0 1-.707.614l1.046 1.527h-1.468Zm.652-2.297c-.144-.125-.355-.187-.636-.187h-.766v1.425h.766c.28 0 .492-.062.636-.183.145-.125.215-.3.215-.527 0-.227-.07-.403-.215-.528"/><g clip-path="url(#e)"><path style="stroke:none;fill-rule:nonzero;fill:#213b6c;fill-opacity:1" d="M120.746 102.867c-.371-.097-.672-.226-.902-.39l.453-1.012c.215.14.469.258.758.347.285.086.566.13.843.13.528 0 .793-.13.793-.395 0-.14-.074-.242-.226-.309a4.131 4.131 0 0 0-.727-.21 6.988 6.988 0 0 1-.914-.255 1.534 1.534 0 0 1-.633-.433c-.175-.2-.261-.469-.261-.805 0-.297.078-.566.242-.805.16-.238.402-.425.723-.566.324-.137.718-.207 1.183-.207.32 0 .637.04.945.11.313.07.586.175.82.316l-.421 1.02c-.465-.25-.914-.376-1.348-.376-.273 0-.472.04-.597.121-.125.082-.188.188-.188.317s.074.226.223.289c.148.066.386.133.715.203.37.078.675.164.918.254.242.09.453.234.632.43.18.199.27.464.27.8 0 .293-.082.559-.246.793-.16.235-.403.426-.727.567-.324.14-.719.21-1.18.21a4.66 4.66 0 0 1-1.148-.144"/></g><path style="stroke:none;fill-rule:nonzero;fill:#213b6c;fill-opacity:1" d="M124.676 102.914h1.375v-4.86h-1.375Zm2.355-4.859h2.297c.531 0 1.004.097 1.414.297.414.199.735.484.961.847.227.367.34.797.34 1.285 0 .493-.113.918-.34 1.286a2.235 2.235 0 0 1-.96.847c-.411.2-.884.297-1.415.297h-2.297Zm2.242 3.761c.415 0 .75-.117 1.004-.351.25-.238.375-.563.375-.98 0-.415-.125-.743-.375-.981-.254-.234-.59-.352-1.004-.352h-.867v2.664Zm6.677.153h-2.055l-.38.945h-1.402l2.145-4.86h1.351l2.153 4.86h-1.43Zm-.403-1.012-.625-1.555-.621 1.555Zm2.605-2.902h2.297c.531 0 1.004.097 1.418.297.41.199.73.484.957.847.227.367.34.797.34 1.285 0 .493-.113.918-.34 1.286a2.247 2.247 0 0 1-.957.847c-.414.2-.887.297-1.418.297h-2.297Zm2.243 3.761c.417 0 .75-.117 1.003-.351.25-.238.375-.563.375-.98 0-.415-.125-.743-.375-.981-.253-.234-.585-.352-1.003-.352h-.868v2.664Zm7.395.036v1.062h-3.903v-4.86h3.812v1.063h-2.453v.82h2.16v1.028h-2.16v.887Zm7.405-3.797v4.86h-1.132l-2.145-2.59v2.59h-1.348v-4.86h1.133l2.145 2.59v-2.59Zm0 0"/><g clip-path="url(#f)"><path style="stroke:none;fill-rule:nonzero;fill:#213b6c;fill-opacity:1" d="M157.234 102.684a2.437 2.437 0 0 1-1.316-2.2 2.437 2.437 0 0 1 1.316-2.199 2.881 2.881 0 0 1 1.383-.328c.516 0 .977.11 1.387.328a2.437 2.437 0 0 1 1.316 2.2 2.437 2.437 0 0 1-1.316 2.199c-.41.218-.871.328-1.387.328-.512 0-.976-.11-1.383-.328m2.051-.985c.2-.113.356-.277.473-.488.113-.211.172-.453.172-.727 0-.273-.059-.515-.172-.726a1.29 1.29 0 0 0-.473-.488 1.29 1.29 0 0 0-.668-.172 1.266 1.266 0 0 0-1.137.66 1.47 1.47 0 0 0-.175.726c0 .274.058.516.175.727.114.21.27.375.473.488.195.117.418.176.664.176.246 0 .469-.059.668-.176"/></g><path style="stroke:none;fill-rule:nonzero;fill:#213b6c;fill-opacity:1" d="m166.805 98.055-2.086 4.86h-1.352l-2.078-4.86h1.488l1.317 3.164 1.347-3.164Zm3.371 3.914h-2.055l-.383.945h-1.398l2.144-4.86h1.352l2.152 4.86h-1.43Zm-.403-1.012-.625-1.555-.625 1.555Zm4.625-2.902h2.297c.532 0 1.004.097 1.418.297.41.199.73.484.957.847.227.367.34.797.34 1.285 0 .493-.113.918-.34 1.286a2.247 2.247 0 0 1-.957.847c-.414.2-.886.297-1.418.297h-2.297Zm2.243 3.761c.414 0 .75-.117 1.004-.351.25-.238.375-.563.375-.98 0-.415-.125-.743-.375-.981-.254-.234-.59-.352-1.004-.352h-.868v2.664Zm7.394.036v1.062h-3.902v-4.86h3.812v1.063h-2.453v.82h2.16v1.028h-2.16v.887Zm2.781-3.797h1.375v3.77h2.32v1.09h-3.695Zm4.234 4.859h1.376v-4.86h-1.375Zm0 0"/><g clip-path="url(#g)"><path style="stroke:none;fill-rule:nonzero;fill:#213b6c;fill-opacity:1" d="M193.969 102.867c-.371-.097-.672-.226-.903-.39l.45-1.012c.218.14.472.258.757.347.286.086.57.13.848.13.527 0 .793-.13.793-.395 0-.14-.078-.242-.226-.309a4.353 4.353 0 0 0-.727-.21 6.892 6.892 0 0 1-.918-.255 1.547 1.547 0 0 1-.629-.433c-.176-.2-.266-.469-.266-.805 0-.297.082-.566.243-.805.164-.238.406-.425.726-.566.32-.137.715-.207 1.184-.207.32 0 .637.04.945.11.309.07.582.175.82.316l-.425 1.02c-.461-.25-.91-.376-1.348-.376-.273 0-.469.04-.594.121-.125.082-.191.188-.191.317s.074.226.222.289c.149.066.387.133.715.203.371.078.68.164.922.254s.453.234.633.43c.176.199.266.464.266.8 0 .293-.082.559-.243.793-.164.235-.406.426-.73.567-.324.14-.715.21-1.18.21-.394 0-.773-.05-1.144-.144"/></g><path style="stroke:none;fill-rule:nonzero;fill:#213b6c;fill-opacity:1" d="M202.285 100.836a1.2 1.2 0 0 1 .235.746c0 .426-.168.754-.512.984-.344.235-.836.348-1.485.348h-2.625v-4.86h2.485c.62 0 1.094.114 1.418.344.324.23.484.54.484.926 0 .235-.055.442-.172.625-.113.18-.273.324-.48.43.277.098.496.25.652.457m-3.027-1.79v.938h.945c.461 0 .692-.156.692-.472 0-.309-.23-.465-.692-.465Zm1.875 2.384c0-.328-.242-.493-.723-.493h-1.152v.985h1.152c.48 0 .723-.164.723-.492"/><g clip-path="url(#h)"><path style="stroke:none;fill-rule:nonzero;fill:#213b6c;fill-opacity:1" d="M204.3 102.684a2.437 2.437 0 0 1-1.316-2.2 2.437 2.437 0 0 1 1.317-2.199 2.89 2.89 0 0 1 1.387-.328c.511 0 .976.11 1.382.328a2.437 2.437 0 0 1 1.316 2.2 2.437 2.437 0 0 1-1.316 2.199 2.88 2.88 0 0 1-1.382.328c-.516 0-.977-.11-1.387-.328m2.054-.985c.196-.113.356-.277.47-.488.116-.211.175-.453.175-.727 0-.273-.059-.515-.176-.726a1.28 1.28 0 0 0-.469-.488 1.29 1.29 0 0 0-.667-.172 1.29 1.29 0 0 0-.668.172 1.29 1.29 0 0 0-.473.488c-.113.21-.172.453-.172.726 0 .274.059.516.172.727.117.21.273.375.473.488.199.117.421.176.667.176.247 0 .47-.059.668-.176"/></g><path style="stroke:none;fill-rule:nonzero;fill:#213b6c;fill-opacity:1" d="M212.297 101.969h-2.055l-.383.945h-1.402l2.145-4.86h1.355l2.152 4.86h-1.43Zm-.402-1.012-.625-1.555-.625 1.555Zm0 0"/><use xlink:href="#i" x="178.866" y="251.771" style="fill:#193d6c;fill-opacity:1"/><use xlink:href="#j" x="196.435" y="251.771" style="fill:#193d6c;fill-opacity:1"/><use xlink:href="#k" x="208.731" y="251.771" style="fill:#193d6c;fill-opacity:1"/><use xlink:href="#l" x="219.447" y="251.771" style="fill:#193d6c;fill-opacity:1"/><use xlink:href="#m" x="227.081" y="251.771" style="fill:#193d6c;fill-opacity:1"/><use xlink:href="#n" x="241.746" y="251.771" style="fill:#193d6c;fill-opacity:1"/><use xlink:href="#o" x="251.925" y="251.771" style="fill:#193d6c;fill-opacity:1"/><use xlink:href="#p" x="262.927" y="251.771" style="fill:#193d6c;fill-opacity:1"/><use xlink:href="#q" x="274.083" y="251.771" style="fill:#193d6c;fill-opacity:1"/><use xlink:href="#r" x="289.59" y="251.771" style="fill:#193d6c;fill-opacity:1"/><use xlink:href="#p" x="299.998" y="251.771" style="fill:#193d6c;fill-opacity:1"/><use xlink:href="#s" x="311.147" y="251.771" style="fill:#193d6c;fill-opacity:1"/><use xlink:href="#t" x="326.7" y="251.771" style="fill:#193d6c;fill-opacity:1"/><use xlink:href="#u" x="331.728" y="251.771" style="fill:#193d6c;fill-opacity:1"/><use xlink:href="#v" x="348.087" y="251.771" style="fill:#193d6c;fill-opacity:1"/><use xlink:href="#l" x="359.426" y="251.771" style="fill:#193d6c;fill-opacity:1"/><use xlink:href="#k" x="366.295" y="251.771" style="fill:#193d6c;fill-opacity:1"/><use xlink:href="#w" x="377.017" y="251.771" style="fill:#193d6c;fill-opacity:1"/><use xlink:href="#w" x="387.09" y="251.771" style="fill:#193d6c;fill-opacity:1"/><use xlink:href="#x" x="397.163" y="251.771" style="fill:#193d6c;fill-opacity:1"/><use xlink:href="#y" x="402.041" y="251.771" style="fill:#193d6c;fill-opacity:1"/><use xlink:href="#k" x="412.223" y="251.771" style="fill:#193d6c;fill-opacity:1"/><use xlink:href="#z" x="140.959" y="273.524" style="fill:#193d6c;fill-opacity:1"/><use xlink:href="#A" x="152.939" y="273.524" style="fill:#193d6c;fill-opacity:1"/><use xlink:href="#k" x="164.137" y="273.524" style="fill:#193d6c;fill-opacity:1"/><use xlink:href="#w" x="174.852" y="273.524" style="fill:#193d6c;fill-opacity:1"/><use xlink:href="#x" x="184.925" y="273.524" style="fill:#193d6c;fill-opacity:1"/><use xlink:href="#w" x="189.803" y="273.524" style="fill:#193d6c;fill-opacity:1"/><use xlink:href="#z" x="204.041" y="273.524" style="fill:#193d6c;fill-opacity:1"/><use xlink:href="#x" x="216.022" y="273.524" style="fill:#193d6c;fill-opacity:1"/><use xlink:href="#B" x="220.9" y="273.524" style="fill:#193d6c;fill-opacity:1"/><use xlink:href="#C" x="228.074" y="273.524" style="fill:#193d6c;fill-opacity:1"/><use xlink:href="#k" x="232.952" y="273.524" style="fill:#193d6c;fill-opacity:1"/><use xlink:href="#D" x="247.826" y="273.524" style="fill:#193d6c;fill-opacity:1"/><use xlink:href="#x" x="263.072" y="273.524" style="fill:#193d6c;fill-opacity:1"/><use xlink:href="#B" x="267.95" y="273.524" style="fill:#193d6c;fill-opacity:1"/><use xlink:href="#A" x="275.123" y="273.524" style="fill:#193d6c;fill-opacity:1"/><use xlink:href="#r" x="290.473" y="273.524" style="fill:#193d6c;fill-opacity:1"/><use xlink:href="#E" x="305.038" y="273.524" style="fill:#193d6c;fill-opacity:1"/><use xlink:href="#o" x="314.813" y="273.524" style="fill:#193d6c;fill-opacity:1"/><use xlink:href="#l" x="325.821" y="273.524" style="fill:#193d6c;fill-opacity:1"/><use xlink:href="#F" x="332.69" y="273.524" style="fill:#193d6c;fill-opacity:1"/><use xlink:href="#k" x="343.219" y="273.524" style="fill:#193d6c;fill-opacity:1"/><use xlink:href="#s" x="353.941" y="273.524" style="fill:#193d6c;fill-opacity:1"/><use xlink:href="#n" x="369.488" y="273.524" style="fill:#193d6c;fill-opacity:1"/><use xlink:href="#x" x="379.668" y="273.524" style="fill:#193d6c;fill-opacity:1"/><use xlink:href="#p" x="384.546" y="273.524" style="fill:#193d6c;fill-opacity:1"/><use xlink:href="#k" x="395.695" y="273.524" style="fill:#193d6c;fill-opacity:1"/><use xlink:href="#G" x="410.569" y="273.524" style="fill:#193d6c;fill-opacity:1"/><use xlink:href="#l" x="422.426" y="273.524" style="fill:#193d6c;fill-opacity:1"/><use xlink:href="#k" x="429.295" y="273.524" style="fill:#193d6c;fill-opacity:1"/><use xlink:href="#r" x="440.011" y="273.524" style="fill:#193d6c;fill-opacity:1"/><use xlink:href="#H" x="450.418" y="273.524" style="fill:#193d6c;fill-opacity:1"/><use xlink:href="#I" x="188.765" y="421.754" style="fill:#193d6c;fill-opacity:1"/><use xlink:href="#o" x="198.986" y="421.754" style="fill:#193d6c;fill-opacity:1"/><use xlink:href="#A" x="209.988" y="421.754" style="fill:#193d6c;fill-opacity:1"/><use xlink:href="#p" x="221.185" y="421.754" style="fill:#193d6c;fill-opacity:1"/><use xlink:href="#j" x="236.492" y="421.754" style="fill:#193d6c;fill-opacity:1"/><use xlink:href="#k" x="248.789" y="421.754" style="fill:#193d6c;fill-opacity:1"/><use xlink:href="#l" x="259.504" y="421.754" style="fill:#193d6c;fill-opacity:1"/><use xlink:href="#m" x="267.144" y="421.754" style="fill:#193d6c;fill-opacity:1"/><use xlink:href="#n" x="281.81" y="421.754" style="fill:#193d6c;fill-opacity:1"/><use xlink:href="#o" x="291.983" y="421.754" style="fill:#193d6c;fill-opacity:1"/><use xlink:href="#p" x="302.991" y="421.754" style="fill:#193d6c;fill-opacity:1"/><use xlink:href="#q" x="314.14" y="421.754" style="fill:#193d6c;fill-opacity:1"/><use xlink:href="#p" x="325.496" y="421.754" style="fill:#193d6c;fill-opacity:1"/><use xlink:href="#r" x="336.645" y="421.754" style="fill:#193d6c;fill-opacity:1"/><use xlink:href="#u" x="347.046" y="421.754" style="fill:#193d6c;fill-opacity:1"/><use xlink:href="#k" x="363.405" y="421.754" style="fill:#193d6c;fill-opacity:1"/><use xlink:href="#J" x="378.28" y="421.754" style="fill:#193d6c;fill-opacity:1"/><use xlink:href="#o" x="391.323" y="421.754" style="fill:#193d6c;fill-opacity:1"/><use xlink:href="#k" x="402.325" y="421.754" style="fill:#193d6c;fill-opacity:1"/><use xlink:href="#z" x="109.367" y="574.386" style="fill:#193d6c;fill-opacity:1"/><use xlink:href="#A" x="121.347" y="574.386" style="fill:#193d6c;fill-opacity:1"/><use xlink:href="#k" x="132.545" y="574.386" style="fill:#193d6c;fill-opacity:1"/><use xlink:href="#w" x="143.26" y="574.386" style="fill:#193d6c;fill-opacity:1"/><use xlink:href="#x" x="153.333" y="574.386" style="fill:#193d6c;fill-opacity:1"/><use xlink:href="#w" x="158.211" y="574.386" style="fill:#193d6c;fill-opacity:1"/><use xlink:href="#w" x="172.449" y="574.386" style="fill:#193d6c;fill-opacity:1"/><use xlink:href="#K" x="182.523" y="574.386" style="fill:#193d6c;fill-opacity:1"/><use xlink:href="#L" x="193.672" y="574.386" style="fill:#193d6c;fill-opacity:1"/><use xlink:href="#u" x="205.066" y="574.386" style="fill:#193d6c;fill-opacity:1"/><use xlink:href="#x" x="221.419" y="574.386" style="fill:#193d6c;fill-opacity:1"/><use xlink:href="#B" x="226.297" y="574.386" style="fill:#193d6c;fill-opacity:1"/><use xlink:href="#B" x="233.261" y="574.386" style="fill:#193d6c;fill-opacity:1"/><use xlink:href="#k" x="240.129" y="574.386" style="fill:#193d6c;fill-opacity:1"/><use xlink:href="#s" x="250.845" y="574.386" style="fill:#193d6c;fill-opacity:1"/><use xlink:href="#x" x="266.398" y="574.386" style="fill:#193d6c;fill-opacity:1"/><use xlink:href="#p" x="271.276" y="574.386" style="fill:#193d6c;fill-opacity:1"/><use xlink:href="#v" x="286.583" y="574.386" style="fill:#193d6c;fill-opacity:1"/><use xlink:href="#r" x="297.928" y="574.386" style="fill:#193d6c;fill-opacity:1"/><use xlink:href="#l" x="308.329" y="574.386" style="fill:#193d6c;fill-opacity:1"/><use xlink:href="#B" x="316.154" y="574.386" style="fill:#193d6c;fill-opacity:1"/><use xlink:href="#x" x="323.117" y="574.386" style="fill:#193d6c;fill-opacity:1"/><use xlink:href="#r" x="327.995" y="574.386" style="fill:#193d6c;fill-opacity:1"/><use xlink:href="#C" x="338.403" y="574.386" style="fill:#193d6c;fill-opacity:1"/><use xlink:href="#M" x="347.439" y="574.386" style="fill:#193d6c;fill-opacity:1"/><use xlink:href="#K" x="354.353" y="574.386" style="fill:#193d6c;fill-opacity:1"/><use xlink:href="#C" x="365.503" y="574.386" style="fill:#193d6c;fill-opacity:1"/><use xlink:href="#M" x="370.381" y="574.386" style="fill:#193d6c;fill-opacity:1"/><use xlink:href="#x" x="377.301" y="574.386" style="fill:#193d6c;fill-opacity:1"/><use xlink:href="#C" x="382.179" y="574.386" style="fill:#193d6c;fill-opacity:1"/><use xlink:href="#C" x="387.057" y="574.386" style="fill:#193d6c;fill-opacity:1"/><use xlink:href="#u" x="391.935" y="574.386" style="fill:#193d6c;fill-opacity:1"/><use xlink:href="#k" x="408.288" y="574.386" style="fill:#193d6c;fill-opacity:1"/><use xlink:href="#p" x="419.003" y="574.386" style="fill:#193d6c;fill-opacity:1"/><use xlink:href="#B" x="430.153" y="574.386" style="fill:#193d6c;fill-opacity:1"/><use xlink:href="#o" x="441.281" y="574.386" style="fill:#193d6c;fill-opacity:1"/><use xlink:href="#M" x="452.283" y="574.386" style="fill:#193d6c;fill-opacity:1"/><use xlink:href="#B" x="463.355" y="574.386" style="fill:#193d6c;fill-opacity:1"/><use xlink:href="#A" x="470.529" y="574.386" style="fill:#193d6c;fill-opacity:1"/><use xlink:href="#k" x="481.726" y="574.386" style="fill:#193d6c;fill-opacity:1"/><use xlink:href="#l" x="166.909" y="596.138" style="fill:#193d6c;fill-opacity:1"/><use xlink:href="#k" x="173.778" y="596.138" style="fill:#193d6c;fill-opacity:1"/><use xlink:href="#N" x="184.494" y="596.138" style="fill:#193d6c;fill-opacity:1"/><use xlink:href="#K" x="195.839" y="596.138" style="fill:#193d6c;fill-opacity:1"/><use xlink:href="#x" x="206.988" y="596.138" style="fill:#193d6c;fill-opacity:1"/><use xlink:href="#l" x="211.866" y="596.138" style="fill:#193d6c;fill-opacity:1"/><use xlink:href="#k" x="218.736" y="596.138" style="fill:#193d6c;fill-opacity:1"/><use xlink:href="#u" x="229.458" y="596.138" style="fill:#193d6c;fill-opacity:1"/><use xlink:href="#k" x="245.811" y="596.138" style="fill:#193d6c;fill-opacity:1"/><use xlink:href="#p" x="256.526" y="596.138" style="fill:#193d6c;fill-opacity:1"/><use xlink:href="#B" x="267.676" y="596.138" style="fill:#193d6c;fill-opacity:1"/><use xlink:href="#w" x="274.512" y="596.138" style="fill:#193d6c;fill-opacity:1"/><use xlink:href="#M" x="288.743" y="596.138" style="fill:#193d6c;fill-opacity:1"/><use xlink:href="#o" x="295.313" y="596.138" style="fill:#193d6c;fill-opacity:1"/><use xlink:href="#l" x="306.321" y="596.138" style="fill:#193d6c;fill-opacity:1"/><use xlink:href="#B" x="317.808" y="596.138" style="fill:#193d6c;fill-opacity:1"/><use xlink:href="#A" x="324.975" y="596.138" style="fill:#193d6c;fill-opacity:1"/><use xlink:href="#k" x="336.172" y="596.138" style="fill:#193d6c;fill-opacity:1"/><use xlink:href="#s" x="351.046" y="596.138" style="fill:#193d6c;fill-opacity:1"/><use xlink:href="#k" x="362.441" y="596.138" style="fill:#193d6c;fill-opacity:1"/><use xlink:href="#q" x="373.157" y="596.138" style="fill:#193d6c;fill-opacity:1"/><use xlink:href="#l" x="384.512" y="596.138" style="fill:#193d6c;fill-opacity:1"/><use xlink:href="#k" x="391.382" y="596.138" style="fill:#193d6c;fill-opacity:1"/><use xlink:href="#k" x="402.104" y="596.138" style="fill:#193d6c;fill-opacity:1"/><use xlink:href="#o" x="416.978" y="596.138" style="fill:#193d6c;fill-opacity:1"/><use xlink:href="#M" x="427.979" y="596.138" style="fill:#193d6c;fill-opacity:1"/><use xlink:href="#J" x="103.383" y="630.117" style="fill:#193d6c;fill-opacity:1"/><use xlink:href="#o" x="116.421" y="630.117" style="fill:#193d6c;fill-opacity:1"/><use xlink:href="#F" x="127.429" y="630.117" style="fill:#193d6c;fill-opacity:1"/><use xlink:href="#B" x="137.958" y="630.117" style="fill:#193d6c;fill-opacity:1"/><use xlink:href="#o" x="144.826" y="630.117" style="fill:#193d6c;fill-opacity:1"/><use xlink:href="#l" x="155.827" y="630.117" style="fill:#193d6c;fill-opacity:1"/><use xlink:href="#o" x="167.314" y="630.117" style="fill:#193d6c;fill-opacity:1"/><use xlink:href="#M" x="178.322" y="630.117" style="fill:#193d6c;fill-opacity:1"/><use xlink:href="#O" x="189.394" y="630.117" style="fill:#193d6c;fill-opacity:1"/><use xlink:href="#A" x="201.008" y="630.117" style="fill:#193d6c;fill-opacity:1"/><use xlink:href="#x" x="212.205" y="630.117" style="fill:#193d6c;fill-opacity:1"/><use xlink:href="#C" x="217.083" y="630.117" style="fill:#193d6c;fill-opacity:1"/><use xlink:href="#o" x="221.961" y="630.117" style="fill:#193d6c;fill-opacity:1"/><use xlink:href="#w" x="232.962" y="630.117" style="fill:#193d6c;fill-opacity:1"/><use xlink:href="#o" x="243.042" y="630.117" style="fill:#193d6c;fill-opacity:1"/><use xlink:href="#v" x="254.043" y="630.117" style="fill:#193d6c;fill-opacity:1"/><use xlink:href="#A" x="265.388" y="630.117" style="fill:#193d6c;fill-opacity:1"/><use xlink:href="#m" x="276.223" y="630.117" style="fill:#193d6c;fill-opacity:1"/><use xlink:href="#x" x="290.888" y="630.117" style="fill:#193d6c;fill-opacity:1"/><use xlink:href="#p" x="295.766" y="630.117" style="fill:#193d6c;fill-opacity:1"/><use xlink:href="#P" x="311.08" y="630.117" style="fill:#193d6c;fill-opacity:1"/><use xlink:href="#O" x="317.931" y="630.117" style="fill:#193d6c;fill-opacity:1"/><use xlink:href="#A" x="329.545" y="630.117" style="fill:#193d6c;fill-opacity:1"/><use xlink:href="#J" x="340.735" y="630.117" style="fill:#193d6c;fill-opacity:1"/><use xlink:href="#O" x="357.938" y="630.117" style="fill:#193d6c;fill-opacity:1"/><use xlink:href="#l" x="369.551" y="630.117" style="fill:#193d6c;fill-opacity:1"/><use xlink:href="#o" x="376.427" y="630.117" style="fill:#193d6c;fill-opacity:1"/><use xlink:href="#q" x="387.429" y="630.117" style="fill:#193d6c;fill-opacity:1"/><use xlink:href="#l" x="398.784" y="630.117" style="fill:#193d6c;fill-opacity:1"/><use xlink:href="#r" x="405.838" y="630.117" style="fill:#193d6c;fill-opacity:1"/><use xlink:href="#u" x="416.246" y="630.117" style="fill:#193d6c;fill-opacity:1"/><use xlink:href="#Q" x="436.757" y="630.117" style="fill:#193d6c;fill-opacity:1"/><use xlink:href="#r" x="449.94" y="630.117" style="fill:#193d6c;fill-opacity:1"/><use xlink:href="#u" x="460.347" y="630.117" style="fill:#193d6c;fill-opacity:1"/><use xlink:href="#k" x="476.7" y="630.117" style="fill:#193d6c;fill-opacity:1"/><use xlink:href="#R" x="487.419" y="630.117" style="fill:#193d6c;fill-opacity:1"/><use xlink:href="#S" x="247.653" y="779.105" style="fill:#193d6c;fill-opacity:1"/><use xlink:href="#T" x="252.981" y="779.105" style="fill:#193d6c;fill-opacity:1"/><use xlink:href="#U" x="265.7" y="779.105" style="fill:#193d6c;fill-opacity:1"/><use xlink:href="#V" x="274.257" y="779.105" style="fill:#193d6c;fill-opacity:1"/><use xlink:href="#W" x="282.928" y="779.105" style="fill:#193d6c;fill-opacity:1"/><use xlink:href="#X" x="288.508" y="779.105" style="fill:#193d6c;fill-opacity:1"/><use xlink:href="#Y" x="297.217" y="779.105" style="fill:#193d6c;fill-opacity:1"/><use xlink:href="#Z" x="302.545" y="779.105" style="fill:#193d6c;fill-opacity:1"/><use xlink:href="#S" x="309.528" y="779.105" style="fill:#193d6c;fill-opacity:1"/><use xlink:href="#aa" x="314.856" y="779.105" style="fill:#193d6c;fill-opacity:1"/><use xlink:href="#ab" x="322.775" y="779.105" style="fill:#193d6c;fill-opacity:1"/><use xlink:href="#ac" x="331.11" y="779.105" style="fill:#193d6c;fill-opacity:1"/><use xlink:href="#ad" x="339.205" y="779.105" style="fill:#193d6c;fill-opacity:1"/><use xlink:href="#Y" x="344.906" y="779.105" style="fill:#193d6c;fill-opacity:1"/></svg>
