<svg xmlns="http://www.w3.org/2000/svg" xmlns:xlink="http://www.w3.org/1999/xlink" width="1122.52" height="37.795" viewBox="0 0 841.89 28.346"><defs><clipPath id="a"><path d="M18.664 0h804.348v27.082H18.664Zm0 0"/></clipPath><clipPath id="F"><path d="M747.45 21.504h1.917v2.726h-1.918Zm0 0"/></clipPath><clipPath id="G"><path d="M749.367 21.504H750v2.726h-.633Zm0 0"/></clipPath><clipPath id="H"><path d="M750.344 21.504H752v2.726h-1.656Zm0 0"/></clipPath><clipPath id="I"><path d="M751.324 21.504H754v2.726h-2.676Zm0 0"/></clipPath><clipPath id="J"><path d="M754.254 21.504H756v2.726h-1.746Zm0 0"/></clipPath><clipPath id="K"><path d="M756.21 21.504h.79v2.726h-.79Zm0 0"/></clipPath><clipPath id="L"><path d="M756.21 21.504H759v2.726h-2.79Zm0 0"/></clipPath><clipPath id="M"><path d="M759 21.504h2v2.726h-2Zm0 0"/></clipPath><clipPath id="N"><path d="M761.098 21.504H763v2.726h-1.902Zm0 0"/></clipPath><clipPath id="O"><path d="M763.05 21.504h2.934v2.726h-2.933Zm0 0"/></clipPath><clipPath id="P"><path d="M765.008 21.504h1.953v2.726h-1.953Zm0 0"/></clipPath><clipPath id="Q"><path d="M766 21.504h2.918v2.726H766Zm0 0"/></clipPath><clipPath id="R"><path d="M769 21.504h1.871v2.726H769Zm0 0"/></clipPath><clipPath id="S"><path d="M771 21.504h2.805v2.726H771Zm0 0"/></clipPath><clipPath id="T"><path d="M773.805 21.504H775v2.726h-1.195Zm0 0"/></clipPath><clipPath id="U"><path d="M774.781 21.504h2.934v2.726h-2.934Zm0 0"/></clipPath><clipPath id="V"><path d="M777 21.504h2.668v2.726H777Zm0 0"/></clipPath><clipPath id="W"><path d="M779.668 21.504h.977v2.726h-.977Zm0 0"/></clipPath><clipPath id="X"><path d="M780 21.504h2.602v2.726H780Zm0 0"/></clipPath><clipPath id="Y"><path d="M747.45 18.57H749V21h-1.55Zm0 0"/></clipPath><clipPath id="Z"><path d="M760 2.582h.121v.352H760Zm0 0"/></clipPath><clipPath id="aa"><path d="M760.121 2.582H761v.352h-.879Zm0 0"/></clipPath><clipPath id="ab"><path d="M761.098 2.582H762v.352h-.902Zm0 0"/></clipPath><clipPath id="ac"><path d="M762.074 2.582H763v.352h-.926Zm0 0"/></clipPath><clipPath id="ad"><path d="M763.05 2.582h.95v.352h-.95Zm0 0"/></clipPath><clipPath id="ae"><path d="M763.05 2.582H765v.352h-1.95Zm0 0"/></clipPath><clipPath id="af"><path d="M764.031 2.582H765v.352h-.969Zm0 0"/></clipPath><clipPath id="ag"><path d="M765.008 2.582h.976v.352h-.976Zm0 0"/></clipPath><clipPath id="ah"><path d="M766 2.582h.96v.352H766Zm0 0"/></clipPath><clipPath id="ai"><path d="M777 5.863h10.25v9.778H777Zm0 0"/></clipPath><clipPath id="aj"><path d="M747.45 5.863H757v9.778h-9.55Zm0 0"/></clipPath><path id="b" d="M2.11-.906 5.577-4.25C6.953-5.562 7.25-6.422 7.25-7.39c0-1.657-1.312-2.688-3.375-2.688-1.562 0-2.828.515-3.61 1.422L1-8.031c.672-.75 1.594-1.11 2.781-1.11 1.563 0 2.39.72 2.39 1.875 0 .688-.218 1.36-1.359 2.47L.563-.735V0H7.72v-.906Zm0 0"/><path id="c" d="M4.813.078C7.172.078 8.89-1.812 8.89-5c0-3.187-1.72-5.078-4.078-5.078C2.469-10.078.75-8.188.75-5S2.469.078 4.813.078m0-.937C3.047-.86 1.828-2.33 1.828-5s1.219-4.14 2.984-4.14c1.782 0 3 1.468 3 4.14s-1.218 4.14-3 4.14m0 0"/><path id="z" d="M2.75.078c1.953 0 2.969-1.031 2.969-3.156V-10H.938v.922h3.718v6.047c0 1.469-.64 2.203-1.89 2.203-.907 0-1.641-.422-2.203-1.235l-.641.72C.547-.423 1.609.077 2.75.077m0 0"/><path id="A" d="M4.578.078c2.234 0 3.875-1.61 3.875-3.828 0-2.234-1.64-3.812-3.875-3.812-2.25 0-3.906 1.578-3.906 3.812C.672-1.531 2.328.078 4.578.078m0-.906c-1.64 0-2.86-1.172-2.86-2.922 0-1.766 1.22-2.937 2.86-2.937 1.625 0 2.828 1.171 2.828 2.937C7.406-2 6.203-.828 4.578-.828m0 0"/><path id="B" d="M5.344-7.562c-1.297 0-2.297.5-2.875 1.359v-4.39H1.438V0h1.03v-3.937c0-1.72 1.048-2.72 2.688-2.72 1.453 0 2.297.813 2.297 2.407V0h1.031v-4.36c0-2.156-1.28-3.202-3.14-3.202m0 0"/><path id="C" d="M5.344-7.562c-1.328 0-2.36.515-2.907 1.437v-1.39h-1V0H2.47v-3.937c0-1.72 1.047-2.72 2.687-2.72 1.453 0 2.297.813 2.297 2.407V0h1.031v-4.36c0-2.156-1.28-3.202-3.14-3.202m0 0"/><path id="D" d="M1.656 0h4.157c3.265 0 5.453-2.062 5.453-5 0-2.937-2.188-5-5.453-5H1.656Zm1.078-.906v-8.172H5.75c2.703 0 4.453 1.687 4.453 4.078 0 2.406-1.75 4.094-4.453 4.094Zm0 0"/><path id="E" d="M8.125-3.75c0-2.266-1.562-3.812-3.719-3.812S.672-5.984.672-3.75C.672-1.531 2.297.078 4.688.078c1.203 0 2.265-.437 2.953-1.234l-.578-.657c-.579.657-1.407.985-2.344.985-1.672 0-2.89-1.047-3.016-2.61H8.11c0-.124.016-.234.016-.312M4.406-6.703c1.5 0 2.594 1.031 2.735 2.5H1.703c.125-1.469 1.219-2.5 2.703-2.5m0 0"/><path id="d" d="M5.375.078c2.422 0 3.89-1.437 3.89-4.219v-5.53h-.984v5.5c0 2.296-1.047 3.343-2.906 3.343-1.844 0-2.906-1.047-2.906-3.344v-5.5h-1v5.531c0 2.782 1.469 4.22 3.906 4.22m0 0"/><path id="e" d="M10.234-7.328c-1.28 0-2.296.594-2.812 1.531-.438-1.016-1.36-1.531-2.547-1.531s-2.11.516-2.61 1.375v-1.328h-.921V0h.968v-3.812c0-1.657.922-2.625 2.376-2.625 1.312 0 2.062.78 2.062 2.312V0h.969v-3.812c0-1.657.922-2.625 2.39-2.625 1.282 0 2.047.78 2.047 2.312V0h.953v-4.219c0-2.093-1.14-3.11-2.875-3.11m0 0"/><path id="f" d="M3.39 0h1v-8.797h3.344v-.875H.047v.875H3.39Zm0 0"/><path id="g" d="M.953-8.39h.953l2.188-1.72H2.812ZM1.343 0h.97v-7.281h-.97Zm0 0"/><path id="h" d="M4.766-1.14c-.282.234-.672.359-1.063.359-.797 0-1.234-.469-1.234-1.328v-4.328H4.64v-.844H2.469V-8.86H1.5v1.578H.234v.843H1.5v4.391c0 1.344.75 2.11 2.094 2.11.562 0 1.125-.157 1.5-.5Zm0 0"/><path id="i" d="M6.813-7.281v3.828c0 1.656-.938 2.64-2.438 2.64-1.344 0-2.14-.796-2.14-2.343v-4.125H1.28v4.219c0 2.093 1.188 3.125 3 3.125 1.14 0 2.063-.5 2.563-1.391V0h.922v-7.281Zm0 0"/><path id="j" d="M1.344 0h.968v-10.266h-.968Zm0 0"/><path id="k" d="M4.266.063c2.078 0 3.609-1.547 3.609-3.704s-1.531-3.687-3.61-3.687c-2.093 0-3.64 1.531-3.64 3.687 0 2.157 1.547 3.704 3.64 3.704m0-.86c-1.532 0-2.672-1.14-2.672-2.844s1.14-2.828 2.672-2.828c1.515 0 2.64 1.125 2.64 2.828 0 1.704-1.125 2.844-2.64 2.844m0 0"/><path id="l" d="M6.89-10.266v4.375c-.593-.937-1.577-1.437-2.718-1.437-2.031 0-3.547 1.5-3.547 3.687C.625-1.437 2.141.063 4.172.063c1.187 0 2.172-.516 2.766-1.5V0h.921v-10.266ZM4.267-.796c-1.532 0-2.672-1.141-2.672-2.845 0-1.703 1.14-2.828 2.672-2.828 1.5 0 2.64 1.125 2.64 2.828 0 1.704-1.14 2.844-2.64 2.844m0 0"/><path id="m" d="M7.563-3.64c0-2.188-1.454-3.688-3.454-3.688S.625-5.797.625-3.641C.625-1.484 2.141.063 4.359.063c1.141 0 2.125-.407 2.766-1.188l-.547-.625c-.547.625-1.312.953-2.187.953-1.563 0-2.703-1.015-2.797-2.531h5.953c0-.11.016-.219.016-.313M4.108-6.485c1.391 0 2.422 1 2.532 2.422H1.594c.11-1.422 1.125-2.422 2.515-2.422m0 0"/><path id="n" d="M3.25.063C5.11.063 6.203-.75 6.203-2c0-2.797-4.625-1.312-4.625-3.281 0-.688.563-1.203 1.86-1.203.718 0 1.468.172 2.093.625l.422-.797c-.594-.407-1.594-.672-2.516-.672C1.61-7.328.61-6.438.61-5.25c0 2.875 4.625 1.375 4.625 3.266 0 .718-.562 1.203-1.906 1.203-1.015 0-1.969-.36-2.547-.828L.36-.83c.579.517 1.72.892 2.891.892m0 0"/><path id="o" d="M1.547 0h6.312v-.89H2.547v-8.782h-1Zm0 0"/><path id="p" d="M4.984-7.328c-1.234 0-2.203.516-2.718 1.39V-7.28h-.922V0h.968v-3.812c0-1.657.954-2.625 2.485-2.625 1.36 0 2.14.78 2.14 2.312V0h.97v-4.219c0-2.093-1.188-3.11-2.923-3.11m0 0"/><path id="q" d="M7.031-7.281v1.406c-.61-.953-1.64-1.453-2.828-1.453-2.031 0-3.578 1.422-3.578 3.516 0 2.078 1.547 3.53 3.578 3.53 1.172 0 2.188-.484 2.781-1.405v.921c0 1.797-.828 2.641-2.625 2.641-1.109 0-2.14-.375-2.812-.984l-.484.734c.734.719 2.015 1.125 3.312 1.125 2.36 0 3.578-1.125 3.578-3.64v-6.391Zm-2.734 6.14c-1.578 0-2.703-1.093-2.703-2.671 0-1.579 1.125-2.657 2.703-2.657S7.016-5.39 7.016-3.812s-1.141 2.671-2.72 2.671m0 0"/><path id="r" d="M4.297.063C5.5.063 6.53-.422 7.094-1.375l-.719-.484c-.484.718-1.25 1.062-2.078 1.062-1.563 0-2.703-1.125-2.703-2.844 0-1.703 1.14-2.828 2.703-2.828.828 0 1.594.344 2.078 1.078l.719-.5C6.53-6.844 5.5-7.328 4.297-7.328 2.172-7.328.625-5.812.625-3.641.625-1.469 2.172.063 4.297.063m0 0"/><path id="s" d="M3.844-7.328c-1.125 0-2.188.36-2.906.984l.437.735c.578-.532 1.453-.86 2.375-.86 1.328 0 2.016.672 2.016 1.922v.438H3.5c-2.047 0-2.75.937-2.75 2.062 0 1.266.984 2.11 2.594 2.11 1.187 0 2.031-.454 2.469-1.204V0h.921v-4.516c0-1.875-1.046-2.812-2.89-2.812M3.5-.703c-1.14 0-1.812-.531-1.812-1.375 0-.75.453-1.297 1.843-1.297h2.235v1.188C5.39-1.235 4.578-.703 3.5-.703m0 0"/><path id="t" d="M10.578-9.672 6.5-2.5 2.375-9.672h-.828V0h.969v-7.703l3.718 6.469h.485l3.718-6.516V0h.97v-9.672Zm0 0"/><path id="u" d="M4.297-.797c-1.563 0-2.703-1.125-2.703-2.844 0-1.703 1.14-2.828 2.703-2.828.828 0 1.594.344 2.078 1.078l.719-.5C6.53-6.844 5.5-7.328 4.297-7.328 2.172-7.328.625-5.812.625-3.641c0 1.97 1.266 3.407 3.078 3.672l-.297 1.14h.313c.562 0 .844.266.844.642 0 .406-.297.656-.844.656-.328 0-.625-.094-.89-.266l-.235.516c.328.234.687.328 1.14.328.907 0 1.532-.469 1.532-1.203 0-.61-.407-1.063-1.157-1.125l.157-.656h.03c1.204 0 2.235-.485 2.798-1.438l-.719-.484c-.484.718-1.25 1.062-2.078 1.062m0 0"/><path id="v" d="M1.828-8.86a.704.704 0 0 0 .703-.718.697.697 0 0 0-.703-.688.71.71 0 0 0-.703.704.71.71 0 0 0 .703.703M1.344 0h.968v-7.281h-.968Zm0 0"/><path id="w" d="M4.984-7.328c-1.218 0-2.156.484-2.671 1.328v-4.266h-.97V0h.97v-3.812c0-1.657.953-2.625 2.484-2.625 1.36 0 2.14.78 2.14 2.312V0h.97v-4.219c0-2.093-1.188-3.11-2.923-3.11m0 0"/><path id="x" d="M8.063-8.797v-.875H1.547V0h1v-4.11h4.906v-.874H2.547v-3.813Zm0 0"/><path id="y" d="M2.266-5.844V-7.28h-.922V0h.968v-3.703c0-1.719.907-2.688 2.391-2.688.078 0 .156.016.234.016v-.953c-1.312 0-2.218.516-2.671 1.484m0 0"/></defs><g clip-path="url(#a)"><path fill="#fff" d="M18.664 0h804.348v27.082H18.664Zm0 0"/></g><use xlink:href="#b" x="33.793" y="19.087"/><use xlink:href="#c" x="42.064" y="19.087"/><use xlink:href="#c" x="51.705" y="19.087"/><use xlink:href="#c" x="61.346" y="19.087"/><use xlink:href="#d" x="86.338" y="17.724"/><use xlink:href="#e" x="97.084" y="17.724"/><use xlink:href="#f" x="116.08" y="17.724"/><use xlink:href="#g" x="123.692" y="17.724"/><use xlink:href="#h" x="127.342" y="17.724"/><use xlink:href="#i" x="132.851" y="17.724"/><use xlink:href="#j" x="141.983" y="17.724"/><use xlink:href="#k" x="145.633" y="17.724"/><use xlink:href="#l" x="158.726" y="17.724"/><use xlink:href="#m" x="167.926" y="17.724"/><use xlink:href="#f" x="180.734" y="17.724"/><use xlink:href="#m" x="187.763" y="17.724"/><use xlink:href="#n" x="195.958" y="17.724"/><use xlink:href="#m" x="202.593" y="17.724"/><use xlink:href="#o" x="215.389" y="17.724"/><use xlink:href="#k" x="223.272" y="17.724"/><use xlink:href="#p" x="231.779" y="17.724"/><use xlink:href="#q" x="240.965" y="17.724"/><use xlink:href="#k" x="250.273" y="17.724"/><use xlink:href="#m" x="263.381" y="17.724"/><use xlink:href="#r" x="276.189" y="17.724"/><use xlink:href="#k" x="283.72" y="17.724"/><use xlink:href="#e" x="292.227" y="17.724"/><use xlink:href="#i" x="311.21" y="17.724"/><use xlink:href="#e" x="320.341" y="17.724"/><use xlink:href="#s" x="334.738" y="17.724"/><use xlink:href="#t" x="347.356" y="17.724"/><use xlink:href="#i" x="360.314" y="17.724"/><use xlink:href="#l" x="369.446" y="17.724"/><use xlink:href="#s" x="378.646" y="17.724"/><use xlink:href="#p" x="386.651" y="17.724"/><use xlink:href="#u" x="395.837" y="17.724"/><use xlink:href="#s" x="403.476" y="17.724"/><use xlink:href="#l" x="416.095" y="17.724"/><use xlink:href="#m" x="425.294" y="17.724"/><use xlink:href="#o" x="438.103" y="17.724"/><use xlink:href="#v" x="446.095" y="17.724"/><use xlink:href="#p" x="449.745" y="17.724"/><use xlink:href="#w" x="458.931" y="17.724"/><use xlink:href="#s" x="468.117" y="17.724"/><use xlink:href="#x" x="480.722" y="17.724"/><use xlink:href="#k" x="489.08" y="17.724"/><use xlink:href="#y" x="497.588" y="17.724"/><use xlink:href="#u" x="502.839" y="17.724"/><use xlink:href="#s" x="510.478" y="17.724"/><use xlink:href="#l" x="518.483" y="17.724"/><use xlink:href="#s" x="527.683" y="17.724"/><use xlink:href="#z" x="581.612" y="19.087"/><use xlink:href="#A" x="588.908" y="19.087"/><use xlink:href="#B" x="598.04" y="19.087"/><use xlink:href="#C" x="607.899" y="19.087"/><use xlink:href="#D" x="622.506" y="19.087"/><use xlink:href="#A" x="634.535" y="19.087"/><use xlink:href="#E" x="643.666" y="19.087"/><path fill="#231f20" d="M752.441 20.176a1.199 1.199 0 0 1-.281.188.8.8 0 0 1-.289.05.74.74 0 0 1-.543-.223.78.78 0 0 1-.223-.562.8.8 0 0 1 .223-.567.73.73 0 0 1 .543-.23q.294-.001.57.227v-.372a1.05 1.05 0 0 0-.546-.152q-.521-.002-.848.383c-.176.21-.262.445-.262.715 0 .297.106.555.317.765.214.207.468.317.765.317.203 0 .395-.055.574-.152ZM754.398 18.57h-.32v1.27q.001.276-.086.394a.43.43 0 0 1-.375.18.44.44 0 0 1-.37-.18q-.089-.123-.087-.394v-1.27h-.316v1.356q-.001.334.203.547.232.241.57.242a.767.767 0 0 0 .781-.79ZM754.898 18.57v2.106h.938v-.297h-.621V18.57ZM756.453 18.875h.145c.27 0 .476.059.613.188q.232.21.23.562-.001.343-.23.559a.8.8 0 0 1-.258.148q-.14.047-.355.047h-.145Zm.613 1.742a1 1 0 0 0 .356-.21.99.99 0 0 0 .344-.782c0-.324-.114-.586-.332-.781a.95.95 0 0 0-.352-.207 1.6 1.6 0 0 0-.504-.067h-.441v2.106h.437q.317 0 .492-.059M758.852 19.152l.308.715h-.637Zm-.457 1.012h.894l.223.512h.347l-1.004-2.235-1.039 2.235h.34ZM761.191 20.184a.7.7 0 0 1-.254.148q-.139.047-.355.047h-.14v-1.504h.14c.27 0 .477.059.613.188.153.14.235.328.235.562q-.002.343-.239.559m.23-1.34a1 1 0 0 0-.355-.207 1.6 1.6 0 0 0-.504-.067h-.437v2.106h.434q.322 0 .492-.059a1 1 0 0 0 .36-.21c.226-.196.335-.462.335-.782 0-.324-.105-.586-.324-.781M762.148 20.676h1.16v-.297h-.843v-.703h.816v-.301h-.816v-.5h.844v-.305h-1.16ZM764.898 18.875h.145c.27 0 .477.059.613.188.157.14.23.328.23.562q0 .343-.23.559a.8.8 0 0 1-.258.148q-.139.047-.355.047h-.145Zm.618 1.742q.18-.06.355-.21a1 1 0 0 0 .34-.782 1.01 1.01 0 0 0-.328-.781 1 1 0 0 0-.356-.207 1.6 1.6 0 0 0-.5-.067h-.445v2.106h.438q.315 0 .496-.059M767.766 20.379h-.844v-.703h.82v-.301h-.82v-.5h.844v-.305h-1.16v2.106h1.16Zm0 0"/><g clip-path="url(#F)"><path fill="#231f20" d="M747.8 22.34a1.08 1.08 0 0 0-.26.719q0 .444.315.761.322.315.766.313c.203 0 .395-.047.574-.153v-.378q-.074.06-.144.109c-.051.031-.094.059-.137.074a.7.7 0 0 1-.285.055.72.72 0 0 1-.547-.23.76.76 0 0 1-.223-.555q0-.339.223-.567a.72.72 0 0 1 .543-.23c.2 0 .387.074.57.226v-.379a1.1 1.1 0 0 0-.547-.152c-.347 0-.625.133-.847.387"/></g><g clip-path="url(#G)"><path fill="#231f20" fill-rule="evenodd" d="M749.598 21.996h.316v2.102h-.316Zm0 0"/></g><g clip-path="url(#H)"><path fill="#231f20" d="M750.418 24.098h1.16V23.8h-.844v-.703h.82v-.301h-.82v-.504h.844v-.297h-1.16Zm0 0"/></g><path fill="#231f20" d="m750.996 21.55.277.255.211-.16-.488-.438-.476.438.207.16Zm0 0"/><g clip-path="url(#I)"><path fill="#231f20" d="m753.531 23.453-1.535-1.601v2.246h.317v-1.473l1.535 1.602v-2.23h-.317Zm0 0"/></g><g clip-path="url(#J)"><path fill="#231f20" d="M754.531 22.34c-.18.21-.27.445-.27.719 0 .296.11.55.317.761.215.211.469.313.774.313.199 0 .39-.047.566-.153v-.378q-.073.06-.145.109a.6.6 0 0 1-.136.074.7.7 0 0 1-.282.055.73.73 0 0 1-.55-.23.76.76 0 0 1-.223-.555q0-.339.223-.567a.72.72 0 0 1 .547-.23q.297-.001.566.226v-.379a1.1 1.1 0 0 0-.543-.152c-.348 0-.629.133-.844.387"/></g><g clip-path="url(#K)"><path fill="#231f20" fill-rule="evenodd" d="M756.32 21.996h.317v2.102h-.317Zm0 0"/></g><g clip-path="url(#L)"><path fill="#231f20" d="m757.613 23.29.324-.716.313.715Zm-.71.808h.343l.23-.508h.903l.223.508h.343l-1.004-2.235Zm0 0"/></g><g clip-path="url(#M)"><path fill="#231f20" d="m759.96 22.848-.21-.082q-.229-.1-.23-.25c0-.078.027-.137.09-.188a.3.3 0 0 1 .214-.07c.074 0 .133.008.176.039q.065.04.14.164l.255-.152c-.133-.235-.325-.356-.567-.356a.65.65 0 0 0-.45.16.52.52 0 0 0-.183.399q.001.352.43.535l.207.082q.077.034.137.074.053.036.093.078a.2.2 0 0 1 .051.094q.019.05.02.113a.35.35 0 0 1-.102.254.33.33 0 0 1-.242.098c-.129 0-.223-.043-.289-.137-.04-.047-.059-.133-.074-.258l-.32.07c.023.2.101.352.214.458q.182.162.457.16a.65.65 0 0 0 .48-.188.65.65 0 0 0 .196-.48.56.56 0 0 0-.121-.363q-.118-.151-.371-.254"/></g><g clip-path="url(#N)"><path fill="#231f20" d="M761.691 24.098h1.16V23.8h-.84v-.703h.817v-.301h-.816v-.504h.84v-.297h-1.16Zm0 0"/></g><g clip-path="url(#O)"><path fill="#231f20" d="M763.91 22.293h.48v1.805h.317v-1.805h.484v-.297h-1.28Zm0 0"/></g><g clip-path="url(#P)"><path fill="#231f20" d="M765.477 24.098h1.156V23.8h-.84v-.703h.816v-.301h-.816v-.504h.84v-.297h-1.156Zm0 0"/></g><g clip-path="url(#Q)"><path fill="#231f20" d="M767.21 22.34c-.175.21-.265.445-.265.719 0 .296.11.55.32.761q.32.315.766.313c.203 0 .395-.047.574-.153v-.378q-.075.06-.152.109a.687.687 0 0 1-.418.129.72.72 0 0 1-.547-.23.76.76 0 0 1-.222-.555q0-.339.222-.567a.72.72 0 0 1 .547-.23q.294-.001.57.226v-.379a1.13 1.13 0 0 0-.546-.152 1.07 1.07 0 0 0-.848.387"/></g><g clip-path="url(#R)"><path fill="#231f20" d="m770.535 23.453-1.531-1.601v2.246h.316v-1.473l1.532 1.602v-2.23h-.317Zm0 0"/></g><g clip-path="url(#S)"><path fill="#231f20" d="M772.922 23.61a.74.74 0 0 1-.559.23.74.74 0 0 1-.535-.227.74.74 0 0 1-.234-.57c0-.223.07-.41.226-.559a.74.74 0 0 1 .551-.226q.33-.001.555.226a.77.77 0 0 1 .226.563.77.77 0 0 1-.23.562m-.547-1.652q-.45 0-.777.316a1.03 1.03 0 0 0-.325.766q0 .503.356.816.324.28.73.278c.309 0 .57-.102.786-.317q.323-.314.324-.765c0-.301-.11-.559-.32-.774a1.07 1.07 0 0 0-.774-.32"/></g><g clip-path="url(#T)"><path fill="#231f20" d="M774.188 21.996h-.32v2.102h.937V23.8h-.617Zm0 0"/></g><g clip-path="url(#U)"><path fill="#231f20" d="M776.563 23.61a.74.74 0 0 1-.56.23.73.73 0 0 1-.534-.227.76.76 0 0 1-.239-.57c0-.223.079-.41.227-.559a.75.75 0 0 1 .559-.226q.322-.001.547.226a.75.75 0 0 1 .226.563.77.77 0 0 1-.226.562m-.543-1.652a1.07 1.07 0 0 0-.782.316 1.05 1.05 0 0 0-.324.766q.002.503.356.816.32.28.73.278c.309 0 .566-.102.785-.317.219-.21.324-.464.324-.765s-.105-.559-.324-.774a1.06 1.06 0 0 0-.765-.32"/></g><g clip-path="url(#V)"><path fill="#231f20" d="M778.59 23.3h.527a.57.57 0 0 1-.21.384.64.64 0 0 1-.423.156.74.74 0 0 1-.511-.211.75.75 0 0 1-.25-.578.76.76 0 0 1 .226-.567.75.75 0 0 1 .559-.226q.37 0 .629.34l.226-.215a1.2 1.2 0 0 0-.402-.324 1 1 0 0 0-.457-.106c-.305 0-.567.11-.777.32q-.321.322-.32.778c0 .297.1.55.312.765q.312.321.754.32.451.001.746-.331a.9.9 0 0 0 .183-.313c.04-.12.055-.262.055-.418v-.07h-.867Zm0 0"/></g><g clip-path="url(#W)"><path fill="#231f20" fill-rule="evenodd" d="M779.855 21.996h.317v2.102h-.317Zm0 0"/></g><g clip-path="url(#X)"><path fill="#231f20" d="m781.145 23.29.332-.716.308.715Zm-.704.808h.34l.23-.508h.903l.219.508h.351l-1.004-2.235Zm0 0"/></g><g clip-path="url(#Y)"><path fill="#231f20" d="M748.691 18.875v-.305h-1.05v2.106h.32v-1h.707v-.301h-.707v-.5Zm0 0"/></g><path fill="#231f20" d="m749.387 19.867.328-.715.312.715Zm.332-1.426-1.04 2.235h.344l.235-.512h.902l.215.512h.348Zm0 0"/><g clip-path="url(#Z)"><path fill="#0071bb" d="M760.07 2.695a.027.027 0 0 0 .028-.027.027.027 0 0 0-.028-.027.027.027 0 0 0-.027.027c0 .016.012.027.027.027"/></g><g clip-path="url(#aa)"><path fill="#0071bb" d="M760.855 2.723c.028 0 .051-.024.051-.055 0-.027-.023-.047-.05-.047s-.051.02-.051.047c0 .031.023.055.05.055"/></g><g clip-path="url(#ab)"><path fill="#0071bb" d="M761.64 2.746c.04 0 .075-.035.075-.078 0-.04-.035-.07-.074-.07-.04 0-.075.03-.075.07 0 .043.036.078.075.078"/></g><g clip-path="url(#ac)"><path fill="#0071bb" d="M762.426 2.754c.047 0 .082-.04.082-.086a.08.08 0 0 0-.082-.078c-.047 0-.086.035-.086.078 0 .047.039.086.086.086"/></g><g clip-path="url(#ad)"><path fill="#0071bb" d="M763.21 2.758a.09.09 0 0 0 .09-.09c0-.043-.042-.086-.09-.086a.09.09 0 0 0-.085.086c0 .05.04.09.086.09"/></g><g clip-path="url(#ae)"><path fill="#0071bb" d="M764 2.75a.08.08 0 0 0 .078-.082.08.08 0 0 0-.078-.078c-.047 0-.086.039-.086.078 0 .047.04.082.086.082"/></g><g clip-path="url(#af)"><path fill="#0071bb" d="M764.781 2.734c.04 0 .067-.027.067-.066 0-.035-.028-.063-.067-.063-.035 0-.066.028-.066.063 0 .039.031.066.066.066"/></g><g clip-path="url(#ag)"><path fill="#0071bb" d="M765.566 2.715c.024 0 .043-.02.043-.047 0-.023-.02-.04-.043-.04a.04.04 0 0 0-.039.04c0 .027.02.047.04.047"/></g><g clip-path="url(#ah)"><path fill="#0071bb" d="M766.355 2.684a.02.02 0 0 0 .016-.016.02.02 0 0 0-.016-.016.02.02 0 0 0-.015.016c0 .008.008.016.015.016"/></g><path fill="#0071bb" d="M758.496 3.48a.025.025 0 0 0 .024-.023.025.025 0 0 0-.024-.023c-.012 0-.02.011-.02.023s.008.023.02.023M759.285 3.52a.07.07 0 0 0 .063-.063c0-.035-.032-.066-.063-.066a.07.07 0 0 0-.066.066c0 .031.031.063.066.063M760.07 3.555a.097.097 0 0 0 .098-.098.1.1 0 0 0-.098-.102c-.058 0-.097.047-.097.102s.039.098.097.098M760.855 3.586c.07 0 .133-.059.133-.129a.134.134 0 0 0-.133-.133.134.134 0 0 0-.132.133c0 .07.062.129.132.129M761.64 3.61c.083 0 .153-.07.153-.153a.153.153 0 0 0-.152-.152.153.153 0 0 0-.157.152c0 .082.07.152.157.152M762.426 3.617c.086 0 .16-.074.16-.16a.16.16 0 0 0-.16-.16.16.16 0 0 0-.16.16c0 .086.074.16.16.16M763.21 3.621a.163.163 0 0 0 .165-.164.16.16 0 0 0-.164-.164c-.09 0-.168.07-.168.164 0 .09.078.164.168.164M764 3.617a.16.16 0 0 0 .156-.16.158.158 0 1 0-.316 0c0 .086.07.16.16.16M764.781 3.602a.15.15 0 0 0 .149-.145.145.145 0 0 0-.149-.144.144.144 0 1 0 0 .289M765.566 3.578c.07 0 .125-.055.125-.121a.123.123 0 0 0-.125-.125.123.123 0 0 0-.12.125c0 .066.054.121.12.121M766.355 3.547a.09.09 0 0 0 .09-.09c0-.05-.039-.094-.09-.094a.095.095 0 0 0-.093.094c0 .047.043.09.093.09M767.14 3.508c.028 0 .051-.024.051-.051 0-.031-.023-.055-.05-.055a.053.053 0 0 0-.055.055c0 .027.023.05.055.05M767.922 3.46q.007 0 .008-.003-.001-.005-.008-.004s-.004 0-.004.004.004.004.004.004M757.71 4.277c.024 0 .04-.015.04-.035 0-.023-.016-.039-.04-.039-.019 0-.034.016-.034.04 0 .019.015.034.035.034M758.496 4.336c.05 0 .094-.043.094-.094a.095.095 0 0 0-.094-.094c-.05 0-.09.043-.09.094s.04.094.09.094M759.285 4.375a.13.13 0 0 0 .133-.133.133.133 0 0 0-.133-.137.134.134 0 0 0-.137.137c0 .074.059.133.137.133M760.07 4.414a.174.174 0 0 0 0-.348.18.18 0 0 0-.175.176c0 .098.082.172.175.172M760.855 4.445a.204.204 0 0 0 .204-.203.2.2 0 0 0-.204-.203.205.205 0 0 0-.207.203c0 .11.094.203.207.203M761.64 4.469a.226.226 0 0 0 .223-.227.223.223 0 0 0-.222-.226.223.223 0 0 0-.223.226c0 .121.098.227.223.227M762.426 4.48c.129 0 .238-.109.238-.238a.24.24 0 0 0-.238-.238.24.24 0 0 0-.239.238c0 .13.11.238.239.238M763.21 4.484a.246.246 0 0 0 .243-.242.24.24 0 1 0-.48 0c0 .13.105.242.238.242M764 4.477a.234.234 0 0 0 0-.47.233.233 0 0 0-.234.235c0 .13.101.235.234.235M764.781 4.46a.218.218 0 1 0 0-.438.218.218 0 0 0 0 .439M765.566 4.438c.11 0 .196-.09.196-.196a.193.193 0 1 0-.387 0c0 .106.086.196.191.196M766.355 4.402a.16.16 0 0 0 .16-.16.16.16 0 0 0-.16-.16c-.09 0-.16.066-.16.16 0 .09.07.16.16.16M767.14 4.363c.067 0 .126-.058.126-.12a.123.123 0 0 0-.125-.122c-.07 0-.121.05-.121.121 0 .063.05.121.12.121M767.922 4.316c.043 0 .078-.03.078-.074a.08.08 0 0 0-.078-.078c-.035 0-.07.035-.07.078s.035.074.07.074M768.71 4.262q.02-.001.02-.02t-.02-.02q-.017.001-.019.02.001.019.02.02M756.926 5.063c.02 0 .035-.016.035-.036 0-.023-.016-.039-.035-.039s-.035.016-.035.04c0 .019.015.035.035.035M757.71 5.129a.1.1 0 0 0 .102-.102.1.1 0 0 0-.101-.101.1.1 0 0 0-.098.101.1.1 0 0 0 .098.102M758.496 5.18c.09 0 .156-.067.156-.153a.154.154 0 1 0-.308 0c0 .086.07.153.152.153M759.285 5.227c.11 0 .195-.086.195-.2a.198.198 0 1 0-.395 0c0 .114.087.2.2.2M760.07 5.266c.13 0 .239-.11.239-.239a.24.24 0 0 0-.48 0c0 .13.108.239.241.239M760.855 5.297c.145 0 .27-.125.27-.27a.273.273 0 0 0-.27-.27.27.27 0 0 0-.27.27c0 .145.122.27.27.27M761.64 5.316a.288.288 0 1 0 .001-.58.288.288 0 0 0 0 .58M762.426 5.328a.3.3 0 0 0 .3-.3.3.3 0 0 0-.3-.305c-.168 0-.301.136-.301.304a.3.3 0 0 0 .3.301M763.21 5.328a.305.305 0 0 0 .31-.3.306.306 0 0 0-.31-.305.303.303 0 1 0 0 .605M764 5.324a.297.297 0 0 0 .297-.297c0-.168-.133-.3-.297-.3a.3.3 0 0 0-.305.3c0 .164.137.297.305.297M764.781 5.313a.287.287 0 0 0 .285-.286.287.287 0 0 0-.285-.285.283.283 0 0 0-.281.285c0 .157.125.285.281.285M765.566 5.285a.258.258 0 1 0 0-.515.258.258 0 1 0 0 .515M766.355 5.254a.223.223 0 0 0 .223-.227.223.223 0 0 0-.223-.226.23.23 0 0 0-.23.226.23.23 0 0 0 .23.227M767.14 5.207c.102 0 .18-.078.18-.18a.18.18 0 0 0-.18-.183.183.183 0 0 0-.183.183c0 .102.082.18.184.18M767.922 5.16c.078 0 .14-.058.14-.133a.14.14 0 0 0-.14-.136.14.14 0 0 0-.133.136c0 .075.063.133.133.133M768.71 5.11c.048 0 .08-.04.08-.083s-.032-.082-.08-.082a.085.085 0 0 0-.081.082c0 .043.039.082.082.082M769.496 5.043a.02.02 0 0 0 .016-.016q-.002-.016-.016-.015-.014 0-.016.015c0 .008.008.016.016.016M756.14 5.793c-.011 0-.023.008-.023.02 0 .011.012.023.024.023a.025.025 0 0 0 .023-.024c0-.011-.012-.019-.023-.019M756.926 5.902c.05 0 .094-.039.094-.09a.095.095 0 0 0-.094-.093c-.051 0-.09.043-.09.093s.039.09.09.09M757.71 5.969c.087 0 .157-.07.157-.157a.153.153 0 0 0-.156-.152.15.15 0 0 0-.152.152c0 .086.066.157.152.157M758.496 6.02a.207.207 0 1 0 0-.415.21.21 0 0 0-.21.207.21.21 0 0 0 .21.208M759.285 6.07c.14 0 .254-.113.254-.258a.257.257 0 0 0-.254-.257.26.26 0 0 0-.258.258c0 .144.114.257.258.257M760.07 6.11a.293.293 0 0 0 .293-.298.29.29 0 0 0-.293-.292.293.293 0 0 0-.297.293c0 .164.133.296.297.296M760.855 6.137a.326.326 0 0 0 .325-.324.323.323 0 1 0-.324.324M761.64 6.164a.35.35 0 1 0 .004-.7.35.35 0 0 0-.003.7M762.426 6.172c.199 0 .363-.16.363-.36s-.164-.359-.363-.359c-.2 0-.364.16-.364.36s.165.359.364.359M763.21 6.176a.366.366 0 1 0 0-.73.37.37 0 0 0-.366.367c0 .199.168.363.367.363M764 6.168c.195 0 .355-.16.355-.356a.357.357 0 0 0-.714 0c0 .196.16.356.359.356M764.781 6.156a.344.344 0 0 0 0-.687.347.347 0 0 0-.343.344c0 .19.156.343.343.343M765.566 6.133a.318.318 0 0 0 0-.637.318.318 0 0 0 0 .637M766.355 6.094a.283.283 0 0 0 0-.566.287.287 0 0 0-.285.284c0 .157.13.282.285.282M767.14 6.055c.133 0 .243-.11.243-.242a.243.243 0 0 0-.242-.243.243.243 0 0 0-.243.242c0 .133.11.243.243.243M767.922 6.004a.19.19 0 0 0 .191-.191.186.186 0 0 0-.191-.188.184.184 0 0 0-.184.188c0 .105.082.19.184.19M768.656 5.93h.11a.13.13 0 0 0 .074-.117.13.13 0 0 0-.13-.133.13.13 0 0 0-.128.133c0 .05.031.097.074.117M769.496 5.883c.04 0 .07-.035.07-.07a.07.07 0 0 0-.07-.07c-.035 0-.066.03-.066.07 0 .035.03.07.066.07M756.926 6.73a.133.133 0 0 0 .136-.132.14.14 0 0 0-.136-.133.14.14 0 0 0-.137.133c0 .078.063.132.137.132M757.71 6.8c.11 0 .204-.093.204-.202s-.094-.2-.203-.2a.2.2 0 0 0-.2.2c0 .109.09.203.2.203M758.496 6.855c.14 0 .262-.117.262-.257a.264.264 0 0 0-.262-.258.257.257 0 0 0-.254.258c0 .14.113.257.254.257M759.285 6.902a.31.31 0 0 0 .305-.304.31.31 0 0 0-.305-.305.31.31 0 0 0-.308.305c0 .168.14.304.308.304M760.07 6.945a.345.345 0 0 0 .344-.347.345.345 0 1 0-.691 0c0 .191.156.347.347.347M765.566 6.965a.367.367 0 1 0 0-.735c-.199 0-.363.165-.363.368s.164.367.363.367M766.355 6.93a.332.332 0 1 0 .001-.664.332.332 0 0 0 0 .664M767.14 6.883c.157 0 .29-.125.29-.285a.29.29 0 0 0-.29-.285.285.285 0 1 0 0 .57M767.922 6.84a.24.24 0 0 0 .242-.242.24.24 0 0 0-.242-.243.24.24 0 0 0-.235.243.24.24 0 0 0 .235.242M768.71 6.777c.09 0 .169-.07.18-.156l-.07-.164a.16.16 0 0 0-.11-.039.18.18 0 0 0-.179.18c0 .101.082.18.18.18M756.926 7.555a.17.17 0 0 0 .172-.172.174.174 0 0 0-.172-.176.174.174 0 0 0-.172.176c0 .097.074.172.172.172M757.71 7.625a.24.24 0 0 0 .24-.242.237.237 0 0 0-.24-.238.24.24 0 0 0-.237.238c0 .133.109.242.238.242M758.496 7.68c.164 0 .3-.13.3-.297a.3.3 0 0 0-.3-.297.293.293 0 0 0-.293.297c0 .168.129.297.293.297M759.285 7.73a.348.348 0 0 0 0-.695.348.348 0 0 0 0 .695M767.14 7.719a.334.334 0 0 0 0-.668.33.33 0 0 0-.331.332c0 .183.148.336.332.336M767.922 7.66a.28.28 0 0 0 .281-.277.28.28 0 0 0-.281-.278.275.275 0 0 0-.274.278c0 .152.122.277.274.277M768.71 7.602a.22.22 0 0 0 .22-.22.215.215 0 0 0-.22-.214.22.22 0 0 0-.218.215.22.22 0 0 0 .219.219M756.926 8.371a.2.2 0 0 0 .203-.2.2.2 0 0 0-.203-.202c-.114 0-.2.086-.2.203 0 .11.087.2.2.2M757.71 8.438a.27.27 0 0 0 .27-.266.273.273 0 0 0-.27-.274.276.276 0 0 0-.269.274c0 .144.125.265.27.265M758.496 8.496a.323.323 0 1 0 0-.648.323.323 0 1 0 0 .648M767.14 8.531a.36.36 0 1 0-.002-.722.36.36 0 0 0 .003.722M767.922 8.477a.31.31 0 0 0 .312-.305.31.31 0 0 0-.312-.309.306.306 0 0 0-.305.309c0 .168.137.305.305.305M768.71 8.418a.248.248 0 0 0 0-.496.25.25 0 0 0-.25.25c0 .137.114.246.25.246M769.496 8.352c.04 0 .078-.016.11-.036l-.141-.324a.181.181 0 0 0 .031.36M756.926 9.18a.223.223 0 0 0 .222-.227.22.22 0 0 0-.222-.219.22.22 0 0 0-.223.22c0 .124.098.226.223.226M757.71 9.242a.288.288 0 1 0 0-.574.29.29 0 0 0-.288.285c0 .16.133.29.289.29M758.496 9.305a.35.35 0 1 0 .003-.7.35.35 0 0 0-.003.7M767.922 9.285a.33.33 0 0 0 .332-.332.33.33 0 1 0-.332.332M768.71 9.227a.27.27 0 0 0 0-.54.27.27 0 0 0 0 .54M769.496 9.156a.2.2 0 0 0 .2-.203c0-.11-.087-.2-.2-.2-.11 0-.203.09-.203.2s.094.203.203.203M756.926 9.977a.236.236 0 1 0 0-.473.233.233 0 0 0-.235.238c0 .13.102.235.235.235M757.71 10.043a.303.303 0 1 0 .004-.606.303.303 0 0 0-.003.606M758.496 10.102a.362.362 0 1 0 .003-.724.362.362 0 0 0-.003.724M767.922 10.082a.344.344 0 0 0 .348-.34.35.35 0 0 0-.348-.347.347.347 0 0 0-.34.347c0 .188.156.34.34.34M768.71 10.02a.28.28 0 0 0 0-.559.28.28 0 0 0 0 .559M769.496 9.95c.117 0 .211-.09.211-.208a.21.21 0 0 0-.21-.21.21.21 0 0 0-.212.21c0 .117.094.207.211.207M770.258 9.875l-.09-.21a.2.2 0 0 0-.023.077c0 .067.05.121.113.133M756.926 10.285a.24.24 0 0 0-.239.242c0 .133.106.239.239.239a.237.237 0 0 0 .238-.239.24.24 0 0 0-.238-.242M757.71 10.223c-.167 0-.3.136-.3.304s.133.305.3.305a.303.303 0 0 0 .306-.305.303.303 0 0 0-.305-.304M758.496 10.16a.367.367 0 1 0 0 .734.367.367 0 0 0 0-.734"/><path fill="#0071bb" d="M766.77 11.168a.42.42 0 0 0-.204-.242.45.45 0 0 0 .204-.239.42.42 0 0 0 .308.239.39.39 0 0 0-.308.242m0-1.273c.05.12.16.21.293.238a.4.4 0 0 0-.293.234.44.44 0 0 0-.204-.238.43.43 0 0 0 .204-.234m-.79 2.851a.4.4 0 0 0-.195-.238.45.45 0 0 0 .2-.207c.054.097.14.168.253.203a.39.39 0 0 0-.258.242m.004-1.191q.07.106.192.16a.4.4 0 0 0-.192.18.46.46 0 0 0-.152-.18.5.5 0 0 0 .152-.16m0-2.063a.45.45 0 0 0-.144-.152.5.5 0 0 0 .144-.164c.043.07.102.129.176.164a.5.5 0 0 0-.176.152m-.129.64a.5.5 0 0 0 .13-.144.45.45 0 0 0 .156.14.5.5 0 0 0-.157.142.6.6 0 0 0-.129-.137m.13.644a.45.45 0 0 0 .16.149.4.4 0 0 0-.16.144.5.5 0 0 0-.133-.144.5.5 0 0 0 .132-.149m-.004-2.441a.4.4 0 0 0 .23.21.42.42 0 0 0-.226.192.5.5 0 0 0-.183-.195.42.42 0 0 0 .18-.207m-.793 5.215a.45.45 0 0 0-.2-.254c.086-.04.16-.11.203-.195.051.09.137.16.239.195a.4.4 0 0 0-.242.254m.007-1.18q.061.083.157.137a.5.5 0 0 0-.16.156.6.6 0 0 0-.133-.156.7.7 0 0 0 .136-.137m0-3.7a.6.6 0 0 0-.125-.128.4.4 0 0 0 .125-.137.36.36 0 0 0 .14.137.5.5 0 0 0-.14.129m0 2.941q.047.06.11.102a.5.5 0 0 0-.11.11.4.4 0 0 0-.101-.106.5.5 0 0 0 .101-.106m0-2.183a.5.5 0 0 0-.09-.09.4.4 0 0 0 .09-.102.5.5 0 0 0 .102.102.4.4 0 0 0-.102.09m-.074.699q.04-.036.074-.078.04.04.086.082a.5.5 0 0 0-.082.078 2 2 0 0 0-.078-.082m.078.71a.3.3 0 0 0 .086.087c-.035.02-.062.05-.09.082a.5.5 0 0 0-.078-.082.4.4 0 0 0 .082-.086m-.008-3.293c.04.094.114.172.207.21a.44.44 0 0 0-.203.173.55.55 0 0 0-.18-.176.44.44 0 0 0 .176-.207m-.793-.375a.43.43 0 0 0-.214-.207.4.4 0 0 0 .214-.277.4.4 0 0 0 .25.28.43.43 0 0 0-.25.204m0 .715a.45.45 0 0 0-.136-.133.4.4 0 0 0 .136-.156q.06.1.153.156a.6.6 0 0 0-.153.133m.004 4.523q.047.054.11.098a.6.6 0 0 0-.114.11.5.5 0 0 0-.097-.11.5.5 0 0 0 .101-.098m0-3.781c-.027-.031-.05-.063-.086-.086.036-.023.059-.059.082-.094q.04.059.098.094a.5.5 0 0 0-.094.086m0 3.027a1 1 0 0 0 .07.063.3.3 0 0 0-.07.066.5.5 0 0 0-.058-.066c.023-.02.039-.04.058-.063m0-2.27-.05-.05a.3.3 0 0 0 .05-.055q.024.03.059.059zm-.03.742q.012-.017.03-.04a.4.4 0 0 0 .043.04q-.02.02-.043.039a.3.3 0 0 1-.03-.04m.03.755a1 1 0 0 0 .047.043c-.015.011-.031.027-.047.039-.011-.012-.027-.027-.035-.04.008-.01.024-.027.035-.042m-.004 2.605a.43.43 0 0 0-.16-.191.43.43 0 0 0 .16-.152c.047.066.11.12.18.152a.45.45 0 0 0-.18.191m-.789.907a.4.4 0 0 0-.238-.305.5.5 0 0 0 .238-.211c.051.094.137.172.243.207a.4.4 0 0 0-.243.309m0-1.23q.058.082.145.132a.45.45 0 0 0-.145.164.5.5 0 0 0-.144-.164.5.5 0 0 0 .144-.133m0-5.297a.6.6 0 0 0-.117-.113.5.5 0 0 0 .117-.129c.032.05.075.094.121.129a.6.6 0 0 0-.12.113m0 4.567q.04.04.081.074a.6.6 0 0 0-.082.094.5.5 0 0 0-.086-.09.6.6 0 0 0 .086-.078m0-3.829q-.03-.034-.066-.062a.4.4 0 0 0 .066-.07.3.3 0 0 0 .07.07q-.034.029-.07.062m0 3.075c.016.011.028.027.043.039q-.02.024-.043.043l-.043-.043c.016-.012.032-.028.043-.04m.004-2.312q-.017-.018-.035-.031a.3.3 0 0 0 .031-.035l.036.035q-.019.016-.032.031m-.015.762c.007-.004.011-.012.015-.016a.03.03 0 0 0 .016.016.03.03 0 0 0-.016.016.03.03 0 0 0-.015-.016m.015.781q.008.011.016.016c-.004.008-.012.011-.02.02a.03.03 0 0 0-.015-.016zm-.005-4.18a.4.4 0 0 0 .203.235.46.46 0 0 0-.203.18.5.5 0 0 0-.199-.18.42.42 0 0 0 .2-.235m-.79 7.653a.41.41 0 0 0-.242-.297.47.47 0 0 0 .238-.203c.051.09.133.164.235.207a.38.38 0 0 0-.23.293m0-1.215a.36.36 0 0 0 .136.129.46.46 0 0 0-.14.16.5.5 0 0 0-.145-.16.4.4 0 0 0 .148-.129m-.004-5.305a.5.5 0 0 0-.12-.11.4.4 0 0 0 .12-.128q.042.076.118.129a.4.4 0 0 0-.118.11m0 4.574a.5.5 0 0 0 .079.074.3.3 0 0 0-.075.086 1 1 0 0 0-.086-.09.5.5 0 0 0 .082-.07m0-3.836c-.02-.02-.043-.043-.066-.059q.039-.03.066-.066c.016.023.04.046.063.066a.3.3 0 0 0-.063.059m0 3.082.036.035a.4.4 0 0 1-.036.039l-.039-.04zm0-2.32c-.012-.009-.02-.02-.032-.028a.1.1 0 0 0 .031-.031l.024.03zm-.011.766.011-.012c.004.004.004.008.008.012l-.008.008zm.011.785q.006.011.012.016l-.012.011q-.005-.006-.015-.011.008-.005.015-.016m.004-4.176a.4.4 0 0 0 .192.227.45.45 0 0 0-.196.176.5.5 0 0 0-.199-.172.44.44 0 0 0 .203-.23m-.797.421a.44.44 0 0 0-.226-.191.39.39 0 0 0 .226-.262c.032.113.11.207.211.262a.44.44 0 0 0-.21.191m0 .719a.4.4 0 0 0-.141-.125.37.37 0 0 0 .14-.149.4.4 0 0 0 .133.149.6.6 0 0 0-.133.125m0 4.543a.5.5 0 0 0 .094.086.6.6 0 0 0-.094.101.6.6 0 0 0-.097-.101.5.5 0 0 0 .097-.086m-.003-3.8a.3.3 0 0 0-.079-.079.3.3 0 0 0 .082-.082.3.3 0 0 0 .079.082.4.4 0 0 0-.082.078m0 3.043q.024.031.054.055c-.02.02-.035.035-.05.054a.2.2 0 0 0-.055-.054.2.2 0 0 0 .05-.055m0-2.281a1 1 0 0 0-.042-.047 1 1 0 0 0 .043-.047l.046.047zm-.028.746a.1.1 0 0 0 .028-.027c.007.007.02.015.027.027-.012.008-.02.02-.027.027zm.028.766c.007.011.02.023.03.035q-.014.01-.03.027-.013-.016-.032-.031a.1.1 0 0 0 .032-.031m.003 2.578a.4.4 0 0 0-.164-.176.4.4 0 0 0 .164-.145c.04.063.094.114.153.145a.55.55 0 0 0-.153.176m-.789.05a.4.4 0 0 0-.218-.226.44.44 0 0 0 .214-.18c.047.074.11.14.188.18a.44.44 0 0 0-.184.226m-.004-1.136c.036.05.079.086.125.12a.7.7 0 0 0-.125.141.4.4 0 0 0-.136-.14.5.5 0 0 0 .136-.121m0-3.73a.5.5 0 0 0-.117-.11.6.6 0 0 0 .121-.121.4.4 0 0 0 .106.117.6.6 0 0 0-.11.113m0 2.973a.5.5 0 0 0 .086.09.5.5 0 0 0-.086.09.5.5 0 0 0-.093-.094.6.6 0 0 0 .093-.086m0-2.215a1 1 0 0 0-.082-.074c.028-.027.059-.055.082-.086a.4.4 0 0 0 .079.082.5.5 0 0 0-.079.078m-.07.715q.036-.03.07-.063c.016.02.04.043.06.063-.02.02-.044.043-.063.066a1 1 0 0 0-.067-.066m.067.73q.033.037.066.067a.5.5 0 0 0-.063.066q-.033-.036-.074-.066a.4.4 0 0 0 .07-.067m.008-3.296c.036.078.09.148.16.19a.5.5 0 0 0-.16.157.55.55 0 0 0-.183-.156.38.38 0 0 0 .183-.191m-.793.41a.43.43 0 0 0-.285-.215.39.39 0 0 0 .29-.285.41.41 0 0 0 .21.28.47.47 0 0 0-.215.22m0 .738a.5.5 0 0 0-.191-.164.43.43 0 0 0 .191-.18c.032.07.09.137.157.18a.45.45 0 0 0-.157.164m0 2.867c.032.05.079.102.133.137a.4.4 0 0 0-.133.152.4.4 0 0 0-.156-.152.5.5 0 0 0 .156-.137m0-2.11a.5.5 0 0 0-.148-.128.5.5 0 0 0 .148-.14c.028.05.07.1.121.14a.4.4 0 0 0-.12.129m-.133.66a.4.4 0 0 0 .132-.117.34.34 0 0 0 .106.117.4.4 0 0 0-.106.117.6.6 0 0 0-.132-.117m.132.676a.5.5 0 0 0 .11.12.4.4 0 0 0-.11.122.4.4 0 0 0-.132-.121.6.6 0 0 0 .132-.121m.004 1.91a.42.42 0 0 0-.215-.211.44.44 0 0 0 .211-.176c.04.078.102.137.176.18a.4.4 0 0 0-.172.207m-.793-.754a.39.39 0 0 0-.28-.246.4.4 0 0 0 .276-.219.47.47 0 0 0 .207.219.44.44 0 0 0-.203.246m-.226-1.828a.44.44 0 0 0 .226-.2.44.44 0 0 0 .172.196.5.5 0 0 0-.176.195.43.43 0 0 0-.222-.191m.222.594c.04.082.106.152.18.199a.45.45 0 0 0-.18.199.38.38 0 0 0-.23-.2.43.43 0 0 0 .23-.198m.004-1.618a.46.46 0 0 0 .192.23.44.44 0 0 0-.192.212.4.4 0 0 0-.257-.211.39.39 0 0 0 .257-.23m7.891 1.417c0-.199-.145-.359-.328-.394a.398.398 0 0 0-.074-.79.4.4 0 0 0-.371.243.43.43 0 0 0-.223-.246.43.43 0 0 0 .223-.277.384.384 0 1 0 0-.215.43.43 0 0 0-.27-.301.4.4 0 0 0 .262-.375.41.41 0 0 0-.407-.41.41.41 0 0 0-.375.246.42.42 0 0 0-.246-.25.41.41 0 0 0 .246-.367.375.375 0 0 0 .75-.008.374.374 0 0 0-.375-.371.373.373 0 0 0-.375.363.412.412 0 0 0-.789-.152.45.45 0 0 0-.273-.254.4.4 0 0 0 .262-.371.397.397 0 0 0-.399-.395.39.39 0 0 0-.383.309.41.41 0 0 0-.398-.328.415.415 0 0 0-.39.28.43.43 0 0 0-.4-.284.41.41 0 0 0-.39.28.42.42 0 0 0-.394-.28.42.42 0 0 0-.403.308.4.4 0 0 0-.382-.293.402.402 0 0 0-.157.774.45.45 0 0 0-.25.234.42.42 0 0 0-.312-.234.378.378 0 0 0-.066-.75.378.378 0 0 0-.066.75.41.41 0 0 0-.345.324.39.39 0 0 0-.375-.293.384.384 0 0 0-.093.758.43.43 0 0 0-.325.344.377.377 0 0 0-.746.07.375.375 0 0 0 .746.062.42.42 0 0 0 .239.313.46.46 0 0 0-.239.254.4.4 0 0 0-.367-.25.404.404 0 0 0-.402.402.4.4 0 0 0 .289.387.416.416 0 0 0-.031.793.42.42 0 0 0 .007.793.4.4 0 0 0-.277.386c0 .196.137.36.324.403a.39.39 0 0 0-.304.383c0 .214.175.394.394.394.164 0 .313-.11.367-.258.04.121.137.22.254.27a.413.413 0 0 0 .156.793.365.365 0 0 0-.367.371.375.375 0 0 0 .75 0 .37.37 0 0 0-.367-.371.42.42 0 0 0 .367-.242c.043.11.133.199.246.242a.4.4 0 0 0-.242.371c0 .227.18.41.406.41.172 0 .32-.113.38-.265.05.136.16.238.296.273a.383.383 0 1 0 .215 0 .43.43 0 0 0 .277-.227c.051.106.145.188.25.227a.397.397 0 0 0 .152.766c.196 0 .36-.141.395-.325a.395.395 0 0 0 .39.328.404.404 0 0 0 .4-.343.392.392 0 0 0 .78-.055.4.4 0 0 0-.25-.371.44.44 0 0 0 .258-.238.43.43 0 0 0 .309.238.374.374 0 0 0 .074.742c.211 0 .38-.168.38-.371a.38.38 0 0 0-.306-.371.42.42 0 0 0 .332-.3.399.399 0 1 0 .524-.49.45.45 0 0 0 .27-.273.41.41 0 0 0 .374.262c.22 0 .395-.18.395-.402a.4.4 0 0 0-.277-.38.44.44 0 0 0 .297-.331.378.378 0 0 0 .746-.074.378.378 0 0 0-.746-.074.43.43 0 0 0-.235-.31c.11-.05.2-.14.235-.26a.4.4 0 0 0 .37.253.393.393 0 0 0 .06-.781.404.404 0 0 0 .343-.399M767.922 10.18a.344.344 0 0 0-.34.347.344.344 0 1 0 .688 0 .346.346 0 0 0-.348-.347M768.71 10.242a.283.283 0 0 0 0 .567.283.283 0 0 0 0-.566M769.496 10.309a.22.22 0 0 0-.219.218c0 .118.102.211.22.211a.21.21 0 0 0 .214-.21.215.215 0 0 0-.215-.22M770.281 10.387a.14.14 0 0 0-.14.14.14.14 0 0 0 .14.137.14.14 0 0 0 .14-.137.14.14 0 0 0-.14-.14M756.926 11.082a.23.23 0 0 0-.23.23c0 .126.1.235.23.235.129 0 .234-.11.234-.235a.23.23 0 0 0-.234-.23M757.71 11.012a.3.3 0 0 0-.3.3.3.3 0 0 0 .3.297.298.298 0 1 0 0-.598"/><path fill="#0071bb" d="M758.496 10.953a.358.358 0 1 0 .004.715.358.358 0 0 0-.004-.715M767.922 10.973a.339.339 0 0 0 0 .675.34.34 0 0 0 .34-.335.34.34 0 0 0-.34-.34M768.71 11.035a.275.275 0 0 0-.273.277c0 .153.122.274.274.274a.275.275 0 1 0 0-.55M769.496 11.102a.213.213 0 0 0-.21.21c0 .114.097.208.21.208a.21.21 0 1 0 0-.418M770.281 11.18a.137.137 0 0 0-.133.133.13.13 0 0 0 .133.128.13.13 0 0 0 .133-.129.134.134 0 0 0-.133-.132M756.926 11.879a.215.215 0 0 0-.215.219c0 .12.094.214.215.214a.215.215 0 0 0 .219-.214.22.22 0 0 0-.22-.22M757.71 11.813a.287.287 0 0 0-.284.285c0 .156.129.285.285.285a.287.287 0 0 0 .285-.285.287.287 0 0 0-.285-.286M758.496 11.75a.35.35 0 0 0-.344.348.344.344 0 0 0 .688 0 .35.35 0 0 0-.344-.348M767.922 11.773a.33.33 0 0 0-.32.325c0 .18.148.324.32.324a.323.323 0 1 0 0-.649M768.71 11.832a.265.265 0 0 0-.26.266.26.26 0 0 0 .26.261.26.26 0 0 0 .263-.261.265.265 0 0 0-.262-.266M769.496 11.906a.193.193 0 0 0-.195.192c0 .105.09.191.195.191.11 0 .195-.086.195-.191a.19.19 0 0 0-.195-.192M770.281 11.98a.12.12 0 0 0-.117.118.12.12 0 0 0 .117.117.12.12 0 0 0 .117-.117.115.115 0 0 0-.117-.118M771.066 12.063a.035.035 0 0 0-.035.035c0 .02.016.035.035.035.024 0 .04-.016.04-.035s-.016-.036-.04-.036M756.926 12.688a.193.193 0 0 0-.192.195c0 .105.086.195.192.195.11 0 .191-.09.191-.195a.19.19 0 0 0-.191-.195M757.71 12.621a.264.264 0 0 0-.257.262c0 .144.117.258.258.258a.255.255 0 0 0 .258-.258.26.26 0 0 0-.258-.262M758.496 12.566a.315.315 0 0 0-.316.317.318.318 0 0 0 .637 0 .32.32 0 0 0-.32-.317M759.285 12.516a.367.367 0 0 0-.367.367.37.37 0 0 0 .367.37.37.37 0 0 0 0-.737M767.14 12.531a.35.35 0 0 0-.35.352.35.35 0 1 0 .698 0 .35.35 0 0 0-.347-.352M767.922 12.586a.297.297 0 1 0 0 .594.3.3 0 0 0 .305-.297.3.3 0 0 0-.305-.297M768.71 12.64a.25.25 0 0 0-.241.243c0 .133.113.242.242.242a.243.243 0 0 0 0-.484M769.496 12.71a.17.17 0 0 0-.172.173c0 .094.078.172.172.172a.17.17 0 0 0 .172-.172.17.17 0 0 0-.172-.172M770.281 12.781a.1.1 0 0 0-.097.102c0 .055.043.097.097.097a.097.097 0 0 0 .098-.097.1.1 0 0 0-.098-.102M771.066 12.867a.02.02 0 0 0-.015.016c0 .008.008.015.015.015q.017-.001.016-.015.001-.014-.016-.016M756.926 13.508a.164.164 0 0 0-.164.16c0 .09.074.16.164.16s.16-.07.16-.16a.16.16 0 0 0-.16-.16M757.71 13.445a.226.226 0 0 0-.226.223.23.23 0 0 0 .227.227.23.23 0 0 0 .23-.227.227.227 0 0 0-.23-.223M758.496 13.387a.28.28 0 0 0-.281.281.283.283 0 0 0 .566 0 .283.283 0 0 0-.285-.281M759.285 13.336a.332.332 0 1 0 0 .664.33.33 0 0 0 .328-.332.33.33 0 0 0-.328-.332M766.355 13.305c-.199 0-.363.164-.363.363 0 .2.164.363.363.363.2 0 .364-.164.364-.363 0-.2-.164-.363-.364-.363M767.14 13.352c-.175 0-.32.14-.32.316a.318.318 0 0 0 .637 0 .315.315 0 0 0-.316-.316M767.922 13.402a.263.263 0 0 0-.262.266c0 .145.117.27.262.27a.27.27 0 0 0 .27-.27.264.264 0 0 0-.27-.266M768.71 13.46a.21.21 0 0 0-.206.208c0 .117.094.207.207.207s.207-.09.207-.207a.21.21 0 0 0-.207-.207M769.496 13.527a.145.145 0 0 0-.14.141.14.14 0 0 0 .14.137.134.134 0 0 0 .137-.137.14.14 0 0 0-.137-.14M770.281 13.605c-.035 0-.062.024-.062.063 0 .035.027.066.062.066a.07.07 0 0 0 .067-.066c0-.04-.032-.063-.067-.063M756.926 14.332a.123.123 0 0 0-.121.125c0 .063.054.121.12.121.067 0 .126-.058.126-.121a.126.126 0 0 0-.125-.125M757.71 14.273a.18.18 0 0 0-.179.184c0 .098.082.184.18.184a.186.186 0 0 0 .184-.184.18.18 0 0 0-.184-.184M758.496 14.21a.24.24 0 0 0-.238.247c0 .133.105.238.238.238a.24.24 0 0 0 .246-.238.245.245 0 0 0-.246-.246M759.285 14.164a.29.29 0 0 0 0 .578c.16 0 .285-.129.285-.285a.29.29 0 0 0-.285-.293M760.07 14.125a.33.33 0 0 0-.332.332c0 .184.149.328.332.328a.325.325 0 0 0 .328-.328.33.33 0 0 0-.328-.332M760.855 14.094a.36.36 0 1 0 0 .719.36.36 0 1 0 0-.719M765.566 14.105a.35.35 0 1 0 .004.699.35.35 0 0 0-.004-.699M766.355 14.137a.318.318 0 0 0 0 .636.318.318 0 0 0 0-.637M767.14 14.18a.275.275 0 0 0 0 .55.277.277 0 0 0 .274-.273.28.28 0 0 0-.273-.277M767.922 14.23a.22.22 0 0 0-.219.227c0 .121.098.219.219.219a.22.22 0 0 0 .226-.219.22.22 0 0 0-.226-.227M768.71 14.29a.163.163 0 0 0-.163.167c0 .09.07.164.164.164.09 0 .168-.074.168-.164a.17.17 0 0 0-.168-.168M769.496 14.355a.1.1 0 0 0-.098.102c0 .05.047.094.098.094.055 0 .102-.043.102-.094a.1.1 0 0 0-.102-.102M770.281 14.43c-.011 0-.023.011-.023.027 0 .012.012.023.023.023a.025.025 0 0 0 .024-.023c0-.016-.012-.027-.024-.027M756.14 15.234c-.003 0-.003.004-.003.004q-.001.007.004.008.005-.001.004-.008s0-.004-.004-.004M756.926 15.168c-.04 0-.074.031-.074.07 0 .043.035.078.074.078s.074-.035.074-.078c0-.039-.035-.07-.074-.07M757.71 15.105a.134.134 0 0 0-.132.133c0 .078.059.137.133.137a.136.136 0 0 0 .137-.137.14.14 0 0 0-.137-.133M758.496 15.05a.19.19 0 0 0-.187.188.19.19 0 1 0 .188-.187M759.285 15a.24.24 0 1 0-.004.48.24.24 0 0 0 .004-.48M760.07 14.965a.275.275 0 1 0 .274.273.27.27 0 0 0-.274-.273M760.855 14.934a.306.306 0 1 0 0 .613.306.306 0 0 0 .305-.309.305.305 0 0 0-.305-.304M761.64 14.91a.33.33 0 0 0-.327.328c0 .184.144.332.328.332a.33.33 0 0 0 .332-.332.33.33 0 0 0-.332-.328M762.426 14.895a.345.345 0 0 0 0 .691.345.345 0 0 0 0-.691M763.21 14.895a.35.35 0 0 0-.347.343.348.348 0 0 0 .696 0 .345.345 0 0 0-.348-.343M764 14.902a.34.34 0 0 0-.34.336c0 .188.153.34.34.34a.338.338 0 0 0 0-.676M764.781 14.918a.322.322 0 1 0 .003.643.322.322 0 0 0-.003-.643M765.566 14.941a.297.297 0 0 0-.296.297c0 .168.132.301.296.301a.3.3 0 0 0 .301-.3.3.3 0 0 0-.3-.298M766.355 14.973a.27.27 0 0 0-.27.265c0 .149.122.266.27.266a.263.263 0 0 0 .262-.266.265.265 0 0 0-.262-.265M767.14 15.016a.226.226 0 0 0-.226.222c0 .125.102.227.227.227a.223.223 0 0 0 .222-.227.223.223 0 0 0-.222-.222M767.922 15.066a.17.17 0 0 0-.168.172c0 .098.074.176.168.176a.173.173 0 0 0 .176-.176.17.17 0 0 0-.176-.172M768.71 15.125a.11.11 0 0 0-.112.113c0 .067.047.117.113.117.062 0 .113-.05.113-.117a.113.113 0 0 0-.113-.113M769.496 15.188a.05.05 0 0 0-.05.05c0 .032.019.055.05.055a.056.056 0 0 0 .055-.055c0-.027-.028-.05-.055-.05M756.926 16.004c-.008 0-.016.008-.016.02q.002.018.016.019.018-.001.02-.02-.002-.018-.02-.02M757.71 15.945c-.042 0-.081.04-.081.078 0 .047.039.082.082.082a.08.08 0 0 0 .082-.082.08.08 0 0 0-.082-.078M758.496 15.895a.13.13 0 0 0-.129.128c0 .075.059.13.13.13a.13.13 0 0 0 .132-.13.13.13 0 0 0-.133-.128M759.285 15.844a.18.18 0 0 0-.18.18.18.18 0 0 0 .18.183.18.18 0 0 0 .176-.184.18.18 0 0 0-.176-.18M760.07 15.809a.22.22 0 0 0-.218.214.218.218 0 1 0 .438 0 .22.22 0 0 0-.22-.214M760.855 15.777c-.136 0-.25.11-.25.246 0 .137.114.25.25.25.137 0 .25-.113.25-.25a.25.25 0 0 0-.25-.246M761.64 15.758a.268.268 0 1 0 0 .535.264.264 0 0 0 .266-.27.263.263 0 0 0-.265-.265M762.426 15.746a.28.28 0 0 0-.278.277.277.277 0 1 0 .555 0 .28.28 0 0 0-.277-.277M763.21 15.742a.28.28 0 0 0-.28.281c0 .16.125.286.28.286a.283.283 0 1 0 0-.566M764 15.75a.276.276 0 0 0-.281.273.28.28 0 0 0 .281.282.276.276 0 0 0 .273-.282.27.27 0 0 0-.273-.273M764.781 15.762a.26.26 0 0 0-.261.261c0 .149.117.266.261.266a.263.263 0 0 0 .262-.266.26.26 0 0 0-.262-.261M765.566 15.785a.24.24 0 1 0 .004.48.24.24 0 0 0-.004-.48M766.355 15.82a.205.205 0 1 0 0 .41.205.205 0 1 0 0-.41M767.14 15.86a.17.17 0 0 0-.167.163.17.17 0 0 0 .168.168.163.163 0 0 0 .164-.168c0-.09-.07-.164-.164-.164M767.922 15.91a.12.12 0 0 0-.113.113c0 .067.054.118.113.118.066 0 .121-.051.121-.118 0-.058-.055-.113-.121-.113M768.71 15.969c-.03 0-.058.023-.058.054 0 .036.028.063.059.063a.06.06 0 0 0 .062-.063c0-.03-.027-.054-.062-.054M757.71 16.797a.02.02 0 0 0-.015.015q.002.014.016.016c.012 0 .016-.008.016-.015q.001-.014-.016-.016M758.496 16.742c-.039 0-.066.031-.066.07 0 .036.027.067.066.067s.07-.031.07-.067a.07.07 0 0 0-.07-.07M759.285 16.695a.115.115 0 0 0-.117.117c0 .063.05.114.117.114.063 0 .113-.051.113-.113a.114.114 0 0 0-.113-.118M760.07 16.66a.15.15 0 0 0-.152.152c0 .083.066.153.152.153.082 0 .153-.07.153-.152a.153.153 0 0 0-.153-.153M760.855 16.633a.18.18 0 0 0-.183.18c0 .097.082.18.183.18a.18.18 0 0 0 .18-.18.177.177 0 0 0-.18-.18M761.64 16.61c-.113 0-.199.09-.199.203 0 .109.086.195.2.195a.2.2 0 0 0 .203-.195.204.204 0 0 0-.203-.204M762.426 16.602c-.117 0-.211.09-.211.21 0 .118.094.208.21.208.118 0 .212-.09.212-.207a.21.21 0 0 0-.211-.211M763.21 16.594a.22.22 0 0 0-.214.218c0 .118.098.211.215.211a.21.21 0 0 0 .215-.21.215.215 0 0 0-.215-.22M764 16.602a.21.21 0 0 0-.21.21.208.208 0 0 0 .418 0 .21.21 0 0 0-.208-.21M764.781 16.617a.193.193 0 0 0-.191.195c0 .106.086.192.191.192a.195.195 0 0 0 .196-.192c0-.109-.09-.195-.196-.195M765.566 16.64a.17.17 0 0 0-.171.172c0 .094.078.172.171.172a.17.17 0 0 0 .172-.172.17.17 0 0 0-.172-.171M766.355 16.672a.14.14 0 0 0-.14.14.138.138 0 1 0 .14-.14M767.14 16.71c-.058 0-.097.048-.097.102 0 .051.039.098.098.098a.1.1 0 0 0 .097-.098.1.1 0 0 0-.097-.101M767.922 16.758c-.024 0-.047.023-.047.055 0 .027.023.05.047.05.031 0 .055-.023.055-.05a.053.053 0 0 0-.055-.055M759.285 17.555a.043.043 0 0 0-.043.043c0 .023.02.043.043.043.02 0 .04-.02.04-.043 0-.024-.02-.043-.04-.043M760.07 17.523c-.043 0-.078.032-.078.075s.035.078.078.078.075-.035.075-.078a.072.072 0 0 0-.075-.075M760.855 17.492a.105.105 0 0 0-.105.106c0 .058.047.101.105.101a.1.1 0 0 0 .106-.101.105.105 0 0 0-.106-.106M761.64 17.473a.126.126 0 0 0-.124.125c0 .07.054.12.125.12.066 0 .125-.05.125-.12a.13.13 0 0 0-.125-.125M762.426 17.46a.135.135 0 0 0-.133.138c0 .074.059.132.133.132a.13.13 0 0 0 .133-.132.133.133 0 0 0-.133-.137M763.21 17.457a.145.145 0 0 0-.14.14.14.14 0 0 0 .14.137c.08 0 .142-.058.142-.136a.143.143 0 0 0-.141-.141M764 17.469c-.074 0-.137.058-.137.129 0 .074.063.129.137.129a.13.13 0 0 0 .129-.13.133.133 0 0 0-.129-.128M764.781 17.48a.114.114 0 0 0-.113.118c0 .066.047.117.113.117.067 0 .117-.05.117-.117a.12.12 0 0 0-.117-.118M765.566 17.5a.1.1 0 0 0-.097.098.1.1 0 0 0 .097.097.1.1 0 0 0 .102-.097.1.1 0 0 0-.102-.098M766.355 17.535c-.039 0-.066.024-.066.063 0 .035.027.066.066.066.036 0 .063-.031.063-.066 0-.04-.027-.063-.063-.063M767.14 17.57a.027.027 0 0 0-.027.028c0 .015.012.027.028.027.011 0 .023-.012.023-.027 0-.016-.012-.028-.023-.028M760.855 18.36q-.023.002-.023.027c0 .008.008.02.023.02.012 0 .024-.012.024-.02 0-.016-.012-.028-.024-.028M761.64 18.34a.043.043 0 0 0-.042.043c0 .023.02.043.043.043s.043-.02.043-.043a.043.043 0 0 0-.043-.043M762.426 18.328a.056.056 0 0 0-.055.055c0 .027.024.055.055.055a.056.056 0 0 0 .054-.055.056.056 0 0 0-.054-.055M763.21 18.324c-.03 0-.058.028-.058.063 0 .027.028.054.059.054s.059-.027.059-.054c0-.035-.028-.063-.06-.063M764 18.332c-.031 0-.055.023-.055.05s.024.052.055.052c.027 0 .05-.024.05-.051a.05.05 0 0 0-.05-.051M764.781 18.348c-.02 0-.035.015-.035.039 0 .015.016.031.035.031.024 0 .04-.016.04-.031 0-.024-.016-.04-.04-.04M765.566 18.367q-.01.001-.011.02 0 .007.011.008.014-.001.016-.008c0-.012-.008-.02-.016-.02"/><g clip-path="url(#ai)"><path fill="#231f20" d="M783.738 5.93h-2.613l-3.508 9.215h2.555l2.262-6.489 2.285 6.489h2.527Zm0 0"/></g><path fill="#231f20" d="m769.605 8.316.563 1.348.09.211 2.219 5.27h1.902l3.887-9.215h-2.602l-2.238 5.61-2.223-5.61h-2.601l.218.527.07.164.575 1.371Zm0 0"/><g clip-path="url(#aj)"><path fill="#231f20" d="m749.844 9.512 4.426 5.633h2.382V5.93h-2.382v5.636l-4.426-5.636h-2.395v9.215h2.395Zm0 0"/></g></svg>