<svg xmlns="http://www.w3.org/2000/svg" xmlns:xlink="http://www.w3.org/1999/xlink" width="793.701" height="1122.52" viewBox="0 0 595.276 841.89"><defs><path id="g" d="M.313 0h2.171l.72-2.234h3.421L7.359 0h2.188l-3.36-9.61H3.61Zm3.39-3.781.266-.86c.297-.968.578-2.109.906-3.437a58 58 0 0 0 .953 3.437l.281.86Zm0 0"/><path id="h" d="M3.688 0h2.578l3.28-9.61H7.376L5.891-4.968a92 92 0 0 0-.907 3.375 66 66 0 0 0-.937-3.375L2.5-9.609H.313Zm0 0"/><path id="i" d="M4.078.14c1.688 0 2.828-.78 3.188-1.984l-1.75-.328c-.203.563-.72.86-1.391.86-.984 0-1.64-.61-1.687-1.797h4.937v-.532c0-2.468-1.5-3.671-3.39-3.671-2.11 0-3.47 1.515-3.47 3.75C.516-1.297 1.876.14 4.079.14M2.453-4.311c.078-.891.625-1.532 1.563-1.532.89 0 1.406.578 1.5 1.532Zm0 0"/><path id="j" d="M.828 0h1.938v-4.11c0-.89.656-1.5 1.547-1.5.28 0 .656.048.828.094V-7.25a4 4 0 0 0-.625-.062c-.813 0-1.47.468-1.735 1.359h-.078V-7.22H.828Zm0 0"/><path id="k" d="M.781 2.563c.266.109.75.187 1.266.187 1.437 0 2.203-.734 2.64-1.89L7.75-7.22H5.719l-1.266 3.75a18 18 0 0 0-.516 1.875c-.14-.64-.265-1.25-.468-1.875l-1.203-3.75H.203L2.906.016l-.047.39c-.078.719-.625.969-1.406.75l-.234-.062Zm0 0"/><path id="l" d="M.875 0h6.11v-1.64H2.843v-7.97H.875Zm0 0"/><path id="m" d="M4.047.14c2.172 0 3.531-1.5 3.531-3.718 0-2.234-1.36-3.734-3.531-3.734S.516-5.812.516-3.578C.516-1.36 1.875.14 4.046.14m0-1.515c-1.031 0-1.547-.953-1.547-2.203 0-1.281.516-2.203 1.547-2.203 1.047 0 1.562.922 1.562 2.203 0 1.25-.515 2.203-1.562 2.203m0 0"/><path id="n" d="M2.766-4.172c0-.953.578-1.516 1.39-1.516.813 0 1.313.532 1.313 1.438V0h1.937v-4.594c0-1.687-.984-2.718-2.484-2.718-1.11 0-1.844.578-2.25 1.593l-.016-1.5H.828V0h1.938Zm0 0"/><path id="o" d="M4.031 2.86c2.032 0 3.5-.97 3.5-2.922V-7.22H5.625V-6h-.094c-.265-.578-.86-1.312-2.062-1.312-1.61 0-2.953 1.25-2.953 3.687 0 2.39 1.312 3.516 2.937 3.516 1.172 0 1.75-.594 2-1.172h.156V.047c0 .953-.593 1.406-1.593 1.406-.938 0-1.375-.422-1.563-.828l-1.672.453C1.11 2.11 2.234 2.86 4.031 2.86m.032-4.438c-1 0-1.547-.797-1.547-2.063 0-1.234.53-2.109 1.547-2.109 1 0 1.546.844 1.546 2.11 0 1.296-.562 2.062-1.546 2.062m0 0"/><path id="p" d="M2.844.14C3.906.14 4.609-.327 4.954-1h.062v1h1.828v-4.86c0-1.75-1.5-2.452-3.063-2.452-1.61 0-2.765.718-3.14 1.968l1.78.297c.157-.453.61-.828 1.36-.828.719 0 1.125.344 1.125.969v.031c0 .469-.5.516-1.75.64C1.75-4.093.438-3.64.438-2.014.438-.595 1.468.14 2.844.14m.547-1.359c-.641 0-1.094-.297-1.094-.86 0-.577.484-.858 1.187-.952.438-.063 1.204-.156 1.438-.328v.78c0 .767-.625 1.36-1.531 1.36m0 0"/><path id="q" d="M3.469.125C4.64.125 5.234-.578 5.5-1.156h.11V0H7.5v-9.61H5.563V-6H5.5c-.25-.578-.828-1.312-2.047-1.312-1.594 0-2.937 1.25-2.937 3.718 0 2.407 1.28 3.719 2.953 3.719m.594-1.562c-1.016 0-1.547-.891-1.547-2.172 0-1.25.53-2.141 1.547-2.141.984 0 1.546.844 1.546 2.14 0 1.313-.562 2.173-1.546 2.173m0 0"/><path id="r" d="M2.844-9.61H.875V0h1.969Zm0 0"/><path id="s" d="M.828 0h1.938v-4.36c0-.874.515-1.343 1.203-1.343.656 0 1.125.453 1.125 1.156V0h1.875v-4.437c0-.766.453-1.266 1.187-1.266.64 0 1.14.39 1.14 1.203V0h1.938v-4.86c0-1.577-.984-2.468-2.296-2.468-1 0-1.922.516-2.329 1.625-.328-1.094-.921-1.625-1.859-1.625-.86 0-1.672.453-2.047 1.516L2.625-7.22H.828Zm0 0"/><path id="t" d="M.828 2.703h1.938v-3.86h.062c.266.579.86 1.282 2.031 1.282 1.672 0 2.938-1.312 2.938-3.719 0-2.468-1.313-3.718-2.922-3.718-1.219 0-1.797.734-2.047 1.312h-.094v-1.219H.828Zm3.438-4.14c-.985 0-1.547-.86-1.547-2.172 0-1.297.562-2.141 1.547-2.141 1.015 0 1.562.89 1.562 2.14 0 1.282-.547 2.173-1.562 2.173m0 0"/><path id="u" d="M3.688.14c1.89 0 3.234-.952 3.234-2.374 0-1.016-.672-1.657-2.063-1.938l-1.296-.266c-.688-.14-.938-.39-.938-.75 0-.437.5-.734 1.125-.734.703 0 1.11.36 1.266.844l1.718-.313c-.28-1.171-1.296-1.921-3.015-1.921-1.828 0-3.031.859-3.031 2.25 0 1.078.687 1.75 2.078 2.046l1.25.25c.625.125.922.36.922.75 0 .422-.454.735-1.188.735-.797 0-1.266-.328-1.453-1L.5-1.97C.75-.625 1.953.141 3.688.141m0 0"/><path id="v" d="M.828 0h1.938v-7.219H.828Zm.969-8.156c.578 0 1.062-.438 1.062-1 0-.547-.484-.985-1.062-.985-.594 0-1.063.438-1.063.985 0 .562.47 1 1.063 1m0 0"/><path id="w" d="M2.86 0h2.203l2.656-7.219H5.687L4.5-3.469A26 26 0 0 0 3.984-1.5a26 26 0 0 0-.515-1.969l-1.203-3.75H.203Zm0 0"/><path id="x" d="M.484-7.984h2.938V0h1.984v-7.984h2.938V-9.61H.484Zm0 0"/><path id="y" d="M2.766-4.172c0-.953.578-1.516 1.39-1.516.813 0 1.313.532 1.313 1.438V0h1.937v-4.594c0-1.687-.984-2.718-2.484-2.718-1.063 0-1.781.53-2.203 1.484V-9.61H.829V0h1.937Zm0 0"/><path id="z" d="M4.406-7.219H3.063v-1.718H1.125v1.718h-1v1.485h1v3.797c0 1.312.781 2.046 2.234 2.046.391 0 .813-.046 1.25-.187l-.28-1.438c-.141.032-.47.079-.61.079-.469 0-.656-.22-.656-.672v-3.625h1.343Zm0 0"/><path id="A" d="M2.969.047c.453 0 .812-.078 1.015-.156l-.296-1.407a2 2 0 0 1-.391.032c-.39 0-.531-.188-.531-.657v-7.468H.828v7.734C.828-.594 1.5.047 2.968.047m0 0"/><path id="B" d="M2.328 0h1.969l.797-2.781c.172-.61.343-1.438.515-2.188.172.75.329 1.578.516 2.188L6.922 0H8.89l2.14-7.219H8.984L8.36-4.547a50 50 0 0 0-.578 2.797c-.203-1.078-.437-1.984-.625-2.797l-.64-2.672H4.734l-.656 2.672c-.203.813-.437 1.734-.625 2.781-.203-1.062-.422-1.984-.594-2.78L2.234-7.22H.204Zm0 0"/><path id="C" d="M.875 0h1.969v-3.687h3.922v-1.61H2.844v-2.687h4.36V-9.61H.874Zm0 0"/><path id="D" d="M4.047.14C5.78.14 7-.796 7.28-2.311L5.47-2.641c-.157.782-.64 1.266-1.39 1.266-1.032 0-1.579-.922-1.579-2.203 0-1.313.547-2.203 1.578-2.203.75 0 1.219.468 1.375 1.218l1.813-.343c-.282-1.485-1.5-2.407-3.22-2.407-2.171 0-3.53 1.5-3.53 3.735C.516-1.36 1.875.14 4.046.14m0 0"/><path id="E" d="M.875 0h4.063c2.156 0 3.296-1.125 3.296-2.656 0-1.422-1.015-2.281-2.109-2.328v-.094c1-.219 1.734-.922 1.734-2.063 0-1.437-1.062-2.468-3.171-2.468H.874Zm1.969-1.625v-2.61h1.75c.984 0 1.61.594 1.61 1.391 0 .735-.5 1.219-1.657 1.219Zm0-3.953v-2.438h1.594c.921 0 1.421.485 1.421 1.188 0 .781-.625 1.25-1.468 1.25Zm0 0"/><path id="F" d="M.828 0h1.938v-2.312l.547-.626L5.328 0H7.61L4.781-4.078l2.688-3.14H5.234l-2.359 2.78h-.11v-5.171H.829Zm0 0"/><path id="G" d="M1.156 0h1.172v-5.5c0-.734-.031-1.875-.047-2.781.39 1.125.766 2.25.969 2.781L5.438 0H6.5l2.156-5.5c.219-.547.61-1.703.953-2.812-.015 1-.03 2.109-.03 2.812V0h1.202v-9.61h-1.75L6.687-3.546c-.187.485-.484 1.438-.703 2.188-.234-.782-.53-1.72-.718-2.188l-2.36-6.062h-1.75Zm0 0"/><path id="H" d="M3.047.172c1.219 0 1.89-.64 2.14-1.156h.079V0h1.14v-4.75c0-2.266-1.734-2.562-2.703-2.562-1.125 0-2.36.406-2.922 1.718l1.125.36c.219-.5.782-1.047 1.828-1.047 1 0 1.5.515 1.5 1.406v.047c0 .531-.562.484-1.843.656-1.344.156-2.813.469-2.813 2.125C.578-.625 1.672.172 3.047.172M3.234-.86C2.375-.86 1.75-1.25 1.75-2c0-.812.734-1.078 1.594-1.187.437-.063 1.703-.188 1.89-.422v1c0 .89-.703 1.75-2 1.75m0 0"/><path id="I" d="M3.469.156c1.687 0 2.844-.922 2.844-2.187 0-.985-.61-1.64-1.922-1.953l-1.078-.25c-.86-.203-1.22-.5-1.22-1.032 0-.609.641-1.046 1.5-1.046.938 0 1.345.5 1.532 1.015l1.063-.266c-.329-1.015-1.11-1.75-2.594-1.75-1.547 0-2.672.875-2.672 2.11 0 1.016.625 1.656 1.937 1.969l1.188.28c.719.173 1.062.5 1.062 1 0 .595-.64 1.095-1.656 1.095-.86 0-1.453-.36-1.656-1.157L.703-1.75C.953-.5 1.984.156 3.47.156m0 0"/><path id="J" d="M3.86-7.219H2.374v-1.718H1.219v1.718H.125v1h1.094v4.438c0 1.187.734 1.875 1.969 1.875.296 0 .64-.047.874-.125l-.234-.985c-.203.032-.453.079-.594.079-.625 0-.859-.282-.859-.938v-4.344h1.484Zm0 0"/><path id="K" d="M4.047.156c1.484 0 2.562-.75 2.89-1.828l-1.109-.312c-.281.734-.922 1.109-1.766 1.109-1.28 0-2.156-.828-2.218-2.344h5.219v-.484c0-2.656-1.61-3.61-3.141-3.61-1.969 0-3.25 1.547-3.25 3.766S1.969.156 4.047.156m-2.188-4.36c.063-1.093.813-2.077 2.063-2.077 1.187 0 1.844.86 1.953 2.078Zm0 0"/><path id="L" d="M1.016 0h1.172v-4.516c0-.984.75-1.687 1.796-1.687.313 0 .625.062.688.078v-1.172c-.125-.016-.406-.016-.578-.016-.86 0-1.61.485-1.875 1.204H2.14v-1.11H1.016Zm0 0"/><path id="M" d="M1.016 0h1.172v-7.219H1.016Zm.593-8.39c.438 0 .813-.344.813-.782 0-.422-.375-.765-.813-.765s-.812.343-.812.765c0 .438.375.781.812.781m0 0"/><path id="N" d="M2.188-4.328c0-1.234.78-1.938 1.812-1.938 1.016 0 1.625.672 1.625 1.782V0h1.172v-4.578c0-1.828-.984-2.734-2.453-2.734-.969 0-1.735.406-2.203 1.437v-1.344H1.016V0h1.172Zm0 0"/><path id="O" d="M4.234.172c2.22 0 3.5-1.219 3.5-2.797 0-1.797-1.687-2.375-2.718-2.656l-.97-.266c-.702-.187-1.827-.547-1.827-1.547 0-.906.828-1.562 2.062-1.562 1.14 0 2.016.531 2.125 1.469H7.61C7.547-8.641 6.22-9.75 4.33-9.75c-1.86 0-3.313 1.078-3.313 2.703 0 1.281.906 2.078 2.453 2.516l1.172.328c1.015.297 1.89.64 1.89 1.562 0 1.032-.984 1.72-2.297 1.72-1.125 0-2.125-.5-2.234-1.595H.75C.86-.906 2.156.172 4.234.172m0 0"/><path id="P" d="M3.469.094c.953 0 1.734-.39 2.203-1.438V0h1.125v-7.219H5.625v4.328c0 1.235-.781 1.938-1.812 1.938-1 0-1.626-.672-1.626-1.781V-7.22H1.017v4.578C1.016-.812 2 .094 3.469.094m0 0"/><path id="Q" d="M3.719.156c1.375 0 1.86-.875 2.11-1.265h.124V0h1.125v-9.61H5.906v3.547h-.078c-.25-.375-.687-1.25-2.094-1.25-1.796 0-3.062 1.438-3.062 3.72 0 2.296 1.25 3.75 3.047 3.75M3.906-.89c-1.36 0-2.047-1.187-2.047-2.718 0-1.485.672-2.657 2.047-2.657 1.328 0 2.016 1.063 2.016 2.657C5.922-2 5.203-.891 3.906-.891m0 0"/><path id="R" d="M.906 2.61c.125.062.438.14.844.14 1.031 0 1.719-.516 2.156-1.672l3.172-8.297H5.812L4.267-2.937c-.22.624-.391 1.25-.547 1.859-.172-.61-.344-1.219-.563-1.86l-1.531-4.28H.344L3.109.031 2.891.64c-.344 1.03-.86 1.187-1.563 1l-.125-.032Zm0 0"/><path id="S" d="M1.156 0h1.235v-3.484h2.062c2.25 0 3.281-1.36 3.281-3.078 0-1.704-1.03-3.047-3.28-3.047H1.155Zm1.235-4.562v-3.985h2c1.53 0 2.125.86 2.125 1.985 0 1.14-.594 2-2.11 2Zm0 0"/><path id="T" d="M3.953.156c1.969 0 3.297-1.5 3.297-3.718 0-2.266-1.328-3.75-3.297-3.75C2-7.312.672-5.828.672-3.562.672-1.344 2 .155 3.953.155m0-1.047C2.516-.89 1.86-2.14 1.86-3.562c0-1.438.657-2.704 2.094-2.704 1.469 0 2.125 1.266 2.125 2.704 0 1.421-.656 2.671-2.125 2.671m0 0"/><path id="U" d="M3.938 2.86c1.765 0 3.156-.813 3.156-2.672V-7.22h-1.14v1.157h-.11c-.235-.391-.703-1.25-2.094-1.25-1.812 0-3.078 1.437-3.078 3.671 0 2.266 1.312 3.532 3.047 3.532 1.39 0 1.844-.797 2.094-1.22h.109V.126c0 1.188-.828 1.719-1.984 1.719-1.266 0-1.72-.657-2.016-1.063l-.953.594c.453.797 1.375 1.484 2.969 1.484m-.032-4.016c-1.344 0-2.047-1.031-2.047-2.516 0-1.437.672-2.594 2.047-2.594 1.328 0 2.031 1.063 2.031 2.594 0 1.578-.718 2.516-2.03 2.516m0 0"/><path id="V" d="M1.016 0h1.172v-4.547c0-1.14.765-1.734 1.609-1.734.812 0 1.406.531 1.406 1.328V0h1.172v-4.719c0-.906.594-1.562 1.563-1.562.78 0 1.453.406 1.453 1.453V0h1.172v-4.86c0-1.671-1.016-2.484-2.282-2.484-1.047 0-1.922.563-2.265 1.469-.266-.89-.891-1.469-1.844-1.469-.844 0-1.656.469-2.016 1.453v-1.328h-1.14Zm0 0"/><path id="W" d="M1.156 0h1.235v-5.484c0-.47-.047-1.422-.094-2.657.75 1.329 1.125 1.985 1.562 2.672L7.344 0h1.453v-9.61H7.578v5.891c0 .516 0 1.344.078 2.266a22 22 0 0 0-1.14-2.016l-3.907-6.14H1.156Zm0 0"/><path id="X" d="M3.14.11c1.688 0 2.735-.922 2.735-2.594v-5.75H4.203v5.78c0 .798-.406 1.204-1.062 1.204-.657 0-1.078-.406-1.078-1.203v-.5H.375v.469C.375-.812 1.422.109 3.141.109m0 0"/><path id="Y" d="M3.469.125C5.329.125 6.5-1.156 6.5-3.062c0-1.922-1.172-3.204-3.031-3.204S.453-4.984.453-3.062C.453-1.156 1.61.124 3.47.124m0-1.312c-.875 0-1.328-.797-1.328-1.875 0-1.11.453-1.891 1.328-1.891.89 0 1.344.797 1.344 1.89 0 1.079-.454 1.876-1.344 1.876m0 0"/><path id="Z" d="M2.375-3.578c0-.813.484-1.297 1.188-1.297.703 0 1.124.469 1.124 1.234V0h1.657v-3.937c0-1.438-.844-2.329-2.125-2.329-.922 0-1.532.454-1.89 1.266v-3.234H.702V0h1.672Zm0 0"/><path id="aa" d="M2.375-3.578c0-.813.484-1.297 1.188-1.297.703 0 1.124.469 1.124 1.234V0h1.657v-3.937c0-1.438-.844-2.329-2.125-2.329-.953 0-1.578.5-1.922 1.36l-.031-1.282H.703V0h1.672Zm0 0"/><path id="ab" d="M3.156 0H5.36l2.829-8.234h-1.86L5.047-4.266c-.25.829-.5 1.782-.781 2.907a68 68 0 0 0-.797-2.907L2.14-8.234H.266Zm0 0"/><path id="ac" d="M3.5.125c1.438 0 2.422-.672 2.734-1.703L4.72-1.86c-.172.468-.61.734-1.188.734-.844 0-1.406-.516-1.437-1.531h4.234v-.469c0-2.11-1.297-3.14-2.906-3.14C1.609-6.266.453-4.97.453-3.064.453-1.108 1.61.126 3.5.126M2.11-3.703c.062-.766.53-1.313 1.328-1.313.765 0 1.203.5 1.28 1.313Zm0 0"/><path id="ad" d="M.703 0h1.672v-3.516c0-.765.547-1.296 1.313-1.296.25 0 .578.03.718.078V-6.22a3 3 0 0 0-.531-.047c-.703 0-1.266.391-1.5 1.157h-.062v-1.078H.702Zm0 0"/><path id="ae" d="M.656 2.188c.25.093.657.171 1.094.171 1.234 0 1.89-.625 2.266-1.625L6.64-6.187H4.906L3.813-2.97a19 19 0 0 0-.438 1.61c-.125-.547-.234-1.078-.406-1.61L1.938-6.187H.172L2.5.016l-.047.328c-.078.625-.531.828-1.203.64L1.047.938Zm0 0"/><path id="af" d="M.75 0h5.234v-1.406H2.438v-6.828H.75Zm0 0"/><path id="ag" d="M3.453 2.438c1.75 0 3-.813 3-2.485v-6.14h-1.64v1.046H4.75c-.234-.5-.734-1.125-1.781-1.125-1.375 0-2.516 1.079-2.516 3.157 0 2.047 1.125 3.015 2.516 3.015 1 0 1.484-.5 1.703-1h.14v1.14c0 .813-.515 1.188-1.359 1.188-.812 0-1.203-.359-1.344-.703L.672.921c.281.892 1.234 1.517 2.781 1.517m.031-3.782c-.859 0-1.328-.687-1.328-1.765 0-1.063.453-1.828 1.328-1.828.86 0 1.329.734 1.329 1.828 0 1.093-.485 1.765-1.329 1.765m0 0"/><path id="ah" d="M2.438.125c.906 0 1.5-.406 1.812-.984h.047V0h1.578v-4.172c0-1.5-1.297-2.094-2.625-2.094-1.39 0-2.375.625-2.703 1.688l1.531.266c.125-.407.516-.72 1.156-.72.625 0 .97.298.97.829v.016c0 .406-.438.453-1.5.562-1.204.11-2.329.516-2.329 1.89 0 1.22.875 1.86 2.063 1.86m.468-1.172c-.547 0-.937-.25-.937-.734 0-.485.406-.735 1.031-.813.36-.062 1.016-.14 1.219-.281v.656c0 .656-.547 1.172-1.313 1.172m0 0"/><path id="ai" d="M.703 0h1.672v-3.734c0-.75.438-1.157 1.031-1.157.563 0 .953.391.953.985V0h1.61v-3.812c0-.641.39-1.079 1.015-1.079.563 0 .985.344.985 1.032V0h1.656v-4.172c0-1.344-.828-2.11-1.969-2.11-.86 0-1.64.438-1.984 1.391-.297-.937-.797-1.39-1.594-1.39-.75 0-1.437.39-1.766 1.297L2.25-6.187H.703Zm0 0"/><path id="aj" d="M3.64 0c2.516 0 4.016-1.547 4.016-4.125 0-2.562-1.5-4.11-3.984-4.11H.75V0ZM2.438-1.453v-5.328h1.141c1.578 0 2.406.812 2.406 2.656 0 1.86-.828 2.672-2.421 2.672Zm0 0"/><path id="ak" d="M3.25 0c2.281 0 3.563-1.437 3.563-3.797 0-2.344-1.282-3.765-3.47-3.765H.907V0ZM1.86-.86v-5.843h1.406C5-6.703 5.89-5.61 5.89-3.797 5.89-1.953 5-.859 3.188-.859Zm0 0"/><path id="al" d="M.797 0h.906v-5.672H.797Zm.453-6.594c.344 0 .64-.281.64-.61 0-.343-.296-.609-.64-.609a.614.614 0 0 0-.625.61c0 .328.281.61.625.61m0 0"/><path id="am" d="M2.703.125c1.313 0 2.219-.734 2.219-1.719 0-.781-.484-1.297-1.5-1.531l-.844-.203c-.656-.156-.953-.39-.953-.813 0-.468.5-.828 1.172-.828.734 0 1.047.39 1.203.797l.813-.203c-.25-.797-.86-1.375-2.016-1.375-1.203 0-2.078.688-2.078 1.656 0 .797.484 1.313 1.5 1.547l.937.235c.547.124.828.39.828.78 0 .454-.5.845-1.296.845-.672 0-1.126-.266-1.282-.891l-.86.203c.204.984 1 1.5 2.157 1.5m0 0"/><path id="an" d="M3.156.125c1.156 0 2-.594 2.25-1.437l-.875-.25c-.203.578-.703.875-1.375.875-.984 0-1.672-.657-1.719-1.844H5.5v-.375C5.5-5 4.25-5.75 3.047-5.75 1.516-5.75.516-4.531.516-2.797c0 1.75 1.015 2.922 2.64 2.922M1.437-3.297c.063-.875.657-1.64 1.61-1.64.937 0 1.453.671 1.531 1.64Zm0 0"/><path id="ao" d="M.797 0h.906v-3.547c0-.765.594-1.328 1.406-1.328.235 0 .485.047.532.063v-.922c-.094-.016-.328-.016-.453-.016-.672 0-1.25.375-1.454.953h-.062v-.875H.797Zm0 0"/><path id="ap" d="M3-5.672H1.844v-1.344H.937v1.344H.095v.781h.844v3.485c0 .937.578 1.484 1.546 1.484.235 0 .485-.047.672-.11L2.97-.796a2.6 2.6 0 0 1-.453.063c-.485 0-.672-.235-.672-.735V-4.89H3Zm0 0"/><path id="aq" d="M2.375.125c.938 0 1.469-.5 1.656-.89h.063V0h.89v-3.734c0-1.782-1.343-2.016-2.109-2.016-.86 0-1.828.328-2.266 1.344l.875.297c.172-.391.61-.828 1.422-.828.781 0 1.172.406 1.172 1.109v.031c0 .422-.437.39-1.437.516C1.594-3.156.453-2.906.453-1.61.453-.5 1.297.125 2.375.125m.156-.797c-.687 0-1.172-.312-1.172-.89 0-.657.579-.86 1.235-.954.36-.046 1.344-.14 1.484-.328v.797c0 .688-.547 1.375-1.547 1.375m0 0"/><path id="ar" d="M3.078.125c1.531 0 2.578-1.172 2.578-2.922 0-1.781-1.047-2.953-2.578-2.953S.516-4.578.516-2.797c0 1.75 1.03 2.922 2.562 2.922m0-.812c-1.125 0-1.64-1-1.64-2.11 0-1.14.515-2.125 1.64-2.125 1.14 0 1.656 1 1.656 2.125 0 1.11-.515 2.11-1.656 2.11m0 0"/><path id="as" d="M1.703-3.406c0-.969.61-1.516 1.422-1.516.781 0 1.266.516 1.266 1.39V0h.906v-3.61c0-1.421-.766-2.14-1.906-2.14-.75 0-1.36.328-1.72 1.125v-1.047H.798V0h.906Zm0 0"/><path id="at" d="M2.703.078c.735 0 1.344-.312 1.719-1.14V0h.875v-5.672H4.39v3.406c0 .97-.61 1.516-1.422 1.516-.781 0-1.266-.531-1.266-1.39v-3.532H.797v3.61c0 1.421.766 2.14 1.906 2.14m0 0"/><path id="au" d="M3.406.125c1.406 0 2.375-1.14 2.375-2.953 0-1.781-.984-2.922-2.375-2.922-1.11 0-1.453.688-1.64.984h-.063v-2.796H.797V0h.875v-.875h.094c.187.313.562 1 1.64 1m-.14-.812c-1.016 0-1.578-.875-1.578-2.141 0-1.25.546-2.094 1.578-2.094 1.062 0 1.593.906 1.593 2.094s-.546 2.14-1.593 2.14m0 0"/><path id="av" d="M.797 0h.906v-3.578c0-.89.594-1.36 1.25-1.36.64 0 1.11.422 1.11 1.047V0h.906v-3.703c0-.719.453-1.235 1.218-1.235.594 0 1.125.329 1.125 1.141V0h.907v-3.828c0-1.313-.781-1.953-1.766-1.953-.812 0-1.5.453-1.766 1.172-.203-.703-.703-1.172-1.437-1.172-.656 0-1.297.39-1.578 1.156v-1.047H.797Zm0 0"/><path id="aw" d="M2.906.125c1.063 0 1.438-.687 1.625-1h.11V0h.875v-7.562h-.907v2.796h-.078C4.344-5.062 4-5.75 2.906-5.75 1.5-5.75.516-4.61.516-2.828c0 1.812.984 2.953 2.39 2.953m.125-.812c-1.047 0-1.594-.954-1.594-2.141s.532-2.094 1.594-2.094c1.047 0 1.578.844 1.578 2.094 0 1.265-.546 2.14-1.578 2.14m0 0"/><path id="ax" d="M.797 2.125h.906v-3h.063c.187.313.562 1 1.64 1 1.406 0 2.375-1.14 2.375-2.953 0-1.781-.984-2.922-2.375-2.922-1.11 0-1.453.688-1.64.984h-.094v-.906H.797ZM3.266-.687c-1.016 0-1.578-.875-1.578-2.141 0-1.25.546-2.094 1.578-2.094 1.062 0 1.593.906 1.593 2.094s-.546 2.14-1.593 2.14m0 0"/><path id="ay" d="M2.063.047c.234 0 .484-.047.64-.094l-.172-.765c-.094.015-.172.03-.36.03-.374 0-.468-.187-.468-.702v-6.078H.797v6.296c0 .829.422 1.313 1.265 1.313m0 0"/><path id="az" d="M3.406-5.672H2.11v-.547c0-.547.25-.843.797-.843.25 0 .39.046.5.078l.25-.782a2.1 2.1 0 0 0-.844-.156c-.828 0-1.609.516-1.609 1.5v.75H.093v.781h1.11V0h.906v-4.89h1.297Zm0 0"/><path id="aA" d="M1.703-3.406c0-.969.61-1.516 1.422-1.516.781 0 1.266.516 1.266 1.39V0h.906v-3.61c0-1.421-.766-2.14-1.906-2.14-.735 0-1.328.313-1.688 1.063v-2.875H.797V0h.906Zm0 0"/><path id="aB" d="M5.516 2.125v-7.797H4.64v.906h-.11C4.344-5.062 4-5.75 2.906-5.75 1.5-5.75.516-4.61.516-2.828c0 1.812.984 2.953 2.39 2.953 1.063 0 1.438-.687 1.625-1h.078v3ZM3.03-.687c-1.047 0-1.594-.954-1.594-2.141s.532-2.094 1.594-2.094c1.047 0 1.578.844 1.578 2.094 0 1.265-.546 2.14-1.578 2.14m0 0"/><path id="aC" d="M3.078 2.25c1.36 0 2.438-.64 2.438-2.11v-5.812H4.64v.906h-.079C4.36-5.062 4-5.75 2.923-5.75 1.516-5.75.516-4.61.516-2.86c0 1.782 1.03 2.766 2.375 2.766 1.093 0 1.453-.625 1.64-.953h.078v1.14c0 .938-.64 1.36-1.53 1.36-1 0-1.345-.516-1.579-.844l-.734.47c.343.624 1.062 1.171 2.312 1.171M3.047-.906c-1.063 0-1.61-.813-1.61-1.969 0-1.14.532-2.047 1.61-2.047 1.031 0 1.578.844 1.578 2.047 0 1.234-.562 1.969-1.578 1.969m0 0"/><path id="aD" d="M.906 0h.907v-4.312c0-.594-.016-1.485-.032-2.204.297.891.594 1.766.75 2.204L4.234 0h.829l1.671-4.312c.172-.454.485-1.36.75-2.22a130 130 0 0 0-.03 2.22V0h.937v-7.562H7.03L5.22-2.798c-.157.39-.375 1.125-.563 1.719a26 26 0 0 0-.547-1.719L2.266-7.562H.906Zm0 0"/><path id="aE" d="M3.297.125c1.734 0 2.719-.953 2.719-2.187 0-1.407-1.313-1.86-2.11-2.094l-.75-.203C2.61-4.516 1.72-4.797 1.72-5.58c0-.718.656-1.234 1.625-1.234.89 0 1.562.422 1.64 1.157h.938c-.047-1.14-1.078-2-2.547-2-1.453 0-2.578.843-2.578 2.125 0 1 .703 1.625 1.906 1.968l.906.266c.797.219 1.485.485 1.485 1.219 0 .812-.782 1.344-1.797 1.344-.875 0-1.656-.391-1.735-1.25H.579C.672-.704 1.672.125 3.297.125m0 0"/><path id="aF" d="M3.078.125c1.11 0 2-.61 2.297-1.61l-.86-.25c-.171.61-.671 1.048-1.437 1.048-1.125 0-1.64-1-1.64-2.11 0-1.14.515-2.125 1.64-2.125.75 0 1.25.406 1.406 1l.875-.25c-.312-1-1.187-1.578-2.28-1.578C1.546-5.75.515-4.578.515-2.797c0 1.75 1.03 2.922 2.562 2.922m0 0"/><path id="aG" d="M.797 0h.922v-5.672H.797Zm.469-6.594c.343 0 .64-.281.64-.61 0-.343-.297-.609-.64-.609s-.641.266-.641.61c0 .328.297.61.64.61m0 0"/><path id="aH" d="M1.719-3.406c0-.969.61-1.516 1.422-1.516.797 0 1.28.516 1.28 1.39V0h.923v-3.61c0-1.421-.782-2.14-1.922-2.14-.766 0-1.375.328-1.735 1.125l-.015-1.047H.797V0h.922Zm0 0"/><path id="aI" d="M3.453.11c1.844 0 2.922-.891 2.922-2.266 0-1.266-.984-1.906-2.266-2.203l-.671-.172c-.641-.157-1.22-.39-1.22-.953 0-.5.454-.875 1.235-.875S4.72-6 4.781-5.406h1.485c-.016-1.328-1.11-2.25-2.797-2.25-1.64 0-2.828.906-2.828 2.265 0 1.11.765 1.75 2.03 2.063l.845.203c.812.203 1.297.453 1.297.969 0 .562-.547.953-1.375.953-.829 0-1.454-.375-1.5-1.14h-1.5C.484-.735 1.64.108 3.453.108m0 0"/><path id="aJ" d="M3.469-5.672H2.406v-1.344H.875v1.344H.094v1.156h.781v2.985c0 1.047.625 1.61 1.766 1.61.297 0 .64-.032.984-.142l-.219-1.14c-.11.031-.375.078-.484.078-.375 0-.516-.172-.516-.531v-2.86H3.47Zm0 0"/><path id="aK" d="M2.61.078c.859 0 1.437-.453 1.75-1.25L4.39 0h1.438v-5.672H4.297v3.281c0 .75-.453 1.188-1.094 1.188-.64 0-1.031-.422-1.031-1.125v-3.344H.656v3.61c0 1.328.766 2.14 1.953 2.14m0 0"/><path id="aL" d="M2.719.094c.922 0 1.406-.547 1.61-1h.077V0h1.5v-7.562H4.375v2.843h-.047c-.203-.453-.656-1.031-1.61-1.031-1.265 0-2.312.984-2.312 2.922C.406-.938 1.422.094 2.72.094m.469-1.219c-.782 0-1.22-.703-1.22-1.703s.423-1.703 1.22-1.703c.78 0 1.218.672 1.218 1.703 0 1.015-.437 1.703-1.218 1.703m0 0"/><path id="aM" d="M.61 2.016c.218.078.593.14 1 .14 1.124 0 1.734-.562 2.077-1.484l2.407-6.344H4.5l-1 2.938a16 16 0 0 0-.406 1.484c-.11-.5-.219-.984-.36-1.484l-.953-2.938H.156L2.281.016 2.25.313c-.062.578-.484.765-1.11.593L.954.86Zm0 0"/><path id="aN" d="M.688 0h1.546v-2.469h1.36c1.75 0 2.75-1.047 2.75-2.531 0-1.5-.985-2.562-2.719-2.562H.688Zm1.546-3.719V-6.28h1.11c.953 0 1.39.515 1.39 1.281 0 .75-.437 1.281-1.39 1.281Zm0 0"/><path id="aO" d="M.656 0h1.516v-3.234c0-.703.515-1.172 1.219-1.172.218 0 .515.031.656.062v-1.36a2.6 2.6 0 0 0-.5-.046c-.64 0-1.156.36-1.36 1.063h-.062v-.985H.656Zm0 0"/><path id="aP" d="M3.188.11c1.703 0 2.78-1.172 2.78-2.922S4.892-5.75 3.189-5.75C1.468-5.75.406-4.562.406-2.812S1.47.108 3.188.108m0-1.188c-.813 0-1.22-.75-1.22-1.734 0-1.016.407-1.735 1.22-1.735s1.218.734 1.218 1.734c0 .985-.406 1.735-1.218 1.735m0 0"/><path id="aQ" d="M3.172 2.25c1.594 0 2.75-.766 2.75-2.297v-5.625h-1.5v.953h-.063c-.218-.453-.687-1.031-1.64-1.031-1.25 0-2.313.984-2.313 2.906C.406-.969 1.437-.078 2.72-.078c.922 0 1.36-.469 1.578-.922h.11V.047c0 .734-.47 1.094-1.25 1.094-.735 0-1.094-.328-1.235-.657L.625.86c.25.813 1.125 1.391 2.547 1.391m.031-3.484c-.797 0-1.234-.625-1.234-1.625 0-.97.422-1.672 1.234-1.672.781 0 1.203.672 1.203 1.672 0 1.015-.437 1.625-1.203 1.625m0 0"/><path id="aR" d="M2.234.11c.829 0 1.391-.376 1.657-.891h.046V0h1.454v-3.828c0-1.375-1.188-1.922-2.407-1.922-1.28 0-2.187.563-2.484 1.547l1.406.234c.125-.36.485-.64 1.063-.64s.89.265.89.75v.03c0 .36-.406.407-1.375.5-1.109.11-2.14.47-2.14 1.735C.344-.469 1.156.11 2.234.11m.422-1.063c-.5 0-.844-.235-.844-.672 0-.453.375-.672.938-.766.328-.046.938-.125 1.125-.25v.61c0 .594-.5 1.078-1.219 1.078m0 0"/><path id="aS" d="M.656 0h1.516v-3.437c0-.672.406-1.047.953-1.047.516 0 .875.359.875.906V0h1.469v-3.484c0-.594.36-1 .937-1 .516 0 .907.312.907.953V0h1.515v-3.828c0-1.235-.765-1.938-1.812-1.938-.782 0-1.5.407-1.813 1.282-.266-.86-.734-1.282-1.469-1.282-.671 0-1.312.375-1.609 1.188l-.062-1.094H.656Zm0 0"/><path id="aT" d="M.688 0h1.578v-3.469c0-.453-.047-1.265-.094-2.172.469.938.734 1.485 1.156 2.172L5.5 0h1.734v-7.562H5.656v3.625c0 .5.032 1.312.094 2.062a13.4 13.4 0 0 0-.953-1.86l-2.39-3.827H.686Zm0 0"/><path id="aU" d="M3.219.11c1.312 0 2.219-.61 2.5-1.563l-1.39-.25c-.157.437-.563.672-1.095.672-.765 0-1.28-.485-1.312-1.406h3.875v-.422c0-1.938-1.188-2.891-2.656-2.891C1.469-5.75.406-4.562.406-2.812.406-1.016 1.47.108 3.22.108m-1.297-3.5c.062-.704.5-1.204 1.234-1.204.703 0 1.094.453 1.172 1.203Zm0 0"/><path id="aV" d="M3.64.14c1.891 0 2.985-1.03 2.985-2.39 0-1.531-1.453-2.031-2.328-2.281l-.828-.219c-.61-.172-1.578-.469-1.578-1.328 0-.781.718-1.344 1.78-1.344.985 0 1.72.453 1.813 1.266h1.032C6.469-7.406 5.328-8.36 3.703-8.36 2.11-8.36.875-7.422.875-6.031c0 1.093.766 1.765 2.094 2.14l1 .297c.875.235 1.64.531 1.64 1.328 0 .875-.859 1.47-1.968 1.47-.97 0-1.844-.423-1.922-1.36H.64C.734-.781 1.844.14 3.64.14m0 0"/><path id="aW" d="M2.969.078c.812 0 1.484-.328 1.89-1.234V0h.97v-6.187h-1v3.703c0 1.062-.673 1.672-1.563 1.672-.86 0-1.391-.579-1.391-1.532v-3.843h-1v3.937c0 1.563.844 2.328 2.094 2.328m0 0"/><path id="aX" d="M.875 2.313h1V-.953h.078C2.156-.61 2.563.125 3.75.125c1.531 0 2.61-1.234 2.61-3.203 0-1.953-1.079-3.188-2.626-3.188-1.203 0-1.578.75-1.78 1.079h-.11v-1H.875ZM3.594-.75c-1.125 0-1.735-.953-1.735-2.344 0-1.36.594-2.281 1.735-2.281 1.172 0 1.75 1 1.75 2.281 0 1.313-.594 2.344-1.75 2.344m0 0"/><path id="aY" d="M3.469.125c1.265 0 2.203-.625 2.484-1.562l-.969-.266c-.234.625-.78.953-1.5.953-1.093 0-1.859-.703-1.906-2h4.469v-.422c0-2.281-1.375-3.094-2.688-3.094-1.687 0-2.78 1.329-2.78 3.22 0 1.905 1.109 3.171 2.89 3.171M1.594-3.594c.047-.953.703-1.781 1.765-1.781 1.016 0 1.579.734 1.672 1.781Zm0 0"/><path id="aZ" d="M.875 0h1v-3.875c0-.828.64-1.437 1.531-1.437.266 0 .547.046.61.062v-1c-.125-.016-.36-.016-.516-.016-.734 0-1.375.407-1.594 1.032h-.062v-.953H.875Zm0 0"/><path id="ba" d="M2.656 0h1.047l2.36-6.187H4.984L3.656-2.516c-.187.532-.328 1.079-.469 1.594a23 23 0 0 0-.484-1.594L1.391-6.187H.297Zm0 0"/><path id="bb" d="M.875 0h1v-6.187h-1Zm.5-7.203c.39 0 .703-.281.703-.656 0-.36-.312-.657-.703-.657-.375 0-.687.297-.687.657 0 .375.312.656.687.656m0 0"/><path id="bc" d="M2.969.125c1.453 0 2.453-.781 2.453-1.875 0-.844-.531-1.39-1.656-1.656l-.938-.235c-.719-.171-1.031-.421-1.031-.875 0-.515.547-.906 1.281-.906.797 0 1.14.438 1.313.875l.906-.234c-.281-.86-.953-1.485-2.219-1.485-1.312 0-2.297.75-2.297 1.813 0 .86.547 1.422 1.656 1.687l1.032.235c.61.14.906.422.906.86 0 .5-.547.937-1.406.937-.75 0-1.25-.313-1.422-.985L.594-1.5C.813-.437 1.704.125 2.969.125m0 0"/><path id="bd" d="M3.39.125c1.688 0 2.829-1.266 2.829-3.172 0-1.937-1.14-3.219-2.828-3.219S.578-4.984.578-3.046C.578-1.142 1.703.124 3.391.124m0-.875c-1.234 0-1.796-1.094-1.796-2.297 0-1.234.562-2.328 1.797-2.328 1.25 0 1.812 1.094 1.812 2.328 0 1.203-.562 2.297-1.812 2.297m0 0"/><path id="be" d="M1.547.078a.76.76 0 0 0 .75-.75.75.75 0 0 0-.75-.75.74.74 0 0 0-.75.75c0 .406.328.75.75.75m0-4.484a.75.75 0 0 0 .75-.75.747.747 0 0 0-.75-.735.737.737 0 0 0-.75.735c0 .422.328.75.75.75m0 0"/><path id="bf" d="M1 0h1v-4.703c0-.64-.031-1.61-.047-2.406.328.968.656 1.937.828 2.406L4.656 0h.907l1.843-4.703c.188-.484.532-1.469.828-2.422-.015.86-.03 1.813-.03 2.422V0h1.03v-8.234h-1.5l-2 5.187c-.156.422-.406 1.235-.609 1.875a25 25 0 0 0-.61-1.875l-2.03-5.187H1Zm0 0"/><path id="bg" d="M2.61.14c1.046 0 1.624-.546 1.828-.984h.078V0h.968v-4.078C5.484-6 4-6.266 3.172-6.266c-.953 0-2.016.344-2.5 1.47l.953.312c.203-.422.688-.907 1.578-.907.844 0 1.281.454 1.281 1.22v.03c0 .454-.484.422-1.578.563C1.766-3.438.5-3.172.5-1.766.5-.546 1.438.141 2.61.141m.171-.874c-.75 0-1.281-.328-1.281-.97 0-.702.64-.937 1.36-1.03.374-.047 1.468-.157 1.624-.36v.86c0 .75-.609 1.5-1.703 1.5m0 0"/><path id="bh" d="M.781 2.234c.094.063.375.125.719.125.875 0 1.469-.453 1.86-1.437l2.703-7.11H4.984L3.656-2.515a17 17 0 0 0-.469 1.594c-.156-.515-.296-1.047-.484-1.594L1.391-6.187H.297L2.657.03l-.173.516c-.312.89-.734 1.015-1.343.86l-.11-.032Zm0 0"/><path id="bi" d="M3.563 0C6.078 0 7.5-1.562 7.5-4.14c0-2.548-1.422-4.094-3.828-4.094H1V0ZM2.047-.922v-6.39h1.547c1.922 0 2.89 1.187 2.89 3.171 0 2-.968 3.22-2.984 3.22Zm0 0"/><path id="bj" d="M.281 0h1.125l.797-2.297h3.39L6.423 0h1.11L4.5-8.234H3.281Zm2.235-3.219.593-1.672c.172-.515.422-1.296.782-2.515.343 1.203.578 1.968.78 2.515l.595 1.672Zm0 0"/><path id="bk" d="M3.188.125c1.187 0 1.593-.734 1.796-1.078h.11V0h.968v-8.234h-1v3.047h-.078c-.203-.329-.578-1.079-1.78-1.079C1.655-6.266.577-5.03.577-3.078.578-1.11 1.641.125 3.188.125m.156-.875c-1.156 0-1.75-1.031-1.75-2.344 0-1.281.578-2.281 1.75-2.281 1.14 0 1.734.922 1.734 2.281 0 1.39-.61 2.344-1.734 2.344m0 0"/><path id="bl" d="M1 0h1.047v-4.703c0-.39-.031-1.219-.078-2.281.64 1.156.953 1.703 1.328 2.297l3 4.687h1.25v-8.234H6.484v5.047c0 .437.016 1.14.079 1.937a23 23 0 0 0-.97-1.719L2.235-8.234H1Zm0 0"/><path id="bm" d="M.875 0h1v-3.89c0-.985.656-1.5 1.375-1.5.703 0 1.219.468 1.219 1.14V0h.984v-4.031c0-.782.516-1.36 1.344-1.36.672 0 1.25.36 1.25 1.25V0h1v-4.172c0-1.437-.875-2.125-1.938-2.125-.906 0-1.656.484-1.953 1.266-.218-.766-.765-1.266-1.578-1.266-.734 0-1.422.406-1.734 1.25v-1.14H.875Zm0 0"/><path id="bJ" d="M4.328.11c1.688 0 3.047-1.032 3.328-2.704H6.61C6.375-1.469 5.406-.859 4.33-.859c-1.47 0-2.626-1.157-2.626-3.25 0-2.125 1.14-3.266 2.625-3.266 1.078 0 2.047.594 2.281 1.734h1.047C7.36-7.344 6-8.359 4.328-8.359 2.218-8.36.672-6.734.672-4.11.672-1.5 2.219.109 4.328.109m0 0"/><path id="bK" d="M5.469-3.984H1.844v.922h3.625Zm0 0"/><path id="bL" d="M3.016.11c1.453 0 2.453-.891 2.453-2.47v-5.874H4.422v5.875c0 1.015-.563 1.547-1.406 1.547-.844 0-1.407-.532-1.407-1.547v-.438H.547v.438C.547-.781 1.562.109 3.016.109m0 0"/><path id="bM" d="M1.875-3.703c0-1.063.656-1.656 1.547-1.656.875 0 1.406.562 1.406 1.515V0h1v-3.922c0-1.578-.844-2.344-2.094-2.344-.812 0-1.468.329-1.859 1.157v-3.125h-1V0h1Zm0 0"/><path id="bN" d="M1.875-3.703c0-1.063.656-1.656 1.547-1.656.875 0 1.406.562 1.406 1.515V0h.984v-3.922c0-1.578-.828-2.344-2.078-2.344-.843 0-1.5.36-1.89 1.235l-.016-1.157H.875V0h1Zm0 0"/><path id="bQ" d="M3.313-6.187H2.03v-1.47h-.984v1.47H.109v.859h.938v3.797c0 1.015.625 1.61 1.687 1.61.266 0 .547-.048.75-.11l-.203-.844c-.172.031-.39.063-.515.063-.532 0-.735-.235-.735-.797v-3.72h1.281Zm0 0"/><path id="bR" d="M.594 1.984h.765l.86-3.14h-1.14Zm0 0"/><path id="bS" d="M1.047 0h5.25v-.922H2.5v-.062l1.797-1.922c1.453-1.547 1.86-2.25 1.86-3.14 0-1.298-1.048-2.313-2.516-2.313-1.47 0-2.578 1-2.578 2.453h1.015c0-.922.594-1.532 1.531-1.532.875 0 1.547.532 1.547 1.391 0 .766-.453 1.328-1.375 2.313L1.047-.75Zm0 0"/><path id="bT" d="M3.672.11c1.844 0 2.89-1.547 2.89-4.22 0-2.671-1.062-4.25-2.89-4.25S.782-6.78.782-4.11c0 2.673 1.046 4.22 2.89 4.22m0-.922c-1.203 0-1.875-1.204-1.875-3.297 0-2.11.672-3.328 1.875-3.328S5.547-6.22 5.547-4.11c0 2.093-.672 3.297-1.875 3.297m0 0"/><path id="bn" d="M.328 0h.688l.406-2.375h2.36l.109-.61H1.516l.312-1.89h2.625l.094-.61H1.234Zm0 0"/><path id="bo" d="M1.625.047c.547 0 1.031-.219 1.406-.813L2.906 0h.64l.673-4.125h-.657l-.406 2.469c-.125.718-.656 1.11-1.234 1.11s-.86-.376-.75-1.016l.422-2.563H.922L.5-1.5C.328-.453.813.047 1.625.047m0 0"/><path id="bp" d="M1.172.031c.172 0 .36-.031.484-.062L1.61-.594c-.062.016-.125.031-.265.031-.282 0-.328-.14-.25-.515l.718-4.406h-.656L.391-.906c-.094.594.156.937.78.937m0 0"/><path id="bq" d="M.328 0h.688l.328-1.984H2.53c1.281 0 2-.782 2.157-1.766.171-.984-.297-1.734-1.579-1.734H1.234Zm1.125-2.61.375-2.265h1.14c.891 0 1.126.484 1.032 1.125-.11.64-.516 1.14-1.39 1.14Zm0 0"/><path id="br" d="M.25 0h.656l.422-2.578c.094-.563.594-.953 1.188-.953.172 0 .343.015.39.031l.11-.672h-.328c-.485 0-.97.266-1.188.688h-.031l.093-.641h-.64Zm0 0"/><path id="bs" d="M1.953.094c1.36 0 2.219-1.25 2.219-2.578 0-1.032-.61-1.688-1.61-1.688-1.374 0-2.218 1.266-2.218 2.578 0 1.016.61 1.688 1.61 1.688m0-.594c-.656 0-.937-.484-.937-1.11 0-.906.53-1.968 1.53-1.968.673 0 .97.484.97 1.11 0 .906-.547 1.968-1.563 1.968m0 0"/><path id="bt" d="M2.875-4.125h-.953l.047-.297c.078-.484.297-.719.703-.719.14 0 .36.016.437.032l.188-.563a2 2 0 0 0-.531-.078c-.797 0-1.328.484-1.47 1.344l-.046.281H.422l-.094.547h.844L.5.437c-.062.422-.266.61-.625.61-.062 0-.281-.031-.344-.047l-.172.594c.125.031.282.062.438.062.75 0 1.234-.422 1.375-1.234l.656-4h.953Zm0 0"/><path id="bu" d="M1.969.094c.812 0 1.515-.406 1.828-1.063l-.61-.172C2.97-.734 2.532-.5 2.016-.5 1.25-.5.984-.969.984-1.578c0-.063 0-.14.016-.219 2.031-.016 2.906-.39 2.906-1.281 0-.688-.515-1.125-1.312-1.125-1.25 0-2.25 1.187-2.25 2.625C.344-.531.954.094 1.969.094m-.89-2.39c.187-.673.64-1.329 1.452-1.329.422 0 .719.219.719.531 0 .594-.516.781-2.172.797m0 0"/><path id="bv" d="M1.656.094c.953 0 1.672-.516 1.797-1.203.094-.594-.219-.985-.937-1.157l-.594-.156c-.469-.11-.625-.265-.578-.547.062-.36.484-.64 1-.64.515 0 .687.265.75.562l.61-.11a.6.6 0 0 0-.032-.155c-.14-.5-.531-.86-1.313-.86-.859 0-1.562.469-1.687 1.156-.094.61.219.985.937 1.172l.657.157c.39.093.547.265.5.53-.063.36-.5.657-1.094.657-.469 0-.766-.172-.813-.625l-.64.11c0 .03.015.062.015.093C.312-.266.844.094 1.656.094m0 0"/><path id="bw" d="M-.156 1.328h.5l.922-2.094h-.75Zm0 0"/><path id="bx" d="M.328 0h.703l.516-3.125c.031-.281.094-.797.203-1.578.313.828.469 1.203.656 1.578L3.875 0h.813l.906-5.484H4.89l-.563 3.359c-.047.313-.125.797-.172 1.344-.172-.547-.375-1-.468-1.203l-1.657-3.5h-.797Zm0 0"/><path id="by" d="M2.578.078c1.781 0 2.906-1.687 2.906-3.437 0-1.375-.812-2.203-2.062-2.203C1.64-5.562.516-3.875.516-2.141c0 1.375.812 2.22 2.062 2.22m.031-.656c-.843 0-1.421-.547-1.421-1.578 0-1.36.843-2.766 2.218-2.766.828 0 1.406.547 1.406 1.578 0 1.375-.828 2.766-2.203 2.766m0 0"/><path id="bz" d="M1.875 0h.797l2.906-5.484h-.734l-1.672 3.25c-.188.359-.453.906-.797 1.672-.11-.782-.172-1.266-.25-1.672L1.5-5.484H.766Zm0 0"/><path id="bA" d="M-.156 0h.781l.781-1.531h2.266L3.969 0h.703l-1.11-5.484H2.75Zm1.875-2.14.578-1.11c.187-.375.453-.906.797-1.687.094.812.187 1.359.25 1.687l.219 1.11Zm0 0"/><path id="bB" d="M2.5.094c1.266 0 2.234-.797 2.422-1.938l.594-3.64h-.703l-.579 3.53c-.14.813-.812 1.392-1.718 1.392-.86 0-1.313-.532-1.172-1.344l.593-3.578h-.703L.641-1.891C.453-.766 1.17.094 2.5.094m0 0"/><path id="bC" d="M1.313-2.453c.125-.703.656-1.125 1.265-1.125.547 0 .828.36.719 1L2.875 0h.656l.438-2.594C4.14-3.64 3.64-4.172 2.797-4.172c-.547 0-1 .219-1.36.781l.125-.734h-.64L.234 0h.672Zm0 0"/><path id="bD" d="M.25 0h.656l.688-4.125H.922Zm1.125-4.797c.25 0 .5-.187.531-.437.047-.25-.156-.438-.39-.438a.55.55 0 0 0-.532.438c-.046.234.125.437.391.437m0 0"/><path id="bE" d="M1.438 0h.687l2.266-4.125h-.766L2.344-1.672c-.188.36-.344.703-.485 1.063-.046-.36-.078-.703-.156-1.063l-.469-2.453H.547Zm0 0"/><path id="bF" d="M2.547-4.125h-.844l.156-.969h-.656l-.156.969H.422l-.094.578h.61L.516-1.016c-.11.672.25 1.063.968 1.063.172 0 .36-.031.5-.063l-.046-.562c-.11.015-.25.047-.344.047-.344 0-.453-.156-.39-.531l.405-2.485h.844Zm0 0"/><path id="bG" d="M-.062 1.5c.062.031.25.063.453.063.593 0 1.047-.297 1.406-.954L4.39-4.125h-.766L2.344-1.672c-.188.36-.344.703-.5 1.047-.032-.344-.063-.687-.14-1.047l-.47-2.453H.547l.89 4.14L1.25.36C.969.953.656 1.031.266.938L.187.922Zm0 0"/><path id="bH" d="M.328 0h3.235l.093-.61H1.125l.813-4.874h-.704Zm0 0"/><path id="bI" d="M2.188.094C3.5.094 4.28-1.234 4.28-2.531c0-1.016-.578-1.64-1.484-1.64-.781 0-1.078.484-1.266.718H1.47l.343-2.031h-.656L.234 0h.641l.11-.64h.078c.109.25.328.734 1.125.734M2.094-.5c-.594 0-.906-.422-.906-1.078 0-.953.5-2 1.5-2 .624 0 .921.453.921 1.078 0 .906-.53 2-1.515 2m0 0"/><path id="bO" d="M1.953.094c.797 0 1.5-.438 1.828-1.156l-.61-.22c-.187.438-.64.782-1.218.782-.656 0-.937-.484-.937-1.11 0-.906.53-1.968 1.53-1.968.532 0 .829.281.892.703l.64-.14c-.11-.72-.687-1.157-1.516-1.157-1.374 0-2.218 1.266-2.218 2.578 0 1.016.61 1.688 1.61 1.688m0 0"/><path id="bP" d="M1.766.094c.78 0 1.14-.485 1.328-.735h.078L3.062 0h.641l.688-4.125h-.672l-.11.672h-.046c-.11-.235-.282-.719-1.079-.719-1.015 0-1.89.813-2.093 2.125C.17-.75.75.093 1.766.093M1.984-.5c-.78 0-1.078-.687-.921-1.562.14-.844.625-1.516 1.421-1.516.75 0 1.063.61.907 1.515C3.234-1.14 2.734-.5 1.984-.5m0 0"/><clipPath id="a"><path d="M0 .914h593.832v839.844H0Zm0 0"/></clipPath><clipPath id="b"><path d="M215.816 63.379h162.586v78.406H215.816Zm0 0"/></clipPath><clipPath id="c"><path d="M280 57.668h3V61h-3Zm0 0"/></clipPath><clipPath id="d"><path d="M277 57.668h3.66v4.715H277Zm0 0"/></clipPath><clipPath id="e"><path d="M281.656 58h3.996v4h-3.996Zm0 0"/></clipPath><clipPath id="f"><path d="M275 58h3.66v5H275Zm0 0"/></clipPath></defs><g clip-path="url(#a)"><path fill="#fff" d="M0 .914h593.832v839.844H0Zm0 0"/></g><g clip-path="url(#b)"><path fill="#030405" d="M215.816 101.867V63.52q5.045 0 10.082.003c6.176 7.497 12.344 14.989 18.516 22.485V63.52c3.36 0 6.719.003 10.074 0 .004 12.785 0 25.566.004 38.347-3.363-.004-6.722 0-10.086-.004-6.16-7.484-12.34-14.957-18.484-22.46-.067 6.124-.02 12.253-.043 18.378-.027 1.364.09 2.73-.008 4.086-3.351-.004-6.703 0-10.055 0M304.2 63.523c3.656-.007 7.313 0 10.969-.003 3.219 7.523 6.434 15.042 9.648 22.57 3.254-7.504 6.446-15.04 9.657-22.567q5.49-.005 10.98 0c-5.469 12.782-10.926 25.563-16.387 38.344-2.832-.004-5.664.008-8.492-.004-5.445-12.785-10.914-25.558-16.375-38.34m32.137 38.34 16.383-38.343c2.824 0 5.648.003 8.48 0 5.469 12.777 10.914 25.57 16.387 38.347h-10.98c-3.2-7.535-6.442-15.055-9.637-22.594-3.239 7.524-6.442 15.063-9.664 22.59-3.657.008-7.313.004-10.97 0m-39.081 7.196c2.902 2.992 5.766 6.023 8.652 9.027v-8.219c.598.004 1.192.004 1.79.004 0 4.192.007 8.383-.005 12.578-2.859-3.004-5.753-5.98-8.601-8.992-.043 2.754.015 5.512-.031 8.27q-.885-.007-1.77.003c-.086-4.222-.008-8.445-.035-12.671m11.516 12.668c1.94-4.22 3.93-8.41 5.867-12.633 1.875 4.219 3.793 8.414 5.66 12.633-.652 0-1.3-.004-1.953 0-.43-.957-.844-1.922-1.258-2.887-1.684-.004-3.367 0-5.05 0-.45.96-.888 1.922-1.329 2.887zm5.84-8.579q-.92 2.005-1.833 4.016c1.192-.004 2.387 0 3.578 0-.578-1.34-1.168-2.676-1.746-4.016m34.446-4.101c2.87 3.027 5.765 6.031 8.648 9.047.004-2.742 0-5.485.004-8.223h1.793c-.004 4.192 0 8.387-.004 12.582-2.894-2.988-5.762-6-8.637-9-.015 2.758 0 5.516-.011 8.274-.598 0-1.196-.004-1.793 0q-.024-6.335 0-12.68m-68.703 12.652c1.949-4.195 3.906-8.386 5.859-12.586 1.89 4.2 3.797 8.399 5.66 12.614-.598-.008-1.191.015-1.781-.008-.2.031-.246-.18-.317-.313-.378-.855-.73-1.719-1.12-2.57-1.676.004-3.36.004-5.036 0-.457.96-.883 1.934-1.344 2.89-.644-.003-1.28.016-1.921-.027m5.82-8.539c-.59 1.34-1.215 2.664-1.82 4q1.791.005 3.578.004c-.582-1.34-1.149-2.68-1.758-4.004m80.226-4c.954 1.875 1.739 3.836 2.63 5.742 1.011 2.274 2.058 4.54 3.05 6.825h-1.96c-.423-.965-.829-1.93-1.259-2.891-1.675.004-3.355.004-5.03 0-.458.96-.892 1.93-1.345 2.89-.644-.003-1.289 0-1.933 0 1.941-4.19 3.902-8.374 5.847-12.566m-1.832 8c1.188.004 2.38 0 3.57.004a283 283 0 0 0-1.75-4.012c-.593 1.34-1.222 2.668-1.82 4.008m-122.195-6.172c1.227-1.593 3.887-1.843 5.348-.43.34.31.597.696.844 1.083-.485.285-.973.566-1.45.867-.297-.414-.574-.91-1.097-1.063-.891-.336-2.16.059-2.383 1.07-.172.653.332 1.227.883 1.489 1.129.558 2.433.851 3.367 1.754.87.789 1.129 2.062.906 3.183-.226 1.407-1.402 2.59-2.793 2.891-1.176.27-2.52.063-3.445-.754-.781-.66-1.149-1.66-1.317-2.64.61-.122 1.211-.266 1.825-.391.109.527.152 1.11.515 1.539.696.86 2.145.906 2.906.113.782-.758.766-2.23-.148-2.875-1.144-.836-2.691-.992-3.707-2.031-1.04-.953-1.125-2.711-.254-3.805m11.836-1.07a6.44 6.44 0 0 1 5.031.555c.012.718.004 1.437.008 2.156-1.062-.899-2.476-1.492-3.883-1.242-1.879.254-3.39 1.925-3.61 3.777-.214 1.418.259 2.934 1.321 3.914 1.098 1.078 2.797 1.445 4.258.988.719-.23 1.332-.687 1.906-1.16q.011 1.09.004 2.18c-1.277.7-2.781 1.023-4.222.777-1.696-.23-3.208-1.281-4.149-2.683-1.168-1.73-1.289-4.078-.402-5.95.738-1.539 2.082-2.82 3.738-3.312m10.723-.059c1.547-.39 3.273-.261 4.675.547 1.504.867 2.692 2.352 3.047 4.067.278 1.41.137 2.93-.558 4.203-.942 1.695-2.676 2.957-4.614 3.195-1.882.309-3.855-.348-5.234-1.656-2.2-1.98-2.496-5.68-.691-8.012.832-1.117 2.023-1.98 3.375-2.344m.332 1.668c-1.88.567-3.211 2.508-3.063 4.465.024 2.082 1.738 3.969 3.797 4.223 1.516.219 3.113-.422 4.04-1.645.843-1.035 1.1-2.453.843-3.75-.23-1.226-1.055-2.308-2.125-2.937-1.047-.598-2.344-.692-3.492-.356m59.187-1.613c1.664-.512 3.508-.297 5.024.555.027.719.011 1.441.02 2.164-1.032-.867-2.38-1.457-3.743-1.266-1.934.192-3.535 1.89-3.754 3.797-.203 1.375.227 2.844 1.227 3.824 1.129 1.176 2.957 1.586 4.484 1.032.664-.243 1.234-.676 1.773-1.118.016.727.012 1.457.012 2.18-1.336.738-2.922 1.047-4.422.746-1.785-.305-3.343-1.508-4.218-3.074-.864-1.586-.942-3.555-.278-5.219.7-1.68 2.117-3.09 3.875-3.62m14.946-.056c1.511-.382 3.183-.265 4.562.489a6.5 6.5 0 0 1 2.738 2.875c.766 1.652.75 3.652-.054 5.285a6.43 6.43 0 0 1-3.375 3.035c-1.559.574-3.36.539-4.871-.18-1.536-.738-2.832-2.07-3.293-3.738-.442-1.598-.336-3.41.527-4.855.836-1.395 2.191-2.489 3.766-2.91m.789 1.558c-1.16.2-2.184.95-2.829 1.922-1.207 1.847-.824 4.601.97 5.945 1.64 1.414 4.34 1.254 5.823-.316 1.68-1.625 1.723-4.59.098-6.262-1-1.117-2.605-1.586-4.062-1.289m-106.797-1.547h6.554q-.001.83.004 1.66c-1.582.078-3.172-.074-4.754.055.008.937.004 1.871.004 2.805 1.543.004 3.09-.012 4.633.007-.004.559 0 1.122 0 1.684-1.543.008-3.09 0-4.633.004.004 1.309 0 2.621 0 3.937 1.582.004 3.168 0 4.746 0 0 .567.004 1.133-.004 1.704-2.183-.004-4.363 0-6.546 0-.004-3.954 0-7.903-.004-11.856m41.148 0h1.809c-.008 3.383-.004 6.77 0 10.152 1.16 0 2.32.004 3.48 0q.001.849-.004 1.704a1187 1187 0 0 0-5.273 0c-.02-3.954-.004-7.903-.012-11.856m56.738 0h1.809c-.008 3.95 0 7.899-.004 11.856h-1.8c-.005-3.954.003-7.903-.005-11.856m41.825-.004q.9.005 1.8.004v10.156c1.164-.004 2.325 0 3.485-.004-.004.567 0 1.133-.004 1.704-1.758-.004-3.52-.004-5.277 0-.012-3.954-.004-7.907-.004-11.86m-91.196 17.367c.848-.882 1.727-1.746 2.602-2.609q.804.56 1.61 1.133c-1.11.734-2.208 1.48-3.31 2.23a42 42 0 0 0-.902-.754m45.036-.004c.847-.882 1.726-1.734 2.585-2.601.547.363 1.086.746 1.625 1.129-1.093.703-2.136 1.48-3.246 2.16-.39-.074-.64-.473-.964-.688m-54.829 1.067c2.004 4.41 3.977 8.828 5.961 13.242-.68 0-1.363-.008-2.047.008-.48-.996-.89-2.027-1.336-3.031-1.765-.004-3.539 0-5.304-.004-.473 1.004-.93 2.02-1.399 3.027q-1.012-.006-2.03 0c2.034-4.422 4.112-8.824 6.155-13.242m-.23 4.68c-.563 1.25-1.14 2.5-1.707 3.753h3.75c-.5-1.093-.961-2.207-1.453-3.304-.121-.274-.254-.551-.254-.856-.195.043-.262.246-.336.407m99.93-4.645c2.066 4.371 3.988 8.8 5.972 13.207-.68 0-1.363-.008-2.043.004-.472-.996-.886-2.023-1.332-3.031q-2.657.006-5.312 0c-.461 1.008-.922 2.02-1.395 3.027q-1.01-.006-2.02 0c2.02-4.414 4.102-8.797 6.13-13.207m-1.926 8.398c1.246 0 2.5.004 3.754 0-.617-1.398-1.215-2.804-1.844-4.19-.625 1.401-1.266 2.8-1.91 4.19m-111.195-6.12c.917-1.575 3.039-2.137 4.703-1.528.886.34 1.605 1.078 2.043 1.898-.528.266-1.04.563-1.547.875-.336-.55-.785-1.148-1.485-1.195-.914-.183-2.078.328-2.175 1.352-.102.785.617 1.304 1.257 1.566 1.32.57 2.852.996 3.7 2.258 1 1.559.62 3.848-.825 5.008-1.27 1.078-3.207 1.21-4.66.433-1.172-.625-1.785-1.925-1.972-3.195a45 45 0 0 0 1.921-.418c.094.524.145 1.086.461 1.531.696.985 2.313 1.082 3.137.207.809-.785.793-2.312-.144-2.996-1.2-.894-2.836-1.047-3.91-2.144-.989-.907-1.169-2.504-.505-3.653m100.434-1.277c1.879-.766 4.098-.621 5.844.406.004.75 0 1.5.004 2.254-.946-.773-2.114-1.383-3.371-1.355-1.34-.047-2.653.61-3.48 1.656-.856 1-1.188 2.375-1.032 3.672.125 1.414 1.016 2.703 2.226 3.426.95.57 2.114.714 3.2.523.937-.184 1.734-.75 2.457-1.34v2.293c-1.367.746-2.977 1.086-4.52.805-2.062-.309-3.867-1.766-4.75-3.629-.824-1.828-.742-4.055.238-5.805.72-1.27 1.829-2.343 3.184-2.906m-125.648-.238c1.62.039 3.254-.114 4.855.176 2.035.359 3.809 1.89 4.445 3.847.415 1.301.442 2.723.098 4.035-.437 1.657-1.684 3.024-3.207 3.77-1.934.894-4.121.535-6.184.617-.015-4.148-.003-8.297-.007-12.445m1.898 1.754q-.006 4.452 0 8.918c1.438.023 3.035.011 4.2-.961 2.202-1.649 2.179-5.407-.028-7.04-1.191-.886-2.75-.925-4.172-.917m9.61-1.754h6.859c0 .586 0 1.168.004 1.754h-4.973c-.008.992-.004 1.988-.004 2.976 1.613.004 3.219 0 4.832.004q-.005.886-.004 1.777h-4.824c-.008 1.383-.004 2.774-.004 4.16 1.66-.003 3.317 0 4.973 0 0 .587.004 1.18 0 1.774q-3.434-.006-6.856 0c-.004-4.148 0-8.297-.004-12.445m33.641 0h1.887c0 2.554-.004 5.105 0 7.66.012.816.113 1.719.672 2.363 1.043 1.23 3.246 1.172 4.199-.137.504-.68.558-1.566.562-2.378 0-2.504.004-5.004 0-7.504.63-.008 1.258-.004 1.883-.004-.004 2.777.008 5.554-.004 8.332-.015 1.652-1.058 3.199-2.547 3.89-1.18.563-2.582.594-3.796.137-1.813-.68-3.016-2.598-2.856-4.531.004-2.61 0-5.219 0-7.828m11.707 0c2.012.066 4.125-.246 6.047.531 1.727.723 3.078 2.328 3.43 4.18.297 1.492.183 3.097-.52 4.465a6.15 6.15 0 0 1-3.574 2.96c-1.758.48-3.59.254-5.383.31-.004-4.15.004-8.298 0-12.446m1.895 1.75c-.008 2.972-.004 5.945-.004 8.922 1.05 0 2.136.039 3.136-.344 1.192-.477 2.165-1.508 2.512-2.75.445-1.625.094-3.555-1.21-4.692-1.196-1.082-2.91-1.148-4.434-1.136m9.593-1.742c2.293-.012 4.582-.008 6.875-.008v1.754h-4.984c-.012.992-.004 1.984-.008 2.976 1.613.008 3.223 0 4.84.004q-.005.886-.004 1.777h-4.832c-.004 1.383 0 2.774 0 4.16 1.664-.003 3.324 0 4.988 0q.002.884-.007 1.774c-2.286-.004-4.579-.004-6.864 0 0-4.148 0-8.297-.004-12.437m13.391-.008c1.356.023 2.723-.074 4.07.117 1.418.18 2.625 1.379 2.856 2.789.254 1.273-.106 2.746-1.172 3.566-1.066.899-2.527.965-3.856.914 0 1.684-.003 3.368 0 5.06q-.946-.007-1.894 0c-.004-4.15 0-8.298-.004-12.446m1.898 1.73c-.003 1.301 0 2.598 0 3.903.79-.008 1.637.054 2.36-.325 1.191-.578 1.242-2.578.07-3.203-.742-.398-1.61-.379-2.43-.375m6.543-1.73h1.895v7.68c.023.769.102 1.605.582 2.238.98 1.297 3.203 1.324 4.215.058.539-.632.62-1.511.637-2.308-.004-2.555.003-5.106-.004-7.66.629-.012 1.261-.008 1.89-.008-.004 2.777.008 5.554-.004 8.332-.023 1.613-1.015 3.133-2.457 3.844-1.414.71-3.207.667-4.57-.153-1.289-.762-2.144-2.187-2.176-3.695-.015-2.774-.004-5.55-.008-8.328m11.657 0c1.402.047 2.86-.156 4.215.293 2.117.765 2.804 3.93 1.082 5.441 1.738.594 2.554 2.738 1.882 4.402-.46 1.168-1.582 2.07-2.843 2.211-1.434.188-2.891.055-4.336.098-.004-4.148 0-8.297 0-12.445m1.89 1.715v3.617c.715-.012 1.54.062 2.106-.461.61-.633.64-1.711.199-2.442-.508-.746-1.504-.722-2.305-.714m0 5.207v3.75c1.004-.036 2.149.152 3.008-.5.918-.7.817-2.278-.168-2.868-.86-.496-1.89-.359-2.84-.382m7.403-6.922c.625 0 1.242 0 1.867.004v10.668h3.664q.001.884-.004 1.773c-1.84-.004-3.684-.004-5.52 0-.015-4.148-.003-8.297-.007-12.445m6.797 0c.625 0 1.257-.004 1.886.004 0 4.136-.008 8.27.004 12.402-.629.055-1.262.035-1.887.04-.003-4.153 0-8.298-.003-12.446"/></g><g clip-path="url(#c)"><path fill="#66c0d2" d="M281.922 57.945c.25-.035.508.012.762.012-.028.152-.125.277-.204.406-.445.735-.886 1.469-1.335 2.203a2.8 2.8 0 0 0-.766-.078c.512-.851 1.02-1.699 1.543-2.543m0 0"/></g><path fill="#66c0d2" d="M280.32 66.953c.754-1.016 1.524-2.016 2.282-3.031.261-.004.53.023.765.14a553 553 0 0 1-2.27 3.016c-.257-.043-.515-.082-.777-.125M286.46 74.887a343 343 0 0 1 2.29-1.649c.32.02.668-.02.945.172q-1.194.869-2.394 1.727v-.133c-.278-.043-.559-.078-.84-.117m0 0"/><g clip-path="url(#d)"><path fill="#5bbdd8" d="M279.555 58.012c.273-.043.554-.051.832-.063-.73 1.364-1.453 2.723-2.192 4.078 0-.129.125-.316 0-.41-.175-.043-.36-.043-.539-.05.63-1.188 1.278-2.368 1.899-3.555m0 0"/></g><path fill="#5bbdd8" d="M288.797 80.2c2.344-1.052 4.707-2.067 7.062-3.09.438.132.914-.032 1.34.152-2.765 1.238-5.55 2.433-8.32 3.66-.024-.242-.043-.484-.082-.723m0 0"/><g clip-path="url(#e)"><path fill="#6fc1cd" d="M281.934 61.66c.812-1.187 1.62-2.379 2.449-3.558.246.046.5.078.75.117-.79 1.187-1.621 2.34-2.403 3.531h-.027a7 7 0 0 1-.77-.09m0 0"/></g><path fill="#6fc1cd" d="M282.715 66.95c.805-.993 1.625-1.966 2.433-2.95.262.074.528.105.797.129-.816.984-1.625 1.969-2.441 2.95q-.394-.06-.79-.13M289.195 70.828c.309.063.625.078.938.129-.633.54-1.293 1.047-1.934 1.574h-.015a4 4 0 0 0-1-.082q1.003-.808 2.011-1.62M293.54 75.422a524 524 0 0 1 5.269-2.824c.171.047.386.011.503.175.805.86 1.625 1.707 2.438 2.567-.086-.016-.172-.035-.258-.047a3.5 3.5 0 0 0-.363.402c-.754-.777-1.488-1.57-2.238-2.351-1.399.726-2.77 1.504-4.168 2.21-.391-.085-.801-.011-1.184-.132m0 0"/><g clip-path="url(#f)"><path fill="#57b7d9" d="M277.313 58.297q.414-.089.835-.14c-.664 1.417-1.347 2.823-2.015 4.241-.207-.113-.445-.132-.64-.265.585-1.29 1.218-2.559 1.82-3.836m0 0"/></g><path fill="#76c3c8" d="M284.531 61.363c.711-.949 1.422-1.902 2.149-2.843.238.062.48.12.71.187-.675.934-1.382 1.852-2.081 2.777-.258-.039-.52-.078-.778-.12M288.137 66.508c.3-.024.601.015.886.117-.617.602-1.226 1.203-1.851 1.8-.266-.136-.57-.116-.86-.132.602-.602 1.227-1.184 1.825-1.785M290.719 69.59c.312.012.62.07.922.152-.5.406-1 .817-1.496 1.215h-.012c-.313-.05-.63-.066-.938-.129.504-.414 1.02-.824 1.524-1.238m0 0"/><path fill="#54b1d9" d="M275.02 58.816c.285-.074.566-.152.851-.218-.383.894-.793 1.785-1.18 2.683-.078-.105-.12-.254-.253-.285-.125-.035-.25-.031-.372-.039.325-.71.625-1.43.954-2.14m0 0"/><path fill="#4ea6dc" d="M272.879 59.531c.285-.097.566-.21.851-.304-1.101 2.984-2.226 5.96-3.34 8.937-.019.074-.085.191.012.238 2.633 2.024 5.274 4.04 7.907 6.067q-.347.152-.664.351c-2.614-1.96-5.188-3.968-7.782-5.945-.21-.117-.297-.398-.254-.621 1.094-2.906 2.168-5.817 3.27-8.723m0 0"/><path fill="#4ea6dc" d="M271.05 60.34c.278-.094.536-.348.845-.293-1.028 2.871-2.106 5.73-3.133 8.61 2.914 2.077 5.836 4.148 8.75 6.234-.211.136-.414.277-.617.414-2.899-2.067-5.805-4.13-8.704-6.203-.14-.165-.218-.426-.117-.633.996-2.707 1.98-5.422 2.977-8.13M298.547 83.082c.21-.152.469-.2.723-.168 1.363 2.086 2.738 4.176 4.097 6.262-.094.27-.191.539-.3.804-1.516-2.293-3.012-4.601-4.52-6.898M295.629 84.133q.381-.045.762-.043c1.648 3.11 3.3 6.219 4.941 9.332-.137.223-.27.453-.434.66a2419 2419 0 0 1-5.27-9.95M297.563 84.54c.203-.142.445-.216.695-.204 1.414 2.309 2.847 4.605 4.254 6.922-.125.238-.242.484-.375.719q-2.288-3.718-4.574-7.438m0 0"/><path fill="#8acacf" d="M289.09 59.23c.234.075.46.165.687.258-.644.782-1.293 1.567-1.937 2.356l-.012-.004c-.27-.031-.531-.067-.797-.11.676-.843 1.38-1.664 2.059-2.5m0 0"/><path fill="#a8d7db" d="M289.863 61.625c.469-.508.899-1.05 1.403-1.523.199.105.406.199.601.312-.515.586-1.031 1.172-1.555 1.75-.042-.133-.078-.273-.144-.398-.082-.082-.203-.094-.305-.141m0 0"/><path fill="#5ebed6" d="M278.254 64c.703-1.172 1.418-2.34 2.125-3.512.258-.004.516.012.766.078-.715 1.192-1.438 2.383-2.157 3.57a5 5 0 0 0-.734-.136M301.492 75.293c.086.012.172.031.258.047q1.364 1.436 2.734 2.87c.09.071.09.192.106.298.031.281.066.562.078.847-.145-.046-.23-.18-.332-.28a2553 2553 0 0 0-3.207-3.38c.11-.14.23-.277.363-.402M294.918 78.848c1.105-.465 2.215-.914 3.328-1.368.184.032.406.047.516.223.476.606.957 1.203 1.433 1.809-.164.172-.324.343-.488.511q-.718-.896-1.426-1.804c-.644.246-1.273.539-1.922.773a8 8 0 0 0-1.441-.144m0 0"/><path fill="#50aadc" d="M274.066 60.957c.122.008.247.004.372.04.132.03.175.179.253.284-.984 2.2-1.957 4.407-2.937 6.614 2.312 1.972 4.644 3.925 6.96 5.894.134.121.298.211.388.371a12 12 0 0 0-.711.266c-2.418-2.035-4.832-4.082-7.246-6.121-.102-.153-.165-.38-.09-.555 1-2.27 2.011-4.527 3.011-6.793m0 0"/><path fill="#4da6dc" d="M269.02 61.473c.304-.18.601-.375.921-.532l-2.8 8.192q4.696 3.23 9.406 6.453c-.176.164-.344.336-.531.488-3.149-2.164-6.305-4.32-9.45-6.492-.113-.144-.191-.36-.132-.543.863-2.523 1.722-5.043 2.586-7.566m0 0"/><path fill="#4da6dc" d="M267.168 62.773c.293-.234.59-.453.902-.66-.722 2.664-1.492 5.32-2.21 7.985q5.019 3.065 10.035 6.129-.231.262-.45.543c-3.36-2.043-6.71-4.102-10.066-6.145-.176-.094-.238-.32-.254-.504.672-2.453 1.363-4.898 2.043-7.348m0 0"/><path fill="#4da6dc" d="M265.605 64.082c.239-.207.454-.441.723-.605-.707 2.554-1.476 5.09-2.2 7.64 2.606 1.399 5.208 2.809 7.813 4.211 1.09.594 2.196 1.164 3.27 1.774a9 9 0 0 0-.356.585c-3.722-1.992-7.437-4.011-11.16-6.011-.21-.07-.242-.313-.32-.492.66-2.266 1.32-4.54 1.977-6.809.039-.129.168-.2.253-.293m0 0"/><path fill="#4da6dc" d="m264.566 65.117.149-.031c-.012.16-.047.316-.082.473-.528 2.21-1.059 4.425-1.578 6.64 3.847 2.004 7.699 3.996 11.543 6.008-.094.215-.176.43-.258.645-3.902-2.016-7.793-4.051-11.692-6.075-.242-.101-.37-.418-.296-.66.464-1.926.914-3.851 1.375-5.777.05-.192.058-.418.21-.559.211-.222.407-.457.63-.664m0 0"/><path fill="#4da6dc" d="M262.594 67.457c.187-.242.347-.516.586-.719.078.082.02.192.007.285-.527 2.247-1.082 4.485-1.585 6.735 3.941 1.996 7.886 4 11.836 5.988.261-.078.488-.258.742-.367-.051.21-.098.418-.13.633.009.386-.519.527-.823.414-4.02-2.028-8.036-4.07-12.059-6.098-.203-.07-.238-.305-.324-.473.465-1.921.91-3.843 1.37-5.761.044-.25.243-.43.38-.637m0 0"/><path fill="#4da6dc" d="M261.48 69.11c.079.011.157.027.23.035-.44 2.207-.897 4.406-1.335 6.609 4.207 1.703 8.406 3.422 12.613 5.125l1.008-.55c-.195 1.667.152 3.394 1.035 4.816.188.332.434.625.653.937-.754 2.621-1.465 5.262-2.215 7.887-.09.125-.235.258-.39.293-3.606.125-7.212.258-10.817.36a15 15 0 0 1-.446-.669c3.68-.14 7.364-.238 11.043-.383.395-1.441.809-2.867 1.2-4.308-.43 1.18-.82 2.367-1.243 3.547-.09.125-.242.195-.378.265l-11.282-.574c-.094-.016-.226.02-.261-.098-.114-.21-.22-.422-.332-.629 3.89.192 7.777.395 11.664.59.28-.82.601-1.629.836-2.465-.153.415-.305.825-.489 1.223-.289.313-.715.176-1.082.16-3.855-.308-7.715-.625-11.574-.926-.117-.234-.203-.48-.297-.726 4.14.32 8.281.68 12.422.98.52-1.347 1.082-2.675 1.602-4.023-.528.934-.985 1.894-1.497 2.836-.12.098-.27.207-.433.203q-6.272-.657-12.555-1.309a16 16 0 0 1-.21-.71c1.363.109 2.722.285 4.085.41 2.863.308 5.73.593 8.598.898.25-.539.582-1.039.793-1.598-.2.309-.34.766-.778.762-4.378-.742-8.753-1.5-13.125-2.258a7 7 0 0 1-.128-.73c4.394.762 8.793 1.515 13.183 2.273a147 147 0 0 0 1.285-2.129c-.281.325-.5.7-.777 1.032a1.3 1.3 0 0 1-.363.14l-13.547-2.953c-.024-.242-.047-.484-.059-.726 4.508.98 9.02 1.964 13.528 2.953.402-.516.78-1.059 1.164-1.594-.368.227-.563.738-1.036.766-.109 0-.207-.04-.312-.067-4.242-1.195-8.484-2.394-12.73-3.586-.329-.047-.442-.402-.645-.617-.004-.348.023-.7.043-1.047.281.332.539.684.836.996 4.254 1.211 8.515 2.399 12.765 3.606.38-.38.77-.754 1.13-1.149-.212.192-.497.375-.79.25-3.812-1.222-7.625-2.422-11.418-3.703-.652-.234-1.316-.441-1.945-.73-.305-.118-.152-.493-.129-.735.2-1.293.39-2.586.59-3.875.238-.773.52-1.539.86-2.27.046.005.132.024.175.032a610 610 0 0 1-.96 6.356c3.73 1.296 7.503 2.48 11.265 3.69.59.18 1.168.388 1.762.556.527-.457 1.062-.895 1.597-1.34-.351.117-.664.476-1.066.34-4.317-1.75-8.633-3.512-12.953-5.262a13 13 0 0 1-.215-.39q.54-2.72 1.101-5.434c.204-.48.496-.914.746-1.364M288.648 83.102q.167-.063.332-.114c.153.121.329.215.528.203.152-.03.195.13.254.23-.004.02-.004.06-.008.079.094-.02.183-.04.277-.055.383.235.86.168 1.254.375.485.25 1.07.118 1.555.371-1.094.211-2.184.426-3.285.598 1.562-.148 3.113-.426 4.672-.605.144.011.261.117.39.175 1.801 3.668 3.586 7.34 5.387 11.008-.152.211-.317.414-.48.613-1.813-3.687-3.61-7.382-5.415-11.078-1.066.133-2.14.282-3.21.434-.54.082-1.09.125-1.63.238 1.204-.086 2.403-.14 3.606-.21.188.023.398.14.473.327 1.714 3.825 3.437 7.645 5.156 11.47-.168.187-.348.362-.524.538-1.746-3.875-3.488-7.754-5.234-11.629-.277.016-.555.024-.832.059.094.117.27.172.313.332 1.488 4.144 2.988 8.285 4.484 12.43-.184.168-.375.324-.566.48-1.52-4.176-3.02-8.355-4.524-12.539-1.031-.043-2.062-.039-3.098-.047.59.125 1.188.184 1.774.313.121.078.265.172.312.324q1.508 4.723 3.016 9.45c.367 1.19.777 2.362 1.11 3.562-.2.14-.403.273-.602.41-.301-1.07-.66-2.121-.988-3.18q-1.556-4.868-3.11-9.742c-.031-.07-.035-.192-.14-.192a9 9 0 0 0-.864-.125c.098.11.239.204.258.364 1.113 4.582 2.254 9.16 3.36 13.742q-.336.089-.676.16c-1.118-4.55-2.223-9.113-3.356-13.664-.793-.172-1.582-.352-2.379-.516.332.168.692.27 1.024.43.133.098.242.25.261.414.973 4.645 1.961 9.281 2.93 13.93-.062.172-.14.402-.336.46-1.133.407-2.265.821-3.441 1.079-.988.21-1.985.422-2.992.469a.54.54 0 0 1 .222-.13c1.906-.652 3.805-1.323 5.719-1.976.113-.012.059-.137.05-.207-.937-4.441-1.866-8.887-2.8-13.328-.008-.187-.223-.195-.352-.262-.402-.144-.785-.363-1.207-.449.27.16.641.29.688.64.672 4.59 1.363 9.18 2.023 13.766-.105.141-.156.364-.347.41-1.637.536-3.274 1.083-4.91 1.61-.707.086-1.422.055-2.133.043l.023-.07c2.207-.743 4.426-1.461 6.637-2.192-.66-4.469-1.309-8.941-1.985-13.41-.398-.227-.789-.465-1.183-.684.937-.39 1.816-.937 2.535-1.664a7.5 7.5 0 0 0 1.984-3.468m0 0"/><path fill="#4da6dc" d="M275.758 86.156c.336.367.695.715 1.09 1.02q-.728 4.72-1.461 9.441c-.09.156-.242.344-.442.36-3.254.351-6.504.714-9.761 1.066-.196-.211-.446-.379-.582-.633 3.378-.367 6.753-.75 10.128-1.113.293-1.883.582-3.774.875-5.66.106-.754.266-1.504.313-2.266-.516 2.262-1.102 4.508-1.629 6.766-.02.215-.21.363-.383.457-3.293.273-6.586.535-9.875.804-.129 0-.265.043-.39 0-.18-.187-.325-.406-.504-.593.14-.075.308-.055.46-.075 3.344-.27 6.684-.53 10.024-.816.715-2.922 1.414-5.844 2.137-8.758m0 0"/><path fill="#4da6dc" d="M276.95 87.262c.214.14.421.289.64.418-.434 3.328-.91 6.648-1.36 9.968.016.239-.164.391-.332.52-3 .473-6.007.89-9.007 1.363-.246-.191-.504-.375-.715-.61 3.12-.468 6.242-.929 9.363-1.394.477-3.422.941-6.843 1.41-10.265m0 0"/><path fill="#4da6dc" d="M277.914 87.887c.23.082.45.195.672.3-.332 3.555-.66 7.118-.992 10.68-.094.14-.196.309-.364.36-2.753.527-5.503 1.058-8.253 1.585-.11.012-.239.079-.336-.007a12 12 0 0 1-.711-.496c2.996-.586 5.992-1.157 8.988-1.739.34-3.562.664-7.12.996-10.683M283.188 88.52c.289-.07.57-.18.855-.258.215.027.336.289.352.488.472 4.563.964 9.117 1.43 13.68q-.118.174-.235.355c-2 .582-4.004 1.164-6.008 1.735-.473 0-.95-.086-1.422-.137-.098-.028-.226 0-.3-.086 2.413-.707 4.831-1.395 7.242-2.102-.461-4.445-.938-8.89-1.391-13.34-.172-.117-.348-.222-.524-.335m0 0"/><path fill="#4da6dc" d="M279.09 88.375c.23.047.457.125.687.176-.351 3.8-.726 7.597-1.082 11.398-.007.192-.18.328-.316.434-2.563.55-5.125 1.07-7.688 1.61-.32-.165-.64-.325-.937-.524 2.754-.567 5.504-1.14 8.258-1.719.36-3.793.73-7.582 1.078-11.375m0 0"/><path fill="#4da6dc" d="M280.121 88.625c.23.031.461.063.695.086-.168 4.004-.308 8.012-.48 12.016a.75.75 0 0 1-.29.378c-2.444.606-4.894 1.192-7.343 1.79-.375-.09-.73-.282-1.074-.454 2.672-.664 5.351-1.296 8.023-1.953.16-3.953.305-7.91.47-11.863m0 0"/><path fill="#4da6dc" d="M281.973 88.715c.316-.035.636-.074.949-.137.062.125.152.246.14.39.133 4.38.293 8.755.43 13.13-.113.129-.18.332-.367.375-2.016.57-4.02 1.168-6.035 1.722a13 13 0 0 1-1.399-.3c2.356-.707 4.735-1.36 7.094-2.06-.137-4.269-.285-8.534-.422-12.804-.129-.105-.261-.215-.39-.316m0 0"/><path fill="#4da6dc" d="M281.102 88.73q.344 0 .687-.003c.012 3.953.012 7.91.016 11.863-.004.336.015.672-.008 1-.098.16-.2.36-.41.379-2.16.558-4.324 1.11-6.489 1.668-.105.031-.207-.016-.304-.043-.29-.094-.582-.184-.867-.293v-.086c2.46-.637 4.921-1.262 7.382-1.899 0-4.191-.011-8.386-.007-12.586m0 0"/><path fill="#70c1cb" d="M284.531 61.363c.258.043.52.082.778.121-.645.864-1.293 1.72-1.942 2.578-.234-.117-.504-.144-.765-.14.644-.856 1.28-1.703 1.93-2.559m0 0"/><path fill="#c5e4e7" d="M292.969 61.824c.164-.152.304-.34.508-.449.144.156.293.309.406.484-.426.473-.887.918-1.352 1.352-.039-.246-.14-.484-.383-.598.258-.277.551-.52.82-.789m0 0"/><path fill="#55b3d9" d="M277.656 61.566c.18.008.364.008.54.051.124.094 0 .281 0 .41-1.012 1.907-2.04 3.801-3.06 5.707-.034.075-.1.18-.007.243 1.574 1.57 3.133 3.152 4.723 4.707-.192-.207-.387-.41-.567-.63.242-.226.43-.62.813-.581.09.226.132.484.289.675.101.125.152.278.21.422.137-.03.313-.074.387.086.192.352.461.64.739.922q-.106.104-.211.215a9.5 9.5 0 0 0-1.45.113c-1.859-1.886-3.746-3.738-5.617-5.61-.132-.136-.144-.374-.105-.55 1.098-2.062 2.215-4.121 3.316-6.18M301.629 79.02c.988 1.18 1.98 2.355 2.965 3.527.058.074.14.148.11.254q-.03.433-.075.87c-1.18-1.374-2.328-2.773-3.5-4.155.176-.16.402-.27.5-.496m0 0"/><path fill="#64bfd2" d="M281.934 61.66q.38.065.77.09c-.794 1.188-1.61 2.36-2.419 3.54-.258-.075-.523-.138-.789-.087.817-1.18 1.617-2.367 2.438-3.543m0 0"/><path fill="#97d0d4" d="M289.863 61.625c.102.047.223.059.305.14.066.126.102.266.144.4-.363.405-.726.808-1.085 1.218a.7.7 0 0 1-.172.144c-.016-.207-.032-.41-.051-.617q-.154.007-.3.008c.374-.434.776-.855 1.16-1.293m0 0"/><path fill="#77c4c8" d="M285.148 64c.622-.762 1.254-1.516 1.883-2.27.266.043.528.079.797.11-.621.77-1.25 1.527-1.883 2.289a4.2 4.2 0 0 1-.797-.129m0 0"/><path fill="#53afda" d="m275.473 62.121.02.012c.195.133.433.152.64.265-.86 1.797-1.735 3.586-2.563 5.395 1.985 1.867 3.961 3.754 5.95 5.617.171.172.355.328.515.508a11 11 0 0 0-.789.2c-2.105-1.981-4.207-3.973-6.308-5.958-.094-.137-.114-.324-.102-.484.871-1.86 1.781-3.696 2.637-5.555m0 0"/><path fill="#b2dbdf" d="M291.281 63.46c.278-.292.582-.558.867-.847.243.114.344.352.383.598-.261.246-.508.508-.773.75a6 6 0 0 0-.477-.5m0 0"/><path fill="#80c7cb" d="M288.703 62.918q.149-.001.3-.008c.02.207.036.41.052.617l.004.032q-.949 1.06-1.891 2.12l-.012-.199a3.4 3.4 0 0 0-.691-.062c.734-.844 1.492-1.664 2.238-2.5m0 0"/><path fill="#d4eaed" d="M294.23 63.637c.313-.266.622-.727 1.094-.582.278.168.52.39.785.578.309.246.649.46.93.738-.309.184-.668-.004-1.004.067-.305-.204-.574-.454-.879-.653a3 3 0 0 0-.238.153 2.2 2.2 0 0 0-.688-.301m0 0"/><path fill="#a1d3d8" d="M290.176 64.543c.36-.367.738-.719 1.105-1.082q.253.235.477.5c-.414.402-.817.82-1.246 1.207a1.9 1.9 0 0 0-.336-.625m0 0"/><path fill="#c6e4e7" d="M293.527 64.273c.22-.222.47-.421.703-.636.243.062.477.156.688.3-.285.266-.563.536-.86.79a1.9 1.9 0 0 0-.53-.454m0 0"/><path fill="#58bad8" d="M278.254 64q.37.041.734.137c-.777 1.293-1.566 2.578-2.332 3.875.61.672 1.192 1.37 1.809 2.035-.317-.477-.707-.895-1.035-1.363-.035-.176-.078-.395.05-.543.668-.98 1.348-1.957 2.016-2.938.266-.05.531.012.79.086-.724 1.05-1.446 2.106-2.169 3.156.235.285.457.582.692.871.023-.156-.028-.343.086-.472q.715-.944 1.425-1.89.392.061.778.124c-.516.7-1.051 1.387-1.563 2.09.703.977 1.36 1.98 2.067 2.953-.196-.371-.414-.73-.598-1.11.133-.202.305-.374.508-.507.504.918 1.011 1.84 1.52 2.754-.106-.23-.231-.45-.337-.68.18-.144.309-.457.582-.414.227.016.45.035.672.047l.016.004c.11.402.258.805.328 1.222.012.172.086.333.168.485-.008-.16-.008-.32-.008-.48q.305.027.617.038c.082.293.137.598.153.903.144.02.101-.164.12-.254.024-.02.067-.063.09-.082q.352.089.715.121c-.05.07-.18.121-.152.23.035.25.094.497.129.75.11-.09.219-.18.336-.261.281.039.562.074.84.117v.133q-.245.182-.496.36l-.024.05q.066.328.125.656a7.54 7.54 0 0 0-5.394-2.41q.105-.11.21-.215c-.277-.281-.546-.57-.738-.922-.074-.16-.25-.117-.386-.086-.059-.144-.11-.297-.211-.422-.157-.191-.2-.449-.29-.675-.382-.04-.57.355-.812.582-1.078-1.215-2.14-2.438-3.219-3.649-.156-.14-.171-.398-.117-.586.762-1.277 1.54-2.547 2.305-3.82M301.145 77.637c.128-.196.293-.371.472-.52 1.04 1.172 2.074 2.34 3.117 3.512.024.348.02.695.012 1.039-1.223-1.316-2.394-2.691-3.601-4.031m0 0"/><path fill="#b6dde2" d="M292.723 64.996c.257-.254.539-.48.804-.723.203.122.387.266.532.454-.243.21-.477.441-.727.656a1.2 1.2 0 0 0-.61-.387m0 0"/><path fill="#c0e1e4" d="M296.035 64.438c.336-.07.695.117 1.004-.067.598.434 1.184.883 1.77 1.332-.266 0-.508.125-.75.215.234.195.48.375.691.598-.023.011-.07.039-.09.05-.308-.171-.535-.453-.832-.632-.258-.043-.543-.004-.703.226-.176-.129-.34-.285-.516-.414-.09.067-.175.129-.265.192a8 8 0 0 1-.82-.22c.246-.198.488-.406.742-.6.132-.11.316-.095.476-.126-.23-.191-.465-.379-.707-.555m0 0"/><path fill="#89cace" d="M290.176 64.543c.156.184.262.402.336.625-.496.48-.985.98-1.489 1.457a2.1 2.1 0 0 0-.886-.117c.675-.656 1.363-1.305 2.039-1.965m0 0"/><path fill="#a6d6da" d="M291.684 65.938c.336-.333.695-.626 1.039-.942.238.067.453.195.609.387-.344.297-.668.613-1.012.91-.156-.207-.394-.3-.636-.356M293.64 67.238c.329-.281.673-.543 1.008-.816.282.047.563.113.829.223-.364.285-.711.585-1.075.863-.242-.11-.5-.195-.761-.27m0 0"/><path fill="#74c2c9" d="M286.453 65.418h.012c.23 0 .465.016.691.062l.012.2c-.45.484-.887.984-1.332 1.476-.242-.156-.531-.144-.805-.148.469-.535.957-1.055 1.422-1.59M298.652 71.027c.2-.066.473-.03.618.133.878.883 1.761 1.754 2.636 2.637a3.5 3.5 0 0 0-.465.52c-.867-.868-1.73-1.739-2.605-2.594-1.73.992-3.457 1.996-5.191 2.988-.254-.191-.579-.211-.875-.297 1.953-1.14 3.925-2.262 5.882-3.387m0 0"/><path fill="#acd9dd" d="M298.059 65.918c.242-.09.484-.215.75-.215.421.477.832.961 1.218 1.469.114.16.266.3.309.5-.18.016-.29-.137-.422-.227-.383-.316-.8-.593-1.164-.93-.21-.222-.457-.402-.691-.597m0 0"/><path fill="#b4dbe0" d="M294.648 66.422c.29-.242.582-.469.875-.703.266.09.543.156.82.219-.284.238-.57.48-.866.707a3.8 3.8 0 0 0-.829-.223m0 0"/><path fill="#b0dade" d="M297.125 66.16c.16-.23.445-.27.703-.226.297.18.524.46.832.632.094.059.18.13.262.204a2.3 2.3 0 0 0-.602.402c-.406-.324-.793-.676-1.195-1.012m0 0"/><path fill="#93ced2" d="M290.422 67.066c.414-.39.84-.754 1.262-1.129.242.055.48.149.636.356-.46.406-.902.832-1.363 1.234-.133-.199-.3-.375-.535-.46m0 0"/><path fill="#a0d3d7" d="M298.32 67.172c.176-.168.383-.297.602-.402.398.34.805.668 1.195 1.011-.246.07-.484.168-.703.309-.375-.297-.726-.617-1.094-.918m0 0"/><path fill="#5fbfd5" d="M282.715 66.95q.394.07.789.128a894 894 0 0 1-2.324 2.817c.11.203.218.406.332.609a1.75 1.75 0 0 0-.508.508l-.012.015c-.156-.343-.37-.652-.527-.996 0-.176-.02-.383.12-.515.716-.848 1.411-1.715 2.13-2.567M288.246 78.242c1.774-.933 3.524-1.89 5.293-2.82.383.121.793.047 1.184.133-1.09.613-2.203 1.187-3.305 1.789-.973.511-1.938 1.054-2.926 1.554-.074-.222-.168-.437-.246-.656m0 0"/><path fill="#a2d4d8" d="M297.34 67.055a.565.565 0 0 1 .762.039c.285.277.586.543.867.824-.242.047-.492.137-.614.375-.234-.203-.437-.438-.68-.629-.327.23-.64.488-.976.7-.324-.055-.648-.11-.976-.141.53-.399 1.082-.774 1.617-1.168m0 0"/><path fill="#6cc1ce" d="M283.445 68.785c.52-.601 1.059-1.183 1.586-1.777.274.004.563-.008.805.148-.54.594-1.063 1.196-1.606 1.778-.238-.125-.52-.125-.785-.149m0 0"/><path fill="#77c4c9" d="M290.422 67.066c.234.086.402.262.535.461-.84.754-1.664 1.524-2.508 2.274-.324-.063-.652-.063-.98-.059.972-.898 1.969-1.781 2.953-2.676M299.5 69.36a.98.98 0 0 1 .781-.204c.727.703 1.477 1.383 2.2 2.094.28.508.488 1.055.699 1.594-.625-.543-1.207-1.133-1.817-1.696-.617-.601-1.25-1.18-1.863-1.789m0 0"/><path fill="#96cfd3" d="M293.64 67.238c.262.075.52.16.762.27-.449.36-.886.742-1.343 1.09-.286-.141-.602-.172-.918-.153.496-.41 1.004-.8 1.5-1.207m0 0"/><path fill="#8bcbd0" d="M299.414 68.09c.219-.14.457-.238.703-.309.336.317.77.547.996.965.297.488.633.965.856 1.5-.86-.715-1.703-1.437-2.555-2.156m0 0"/><path fill="#90ccd1" d="M298.355 68.293c.122-.238.372-.328.614-.375.433.418.883.82 1.312 1.238a.98.98 0 0 0-.781.203l-.012.008zm0 0"/><path fill="#92cdd2" d="M294 69.457c.57-.422 1.148-.82 1.723-1.234.328.03.652.086.976.14-.523.383-1.043.782-1.578 1.133-.375-.027-.746-.039-1.121-.039m0 0"/><path fill="#6ec1cd" d="M284.523 70.035c.586-.59 1.192-1.16 1.79-1.742.289.016.593-.004.859.133-.594.582-1.184 1.16-1.79 1.734-.253-.172-.57-.113-.859-.125m0 0"/><path fill="#83c8cc" d="M290.719 69.59c.472-.387.953-.758 1.422-1.145.316-.02.632.012.918.153-.473.379-.942.77-1.418 1.144-.301-.082-.61-.14-.922-.152m0 0"/><path fill="#60bfd4" d="M283.434 68.785h.011c.266.024.547.024.785.149-.546.629-1.117 1.246-1.668 1.875.172.351.368.687.524 1.039.016-.211.016-.473.203-.621.414-.395.82-.801 1.234-1.192.29.012.606-.047.86.125q-.78.761-1.559 1.528.071.258.125.523c-.222-.012-.445-.031-.672-.047-.273-.043-.402.27-.582.414a37 37 0 0 1-.851-1.648c-.012-.18-.004-.387.129-.52.488-.543.98-1.082 1.46-1.625m0 0"/><path fill="#86c9cd" d="M296.438 70.34c.597-.418 1.214-.793 1.816-1.195.18.02.402-.024.535.125.465.437.934.87 1.39 1.316-.179.148-.34.32-.464.52-.39-.36-.77-.731-1.152-1.098-.063-.043-.137-.164-.22-.086-.284.168-.55.367-.835.531-.168-.125-.38-.074-.57-.082-.168-.008-.348.082-.5-.031m0 0"/><path fill="#81c7cb" d="M292.344 70.648c.55-.402 1.11-.793 1.656-1.191.375 0 .746.012 1.121.04-.594.44-1.195.882-1.8 1.3a4.3 4.3 0 0 0-.977-.149m0 0"/><path fill="#6cc1cd" d="M285.305 71.742c.715-.676 1.437-1.34 2.164-2 .328-.004.656-.004.98.059-.762.691-1.515 1.39-2.277 2.086-.254-.176-.574-.125-.867-.145m0 0"/><path fill="#7bc5c9" d="M294.14 71.836a86 86 0 0 1 2.298-1.496c.152.113.332.023.5.031.19.008.402-.043.57.082-.766.504-1.528 1.024-2.309 1.504-.336-.14-.703-.148-1.058-.121m0 0"/><path fill="#75c3c8" d="M299.715 71.105c.125-.199.285-.37.465-.52q.862.823 1.73 1.638a2.8 2.8 0 0 0-.469.515c-.582-.539-1.152-1.09-1.726-1.633m0 0"/><path fill="#71c2ca" d="M288.75 73.238c1.195-.87 2.395-1.722 3.594-2.59.332.016.66.059.976.149a473 473 0 0 1-3.625 2.613c-.277-.191-.625-.152-.945-.172m0 0"/><path fill="#62bfd4" d="M284.242 72.895c.266-.454.7-.786 1.063-1.153.293.02.613-.031.867.145-.395.375-.805.726-1.18 1.12-.008.161.047.317.078.473q-.311-.01-.617-.039c0 .16 0 .32.008.48-.082-.151-.156-.312-.168-.484.008-.183-.035-.363-.05-.542m0 0"/><path fill="#72c2ca" d="M291.348 73.648c.93-.609 1.859-1.218 2.793-1.812.355-.027.722-.02 1.058.121-1.02.684-2.054 1.348-3.082 2.02a4.3 4.3 0 0 0-.77-.329m0 0"/><path fill="#6dc1cd" d="M301.441 72.738c.133-.191.293-.363.47-.515q.742.71 1.491 1.414c.133.105.16.281.207.43.098.328.227.644.278.98-.828-.75-1.63-1.54-2.446-2.309m0 0"/><path fill="#65c0d2" d="M287.184 72.45a4 4 0 0 1 1 .081c-.66.555-1.344 1.086-2.008 1.64l-.028-.003a4.4 4.4 0 0 1-.714-.121c-.024.02-.067.062-.09.082.004-.094-.004-.203.09-.262.578-.48 1.171-.941 1.75-1.418M298.488 75.945c.188-.11.426-.043.598.059.496.566.973 1.152 1.457 1.726-.191.133-.363.29-.523.461-.434-.515-.875-1.03-1.301-1.554-.524.16-1.008.449-1.52.625-.426-.184-.902-.02-1.34-.153.871-.406 1.754-.765 2.63-1.164m0 0"/><path fill="#65bfd2" d="M287.098 76.414c1.41-.926 2.832-1.844 4.25-2.766a4.3 4.3 0 0 1 .77.329c-1.528 1-3.063 1.984-4.579 2.996-.156-.18-.293-.371-.441-.559m0 0"/><path fill="#66c0d1" d="M301.441 74.316c.137-.187.293-.363.465-.52.711.716 1.422 1.423 2.137 2.134.059.058.121.117.137.207.09.375.156.758.222 1.136-.996-.98-1.972-1.972-2.96-2.957m0 0"/><path fill="#69c0d0" d="M294.414 76.348c1.461-.692 2.926-1.36 4.395-2.032.171.043.382.032.496.188.77.875 1.543 1.738 2.312 2.613-.18.149-.344.324-.472.52-.762-.856-1.52-1.719-2.278-2.578-1.039.453-2.05.96-3.09 1.406-.457-.016-.914-.05-1.363-.117m0 0"/><path fill="#62bfd3" d="M287.746 77.3q2.512-1.445 5.024-2.886c.296.086.62.106.875.297-1.856 1.062-3.7 2.137-5.56 3.2q-.169-.306-.339-.61m0 0"/><path fill="#5dbed6" d="M288.54 79.055q2.933-1.365 5.874-2.707c.45.066.906.101 1.363.117a771 771 0 0 1-7.058 3.273q-.076-.345-.18-.683m0 0"/><path fill="#5bbdd7" d="M300.02 78.191c.16-.171.332-.328.523-.46.36.433.723.859 1.086 1.289-.098.226-.324.335-.5.496q-.557-.662-1.11-1.325m0 0"/><path fill="#57b8d9" d="M288.883 81.32a928 928 0 0 1 6.035-2.472q.726.008 1.441.144c-2.496 1.051-5.015 2.067-7.52 3.098q.031-.382.044-.77M297.77 78.89a.68.68 0 0 1 .5.15c.878 1.21 1.757 2.425 2.625 3.636-.188.14-.364.3-.52.48a737 737 0 0 0-2.55-3.543c-3.052 1.13-6.095 2.262-9.15 3.383q.09-.4.15-.8c2.98-1.102 5.964-2.2 8.945-3.305m0 0"/><path fill="#56b6d9" d="M300.195 79.512c.754.965 1.52 1.918 2.282 2.875q-.277.215-.524.465c-.758-.934-1.5-1.883-2.246-2.829.164-.168.324-.34.488-.511m0 0"/><path fill="#56b4d9" d="M288.98 82.988c2.778-.863 5.563-1.715 8.34-2.586.164.075.39.082.477.266.492.754.988 1.5 1.473 2.246a1 1 0 0 0-.723.168c-.422-.64-.848-1.281-1.262-1.926-2.492.75-4.973 1.54-7.46 2.305l-.063-.04c-.059-.1-.102-.26-.254-.23-.2.012-.375-.082-.528-.203m0 0"/><path fill="#54b0d9" d="M296.34 81.914c.18-.062.351.059.508.137.48.754.937 1.523 1.41 2.285a1.13 1.13 0 0 0-.695.203c-.403-.637-.79-1.281-1.18-1.922-1.133.274-2.262.555-3.395.817.254-.004.5-.07.75-.114.594-.11 1.196-.21 1.79-.332.152.086.363.117.437.297q.215.4.426.805-.381-.002-.762.043h-.012a4 4 0 0 0-.222-.414q-1.278.257-2.555.472c-.485-.254-1.07-.12-1.555-.37-.394-.208-.87-.141-1.254-.376 2.094-.535 4.203-1.015 6.309-1.53m0 0"/><path fill="#51acdc" d="M301.953 82.852c.164-.168.34-.32.524-.465q.983 1.236 1.984 2.46c-.004.286-.09.571-.133.856a3 3 0 0 1-.332-.332 106 106 0 0 1-2.043-2.52m0 0"/><path fill="#4fa9dc" d="M300.375 83.156q.236-.27.52-.48c1.046 1.453 2.097 2.894 3.132 4.351-.074.285-.136.578-.238.856-1.14-1.57-2.27-3.153-3.414-4.727m0 0"/><use xlink:href="#g" x="206.739" y="233.892"/><use xlink:href="#h" x="219.74" y="233.892"/><use xlink:href="#i" x="228.802" y="233.892"/><use xlink:href="#j" x="236.676" y="233.892"/><use xlink:href="#k" x="242.257" y="233.892"/><use xlink:href="#l" x="253.348" y="233.892"/><use xlink:href="#m" x="260.822" y="233.892"/><use xlink:href="#n" x="268.928" y="233.892"/><use xlink:href="#o" x="277.157" y="233.892"/><use xlink:href="#p" x="288.641" y="233.892"/><use xlink:href="#n" x="296.315" y="233.892"/><use xlink:href="#q" x="304.544" y="233.892"/><use xlink:href="#r" x="316.009" y="233.892"/><use xlink:href="#s" x="319.721" y="233.892"/><use xlink:href="#t" x="331.783" y="233.892"/><use xlink:href="#j" x="340.116" y="233.892"/><use xlink:href="#i" x="345.168" y="233.892"/><use xlink:href="#u" x="353.042" y="233.892"/><use xlink:href="#u" x="360.445" y="233.892"/><use xlink:href="#v" x="367.848" y="233.892"/><use xlink:href="#w" x="371.43" y="233.892"/><use xlink:href="#i" x="379.118" y="233.892"/><use xlink:href="#x" x="179.337" y="250.769"/><use xlink:href="#y" x="188.159" y="250.769"/><use xlink:href="#i" x="196.388" y="250.769"/><use xlink:href="#u" x="204.262" y="250.769"/><use xlink:href="#v" x="211.665" y="250.769"/><use xlink:href="#u" x="215.247" y="250.769"/><use xlink:href="#x" x="225.783" y="250.769"/><use xlink:href="#v" x="234.606" y="250.769"/><use xlink:href="#z" x="238.188" y="250.769"/><use xlink:href="#A" x="243.028" y="250.769"/><use xlink:href="#i" x="246.876" y="250.769"/><use xlink:href="#B" x="257.883" y="250.769"/><use xlink:href="#v" x="269.119" y="250.769"/><use xlink:href="#z" x="272.701" y="250.769"/><use xlink:href="#y" x="277.542" y="250.769"/><use xlink:href="#p" x="288.93" y="250.769"/><use xlink:href="#C" x="299.737" y="250.769"/><use xlink:href="#m" x="307.112" y="250.769"/><use xlink:href="#j" x="315.218" y="250.769"/><use xlink:href="#D" x="320.283" y="250.769"/><use xlink:href="#i" x="328.061" y="250.769"/><use xlink:href="#q" x="335.935" y="250.769"/><use xlink:href="#l" x="347.4" y="250.769"/><use xlink:href="#v" x="354.874" y="250.769"/><use xlink:href="#n" x="358.456" y="250.769"/><use xlink:href="#i" x="366.685" y="250.769"/><use xlink:href="#E" x="377.678" y="250.769"/><use xlink:href="#j" x="386.424" y="250.769"/><use xlink:href="#i" x="391.489" y="250.769"/><use xlink:href="#p" x="399.495" y="250.769"/><use xlink:href="#F" x="407.169" y="250.769"/><use xlink:href="#G" x="199.526" y="290.074"/><use xlink:href="#H" x="211.467" y="290.074"/><use xlink:href="#I" x="218.889" y="290.074"/><use xlink:href="#J" x="225.866" y="290.074"/><use xlink:href="#K" x="230.058" y="290.074"/><use xlink:href="#L" x="237.764" y="290.074"/><use xlink:href="#M" x="246.455" y="290.074"/><use xlink:href="#N" x="249.656" y="290.074"/><use xlink:href="#O" x="261.193" y="290.074"/><use xlink:href="#J" x="269.674" y="290.074"/><use xlink:href="#P" x="273.998" y="290.074"/><use xlink:href="#Q" x="281.814" y="290.074"/><use xlink:href="#R" x="289.96" y="290.074"/><use xlink:href="#S" x="301.116" y="290.074"/><use xlink:href="#L" x="309.558" y="290.074"/><use xlink:href="#T" x="314.31" y="290.074"/><use xlink:href="#U" x="322.236" y="290.074"/><use xlink:href="#L" x="330.342" y="290.074"/><use xlink:href="#H" x="335.318" y="290.074"/><use xlink:href="#V" x="342.74" y="290.074"/><use xlink:href="#W" x="358.033" y="290.074"/><use xlink:href="#H" x="367.992" y="290.074"/><use xlink:href="#V" x="375.414" y="290.074"/><use xlink:href="#K" x="386.993" y="290.074"/><use xlink:href="#X" x="225.938" y="386.978"/><use xlink:href="#Y" x="232.56" y="386.978"/><use xlink:href="#Z" x="239.508" y="386.978"/><use xlink:href="#aa" x="246.562" y="386.978"/><use xlink:href="#ab" x="256.3" y="386.978"/><use xlink:href="#ac" x="264.068" y="386.978"/><use xlink:href="#ad" x="270.817" y="386.978"/><use xlink:href="#ae" x="275.601" y="386.978"/><use xlink:href="#af" x="285.107" y="386.978"/><use xlink:href="#Y" x="291.513" y="386.978"/><use xlink:href="#aa" x="298.462" y="386.978"/><use xlink:href="#ag" x="305.515" y="386.978"/><use xlink:href="#aa" x="312.674" y="386.978"/><use xlink:href="#ah" x="319.727" y="386.978"/><use xlink:href="#ai" x="326.305" y="386.978"/><use xlink:href="#ac" x="336.644" y="386.978"/><use xlink:href="#aj" x="346.079" y="386.978"/><use xlink:href="#Y" x="354.261" y="386.978"/><use xlink:href="#ac" x="361.209" y="386.978"/><use xlink:href="#ak" x="56.823" y="479.339"/><use xlink:href="#al" x="64.25" y="479.339"/><use xlink:href="#am" x="66.743" y="479.339"/><use xlink:href="#am" x="72.175" y="479.339"/><use xlink:href="#an" x="77.608" y="479.339"/><use xlink:href="#ao" x="83.608" y="479.339"/><use xlink:href="#ap" x="87.648" y="479.339"/><use xlink:href="#aq" x="91.066" y="479.339"/><use xlink:href="#ap" x="96.845" y="479.339"/><use xlink:href="#al" x="100.212" y="479.339"/><use xlink:href="#ar" x="102.705" y="479.339"/><use xlink:href="#as" x="108.876" y="479.339"/><use xlink:href="#am" x="117.87" y="479.339"/><use xlink:href="#at" x="123.302" y="479.339"/><use xlink:href="#au" x="129.388" y="479.339"/><use xlink:href="#av" x="135.69" y="479.339"/><use xlink:href="#al" x="144.706" y="479.339"/><use xlink:href="#ap" x="147.198" y="479.339"/><use xlink:href="#ap" x="150.318" y="479.339"/><use xlink:href="#an" x="153.583" y="479.339"/><use xlink:href="#aw" x="159.583" y="479.339"/><use xlink:href="#al" x="168.808" y="479.339"/><use xlink:href="#as" x="171.3" y="479.339"/><use xlink:href="#ax" x="180.294" y="479.339"/><use xlink:href="#aq" x="186.699" y="479.339"/><use xlink:href="#ao" x="192.478" y="479.339"/><use xlink:href="#ap" x="196.517" y="479.339"/><use xlink:href="#al" x="199.884" y="479.339"/><use xlink:href="#aq" x="202.377" y="479.339"/><use xlink:href="#ay" x="208.156" y="479.339"/><use xlink:href="#az" x="213.914" y="479.339"/><use xlink:href="#at" x="217.723" y="479.339"/><use xlink:href="#ay" x="223.809" y="479.339"/><use xlink:href="#az" x="226.386" y="479.339"/><use xlink:href="#al" x="230.195" y="479.339"/><use xlink:href="#ay" x="232.688" y="479.339"/><use xlink:href="#ay" x="235.522" y="479.339"/><use xlink:href="#av" x="238.356" y="479.339"/><use xlink:href="#an" x="247.372" y="479.339"/><use xlink:href="#as" x="253.372" y="479.339"/><use xlink:href="#ap" x="259.453" y="479.339"/><use xlink:href="#ar" x="265.743" y="479.339"/><use xlink:href="#az" x="271.915" y="479.339"/><use xlink:href="#ap" x="278.647" y="479.339"/><use xlink:href="#aA" x="282.014" y="479.339"/><use xlink:href="#an" x="288.1" y="479.339"/><use xlink:href="#ao" x="297.013" y="479.339"/><use xlink:href="#an" x="300.723" y="479.339"/><use xlink:href="#aB" x="306.723" y="479.339"/><use xlink:href="#at" x="313.025" y="479.339"/><use xlink:href="#al" x="319.111" y="479.339"/><use xlink:href="#ao" x="321.603" y="479.339"/><use xlink:href="#an" x="325.303" y="479.339"/><use xlink:href="#av" x="331.303" y="479.339"/><use xlink:href="#an" x="340.319" y="479.339"/><use xlink:href="#as" x="346.32" y="479.339"/><use xlink:href="#ap" x="352.4" y="479.339"/><use xlink:href="#am" x="355.664" y="479.339"/><use xlink:href="#az" x="364.02" y="479.339"/><use xlink:href="#ar" x="367.51" y="479.339"/><use xlink:href="#ao" x="373.681" y="479.339"/><use xlink:href="#ap" x="380.489" y="479.339"/><use xlink:href="#aA" x="383.856" y="479.339"/><use xlink:href="#an" x="389.942" y="479.339"/><use xlink:href="#aw" x="398.855" y="479.339"/><use xlink:href="#an" x="405.157" y="479.339"/><use xlink:href="#aC" x="411.158" y="479.339"/><use xlink:href="#ao" x="417.47" y="479.339"/><use xlink:href="#an" x="421.169" y="479.339"/><use xlink:href="#an" x="427.17" y="479.339"/><use xlink:href="#ar" x="436.093" y="479.339"/><use xlink:href="#az" x="442.264" y="479.339"/><use xlink:href="#aD" x="448.996" y="479.339"/><use xlink:href="#aq" x="458.294" y="479.339"/><use xlink:href="#am" x="464.073" y="479.339"/><use xlink:href="#ap" x="469.505" y="479.339"/><use xlink:href="#an" x="472.769" y="479.339"/><use xlink:href="#ao" x="478.77" y="479.339"/><use xlink:href="#ar" x="485.557" y="479.339"/><use xlink:href="#az" x="491.728" y="479.339"/><use xlink:href="#aE" x="498.461" y="479.339"/><use xlink:href="#aF" x="505.064" y="479.339"/><use xlink:href="#al" x="510.944" y="479.339"/><use xlink:href="#an" x="513.436" y="479.339"/><use xlink:href="#as" x="519.437" y="479.339"/><use xlink:href="#aF" x="525.518" y="479.339"/><use xlink:href="#an" x="531.397" y="479.339"/><use xlink:href="#aG" x="292.788" y="492.601"/><use xlink:href="#aH" x="295.304" y="492.601"/><use xlink:href="#aI" x="243.246" y="511.53"/><use xlink:href="#aJ" x="250.046" y="511.53"/><use xlink:href="#aK" x="253.85" y="511.53"/><use xlink:href="#aL" x="260.315" y="511.53"/><use xlink:href="#aM" x="266.966" y="511.53"/><use xlink:href="#aN" x="275.68" y="511.53"/><use xlink:href="#aO" x="282.409" y="511.53"/><use xlink:href="#aP" x="286.389" y="511.53"/><use xlink:href="#aQ" x="292.759" y="511.53"/><use xlink:href="#aO" x="299.321" y="511.53"/><use xlink:href="#aR" x="303.404" y="511.53"/><use xlink:href="#aS" x="309.434" y="511.53"/><use xlink:href="#aT" x="321.373" y="511.53"/><use xlink:href="#aR" x="329.289" y="511.53"/><use xlink:href="#aS" x="335.319" y="511.53"/><use xlink:href="#aU" x="344.797" y="511.53"/><use xlink:href="#aV" x="83.861" y="606.045"/><use xlink:href="#aW" x="91.13" y="606.045"/><use xlink:href="#aX" x="97.83" y="606.045"/><use xlink:href="#aY" x="104.767" y="606.045"/><use xlink:href="#aZ" x="111.372" y="606.045"/><use xlink:href="#ba" x="115.819" y="606.045"/><use xlink:href="#bb" x="122.186" y="606.045"/><use xlink:href="#bc" x="124.93" y="606.045"/><use xlink:href="#bd" x="130.91" y="606.045"/><use xlink:href="#aZ" x="137.704" y="606.045"/><use xlink:href="#be" x="141.969" y="606.045"/><use xlink:href="#bf" x="151.379" y="606.045"/><use xlink:href="#bg" x="161.614" y="606.045"/><use xlink:href="#aZ" x="167.975" y="606.045"/><use xlink:href="#bh" x="172.422" y="606.045"/><use xlink:href="#bi" x="181.973" y="606.045"/><use xlink:href="#bd" x="190.15" y="606.045"/><use xlink:href="#aY" x="196.943" y="606.045"/><use xlink:href="#bj" x="206.732" y="606.045"/><use xlink:href="#bk" x="214.549" y="606.045"/><use xlink:href="#ba" x="221.543" y="606.045"/><use xlink:href="#bb" x="227.91" y="606.045"/><use xlink:href="#bc" x="230.654" y="606.045"/><use xlink:href="#aY" x="236.635" y="606.045"/><use xlink:href="#aZ" x="243.24" y="606.045"/><use xlink:href="#bl" x="250.689" y="606.045"/><use xlink:href="#bg" x="259.225" y="606.045"/><use xlink:href="#bm" x="265.587" y="606.045"/><use xlink:href="#aY" x="275.512" y="606.045"/><use xlink:href="#bn" x="151.38" y="618.524"/><use xlink:href="#bo" x="155.582" y="618.524"/><use xlink:href="#bp" x="160.052" y="618.524"/><use xlink:href="#bp" x="162.132" y="618.524"/><use xlink:href="#bq" x="166.334" y="618.524"/><use xlink:href="#br" x="171.158" y="618.524"/><use xlink:href="#bs" x="173.885" y="618.524"/><use xlink:href="#bt" x="178.417" y="618.524"/><use xlink:href="#bu" x="181.016" y="618.524"/><use xlink:href="#bv" x="185.364" y="618.524"/><use xlink:href="#bv" x="189.347" y="618.524"/><use xlink:href="#bs" x="193.33" y="618.524"/><use xlink:href="#br" x="197.863" y="618.524"/><use xlink:href="#bw" x="200.71" y="618.524"/><use xlink:href="#bx" x="204.861" y="618.524"/><use xlink:href="#by" x="210.552" y="618.524"/><use xlink:href="#bz" x="216.071" y="618.524"/><use xlink:href="#bA" x="220.768" y="618.524"/><use xlink:href="#bB" x="228.102" y="618.524"/><use xlink:href="#bC" x="233.719" y="618.524"/><use xlink:href="#bD" x="238.185" y="618.524"/><use xlink:href="#bE" x="240.018" y="618.524"/><use xlink:href="#bu" x="244.112" y="618.524"/><use xlink:href="#br" x="248.46" y="618.524"/><use xlink:href="#bv" x="251.308" y="618.524"/><use xlink:href="#bD" x="255.291" y="618.524"/><use xlink:href="#bF" x="257.124" y="618.524"/><use xlink:href="#bG" x="259.753" y="618.524"/><use xlink:href="#bH" x="266.121" y="618.524"/><use xlink:href="#bD" x="270.391" y="618.524"/><use xlink:href="#bv" x="272.224" y="618.524"/><use xlink:href="#bI" x="276.207" y="618.524"/><use xlink:href="#bs" x="280.836" y="618.524"/><use xlink:href="#bC" x="285.369" y="618.524"/><use xlink:href="#bJ" x="56.754" y="634.425"/><use xlink:href="#bd" x="65.03" y="634.425"/><use xlink:href="#bK" x="71.823" y="634.425"/><use xlink:href="#bc" x="79.17" y="634.425"/><use xlink:href="#aW" x="85.15" y="634.425"/><use xlink:href="#aX" x="91.85" y="634.425"/><use xlink:href="#aY" x="98.787" y="634.425"/><use xlink:href="#aZ" x="105.392" y="634.425"/><use xlink:href="#ba" x="109.839" y="634.425"/><use xlink:href="#bb" x="116.206" y="634.425"/><use xlink:href="#bc" x="118.95" y="634.425"/><use xlink:href="#bd" x="124.931" y="634.425"/><use xlink:href="#aZ" x="131.724" y="634.425"/><use xlink:href="#bc" x="135.989" y="634.425"/><use xlink:href="#be" x="141.969" y="634.425"/><use xlink:href="#bL" x="151.051" y="634.425"/><use xlink:href="#bd" x="157.518" y="634.425"/><use xlink:href="#bM" x="164.311" y="634.425"/><use xlink:href="#bN" x="171.011" y="634.425"/><use xlink:href="#bi" x="180.888" y="634.425"/><use xlink:href="#bd" x="189.065" y="634.425"/><use xlink:href="#aY" x="195.858" y="634.425"/><use xlink:href="#bJ" x="205.647" y="634.425"/><use xlink:href="#bd" x="213.923" y="634.425"/><use xlink:href="#bK" x="220.717" y="634.425"/><use xlink:href="#bj" x="228.064" y="634.425"/><use xlink:href="#bk" x="235.88" y="634.425"/><use xlink:href="#ba" x="242.874" y="634.425"/><use xlink:href="#bb" x="249.242" y="634.425"/><use xlink:href="#bc" x="251.986" y="634.425"/><use xlink:href="#aY" x="257.966" y="634.425"/><use xlink:href="#aZ" x="264.571" y="634.425"/><use xlink:href="#bl" x="272.02" y="634.425"/><use xlink:href="#bg" x="280.556" y="634.425"/><use xlink:href="#bm" x="286.918" y="634.425"/><use xlink:href="#aY" x="296.843" y="634.425"/><use xlink:href="#bA" x="151.38" y="646.904"/><use xlink:href="#bv" x="156.591" y="646.904"/><use xlink:href="#bv" x="160.574" y="646.904"/><use xlink:href="#bs" x="164.557" y="646.904"/><use xlink:href="#bO" x="169.09" y="646.904"/><use xlink:href="#bD" x="173.408" y="646.904"/><use xlink:href="#bP" x="175.241" y="646.904"/><use xlink:href="#bF" x="179.877" y="646.904"/><use xlink:href="#bu" x="182.28" y="646.904"/><use xlink:href="#bq" x="188.751" y="646.904"/><use xlink:href="#br" x="193.575" y="646.904"/><use xlink:href="#bs" x="196.301" y="646.904"/><use xlink:href="#bt" x="200.834" y="646.904"/><use xlink:href="#bu" x="203.425" y="646.904"/><use xlink:href="#bv" x="207.773" y="646.904"/><use xlink:href="#bv" x="211.756" y="646.904"/><use xlink:href="#bs" x="215.74" y="646.904"/><use xlink:href="#br" x="220.272" y="646.904"/><use xlink:href="#bw" x="223.119" y="646.904"/><use xlink:href="#bx" x="227.278" y="646.904"/><use xlink:href="#by" x="232.969" y="646.904"/><use xlink:href="#bz" x="238.487" y="646.904"/><use xlink:href="#bA" x="243.185" y="646.904"/><use xlink:href="#bB" x="250.519" y="646.904"/><use xlink:href="#bC" x="256.136" y="646.904"/><use xlink:href="#bD" x="260.602" y="646.904"/><use xlink:href="#bE" x="262.435" y="646.904"/><use xlink:href="#bu" x="266.529" y="646.904"/><use xlink:href="#br" x="270.877" y="646.904"/><use xlink:href="#bv" x="273.724" y="646.904"/><use xlink:href="#bD" x="277.707" y="646.904"/><use xlink:href="#bF" x="279.54" y="646.904"/><use xlink:href="#bG" x="282.17" y="646.904"/><use xlink:href="#bH" x="288.537" y="646.904"/><use xlink:href="#bD" x="292.808" y="646.904"/><use xlink:href="#bv" x="294.641" y="646.904"/><use xlink:href="#bI" x="298.624" y="646.904"/><use xlink:href="#bs" x="303.253" y="646.904"/><use xlink:href="#bC" x="307.785" y="646.904"/><use xlink:href="#bL" x="151.05" y="663.358"/><use xlink:href="#bd" x="157.517" y="663.358"/><use xlink:href="#bM" x="164.311" y="663.358"/><use xlink:href="#bN" x="171.01" y="663.358"/><use xlink:href="#bi" x="180.888" y="663.358"/><use xlink:href="#bd" x="189.064" y="663.358"/><use xlink:href="#aY" x="195.858" y="663.358"/><use xlink:href="#bd" x="205.647" y="663.358"/><use xlink:href="#bQ" x="212.44" y="663.358"/><use xlink:href="#bM" x="216.147" y="663.358"/><use xlink:href="#aY" x="222.846" y="663.358"/><use xlink:href="#aZ" x="229.452" y="663.358"/><use xlink:href="#bJ" x="236.912" y="663.358"/><use xlink:href="#bd" x="245.188" y="663.358"/><use xlink:href="#bK" x="251.981" y="663.358"/><use xlink:href="#bj" x="259.328" y="663.358"/><use xlink:href="#bk" x="267.145" y="663.358"/><use xlink:href="#ba" x="274.139" y="663.358"/><use xlink:href="#bb" x="280.506" y="663.358"/><use xlink:href="#bc" x="283.25" y="663.358"/><use xlink:href="#aY" x="289.23" y="663.358"/><use xlink:href="#aZ" x="295.836" y="663.358"/><use xlink:href="#bl" x="303.285" y="663.358"/><use xlink:href="#bg" x="311.821" y="663.358"/><use xlink:href="#bm" x="318.183" y="663.358"/><use xlink:href="#aY" x="328.107" y="663.358"/><use xlink:href="#bn" x="151.38" y="675.838"/><use xlink:href="#bo" x="155.582" y="675.838"/><use xlink:href="#bp" x="160.052" y="675.838"/><use xlink:href="#bp" x="162.132" y="675.838"/><use xlink:href="#bq" x="166.334" y="675.838"/><use xlink:href="#br" x="171.158" y="675.838"/><use xlink:href="#bs" x="173.885" y="675.838"/><use xlink:href="#bt" x="178.417" y="675.838"/><use xlink:href="#bu" x="181.016" y="675.838"/><use xlink:href="#bv" x="185.364" y="675.838"/><use xlink:href="#bv" x="189.347" y="675.838"/><use xlink:href="#bs" x="193.33" y="675.838"/><use xlink:href="#br" x="197.863" y="675.838"/><use xlink:href="#bw" x="200.71" y="675.838"/><use xlink:href="#bx" x="204.861" y="675.838"/><use xlink:href="#by" x="210.552" y="675.838"/><use xlink:href="#bz" x="216.071" y="675.838"/><use xlink:href="#bA" x="220.768" y="675.838"/><use xlink:href="#bB" x="228.102" y="675.838"/><use xlink:href="#bC" x="233.719" y="675.838"/><use xlink:href="#bD" x="238.185" y="675.838"/><use xlink:href="#bE" x="240.018" y="675.838"/><use xlink:href="#bu" x="244.112" y="675.838"/><use xlink:href="#br" x="248.46" y="675.838"/><use xlink:href="#bv" x="251.308" y="675.838"/><use xlink:href="#bD" x="255.291" y="675.838"/><use xlink:href="#bF" x="257.124" y="675.838"/><use xlink:href="#bG" x="259.753" y="675.838"/><use xlink:href="#bH" x="266.121" y="675.838"/><use xlink:href="#bD" x="270.391" y="675.838"/><use xlink:href="#bv" x="272.224" y="675.838"/><use xlink:href="#bI" x="276.207" y="675.838"/><use xlink:href="#bs" x="280.836" y="675.838"/><use xlink:href="#bC" x="285.369" y="675.838"/><use xlink:href="#bL" x="257.446" y="768.112"/><use xlink:href="#bg" x="263.913" y="768.112"/><use xlink:href="#bN" x="270.275" y="768.112"/><use xlink:href="#aW" x="276.969" y="768.112"/><use xlink:href="#bg" x="283.669" y="768.112"/><use xlink:href="#aZ" x="290.031" y="768.112"/><use xlink:href="#bh" x="294.477" y="768.112"/><use xlink:href="#bR" x="300.845" y="768.112"/><use xlink:href="#bS" x="307.071" y="768.112"/><use xlink:href="#bT" x="314.418" y="768.112"/><use xlink:href="#bT" x="321.764" y="768.112"/><use xlink:href="#bT" x="329.111" y="768.112"/></svg>