<svg xmlns="http://www.w3.org/2000/svg" xmlns:xlink="http://www.w3.org/1999/xlink" width="793.701" height="1122.52" viewBox="0 0 595.276 841.89"><defs><symbol overflow="visible" id="i"><path style="stroke:none" d="M4.469-27.328h9.672c3.175 0 5.656.324 7.437.969 1.79.636 3.3 1.742 4.531 3.312 1.844 2.356 2.766 5.371 2.766 9.047 0 3.938-1.059 7.188-3.172 9.75C23.391-1.414 19.68 0 14.578 0H4.468Zm3.593 3.39V-3.39h6.016c7.145 0 10.719-3.504 10.719-10.515 0-3.594-.899-6.16-2.688-7.703-1.793-1.551-4.777-2.328-8.953-2.328Zm0 0"/></symbol><symbol overflow="visible" id="j"><path style="stroke:none" d="M30.406-13.594c0 4.45-1.277 8-3.828 10.656-2.543 2.657-5.95 3.985-10.219 3.985-4.062 0-7.308-1.285-9.734-3.86C4.207-5.394 3-8.848 3-13.171c0-4.457 1.281-8.039 3.844-10.75 2.562-2.707 5.953-4.062 10.172-4.062 4.082 0 7.332 1.304 9.75 3.906 2.425 2.594 3.64 6.09 3.64 10.484Zm-4.047.156c0-7.55-3.183-11.328-9.547-11.328-3.054 0-5.445 1-7.171 3-1.73 2-2.594 4.778-2.594 8.328 0 3.586.832 6.356 2.5 8.313 1.664 1.96 4.02 2.938 7.062 2.938 3.082 0 5.477-.985 7.188-2.954 1.707-1.976 2.562-4.742 2.562-8.296Zm0 0"/></symbol><symbol overflow="visible" id="k"><path style="stroke:none" d="M28.047-20.36h-4.188c-1.105-2.882-3.601-4.328-7.484-4.328-3.012 0-5.367.985-7.063 2.954-1.699 1.968-2.546 4.71-2.546 8.218 0 3.555.851 6.329 2.562 8.329 1.719 2 4.094 3 7.125 3 3.781 0 6.285-1.493 7.516-4.485h4.437c-1.605 5.149-5.636 7.719-12.093 7.719-4.18 0-7.493-1.32-9.938-3.969-2.438-2.656-3.656-6.238-3.656-10.75 0-4.394 1.242-7.867 3.734-10.422 2.5-2.55 5.883-3.828 10.156-3.828 3.07 0 5.63.68 7.672 2.031 2.051 1.356 3.305 3.2 3.766 5.532Zm0 0"/></symbol><symbol overflow="visible" id="l"><path style="stroke:none" d="M24.844-27.328v3.39h-9.75V0h-3.61v-23.938h-9.78v-3.39Zm0 0"/></symbol><symbol overflow="visible" id="m"><path style="stroke:none" d="M4.703-27.328h7.75c6.602 0 9.906 2.297 9.906 6.89 0 3.938-1.882 6.29-5.64 7.047l-.485.094.47.125c1.968.469 3.257 1.078 3.874 1.828.625.742 1.39 2.602 2.297 5.578L24-2.046c.176.616.398 1.296.672 2.046h-3.828a32.598 32.598 0 0 1-.547-1.688l-1.172-4.03c-.656-2.302-1.547-3.891-2.672-4.766-1.117-.875-2.805-1.313-5.062-1.313l-3.079-.015V0H4.704Zm3.61 3.36v9.046h3.906c4.32 0 6.484-1.504 6.484-4.515 0-3-2.328-4.5-6.984-4.5Zm0 0"/></symbol><symbol overflow="visible" id="n"><path style="stroke:none" d="M16.86-27.39 27.25 0h-3.969l-2.625-7.25H8.453L5.813 0h-3.97L12.25-27.39Zm2.624 17.046-4.937-14.36-4.953 14.36Zm0 0"/></symbol><symbol overflow="visible" id="o"><path style="stroke:none" d="M19.563-27.328v3.39h-11.5v8.11h11.234v3.39H8.062v8.907h11.813V0H4.469v-27.328Zm0 0"/></symbol><symbol overflow="visible" id="p"><path style="stroke:none" d="M4.61-27.328h6.624c3.989 0 6.883.672 8.688 2.015 1.8 1.344 2.703 3.5 2.703 6.47 0 5.718-3.48 8.577-10.438 8.577l-3.984-.03V0H4.61Zm3.593 3.39v10.282l3.703-.016c4.664 0 7-1.687 7-5.062 0-3.47-2.261-5.203-6.781-5.203Zm0 0"/></symbol><symbol overflow="visible" id="q"><path style="stroke:none" d="M28.594-13.188v11.97l-.5.202c-3.68 1.383-7.297 2.079-10.86 2.079-4.46 0-7.976-1.29-10.547-3.875-2.562-2.594-3.843-6.133-3.843-10.626 0-4.457 1.281-7.992 3.844-10.609 2.57-2.613 6.062-3.922 10.468-3.922 6.157 0 9.922 2.32 11.297 6.953H24.36l-.203-.406C23-23.648 20.613-24.766 17-24.766c-3.156 0-5.633.985-7.422 2.953-1.793 1.961-2.687 4.653-2.687 8.079 0 3.656.972 6.496 2.921 8.515 1.946 2.024 4.688 3.032 8.22 3.032 1.843 0 4.015-.383 6.515-1.157l.797-.234v-6.516h-5.938v-3.094Zm0 0"/></symbol><symbol overflow="visible" id="r"><path style="stroke:none" d="M34.828-27.328 37.281 0h-3.703l-1.687-23.406L22.547 0h-3.985L9.204-23.406 7.531 0H3.828l2.438-27.328h5.046l9.235 23.344 9.25-23.344Zm0 0"/></symbol><symbol overflow="visible" id="u"><path style="stroke:none" d="M5.25 3.375 2-4l3.25-7.36h-.797L.843-4l3.61 7.375Zm0 0"/></symbol><symbol overflow="visible" id="F"><path style="stroke:none" d="m5.25-4-3.61-7.36H.845L4.094-4 .844 3.375h.797Zm0 0"/></symbol><symbol overflow="visible" id="v"><path style="stroke:none" d="M1 0h2.453v-3.75h2.063c2.656 0 4.218-1.594 4.218-3.906 0-2.297-1.53-3.922-4.156-3.922H1Zm2.453-5.719v-3.86H5.11c1.407 0 2.094.767 2.094 1.923 0 1.14-.687 1.937-2.078 1.937Zm0 0"/></symbol><symbol overflow="visible" id="w"><path style="stroke:none" d="M3.375-5.016c0-1.125.688-1.78 1.672-1.78s1.547.624 1.547 1.687V0H9v-5.531c.016-2.032-1.188-3.266-3-3.266-1.313 0-2.203.625-2.594 1.64h-.11v-4.421H.97V0h2.406Zm0 0"/></symbol><symbol overflow="visible" id="x"><path style="stroke:none" d="M5.11 0c3.53 0 5.671-2.188 5.671-5.797 0-3.61-2.14-5.781-5.64-5.781H1V0ZM3.452-2.094v-7.39h1.563c2.171 0 3.328 1.109 3.328 3.687S7.188-2.094 5.016-2.094Zm0 0"/></symbol><symbol overflow="visible" id="y"><path style="stroke:none" d="M.969 0h2.406v-4.922c0-1.062.781-1.797 1.844-1.797.328 0 .781.063 1.015.125v-2.14a3.97 3.97 0 0 0-.765-.079c-.969 0-1.766.563-2.078 1.641h-.094v-1.516H.969Zm0 0"/></symbol><symbol overflow="visible" id="z"><path style="stroke:none" d="M4.89.172c2.626 0 4.266-1.813 4.266-4.484 0-2.688-1.64-4.485-4.265-4.485C2.25-8.797.609-7 .609-4.312.61-1.642 2.25.171 4.891.171Zm0-1.875c-1.202 0-1.827-1.11-1.827-2.625 0-1.516.624-2.64 1.828-2.64 1.203 0 1.828 1.124 1.828 2.64S6.094-1.703 4.89-1.703Zm0 0"/></symbol><symbol overflow="visible" id="A"><path style="stroke:none" d="M4.875 3.438c2.484 0 4.25-1.126 4.25-3.36v-8.765h-2.39v1.453H6.64c-.329-.704-1.032-1.563-2.485-1.563C2.25-8.797.641-7.312.641-4.359c0 2.89 1.562 4.234 3.515 4.234 1.39 0 2.172-.688 2.485-1.406h.109V.047c0 1.203-.766 1.656-1.813 1.656-1.062 0-1.609-.453-1.796-.984l-2.235.297c.281 1.375 1.625 2.421 3.969 2.421Zm.047-5.376c-1.172 0-1.828-.937-1.828-2.437 0-1.469.64-2.516 1.828-2.516 1.172 0 1.828 1 1.828 2.516 0 1.531-.656 2.438-1.828 2.438Zm0 0"/></symbol><symbol overflow="visible" id="B"><path style="stroke:none" d="M3.438.156c1.28 0 2.109-.547 2.546-1.36h.063V0h2.281v-5.86c0-2.077-1.75-2.937-3.687-2.937-2.079 0-3.454.985-3.782 2.578l2.235.172c.156-.578.672-1 1.531-1 .828 0 1.297.422 1.297 1.125v.047c0 .547-.594.625-2.11.766-1.718.171-3.265.75-3.265 2.687C.547-.703 1.78.156 3.437.156ZM4.125-1.5c-.734 0-1.266-.344-1.266-1 0-.688.563-1.016 1.407-1.14.53-.063 1.39-.188 1.671-.391v.922c0 .921-.75 1.609-1.812 1.609Zm0 0"/></symbol><symbol overflow="visible" id="C"><path style="stroke:none" d="M.969 0h2.406v-5.219c0-.953.61-1.593 1.406-1.593.797 0 1.328.546 1.328 1.39V0h2.329v-5.313c0-.89.515-1.5 1.406-1.5.765 0 1.344.485 1.344 1.438V0h2.406v-5.844c0-1.875-1.125-2.953-2.75-2.953-1.266 0-2.25.64-2.61 1.64h-.093c-.282-1-1.172-1.64-2.36-1.64-1.172 0-2.062.625-2.422 1.64h-.093v-1.53H.969Zm0 0"/></symbol><symbol overflow="visible" id="D"><path style="stroke:none" d="M10.703-11.578H8.266v7.281h-.11l-5-7.281H1V0h2.453v-7.297h.094L8.578 0h2.125Zm0 0"/></symbol><symbol overflow="visible" id="E"><path style="stroke:none" d="M4.922.172c2.14 0 3.594-1.047 3.937-2.656l-2.234-.157c-.234.672-.86 1.016-1.672 1.016-1.203 0-1.969-.797-1.969-2.094v-.015h5.922v-.657c0-2.953-1.781-4.406-4.078-4.406-2.562 0-4.219 1.813-4.219 4.5C.61-1.547 2.25.172 4.922.172Zm-1.938-5.39C3.047-6.204 3.797-7 4.86-7c1.047 0 1.782.75 1.782 1.781Zm0 0"/></symbol><symbol overflow="visible" id="G"><path style="stroke:none" d="M7.297-8.25H9.64c-.032-2.063-1.735-3.5-4.313-3.5-2.547 0-4.406 1.406-4.39 3.516 0 1.703 1.203 2.687 3.156 3.156l1.265.312c1.266.313 1.954.672 1.97 1.454-.016.843-.813 1.421-2.063 1.421C4-1.89 3.078-2.484 3-3.64H.64C.704-1.125 2.485.156 5.298.156c2.828 0 4.5-1.343 4.5-3.469 0-1.921-1.453-2.953-3.469-3.406l-1.047-.25c-1-.218-1.843-.593-1.828-1.437 0-.735.656-1.281 1.86-1.281 1.171 0 1.89.53 1.984 1.437Zm0 0"/></symbol><symbol overflow="visible" id="H"><path style="stroke:none" d="M.969 3.266h2.406v-4.657h.063C3.78-.67 4.516.141 5.905.141c1.985 0 3.532-1.563 3.532-4.47 0-2.984-1.61-4.468-3.516-4.468-1.453 0-2.156.86-2.484 1.563h-.094v-1.454H.969Zm2.344-7.61c0-1.547.656-2.547 1.828-2.547 1.203 0 1.828 1.047 1.828 2.547 0 1.516-.64 2.563-1.828 2.563-1.157 0-1.829-1.016-1.829-2.563Zm0 0"/></symbol><symbol overflow="visible" id="I"><path style="stroke:none" d="M4.89.172c2.313 0 3.766-1.36 3.876-3.36H6.5c-.14.938-.766 1.454-1.578 1.454-1.125 0-1.86-.954-1.86-2.61 0-1.64.735-2.578 1.86-2.578.875 0 1.437.578 1.578 1.453h2.266C8.672-7.484 7.14-8.797 4.875-8.797c-2.64 0-4.266 1.828-4.266 4.485C.61-1.672 2.22.171 4.891.171Zm0 0"/></symbol><symbol overflow="visible" id="J"><path style="stroke:none" d="M.969 0h2.406v-8.688H.969Zm1.203-9.813c.719 0 1.312-.546 1.312-1.218 0-.672-.593-1.219-1.312-1.219-.719 0-1.297.547-1.297 1.219s.578 1.219 1.297 1.219Zm0 0"/></symbol><symbol overflow="visible" id="K"><path style="stroke:none" d="M3.375-11.578H.969V0h2.406Zm0 0"/></symbol><symbol overflow="visible" id="L"><path style="stroke:none" d="M.922 0h7.297v-1.922h-4.14v-.062l4-5.141v-1.563H1.061v1.922h4.11v.063L.922-1.437Zm0 0"/></symbol><symbol overflow="visible" id="M"><path style="stroke:none" d="M5.578-8.688H3.953v-2.078H1.531v2.079H.344v1.812H1.53v4.516C1.531-.656 2.688.187 4.438.125a4.803 4.803 0 0 0 1.296-.234L5.36-1.906c-.109.031-.375.078-.593.078-.485 0-.813-.172-.813-.844v-4.203h1.625Zm0 0"/></symbol><symbol overflow="visible" id="N"><path style="stroke:none" d="M3.375-5.016c0-1.125.672-1.78 1.64-1.78.97 0 1.548.624 1.548 1.687V0h2.406v-5.531c0-2.032-1.188-3.266-3-3.266-1.282 0-2.219.625-2.61 1.64h-.093v-1.53H.969V0h2.406Zm0 0"/></symbol><symbol overflow="visible" id="O"><path style="stroke:none" d="M2.453 3.266c1.781 0 2.735-.922 3.235-2.329l3.375-9.624H6.515L4.687-2.314H4.61L2.813-8.686H.265L3.39.25 3.25.61c-.313.828-.922.859-1.781.593L.937 3.016c.344.14.907.25 1.516.25Zm0 0"/></symbol><symbol overflow="visible" id="P"><path style="stroke:none" d="m3 0 .86-2.64h4.187L8.907 0h2.624l-4-11.578H4.375L.375 0Zm1.484-4.547 1.422-4.39H6l1.422 4.39Zm0 0"/></symbol><symbol overflow="visible" id="Q"><path style="stroke:none" d="M3.094-11.578H.375L4.375 0h3.156l4-11.578H8.812L6-2.781h-.094Zm0 0"/></symbol><symbol overflow="visible" id="R"><path style="stroke:none" d="M1 0h7.422v-2.016H3.453v-9.562H1Zm0 0"/></symbol><symbol overflow="visible" id="S"><path style="stroke:none" d="M4.156.14c1.407 0 2.14-.812 2.469-1.53h.11V0h2.374v-11.578H6.703v4.344h-.078c-.313-.704-1.016-1.563-2.469-1.563C2.25-8.797.641-7.312.641-4.328.64-1.422 2.187.14 4.156.14Zm.766-1.921c-1.172 0-1.828-1.047-1.828-2.563 0-1.5.64-2.547 1.828-2.547 1.172 0 1.828 1 1.828 2.547 0 1.547-.656 2.563-1.828 2.563Zm0 0"/></symbol><symbol overflow="visible" id="T"><path style="stroke:none" d="M3.453-11.578H1V0h2.453Zm0 0"/></symbol><symbol overflow="visible" id="U"><path style="stroke:none" d="M8.188-6.203c-.22-1.61-1.5-2.594-3.704-2.594-2.218 0-3.687 1.031-3.671 2.703-.016 1.297.812 2.14 2.5 2.485l1.515.296c.75.157 1.094.422 1.11.86-.016.515-.563.89-1.407.89-.86 0-1.437-.375-1.578-1.078l-2.375.125C.797-.859 2.218.172 4.516.172c2.25 0 3.859-1.156 3.875-2.86-.016-1.265-.829-2.015-2.516-2.359l-1.578-.312c-.797-.172-1.094-.454-1.094-.875 0-.516.578-.86 1.328-.86.844 0 1.328.453 1.453 1.016Zm0 0"/></symbol><symbol overflow="visible" id="V"><path style="stroke:none" d="M9.063-8.688H6.515l-1.797 6.22h-.094l-1.813-6.22H.267L3.312 0h2.72Zm0 0"/></symbol><symbol overflow="visible" id="W"><path style="stroke:none" d="M.563-9.563h3.546V0h2.422v-9.563h3.547v-2.015H.563Zm0 0"/></symbol><symbol overflow="visible" id="X"><path style="stroke:none" d="M2.672 0h2.547l1.5-5.469h.11L8.312 0h2.546l2.36-8.688h-2.422L9.469-2.89H9.39L7.969-8.687h-2.39L4.171-2.845h-.078L2.75-8.688H.312Zm0 0"/></symbol><symbol overflow="visible" id="Y"><path style="stroke:none" d="M1 0h2.453v-4.781h4.719v-2.016H3.453v-2.766h5.219v-2.015H1Zm0 0"/></symbol><symbol overflow="visible" id="Z"><path style="stroke:none" d="M1 0h4.953c2.61 0 3.984-1.36 3.984-3.203 0-1.719-1.218-2.75-2.546-2.813v-.109c1.218-.266 2.093-1.125 2.093-2.484 0-1.735-1.28-2.97-3.843-2.97H1Zm2.453-2v-3.078h2.063c1.171 0 1.906.672 1.906 1.64C7.422-2.578 6.828-2 5.453-2Zm0-4.734V-9.61h1.86c1.093 0 1.703.562 1.703 1.406 0 .906-.75 1.469-1.75 1.469Zm0 0"/></symbol><symbol overflow="visible" id="aa"><path style="stroke:none" d="M.969 0h2.406v-2.766l.64-.734L6.392 0h2.828l-3.39-4.922 3.218-3.766H6.28L3.5-5.39h-.125v-6.187H.969Zm0 0"/></symbol><symbol overflow="visible" id="ab"><path style="stroke:none" d="M4.938-10.14v7.062c0 .984-.438 1.5-1.235 1.5-.734 0-1.219-.469-1.234-1.281H.329c-.017 2.03 1.437 3 3.265 3 2.062 0 3.469-1.25 3.469-3.22v-7.062Zm0 0"/></symbol><symbol overflow="visible" id="ac"><path style="stroke:none" d="M4.281.156c2.313 0 3.75-1.593 3.75-3.937s-1.437-3.922-3.75-3.922c-2.312 0-3.75 1.578-3.75 3.922C.531-1.437 1.97.156 4.281.156Zm.016-1.64c-1.078 0-1.625-.985-1.625-2.313 0-1.312.547-2.297 1.625-2.297 1.031 0 1.578.985 1.578 2.297 0 1.328-.547 2.313-1.578 2.313Zm0 0"/></symbol><symbol overflow="visible" id="ad"><path style="stroke:none" d="M2.953-4.39c0-.985.61-1.563 1.469-1.563.86 0 1.36.547 1.36 1.484V0H7.89v-4.844c0-1.781-1.047-2.86-2.641-2.86-1.156 0-1.922.548-2.266 1.438h-.093v-3.875H.844V0h2.11Zm0 0"/></symbol><symbol overflow="visible" id="ae"><path style="stroke:none" d="M2.953-4.39c0-.985.594-1.563 1.438-1.563.843 0 1.359.547 1.359 1.484V0h2.11v-4.844c0-1.781-1.048-2.86-2.626-2.86-1.14 0-1.953.548-2.296 1.438h-.079v-1.343H.844V0h2.11Zm0 0"/></symbol><symbol overflow="visible" id="af"><path style="stroke:none" d="M2.719-10.14H.329L3.828 0h2.765l3.5-10.14H7.719L5.266-2.438h-.094Zm0 0"/></symbol><symbol overflow="visible" id="ag"><path style="stroke:none" d="M4.313.156c1.875 0 3.14-.922 3.437-2.328l-1.938-.14c-.218.578-.765.89-1.468.89-1.063 0-1.719-.703-1.719-1.844h5.172v-.578c0-2.578-1.563-3.86-3.578-3.86C1.984-7.703.53-6.108.53-3.765.531-1.359 1.97.156 4.312.156ZM2.625-4.578c.047-.86.703-1.547 1.64-1.547.907 0 1.548.64 1.548 1.547Zm0 0"/></symbol><symbol overflow="visible" id="ah"><path style="stroke:none" d="M.844 0h2.11v-4.297c0-.937.687-1.594 1.608-1.594.297 0 .704.063.891.125V-7.64a3.017 3.017 0 0 0-.656-.078c-.86 0-1.547.5-1.828 1.438H2.89V-7.61H.844Zm0 0"/></symbol><symbol overflow="visible" id="ai"><path style="stroke:none" d="M2.14 2.86c1.579 0 2.407-.813 2.844-2.032l2.954-8.437H5.703L4.11-2.016h-.078L2.453-7.609H.234L2.97.219l-.125.328c-.281.703-.813.734-1.547.515L.813 2.641c.312.125.796.218 1.328.218Zm0 0"/></symbol><symbol overflow="visible" id="aj"><path style="stroke:none" d="M.875 0h6.5v-1.766H3.031v-8.375H.875Zm0 0"/></symbol><symbol overflow="visible" id="ak"><path style="stroke:none" d="M4.266 3.016c2.171 0 3.718-1 3.718-2.938v-7.687H5.891v1.28h-.079c-.28-.624-.906-1.374-2.171-1.374-1.672 0-3.079 1.297-3.079 3.89 0 2.532 1.375 3.704 3.079 3.704 1.218 0 1.89-.61 2.171-1.235h.094v1.39c0 1.048-.672 1.454-1.593 1.454-.922 0-1.391-.406-1.563-.875L.797.891c.25 1.203 1.422 2.125 3.469 2.125Zm.046-4.704c-1.03 0-1.593-.828-1.593-2.14 0-1.297.547-2.203 1.594-2.203 1.03 0 1.593.875 1.593 2.203 0 1.344-.578 2.14-1.593 2.14Zm0 0"/></symbol><symbol overflow="visible" id="al"><path style="stroke:none" d="M3.016.14c1.125 0 1.843-.484 2.218-1.203h.063V0h2v-5.125c0-1.813-1.531-2.578-3.234-2.578-1.813 0-3.016.875-3.313 2.25l1.953.156c.14-.5.594-.875 1.36-.875.718 0 1.125.36 1.125.984v.032c0 .5-.516.562-1.844.687-1.5.14-2.86.64-2.86 2.344 0 1.5 1.079 2.266 2.532 2.266Zm.593-1.453c-.64 0-1.109-.296-1.109-.875 0-.593.484-.89 1.234-1 .47-.062 1.22-.171 1.47-.343v.812c0 .797-.657 1.406-1.595 1.406Zm0 0"/></symbol><symbol overflow="visible" id="am"><path style="stroke:none" d="M.844 0h2.11v-4.563c0-.843.53-1.406 1.233-1.406.704 0 1.157.469 1.157 1.219V0H7.39v-4.64c0-.798.453-1.329 1.218-1.329.672 0 1.188.422 1.188 1.266V0h2.094v-5.11c0-1.656-.97-2.593-2.391-2.593-1.11 0-1.984.562-2.297 1.437h-.078c-.234-.875-1.016-1.437-2.063-1.437-1.03 0-1.796.547-2.125 1.437H2.86v-1.343H.844Zm0 0"/></symbol><symbol overflow="visible" id="an"><path style="stroke:none" d="M4.484 0c3.079 0 4.954-1.906 4.954-5.078 0-3.156-1.876-5.063-4.938-5.063H.875V0ZM3.031-1.844v-6.468h1.36c1.906 0 2.906.984 2.906 3.234 0 2.266-1 3.234-2.906 3.234Zm0 0"/></symbol><symbol overflow="visible" id="ao"><path style="stroke:none" d="M.672-9.047h3.187V0h1.235v-9.047H8.28v-1.094H.671Zm0 0"/></symbol><symbol overflow="visible" id="ap"><path style="stroke:none" d="M2.234-4.578c0-1.328.844-2.078 2-2.078C5.344-6.656 6-5.97 6-4.75V0h1.172v-4.828c0-1.969-1.047-2.875-2.594-2.875-1.203 0-1.89.5-2.234 1.281h-.11v-3.719H1.063V0h1.171Zm0 0"/></symbol><symbol overflow="visible" id="aq"><path style="stroke:none" d="M4.266.156c1.546 0 2.671-.765 3.03-1.922l-1.14-.312c-.297.797-.984 1.187-1.89 1.187-1.375 0-2.329-.89-2.375-2.515h5.515v-.5c0-2.828-1.687-3.797-3.265-3.797C2.078-7.703.719-6.078.719-3.75.719-1.406 2.063.156 4.266.156ZM1.89-4.422c.078-1.187.906-2.234 2.25-2.234 1.265 0 2.078.953 2.078 2.234Zm0 0"/></symbol><symbol overflow="visible" id="ar"><path style="stroke:none" d="M6.453-5.906c-.36-1.078-1.187-1.797-2.687-1.797-1.61 0-2.797.906-2.797 2.187 0 1.063.625 1.766 2.015 2.094l1.282.297c.765.172 1.125.547 1.125 1.063 0 .656-.688 1.187-1.782 1.187-.953 0-1.562-.406-1.765-1.219l-1.11.266C1-.531 2.078.156 3.625.156c1.766 0 2.969-.969 2.969-2.281 0-1.063-.657-1.719-2.016-2.063l-1.125-.265c-.906-.234-1.312-.531-1.312-1.11 0-.656.687-1.14 1.625-1.14 1.015 0 1.437.578 1.64 1.094Zm0 0"/></symbol><symbol overflow="visible" id="as"><path style="stroke:none" d="M1.063 0h1.171v-7.61H1.063Zm.609-8.875c.453 0 .828-.36.828-.797 0-.437-.375-.797-.828-.797-.469 0-.844.36-.844.797 0 .438.375.797.844.797Zm0 0"/></symbol><symbol overflow="visible" id="at"><path style="stroke:none" d="M1.063 2.86h1.171v-4.032h.11c.25.422.75 1.328 2.219 1.328 1.89 0 3.218-1.515 3.218-3.937 0-2.406-1.328-3.922-3.25-3.922-1.484 0-1.937.906-2.187 1.297h-.14V-7.61H1.061Zm1.156-6.657c0-1.719.75-2.86 2.172-2.86 1.5 0 2.234 1.25 2.234 2.86 0 1.625-.766 2.906-2.234 2.906-1.407 0-2.172-1.187-2.172-2.906Zm0 0"/></symbol><symbol overflow="visible" id="au"><path style="stroke:none" d="M1.063 0h1.171v-4.813c0-1.03.813-1.78 1.922-1.78.313 0 .64.062.719.077v-1.187a7.206 7.206 0 0 0-.61-.031c-.921 0-1.702.515-1.984 1.28h-.078v-1.155h-1.14Zm0 0"/></symbol><symbol overflow="visible" id="av"><path style="stroke:none" d="M2.234-4.578c0-1.328.829-2.078 1.954-2.078 1.078 0 1.734.703 1.734 1.906V0h1.172v-4.828c0-1.953-1.032-2.875-2.578-2.875-1.141 0-1.86.516-2.22 1.281h-.093v-1.187h-1.14V0h1.171Zm0 0"/></symbol><symbol overflow="visible" id="aw"><path style="stroke:none" d="M4.375-7.61H2.75v-1.827H1.578v1.828H.438v.984h1.14v4.766C1.578-.531 2.656.094 3.641.094c.437 0 .718-.078.875-.14L4.28-1.095a1.729 1.729 0 0 1-.515.063c-.516 0-1.016-.157-1.016-1.14v-4.454h1.625Zm0 0"/></symbol><symbol overflow="visible" id="ax"><path style="stroke:none" d="M3.938.156c1.468 0 1.968-.906 2.218-1.328h.14V0h1.141v-10.14H6.266v3.734h-.11c-.25-.39-.703-1.297-2.187-1.297-1.922 0-3.25 1.516-3.25 3.922C.719-1.36 2.047.156 3.938.156ZM4.093-.89c-1.453 0-2.219-1.28-2.219-2.906 0-1.61.734-2.86 2.219-2.86 1.437 0 2.187 1.141 2.187 2.86 0 1.719-.765 2.906-2.187 2.906Zm0 0"/></symbol><symbol overflow="visible" id="ay"><path style="stroke:none" d="M3.313.172c1.328 0 2.015-.703 2.25-1.203h.062V0h1.172v-5.016c0-2.421-1.844-2.687-2.813-2.687-1.156 0-2.453.39-3.046 1.781l1.109.39c.25-.546.86-1.14 1.969-1.14 1.078 0 1.609.563 1.609 1.547v.031c0 .563-.578.516-1.953.703C2.25-4.219.719-3.906.719-2.156.719-.672 1.859.172 3.313.172Zm.171-1.047c-.921 0-1.609-.406-1.609-1.219 0-.89.813-1.172 1.734-1.297.485-.062 1.813-.203 2.016-.437v1.078c0 .953-.75 1.875-2.14 1.875Zm0 0"/></symbol><symbol overflow="visible" id="az"><path style="stroke:none" d="M2.234-10.14H1.063V0h1.171Zm0 0"/></symbol><symbol overflow="visible" id="aA"><path style="stroke:none" d="M7.438 2.86V-7.61H6.296v1.204h-.14c-.25-.39-.704-1.297-2.188-1.297-1.922 0-3.25 1.516-3.25 3.922C.719-1.36 2.047.156 3.938.156c1.468 0 1.968-.906 2.218-1.328h.11V2.86ZM6.28-3.798c0 1.719-.765 2.906-2.187 2.906-1.453 0-2.219-1.28-2.219-2.906 0-1.61.734-2.86 2.219-2.86 1.437 0 2.187 1.141 2.187 2.86Zm0 0"/></symbol><symbol overflow="visible" id="aB"><path style="stroke:none" d="M5.86-3.11c0 1.422-1.079 2.079-1.954 2.079-.969 0-1.672-.719-1.672-1.828v-4.75H1.063v4.828C1.063-.828 2.093.094 3.53.094c1.14 0 1.89-.61 2.25-1.375h.078V0h1.172v-7.61H5.86Zm0 0"/></symbol><symbol overflow="visible" id="aC"><path style="stroke:none" d="M1.063 0h1.171v-4.75c0-1.125.813-1.906 1.735-1.906.875 0 1.5.578 1.5 1.453V0h1.187v-4.953c0-.984.61-1.703 1.688-1.703.828 0 1.547.437 1.547 1.562V0h1.171v-5.094c0-1.781-.968-2.61-2.328-2.61-1.093 0-1.89.5-2.28 1.282h-.079C6-7.234 5.344-7.703 4.344-7.703c-1 0-1.735.469-2.047 1.281h-.094v-1.187h-1.14Zm0 0"/></symbol><symbol overflow="visible" id="aD"><path style="stroke:none" d="M4.453-7.61H2.75v-.765c0-.766.328-1.156 1.094-1.156.344 0 .531.078.656.125l.328-1.016c-.172-.078-.531-.203-1.11-.203-1.077 0-2.14.656-2.14 1.969v1.047H.36v.984h1.22V0H2.75v-6.625h1.703Zm0 0"/></symbol><symbol overflow="visible" id="aE"><path style="stroke:none" d="M4.156.156C6.22.156 7.61-1.406 7.61-3.766c0-2.375-1.39-3.937-3.453-3.937C2.094-7.703.72-6.141.72-3.766c0 2.36 1.375 3.922 3.437 3.922Zm0-1.047c-1.562 0-2.281-1.343-2.281-2.875 0-1.53.719-2.89 2.281-2.89 1.563 0 2.282 1.36 2.282 2.89 0 1.532-.72 2.875-2.282 2.875Zm0 0"/></symbol><symbol overflow="visible" id="aF"><path style="stroke:none" d="M1.234 0H2.36v-1.172H2.5C2.75-.75 3.25.156 4.719.156c1.906 0 3.218-1.515 3.218-3.937 0-2.406-1.312-3.922-3.234-3.922-1.5 0-1.953.906-2.203 1.297h-.11v-3.735H1.235Zm1.141-3.797c0-1.719.75-2.86 2.188-2.86 1.484 0 2.218 1.25 2.218 2.86 0 1.625-.765 2.906-2.218 2.906-1.407 0-2.188-1.187-2.188-2.906Zm0 0"/></symbol><symbol overflow="visible" id="aG"><path style="stroke:none" d="M4.14 3.016c1.829 0 3.298-.844 3.298-2.797V-7.61H6.296v1.203h-.11c-.265-.39-.734-1.297-2.218-1.297-1.922 0-3.25 1.516-3.25 3.86 0 2.374 1.375 3.718 3.219 3.718 1.484 0 1.968-.86 2.218-1.281h.11V.14c0 1.265-.891 1.843-2.125 1.843-1.375 0-1.86-.734-2.172-1.156l-.938.656c.469.797 1.407 1.532 3.11 1.532Zm-.046-4.188c-1.453 0-2.219-1.11-2.219-2.687 0-1.547.734-2.797 2.219-2.797 1.437 0 2.187 1.14 2.187 2.797 0 1.687-.765 2.687-2.187 2.687Zm0 0"/></symbol><symbol overflow="visible" id="aH"><path style="stroke:none" d="M4.36 0c3.093 0 4.827-1.922 4.827-5.094 0-3.14-1.734-5.047-4.687-5.047H1.234V0ZM2.452-1.094v-7.953h1.969C6.797-9.047 8-7.547 8-5.094c0 2.485-1.203 4-3.719 4Zm0 0"/></symbol><symbol overflow="visible" id="aI"><path style="stroke:none" d="M4.156.156c1.688 0 2.797-1.031 3-2.375H5.984C5.766-1.39 5.078-.89 4.156-.89c-1.375 0-2.281-1.156-2.281-2.906 0-1.734.922-2.86 2.281-2.86 1.032 0 1.657.641 1.828 1.329h1.172C6.953-6.75 5.75-7.703 4.141-7.703 2.078-7.703.719-6.078.719-3.766.719-1.484 2.016.156 4.156.156Zm0 0"/></symbol><symbol overflow="visible" id="aK"><path style="stroke:none" d="M1.234 0h1.22v-3.703h2.218c2.36 0 3.437-1.438 3.437-3.235 0-1.796-1.078-3.203-3.453-3.203H1.234Zm1.22-4.797v-4.25h2.155c1.657 0 2.282.89 2.282 2.11 0 1.218-.625 2.14-2.25 2.14Zm0 0"/></symbol><symbol overflow="visible" id="aL"><path style="stroke:none" d="M9.266-10.14H8.062v7.984H7.97l-5.547-7.985H1.234V0h1.22v-7.969h.108L8.079 0h1.188Zm0 0"/></symbol><symbol overflow="visible" id="aJ"><path style="stroke:none" d="M4.594 2.953 1.75-3.5l2.844-6.453H3.89L.734-3.5l3.157 6.453Zm0 0"/></symbol><symbol overflow="visible" id="aM"><path style="stroke:none" d="M4.594-3.5 1.437-9.953H.735L3.594-3.5.734 2.953h.704Zm0 0"/></symbol><symbol overflow="visible" id="aN"><path style="stroke:none" d="M3.61 2.328 1.374-2.75l2.234-5.063h-.546L.578-2.75l2.485 5.078Zm0 0"/></symbol><symbol overflow="visible" id="aT"><path style="stroke:none" d="M3.61-2.75 1.124-7.813H.578L2.813-2.75.578 2.328h.547Zm0 0"/></symbol><symbol overflow="visible" id="aO"><path style="stroke:none" d="M.656 0h1.656v-3.594c0-.656.422-1.094.985-1.094.547 0 .906.375.906.954V0h1.61v-3.656c0-.61.343-1.031.953-1.031.53 0 .921.328.921 1V0h1.657v-4.016c0-1.296-.766-2.03-1.875-2.03-.875 0-1.563.437-1.813 1.124h-.062c-.188-.687-.797-1.125-1.625-1.125-.797 0-1.406.422-1.656 1.125h-.079v-1.047H.656Zm0 0"/></symbol><symbol overflow="visible" id="aP"><path style="stroke:none" d="M3.36.11c1.812 0 2.937-1.235 2.937-3.079S5.172-6.047 3.359-6.047C1.547-6.047.422-4.813.422-2.969.422-1.125 1.547.11 3.359.11Zm.015-1.282c-.844 0-1.266-.766-1.266-1.797 0-1.047.422-1.828 1.266-1.828.813 0 1.25.781 1.25 1.828 0 1.031-.438 1.797-1.25 1.797Zm0 0"/></symbol><symbol overflow="visible" id="aQ"><path style="stroke:none" d="M2.313-3.453c.015-.766.468-1.219 1.14-1.219.656 0 1.063.438 1.063 1.156V0h1.656v-3.813c0-1.39-.813-2.234-2.063-2.234-.89 0-1.53.422-1.796 1.125h-.079v-1.047H.656V0h1.656Zm0 0"/></symbol><symbol overflow="visible" id="aR"><path style="stroke:none" d="M3.844-5.969H2.719v-1.437H1.063v1.437H.234v1.235h.829v3.109C1.046-.453 1.843.125 3.046.078c.437-.015.734-.094.906-.156l-.265-1.234c-.079.015-.25.062-.407.062-.344 0-.562-.125-.562-.594v-2.89h1.125Zm0 0"/></symbol><symbol overflow="visible" id="aS"><path style="stroke:none" d="M2.313-3.453c.015-.766.484-1.219 1.156-1.219.672 0 1.078.422 1.062 1.156V0h1.657v-3.813c.015-1.39-.813-2.234-2.063-2.234-.906 0-1.516.422-1.781 1.125h-.078v-3.047H.656V0h1.656Zm0 0"/></symbol><symbol overflow="visible" id="aU"><path style="stroke:none" d="M2.469-1.094H1.094l-.016.438C1.031.406.718 1.484.61 1.938h1.079c.187-.47.625-1.563.734-2.594Zm0 0"/></symbol><symbol overflow="visible" id="aV"><path style="stroke:none" d="M1.688 2.234c1.234 0 1.89-.625 2.218-1.593l2.328-6.61h-1.75l-1.25 4.375h-.062L1.937-5.969H.188L2.329.171l-.094.25c-.218.563-.64.595-1.218.407L.64 2.063c.234.109.625.171 1.046.171Zm0 0"/></symbol><symbol overflow="visible" id="aW"><path style="stroke:none" d="M3.39.11c1.47 0 2.47-.72 2.704-1.829l-1.532-.093c-.171.453-.593.687-1.156.687-.828 0-1.344-.547-1.344-1.438h4.063v-.453c0-2.03-1.234-3.03-2.813-3.03-1.75 0-2.89 1.234-2.89 3.093C.422-1.063 1.547.109 3.39.109ZM2.063-3.595a1.255 1.255 0 0 1 1.282-1.219c.719 0 1.219.516 1.219 1.22Zm0 0"/></symbol><symbol overflow="visible" id="aX"><path style="stroke:none" d="M2.36.11c.89 0 1.468-.376 1.75-.938h.046V0h1.578v-4.031c0-1.422-1.203-2.016-2.546-2.016-1.422 0-2.36.672-2.594 1.766l1.531.125c.11-.39.469-.688 1.063-.688.562 0 .89.282.89.782v.015c0 .39-.406.438-1.453.531-1.188.11-2.25.516-2.25 1.844C.375-.484 1.219.11 2.359.11Zm.484-1.141c-.516 0-.875-.235-.875-.688 0-.468.375-.703.968-.781.36-.047.954-.14 1.141-.266v.625c0 .625-.516 1.11-1.234 1.11Zm0 0"/></symbol><symbol overflow="visible" id="aY"><path style="stroke:none" d="M.656 0h1.656v-3.375c0-.734.547-1.25 1.282-1.25.219 0 .531.047.687.094V-6a2.588 2.588 0 0 0-.515-.063c-.672 0-1.22.391-1.438 1.125h-.062v-1.03H.656Zm0 0"/></symbol><symbol overflow="visible" id="aZ"><path style="stroke:none" d="M7.36-7.969H5.686v5.016H5.61L2.172-7.97H.687V0h1.688v-5.016h.063L5.905 0H7.36Zm0 0"/></symbol><symbol overflow="visible" id="ba"><path style="stroke:none" d="M8.016-3.984c0-2.61-1.625-4.094-3.735-4.094-2.125 0-3.734 1.484-3.734 4.094C.547-1.391 2.157.109 4.28.109c2.11 0 3.735-1.484 3.735-4.093Zm-1.704 0c0 1.687-.812 2.609-2.03 2.609-1.22 0-2.016-.922-2.016-2.61 0-1.687.796-2.609 2.015-2.609s2.032.922 2.032 2.61Zm0 0"/></symbol><symbol overflow="visible" id="bb"><path style="stroke:none" d="M2.125-7.969H.265L3.016 0h2.172l2.735-7.969h-1.86L4.125-1.922h-.063Zm0 0"/></symbol><symbol overflow="visible" id="bc"><path style="stroke:none" d="m2.063 0 .593-1.813h2.875L6.125 0h1.797L5.188-7.969H3.015L.266 0Zm1.015-3.125.985-3.016h.062l.984 3.016Zm0 0"/></symbol><symbol overflow="visible" id="bd"><path style="stroke:none" d="M2.375-7.969H.687V0h1.688Zm0 0"/></symbol><symbol overflow="visible" id="be"><path style="stroke:none" d="M3.875-5.969H2.687v-.406c0-.406.172-.64.657-.64.187 0 .39.046.531.077l.281-1.234a4.227 4.227 0 0 0-1.172-.172c-1.109 0-1.953.64-1.953 1.938v.437H.188v1.235h.843V0h1.657v-4.734h1.187Zm0 0"/></symbol><symbol overflow="visible" id="bf"><path style="stroke:none" d="M.656 0h1.656v-5.969H.657ZM1.5-6.75c.484 0 .89-.375.89-.844 0-.453-.406-.828-.89-.828-.5 0-.906.375-.906.828 0 .469.406.844.906.844Zm0 0"/></symbol><symbol overflow="visible" id="bg"><path style="stroke:none" d="M.688-7.969V0h1.64v-5.203h.063L4.453-.031h1.11l2.062-5.157h.078V0h1.625v-7.969H7.25l-2.188 5.36H4.97L2.766-7.97Zm0 0"/></symbol><symbol overflow="visible" id="bh"><path style="stroke:none" d="M3.36 2.36c1.703 0 2.921-.766 2.921-2.297V-5.97H4.625v1h-.063c-.218-.484-.703-1.078-1.703-1.078C1.547-6.047.438-5.03.438-3c0 1.984 1.078 2.922 2.421 2.922.954 0 1.485-.484 1.704-.985h.078V.032c0 .828-.532 1.14-1.25 1.14-.735 0-1.094-.312-1.235-.671L.625.703C.828 1.641 1.75 2.36 3.359 2.36Zm.03-3.688c-.812 0-1.265-.64-1.265-1.672 0-1.016.438-1.734 1.266-1.734.796 0 1.25.687 1.25 1.734s-.454 1.672-1.25 1.672Zm0 0"/></symbol><symbol overflow="visible" id="bi"><path style="stroke:none" d="M5.016-5.672h1.609c-.016-1.422-1.188-2.406-2.953-2.406-1.75 0-3.031.969-3.031 2.406 0 1.188.828 1.86 2.171 2.172l.876.219c.859.219 1.343.469 1.343 1 0 .578-.547.984-1.406.984-.875 0-1.5-.406-1.563-1.203H.438C.483-.781 1.718.11 3.64.11c1.953 0 3.093-.922 3.093-2.391 0-1.328-1-2.031-2.39-2.344l-.703-.172c-.704-.156-1.282-.406-1.266-.984 0-.516.453-.89 1.281-.89.797 0 1.297.374 1.36 1Zm0 0"/></symbol><symbol overflow="visible" id="bj"><path style="stroke:none" d="M3.36.11c1.593 0 2.593-.922 2.671-2.297H4.47c-.094.64-.516 1-1.094 1-.766 0-1.266-.657-1.266-1.797 0-1.125.5-1.782 1.266-1.782.61 0 1 .407 1.094 1H6.03c-.078-1.375-1.125-2.28-2.672-2.28-1.812 0-2.937 1.25-2.937 3.077C.422-1.14 1.516.11 3.359.11Zm0 0"/></symbol><symbol overflow="visible" id="bk"><path style="stroke:none" d="M2.313-7.969H.655V0h1.656Zm0 0"/></symbol><symbol overflow="visible" id="bl"><path style="stroke:none" d="M7.281-7.969h-.953v6.266H6.25L1.906-7.97H.97V0h.969v-6.25H2L6.344 0h.937Zm0 0"/></symbol><symbol overflow="visible" id="bm"><path style="stroke:none" d="M7.688-3.984c0-2.516-1.485-4.094-3.516-4.094C2.125-8.078.656-6.5.656-3.984.656-1.47 2.125.109 4.172.109c2.031 0 3.516-1.578 3.516-4.093Zm-.938 0c0 2.062-1.125 3.187-2.578 3.187-1.453 0-2.578-1.125-2.578-3.187 0-2.063 1.125-3.188 2.578-3.188 1.453 0 2.578 1.125 2.578 3.188Zm0 0"/></symbol><symbol overflow="visible" id="bn"><path style="stroke:none" d="M1.297-7.969H.28L3.203 0h1l2.922-7.969H6.109L3.75-1.266h-.094Zm0 0"/></symbol><symbol overflow="visible" id="bo"><path style="stroke:none" d="m1.297 0 .797-2.25h3.219L6.109 0h1.016L4.203-7.969h-1L.281 0ZM2.39-3.11l1.28-3.593h.063L5.016-3.11Zm0 0"/></symbol><symbol overflow="visible" id="bp"><path style="stroke:none" d="M6.188-7.969v5.203c0 1.157-.797 2-2.125 2-1.329 0-2.125-.843-2.125-2v-5.203h-.97v5.282C.969-1.063 2.189.14 4.064.14c1.875 0 3.093-1.204 3.093-2.829v-5.28Zm0 0"/></symbol><symbol overflow="visible" id="bq"><path style="stroke:none" d="M1.766-3.594c0-1.047.64-1.64 1.515-1.64.86 0 1.375.562 1.375 1.5V0h.922v-3.797c0-1.531-.812-2.25-2.031-2.25-.906 0-1.469.39-1.735 1h-.078v-.922h-.89V0h.922Zm0 0"/></symbol><symbol overflow="visible" id="br"><path style="stroke:none" d="M.844 0h.922v-5.969H.844Zm.469-6.969a.63.63 0 0 0 .64-.625.63.63 0 0 0-.64-.625c-.36 0-.657.281-.657.625s.297.625.656.625Zm0 0"/></symbol><symbol overflow="visible" id="bs"><path style="stroke:none" d="M5.734-5.969h-1l-1.656 4.75h-.062l-1.641-4.75h-1L2.578 0h.938Zm0 0"/></symbol><symbol overflow="visible" id="bt"><path style="stroke:none" d="M3.344.125c1.219 0 2.11-.61 2.39-1.516l-.89-.25c-.235.625-.782.938-1.5.938-1.078 0-1.813-.688-1.86-1.969h4.329v-.39c0-2.235-1.313-2.985-2.563-2.985-1.61 0-2.688 1.266-2.688 3.11C.563-1.11 1.625.124 3.345.124Zm-1.86-3.594c.063-.937.72-1.765 1.766-1.765 1 0 1.64.75 1.64 1.765Zm0 0"/></symbol><symbol overflow="visible" id="bu"><path style="stroke:none" d="M.844 0h.922v-3.781c0-.813.625-1.406 1.5-1.406.25 0 .5.046.562.062v-.922c-.11-.016-.344-.016-.484-.016-.719 0-1.344.391-1.547.985h-.063v-.89h-.89Zm0 0"/></symbol><symbol overflow="visible" id="bv"><path style="stroke:none" d="M5.078-4.64c-.297-.844-.937-1.407-2.125-1.407-1.25 0-2.187.703-2.187 1.719 0 .828.484 1.375 1.578 1.64l1 .235c.61.14.89.422.89.828 0 .516-.546.938-1.406.938-.75 0-1.219-.313-1.375-.97l-.875.22C.797-.423 1.625.125 2.844.125c1.39 0 2.344-.766 2.344-1.797 0-.828-.532-1.344-1.594-1.61l-.89-.218C2-3.672 1.686-3.906 1.686-4.375c0-.516.532-.89 1.266-.89.813 0 1.14.452 1.297.859Zm0 0"/></symbol><symbol overflow="visible" id="bw"><path style="stroke:none" d="M3.438-5.969H2.155v-1.437H1.25v1.437H.344v.766h.906v3.734c0 1.047.828 1.547 1.61 1.547.343 0 .562-.062.687-.11l-.188-.827c-.078.015-.203.046-.406.046-.406 0-.797-.125-.797-.906v-3.484h1.281Zm0 0"/></symbol><symbol overflow="visible" id="bx"><path style="stroke:none" d="M1.438 2.234c.828 0 1.406-.437 1.75-1.359l2.546-6.844h-1l-1.656 4.75h-.062l-1.641-4.75h-1l2.203 6L2.406.5c-.328.906-.734 1-1.406.828l-.234.797c.093.047.359.11.671.11Zm0 0"/></symbol><symbol overflow="visible" id="by"><path style="stroke:none" d="M.969 0H5.64v-.86H1.937v-7.109H.97Zm0 0"/></symbol><symbol overflow="visible" id="bz"><path style="stroke:none" d="M.969 0h.89v-.922h.094c.203.328.594 1.047 1.75 1.047 1.5 0 2.531-1.203 2.531-3.094 0-1.89-1.03-3.078-2.546-3.078-1.172 0-1.532.703-1.735 1.016h-.062V-7.97H.969Zm.906-2.984c0-1.344.578-2.25 1.703-2.25 1.172 0 1.75.984 1.75 2.25 0 1.265-.594 2.28-1.75 2.28-1.11 0-1.703-.937-1.703-2.28Zm0 0"/></symbol><symbol overflow="visible" id="bA"><path style="stroke:none" d="M3.266.125c1.625 0 2.703-1.234 2.703-3.078 0-1.875-1.078-3.094-2.703-3.094-1.61 0-2.704 1.219-2.704 3.094C.563-1.11 1.657.125 3.267.125Zm0-.828c-1.235 0-1.782-1.063-1.782-2.25 0-1.203.547-2.281 1.782-2.281 1.234 0 1.796 1.078 1.796 2.28 0 1.188-.562 2.25-1.796 2.25Zm0 0"/></symbol><clipPath id="s"><path d="M0 0h543v841.89H0Zm0 0"/></clipPath><clipPath id="e"><path d="M0 .195h61V50H0Zm0 0"/></clipPath><clipPath id="c"><path d="M0 1.094h348v9.797H0Zm0 0"/></clipPath><clipPath id="b"><path d="M0 0h348v11H0z"/></clipPath><clipPath id="h"><path d="M0 792h92v49.89H0Zm0 0"/></clipPath><clipPath id="d"><path d="M0 0h543v842H0z"/></clipPath><g clip-path="url(#b)"><g clip-path="url(#c)" id="f"><path style="stroke:none;fill-rule:nonzero;fill:#aeb3b6;fill-opacity:1" d="M.383 10.387H347.87V1.14H.383Zm0 0"/></g></g><g id="t" clip-path="url(#d)"><g clip-path="url(#e)"><path style="stroke:none;fill-rule:nonzero;fill:#5c666c;fill-opacity:1" d="M0 49.723h60.559V.195H0Zm0 0"/></g><path style="stroke:none;fill-rule:nonzero;fill:#5c666c;fill-opacity:1" d="M0 445.926h37.375v-49.531H0Zm0 0"/><path style="stroke:none;fill-rule:nonzero;fill:#bed62f;fill-opacity:1" d="M0 346.871v49.527l57.14-.003V346.87ZM0 495.45h57.242v-49.528H0ZM0 594.5h37.266v-49.527H0Zm0 0"/><path style="stroke:none;fill-rule:nonzero;fill:#5c666c;fill-opacity:1" d="M0 544.973h91.227v-49.528H0ZM0 644.023h76.152v-49.527H0Zm0 0"/><path style="stroke:none;fill-rule:nonzero;fill:#bed62f;fill-opacity:1" d="M0 297.348h110.566v-49.524H0Zm0 0"/><path style="stroke:none;fill-rule:nonzero;fill:#5c666c;fill-opacity:1" d="M0 346.875h75.89v-49.531H0Zm0 0"/><path style="stroke:none;fill-rule:nonzero;fill:#bed62f;fill-opacity:1" d="M0 99.25h142.98V49.719H0Zm0 0"/><path style="stroke:none;fill-rule:nonzero;fill:#5c666c;fill-opacity:1" d="M0 148.797h93.707V99.262H0Zm0 0"/><path style="stroke:none;fill-rule:nonzero;fill:#bed62f;fill-opacity:1" d="M0 99.262h142.98V49.719H0ZM0 198.332h9.242v-49.535H0Zm0 0"/><path style="stroke:none;fill-rule:nonzero;fill:#fff;fill-opacity:1" d="m31.102 90.477-13.168-21.02v21.02h-7.079V58.504h8.657l12 19.434V58.504h7.12v31.973ZM59.43 84.121c4.418 0 9.199-2.98 9.199-9.656s-4.781-9.7-9.2-9.7c-4.464 0-9.25 3.024-9.25 9.7 0 6.676 4.786 9.656 9.25 9.656m0-26.293c8.977 0 16.594 6.535 16.594 16.684 0 10.101-7.617 16.64-16.593 16.64-9.02 0-16.645-6.539-16.645-16.64 0-10.149 7.625-16.684 16.645-16.684M98.984 58.504h7.575l-11.68 31.973H87.53L75.805 58.504h7.843l7.715 22.504ZM113.238 77.488h7.758l-3.836-11.05Zm10.012 6.492h-12.355l-2.301 6.497h-7.489l12.047-31.973h8.25l11.907 31.973h-7.758ZM10.54 138.566h6.558v-29.078h-6.559ZM142.98 143.277h6.56V114.2h-6.56ZM49.941 138.566v-19.273l-7.586 19.273h-5.25l-7.582-19.03v19.03h-6.156v-29.078h8.453l7.996 19.645 7.582-19.645h8.903v29.078ZM76.797 118.266c-.203-1.352-1.313-3.653-4.836-3.653-2.418 0-3.977 1.52-3.977 3.121 0 1.391.864 2.422 2.875 2.786l3.887.742c5.543 1.02 8.406 4.59 8.406 8.73 0 4.555-3.808 9.188-10.742 9.188-8.031 0-11.48-5.207-11.89-9.309l5.945-1.437c.25 2.668 2.05 5.004 6.031 5.004 2.54 0 4.098-1.231 4.098-3.032 0-1.48-1.188-2.543-3.114-2.918l-3.98-.734c-4.922-.942-7.914-4.227-7.914-8.531 0-5.493 4.84-9.348 10.414-9.348 7.262 0 10.012 4.348 10.621 7.75Zm0 0"/><path style="stroke:none;fill-rule:nonzero;fill:#5c666c;fill-opacity:1" d="M17.145 163.922h2.128v-10.809h-2.128ZM23.328 163.918h-2.027v-7.496h1.969v.93c.457-.782 1.355-1.13 2.164-1.13 1.859 0 2.71 1.325 2.71 2.973v4.723h-2.027v-4.371c0-.84-.41-1.492-1.387-1.492-.882 0-1.402.683-1.402 1.554ZM32.336 155.602v.816h1.691v1.738h-1.691v5.762h-2.043v-5.762h-1.25v-1.738h1.25v-.848c0-1.695 1.066-2.793 2.73-2.793.426 0 .84.078 1.004.153v1.707c-.105-.028-.3-.078-.636-.078-.457 0-1.055.203-1.055 1.043M40.156 160.168c0-1.418-.914-2.129-1.902-2.129-.992 0-1.906.711-1.906 2.129 0 1.406.914 2.137 1.906 2.137.988 0 1.902-.711 1.902-2.137m2.028 0c0 2.309-1.688 3.984-3.93 3.984s-3.934-1.675-3.934-3.984c0-2.316 1.692-3.977 3.934-3.977s3.93 1.66 3.93 3.977M48.07 158.434a3.012 3.012 0 0 0-.61-.063c-1.034 0-1.937.504-1.937 2.121v3.426h-2.027v-7.5h1.969v1.117c.453-.992 1.488-1.176 2.133-1.176.168 0 .32.016.472.032ZM49.215 163.918v-7.496h1.933v.914c.41-.73 1.375-1.129 2.2-1.129 1.015 0 1.84.441 2.222 1.254.594-.918 1.383-1.254 2.375-1.254 1.39 0 2.715.84 2.715 2.856v4.855h-1.965v-4.445c0-.809-.394-1.418-1.328-1.418-.87 0-1.383.672-1.383 1.476v4.387H53.97v-4.445c0-.809-.41-1.418-1.324-1.418-.883 0-1.403.652-1.403 1.476v4.387ZM66.621 160.887v-.336l-1.691.262c-.52.074-.93.363-.93.94 0 .446.32.868.977.868.855 0 1.644-.406 1.644-1.734m-2.406-1.278 1.84-.277c.43-.059.566-.27.566-.531 0-.535-.41-.977-1.266-.977-.882 0-1.37.563-1.43 1.215l-1.8-.375c.121-1.176 1.207-2.473 3.215-2.473 2.383 0 3.265 1.344 3.265 2.848v3.691c0 .399.043.934.086 1.188h-1.855c-.05-.195-.078-.606-.078-.895-.38.594-1.094 1.114-2.207 1.114-1.602 0-2.578-1.086-2.578-2.258 0-1.34.992-2.086 2.242-2.27M72.809 156.418h1.507v1.805H72.81v3.136c0 .657.308.868.886.868.243 0 .516-.032.621-.059v1.68c-.18.07-.543.18-1.14.18-1.465 0-2.38-.868-2.38-2.317v-3.488h-1.355v-1.805h.38c.796 0 1.16-.516 1.16-1.188v-1.05h1.828ZM75.754 156.426h2.027v7.5h-2.027Zm1.004-3.723c.699 0 1.25.567 1.25 1.266 0 .672-.551 1.234-1.25 1.234a1.25 1.25 0 0 1-1.25-1.234c0-.7.562-1.266 1.25-1.266M84.93 160.168c0-1.418-.918-2.129-1.903-2.129-.992 0-1.91.711-1.91 2.129 0 1.406.918 2.137 1.91 2.137.985 0 1.903-.711 1.903-2.137m2.023 0c0 2.309-1.691 3.984-3.926 3.984-2.246 0-3.937-1.675-3.937-3.984 0-2.316 1.691-3.977 3.937-3.977 2.235 0 3.926 1.66 3.926 3.977M90.297 163.918H88.27v-7.496h1.96v.93c.461-.782 1.36-1.13 2.168-1.13 1.86 0 2.715 1.325 2.715 2.973v4.723h-2.027v-4.371c0-.84-.414-1.492-1.39-1.492-.883 0-1.4.683-1.4 1.554ZM27.125 179.168v-7.578l-3.11 7.578h-1.753l-3.11-7.52v7.52h-2.007v-10.809h2.77l3.245 7.805 3.172-7.805h2.867v10.809Zm0 0"/><use xlink:href="#f" transform="translate(195 168)" mask="url(#g)"/><path style="stroke:none;fill-rule:nonzero;fill:#5c666c;fill-opacity:1" d="M35.387 176.133v-.332l-1.692.254c-.52.078-.933.367-.933.945 0 .445.32.871.98.871.852 0 1.645-.41 1.645-1.738m-2.407-1.281 1.84-.274c.426-.058.567-.277.567-.531 0-.535-.41-.977-1.262-.977-.887 0-1.375.559-1.434 1.22l-1.804-.38c.125-1.176 1.207-2.472 3.222-2.472 2.375 0 3.258 1.34 3.258 2.851v3.691c0 .391.047.926.094 1.188h-1.863c-.047-.203-.075-.61-.075-.898-.378.593-1.097 1.109-2.21 1.109-1.598 0-2.579-1.082-2.579-2.254 0-1.34.993-2.09 2.246-2.273M41.148 179.168h-2.027v-7.5h1.969v.926c.457-.774 1.355-1.13 2.164-1.13 1.86 0 2.71 1.329 2.71 2.974v4.73h-2.026v-4.375c0-.84-.41-1.496-1.387-1.496-.883 0-1.403.687-1.403 1.558ZM51.926 176.133v-.332l-1.692.254c-.52.078-.925.367-.925.945 0 .445.316.871.972.871.852 0 1.645-.41 1.645-1.738m-2.406-1.281 1.847-.274c.422-.058.559-.277.559-.531 0-.535-.41-.977-1.262-.977-.887 0-1.379.559-1.437 1.22l-1.793-.38c.117-1.176 1.199-2.472 3.21-2.472 2.38 0 3.262 1.34 3.262 2.851v3.691c0 .391.051.926.094 1.188h-1.86c-.046-.203-.074-.61-.074-.898-.382.593-1.101 1.109-2.214 1.109-1.602 0-2.57-1.082-2.57-2.254 0-1.34.984-2.09 2.238-2.273M60.707 175.188c0-1.16-.793-1.891-1.77-1.891-1.003 0-1.796.73-1.796 1.89 0 1.176.746 1.907 1.797 1.907 1.039 0 1.769-.75 1.769-1.906m-3.781 3.902c.14.824.793 1.414 1.754 1.414 1.277 0 1.996-.633 1.996-2.086v-.547c-.305.488-1.008.957-2.086.957-1.996 0-3.492-1.535-3.492-3.64 0-1.981 1.43-3.66 3.492-3.66 1.187 0 1.875.519 2.129 1.023v-.883h1.953v6.691c0 2.059-1.113 3.934-3.93 3.934-2.062 0-3.43-1.281-3.644-2.715ZM69.277 174.563c-.035-.747-.52-1.481-1.68-1.481-1.05 0-1.628.793-1.679 1.48Zm1.887 2.453c-.383 1.297-1.57 2.379-3.414 2.379-2.059 0-3.875-1.48-3.875-4.008 0-2.395 1.77-3.953 3.691-3.953 2.32 0 3.704 1.484 3.704 3.89 0 .29-.032.594-.032.625h-5.363c.043.992.883 1.707 1.887 1.707.949 0 1.465-.472 1.71-1.14ZM72.582 179.168v-7.5h1.938v.91c.41-.73 1.37-1.125 2.19-1.125 1.024 0 1.849.438 2.228 1.246.593-.91 1.386-1.246 2.378-1.246 1.387 0 2.711.836 2.711 2.848v4.867h-1.965v-4.453c0-.805-.394-1.418-1.324-1.418-.867 0-1.39.672-1.39 1.476v4.395h-2.012v-4.453c0-.805-.41-1.418-1.324-1.418-.883 0-1.407.656-1.407 1.476v4.395ZM90.633 174.563c-.031-.747-.524-1.481-1.68-1.481-1.05 0-1.629.793-1.676 1.48Zm1.887 2.453c-.38 1.297-1.57 2.379-3.41 2.379-2.063 0-3.876-1.48-3.876-4.008 0-2.395 1.77-3.953 3.688-3.953 2.316 0 3.707 1.484 3.707 3.89 0 .29-.031.594-.031.625h-5.364c.043.992.883 1.707 1.883 1.707.95 0 1.469-.472 1.711-1.14ZM95.965 179.168h-2.028v-7.5h1.97v.926c.456-.774 1.355-1.13 2.163-1.13 1.856 0 2.711 1.329 2.711 2.974v4.73h-2.027v-4.375c0-.84-.414-1.496-1.383-1.496-.89 0-1.406.687-1.406 1.558ZM105.055 171.668h1.504v1.797h-1.504v3.14c0 .657.304.868.882.868.239 0 .516-.028.622-.059v1.676c-.18.078-.547.187-1.145.187-1.46 0-2.375-.87-2.375-2.324v-3.488h-1.352v-1.797h.376c.796 0 1.16-.523 1.16-1.188v-1.054h1.832ZM22.523 186.758c-.109-.594-.597-1.524-1.968-1.524-1.02 0-1.692.66-1.692 1.375 0 .594.38 1.063 1.172 1.215l1.512.29c1.965.378 3.02 1.66 3.02 3.187 0 1.664-1.391 3.336-3.907 3.336-2.863 0-4.133-1.844-4.297-3.38l1.95-.523c.093 1.067.84 2.028 2.367 2.028 1.125 0 1.75-.563 1.75-1.325 0-.62-.473-1.113-1.313-1.28l-1.508-.305c-1.722-.352-2.832-1.465-2.832-3.094 0-1.922 1.723-3.383 3.762-3.383 2.621 0 3.629 1.582 3.871 2.809ZM27.309 190.664c0 1.352.882 2.113 1.918 2.113 1.039 0 1.558-.687 1.722-1.265l1.785.597c-.336 1.25-1.507 2.528-3.507 2.528-2.207 0-3.946-1.676-3.946-3.973 0-2.32 1.703-3.98 3.883-3.98 2.043 0 3.207 1.265 3.523 2.527l-1.812.613c-.184-.629-.656-1.265-1.66-1.265-1.04 0-1.906.742-1.906 2.105M35.965 194.41h-2.028v-11.035h2.028v4.16c.488-.578 1.308-.824 2.027-.824 1.91 0 2.793 1.328 2.793 2.976v4.723h-2.027v-4.375c0-.84-.414-1.492-1.39-1.492-.856 0-1.356.637-1.403 1.46ZM47.824 190.664c0-1.422-.914-2.137-1.906-2.137-.988 0-1.902.715-1.902 2.137 0 1.399.914 2.129 1.902 2.129.992 0 1.906-.715 1.906-2.129m2.028 0c0 2.297-1.692 3.973-3.934 3.973-2.238 0-3.93-1.676-3.93-3.973 0-2.32 1.692-3.98 3.93-3.98 2.242 0 3.934 1.66 3.934 3.98M56.438 190.664c0-1.422-.91-2.137-1.903-2.137-.992 0-1.91.715-1.91 2.137 0 1.399.918 2.129 1.91 2.129.992 0 1.903-.715 1.903-2.129m2.027 0c0 2.297-1.692 3.973-3.93 3.973-2.242 0-3.937-1.676-3.937-3.973 0-2.32 1.695-3.98 3.937-3.98 2.238 0 3.93 1.66 3.93 3.98M59.777 194.41h2.028v-11.035h-2.028ZM0 247.824h60.563v-49.531H0Zm0 0"/><path style="stroke:none;fill-rule:nonzero;fill:#bed62f;fill-opacity:1" d="M0 792.598h57.242v-49.532H0Zm0 0"/><g clip-path="url(#h)"><path style="stroke:none;fill-rule:nonzero;fill:#5c666c;fill-opacity:1" d="M0 842.125h91.227v-49.527H0Zm0 0"/></g><path style="stroke:none;fill-rule:nonzero;fill:#bed62f;fill-opacity:1" d="M0 693.547h93.766V644.02H0Zm0 0"/><path style="stroke:none;fill-rule:nonzero;fill:#5c666c;fill-opacity:1" d="M0 743.035h110.566v-49.488H0Zm0 0"/><g style="fill:#5c666c;fill-opacity:1"><use xlink:href="#i" x="192.283" y="93.292"/><use xlink:href="#j" x="222.951" y="93.292"/></g><use xlink:href="#k" x="255.382" y="93.292" style="fill:#5c666c;fill-opacity:1"/><use xlink:href="#l" x="284.82" y="93.292" style="fill:#5c666c;fill-opacity:1"/><use xlink:href="#j" x="309.707" y="93.292" style="fill:#5c666c;fill-opacity:1"/><use xlink:href="#m" x="342.138" y="93.292" style="fill:#5c666c;fill-opacity:1"/><use xlink:href="#n" x="367.64" y="93.292" style="fill:#5c666c;fill-opacity:1"/><use xlink:href="#l" x="393.06" y="93.292" style="fill:#5c666c;fill-opacity:1"/><use xlink:href="#o" x="418.603" y="93.292" style="fill:#5c666c;fill-opacity:1"/><g style="fill:#5c666c;fill-opacity:1"><use xlink:href="#p" x="192.201" y="134.294"/><use xlink:href="#m" x="215.817" y="134.294"/></g><g style="fill:#5c666c;fill-opacity:1"><use xlink:href="#j" x="241.155" y="134.294"/><use xlink:href="#q" x="273.586" y="134.294"/></g><use xlink:href="#m" x="305.115" y="134.294" style="fill:#5c666c;fill-opacity:1"/><use xlink:href="#n" x="330.699" y="134.294" style="fill:#5c666c;fill-opacity:1"/><use xlink:href="#r" x="358.825" y="134.294" style="fill:#5c666c;fill-opacity:1"/></g><filter id="a" filterUnits="objectBoundingBox" x="0%" y="0%" width="100%" height="100%"><feColorMatrix in="SourceGraphic" values="0 0 0 0 1 0 0 0 0 1 0 0 0 0 1 0 0 0 1 0"/></filter><mask id="g"><g filter="url(#a)"><path style="fill:#000;fill-opacity:.2;stroke:none" d="M0 0h543v842H0z"/></g></mask></defs><g clip-path="url(#s)"><use xlink:href="#t"/></g><use xlink:href="#u" x="201.693" y="295.257" style="fill:#646464;fill-opacity:1"/><g style="fill:#646464;fill-opacity:1"><use xlink:href="#v" x="207.782" y="295.257"/><use xlink:href="#w" x="218.105" y="295.257"/></g><use xlink:href="#x" x="228.06" y="295.257" style="fill:#646464;fill-opacity:1"/><use xlink:href="#v" x="243.348" y="295.257" style="fill:#646464;fill-opacity:1"/><use xlink:href="#y" x="253.677" y="295.257" style="fill:#646464;fill-opacity:1"/><g style="fill:#646464;fill-opacity:1"><use xlink:href="#z" x="259.783" y="295.257"/><use xlink:href="#A" x="269.563" y="295.257"/></g><use xlink:href="#y" x="279.66" y="295.257" style="fill:#646464;fill-opacity:1"/><use xlink:href="#B" x="285.93" y="295.257" style="fill:#646464;fill-opacity:1"/><use xlink:href="#C" x="295.183" y="295.257" style="fill:#646464;fill-opacity:1"/><g style="fill:#646464;fill-opacity:1"><use xlink:href="#D" x="313.414" y="295.257"/><use xlink:href="#B" x="325.13" y="295.257"/></g><g style="fill:#646464;fill-opacity:1"><use xlink:href="#C" x="334.383" y="295.257"/><use xlink:href="#E" x="348.918" y="295.257"/></g><use xlink:href="#F" x="358.438" y="295.257" style="fill:#646464;fill-opacity:1"/><use xlink:href="#G" x="201.693" y="332.197" style="fill:#bebebe;fill-opacity:1"/><use xlink:href="#H" x="212.13" y="332.197" style="fill:#bebebe;fill-opacity:1"/><use xlink:href="#E" x="222.209" y="332.197" style="fill:#bebebe;fill-opacity:1"/><use xlink:href="#I" x="231.734" y="332.197" style="fill:#bebebe;fill-opacity:1"/><g style="fill:#bebebe;fill-opacity:1"><use xlink:href="#J" x="241.099" y="332.197"/><use xlink:href="#B" x="245.435" y="332.197"/></g><g style="fill:#bebebe;fill-opacity:1"><use xlink:href="#K" x="254.686" y="332.197"/><use xlink:href="#J" x="259.022" y="332.197"/><use xlink:href="#L" x="263.358" y="332.197"/></g><use xlink:href="#B" x="272.47" y="332.197" style="fill:#bebebe;fill-opacity:1"/><use xlink:href="#M" x="281.721" y="332.197" style="fill:#bebebe;fill-opacity:1"/><g style="fill:#bebebe;fill-opacity:1"><use xlink:href="#J" x="287.911" y="332.197"/><use xlink:href="#z" x="292.247" y="332.197"/></g><use xlink:href="#N" x="302.031" y="332.197" style="fill:#bebebe;fill-opacity:1"/><g style="fill:#bebebe;fill-opacity:1"><use xlink:href="#J" x="315.638" y="332.197"/><use xlink:href="#N" x="319.974" y="332.197"/></g><use xlink:href="#G" x="333.581" y="332.197" style="fill:#bebebe;fill-opacity:1"/><use xlink:href="#H" x="344.018" y="332.197" style="fill:#bebebe;fill-opacity:1"/><use xlink:href="#E" x="354.103" y="332.197" style="fill:#bebebe;fill-opacity:1"/><use xlink:href="#I" x="363.628" y="332.197" style="fill:#bebebe;fill-opacity:1"/><g style="fill:#bebebe;fill-opacity:1"><use xlink:href="#J" x="372.993" y="332.197"/><use xlink:href="#B" x="377.329" y="332.197"/></g><g style="fill:#bebebe;fill-opacity:1"><use xlink:href="#K" x="386.574" y="332.197"/><use xlink:href="#J" x="390.91" y="332.197"/><use xlink:href="#L" x="395.246" y="332.197"/></g><use xlink:href="#B" x="404.364" y="332.197" style="fill:#bebebe;fill-opacity:1"/><use xlink:href="#M" x="413.609" y="332.197" style="fill:#bebebe;fill-opacity:1"/><g style="fill:#bebebe;fill-opacity:1"><use xlink:href="#J" x="419.805" y="332.197"/><use xlink:href="#z" x="424.141" y="332.197"/></g><use xlink:href="#N" x="433.92" y="332.197" style="fill:#bebebe;fill-opacity:1"/><g style="fill:#bebebe;fill-opacity:1"><use xlink:href="#J" x="447.527" y="332.197"/><use xlink:href="#N" x="451.863" y="332.197"/></g><use xlink:href="#u" x="201.693" y="351.532" style="fill:#bebebe;fill-opacity:1"/><use xlink:href="#G" x="207.782" y="351.532" style="fill:#bebebe;fill-opacity:1"/><use xlink:href="#H" x="218.219" y="351.532" style="fill:#bebebe;fill-opacity:1"/><use xlink:href="#E" x="228.298" y="351.532" style="fill:#bebebe;fill-opacity:1"/><use xlink:href="#I" x="237.828" y="351.532" style="fill:#bebebe;fill-opacity:1"/><g style="fill:#bebebe;fill-opacity:1"><use xlink:href="#J" x="247.188" y="351.532"/><use xlink:href="#B" x="251.524" y="351.532"/></g><g style="fill:#bebebe;fill-opacity:1"><use xlink:href="#K" x="260.775" y="351.532"/><use xlink:href="#J" x="265.111" y="351.532"/><use xlink:href="#M" x="269.447" y="351.532"/></g><use xlink:href="#O" x="275.637" y="351.532" style="fill:#bebebe;fill-opacity:1"/><use xlink:href="#D" x="288.672" y="351.532" style="fill:#bebebe;fill-opacity:1"/><use xlink:href="#B" x="300.39" y="351.532" style="fill:#bebebe;fill-opacity:1"/><use xlink:href="#C" x="309.641" y="351.532" style="fill:#bebebe;fill-opacity:1"/><use xlink:href="#E" x="324.177" y="351.532" style="fill:#bebebe;fill-opacity:1"/><use xlink:href="#F" x="333.707" y="351.532" style="fill:#bebebe;fill-opacity:1"/><use xlink:href="#P" x="201.693" y="419.107" style="fill:#646464;fill-opacity:1"/><use xlink:href="#Q" x="217.31" y="419.107" style="fill:#646464;fill-opacity:1"/><use xlink:href="#E" x="228.24" y="419.107" style="fill:#646464;fill-opacity:1"/><use xlink:href="#y" x="237.765" y="419.107" style="fill:#646464;fill-opacity:1"/><use xlink:href="#O" x="244.55" y="419.107" style="fill:#646464;fill-opacity:1"/><use xlink:href="#R" x="257.586" y="419.107" style="fill:#646464;fill-opacity:1"/><use xlink:href="#z" x="266.635" y="419.107" style="fill:#646464;fill-opacity:1"/><use xlink:href="#N" x="276.414" y="419.107" style="fill:#646464;fill-opacity:1"/><use xlink:href="#A" x="286.324" y="419.107" style="fill:#646464;fill-opacity:1"/><use xlink:href="#B" x="300.115" y="419.107" style="fill:#646464;fill-opacity:1"/><use xlink:href="#N" x="309.366" y="419.107" style="fill:#646464;fill-opacity:1"/><use xlink:href="#S" x="319.276" y="419.107" style="fill:#646464;fill-opacity:1"/><use xlink:href="#T" x="333.101" y="419.107" style="fill:#646464;fill-opacity:1"/><use xlink:href="#C" x="337.57" y="419.107" style="fill:#646464;fill-opacity:1"/><use xlink:href="#H" x="352.106" y="419.107" style="fill:#646464;fill-opacity:1"/><use xlink:href="#y" x="362.191" y="419.107" style="fill:#646464;fill-opacity:1"/><use xlink:href="#E" x="368.297" y="419.107" style="fill:#646464;fill-opacity:1"/><use xlink:href="#U" x="377.827" y="419.107" style="fill:#646464;fill-opacity:1"/><use xlink:href="#U" x="386.781" y="419.107" style="fill:#646464;fill-opacity:1"/><g style="fill:#646464;fill-opacity:1"><use xlink:href="#J" x="395.735" y="419.107"/><use xlink:href="#V" x="400.071" y="419.107"/></g><use xlink:href="#E" x="409.122" y="419.107" style="fill:#646464;fill-opacity:1"/><use xlink:href="#W" x="201.693" y="438.442" style="fill:#646464;fill-opacity:1"/><use xlink:href="#w" x="212.342" y="438.442" style="fill:#646464;fill-opacity:1"/><use xlink:href="#E" x="222.295" y="438.442" style="fill:#646464;fill-opacity:1"/><use xlink:href="#U" x="231.82" y="438.442" style="fill:#646464;fill-opacity:1"/><g style="fill:#646464;fill-opacity:1"><use xlink:href="#J" x="240.774" y="438.442"/><use xlink:href="#U" x="245.11" y="438.442"/></g><use xlink:href="#W" x="257.766" y="438.442" style="fill:#646464;fill-opacity:1"/><g style="fill:#646464;fill-opacity:1"><use xlink:href="#J" x="268.416" y="438.442"/><use xlink:href="#M" x="272.752" y="438.442"/></g><g style="fill:#646464;fill-opacity:1"><use xlink:href="#K" x="279.128" y="438.442"/><use xlink:href="#E" x="283.464" y="438.442"/></g><use xlink:href="#X" x="296.686" y="438.442" style="fill:#646464;fill-opacity:1"/><g style="fill:#646464;fill-opacity:1"><use xlink:href="#J" x="310.238" y="438.442"/><use xlink:href="#M" x="314.574" y="438.442"/></g><use xlink:href="#w" x="320.945" y="438.442" style="fill:#646464;fill-opacity:1"/><use xlink:href="#B" x="334.594" y="438.442" style="fill:#646464;fill-opacity:1"/><use xlink:href="#Y" x="347.541" y="438.442" style="fill:#646464;fill-opacity:1"/><use xlink:href="#z" x="356.23" y="438.442" style="fill:#646464;fill-opacity:1"/><use xlink:href="#y" x="366.009" y="438.442" style="fill:#646464;fill-opacity:1"/><use xlink:href="#I" x="372.121" y="438.442" style="fill:#646464;fill-opacity:1"/><use xlink:href="#E" x="381.48" y="438.442" style="fill:#646464;fill-opacity:1"/><use xlink:href="#S" x="391.011" y="438.442" style="fill:#646464;fill-opacity:1"/><use xlink:href="#R" x="404.83" y="438.442" style="fill:#646464;fill-opacity:1"/><g style="fill:#646464;fill-opacity:1"><use xlink:href="#J" x="413.879" y="438.442"/><use xlink:href="#N" x="418.215" y="438.442"/></g><use xlink:href="#E" x="428.125" y="438.442" style="fill:#646464;fill-opacity:1"/><use xlink:href="#Z" x="441.347" y="438.442" style="fill:#646464;fill-opacity:1"/><use xlink:href="#y" x="451.88" y="438.442" style="fill:#646464;fill-opacity:1"/><use xlink:href="#E" x="457.992" y="438.442" style="fill:#646464;fill-opacity:1"/><use xlink:href="#B" x="467.517" y="438.442" style="fill:#646464;fill-opacity:1"/><use xlink:href="#aa" x="476.768" y="438.442" style="fill:#646464;fill-opacity:1"/><g style="fill:#646464;fill-opacity:1"><use xlink:href="#ab" x="201.693" y="461.113"/><use xlink:href="#ac" x="209.638" y="461.113"/></g><use xlink:href="#ad" x="218.201" y="461.113" style="fill:#646464;fill-opacity:1"/><use xlink:href="#ae" x="226.909" y="461.113" style="fill:#646464;fill-opacity:1"/><use xlink:href="#af" x="238.816" y="461.113" style="fill:#646464;fill-opacity:1"/><use xlink:href="#ag" x="248.38" y="461.113" style="fill:#646464;fill-opacity:1"/><use xlink:href="#ah" x="256.716" y="461.113" style="fill:#646464;fill-opacity:1"/><use xlink:href="#ai" x="262.655" y="461.113" style="fill:#646464;fill-opacity:1"/><use xlink:href="#aj" x="274.067" y="461.113" style="fill:#646464;fill-opacity:1"/><use xlink:href="#ac" x="281.981" y="461.113" style="fill:#646464;fill-opacity:1"/><use xlink:href="#ae" x="290.54" y="461.113" style="fill:#646464;fill-opacity:1"/><g style="fill:#646464;fill-opacity:1"><use xlink:href="#ak" x="299.218" y="461.113"/><use xlink:href="#ae" x="308.044" y="461.113"/></g><g style="fill:#646464;fill-opacity:1"><use xlink:href="#al" x="316.722" y="461.113"/><use xlink:href="#am" x="324.81" y="461.113"/></g><use xlink:href="#ag" x="337.53" y="461.113" style="fill:#646464;fill-opacity:1"/><g style="fill:#646464;fill-opacity:1"><use xlink:href="#an" x="349.105" y="461.113"/><use xlink:href="#ac" x="359.244" y="461.113"/></g><use xlink:href="#ag" x="367.807" y="461.113" style="fill:#646464;fill-opacity:1"/><use xlink:href="#ao" x="201.693" y="636.314" style="fill:#646464;fill-opacity:1"/><use xlink:href="#ap" x="210.643" y="636.314" style="fill:#646464;fill-opacity:1"/><use xlink:href="#aq" x="218.889" y="636.314" style="fill:#646464;fill-opacity:1"/><use xlink:href="#ar" x="227.009" y="636.314" style="fill:#646464;fill-opacity:1"/><use xlink:href="#as" x="234.299" y="636.314" style="fill:#646464;fill-opacity:1"/><use xlink:href="#ar" x="237.608" y="636.314" style="fill:#646464;fill-opacity:1"/><use xlink:href="#at" x="248.825" y="636.314" style="fill:#646464;fill-opacity:1"/><use xlink:href="#au" x="257.322" y="636.314" style="fill:#646464;fill-opacity:1"/><use xlink:href="#aq" x="262.276" y="636.314" style="fill:#646464;fill-opacity:1"/><use xlink:href="#ar" x="270.401" y="636.314" style="fill:#646464;fill-opacity:1"/><use xlink:href="#aq" x="277.69" y="636.314" style="fill:#646464;fill-opacity:1"/><use xlink:href="#av" x="285.81" y="636.314" style="fill:#646464;fill-opacity:1"/><use xlink:href="#aw" x="293.974" y="636.314" style="fill:#646464;fill-opacity:1"/><use xlink:href="#aq" x="298.969" y="636.314" style="fill:#646464;fill-opacity:1"/><use xlink:href="#ax" x="307.089" y="636.314" style="fill:#646464;fill-opacity:1"/><use xlink:href="#ay" x="319.673" y="636.314" style="fill:#646464;fill-opacity:1"/><use xlink:href="#ar" x="327.538" y="636.314" style="fill:#646464;fill-opacity:1"/><use xlink:href="#at" x="338.75" y="636.314" style="fill:#646464;fill-opacity:1"/><use xlink:href="#ay" x="347.252" y="636.314" style="fill:#646464;fill-opacity:1"/><use xlink:href="#au" x="355.117" y="636.314" style="fill:#646464;fill-opacity:1"/><use xlink:href="#aw" x="360.779" y="636.314" style="fill:#646464;fill-opacity:1"/><use xlink:href="#as" x="365.854" y="636.314" style="fill:#646464;fill-opacity:1"/><use xlink:href="#ay" x="369.164" y="636.314" style="fill:#646464;fill-opacity:1"/><use xlink:href="#az" x="377.028" y="636.314" style="fill:#646464;fill-opacity:1"/><use xlink:href="#au" x="384.261" y="636.314" style="fill:#646464;fill-opacity:1"/><use xlink:href="#aq" x="389.21" y="636.314" style="fill:#646464;fill-opacity:1"/><use xlink:href="#aA" x="397.335" y="636.314" style="fill:#646464;fill-opacity:1"/><g style="fill:#646464;fill-opacity:1"><use xlink:href="#aB" x="405.836" y="636.314"/><use xlink:href="#as" x="413.939" y="636.314"/></g><use xlink:href="#au" x="417.244" y="636.314" style="fill:#646464;fill-opacity:1"/><use xlink:href="#aq" x="422.198" y="636.314" style="fill:#646464;fill-opacity:1"/><use xlink:href="#aC" x="430.323" y="636.314" style="fill:#646464;fill-opacity:1"/><use xlink:href="#aq" x="442.444" y="636.314" style="fill:#646464;fill-opacity:1"/><use xlink:href="#av" x="450.569" y="636.314" style="fill:#646464;fill-opacity:1"/><use xlink:href="#aw" x="458.733" y="636.314" style="fill:#646464;fill-opacity:1"/><use xlink:href="#aD" x="467.726" y="636.314" style="fill:#646464;fill-opacity:1"/><use xlink:href="#aE" x="472.44" y="636.314" style="fill:#646464;fill-opacity:1"/><use xlink:href="#au" x="480.764" y="636.314" style="fill:#646464;fill-opacity:1"/><g style="fill:#646464;fill-opacity:1"><use xlink:href="#aE" x="201.693" y="653.232"/><use xlink:href="#aF" x="210.012" y="653.232"/><use xlink:href="#aw" x="218.668" y="653.232"/></g><g style="fill:#646464;fill-opacity:1"><use xlink:href="#ay" x="223.743" y="653.232"/><use xlink:href="#as" x="231.606" y="653.232"/><use xlink:href="#av" x="234.913" y="653.232"/></g><use xlink:href="#as" x="243.078" y="653.232" style="fill:#646464;fill-opacity:1"/><use xlink:href="#av" x="246.39" y="653.232" style="fill:#646464;fill-opacity:1"/><use xlink:href="#aG" x="254.556" y="653.232" style="fill:#646464;fill-opacity:1"/><use xlink:href="#aw" x="266.976" y="653.232" style="fill:#646464;fill-opacity:1"/><g style="fill:#646464;fill-opacity:1"><use xlink:href="#ap" x="272.209" y="653.232"/><use xlink:href="#aq" x="280.449" y="653.232"/></g><g style="fill:#646464;fill-opacity:1"><use xlink:href="#aH" x="292.498" y="653.232"/><use xlink:href="#aE" x="302.521" y="653.232"/><use xlink:href="#aI" x="310.84" y="653.232"/></g><use xlink:href="#aw" x="318.629" y="653.232" style="fill:#646464;fill-opacity:1"/><use xlink:href="#aE" x="323.62" y="653.232" style="fill:#646464;fill-opacity:1"/><use xlink:href="#au" x="331.944" y="653.232" style="fill:#646464;fill-opacity:1"/><g style="fill:#646464;fill-opacity:1"><use xlink:href="#ax" x="341.06" y="653.232"/><use xlink:href="#aq" x="349.716" y="653.232"/><use xlink:href="#aG" x="357.837" y="653.232"/></g><use xlink:href="#au" x="366.339" y="653.232" style="fill:#646464;fill-opacity:1"/><g style="fill:#646464;fill-opacity:1"><use xlink:href="#aq" x="371.295" y="653.232"/><use xlink:href="#aq" x="379.416" y="653.232"/></g><use xlink:href="#as" x="391.465" y="653.232" style="fill:#646464;fill-opacity:1"/><use xlink:href="#av" x="394.777" y="653.232" style="fill:#646464;fill-opacity:1"/><use xlink:href="#aJ" x="406.847" y="653.232" style="fill:#646464;fill-opacity:1"/><g style="fill:#646464;fill-opacity:1"><use xlink:href="#aK" x="412.175" y="653.232"/><use xlink:href="#ap" x="421.031" y="653.232"/><use xlink:href="#aH" x="429.272" y="653.232"/></g><g style="fill:#646464;fill-opacity:1"><use xlink:href="#aK" x="443.219" y="653.232"/><use xlink:href="#au" x="452.075" y="653.232"/></g><g style="fill:#646464;fill-opacity:1"><use xlink:href="#aE" x="457.027" y="653.232"/><use xlink:href="#aG" x="465.348" y="653.232"/></g><g style="fill:#646464;fill-opacity:1"><use xlink:href="#au" x="473.851" y="653.232"/><use xlink:href="#ay" x="479.042" y="653.232"/><use xlink:href="#aC" x="486.907" y="653.232"/></g><g style="fill:#646464;fill-opacity:1"><use xlink:href="#aL" x="201.693" y="670.151"/><use xlink:href="#ay" x="212.192" y="670.151"/><use xlink:href="#aC" x="220.057" y="670.151"/><use xlink:href="#aq" x="232.181" y="670.151"/></g><use xlink:href="#aM" x="240.306" y="670.151" style="fill:#646464;fill-opacity:1"/><use xlink:href="#aN" x="201.693" y="710.351" style="fill:#646464;fill-opacity:1"/><g style="fill:#646464;fill-opacity:1"><use xlink:href="#aO" x="205.879" y="710.351"/><use xlink:href="#aP" x="215.872" y="710.351"/><use xlink:href="#aQ" x="222.597" y="710.351"/><use xlink:href="#aR" x="229.411" y="710.351"/></g><use xlink:href="#aS" x="233.796" y="710.351" style="fill:#646464;fill-opacity:1"/><use xlink:href="#aT" x="240.635" y="710.351" style="fill:#646464;fill-opacity:1"/><use xlink:href="#aU" x="244.822" y="710.351" style="fill:#646464;fill-opacity:1"/><use xlink:href="#aN" x="250.309" y="710.351" style="fill:#646464;fill-opacity:1"/><g style="fill:#646464;fill-opacity:1"><use xlink:href="#aV" x="254.495" y="710.351"/><use xlink:href="#aW" x="260.717" y="710.351"/></g><use xlink:href="#aX" x="267.267" y="710.351" style="fill:#646464;fill-opacity:1"/><use xlink:href="#aY" x="273.625" y="710.351" style="fill:#646464;fill-opacity:1"/><use xlink:href="#aT" x="278.106" y="710.351" style="fill:#646464;fill-opacity:1"/><use xlink:href="#aZ" x="201.693" y="755.587" style="fill:#646464;fill-opacity:1"/><use xlink:href="#ba" x="209.745" y="755.587" style="fill:#646464;fill-opacity:1"/><use xlink:href="#bb" x="217.867" y="755.587" style="fill:#646464;fill-opacity:1"/><use xlink:href="#bc" x="225.004" y="755.587" style="fill:#646464;fill-opacity:1"/><use xlink:href="#bd" x="235.745" y="755.587" style="fill:#646464;fill-opacity:1"/><use xlink:href="#aQ" x="238.817" y="755.587" style="fill:#646464;fill-opacity:1"/><use xlink:href="#be" x="245.631" y="755.587" style="fill:#646464;fill-opacity:1"/><use xlink:href="#aP" x="249.65" y="755.587" style="fill:#646464;fill-opacity:1"/><use xlink:href="#aY" x="256.373" y="755.587" style="fill:#646464;fill-opacity:1"/><use xlink:href="#aO" x="260.851" y="755.587" style="fill:#646464;fill-opacity:1"/><use xlink:href="#aX" x="270.844" y="755.587" style="fill:#646464;fill-opacity:1"/><use xlink:href="#aR" x="277.204" y="755.587" style="fill:#646464;fill-opacity:1"/><g style="fill:#646464;fill-opacity:1"><use xlink:href="#bf" x="281.464" y="755.587"/><use xlink:href="#aP" x="284.445" y="755.587"/></g><use xlink:href="#aQ" x="291.168" y="755.587" style="fill:#646464;fill-opacity:1"/><use xlink:href="#bg" x="300.523" y="755.587" style="fill:#646464;fill-opacity:1"/><use xlink:href="#aX" x="310.547" y="755.587" style="fill:#646464;fill-opacity:1"/><use xlink:href="#aQ" x="316.907" y="755.587" style="fill:#646464;fill-opacity:1"/><use xlink:href="#aX" x="323.721" y="755.587" style="fill:#646464;fill-opacity:1"/><use xlink:href="#bh" x="330.081" y="755.587" style="fill:#646464;fill-opacity:1"/><use xlink:href="#aW" x="337.02" y="755.587" style="fill:#646464;fill-opacity:1"/><use xlink:href="#aO" x="343.569" y="755.587" style="fill:#646464;fill-opacity:1"/><use xlink:href="#aW" x="353.562" y="755.587" style="fill:#646464;fill-opacity:1"/><use xlink:href="#aQ" x="360.111" y="755.587" style="fill:#646464;fill-opacity:1"/><use xlink:href="#aR" x="366.928" y="755.587" style="fill:#646464;fill-opacity:1"/><use xlink:href="#bi" x="373.725" y="755.587" style="fill:#646464;fill-opacity:1"/><use xlink:href="#bj" x="380.9" y="755.587" style="fill:#646464;fill-opacity:1"/><use xlink:href="#aS" x="387.339" y="755.587" style="fill:#646464;fill-opacity:1"/><use xlink:href="#aP" x="394.182" y="755.587" style="fill:#646464;fill-opacity:1"/><use xlink:href="#aP" x="400.905" y="755.587" style="fill:#646464;fill-opacity:1"/><use xlink:href="#bk" x="407.628" y="755.587" style="fill:#646464;fill-opacity:1"/><g style="fill:#646464;fill-opacity:1"><use xlink:href="#bl" x="201.693" y="771.816"/><use xlink:href="#bm" x="209.943" y="771.816"/></g><use xlink:href="#bn" x="217.912" y="771.816" style="fill:#646464;fill-opacity:1"/><use xlink:href="#bo" x="224.636" y="771.816" style="fill:#646464;fill-opacity:1"/><use xlink:href="#bp" x="235.127" y="771.816" style="fill:#646464;fill-opacity:1"/><use xlink:href="#bq" x="243.256" y="771.816" style="fill:#646464;fill-opacity:1"/><g style="fill:#646464;fill-opacity:1"><use xlink:href="#br" x="249.665" y="771.816"/><use xlink:href="#bs" x="252.264" y="771.816"/></g><use xlink:href="#bt" x="258.147" y="771.816" style="fill:#646464;fill-opacity:1"/><g style="fill:#646464;fill-opacity:1"><use xlink:href="#bu" x="264.532" y="771.816"/><use xlink:href="#bv" x="268.61" y="771.816"/><use xlink:href="#br" x="274.338" y="771.816"/><use xlink:href="#bw" x="276.937" y="771.816"/><use xlink:href="#bx" x="280.921" y="771.816"/></g><use xlink:href="#by" x="290.105" y="771.816" style="fill:#646464;fill-opacity:1"/><g style="fill:#646464;fill-opacity:1"><use xlink:href="#br" x="296.272" y="771.816"/><use xlink:href="#bv" x="298.871" y="771.816"/><use xlink:href="#bz" x="304.599" y="771.816"/><use xlink:href="#bA" x="311.4" y="771.816"/></g><use xlink:href="#bq" x="317.942" y="771.816" style="fill:#646464;fill-opacity:1"/></svg>