<svg xmlns="http://www.w3.org/2000/svg" width="793.707" height="1122.52" viewBox="0 0 793.707 1122.52"><defs><clipPath id="c" clipPathUnits="userSpaceOnUse"><path d="M2163.41 7006.74h1629.85v843.22H2163.41z"/></clipPath><clipPath id="b" clipPathUnits="userSpaceOnUse"><path d="M288.455 188.288h217.313V75.858H288.455Z"/></clipPath><clipPath id="a" clipPathUnits="userSpaceOnUse"><path d="M288.455 188.288h217.313V75.858H288.455Z"/></clipPath></defs><path d="M0 0h5952.76v8418.9H0Z" style="fill:#fff;fill-opacity:1;fill-rule:nonzero;stroke:none" transform="matrix(.13333 0 0 -.13333 0 1122.52)"/><g clip-path="url(#a)"><g clip-path="url(#b)"><path d="M2163.41 7406.88c.02 128.14 0 256.27.02 384.4 33.69 0 67.36.02 101.05-.02 61.88-75.12 123.72-150.28 185.62-225.4v225.42c33.66 0 67.31-.02 100.97 0 .02-128.13-.01-256.26.02-384.4-33.69.02-67.38-.01-101.07.02-61.75 75.08-123.72 149.98-185.31 225.19-.66-61.41-.21-122.82-.44-184.26-.26-13.66.89-27.32-.07-40.96-33.61.05-67.2 0-100.79.01m885.98 384.37c36.66.08 73.32 0 109.97.05 32.25-75.41 64.48-150.81 96.7-226.24 32.63 75.23 64.61 150.76 96.8 226.2 36.69.02 73.39.04 110.08 0-54.81-128.11-109.53-256.26-164.28-384.38-28.37.05-56.75-.08-85.1.05-54.6 128.17-109.44 256.22-164.17 384.32m322.16-384.35c54.71 128.13 109.47 256.26 164.22 384.4 28.32-.02 56.64-.04 84.98 0 54.85-128.1 109.45-256.32 164.32-384.42h-110.09c-32.07 75.56-64.57 150.93-96.62 226.5-32.43-75.42-64.55-150.99-96.86-226.46-36.66-.07-73.3-.04-109.95-.02m-391.77-72.11c29.11-29.97 57.76-60.37 86.73-90.48-.02 27.45-.02 54.92 0 82.39 5.97-.02 11.95-.03 17.94-.02-.02-42.04.08-84.07-.05-126.11-28.67 30.13-57.67 59.95-86.24 90.16-.41-27.63.16-55.28-.31-82.94-5.91.05-11.8.05-17.69-.01-.89 42.32-.14 84.67-.38 127.01m115.41-126.98c19.49 42.27 39.39 84.33 58.82 126.62 18.84-42.24 38.04-84.33 56.78-126.6-6.55 0-13.09.01-19.63-.02-4.28 9.6-8.43 19.27-12.57 28.93-16.88.07-33.77.03-50.64.03-4.49-9.63-8.88-19.29-13.29-28.96-6.5.02-12.98.02-19.47 0m58.58 85.99c-6.14-13.41-12.28-26.83-18.42-40.24 11.98.03 23.95 0 35.93.02-5.85 13.4-11.76 26.78-17.51 40.22m345.27 41.11c28.78-30.33 57.78-60.46 86.68-90.69.05 27.49 0 54.98.02 82.46 5.98 0 11.99 0 18-.01-.04-42.03.03-84.07-.04-126.11-28.99 29.94-57.74 60.13-86.59 90.19-.15-27.65 0-55.29-.09-82.94-6 .02-11.99.03-17.98-.02-.15 42.37-.13 84.75 0 127.12m-688.72-126.84c19.58 42.06 39.21 84.11 58.74 126.18 19-42.09 38.05-84.18 56.75-126.42-5.97.06-11.93-.18-17.88.06-1.97-.33-2.45 1.81-3.16 3.12-3.79 8.56-7.32 17.25-11.21 25.78-16.84-.02-33.67-.03-50.49 0-4.58-9.62-8.84-19.4-13.48-28.98-6.42.05-12.84-.15-19.27.26m58.38 85.61c-5.95-13.41-12.2-26.7-18.25-40.09 11.95-.03 23.89-.01 35.86-.01-5.83 13.39-11.54 26.83-17.61 40.1m804.19 40.12c9.57-18.81 17.46-38.44 26.36-57.58 10.15-22.81 20.64-45.49 30.6-68.39-6.58-.02-13.13 0-19.67 0-4.22 9.65-8.29 19.36-12.59 28.96-16.82-.02-33.66-.03-50.48.02-4.56-9.64-8.91-19.36-13.42-29.02-6.48.05-12.97.04-19.43.02 19.49 42.01 39.14 83.96 58.63 125.99m-18.37-80.21c11.93-.03 23.87 0 35.83-.01-5.8 13.42-11.63 26.85-17.59 40.21-5.93-13.48-12.22-26.77-18.24-40.2m-1224.93 61.84c12.32 16.02 38.99 18.51 53.63 4.33 3.38-3.12 5.99-6.96 8.45-10.83-4.86-2.85-9.75-5.7-14.53-8.7-2.95 4.14-5.75 9.13-10.97 10.66-8.96 3.32-21.67-.62-23.91-10.74-1.71-6.53 3.31-12.27 8.83-14.9 11.35-5.62 24.4-8.55 33.77-17.59 8.71-7.89 11.32-20.68 9.06-31.91-2.26-14.12-14.02-25.98-27.94-28.99-11.81-2.69-25.3-.64-34.59 7.53-7.84 6.62-11.5 16.66-13.19 26.49 6.12 1.21 12.19 2.68 18.32 3.92 1.09-5.27 1.53-11.11 5.16-15.41 6.95-8.59 21.48-9.07 29.13-1.15 7.81 7.58 7.66 22.34-1.49 28.82-11.49 8.4-26.97 9.94-37.16 20.36-10.43 9.57-11.27 27.16-2.57 38.11m118.64 10.77c16.7 5.18 35.27 3.06 50.47-5.59.13-7.2.03-14.4.07-21.61-10.67 9-24.82 14.95-38.95 12.44-18.79-2.53-33.94-19.26-36.19-37.83-2.13-14.21 2.66-29.42 13.28-39.25 10.98-10.79 28.05-14.52 42.65-9.9 7.21 2.3 13.34 6.92 19.14 11.63.1-7.27.07-14.56.05-21.85-12.82-7.02-27.89-10.26-42.37-7.78-16.96 2.3-32.15 12.81-41.57 26.88-11.67 17.35-12.92 40.87-4.02 59.66 7.4 15.42 20.89 28.26 37.44 33.2m107.49.59c15.54 3.92 32.84 2.62 46.89-5.49 15.08-8.73 26.99-23.56 30.57-40.79 2.77-14.12 1.35-29.38-5.63-42.11-9.42-16.97-26.82-29.64-46.23-32.04-18.85-3.07-38.66 3.47-52.44 16.59-22.06 19.86-25.06 56.95-6.98 80.35 8.35 11.18 20.28 19.86 33.82 23.49m3.37-16.73c-18.84-5.68-32.18-25.12-30.69-44.77.21-20.88 17.41-39.75 38.03-42.35 15.18-2.2 31.23 4.27 40.51 16.51 8.42 10.39 11.01 24.61 8.44 37.58-2.3 12.34-10.56 23.17-21.31 29.47-10.52 5.96-23.46 6.91-34.98 3.56m593.3 16.16c16.68 5.16 35.17 2.99 50.36-5.52.3-7.24.13-14.48.17-21.71-10.34 8.66-23.81 14.58-37.52 12.65-19.36-1.91-35.41-18.94-37.6-38.04-2.05-13.77 2.27-28.51 12.33-38.34 11.28-11.78 29.64-15.87 44.93-10.32 6.65 2.42 12.36 6.76 17.79 11.19.12-7.29.07-14.57.07-21.88-13.37-7.38-29.24-10.48-44.31-7.47-17.87 3.05-33.52 15.14-42.29 30.83-8.63 15.87-9.4 35.64-2.76 52.34 7.01 16.82 21.19 30.98 38.83 36.27m149.83.58c15.13 3.81 31.9 2.66 45.73-4.91 11.81-6.49 21.6-16.67 27.43-28.83 7.68-16.56 7.52-36.59-.55-52.99-7.08-13.77-19.34-24.86-33.81-30.41-15.66-5.75-33.68-5.41-48.85 1.78-15.38 7.4-28.39 20.79-32.99 37.48-4.43 16.05-3.37 34.2 5.31 48.69 8.34 13.95 21.94 24.96 37.73 29.19m7.91-15.66c-11.67-1.98-21.91-9.5-28.37-19.26-12.06-18.5-8.26-46.13 9.69-59.58 16.46-14.2 43.53-12.58 58.39 3.18 16.86 16.25 17.31 45.97 1 62.75-10 11.21-26.13 15.89-40.71 12.91m-1070.56 15.54c21.91 0 43.81-.01 65.72 0 0-5.55 0-11.12.03-16.68-15.89-.76-31.82.75-47.69-.54.1-9.37.05-18.75.05-28.12 15.47-.04 30.96.11 46.46-.07-.03-5.62-.02-11.23-.02-16.86-15.48-.08-30.97.01-46.46-.05.04-13.15.02-26.29 0-39.45 15.89-.03 31.75-.02 47.63 0 0-5.71.03-11.4-.08-17.12-21.87.07-43.74.02-65.62.02-.02 39.63.02 79.24-.02 118.87m412.48 0c6.04 0 12.06 0 18.11-.01-.06-33.92-.04-67.86 0-101.78 11.61 0 23.26-.01 34.89 0-.01-5.69 0-11.38-.03-17.08-17.64.03-35.28.03-52.9 0-.15 39.62-.03 79.24-.07 118.87m568.75 0h18.13c-.05-39.61.03-79.22-.04-118.85-6.02 0-12.05 0-18.05-.02-.04 39.62.02 79.24-.04 118.87m419.24.02c6.02-.03 12.05-.02 18.09-.02-.02-33.93 0-67.87 0-101.8 11.63.03 23.26 0 34.92.01-.03-5.69-.01-11.38-.05-17.08-17.64.03-35.28.03-52.91 0-.13 39.63-.05 79.26-.05 118.89m-914.14-174.13c8.48 8.91 17.29 17.53 26.04 26.2 5.4-3.77 10.78-7.52 16.15-11.34-11.11-7.39-22.14-14.89-33.15-22.39-3 2.55-5.99 5.07-9.04 7.53m451.45.05c8.47 8.88 17.3 17.4 25.93 26.11 5.48-3.66 10.86-7.48 16.25-11.3-10.95-7.06-21.42-14.88-32.53-21.66-3.9.7-6.41 4.71-9.65 6.85m-549.62-10.69c20.06-44.17 39.83-88.47 59.74-132.72-6.84.02-13.69.08-20.52-.07-4.82 9.99-8.93 20.27-13.35 30.4-17.74.03-35.48-.02-53.22.01-4.73-10.07-9.29-20.25-14-30.34-6.8.03-13.58.03-20.35.02 20.4 44.31 41.21 88.43 61.7 132.7m-2.3-46.86c-5.67-12.55-11.47-25.08-17.14-37.64 12.52-.02 25.05-.04 37.59.01-5.02 10.96-9.61 22.11-14.57 33.08-1.18 2.76-2.54 5.56-2.54 8.61-1.94-.42-2.6-2.45-3.34-4.06m1001.73 46.52c20.66-43.78 39.95-88.24 59.86-132.38-6.85.02-13.68.08-20.5-.05-4.73 10-8.85 20.27-13.31 30.39-17.76-.01-35.51-.01-53.28 0-4.64-10.12-9.25-20.26-13.97-30.34-6.77.03-13.53.03-20.27.02 20.25 44.23 41.12 88.17 61.47 132.36m-19.35-84.2c12.54.05 25.09-.01 37.65.04-6.2 13.99-12.16 28.07-18.46 42.02-6.25-14.08-12.73-28.07-19.19-42.06m-1114.63 61.36c9.19 15.8 30.43 21.43 47.12 15.36 8.91-3.43 16.11-10.86 20.51-19.07-5.32-2.66-10.45-5.64-15.52-8.74-3.35 5.49-7.85 11.5-14.85 11.96-9.21 1.82-20.88-3.3-21.85-13.56-1.02-7.84 6.2-13.09 12.59-15.72 13.26-5.69 28.6-9.97 37.14-22.58 10.01-15.65 6.2-38.56-8.29-50.23-12.72-10.78-32.17-12.11-46.71-4.35-11.78 6.29-17.92 19.31-19.77 32.05 6.45 1.28 12.88 2.61 19.27 4.18.93-5.23 1.44-10.88 4.61-15.34 6.94-9.9 23.21-10.85 31.44-2.07 8.09 7.88 7.94 23.17-1.44 30.02-12.05 8.98-28.44 10.48-39.18 21.51-9.96 9.09-11.76 25.07-5.07 36.58m1006.78 12.84c18.83 7.68 41.06 6.23 58.61-4.11.03-7.52 0-15.03.01-22.56-9.52 7.76-21.2 13.85-33.77 13.57-13.47.46-26.63-6.11-34.95-16.58-8.57-10.05-11.88-23.83-10.31-36.8 1.26-14.22 10.2-27.1 22.32-34.37 9.53-5.73 21.22-7.19 32.06-5.27 9.41 1.84 17.37 7.55 24.65 13.48v-22.99c-13.72-7.48-29.85-10.91-45.33-8.08-20.65 3.1-38.76 17.66-47.59 36.39-8.28 18.32-7.49 40.61 2.39 58.19 7.2 12.71 18.29 23.51 31.91 29.13m-1259.53 2.37c16.21-.36 32.61 1.13 48.66-1.74 20.38-3.61 38.15-18.97 44.59-38.63 4.13-13.01 4.39-27.22.96-40.43-4.41-16.58-16.92-30.3-32.15-37.78-19.41-8.96-41.33-5.36-61.99-6.17-.15 41.58-.04 83.17-.07 124.75m18.99-17.57c-.02-29.78-.02-59.59 0-89.37 14.42-.3 30.45-.18 42.14 9.62 22.04 16.5 21.82 54.21-.28 70.56-11.96 8.87-27.59 9.25-41.86 9.19m96.34 17.57c22.92 0 45.87.02 68.79 0 0-5.85 0-11.73.02-17.59-16.62-.01-33.23-.01-49.84 0-.08-9.94-.05-19.91-.03-29.85 16.13-.02 32.26 0 48.39-.02-.01-5.92-.01-11.86-.01-17.8h-48.35c-.08-13.9-.03-27.81-.03-41.7 16.62.04 33.25 0 49.85.02 0-5.93.02-11.87-.03-17.81-22.91.03-45.84.03-68.74 0-.03 41.58.01 83.17-.02 124.75m337.26 0q9.42.03 18.87 0c0-25.6-.03-51.19 0-76.78.13-8.21 1.13-17.21 6.74-23.67 10.45-12.37 32.52-11.78 42.12 1.37 5.03 6.81 5.57 15.68 5.63 23.84-.02 25.08.01 50.16-.02 75.21 6.31.07 12.61.05 18.91.03-.05-27.83.05-55.68-.03-83.52-.18-16.53-10.65-32.08-25.55-39.01-11.8-5.62-25.88-5.91-38.07-1.37-18.19 6.83-30.22 26.08-28.62 45.42.03 26.17.02 52.32.02 78.48m117.3 0c20.2-.65 41.38 2.47 60.61-5.3 17.37-7.27 30.89-23.37 34.42-41.95 2.95-14.91 1.8-31.04-5.2-44.71-7.44-14.05-20.65-25.05-35.86-29.69-17.58-4.81-35.97-2.54-53.94-3.1-.05 41.58.01 83.17-.03 124.75m19.02-17.56c-.09-29.79-.03-59.6-.02-89.4 10.52.02 21.4-.39 31.41 3.46 11.94 4.77 21.73 15.08 25.21 27.54 4.44 16.3.93 35.59-12.17 47.04-11.98 10.84-29.14 11.48-44.43 11.36m96.18 17.51c22.97.12 45.93.05 68.89.05v-17.59c-16.64 0-33.3-.01-49.94 0-.1-9.93-.02-19.87-.06-29.82 16.16-.09 32.31-.01 48.47-.05-.02-5.92-.02-11.86-.02-17.79-16.13-.01-32.27-.01-48.41-.01-.04-13.9-.03-27.81-.01-41.7 16.65.04 33.31.02 49.97 0 0-5.93.02-11.85-.05-17.79-22.94.03-45.89.03-68.83 0 0 41.57.03 83.14-.01 124.7m134.24.05c13.58-.23 27.27.77 40.76-1.17 14.26-1.8 26.32-13.84 28.62-27.96 2.57-12.8-1.03-27.53-11.72-35.74-10.69-8.99-25.35-9.68-38.65-9.16 0-16.9-.01-33.8 0-50.7-6.34.01-12.66.01-18.98-.02-.03 41.58 0 83.17-.03 124.75m19.01-17.35c-.01-13.02 0-26.05 0-39.1 7.93.06 16.41-.57 23.67 3.24 11.92 5.79 12.45 25.86.67 32.11-7.44 3.97-16.13 3.81-24.34 3.75m65.61 17.35c6.32.02 12.64.02 18.98 0 0-25.65-.03-51.31 0-76.98.21-7.71.98-16.09 5.85-22.41 9.81-13.05 32.05-13.3 42.24-.58 5.39 6.32 6.22 15.12 6.35 23.09-.01 25.62.04 51.22-.03 76.81 6.32.13 12.65.09 18.99.07-.05-27.84.05-55.69-.05-83.52-.23-16.15-10.21-31.42-24.62-38.54-14.22-7.12-32.16-6.67-45.83 1.53-12.95 7.64-21.51 21.96-21.8 37.03-.19 27.84-.04 55.67-.08 83.5m116.79 0c14.09-.44 28.68 1.56 42.29-2.94 21.21-7.67 28.12-39.41 10.84-54.54 17.44-5.96 25.61-27.46 18.88-44.1-4.61-11.76-15.86-20.77-28.48-22.17-14.43-1.9-29-.58-43.49-1-.07 41.58-.02 83.17-.04 124.75m18.97-17.19c.02-12.08 0-24.18 0-36.27 7.16.13 15.43-.61 21.15 4.63 6.08 6.33 6.41 17.16 2 24.48-5.11 7.45-15.1 7.23-23.15 7.16m0-52.16c.02-12.52 0-25.06 0-37.59 10.08.29 21.59-1.56 30.17 5 9.21 7.01 8.17 22.78-1.69 28.72-8.58 4.97-18.97 3.63-28.48 3.87m74.23 69.35c6.24.02 12.47.02 18.72-.01 0-35.65-.01-71.29 0-106.95 12.23.02 24.47.02 36.71.02 0-5.95.02-11.87-.04-17.81-18.45.03-36.89.03-55.34 0-.13 41.58-.03 83.17-.05 124.75m68.11 0c6.31.02 12.63.04 18.93-.03 0-41.45-.08-82.89.05-124.32-6.32-.56-12.64-.37-18.96-.38-.03 41.58 0 83.15-.02 124.73" clip-path="url(#c)" style="fill:#030405;fill-opacity:1;fill-rule:nonzero;stroke:none" transform="matrix(.13333 0 0 -.13333 0 1122.52)"/><path d="M2826.1 7847.17c2.51.36 5.08-.12 7.61-.1-.28-1.52-1.25-2.76-2.02-4.06-4.48-7.37-8.89-14.77-13.4-22.12-2.5.66-5.09.85-7.67.8 5.15 8.5 10.22 17.05 15.48 25.48" clip-path="url(#c)" style="fill:#66c0d2;fill-opacity:1;fill-rule:nonzero;stroke:none" transform="matrix(.13333 0 0 -.13333 0 1122.52)"/><path d="M2810.02 7756.88c7.58 10.16 15.28 20.23 22.88 30.39 2.64.03 5.3-.23 7.68-1.43-7.59-10.06-15.13-20.17-22.75-30.21-2.6.41-5.21.83-7.81 1.25" clip-path="url(#c)" style="fill:#66c0d2;fill-opacity:1;fill-rule:nonzero;stroke:none" transform="matrix(.13333 0 0 -.13333 0 1122.52)"/><path d="M2871.56 7677.39c7.65 5.49 15.29 11 22.96 16.48 3.2-.2 6.69.19 9.49-1.73a5833 5833 0 0 0-23.99-17.3c0 .34 0 1.02.01 1.36-2.83.41-5.65.76-8.47 1.19" clip-path="url(#c)" style="fill:#66c0d2;fill-opacity:1;fill-rule:nonzero;stroke:none" transform="matrix(.13333 0 0 -.13333 0 1122.52)"/><path d="M2802.34 7846.52c2.76.42 5.55.49 8.34.62-7.31-13.63-14.54-27.3-21.96-40.85.04 1.27 1.27 3.14.01 4.09-1.77.44-3.61.41-5.41.53 6.3 11.88 12.81 23.66 19.02 35.61" clip-path="url(#c)" style="fill:#5bbdd8;fill-opacity:1;fill-rule:nonzero;stroke:none" transform="matrix(.13333 0 0 -.13333 0 1122.52)"/><path d="M2895.02 7624.09c23.48 10.54 47.15 20.76 70.77 30.98 4.4-1.31 9.16.3 13.43-1.53-27.7-12.4-55.61-24.4-83.4-36.66-.24 2.41-.43 4.82-.8 7.21" clip-path="url(#c)" style="fill:#5bbdd8;fill-opacity:1;fill-rule:nonzero;stroke:none" transform="matrix(.13333 0 0 -.13333 0 1122.52)"/><path d="M2826.2 7809.95c8.13 11.91 16.25 23.85 24.55 35.66 2.5-.44 5.01-.77 7.53-1.15-7.9-11.9-16.28-23.48-24.1-35.43l-.27.02c-2.59.18-5.17.49-7.71.9" clip-path="url(#c)" style="fill:#6fc1cd;fill-opacity:1;fill-rule:nonzero;stroke:none" transform="matrix(.13333 0 0 -.13333 0 1122.52)"/><path d="M2834.03 7756.91c8.04 9.93 16.26 19.72 24.42 29.56 2.6-.71 5.28-1.04 7.97-1.26-8.17-9.86-16.27-19.78-24.48-29.59-2.64.42-5.28.83-7.91 1.29" clip-path="url(#c)" style="fill:#6fc1cd;fill-opacity:1;fill-rule:nonzero;stroke:none" transform="matrix(.13333 0 0 -.13333 0 1122.52)"/><path d="M2898.99 7718.03c3.1-.6 6.26-.76 9.38-1.27-6.34-5.41-12.95-10.51-19.37-15.82l-.13.03c-3.31.66-6.68 1.06-10.04.8q10.065 8.145 20.16 16.26" clip-path="url(#c)" style="fill:#6fc1cd;fill-opacity:1;fill-rule:nonzero;stroke:none" transform="matrix(.13333 0 0 -.13333 0 1122.52)"/><path d="M2942.55 7672c17.53 9.54 35.16 18.95 52.8 28.27 1.71-.44 3.88-.11 5.06-1.73 8.11-8.6 16.32-17.11 24.45-25.72-.88.16-1.73.33-2.6.49a38 38 0 0 1-3.64-4.08c-7.53 7.83-14.95 15.75-22.46 23.59-13.96-7.3-27.74-15.05-41.76-22.19-3.9.93-7.99.17-11.85 1.37" clip-path="url(#c)" style="fill:#6fc1cd;fill-opacity:1;fill-rule:nonzero;stroke:none" transform="matrix(.13333 0 0 -.13333 0 1122.52)"/><path d="M2779.85 7843.67c2.78.59 5.59 1.03 8.4 1.4-6.68-14.21-13.53-28.32-20.22-42.53-2.03 1.14-4.45 1.37-6.38 2.69 5.84 12.91 12.19 25.6 18.2 38.44" clip-path="url(#c)" style="fill:#57b7d9;fill-opacity:1;fill-rule:nonzero;stroke:none" transform="matrix(.13333 0 0 -.13333 0 1122.52)"/><path d="M2852.23 7812.91c7.16 9.52 14.27 19.07 21.54 28.51 2.39-.6 4.79-1.19 7.16-1.85-6.83-9.38-13.9-18.6-20.88-27.87-2.61.4-5.22.79-7.82 1.21" clip-path="url(#c)" style="fill:#76c3c8;fill-opacity:1;fill-rule:nonzero;stroke:none" transform="matrix(.13333 0 0 -.13333 0 1122.52)"/><path d="M2888.41 7761.34c3 .23 6-.18 8.86-1.16-6.18-6.03-12.34-12.07-18.58-18.03-2.67 1.35-5.72 1.16-8.62 1.32 6.06 6 12.29 11.85 18.34 17.87" clip-path="url(#c)" style="fill:#76c3c8;fill-opacity:1;fill-rule:nonzero;stroke:none" transform="matrix(.13333 0 0 -.13333 0 1122.52)"/><path d="M2914.28 7730.43c3.12-.12 6.22-.68 9.23-1.53-4.99-4.07-9.99-8.15-15.03-12.16l-.11.02c-3.12.51-6.28.67-9.38 1.27 5.06 4.17 10.21 8.25 15.29 12.4" clip-path="url(#c)" style="fill:#76c3c8;fill-opacity:1;fill-rule:nonzero;stroke:none" transform="matrix(.13333 0 0 -.13333 0 1122.52)"/><path d="M2756.92 7838.47c2.83.75 5.67 1.52 8.51 2.2-3.83-9.01-7.95-17.92-11.83-26.91-.75 1.03-1.19 2.52-2.57 2.85-1.22.33-2.48.32-3.73.37 3.27 7.15 6.31 14.38 9.62 21.49" clip-path="url(#c)" style="fill:#54b1d9;fill-opacity:1;fill-rule:nonzero;stroke:none" transform="matrix(.13333 0 0 -.13333 0 1122.52)"/><path d="M2735.45 7831.25c2.84 1.02 5.64 2.16 8.51 3.12-11.03-29.92-22.31-59.76-33.48-89.62-.18-.75-.87-1.9.13-2.39 26.4-20.3 52.86-40.52 79.26-60.82-2.3-1.02-4.53-2.16-6.65-3.52-26.18 19.63-51.99 39.77-78.02 59.62-2.11 1.19-2.99 3.99-2.54 6.22 10.96 29.12 21.76 58.3 32.79 87.39" clip-path="url(#c)" style="fill:#4ea6dc;fill-opacity:1;fill-rule:nonzero;stroke:none" transform="matrix(.13333 0 0 -.13333 0 1122.52)"/><path d="M2717.11 7823.16c2.81.97 5.36 3.48 8.46 2.95-10.33-28.8-21.09-57.45-31.41-86.27 29.22-20.84 58.48-41.64 87.68-62.52a257 257 0 0 1-6.17-4.19c-29.07 20.75-58.19 41.44-87.25 62.2-1.4 1.66-2.18 4.31-1.13 6.36 9.95 27.15 19.84 54.33 29.82 81.47" clip-path="url(#c)" style="fill:#4ea6dc;fill-opacity:1;fill-rule:nonzero;stroke:none" transform="matrix(.13333 0 0 -.13333 0 1122.52)"/><path d="M2992.72 7595.18c2.12 1.53 4.7 2 7.26 1.68 13.69-20.92 27.43-41.81 41.1-62.75-.99-2.7-1.97-5.4-3.07-8.05-15.17 22.98-30.17 46.1-45.29 69.12" clip-path="url(#c)" style="fill:#4ea6dc;fill-opacity:1;fill-rule:nonzero;stroke:none" transform="matrix(.13333 0 0 -.13333 0 1122.52)"/><path d="M2963.5 7584.68c2.52.3 5.06.43 7.6.44 16.55-31.17 33.08-62.35 49.58-93.56-1.4-2.22-2.71-4.53-4.34-6.62-17.71 33.2-35.34 66.44-52.84 99.74" clip-path="url(#c)" style="fill:#4ea6dc;fill-opacity:1;fill-rule:nonzero;stroke:none" transform="matrix(.13333 0 0 -.13333 0 1122.52)"/><path d="M2982.87 7580.61c2.06 1.42 4.47 2.15 6.98 2.02 14.16-23.15 28.54-46.16 42.61-69.37-1.23-2.42-2.39-4.88-3.73-7.24-15.25 24.89-30.6 49.7-45.86 74.59" clip-path="url(#c)" style="fill:#4ea6dc;fill-opacity:1;fill-rule:nonzero;stroke:none" transform="matrix(.13333 0 0 -.13333 0 1122.52)"/><path d="M2897.94 7834.32c2.34-.73 4.61-1.66 6.9-2.57-6.48-7.88-12.96-15.75-19.44-23.62h-.11c-2.68.34-5.36.7-8.02 1.13 6.78 8.44 13.85 16.65 20.67 25.06" clip-path="url(#c)" style="fill:#8acacf;fill-opacity:1;fill-rule:nonzero;stroke:none" transform="matrix(.13333 0 0 -.13333 0 1122.52)"/><path d="M2905.68 7810.31c4.68 5.09 9.04 10.53 14.07 15.25 2-1.07 4.07-2.01 6.05-3.14-5.16-5.87-10.34-11.74-15.61-17.53-.44 1.36-.8 2.75-1.45 4.02-.82.8-2.05.94-3.06 1.4" clip-path="url(#c)" style="fill:#a8d7db;fill-opacity:1;fill-rule:nonzero;stroke:none" transform="matrix(.13333 0 0 -.13333 0 1122.52)"/><path d="M2789.32 7786.48c7.07 11.75 14.2 23.47 21.3 35.21 2.58.05 5.17-.14 7.67-.8-7.2-11.93-14.4-23.87-21.61-35.78-2.42.65-4.88 1.12-7.36 1.37" clip-path="url(#c)" style="fill:#5ebed6;fill-opacity:1;fill-rule:nonzero;stroke:none" transform="matrix(.13333 0 0 -.13333 0 1122.52)"/><path d="M3022.26 7673.31c.87-.16 1.72-.33 2.6-.49 9.1-9.61 18.25-19.19 27.39-28.77.93-.71.91-1.91 1.07-2.96.3-2.84.65-5.67.78-8.53-1.44.46-2.29 1.8-3.32 2.8-10.72 11.3-21.43 22.59-32.16 33.87 1.11 1.44 2.33 2.81 3.64 4.08" clip-path="url(#c)" style="fill:#5ebed6;fill-opacity:1;fill-rule:nonzero;stroke:none" transform="matrix(.13333 0 0 -.13333 0 1122.52)"/><path d="M2956.35 7637.65c11.08 4.67 22.23 9.18 33.36 13.73 1.84-.33 4.1-.49 5.18-2.25 4.75-6.08 9.58-12.09 14.35-18.15-1.62-1.73-3.24-3.44-4.89-5.14-4.81 6.01-9.55 12.05-14.26 18.12-6.46-2.5-12.78-5.4-19.28-7.76-4.77.87-9.61 1.39-14.46 1.45" clip-path="url(#c)" style="fill:#5ebed6;fill-opacity:1;fill-rule:nonzero;stroke:none" transform="matrix(.13333 0 0 -.13333 0 1122.52)"/><path d="M2747.3 7816.98c1.25-.05 2.51-.04 3.73-.37 1.38-.33 1.82-1.82 2.57-2.85-9.89-22.06-19.6-44.21-29.43-66.3 23.16-19.81 46.55-39.37 69.79-59.11 1.31-1.2 2.96-2.12 3.86-3.71-2.41-.77-4.76-1.73-7.13-2.64-24.25 20.41-48.43 40.89-72.65 61.34-1.01 1.52-1.65 3.79-.92 5.57 10.04 22.7 20.18 45.35 30.18 68.07" clip-path="url(#c)" style="fill:#50aadc;fill-opacity:1;fill-rule:nonzero;stroke:none" transform="matrix(.13333 0 0 -.13333 0 1122.52)"/><path d="M2696.75 7811.81c3.07 1.8 6.04 3.77 9.22 5.35-9.34-27.37-18.68-54.75-28.08-82.12 31.43-21.56 62.84-43.16 94.31-64.66-1.75-1.68-3.44-3.4-5.31-4.93-31.57 21.71-63.21 43.32-94.75 65.05-1.12 1.46-1.89 3.64-1.33 5.47 8.67 25.28 17.29 50.57 25.94 75.84" clip-path="url(#c)" style="fill:#4da6dc;fill-opacity:1;fill-rule:nonzero;stroke:none" transform="matrix(.13333 0 0 -.13333 0 1122.52)"/><path d="M2678.16 7798.82c2.95 2.29 5.93 4.54 9.05 6.6-7.23-26.73-14.92-53.35-22.12-80.08 33.54-20.45 67.05-40.93 100.57-61.41-1.53-1.79-3.04-3.58-4.5-5.44-33.66 20.47-67.25 41.08-100.91 61.58-1.75.95-2.36 3.23-2.53 5.05 6.72 24.59 13.67 49.12 20.44 73.7" clip-path="url(#c)" style="fill:#4da6dc;fill-opacity:1;fill-rule:nonzero;stroke:none" transform="matrix(.13333 0 0 -.13333 0 1122.52)"/><path d="M2662.53 7785.67c2.38 2.05 4.53 4.42 7.24 6.06-7.07-25.6-14.84-51.02-22.07-76.58 26.14-14.02 52.23-28.15 78.34-42.21 10.92-5.97 21.97-11.69 32.8-17.79-1.28-1.9-2.48-3.85-3.58-5.85-37.35 19.95-74.58 40.19-111.88 60.24-2.14.71-2.43 3.13-3.24 4.93 6.63 22.75 13.25 45.49 19.86 68.25.4 1.29 1.66 2.01 2.53 2.95" clip-path="url(#c)" style="fill:#4da6dc;fill-opacity:1;fill-rule:nonzero;stroke:none" transform="matrix(.13333 0 0 -.13333 0 1122.52)"/><path d="M2652.11 7775.31c.36.08 1.1.23 1.46.3-.05-1.6-.45-3.17-.83-4.72-5.26-22.2-10.58-44.39-15.79-66.6 38.56-20.08 77.16-40.08 115.68-60.22-.93-2.14-1.77-4.31-2.57-6.49-39.09 20.24-78.1 40.63-117.16 60.9-2.43 1.02-3.72 4.18-3 6.66 4.65 19.29 9.16 38.61 13.79 57.89.51 1.93.56 4.16 2.12 5.6 2.09 2.23 4.05 4.6 6.3 6.68" clip-path="url(#c)" style="fill:#4da6dc;fill-opacity:1;fill-rule:nonzero;stroke:none" transform="matrix(.13333 0 0 -.13333 0 1122.52)"/><path d="M2632.32 7751.83c1.91 2.42 3.49 5.18 5.87 7.18.8-.81.22-1.9.09-2.82-5.29-22.51-10.81-44.97-15.93-67.51 39.54-20.03 79.08-40.09 118.66-60.03 2.62.79 4.92 2.56 7.44 3.66-.49-2.09-.97-4.2-1.3-6.32.1-3.9-5.2-5.31-8.23-4.17-40.3 20.35-80.57 40.79-120.88 61.14-2.04.7-2.41 3.04-3.25 4.75 4.63 19.23 9.14 38.49 13.74 57.73.46 2.52 2.43 4.33 3.79 6.39" clip-path="url(#c)" style="fill:#4da6dc;fill-opacity:1;fill-rule:nonzero;stroke:none" transform="matrix(.13333 0 0 -.13333 0 1122.52)"/><path d="M2621.17 7735.27c.77-.12 1.54-.23 2.31-.35-4.44-22.11-9-44.18-13.4-66.29 42.18-17.04 84.28-34.28 126.46-51.34 3.35 1.84 6.71 3.66 10.07 5.5-1.96-16.66 1.54-33.99 10.4-48.29 1.89-3.32 4.37-6.24 6.54-9.37-7.55-26.3-14.71-52.72-22.23-79.04-.9-1.28-2.31-2.59-3.88-2.92-36.14-1.28-72.27-2.6-108.41-3.67-1.55 2.21-3.07 4.46-4.49 6.75 36.89 1.41 73.8 2.39 110.69 3.84 3.95 14.4 8.1 28.75 12.01 43.14-4.28-11.79-8.22-23.71-12.44-35.52-.9-1.26-2.42-1.98-3.77-2.67l-113.12 5.73c-.94.16-2.28-.17-2.64 1.01-1.12 2.08-2.19 4.19-3.31 6.28 38.99-1.93 77.97-3.96 116.95-5.91 2.81 8.23 6 16.35 8.34 24.74-1.49-4.14-3.02-8.28-4.88-12.26-2.87-3.11-7.14-1.74-10.81-1.58-38.68 3.08-77.35 6.25-116.05 9.24-1.17 2.35-2.04 4.83-2.97 7.27 41.51-3.18 82.99-6.79 124.51-9.82 5.21 13.49 10.84 26.83 16.03 40.33-5.24-9.33-9.85-19.02-14.94-28.43-1.23-.97-2.73-2.07-4.35-2.03-41.95 4.37-83.91 8.75-125.87 13.15-.78 2.35-1.44 4.74-2.12 7.12 13.66-1.09 27.3-2.87 40.96-4.14 28.72-3.06 57.45-5.98 86.18-9.03 2.53 5.42 5.84 10.48 7.96 16.06-1.99-3.09-3.4-7.72-7.84-7.64-43.86 7.45-87.71 15.03-131.56 22.61-.48 2.42-.96 4.85-1.29 7.3 44.08-7.59 88.15-15.17 132.22-22.75 4.32 7.09 8.63 14.18 12.85 21.33-2.84-3.26-5.01-7.03-7.78-10.33-1.13-.66-2.38-1.13-3.66-1.41-45.27 9.83-90.54 19.75-135.8 29.62-.25 2.41-.47 4.83-.59 7.25 45.21-9.81 90.42-19.65 135.6-29.61 4.04 5.22 7.85 10.64 11.67 16.02-3.68-2.3-5.61-7.39-10.37-7.7-1.07.02-2.09.42-3.12.67-42.53 11.99-85.08 24-127.62 35.97-3.3.46-4.44 4.03-6.5 6.17-.01 3.5.23 6.98.46 10.46 2.82-3.3 5.41-6.82 8.4-9.97 42.63-12.12 85.33-24.04 127.97-36.13 3.8 3.8 7.69 7.55 11.31 11.52-2.12-1.91-4.98-3.76-7.92-2.52-38.2 12.23-76.46 24.28-114.46 37.12-6.53 2.36-13.19 4.43-19.5 7.33-3.07 1.15-1.53 4.94-1.32 7.38 2.04 12.93 3.95 25.89 5.95 38.83 2.39 7.75 5.22 15.4 8.62 22.77.44-.08 1.31-.25 1.76-.33-3.13-21.25-6.28-42.48-9.65-63.69 37.41-13.02 75.23-24.87 112.91-37.06 5.92-1.78 11.74-3.88 17.7-5.54 5.26 4.56 10.64 8.99 15.98 13.45-3.53-1.18-6.64-4.76-10.66-3.41-43.3 17.54-86.56 35.22-129.87 52.75-.74 1.28-1.45 2.57-2.13 3.88 3.58 18.18 7.27 36.35 11.04 54.5 2 4.78 4.96 9.12 7.47 13.66" clip-path="url(#c)" style="fill:#4da6dc;fill-opacity:1;fill-rule:nonzero;stroke:none" transform="matrix(.13333 0 0 -.13333 0 1122.52)"/><path d="M2893.52 7595.02c1.1.41 2.21.77 3.34 1.12 1.52-1.2 3.27-2.14 5.28-2.03 1.5.3 1.94-1.28 2.51-2.3-.01-.2-.04-.59-.05-.79.91.19 1.82.37 2.74.53 3.84-2.35 8.66-1.68 12.62-3.75 4.86-2.49 10.7-1.16 15.56-3.69-10.95-2.13-21.91-4.29-32.94-6.02 15.69 1.49 31.22 4.26 46.85 6.07 1.45-.12 2.63-1.18 3.93-1.76 18.03-36.77 35.94-73.6 53.95-110.38-1.52-2.1-3.16-4.12-4.79-6.14-18.14 37-36.2 74.03-54.24 111.07-10.74-1.32-21.47-2.85-32.19-4.36-5.44-.84-10.96-1.24-16.36-2.37 12.04.83 24.09 1.39 36.13 2.11 1.88-.26 4-1.42 4.73-3.29 17.23-38.32 34.46-76.63 51.7-114.95-1.68-1.88-3.46-3.64-5.24-5.43-17.51 38.86-34.96 77.75-52.47 116.6-2.78-.17-5.57-.25-8.33-.59.95-1.21 2.69-1.74 3.11-3.33 14.97-41.54 29.98-83.07 44.94-124.63-1.82-1.66-3.74-3.22-5.64-4.81-15.22 41.86-30.3 83.78-45.36 125.7-10.32.45-20.68.4-31.02.49 5.88-1.25 11.87-1.85 17.74-3.14 1.25-.79 2.66-1.74 3.14-3.23 10.09-31.58 20.16-63.17 30.27-94.75 3.63-11.92 7.76-23.7 11.11-35.71-2.01-1.38-4.03-2.73-6.05-4.09-3 10.71-6.63 21.24-9.91 31.87-10.37 32.55-20.78 65.1-31.17 97.65-.32.72-.35 1.94-1.4 1.94-2.87.53-5.76.98-8.68 1.23.99-1.1 2.41-2.02 2.59-3.63 11.17-45.94 22.61-91.84 33.68-137.8-2.24-.56-4.49-1.12-6.75-1.58-11.21 45.65-22.31 91.34-33.63 136.97-7.95 1.75-15.89 3.56-23.86 5.19 3.32-1.68 6.92-2.71 10.26-4.34 1.34-.97 2.41-2.45 2.65-4.12 9.73-46.56 19.61-93.08 29.3-139.64-.62-1.75-1.38-4.03-3.37-4.63-11.33-4.07-22.68-8.2-34.46-10.79-9.9-2.13-19.89-4.23-30.02-4.68.66.58 1.42.99 2.24 1.26 19.12 6.56 38.19 13.28 57.31 19.83 1.17.1.62 1.35.55 2.05-9.39 44.53-18.73 89.07-28.09 133.61-.08 1.85-2.23 1.93-3.51 2.62-4.04 1.45-7.87 3.64-12.09 4.53 2.69-1.6 6.39-2.89 6.86-6.46 6.72-46 13.67-91.97 20.31-137.98-1.07-1.4-1.56-3.65-3.48-4.12-16.43-5.35-32.82-10.84-49.25-16.15-7.09-.84-14.28-.53-21.4-.41l.23.72c22.15 7.46 44.4 14.63 66.59 21.98-6.65 44.79-13.15 89.62-19.93 134.4-3.97 2.28-7.89 4.65-11.87 6.9 9.4 3.9 18.2 9.39 25.41 16.62 9.6 9.54 16.63 21.68 19.92 34.81" clip-path="url(#c)" style="fill:#4da6dc;fill-opacity:1;fill-rule:nonzero;stroke:none" transform="matrix(.13333 0 0 -.13333 0 1122.52)"/><path d="M2764.29 7564.39c3.38-3.67 6.96-7.16 10.9-10.23-4.85-31.54-9.71-63.09-14.59-94.63-.92-1.58-2.45-3.44-4.43-3.59-32.63-3.54-65.24-7.18-97.86-10.74-1.96 2.12-4.46 3.83-5.87 6.39 33.85 3.68 67.7 7.49 101.56 11.14 2.96 18.91 5.86 37.84 8.76 56.76 1.07 7.55 2.68 15.07 3.14 22.7-5.17-22.68-11.01-45.21-16.33-67.85-.22-2.14-2.12-3.63-3.86-4.57-33-2.74-66-5.37-99-8.06-1.28 0-2.64-.44-3.88-.01-1.8 1.88-3.27 4.07-5.06 5.97 1.43.73 3.08.54 4.62.73 33.5 2.72 67.01 5.32 100.49 8.19 7.14 29.27 14.17 58.56 21.41 87.8" clip-path="url(#c)" style="fill:#4da6dc;fill-opacity:1;fill-rule:nonzero;stroke:none" transform="matrix(.13333 0 0 -.13333 0 1122.52)"/><path d="M2776.23 7553.29c2.15-1.37 4.21-2.87 6.42-4.16-4.37-33.34-9.13-66.63-13.61-99.95.15-2.36-1.65-3.94-3.34-5.23-30.07-4.71-60.23-8.91-90.31-13.63-2.46 1.92-5.04 3.76-7.14 6.09 31.28 4.68 62.57 9.32 93.84 14.01 4.77 34.29 9.46 68.58 14.14 102.87" clip-path="url(#c)" style="fill:#4da6dc;fill-opacity:1;fill-rule:nonzero;stroke:none" transform="matrix(.13333 0 0 -.13333 0 1122.52)"/><path d="M2785.91 7547.04c2.32-.81 4.5-1.98 6.75-2.99-3.35-35.69-6.66-71.4-9.99-107.1-.92-1.39-1.96-3.09-3.65-3.58-27.56-5.28-55.12-10.6-82.68-15.91-1.11-.09-2.42-.76-3.39.11-2.44 1.57-4.83 3.23-7.15 4.97 30.02 5.85 60.07 11.55 90.09 17.38 3.41 35.71 6.66 71.42 10.02 107.12" clip-path="url(#c)" style="fill:#4da6dc;fill-opacity:1;fill-rule:nonzero;stroke:none" transform="matrix(.13333 0 0 -.13333 0 1122.52)"/><path d="M2838.77 7540.7c2.89.72 5.7 1.76 8.57 2.54 2.18-.26 3.34-2.89 3.55-4.87 4.74-45.71 9.66-91.41 14.32-137.13-.8-1.16-1.59-2.34-2.35-3.53-20.06-5.83-40.12-11.67-60.22-17.37-4.76-.05-9.51.87-14.24 1.34-.99.27-2.31 0-3.02.89 24.19 7.07 48.42 13.94 72.6 21.02-4.62 44.58-9.43 89.14-13.97 133.73-1.73 1.16-3.5 2.24-5.24 3.38" clip-path="url(#c)" style="fill:#4da6dc;fill-opacity:1;fill-rule:nonzero;stroke:none" transform="matrix(.13333 0 0 -.13333 0 1122.52)"/><path d="M2797.69 7542.14c2.33-.5 4.58-1.27 6.9-1.78-3.53-38.08-7.3-76.15-10.84-114.23-.07-1.92-1.8-3.27-3.19-4.36-25.67-5.49-51.39-10.73-77.08-16.13-3.19 1.63-6.41 3.24-9.39 5.24 27.61 5.67 55.18 11.47 82.77 17.24 3.64 38 7.37 76.01 10.83 114.02" clip-path="url(#c)" style="fill:#4da6dc;fill-opacity:1;fill-rule:nonzero;stroke:none" transform="matrix(.13333 0 0 -.13333 0 1122.52)"/><path d="M2808.02 7539.63c2.31-.32 4.62-.61 6.94-.87-1.65-40.13-3.08-80.29-4.77-120.43-.43-1.52-1.67-2.88-2.91-3.83-24.51-6.04-49.06-11.93-73.59-17.89-3.76.89-7.32 2.79-10.78 4.52 26.77 6.66 53.62 13 80.4 19.6 1.61 39.63 3.08 79.27 4.71 118.9" clip-path="url(#c)" style="fill:#4da6dc;fill-opacity:1;fill-rule:nonzero;stroke:none" transform="matrix(.13333 0 0 -.13333 0 1122.52)"/><path d="M2826.59 7538.74c3.18.34 6.37.71 9.51 1.35.61-1.23 1.51-2.45 1.42-3.9 1.3-43.87 2.93-87.73 4.28-131.6-1.14-1.3-1.8-3.36-3.65-3.77-20.19-5.69-40.31-11.69-60.51-17.3-4.72.81-9.41 1.84-14.02 3.08 23.64 7.06 47.45 13.61 71.11 20.61-1.35 42.79-2.85 85.57-4.21 128.35a390 390 0 0 1-3.93 3.18" clip-path="url(#c)" style="fill:#4da6dc;fill-opacity:1;fill-rule:nonzero;stroke:none" transform="matrix(.13333 0 0 -.13333 0 1122.52)"/><path d="M2817.88 7538.56c2.29 0 4.58.01 6.87.05.13-39.63.13-79.27.18-118.91-.07-3.34.14-6.71-.08-10.05-1-1.58-2.01-3.6-4.11-3.8-21.68-5.56-43.37-11.09-65.04-16.67-1.05-.34-2.09.15-3.08.41-2.92.95-5.85 1.84-8.71 2.93 0 .21.01.64.02.86 24.67 6.37 49.36 12.66 74.04 19-.02 42.06-.12 84.12-.09 126.18" clip-path="url(#c)" style="fill:#4da6dc;fill-opacity:1;fill-rule:nonzero;stroke:none" transform="matrix(.13333 0 0 -.13333 0 1122.52)"/><path d="M2852.23 7812.91c2.6-.42 5.21-.81 7.82-1.21q-9.705-12.945-19.47-25.86c-2.38 1.2-5.04 1.46-7.68 1.43 6.44 8.55 12.87 17.11 19.33 25.64" clip-path="url(#c)" style="fill:#70c1cb;fill-opacity:1;fill-rule:nonzero;stroke:none" transform="matrix(.13333 0 0 -.13333 0 1122.52)"/><path d="M2936.8 7808.31c1.66 1.53 3.06 3.41 5.09 4.49 1.46-1.55 2.93-3.08 4.12-4.86-4.31-4.71-8.94-9.15-13.56-13.57-.41 2.5-1.41 4.9-3.85 5.99 2.56 2.82 5.51 5.26 8.2 7.95" clip-path="url(#c)" style="fill:#c5e4e7;fill-opacity:1;fill-rule:nonzero;stroke:none" transform="matrix(.13333 0 0 -.13333 0 1122.52)"/><path d="M2783.32 7810.91c1.8-.12 3.64-.09 5.41-.53 1.26-.95.03-2.82-.01-4.09-10.13-19.12-20.43-38.16-30.64-57.24-.36-.75-1.02-1.78-.09-2.43 15.78-15.73 31.42-31.6 47.32-47.2-1.92 2.06-3.86 4.13-5.64 6.33 2.39 2.27 4.3 6.22 8.13 5.84.9-2.29 1.31-4.86 2.89-6.82.99-1.23 1.5-2.74 2.09-4.19 1.36.3 3.15.73 3.91-.89 1.87-3.52 4.62-6.41 7.41-9.23-.71-.71-1.42-1.41-2.13-2.12-4.87.05-9.71-.5-14.54-1.16-18.61 18.9-37.53 37.49-56.27 56.26-1.34 1.37-1.5 3.76-1.08 5.52 11.02 20.67 22.18 41.29 33.24 61.95" clip-path="url(#c)" style="fill:#55b3d9;fill-opacity:1;fill-rule:nonzero;stroke:none" transform="matrix(.13333 0 0 -.13333 0 1122.52)"/><path d="M3023.64 7635.92c9.88-11.82 19.81-23.59 29.73-35.37.57-.72 1.4-1.49 1.1-2.53-.23-2.91-.45-5.81-.75-8.72-11.84 13.77-23.35 27.81-35.09 41.66 1.74 1.58 4.03 2.69 5.01 4.96" clip-path="url(#c)" style="fill:#55b3d9;fill-opacity:1;fill-rule:nonzero;stroke:none" transform="matrix(.13333 0 0 -.13333 0 1122.52)"/><path d="M2826.2 7809.95c2.54-.41 5.12-.72 7.71-.9-7.93-11.92-16.14-23.66-24.24-35.47-2.57.74-5.24 1.38-7.92.86 8.17 11.82 16.26 23.69 24.45 35.51" clip-path="url(#c)" style="fill:#64bfd2;fill-opacity:1;fill-rule:nonzero;stroke:none" transform="matrix(.13333 0 0 -.13333 0 1122.52)"/><path d="M2905.68 7810.31c1.01-.46 2.24-.6 3.06-1.4.65-1.27 1.01-2.66 1.45-4.02-3.65-4.04-7.28-8.12-10.87-12.21-.5-.58-1.09-1.07-1.74-1.45-.15 2.06-.31 4.11-.52 6.16-1.01-.02-2.01-.06-3.02-.09 3.8 4.41 7.8 8.64 11.64 13.01" clip-path="url(#c)" style="fill:#97d0d4;fill-opacity:1;fill-rule:nonzero;stroke:none" transform="matrix(.13333 0 0 -.13333 0 1122.52)"/><path d="M2858.45 7786.47c6.21 7.65 12.53 15.21 18.82 22.79 2.66-.43 5.34-.79 8.02-1.13-6.24-7.67-12.54-15.31-18.87-22.92-2.69.22-5.37.55-7.97 1.26" clip-path="url(#c)" style="fill:#77c4c8;fill-opacity:1;fill-rule:nonzero;stroke:none" transform="matrix(.13333 0 0 -.13333 0 1122.52)"/><path d="m2761.45 7805.35.2-.12c1.93-1.32 4.35-1.55 6.38-2.69-8.59-18.01-17.33-35.97-25.69-54.08 19.93-18.72 39.72-37.6 59.66-56.32 1.73-1.69 3.57-3.28 5.17-5.09-2.65-.57-5.29-1.21-7.9-1.98-21.12 19.88-42.18 39.83-63.27 59.73-.92 1.35-1.13 3.26-.98 4.85 8.71 18.6 17.86 37.03 26.43 55.7" clip-path="url(#c)" style="fill:#53afda;fill-opacity:1;fill-rule:nonzero;stroke:none" transform="matrix(.13333 0 0 -.13333 0 1122.52)"/><path d="M2919.9 7791.87c2.79 2.94 5.83 5.63 8.7 8.49 2.44-1.09 3.44-3.49 3.85-5.99-2.63-2.45-5.1-5.08-7.76-7.49a55 55 0 0 1-4.79 4.99" clip-path="url(#c)" style="fill:#b2dbdf;fill-opacity:1;fill-rule:nonzero;stroke:none" transform="matrix(.13333 0 0 -.13333 0 1122.52)"/><path d="M2894.04 7797.3c1.01.03 2.01.07 3.02.09.21-2.05.37-4.1.52-6.16l.03-.32c-6.33-7.08-12.63-14.17-18.96-21.23l-.12 1.99c-2.28.45-4.6.62-6.92.63 7.36 8.44 15 16.64 22.43 25" clip-path="url(#c)" style="fill:#80c7cb;fill-opacity:1;fill-rule:nonzero;stroke:none" transform="matrix(.13333 0 0 -.13333 0 1122.52)"/><path d="M2949.46 7790.13c3.17 2.67 6.22 7.26 10.99 5.82 2.76-1.7 5.18-3.91 7.83-5.79 3.11-2.47 6.5-4.6 9.35-7.38-3.14-1.85-6.72.02-10.09-.66-3.03 2.04-5.74 4.52-8.79 6.53-.81-.49-1.62-1-2.4-1.53-2.08 1.45-4.45 2.38-6.89 3.01" clip-path="url(#c)" style="fill:#d4eaed;fill-opacity:1;fill-rule:nonzero;stroke:none" transform="matrix(.13333 0 0 -.13333 0 1122.52)"/><path d="M2908.79 7781.06c3.62 3.68 7.41 7.19 11.11 10.81 1.7-1.56 3.3-3.23 4.79-4.99-4.17-4.02-8.18-8.21-12.46-12.1-.82 2.25-1.87 4.43-3.44 6.28" clip-path="url(#c)" style="fill:#a1d3d8;fill-opacity:1;fill-rule:nonzero;stroke:none" transform="matrix(.13333 0 0 -.13333 0 1122.52)"/><path d="M2942.4 7783.75c2.25 2.24 4.73 4.22 7.06 6.38 2.44-.63 4.81-1.56 6.89-3.01-2.85-2.66-5.62-5.37-8.58-7.89-1.47 1.86-3.35 3.32-5.37 4.52" clip-path="url(#c)" style="fill:#c6e4e7;fill-opacity:1;fill-rule:nonzero;stroke:none" transform="matrix(.13333 0 0 -.13333 0 1122.52)"/><path d="M2789.32 7786.48c2.48-.25 4.94-.72 7.36-1.37-7.8-12.96-15.71-25.83-23.41-38.84 6.12-6.73 11.96-13.74 18.15-20.41-3.15 4.77-7.1 8.98-10.4 13.66-.34 1.78-.76 3.97.52 5.48 6.75 9.8 13.53 19.58 20.21 29.44 2.68.52 5.35-.12 7.92-.86-7.24-10.55-14.46-21.12-21.72-31.65 2.34-2.89 4.6-5.84 6.92-8.74.24 1.56-.28 3.45.86 4.76 4.77 6.3 9.54 12.61 14.29 18.93 2.6-.42 5.21-.84 7.81-1.25-5.21-6.99-10.55-13.89-15.67-20.95 7.02-9.78 13.64-19.86 20.72-29.59-1.95 3.73-4.15 7.34-6 11.13 1.35 2.01 3.08 3.73 5.08 5.08 5.08-9.2 10.13-18.42 15.23-27.61-1.05 2.29-2.3 4.49-3.37 6.78 1.8 1.48 3.11 4.61 5.84 4.2 2.25-.14 4.5-.38 6.75-.48l.15-.01c1.09-4.1 2.61-8.1 3.27-12.29.17-1.74.85-3.35 1.68-4.86-.02 1.61-.05 3.2-.05 4.8 2.05-.19 4.11-.31 6.2-.37.83-2.96 1.37-5.98 1.51-9.05 1.45-.2 1.01 1.64 1.23 2.54.23.2.66.62.88.82 2.36-.6 4.76-1.02 7.18-1.22-.52-.71-1.83-1.21-1.52-2.28.33-2.52.94-5 1.26-7.52 1.09.91 2.21 1.8 3.36 2.64 2.82-.43 5.64-.78 8.47-1.19-.01-.34-.01-1.02-.01-1.36-1.66-1.19-3.32-2.38-4.99-3.57l-.24-.52c.42-2.2.85-4.41 1.25-6.62-13.72 15-33.74 23.95-54.07 24.21.71.71 1.42 1.41 2.13 2.12-2.79 2.82-5.54 5.71-7.41 9.23-.76 1.62-2.55 1.19-3.91.89-.59 1.45-1.1 2.96-2.09 4.19-1.58 1.96-1.99 4.53-2.89 6.82-3.83.38-5.74-3.57-8.13-5.84-10.8 12.16-21.48 24.41-32.28 36.56-1.57 1.45-1.72 4.01-1.19 5.9 7.66 12.79 15.42 25.52 23.12 38.27" clip-path="url(#c)" style="fill:#58bad8;fill-opacity:1;fill-rule:nonzero;stroke:none" transform="matrix(.13333 0 0 -.13333 0 1122.52)"/><path d="M3018.79 7649.78c1.3 1.98 2.91 3.71 4.73 5.22 10.41-11.74 20.81-23.48 31.27-35.19.21-3.48.16-6.97.1-10.47-12.29 13.24-24.03 27-36.1 40.44" clip-path="url(#c)" style="fill:#58bad8;fill-opacity:1;fill-rule:nonzero;stroke:none" transform="matrix(.13333 0 0 -.13333 0 1122.52)"/><path d="M2934.36 7776.5c2.57 2.54 5.37 4.82 8.04 7.25 2.02-1.2 3.9-2.66 5.37-4.52-2.47-2.15-4.83-4.44-7.32-6.58-1.57 1.92-3.71 3.2-6.09 3.85" clip-path="url(#c)" style="fill:#b6dde2;fill-opacity:1;fill-rule:nonzero;stroke:none" transform="matrix(.13333 0 0 -.13333 0 1122.52)"/><path d="M2967.54 7782.12c3.37.68 6.95-1.19 10.09.66 6.01-4.33 11.87-8.86 17.74-13.39-2.67.01-5.09-1.25-7.53-2.16 2.34-1.95 4.82-3.73 6.93-5.96-.23-.13-.69-.4-.91-.53-3.07 1.74-5.35 4.53-8.33 6.38-2.56.42-5.47.04-7.03-2.32-1.79 1.33-3.4 2.86-5.2 4.18-.89-.64-1.78-1.29-2.67-1.92-2.78.62-5.52 1.32-8.22 2.21 2.48 2 4.91 4.06 7.43 6.02 1.34 1.09 3.18.94 4.79 1.25-2.31 1.92-4.66 3.81-7.09 5.58" clip-path="url(#c)" style="fill:#c0e1e4;fill-opacity:1;fill-rule:nonzero;stroke:none" transform="matrix(.13333 0 0 -.13333 0 1122.52)"/><path d="M2908.79 7781.06c1.57-1.85 2.62-4.03 3.44-6.28-5.02-4.85-9.92-9.81-14.96-14.6-2.86.98-5.86 1.39-8.86 1.16 6.74 6.62 13.61 13.11 20.38 19.72" clip-path="url(#c)" style="fill:#89cace;fill-opacity:1;fill-rule:nonzero;stroke:none" transform="matrix(.13333 0 0 -.13333 0 1122.52)"/><path d="M2923.93 7767.11c3.37 3.25 6.98 6.24 10.43 9.39 2.38-.65 4.52-1.93 6.09-3.85-3.44-2.99-6.7-6.19-10.14-9.17-1.56 2.07-3.95 3.02-6.38 3.63" clip-path="url(#c)" style="fill:#a6d6da;fill-opacity:1;fill-rule:nonzero;stroke:none" transform="matrix(.13333 0 0 -.13333 0 1122.52)"/><path d="M2943.55 7754.04c3.32 2.8 6.77 5.42 10.11 8.17 2.83-.48 5.63-1.16 8.29-2.22-3.61-2.86-7.09-5.88-10.75-8.68-2.47 1.11-5.04 1.98-7.65 2.73" clip-path="url(#c)" style="fill:#a6d6da;fill-opacity:1;fill-rule:nonzero;stroke:none" transform="matrix(.13333 0 0 -.13333 0 1122.52)"/><path d="m2871.48 7772.29.13.01c2.32-.01 4.64-.18 6.92-.63l.12-1.99c-4.5-4.9-8.86-9.92-13.35-14.84-2.41 1.55-5.3 1.44-8.05 1.49 4.69 5.37 9.59 10.55 14.23 15.96" clip-path="url(#c)" style="fill:#74c2c9;fill-opacity:1;fill-rule:nonzero;stroke:none" transform="matrix(.13333 0 0 -.13333 0 1122.52)"/><path d="M2993.8 7716.07c2 .65 4.73.3 6.19-1.36 8.79-8.83 17.65-17.59 26.42-26.43-1.72-1.58-3.3-3.31-4.67-5.19-8.71 8.66-17.34 17.39-26.12 25.98-17.35-9.96-34.66-20.02-52.05-29.94-2.55 1.93-5.78 2.11-8.73 2.96 19.59 11.43 39.31 22.65 58.96 33.98" clip-path="url(#c)" style="fill:#74c2c9;fill-opacity:1;fill-rule:nonzero;stroke:none" transform="matrix(.13333 0 0 -.13333 0 1122.52)"/><path d="M2987.84 7767.23c2.44.91 4.86 2.17 7.53 2.16 4.21-4.77 8.33-9.62 12.18-14.69 1.15-1.6 2.71-3.01 3.13-5-1.78-.18-2.94 1.34-4.24 2.26-3.85 3.17-8.03 5.93-11.67 9.31-2.11 2.23-4.59 4.01-6.93 5.96" clip-path="url(#c)" style="fill:#acd9dd;fill-opacity:1;fill-rule:nonzero;stroke:none" transform="matrix(.13333 0 0 -.13333 0 1122.52)"/><path d="M2953.66 7762.21c2.89 2.4 5.84 4.7 8.75 7.06 2.7-.89 5.44-1.59 8.22-2.21-2.86-2.4-5.71-4.81-8.68-7.07-2.66 1.06-5.46 1.74-8.29 2.22" clip-path="url(#c)" style="fill:#b4dbe0;fill-opacity:1;fill-rule:nonzero;stroke:none" transform="matrix(.13333 0 0 -.13333 0 1122.52)"/><path d="M2978.5 7764.8c1.56 2.36 4.47 2.74 7.03 2.32 2.98-1.85 5.26-4.64 8.33-6.38.94-.59 1.8-1.29 2.64-2.03-2.2-1.05-4.26-2.35-6.02-4.02-4.09 3.26-7.97 6.76-11.98 10.11" clip-path="url(#c)" style="fill:#b0dade;fill-opacity:1;fill-rule:nonzero;stroke:none" transform="matrix(.13333 0 0 -.13333 0 1122.52)"/><path d="M2911.3 7755.73c4.1 3.91 8.44 7.56 12.63 11.38 2.43-.61 4.82-1.56 6.38-3.63-4.61-4.06-9.04-8.3-13.67-12.35-1.33 2-3.03 3.76-5.34 4.6" clip-path="url(#c)" style="fill:#93ced2;fill-opacity:1;fill-rule:nonzero;stroke:none" transform="matrix(.13333 0 0 -.13333 0 1122.52)"/><path d="M2990.48 7754.69c1.76 1.67 3.82 2.97 6.02 4.02 3.96-3.41 8.05-6.67 12-10.11-2.48-.72-4.9-1.68-7.07-3.09-3.75 2.95-7.28 6.15-10.95 9.18" clip-path="url(#c)" style="fill:#a0d3d7;fill-opacity:1;fill-rule:nonzero;stroke:none" transform="matrix(.13333 0 0 -.13333 0 1122.52)"/><path d="M2834.03 7756.91c2.63-.46 5.27-.87 7.91-1.29-7.76-9.42-15.52-18.82-23.28-28.24 1.09-2.03 2.2-4.05 3.3-6.08-2-1.35-3.73-3.07-5.08-5.08l-.12-.15c-1.58 3.4-3.74 6.51-5.28 9.94-.01 1.76-.21 3.84 1.18 5.17 7.17 8.55 14.19 17.2 21.37 25.73" clip-path="url(#c)" style="fill:#5fbfd5;fill-opacity:1;fill-rule:nonzero;stroke:none" transform="matrix(.13333 0 0 -.13333 0 1122.52)"/><path d="M2889.5 7643.75c17.72 9.33 35.31 18.92 53.05 28.25 3.86-1.2 7.95-.44 11.85-1.37-10.94-6.13-22.09-11.88-33.11-17.88-9.8-5.16-19.46-10.59-29.33-15.61-.76 2.22-1.67 4.39-2.46 6.61" clip-path="url(#c)" style="fill:#5fbfd5;fill-opacity:1;fill-rule:nonzero;stroke:none" transform="matrix(.13333 0 0 -.13333 0 1122.52)"/><path d="M2980.66 7755.87c2.05 1.88 5.76 1.68 7.63-.4 2.85-2.79 5.86-5.43 8.69-8.24-2.46-.5-4.93-1.39-6.14-3.76-2.36 2.01-4.39 4.36-6.82 6.28-3.29-2.3-6.41-4.89-9.81-6.99-3.25.56-6.5 1.11-9.78 1.4 5.33 4 10.84 7.77 16.23 11.71" clip-path="url(#c)" style="fill:#a2d4d8;fill-opacity:1;fill-rule:nonzero;stroke:none" transform="matrix(.13333 0 0 -.13333 0 1122.52)"/><path d="M2841.34 7738.53c5.2 6.02 10.61 11.86 15.91 17.8 2.75-.05 5.64.06 8.05-1.49-5.37-5.93-10.63-11.96-16.06-17.84-2.42 1.29-5.22 1.3-7.9 1.53" clip-path="url(#c)" style="fill:#6cc1ce;fill-opacity:1;fill-rule:nonzero;stroke:none" transform="matrix(.13333 0 0 -.13333 0 1122.52)"/><path d="M2911.3 7755.73c2.31-.84 4.01-2.6 5.34-4.6-8.42-7.54-16.69-15.25-25.11-22.79-3.24.63-6.55.62-9.84.56 9.76 9.05 19.74 17.9 29.61 26.83" clip-path="url(#c)" style="fill:#77c4c9;fill-opacity:1;fill-rule:nonzero;stroke:none" transform="matrix(.13333 0 0 -.13333 0 1122.52)"/><path d="M3002.3 7732.75c2.24 1.74 4.97 2.54 7.79 2.02 7.32-7.01 14.84-13.83 22.07-20.95 2.81-5.08 4.89-10.58 6.98-15.99-6.23 5.46-12.07 11.37-18.15 17.02-6.2 5.99-12.59 11.8-18.69 17.9" clip-path="url(#c)" style="fill:#77c4c9;fill-opacity:1;fill-rule:nonzero;stroke:none" transform="matrix(.13333 0 0 -.13333 0 1122.52)"/><path d="M2943.55 7754.04c2.61-.75 5.18-1.62 7.65-2.73-4.52-3.6-8.9-7.4-13.49-10.91-2.86 1.41-6.04 1.75-9.18 1.54 4.95 4.1 10.05 8.02 15.02 12.1" clip-path="url(#c)" style="fill:#96cfd3;fill-opacity:1;fill-rule:nonzero;stroke:none" transform="matrix(.13333 0 0 -.13333 0 1122.52)"/><path d="M3001.43 7745.51c2.17 1.41 4.59 2.37 7.07 3.09 3.36-3.18 7.71-5.49 9.98-9.66 2.95-4.95 6.34-9.73 8.56-15.06-8.6 7.14-17.08 14.42-25.61 21.63" clip-path="url(#c)" style="fill:#8bcbd0;fill-opacity:1;fill-rule:nonzero;stroke:none" transform="matrix(.13333 0 0 -.13333 0 1122.52)"/><path d="M2990.84 7743.47c1.21 2.37 3.68 3.26 6.14 3.76 4.33-4.19 8.83-8.21 13.11-12.46-2.82.52-5.55-.28-7.79-2.02l-.15-.09c-3.74 3.63-7.55 7.21-11.31 10.81" clip-path="url(#c)" style="fill:#90ccd1;fill-opacity:1;fill-rule:nonzero;stroke:none" transform="matrix(.13333 0 0 -.13333 0 1122.52)"/><path d="M2947.19 7731.79c5.69 4.22 11.5 8.25 17.24 12.37 3.28-.29 6.53-.84 9.78-1.4-5.24-3.82-10.44-7.83-15.83-11.38-3.73.26-7.45.38-11.19.41" clip-path="url(#c)" style="fill:#92cdd2;fill-opacity:1;fill-rule:nonzero;stroke:none" transform="matrix(.13333 0 0 -.13333 0 1122.52)"/><path d="M2852.17 7726c5.89 5.9 11.92 11.65 17.9 17.47 2.9-.16 5.95.03 8.62-1.32-5.92-5.84-11.87-11.68-17.9-17.41-2.57 1.69-5.73 1.11-8.62 1.26" clip-path="url(#c)" style="fill:#6ec1cd;fill-opacity:1;fill-rule:nonzero;stroke:none" transform="matrix(.13333 0 0 -.13333 0 1122.52)"/><path d="M2914.28 7730.43c4.73 3.86 9.54 7.62 14.25 11.51 3.14.21 6.32-.13 9.18-1.54-4.74-3.83-9.41-7.74-14.2-11.5-3.01.85-6.11 1.41-9.23 1.53" clip-path="url(#c)" style="fill:#83c8cc;fill-opacity:1;fill-rule:nonzero;stroke:none" transform="matrix(.13333 0 0 -.13333 0 1122.52)"/><path d="m2841.23 7738.54.11-.01c2.68-.23 5.48-.24 7.9-1.53-5.53-6.3-11.21-12.46-16.74-18.78 1.74-3.48 3.68-6.86 5.23-10.43.18 2.17.18 4.77 2.04 6.27 4.15 3.96 8.21 8.02 12.4 11.94 2.89-.15 6.05.43 8.62-1.26-5.23-5.1-10.45-10.19-15.66-15.29.46-1.75.91-3.5 1.28-5.26-2.25.1-4.5.34-6.75.48-2.73.41-4.04-2.72-5.84-4.2-2.91 5.48-5.84 10.97-8.52 16.57-.1 1.78-.02 3.85 1.31 5.19 4.88 5.43 9.8 10.81 14.62 16.31" clip-path="url(#c)" style="fill:#60bfd4;fill-opacity:1;fill-rule:nonzero;stroke:none" transform="matrix(.13333 0 0 -.13333 0 1122.52)"/><path d="M2971.58 7722.95c5.97 4.15 12.21 7.91 18.23 11.98 1.79-.23 4.01.22 5.37-1.27 4.63-4.4 9.32-8.75 13.92-13.19-1.81-1.49-3.42-3.22-4.68-5.21-3.91 3.59-7.7 7.32-11.53 10.99-.62.45-1.35 1.64-2.19.88-2.84-1.71-5.5-3.69-8.36-5.35-1.69 1.25-3.81.78-5.75.86-1.69.06-3.5-.85-5.01.31" clip-path="url(#c)" style="fill:#86c9cd;fill-opacity:1;fill-rule:nonzero;stroke:none" transform="matrix(.13333 0 0 -.13333 0 1122.52)"/><path d="M2930.56 7719.82c5.49 4.06 11.1 7.97 16.63 11.97 3.74-.03 7.46-.15 11.19-.41-5.95-4.42-11.93-8.84-18.03-13.02-3.19.91-6.48 1.34-9.79 1.46" clip-path="url(#c)" style="fill:#81c7cb;fill-opacity:1;fill-rule:nonzero;stroke:none" transform="matrix(.13333 0 0 -.13333 0 1122.52)"/><path d="M2860.01 7708.89c7.13 6.78 14.38 13.42 21.68 20.01 3.29.06 6.6.07 9.84-.56-7.63-6.95-15.23-13.94-22.84-20.91-2.55 1.77-5.76 1.28-8.68 1.46" clip-path="url(#c)" style="fill:#6cc1cd;fill-opacity:1;fill-rule:nonzero;stroke:none" transform="matrix(.13333 0 0 -.13333 0 1122.52)"/><path d="M2948.57 7707.96c7.58 5.14 15.3 10.07 23.01 14.99 1.51-1.16 3.32-.25 5.01-.31 1.94-.08 4.06.39 5.75-.86-7.7-5.04-15.33-10.23-23.16-15.05-3.35 1.42-7.03 1.49-10.61 1.23" clip-path="url(#c)" style="fill:#7bc5c9;fill-opacity:1;fill-rule:nonzero;stroke:none" transform="matrix(.13333 0 0 -.13333 0 1122.52)"/><path d="M3004.42 7715.26c1.26 1.99 2.87 3.72 4.68 5.21 5.78-5.48 11.56-10.96 17.35-16.44-1.77-1.53-3.36-3.24-4.7-5.17-5.81 5.43-11.53 10.95-17.33 16.4" clip-path="url(#c)" style="fill:#75c3c8;fill-opacity:1;fill-rule:nonzero;stroke:none" transform="matrix(.13333 0 0 -.13333 0 1122.52)"/><path d="M2894.52 7693.87c11.98 8.71 24.03 17.29 36.04 25.95 3.31-.12 6.6-.55 9.79-1.46-12.05-8.82-24.19-17.54-36.34-26.22-2.8 1.92-6.29 1.53-9.49 1.73" clip-path="url(#c)" style="fill:#71c2ca;fill-opacity:1;fill-rule:nonzero;stroke:none" transform="matrix(.13333 0 0 -.13333 0 1122.52)"/><path d="M2849.32 7697.32c2.71 4.54 7.02 7.84 10.69 11.57 2.92-.18 6.13.31 8.68-1.46-3.94-3.74-8.06-7.31-11.81-11.25-.11-1.61.44-3.17.78-4.72-2.09.06-4.15.18-6.2.37 0-1.6.03-3.19.05-4.8-.83 1.51-1.51 3.12-1.68 4.86.08 1.83-.33 3.62-.51 5.43" clip-path="url(#c)" style="fill:#62bfd4;fill-opacity:1;fill-rule:nonzero;stroke:none" transform="matrix(.13333 0 0 -.13333 0 1122.52)"/><path d="M2920.58 7689.77c9.3 6.11 18.6 12.24 27.99 18.19 3.58.26 7.26.19 10.61-1.23-10.21-6.87-20.59-13.52-30.9-20.24-2.46 1.34-5.06 2.4-7.7 3.28" clip-path="url(#c)" style="fill:#72c2ca;fill-opacity:1;fill-rule:nonzero;stroke:none" transform="matrix(.13333 0 0 -.13333 0 1122.52)"/><path d="M3021.75 7698.86c1.34 1.93 2.93 3.64 4.7 5.17 4.98-4.71 9.93-9.47 14.95-14.14 1.35-1.05 1.58-2.81 2.11-4.32.95-3.26 2.26-6.45 2.76-9.82-8.33 7.52-16.34 15.41-24.52 23.11" clip-path="url(#c)" style="fill:#6dc1cd;fill-opacity:1;fill-rule:nonzero;stroke:none" transform="matrix(.13333 0 0 -.13333 0 1122.52)"/><path d="M2878.83 7701.77c3.36.26 6.73-.14 10.04-.8-6.64-5.58-13.49-10.89-20.14-16.45l-.27.03c-2.42.2-4.82.62-7.18 1.22-.22-.2-.65-.62-.88-.82.05.96-.03 2.03.9 2.62 5.77 4.81 11.72 9.42 17.53 14.2" clip-path="url(#c)" style="fill:#65c0d2;fill-opacity:1;fill-rule:nonzero;stroke:none" transform="matrix(.13333 0 0 -.13333 0 1122.52)"/><path d="M2992.15 7666.73c1.86 1.08 4.28.44 5.99-.59 4.96-5.69 9.75-11.53 14.62-17.28-1.94-1.34-3.69-2.91-5.28-4.62-4.35 5.19-8.77 10.31-13.02 15.58-5.25-1.61-10.08-4.52-15.24-6.28-4.27 1.83-9.03.22-13.43 1.53 8.7 4.06 17.61 7.68 26.36 11.66" clip-path="url(#c)" style="fill:#65c0d2;fill-opacity:1;fill-rule:nonzero;stroke:none" transform="matrix(.13333 0 0 -.13333 0 1122.52)"/><path d="M2877.93 7662.02c14.2 9.28 28.43 18.51 42.65 27.75 2.64-.88 5.24-1.94 7.7-3.28-15.3-10.03-30.68-19.92-45.91-30.05-1.54 1.82-2.94 3.74-4.44 5.58" clip-path="url(#c)" style="fill:#65bfd2;fill-opacity:1;fill-rule:nonzero;stroke:none" transform="matrix(.13333 0 0 -.13333 0 1122.52)"/><path d="M3021.74 7683.09c1.37 1.88 2.95 3.61 4.67 5.19 7.13-7.14 14.27-14.27 21.43-21.38.57-.59 1.23-1.19 1.37-2.07.9-3.77 1.56-7.59 2.22-11.41-9.95 9.85-19.77 19.8-29.69 29.67" clip-path="url(#c)" style="fill:#66c0d1;fill-opacity:1;fill-rule:nonzero;stroke:none" transform="matrix(.13333 0 0 -.13333 0 1122.52)"/><path d="M2951.3 7662.72c14.63 6.92 29.37 13.63 44.08 20.38 1.68-.47 3.8-.34 4.95-1.92 7.72-8.73 15.49-17.41 23.19-26.18-1.82-1.51-3.43-3.24-4.73-5.22-7.65 8.59-15.26 17.22-22.86 25.86-10.39-4.54-20.55-9.65-30.97-14.12-4.57.15-9.12.53-13.66 1.2" clip-path="url(#c)" style="fill:#69c0d0;fill-opacity:1;fill-rule:nonzero;stroke:none" transform="matrix(.13333 0 0 -.13333 0 1122.52)"/><path d="M2884.47 7653.17c16.77 9.65 33.55 19.33 50.37 28.92 2.95-.85 6.18-1.03 8.73-2.96-18.56-10.68-37.08-21.44-55.68-32.07-1.13 2.04-2.28 4.08-3.42 6.11" clip-path="url(#c)" style="fill:#62bfd3;fill-opacity:1;fill-rule:nonzero;stroke:none" transform="matrix(.13333 0 0 -.13333 0 1122.52)"/><path d="M2892.43 7635.55c19.58 9.15 39.23 18.18 58.87 27.17 4.54-.67 9.09-1.05 13.66-1.2-23.5-11.07-47.12-21.92-70.73-32.79-.53 2.3-1.11 4.57-1.8 6.82" clip-path="url(#c)" style="fill:#5dbed6;fill-opacity:1;fill-rule:nonzero;stroke:none" transform="matrix(.13333 0 0 -.13333 0 1122.52)"/><path d="M3007.48 7644.24c1.59 1.71 3.34 3.28 5.28 4.62 3.61-4.33 7.24-8.64 10.88-12.94-.98-2.27-3.27-3.38-5.01-4.96-3.72 4.42-7.43 8.85-11.15 13.28" clip-path="url(#c)" style="fill:#5bbdd7;fill-opacity:1;fill-rule:nonzero;stroke:none" transform="matrix(.13333 0 0 -.13333 0 1122.52)"/><path d="M2895.84 7612.86c20.14 8.32 40.31 16.6 60.51 24.79 4.85-.06 9.69-.58 14.46-1.45-25.05-10.52-50.26-20.7-75.38-31.06.19 2.57.35 5.15.41 7.72" clip-path="url(#c)" style="fill:#57b8d9;fill-opacity:1;fill-rule:nonzero;stroke:none" transform="matrix(.13333 0 0 -.13333 0 1122.52)"/><path d="M2984.96 7637.2c1.68.22 3.7-.39 5-1.47 8.81-12.14 17.58-24.3 26.33-36.48-1.89-1.4-3.63-3-5.2-4.77-8.55 11.81-17.04 23.67-25.59 35.5-30.56-11.32-61.11-22.67-91.7-33.9.57 2.65 1.08 5.32 1.47 8 29.89 11.05 59.79 22.07 89.69 33.12" clip-path="url(#c)" style="fill:#57b8d9;fill-opacity:1;fill-rule:nonzero;stroke:none" transform="matrix(.13333 0 0 -.13333 0 1122.52)"/><path d="M3009.24 7630.98c7.59-9.64 15.26-19.21 22.88-28.82q-2.775-2.16-5.25-4.65c-7.57 9.39-15.03 18.88-22.52 28.33 1.65 1.7 3.27 3.41 4.89 5.14" clip-path="url(#c)" style="fill:#56b6d9;fill-opacity:1;fill-rule:nonzero;stroke:none" transform="matrix(.13333 0 0 -.13333 0 1122.52)"/><path d="M2896.86 7596.14c27.84 8.69 55.73 17.22 83.57 25.91 1.66-.71 3.93-.82 4.82-2.65 4.89-7.52 9.86-15.01 14.73-22.54-2.56.32-5.14-.15-7.26-1.68-4.21 6.43-8.47 12.84-12.6 19.32-25.01-7.47-49.87-15.43-74.83-23.08l-.64.39c-.57 1.02-1.01 2.6-2.51 2.3-2.01-.11-3.76.83-5.28 2.03" clip-path="url(#c)" style="fill:#56b4d9;fill-opacity:1;fill-rule:nonzero;stroke:none" transform="matrix(.13333 0 0 -.13333 0 1122.52)"/><path d="M2970.6 7606.94c1.79.58 3.52-.64 5.07-1.41 4.83-7.56 9.43-15.28 14.18-22.9-2.51.13-4.92-.6-6.98-2.02-4 6.38-7.91 12.82-11.85 19.24-11.34-2.74-22.65-5.56-34.02-8.16 2.55.02 5.02.68 7.51 1.14 5.99 1.07 11.99 2.11 17.97 3.29 1.5-.85 3.64-1.16 4.39-2.94 1.42-2.68 2.84-5.36 4.23-8.06-2.54-.01-5.08-.14-7.6-.44l-.14-.01c-.66 1.42-1.4 2.81-2.23 4.14-8.5-1.72-17.08-3.28-25.61-4.7-4.86 2.53-10.7 1.2-15.56 3.69-3.96 2.07-8.78 1.4-12.62 3.75 21.02 5.36 42.19 10.18 63.26 15.39" clip-path="url(#c)" style="fill:#54b0d9;fill-opacity:1;fill-rule:nonzero;stroke:none" transform="matrix(.13333 0 0 -.13333 0 1122.52)"/><path d="M3026.87 7597.51q2.475 2.49 5.25 4.65c6.58-8.25 13.22-16.46 19.89-24.64-.02-2.89-.88-5.73-1.32-8.59a25.5 25.5 0 0 0-3.31 3.34c-7 8.27-13.75 16.76-20.51 25.24" clip-path="url(#c)" style="fill:#51acdc;fill-opacity:1;fill-rule:nonzero;stroke:none" transform="matrix(.13333 0 0 -.13333 0 1122.52)"/><path d="M3011.09 7594.48c1.57 1.77 3.31 3.37 5.2 4.77 10.46-14.53 21-29.01 31.41-43.58-.77-2.87-1.4-5.78-2.4-8.6-11.46 15.76-22.77 31.63-34.21 47.41" clip-path="url(#c)" style="fill:#4fa9dc;fill-opacity:1;fill-rule:nonzero;stroke:none" transform="matrix(.13333 0 0 -.13333 0 1122.52)"/></g></g><path d="M.316 0h2.18l.714-2.238h3.422L7.382 0h2.191L6.198-9.632h-2.59Zm3.386-3.785.282-.867c.293-.973.574-2.11.902-3.445.328 1.324.633 2.46.95 3.445l.292.867zM16.716 0h2.578L22.6-9.632h-2.18l-1.488 4.64a76 76 0 0 0-.914 3.399 77 77 0 0 0-.938-3.399l-1.547-4.64h-2.191Zm9.49.141c1.687 0 2.835-.785 3.198-1.98l-1.77-.329c-.198.551-.714.844-1.394.844-.972 0-1.629-.598-1.675-1.793h4.945v-.539c0-2.473-1.512-3.668-3.399-3.668-2.109 0-3.468 1.512-3.468 3.75 0 2.285 1.36 3.715 3.562 3.715m-1.63-4.465c.07-.89.633-1.535 1.559-1.535.902 0 1.406.586 1.5 1.535zM30.84 0h1.934v-4.113c0-.902.656-1.512 1.546-1.512.282 0 .668.047.844.094v-1.734a3.5 3.5 0 0 0-.633-.059c-.808 0-1.476.457-1.746 1.36h-.07V-7.23H30.84zm5.537 2.567c.281.105.762.187 1.266.187 1.453 0 2.215-.726 2.66-1.898l3.07-8.086h-2.039l-1.266 3.75c-.21.621-.374 1.242-.527 1.887-.129-.633-.258-1.254-.457-1.887l-1.219-3.75h-2.062L38.522.024l-.047.387c-.094.726-.621.96-1.407.75l-.246-.06ZM47.597 0h6.13v-1.64h-4.16v-7.992h-1.97zm10.68.141c2.167 0 3.539-1.5 3.539-3.727 0-2.238-1.372-3.738-3.54-3.738-2.18 0-3.539 1.5-3.539 3.738 0 2.227 1.36 3.727 3.54 3.727m0-1.523c-1.043 0-1.56-.95-1.56-2.204 0-1.289.517-2.214 1.56-2.214 1.03 0 1.558.937 1.558 2.214 0 1.254-.527 2.204-1.558 2.204m6.826-2.801c0-.961.574-1.512 1.406-1.512.82 0 1.312.54 1.312 1.43V0h1.934v-4.593c0-1.7-.984-2.73-2.484-2.73-1.114 0-1.84.573-2.25 1.581l-.024-1.488H63.17V0h1.934zM74.63 2.86c2.04 0 3.504-.961 3.504-2.918V-7.23h-1.91v1.219h-.082c-.27-.575-.867-1.313-2.086-1.313-1.594 0-2.942 1.254-2.942 3.692 0 2.402 1.313 3.527 2.942 3.527 1.172 0 1.734-.598 2.004-1.172h.152V.047c0 .961-.61 1.406-1.594 1.406-.949 0-1.394-.421-1.57-.832l-1.676.47c.317 1.03 1.442 1.769 3.258 1.769m.035-4.442c-1.008 0-1.558-.797-1.558-2.062 0-1.242.539-2.121 1.558-2.121.996 0 1.547.843 1.547 2.12 0 1.302-.562 2.063-1.547 2.063M84.943.141c1.066 0 1.77-.469 2.109-1.148h.07V0h1.84v-4.875c0-1.746-1.512-2.449-3.07-2.449-1.617 0-2.778.715-3.153 1.969l1.782.305c.152-.47.609-.832 1.359-.832.727 0 1.137.34 1.137.96v.036c0 .468-.516.515-1.758.644-1.418.13-2.719.598-2.719 2.215 0 1.43 1.02 2.168 2.403 2.168m.55-1.36c-.644 0-1.09-.292-1.09-.855 0-.586.47-.867 1.196-.96.422-.06 1.195-.165 1.43-.34v.785c0 .761-.633 1.37-1.536 1.37m7.06-2.964c0-.961.575-1.512 1.407-1.512.82 0 1.313.54 1.313 1.43V0h1.933v-4.593c0-1.7-.984-2.73-2.484-2.73-1.113 0-1.84.573-2.25 1.581l-.024-1.488H90.62V0h1.934zm8.954 4.3c1.184 0 1.781-.69 2.05-1.277h.094V0h1.91v-9.632h-1.945v3.62h-.058c-.258-.574-.832-1.312-2.063-1.312-1.605 0-2.93 1.254-2.93 3.727 0 2.402 1.278 3.715 2.942 3.715m.598-1.558c-1.008 0-1.547-.89-1.547-2.168 0-1.266.527-2.156 1.547-2.156.996 0 1.558.843 1.558 2.156 0 1.3-.562 2.168-1.558 2.168m10.271-8.191h-1.969V0h1.97zM114.081 0h1.934v-4.37c0-.868.527-1.348 1.207-1.348.668 0 1.137.457 1.137 1.16V0h1.875v-4.453c0-.75.445-1.265 1.183-1.265.656 0 1.149.398 1.149 1.207V0h1.945v-4.875c0-1.57-.984-2.472-2.309-2.472-.996 0-1.91.515-2.32 1.629-.34-1.102-.938-1.63-1.863-1.63-.867 0-1.676.47-2.063 1.524l-.082-1.406h-1.793zm12.094 2.707h1.934V-1.16h.058c.27.586.867 1.278 2.05 1.278 1.677 0 2.942-1.313 2.942-3.715 0-2.473-1.324-3.727-2.93-3.727-1.23 0-1.792.738-2.062 1.313h-.094v-1.22h-1.898zm3.445-4.148c-.984 0-1.558-.867-1.558-2.168 0-1.313.562-2.156 1.558-2.156 1.02 0 1.559.89 1.559 2.156 0 1.277-.54 2.168-1.559 2.168M134.527 0h1.934v-4.113c0-.902.656-1.512 1.547-1.512a4 4 0 0 1 .844.094v-1.734a3.5 3.5 0 0 0-.633-.059c-.809 0-1.477.457-1.746 1.36h-.07V-7.23h-1.875zm8.338.141c1.688 0 2.836-.785 3.2-1.98l-1.77-.329c-.2.551-.715.844-1.394.844-.973 0-1.63-.598-1.676-1.793h4.945v-.539c0-2.473-1.512-3.668-3.398-3.668-2.11 0-3.47 1.512-3.47 3.75 0 2.285 1.36 3.715 3.563 3.715m-1.629-4.465c.07-.89.633-1.535 1.56-1.535.901 0 1.405.586 1.5 1.535zm9.135 4.465c1.887 0 3.235-.95 3.235-2.367 0-1.031-.68-1.676-2.075-1.957l-1.3-.258c-.68-.14-.926-.398-.926-.762 0-.433.492-.726 1.125-.726.703 0 1.113.351 1.265.843l1.723-.304c-.27-1.184-1.3-1.934-3.012-1.934-1.84 0-3.046.856-3.046 2.25 0 1.078.69 1.758 2.085 2.05l1.243.259c.632.129.937.363.937.738 0 .434-.457.75-1.195.75-.797 0-1.266-.328-1.453-1.008l-1.805.305c.258 1.348 1.453 2.121 3.2 2.121m7.421 0c1.887 0 3.235-.95 3.235-2.367 0-1.031-.68-1.676-2.075-1.957l-1.3-.258c-.68-.14-.926-.398-.926-.762 0-.433.492-.726 1.125-.726.703 0 1.113.351 1.265.843l1.723-.304c-.27-1.184-1.3-1.934-3.012-1.934-1.84 0-3.047.856-3.047 2.25 0 1.078.692 1.758 2.086 2.05l1.243.259c.632.129.937.363.937.738 0 .434-.457.75-1.195.75-.797 0-1.266-.328-1.453-1.008l-1.805.305c.258 1.348 1.453 2.121 3.2 2.121m4.55-.14h1.934V-7.23h-1.934zm.96-8.18c.587 0 1.079-.434 1.079-.996 0-.551-.492-.997-1.078-.997s-1.067.446-1.067.997c0 .562.48.996 1.067.996m4.67 8.18h2.204l2.672-7.231h-2.04l-1.206 3.75c-.2.656-.352 1.3-.504 1.969a27 27 0 0 0-.516-1.97l-1.219-3.75h-2.062zm8.925.14c1.687 0 2.836-.785 3.199-1.98l-1.77-.329c-.199.551-.715.844-1.394.844-.973 0-1.63-.598-1.676-1.793h4.945v-.539c0-2.473-1.511-3.668-3.398-3.668-2.11 0-3.469 1.512-3.469 3.75 0 2.285 1.36 3.715 3.563 3.715m-1.63-4.465c.071-.89.634-1.535 1.56-1.535.902 0 1.406.586 1.5 1.535zM-26.868 8.916h2.953v8.003h1.98V8.915h2.942V7.286h-7.875zm11.13 3.82c0-.961.574-1.512 1.406-1.512.82 0 1.313.539 1.313 1.43v4.265h1.945v-4.593c0-1.7-.996-2.73-2.496-2.73-1.067 0-1.781.526-2.203 1.476V7.286h-1.899v9.633h1.934zm9.574 4.324c1.688 0 2.836-.785 3.2-1.98l-1.77-.329c-.2.551-.715.844-1.395.844-.972 0-1.629-.598-1.676-1.793h4.946v-.539c0-2.473-1.512-3.668-3.399-3.668-2.109 0-3.468 1.512-3.468 3.75 0 2.285 1.359 3.715 3.562 3.715m-1.629-4.465c.07-.89.633-1.535 1.559-1.535.902 0 1.406.586 1.5 1.535zm9.135 4.465c1.887 0 3.234-.95 3.234-2.367 0-1.032-.68-1.676-2.074-1.957l-1.3-.258c-.68-.14-.926-.399-.926-.762 0-.433.492-.726 1.125-.726.703 0 1.113.351 1.265.843l1.723-.304c-.27-1.184-1.3-1.934-3.012-1.934-1.84 0-3.047.856-3.047 2.25 0 1.078.692 1.758 2.086 2.05l1.242.259c.633.129.938.363.938.738 0 .434-.457.75-1.195.75-.797 0-1.266-.328-1.454-1.008l-1.804.305c.258 1.347 1.453 2.12 3.199 2.12m4.55-.14h1.933V9.688H5.891Zm.96-8.18c.587 0 1.079-.434 1.079-.996 0-.551-.492-.997-1.078-.997s-1.067.446-1.067.997c0 .562.48.996 1.067.996m5.503 8.32c1.886 0 3.234-.95 3.234-2.367 0-1.032-.68-1.676-2.074-1.957l-1.301-.258c-.68-.14-.926-.399-.926-.762 0-.433.492-.726 1.125-.726.703 0 1.114.351 1.266.843l1.723-.304c-.27-1.184-1.301-1.934-3.012-1.934-1.84 0-3.047.856-3.047 2.25 0 1.078.691 1.758 2.086 2.05l1.242.259c.633.129.938.363.938.738 0 .434-.457.75-1.196.75-.797 0-1.265-.328-1.453-1.008l-1.805.305c.258 1.347 1.454 2.12 3.2 2.12m7.336-8.145h2.953v8.004h1.98V8.915h2.942V7.286H19.69zm9.196 8.004h1.933V9.69h-1.933Zm.96-8.18c.587 0 1.079-.433 1.079-.995 0-.551-.492-.997-1.078-.997s-1.067.446-1.067.997c0 .562.48.996 1.067.996m6.215.95h-1.348V7.966h-1.945V9.69h-.996v1.476h.996v3.809c0 1.324.785 2.05 2.238 2.05.387 0 .82-.046 1.254-.175l-.281-1.453a3.5 3.5 0 0 1-.61.082c-.468 0-.656-.211-.656-.68v-3.633h1.348zm3.234-2.403h-1.934v9.633h1.934zm4.913 9.774c1.688 0 2.836-.785 3.2-1.98l-1.77-.329c-.2.551-.715.844-1.395.844-.972 0-1.629-.598-1.675-1.793h4.945v-.539c0-2.473-1.512-3.668-3.399-3.668-2.109 0-3.468 1.512-3.468 3.75 0 2.285 1.359 3.715 3.562 3.715m-1.629-4.465c.07-.89.633-1.535 1.559-1.535.902 0 1.406.586 1.5 1.535zm10.905 4.324h1.98l.797-2.789c.176-.61.34-1.43.516-2.203.164.762.328 1.594.515 2.203l.797 2.79h1.98l2.145-7.231h-2.062l-.633 2.672c-.188.82-.387 1.734-.575 2.8-.21-1.078-.433-1.992-.62-2.8l-.645-2.672h-1.781l-.668 2.672c-.188.82-.422 1.734-.621 2.789-.2-1.067-.422-1.98-.586-2.79L53.39 9.69h-2.04zm9.764 0h1.934V9.69h-1.934zm.961-8.18c.586 0 1.078-.433 1.078-.995 0-.551-.492-.997-1.078-.997s-1.066.446-1.066.997c0 .562.48.996 1.066.996m6.214.95h-1.348V7.966H67.13V9.69h-.996v1.476h.996v3.809c0 1.324.785 2.05 2.238 2.05.387 0 .82-.046 1.254-.175l-.281-1.453c-.14.035-.457.082-.61.082-.468 0-.656-.211-.656-.68v-3.633h1.348zm3.231 3.047c0-.961.575-1.512 1.407-1.512.82 0 1.312.539 1.312 1.43v4.265h1.945v-4.593c0-1.7-.996-2.73-2.496-2.73-1.066 0-1.78.526-2.203 1.476V7.286h-1.898v9.633h1.933zm11.47 4.324c1.067 0 1.77-.469 2.11-1.149h.07v1.008h1.84v-4.875c0-1.746-1.512-2.449-3.07-2.449-1.618 0-2.778.715-3.153 1.969l1.781.305c.153-.47.61-.833 1.36-.833.726 0 1.136.34 1.136.961v.036c0 .468-.515.515-1.757.644-1.418.129-2.72.598-2.72 2.215 0 1.43 1.02 2.168 2.403 2.168m.55-1.36c-.644 0-1.089-.292-1.089-.855 0-.586.469-.867 1.195-.96.422-.06 1.196-.165 1.43-.34v.784c0 .762-.633 1.372-1.535 1.372m8.312 1.22h1.97v-3.704h3.937v-1.605h-3.938V8.915h4.36V7.286H93.99zm10.585.14c2.168 0 3.54-1.5 3.54-3.727 0-2.238-1.372-3.738-3.54-3.738-2.18 0-3.539 1.5-3.539 3.738 0 2.227 1.36 3.727 3.54 3.727m0-1.524c-1.043 0-1.558-.949-1.558-2.203 0-1.289.515-2.214 1.558-2.214 1.032 0 1.559.937 1.559 2.214 0 1.254-.527 2.203-1.559 2.203m4.89 1.383h1.934v-4.113c0-.902.656-1.512 1.547-1.512.28 0 .668.047.843.094V9.654a3.5 3.5 0 0 0-.633-.059c-.808 0-1.476.457-1.746 1.36h-.07V9.688h-1.875zm8.309.14c1.734 0 2.953-.937 3.222-2.46l-1.804-.328c-.153.785-.657 1.265-1.407 1.265-1.03 0-1.57-.914-1.57-2.203 0-1.312.54-2.214 1.57-2.214.75 0 1.23.468 1.395 1.218l1.805-.34c-.27-1.476-1.5-2.402-3.211-2.402-2.18 0-3.54 1.5-3.54 3.738 0 2.227 1.36 3.727 3.54 3.727m7.819 0c1.688 0 2.836-.784 3.2-1.98l-1.77-.328c-.2.551-.715.844-1.395.844-.972 0-1.629-.598-1.676-1.793h4.946v-.539c0-2.473-1.512-3.668-3.399-3.668-2.11 0-3.468 1.512-3.468 3.75 0 2.285 1.359 3.715 3.562 3.715m-1.629-4.464c.07-.89.633-1.535 1.559-1.535.902 0 1.406.586 1.5 1.535zm8.9 4.441c1.184 0 1.782-.69 2.051-1.277h.094v1.16h1.91V7.286h-1.945v3.622h-.059c-.258-.575-.832-1.313-2.062-1.313-1.606 0-2.93 1.254-2.93 3.727 0 2.402 1.277 3.714 2.941 3.714m.598-1.558c-1.008 0-1.547-.89-1.547-2.168 0-1.266.528-2.156 1.547-2.156.996 0 1.559.843 1.559 2.156 0 1.3-.563 2.168-1.559 2.168m8.303 1.441h6.129v-1.64h-4.16V7.286h-1.97zm7.444 0h1.934V9.69h-1.934zm.961-8.18c.586 0 1.078-.433 1.078-.995 0-.551-.492-.997-1.078-.997s-1.066.446-1.066.997c0 .562.48.996 1.066.996m4.565 3.997c0-.961.574-1.512 1.406-1.512.82 0 1.312.539 1.312 1.43v4.265h1.934v-4.593c0-1.7-.984-2.73-2.484-2.73-1.114 0-1.84.573-2.25 1.581l-.024-1.488h-1.828v7.23h1.934zm9.574 4.324c1.687 0 2.836-.785 3.199-1.98l-1.77-.329c-.199.551-.714.844-1.394.844-.973 0-1.629-.598-1.676-1.793h4.946v-.539c0-2.473-1.512-3.668-3.399-3.668-2.11 0-3.469 1.512-3.469 3.75 0 2.285 1.36 3.715 3.563 3.715m-1.63-4.465c.071-.89.634-1.535 1.56-1.535.902 0 1.406.586 1.5 1.535zm9.45 4.324h4.066c2.168 0 3.304-1.136 3.304-2.66 0-1.43-1.02-2.285-2.11-2.332v-.094c.997-.222 1.735-.925 1.735-2.074 0-1.441-1.066-2.473-3.176-2.473h-3.82zm1.968-1.629v-2.613h1.758c.984 0 1.617.586 1.617 1.395 0 .726-.516 1.218-1.664 1.218zm0-3.96v-2.44h1.594c.925 0 1.441.48 1.441 1.184 0 .773-.633 1.253-1.476 1.253zm6.75 5.59h1.934v-4.114c0-.902.656-1.512 1.546-1.512.282 0 .668.047.844.094V9.654a3.5 3.5 0 0 0-.633-.059c-.808 0-1.476.457-1.746 1.36h-.07V9.688h-1.875zm8.329.14c1.688 0 2.836-.785 3.2-1.98l-1.77-.329c-.2.551-.715.844-1.395.844-.972 0-1.629-.598-1.676-1.793h4.946v-.539c0-2.473-1.512-3.668-3.399-3.668-2.11 0-3.468 1.512-3.468 3.75 0 2.285 1.359 3.715 3.562 3.715m-1.629-4.465c.07-.89.633-1.535 1.559-1.535.902 0 1.406.586 1.5 1.535zm8.411 4.465c1.067 0 1.77-.469 2.11-1.149h.07v1.008h1.84v-4.875c0-1.746-1.512-2.449-3.07-2.449-1.618 0-2.778.715-3.153 1.969l1.781.305c.153-.47.61-.833 1.36-.833.726 0 1.136.34 1.136.961v.036c0 .468-.515.515-1.757.644-1.418.129-2.72.598-2.72 2.215 0 1.43 1.02 2.168 2.403 2.168m.551-1.36c-.645 0-1.09-.292-1.09-.855 0-.586.469-.867 1.195-.96.422-.06 1.196-.165 1.43-.34v.784c0 .762-.633 1.372-1.535 1.372m5.127 1.22h1.934v-2.321l.562-.633 2.016 2.953h2.285l-2.848-4.09 2.707-3.14h-2.238l-2.367 2.777h-.117v-5.18h-1.934zM51.708 56.042c2.942 0 4.606-1.828 4.606-4.84 0-2.988-1.664-4.792-4.477-4.792h-3.14v9.632zm-1.781-1.09v-7.464h1.816c2.239 0 3.375 1.394 3.375 3.715 0 2.343-1.136 3.75-3.492 3.75zm11.238 1.243c1.477 0 2.555-.739 2.895-1.84l-1.125-.305c-.27.738-.914 1.113-1.77 1.113-1.277 0-2.156-.832-2.215-2.343h5.227v-.48c0-2.673-1.617-3.622-3.152-3.622-1.97 0-3.258 1.547-3.258 3.762 0 2.226 1.3 3.715 3.398 3.715m-2.215-4.36c.07-1.101.832-2.086 2.075-2.086 1.195 0 1.851.856 1.968 2.086zm9.824 7.067c1.757 0 3.152-.797 3.152-2.672v-7.418h-1.137v1.16h-.105c-.246-.387-.715-1.254-2.11-1.254-1.804 0-3.082 1.442-3.082 3.68 0 2.262 1.325 3.527 3.059 3.527 1.394 0 1.851-.797 2.098-1.207h.117v1.442c0 1.195-.832 1.722-1.992 1.722-1.266 0-1.723-.644-2.028-1.066l-.949.61c.445.796 1.371 1.476 2.977 1.476m-.024-4.008c-1.36 0-2.074-1.043-2.074-2.531 0-1.442.691-2.602 2.074-2.602 1.324 0 2.027 1.078 2.027 2.602 0 1.582-.714 2.53-2.027 2.53m5.218 1.148h1.172V51.52c0-.984.762-1.688 1.804-1.688.305 0 .622.047.692.07V48.73a9 9 0 0 0-.586-.024c-.856 0-1.606.48-1.875 1.22h-.082v-1.114h-1.125zm7.816.153c1.477 0 2.555-.739 2.895-1.84l-1.125-.305c-.27.738-.914 1.113-1.77 1.113-1.277 0-2.156-.832-2.215-2.343h5.227v-.48c0-2.673-1.617-3.622-3.152-3.622-1.97 0-3.258 1.547-3.258 3.762 0 2.226 1.3 3.715 3.398 3.715m-2.215-4.36c.07-1.101.833-2.086 2.075-2.086 1.195 0 1.851.856 1.968 2.086zm9.94 4.36c1.477 0 2.556-.739 2.895-1.84l-1.125-.305c-.27.738-.914 1.113-1.77 1.113-1.276 0-2.155-.832-2.214-2.343h5.227v-.48c0-2.673-1.618-3.622-3.153-3.622-1.968 0-3.258 1.547-3.258 3.762 0 2.226 1.301 3.715 3.399 3.715m-2.214-4.36c.07-1.101.832-2.086 2.074-2.086 1.196 0 1.852.856 1.969 2.086zm10.76 4.207h1.243v-5.496c0-.468-.047-1.43-.094-2.672.75 1.348 1.114 1.993 1.559 2.684l3.492 5.484h1.453V46.41h-1.23v5.906c0 .515.011 1.336.093 2.273a24 24 0 0 0-1.136-2.015L99.51 46.41h-1.453zm11.869.164c1.219 0 1.898-.632 2.144-1.148h.083v.984h1.148v-4.77c0-2.25-1.746-2.554-2.719-2.554-1.113 0-2.355.399-2.918 1.711l1.125.375c.223-.504.785-1.066 1.828-1.066 1.008 0 1.512.527 1.512 1.418v.046c0 .528-.562.493-1.852.657-1.335.164-2.812.468-2.812 2.12 0 1.43 1.09 2.227 2.46 2.227m.2-1.02c-.868 0-1.49-.398-1.49-1.148 0-.82.74-1.09 1.583-1.195.445-.058 1.723-.187 1.91-.422v1.008c0 .89-.715 1.758-2.004 1.758m5.214.856h1.172v-4.558c0-1.149.762-1.746 1.617-1.746.809 0 1.406.539 1.406 1.347v4.957h1.172V51.32c0-.914.598-1.582 1.57-1.582.774 0 1.454.422 1.454 1.465v4.84h1.172v-4.876c0-1.675-1.02-2.484-2.274-2.484-1.055 0-1.933.562-2.285 1.477-.258-.891-.89-1.477-1.84-1.477-.855 0-1.664.48-2.027 1.453v-1.324h-1.137zm14.654.153c1.477 0 2.555-.739 2.895-1.84l-1.125-.305c-.27.738-.914 1.113-1.77 1.113-1.277 0-2.156-.832-2.215-2.343h5.227v-.48c0-2.673-1.617-3.622-3.152-3.622-1.97 0-3.258 1.547-3.258 3.762 0 2.226 1.3 3.715 3.398 3.715m-2.215-4.36c.07-1.101.833-2.086 2.075-2.086 1.195 0 1.851.856 1.968 2.086zM22.385 250.31c1.7 0 2.742-.926 2.742-2.59v-5.777h-1.676v5.8c0 .797-.41 1.208-1.066 1.208s-1.078-.41-1.078-1.207v-.504h-1.688v.48c0 1.664 1.055 2.59 2.766 2.59m6.978.012c1.864 0 3.036-1.278 3.036-3.188 0-1.922-1.172-3.2-3.036-3.2-1.863 0-3.035 1.278-3.035 3.2 0 1.91 1.172 3.188 3.035 3.188m0-1.301c-.89 0-1.336-.809-1.336-1.899s.446-1.886 1.336-1.886 1.348.797 1.348 1.886c0 1.09-.457 1.899-1.348 1.899m5.854-2.402c0-.82.504-1.301 1.207-1.301s1.125.468 1.125 1.23v3.656h1.664v-3.937c0-1.453-.844-2.332-2.133-2.332-.926 0-1.535.445-1.886 1.254v-3.246h-1.63v8.261h1.653zm7.07 0c0-.82.503-1.301 1.206-1.301s1.125.468 1.125 1.23v3.656h1.664v-3.937c0-1.453-.843-2.332-2.132-2.332-.95 0-1.582.492-1.934 1.348l-.023-1.278h-1.56v6.2h1.653zm10.558 3.585h2.215l2.824-8.261H56.02l-1.278 3.984a72 72 0 0 0-.785 2.918 58 58 0 0 0-.808-2.918l-1.313-3.984H49.95zm8.127.118c1.441 0 2.437-.668 2.742-1.7l-1.512-.28c-.175.48-.62.737-1.195.737-.844 0-1.406-.527-1.441-1.546h4.242v-.457c0-2.122-1.301-3.141-2.918-3.141-1.805 0-2.977 1.289-2.977 3.2 0 1.956 1.172 3.187 3.059 3.187m-1.395-3.82c.059-.774.54-1.325 1.336-1.325.762 0 1.207.504 1.29 1.324zm5.37 3.702H66.6v-3.527c0-.773.562-1.3 1.324-1.3.246 0 .574.046.727.093v-1.488a2.6 2.6 0 0 0-.54-.059c-.69 0-1.265.399-1.5 1.16h-.058v-1.078h-1.606Zm4.755 2.192c.235.094.645.176 1.078.176 1.243 0 1.899-.633 2.274-1.641l2.637-6.926h-1.747l-1.09 3.223a17 17 0 0 0-.445 1.617c-.117-.55-.222-1.09-.398-1.617l-1.031-3.223h-1.77l2.32 6.211-.035.34c-.082.621-.539.82-1.207.645l-.21-.06zm9.61-2.192h5.25v-1.406h-3.563v-6.855h-1.687zm9.152.118c1.863 0 3.035-1.278 3.035-3.188 0-1.922-1.172-3.2-3.035-3.2s-3.035 1.278-3.035 3.2c0 1.91 1.172 3.188 3.035 3.188m0-1.301c-.89 0-1.336-.809-1.336-1.899s.445-1.886 1.336-1.886c.89 0 1.348.797 1.348 1.886 0 1.09-.457 1.899-1.348 1.899m5.85-2.403c0-.82.505-1.3 1.208-1.3s1.125.468 1.125 1.23v3.656h1.664v-3.937c0-1.453-.844-2.332-2.133-2.332-.95 0-1.582.492-1.934 1.348l-.023-1.278h-1.559v6.2h1.653zm8.174 6.036c1.747 0 3-.82 3-2.496v-6.153h-1.64v1.043h-.07c-.235-.492-.739-1.113-1.782-1.113-1.37 0-2.531 1.066-2.531 3.164 0 2.05 1.125 3.012 2.531 3.012.996 0 1.489-.504 1.711-1.008h.13v1.148c0 .809-.517 1.196-1.36 1.196-.809 0-1.196-.364-1.348-.715l-1.43.398c.27.89 1.23 1.524 2.79 1.524m.024-3.797c-.867 0-1.336-.692-1.336-1.77 0-1.066.457-1.828 1.336-1.828.855 0 1.336.727 1.336 1.828 0 1.102-.492 1.77-1.336 1.77m6.05-2.239c0-.82.504-1.3 1.207-1.3s1.125.468 1.125 1.23v3.656h1.664v-3.937c0-1.453-.844-2.332-2.133-2.332-.95 0-1.582.492-1.934 1.348l-.023-1.278h-1.559v6.2h1.653zm7.142 3.704c.914 0 1.512-.399 1.817-.973h.058v.855h1.57v-4.171c0-1.5-1.3-2.098-2.624-2.098-1.395 0-2.391.61-2.708 1.687l1.524.258c.14-.398.527-.715 1.172-.715.62 0 .972.293.972.82v.024c0 .41-.433.457-1.5.563-1.218.117-2.343.515-2.343 1.898 0 1.219.879 1.852 2.062 1.852m.469-1.16c-.54 0-.938-.258-.938-.739 0-.492.41-.738 1.032-.82.363-.059 1.02-.14 1.23-.281v.668c0 .656-.539 1.171-1.324 1.171m4.403 1.042h1.653v-3.75c0-.738.457-1.148 1.043-1.148.562 0 .96.387.96.996v3.902h1.606v-3.808c0-.656.387-1.09 1.02-1.09.562 0 .984.34.984 1.031v3.867h1.676v-4.183c0-1.348-.844-2.11-1.98-2.11-.856 0-1.641.446-1.993 1.395-.293-.95-.809-1.395-1.594-1.395-.75 0-1.441.399-1.77 1.301l-.07-1.207h-1.535zm13.155.118c1.441 0 2.437-.668 2.742-1.7l-1.512-.28c-.176.48-.621.737-1.195.737-.844 0-1.407-.527-1.442-1.546h4.243v-.457c0-2.122-1.301-3.141-2.918-3.141-1.805 0-2.977 1.289-2.977 3.2 0 1.956 1.172 3.187 3.059 3.187m-1.395-3.82c.059-.774.54-1.325 1.336-1.325.762 0 1.207.504 1.289 1.324zm11.001 3.702c2.508 0 4.02-1.546 4.02-4.136 0-2.567-1.512-4.125-3.997-4.125h-2.93v8.261zm-1.219-1.453v-5.343h1.149c1.57 0 2.402.82 2.402 2.66 0 1.863-.832 2.683-2.414 2.683zm9.246 1.57c1.864 0 3.036-1.277 3.036-3.187 0-1.922-1.172-3.2-3.036-3.2-1.863 0-3.035 1.278-3.035 3.2 0 1.91 1.172 3.188 3.035 3.188m0-1.3c-.89 0-1.336-.809-1.336-1.899s.446-1.886 1.336-1.886 1.348.797 1.348 1.886c0 1.09-.457 1.899-1.348 1.899m6.988 1.3c1.441 0 2.437-.667 2.742-1.699l-1.512-.28c-.176.48-.621.737-1.195.737-.844 0-1.406-.527-1.442-1.546h4.243v-.457c0-2.122-1.301-3.141-2.918-3.141-1.805 0-2.977 1.289-2.977 3.2 0 1.956 1.172 3.187 3.059 3.187m-1.395-3.82c.059-.773.54-1.324 1.336-1.324.762 0 1.207.504 1.29 1.324zM53.85 445.954c1.453 0 2.46-.878 2.46-2.472v-5.895h-1.054v5.895c0 1.02-.562 1.547-1.406 1.547-.856 0-1.418-.528-1.418-1.547v-.434h-1.055v.434c0 1.594 1.008 2.472 2.473 2.472m6.073.036c1.043 0 1.629-.551 1.84-.985h.07v.844h.973v-4.09c0-1.933-1.488-2.18-2.32-2.18-.961 0-2.028.34-2.497 1.465l.961.317c.188-.434.668-.914 1.559-.914.867 0 1.3.445 1.3 1.218v.036c0 .457-.491.421-1.593.562-1.148.14-2.402.399-2.402 1.828 0 1.219.937 1.899 2.109 1.899m.164-.88c-.738 0-1.277-.327-1.277-.972 0-.703.644-.937 1.37-1.031.376-.047 1.466-.164 1.63-.352v.856c0 .761-.61 1.5-1.723 1.5m5.476-2.976c0-1.055.668-1.664 1.558-1.664.867 0 1.395.574 1.395 1.524v3.855h1.008v-3.937c0-1.57-.844-2.333-2.098-2.333-.832 0-1.5.34-1.899 1.22v-1.15h-.96v6.2h.996zm7.81 3.797c.82 0 1.488-.34 1.899-1.242v1.16h.96v-6.2h-1.007v3.716c0 1.054-.668 1.664-1.547 1.664-.867 0-1.406-.575-1.406-1.524v-3.855h-.996v3.937c0 1.57.843 2.344 2.097 2.344m6.355.059c1.043 0 1.629-.551 1.84-.985h.07v.844h.972v-4.09c0-1.933-1.488-2.18-2.32-2.18-.96 0-2.027.34-2.496 1.465l.961.317c.188-.434.668-.914 1.559-.914.867 0 1.3.445 1.3 1.218v.036c0 .457-.492.422-1.593.562-1.149.14-2.403.399-2.403 1.828 0 1.219.938 1.899 2.11 1.899m.164-.88c-.739 0-1.278-.327-1.278-.972 0-.703.645-.937 1.371-1.031.375-.047 1.465-.164 1.63-.352v.856c0 .761-.61 1.5-1.723 1.5m4.476.739h.996v-3.879c0-.844.657-1.441 1.547-1.441.27 0 .54.047.598.058v-1.008c-.117 0-.363-.011-.504-.011-.738 0-1.383.41-1.605 1.043h-.07v-.961h-.962zm4.35 2.25c.106.047.376.117.74.117.866 0 1.464-.457 1.85-1.441l2.72-7.125h-1.09l-1.325 3.68c-.199.539-.34 1.078-.48 1.593-.14-.515-.281-1.054-.48-1.594l-1.313-3.68h-1.09l2.367 6.235-.187.516c-.305.89-.738 1.02-1.348.855l-.105-.023zm6.206-.258h.762l.867-3.14h-1.137zm6.691-1.992h5.262v-.926h-3.809v-.07l1.817-1.922c1.453-1.547 1.851-2.25 1.851-3.14 0-1.301-1.043-2.31-2.52-2.31-1.464 0-2.577.985-2.577 2.45h1.008c0-.926.597-1.535 1.546-1.535.88 0 1.547.539 1.547 1.394 0 .762-.457 1.336-1.37 2.32l-2.755 2.977zm10 .105c1.851 0 2.894-1.546 2.894-4.23 0-2.672-1.066-4.242-2.895-4.242s-2.894 1.57-2.894 4.242c0 2.684 1.055 4.23 2.894 4.23m0-.914c-1.208 0-1.887-1.218-1.887-3.316 0-2.11.68-3.328 1.886-3.328 1.207 0 1.887 1.219 1.887 3.328 0 2.098-.68 3.316-1.887 3.316m7.365.914c1.851 0 2.894-1.546 2.894-4.23 0-2.672-1.066-4.242-2.894-4.242s-2.895 1.57-2.895 4.242c0 2.684 1.055 4.23 2.895 4.23m0-.914c-1.207 0-1.887-1.218-1.887-3.316 0-2.11.68-3.328 1.887-3.328s1.886 1.219 1.886 3.328c0 2.098-.68 3.316-1.886 3.316m7.365.914c1.851 0 2.894-1.546 2.894-4.23 0-2.672-1.066-4.242-2.894-4.242s-2.895 1.57-2.895 4.242c0 2.684 1.055 4.23 2.895 4.23m0-.914c-1.207 0-1.887-1.218-1.887-3.316 0-2.11.68-3.328 1.887-3.328s1.887 1.219 1.887 3.328c0 2.098-.68 3.316-1.887 3.316m0 0" aria-label="AVeryLongandImpressive ThesisTitlewithaForcedLineBreak DegreeName JohnVeryLongnameDoe January,2000" style="fill:#000;fill-opacity:1;fill-rule:nonzero;stroke:none" transform="translate(276.325 441.98)scale(1.33333)"/></svg>