<svg xmlns="http://www.w3.org/2000/svg" xmlns:xlink="http://www.w3.org/1999/xlink" width="793.701" height="1122.52" viewBox="0 0 595.276 841.89"><defs><symbol overflow="visible" id="H"><path style="stroke:none" d="m2.625 0 .766-2.313h3.656L7.797 0h2.297l-3.5-10.14H3.828L.328 0Zm1.297-3.984 1.25-3.844h.078L6.5-3.984Zm0 0"/></symbol><symbol overflow="visible" id="I"><path style="stroke:none" d="M2.719-10.14H.329L3.828 0h2.765l3.5-10.14H7.719L5.266-2.438h-.094Zm0 0"/></symbol><symbol overflow="visible" id="J"><path style="stroke:none" d="M4.313.156c1.875 0 3.14-.922 3.437-2.328l-1.938-.14c-.218.578-.765.89-1.468.89-1.063 0-1.719-.703-1.719-1.844h5.172v-.578c0-2.578-1.563-3.86-3.578-3.86C1.984-7.703.53-6.108.53-3.765.531-1.359 1.97.156 4.312.156ZM2.625-4.578c.047-.86.703-1.547 1.64-1.547.907 0 1.548.64 1.548 1.547Zm0 0"/></symbol><symbol overflow="visible" id="K"><path style="stroke:none" d="M.844 0h2.11v-4.297c0-.937.687-1.594 1.608-1.594.297 0 .704.063.891.125V-7.64a3.017 3.017 0 0 0-.656-.078c-.86 0-1.547.5-1.828 1.438H2.89V-7.61H.844Zm0 0"/></symbol><symbol overflow="visible" id="L"><path style="stroke:none" d="M2.14 2.86c1.579 0 2.407-.813 2.844-2.032l2.954-8.437H5.703L4.11-2.016h-.078L2.453-7.609H.234L2.97.219l-.125.328c-.281.703-.813.734-1.547.515L.813 2.641c.312.125.796.218 1.328.218Zm0 0"/></symbol><symbol overflow="visible" id="M"><path style="stroke:none" d="M.875 0h6.5v-1.766H3.031v-8.375H.875Zm0 0"/></symbol><symbol overflow="visible" id="N"><path style="stroke:none" d="M4.281.156c2.313 0 3.75-1.593 3.75-3.937s-1.437-3.922-3.75-3.922c-2.312 0-3.75 1.578-3.75 3.922C.531-1.437 1.97.156 4.281.156Zm.016-1.64c-1.078 0-1.625-.985-1.625-2.313 0-1.312.547-2.297 1.625-2.297 1.031 0 1.578.985 1.578 2.297 0 1.328-.547 2.313-1.578 2.313Zm0 0"/></symbol><symbol overflow="visible" id="O"><path style="stroke:none" d="M2.953-4.39c0-.985.594-1.563 1.438-1.563.843 0 1.359.547 1.359 1.484V0h2.11v-4.844c0-1.781-1.048-2.86-2.626-2.86-1.14 0-1.953.548-2.296 1.438h-.079v-1.343H.844V0h2.11Zm0 0"/></symbol><symbol overflow="visible" id="P"><path style="stroke:none" d="M4.266 3.016c2.171 0 3.718-1 3.718-2.938v-7.687H5.891v1.28h-.079c-.28-.624-.906-1.374-2.171-1.374-1.672 0-3.079 1.297-3.079 3.89 0 2.532 1.375 3.704 3.079 3.704 1.218 0 1.89-.61 2.171-1.235h.094v1.39c0 1.048-.672 1.454-1.593 1.454-.922 0-1.391-.406-1.563-.875L.797.891c.25 1.203 1.422 2.125 3.469 2.125Zm.046-4.704c-1.03 0-1.593-.828-1.593-2.14 0-1.297.547-2.203 1.594-2.203 1.03 0 1.593.875 1.593 2.203 0 1.344-.578 2.14-1.593 2.14Zm0 0"/></symbol><symbol overflow="visible" id="Q"><path style="stroke:none" d="M3.016.14c1.125 0 1.843-.484 2.218-1.203h.063V0h2v-5.125c0-1.813-1.531-2.578-3.234-2.578-1.813 0-3.016.875-3.313 2.25l1.953.156c.14-.5.594-.875 1.36-.875.718 0 1.125.36 1.125.984v.032c0 .5-.516.562-1.844.687-1.5.14-2.86.64-2.86 2.344 0 1.5 1.079 2.266 2.532 2.266Zm.593-1.453c-.64 0-1.109-.296-1.109-.875 0-.593.484-.89 1.234-1 .47-.062 1.22-.171 1.47-.343v.812c0 .797-.657 1.406-1.595 1.406Zm0 0"/></symbol><symbol overflow="visible" id="R"><path style="stroke:none" d="M3.64.125c1.235 0 1.876-.703 2.172-1.344h.079V0h2.078v-10.14H5.875v3.812h-.063c-.296-.625-.906-1.375-2.171-1.375-1.672 0-3.079 1.297-3.079 3.906C.563-1.25 1.907.125 3.642.125Zm.672-1.688c-1.03 0-1.593-.921-1.593-2.234 0-1.328.547-2.234 1.594-2.234 1.03 0 1.593.875 1.593 2.234 0 1.344-.578 2.235-1.593 2.235Zm0 0"/></symbol><symbol overflow="visible" id="S"><path style="stroke:none" d="M3.031-10.14H.875V0h2.156Zm0 0"/></symbol><symbol overflow="visible" id="T"><path style="stroke:none" d="M.844 0h2.11v-4.563c0-.843.53-1.406 1.233-1.406.704 0 1.157.469 1.157 1.219V0H7.39v-4.64c0-.798.453-1.329 1.218-1.329.672 0 1.188.422 1.188 1.266V0h2.094v-5.11c0-1.656-.97-2.593-2.391-2.593-1.11 0-1.984.562-2.297 1.437h-.078c-.234-.875-1.016-1.437-2.063-1.437-1.03 0-1.796.547-2.125 1.437H2.86v-1.343H.844Zm0 0"/></symbol><symbol overflow="visible" id="U"><path style="stroke:none" d="M.844 2.86h2.11V-1.22h.062c.296.64.937 1.344 2.156 1.344 1.734 0 3.094-1.375 3.094-3.922 0-2.61-1.422-3.906-3.079-3.906-1.28 0-1.89.75-2.171 1.375h-.094V-7.61H.844Zm2.062-6.657c0-1.36.578-2.234 1.594-2.234 1.047 0 1.61.906 1.61 2.234 0 1.313-.563 2.235-1.61 2.235-1.016 0-1.594-.891-1.594-2.235Zm0 0"/></symbol><symbol overflow="visible" id="V"><path style="stroke:none" d="M7.172-5.438c-.188-1.406-1.313-2.265-3.234-2.265-1.954 0-3.235.89-3.235 2.36 0 1.14.719 1.874 2.203 2.171l1.313.266c.672.14.968.375.984.765-.016.454-.5.766-1.234.766-.766 0-1.266-.313-1.39-.938L.5-2.203C.703-.75 1.938.157 3.953.157c1.969 0 3.39-1.016 3.39-2.516 0-1.094-.718-1.75-2.202-2.063l-1.375-.281c-.704-.14-.97-.39-.97-.75 0-.453.517-.766 1.173-.766.734 0 1.172.407 1.265.907Zm0 0"/></symbol><symbol overflow="visible" id="W"><path style="stroke:none" d="M.844 0h2.11v-7.61H.843Zm1.062-8.594c.625 0 1.14-.469 1.14-1.062 0-.594-.515-1.063-1.14-1.063-.625 0-1.14.469-1.14 1.063s.515 1.062 1.14 1.062Zm0 0"/></symbol><symbol overflow="visible" id="X"><path style="stroke:none" d="M7.938-7.61H5.703L4.125-2.171h-.078L2.469-7.609H.234L2.891 0h2.39Zm0 0"/></symbol><symbol overflow="visible" id="Y"><path style="stroke:none" d="M.5-8.375h3.094V0h2.125v-8.375h3.11v-1.766H.5Zm0 0"/></symbol><symbol overflow="visible" id="Z"><path style="stroke:none" d="M2.953-4.39c0-.985.61-1.563 1.469-1.563.86 0 1.36.547 1.36 1.484V0H7.89v-4.844c0-1.781-1.047-2.86-2.641-2.86-1.156 0-1.922.548-2.266 1.438h-.093v-3.875H.844V0h2.11Zm0 0"/></symbol><symbol overflow="visible" id="aa"><path style="stroke:none" d="M4.89-7.61H3.454v-1.827h-2.11v1.828H.314v1.593h1.03v3.954c0 1.5 1.016 2.234 2.548 2.171.53-.03.921-.14 1.14-.203l-.328-1.578c-.11.031-.328.078-.531.078-.422 0-.719-.156-.719-.75v-3.672h1.438Zm0 0"/></symbol><symbol overflow="visible" id="ab"><path style="stroke:none" d="M2.953-10.14H.843V0h2.11Zm0 0"/></symbol><symbol overflow="visible" id="ac"><path style="stroke:none" d="M2.344 0h2.234l1.297-4.781h.094L7.28 0h2.235l2.062-7.61H9.453L8.297-2.53h-.063L6.984-7.61H4.891L3.656-2.5h-.062L2.406-7.61H.266Zm0 0"/></symbol><symbol overflow="visible" id="ad"><path style="stroke:none" d="M.875 0h2.156v-4.188h4.125v-1.765H3.031v-2.422h4.563v-1.766H.875Zm0 0"/></symbol><symbol overflow="visible" id="ae"><path style="stroke:none" d="M4.281.156c2.032 0 3.297-1.203 3.39-2.937H5.688c-.125.812-.656 1.265-1.39 1.265-.984 0-1.625-.828-1.625-2.28 0-1.438.656-2.267 1.625-2.267.781 0 1.281.516 1.39 1.266h1.985c-.078-1.75-1.422-2.906-3.406-2.906C1.969-7.703.53-6.11.53-3.781.531-1.47 1.937.156 4.281.156Zm0 0"/></symbol><symbol overflow="visible" id="af"><path style="stroke:none" d="M.875 0h4.344C7.5 0 8.703-1.188 8.703-2.797c0-1.5-1.078-2.406-2.219-2.469v-.093c1.047-.25 1.829-.985 1.829-2.188 0-1.516-1.126-2.594-3.376-2.594H.875Zm2.156-1.75v-2.703h1.797c1.031 0 1.672.594 1.672 1.437 0 .766-.531 1.266-1.719 1.266Zm0-4.156v-2.5h1.625c.953 0 1.485.484 1.485 1.219 0 .796-.641 1.28-1.532 1.28Zm0 0"/></symbol><symbol overflow="visible" id="ag"><path style="stroke:none" d="M.844 0h2.11v-2.422l.562-.64L5.594 0h2.468L5.11-4.313l2.813-3.296H5.5L3.062-4.72h-.109v-5.422H.843Zm0 0"/></symbol><symbol overflow="visible" id="ah"><path style="stroke:none" d="M4.36 0c3.093 0 4.827-1.922 4.827-5.094 0-3.14-1.734-5.047-4.687-5.047H1.234V0ZM2.452-1.094v-7.953h1.969C6.797-9.047 8-7.547 8-5.094c0 2.485-1.203 4-3.719 4Zm0 0"/></symbol><symbol overflow="visible" id="ai"><path style="stroke:none" d="M4.156.156C6.22.156 7.61-1.406 7.61-3.766c0-2.375-1.39-3.937-3.453-3.937C2.094-7.703.72-6.141.72-3.766c0 2.36 1.375 3.922 3.437 3.922Zm0-1.047c-1.562 0-2.281-1.343-2.281-2.875 0-1.53.719-2.89 2.281-2.89 1.563 0 2.282 1.36 2.282 2.89 0 1.532-.72 2.875-2.282 2.875Zm0 0"/></symbol><symbol overflow="visible" id="aj"><path style="stroke:none" d="M4.156.156c1.688 0 2.797-1.031 3-2.375H5.984C5.766-1.39 5.078-.89 4.156-.89c-1.375 0-2.281-1.156-2.281-2.906 0-1.734.922-2.86 2.281-2.86 1.032 0 1.657.641 1.828 1.329h1.172C6.953-6.75 5.75-7.703 4.141-7.703 2.078-7.703.719-6.078.719-3.766.719-1.484 2.016.156 4.156.156Zm0 0"/></symbol><symbol overflow="visible" id="ak"><path style="stroke:none" d="M4.375-7.61H2.75v-1.827H1.578v1.828H.438v.984h1.14v4.766C1.578-.531 2.656.094 3.641.094c.437 0 .718-.078.875-.14L4.28-1.095a1.729 1.729 0 0 1-.515.063c-.516 0-1.016-.157-1.016-1.14v-4.454h1.625Zm0 0"/></symbol><symbol overflow="visible" id="al"><path style="stroke:none" d="M1.063 0h1.171v-4.813c0-1.03.813-1.78 1.922-1.78.313 0 .64.062.719.077v-1.187a7.206 7.206 0 0 0-.61-.031c-.921 0-1.702.515-1.984 1.28h-.078v-1.155h-1.14Zm0 0"/></symbol><symbol overflow="visible" id="am"><path style="stroke:none" d="M3.313.172c1.328 0 2.015-.703 2.25-1.203h.062V0h1.172v-5.016c0-2.421-1.844-2.687-2.813-2.687-1.156 0-2.453.39-3.046 1.781l1.109.39c.25-.546.86-1.14 1.969-1.14 1.078 0 1.609.563 1.609 1.547v.031c0 .563-.578.516-1.953.703C2.25-4.219.719-3.906.719-2.156.719-.672 1.859.172 3.313.172Zm.171-1.047c-.921 0-1.609-.406-1.609-1.219 0-.89.813-1.172 1.734-1.297.485-.062 1.813-.203 2.016-.437v1.078c0 .953-.75 1.875-2.14 1.875Zm0 0"/></symbol><symbol overflow="visible" id="an"><path style="stroke:none" d="M4.266.156c1.546 0 2.671-.765 3.03-1.922l-1.14-.312c-.297.797-.984 1.187-1.89 1.187-1.375 0-2.329-.89-2.375-2.515h5.515v-.5c0-2.828-1.687-3.797-3.265-3.797C2.078-7.703.719-6.078.719-3.75.719-1.406 2.063.156 4.266.156ZM1.89-4.422c.078-1.187.906-2.234 2.25-2.234 1.265 0 2.078.953 2.078 2.234Zm0 0"/></symbol><symbol overflow="visible" id="ao"><path style="stroke:none" d="M1.063 0h1.171v-7.61H1.063Zm.609-8.875c.453 0 .828-.36.828-.797 0-.437-.375-.797-.828-.797-.469 0-.844.36-.844.797 0 .438.375.797.844.797Zm0 0"/></symbol><symbol overflow="visible" id="ap"><path style="stroke:none" d="M2.234-4.578c0-1.328.829-2.078 1.954-2.078 1.078 0 1.734.703 1.734 1.906V0h1.172v-4.828c0-1.953-1.032-2.875-2.578-2.875-1.141 0-1.86.516-2.22 1.281h-.093v-1.187h-1.14V0h1.171Zm0 0"/></symbol><symbol overflow="visible" id="ar"><path style="stroke:none" d="M1.234 0h1.22v-3.703h2.218c2.36 0 3.437-1.438 3.437-3.235 0-1.796-1.078-3.203-3.453-3.203H1.234Zm1.22-4.797v-4.25h2.155c1.657 0 2.282.89 2.282 2.11 0 1.218-.625 2.14-2.25 2.14Zm0 0"/></symbol><symbol overflow="visible" id="as"><path style="stroke:none" d="M2.234-4.578c0-1.328.844-2.078 2-2.078C5.344-6.656 6-5.97 6-4.75V0h1.172v-4.828c0-1.969-1.047-2.875-2.594-2.875-1.203 0-1.89.5-2.234 1.281h-.11v-3.719H1.063V0h1.171Zm0 0"/></symbol><symbol overflow="visible" id="at"><path style="stroke:none" d="M4.14 3.016c1.829 0 3.298-.844 3.298-2.797V-7.61H6.296v1.203h-.11c-.265-.39-.734-1.297-2.218-1.297-1.922 0-3.25 1.516-3.25 3.86 0 2.374 1.375 3.718 3.219 3.718 1.484 0 1.968-.86 2.218-1.281h.11V.14c0 1.265-.891 1.843-2.125 1.843-1.375 0-1.86-.734-2.172-1.156l-.938.656c.469.797 1.407 1.532 3.11 1.532Zm-.046-4.188c-1.453 0-2.219-1.11-2.219-2.687 0-1.547.734-2.797 2.219-2.797 1.437 0 2.187 1.14 2.187 2.797 0 1.687-.765 2.687-2.187 2.687Zm0 0"/></symbol><symbol overflow="visible" id="au"><path style="stroke:none" d="M1.063 0h1.171v-4.75c0-1.125.813-1.906 1.735-1.906.875 0 1.5.578 1.5 1.453V0h1.187v-4.953c0-.984.61-1.703 1.688-1.703.828 0 1.547.437 1.547 1.562V0h1.171v-5.094c0-1.781-.968-2.61-2.328-2.61-1.093 0-1.89.5-2.28 1.282h-.079C6-7.234 5.344-7.703 4.344-7.703c-1 0-1.735.469-2.047 1.281h-.094v-1.187h-1.14Zm0 0"/></symbol><symbol overflow="visible" id="av"><path style="stroke:none" d="M9.266-10.14H8.062v7.984H7.97l-5.547-7.985H1.234V0h1.22v-7.969h.108L8.079 0h1.188Zm0 0"/></symbol><symbol overflow="visible" id="aq"><path style="stroke:none" d="M4.594 2.953 1.75-3.5l2.844-6.453H3.89L.734-3.5l3.157 6.453Zm0 0"/></symbol><symbol overflow="visible" id="aw"><path style="stroke:none" d="M4.594-3.5 1.437-9.953H.735L3.594-3.5.734 2.953h.704Zm0 0"/></symbol><symbol overflow="visible" id="ax"><path style="stroke:none" d="M4.234-8.703v6.062c0 .844-.375 1.282-1.046 1.282-.641 0-1.063-.391-1.079-1.094H.281C.266-.703 1.516.125 3.094.125c1.765 0 2.969-1.078 2.969-2.766v-6.062Zm0 0"/></symbol><symbol overflow="visible" id="ay"><path style="stroke:none" d="M3.672.125c1.984 0 3.219-1.36 3.219-3.36 0-2.03-1.235-3.374-3.22-3.374C1.689-6.61.454-5.266.454-3.234c0 2 1.234 3.359 3.219 3.359Zm.015-1.406c-.921 0-1.39-.828-1.39-1.969 0-1.14.469-1.984 1.39-1.984.891 0 1.36.843 1.36 1.984 0 1.14-.469 1.969-1.36 1.969Zm0 0"/></symbol><symbol overflow="visible" id="az"><path style="stroke:none" d="M2.531-3.781c0-.828.516-1.328 1.266-1.328.734 0 1.156.468 1.156 1.28V0h1.813v-4.156c0-1.532-.891-2.453-2.25-2.453-1 0-1.657.468-1.954 1.234h-.078v-3.328H.72V0H2.53Zm0 0"/></symbol><symbol overflow="visible" id="aA"><path style="stroke:none" d="M2.531-3.781c0-.828.5-1.328 1.235-1.328.734 0 1.171.484 1.171 1.28V0h1.797v-4.156c0-1.516-.89-2.453-2.25-2.453-.968 0-1.671.468-1.953 1.234h-.078v-1.156H.72V0H2.53Zm0 0"/></symbol><symbol overflow="visible" id="aB"><path style="stroke:none" d="M2.328-8.703H.281L3.297 0h2.36l3-8.703H6.624l-2.11 6.61h-.077Zm0 0"/></symbol><symbol overflow="visible" id="aC"><path style="stroke:none" d="M3.703.125c1.61 0 2.703-.781 2.953-2l-1.672-.11c-.187.5-.656.766-1.25.766-.906 0-1.484-.61-1.484-1.578h4.438v-.5c0-2.219-1.344-3.312-3.063-3.312C1.703-6.61.453-5.25.453-3.234c0 2.062 1.234 3.359 3.25 3.359ZM2.25-3.922c.031-.75.61-1.344 1.406-1.344.781 0 1.328.563 1.328 1.344Zm0 0"/></symbol><symbol overflow="visible" id="aD"><path style="stroke:none" d="M.719 0H2.53v-3.688c0-.812.594-1.359 1.39-1.359.25 0 .595.047.767.094v-1.61a3.447 3.447 0 0 0-.579-.062c-.718 0-1.328.422-1.562 1.234h-.063v-1.14H.72Zm0 0"/></symbol><symbol overflow="visible" id="aE"><path style="stroke:none" d="M1.844 2.453c1.343 0 2.062-.687 2.422-1.75L6.812-6.53H4.891L3.53-1.734h-.078L2.11-6.531H.203L2.547.187l-.11.282c-.234.61-.687.64-1.328.437l-.406 1.36c.25.109.672.187 1.14.187Zm0 0"/></symbol><symbol overflow="visible" id="aF"><path style="stroke:none" d="M.75 0h5.578v-1.516H2.594v-7.187H.75Zm0 0"/></symbol><symbol overflow="visible" id="aG"><path style="stroke:none" d="M3.656 2.578c1.875 0 3.203-.844 3.203-2.515v-6.594H5.063v1.093h-.079c-.234-.53-.765-1.171-1.859-1.171C1.687-6.61.485-5.5.485-3.281c0 2.172 1.171 3.187 2.64 3.187 1.047 0 1.625-.515 1.86-1.062h.077V.03c0 .906-.562 1.25-1.359 1.25-.797 0-1.203-.343-1.344-.734L.688.766c.203 1.03 1.218 1.812 2.968 1.812Zm.047-4.031c-.89 0-1.375-.703-1.375-1.828 0-1.11.485-1.89 1.375-1.89.875 0 1.375.75 1.375 1.89s-.5 1.828-1.375 1.828Zm0 0"/></symbol><symbol overflow="visible" id="aH"><path style="stroke:none" d="M2.578.125c.969 0 1.594-.422 1.922-1.031h.047V0h1.719v-4.406c0-1.547-1.329-2.203-2.782-2.203-1.562 0-2.593.75-2.843 1.937l1.687.14c.11-.437.5-.765 1.156-.765.61 0 .97.313.97.844v.031c0 .422-.454.484-1.579.594-1.297.11-2.453.547-2.453 2 0 1.297.922 1.953 2.156 1.953Zm.531-1.25c-.562 0-.968-.266-.968-.75 0-.516.421-.766 1.062-.86.39-.046 1.047-.14 1.266-.296v.703c0 .672-.578 1.203-1.36 1.203Zm0 0"/></symbol><symbol overflow="visible" id="aI"><path style="stroke:none" d="M.719 0H2.53v-3.922c0-.719.453-1.203 1.063-1.203.594 0 1 .406 1 1.047V0h1.75v-3.984c0-.672.39-1.141 1.047-1.141.578 0 1.015.36 1.015 1.094V0h1.797v-4.39c0-1.423-.844-2.22-2.047-2.22-.953 0-1.703.485-1.969 1.235H6.11c-.203-.766-.875-1.234-1.765-1.234-.875 0-1.547.468-1.813 1.234h-.078v-1.156H.72Zm0 0"/></symbol><symbol overflow="visible" id="aJ"><path style="stroke:none" d="M3.844 0c2.656 0 4.25-1.64 4.25-4.36 0-2.718-1.594-4.343-4.219-4.343H.75V0Zm-1.25-1.578v-5.547h1.172c1.64 0 2.5.828 2.5 2.766 0 1.937-.86 2.78-2.5 2.78Zm0 0"/></symbol><symbol overflow="visible" id="aL"><path style="stroke:none" d="M4.188-6.531h-1.22v-1.563H1.157v1.563h-.89v1.36h.89v3.405C1.141-.484 2.016.141 3.328.094c.469-.016.797-.11.985-.172L4.03-1.422c-.093.016-.281.047-.453.047-.36 0-.61-.125-.61-.625v-3.172h1.22Zm0 0"/></symbol><symbol overflow="visible" id="aN"><path style="stroke:none" d="M2.688-1.188h-1.5l-.016.47C1.125.436.797 1.624.672 2.124h1.172c.203-.516.687-1.719.797-2.844Zm0 0"/></symbol><symbol overflow="visible" id="aK"><path style="stroke:none" d="M3.938 2.531 1.5-3l2.438-5.516h-.61L.641-3l2.687 5.531Zm0 0"/></symbol><symbol overflow="visible" id="aM"><path style="stroke:none" d="M3.938-3 1.233-8.516H.641L3.078-3 .641 2.531h.593Zm0 0"/></symbol><clipPath id="a"><path d="M405 57h3.617v17H405Zm0 0"/></clipPath><clipPath id="b"><path d="M399 87h9.617v13H399Zm0 0"/></clipPath><clipPath id="c"><path d="M217 114h4v3.938h-4Zm0 0"/></clipPath><clipPath id="d"><path d="M221 114h3v3.938h-3Zm0 0"/></clipPath><clipPath id="e"><path d="M225 114h2v3.938h-2Zm0 0"/></clipPath><clipPath id="f"><path d="M228 114h5v3.938h-5Zm0 0"/></clipPath><clipPath id="g"><path d="M193.191 86H197v5h-3.809Zm0 0"/></clipPath><clipPath id="h"><path d="M193.191 90H198v4h-4.809Zm0 0"/></clipPath><clipPath id="i"><path d="M224 56.895h5V61h-5Zm0 0"/></clipPath><clipPath id="j"><path d="M272 112h4v5.938h-4Zm0 0"/></clipPath><clipPath id="k"><path d="M278 112h5v5.938h-5Zm0 0"/></clipPath><clipPath id="l"><path d="M285 112h1v5.938h-1Zm0 0"/></clipPath><clipPath id="m"><path d="M287 112h5v5.938h-5Zm0 0"/></clipPath><clipPath id="n"><path d="M293 112h4v5.938h-4Zm0 0"/></clipPath><clipPath id="o"><path d="M298 112h4v5.938h-4Zm0 0"/></clipPath><clipPath id="p"><path d="M302 112h5v5.938h-5Zm0 0"/></clipPath><clipPath id="q"><path d="M308 112h1v5.938h-1Zm0 0"/></clipPath><clipPath id="r"><path d="M311 112h4v5.938h-4Zm0 0"/></clipPath><clipPath id="s"><path d="M316 112h6v5.938h-6Zm0 0"/></clipPath><clipPath id="t"><path d="M323 112h4v5.938h-4Zm0 0"/></clipPath><clipPath id="u"><path d="M328 112h4v5.938h-4Zm0 0"/></clipPath><clipPath id="v"><path d="M337 112h6v5.938h-6Zm0 0"/></clipPath><clipPath id="w"><path d="M344 112h6v5.938h-6Zm0 0"/></clipPath><clipPath id="x"><path d="M351 112h5v5.938h-5Zm0 0"/></clipPath><clipPath id="y"><path d="M356 112h5v5.938h-5Zm0 0"/></clipPath><clipPath id="z"><path d="M365 112h5v5.938h-5Zm0 0"/></clipPath><clipPath id="A"><path d="M371 112h4v5.938h-4Zm0 0"/></clipPath><clipPath id="B"><path d="M380 112h3v5.938h-3Zm0 0"/></clipPath><clipPath id="C"><path d="M384 112h1v5.938h-1Zm0 0"/></clipPath><clipPath id="D"><path d="M386 112h4v5.938h-4Zm0 0"/></clipPath><clipPath id="E"><path d="M392 112h4v5.938h-4Zm0 0"/></clipPath><clipPath id="F"><path d="M397 112h6v5.938h-6Zm0 0"/></clipPath><clipPath id="G"><path d="M404 112h4.617v5.938H404Zm0 0"/></clipPath></defs><path style="stroke:none;fill-rule:nonzero;fill:#0099d3;fill-opacity:1" d="M272.246 57.008V73.52h7.738v-1.723h-5.683v-5.945h5.094v-1.72H274.3V58.73h5.683v-1.722ZM289.16 70.102c0 1.304-.36 2.226-1.074 2.77-.715.542-1.68.812-2.89.812-.676 0-1.25-.043-1.72-.13a11.366 11.366 0 0 1-1.109-.245v-1.723c.14.031.324.066.555.105a28.033 28.033 0 0 0 1.578.223c.293.035.578.05.863.05.313 0 .578-.05.79-.155.21-.102.386-.235.519-.399.133-.168.23-.355.293-.566.062-.215.094-.422.094-.625 0-.567-.098-.985-.293-1.25-.2-.27-.594-.457-1.192-.567-1.21-.222-2.062-.601-2.558-1.144-.496-.543-.743-1.254-.743-2.137 0-.644.102-1.191.305-1.637.203-.449.485-.816.836-1.097a3.453 3.453 0 0 1 1.25-.625c.48-.133 1.004-.2 1.57-.2.614 0 1.13.051 1.547.153.414.101.742.183.977.246v1.723c-.41-.094-.801-.188-1.18-.282-.375-.097-.887-.144-1.531-.144-.363 0-.656.05-.887.152a1.418 1.418 0 0 0-.531.403 1.318 1.318 0 0 0-.246.554c-.04.207-.059.418-.059.637 0 .867.504 1.375 1.508 1.535 1.227.203 2.09.59 2.586 1.152.492.57.742 1.371.742 2.41M298.027 73.309c-.375.109-.793.199-1.25.27a8.66 8.66 0 0 1-1.32.105c-.676 0-1.273-.075-1.793-.223-.52-.148-.95-.45-1.297-.898-.347-.446-.605-1.083-.777-1.91-.176-.825-.262-1.915-.262-3.266 0-1.055.086-1.95.25-2.688.164-.742.41-1.344.742-1.804a2.863 2.863 0 0 1 1.274-1.016c.52-.211 1.133-.32 1.84-.32.394 0 .84.039 1.332.12.496.079.918.157 1.261.235v1.746a28.67 28.67 0 0 0-1.25-.238 9.689 9.689 0 0 0-1.484-.094c-.348 0-.637.07-.875.215-.234.14-.43.387-.59.742-.156.352-.27.817-.34 1.39-.07.575-.105 1.302-.105 2.184 0 .88.043 1.586.129 2.121.086.536.21.946.379 1.227.164.285.363.473.601.566.235.094.5.141.801.141.644 0 1.176-.039 1.59-.117.418-.078.8-.156 1.144-.234ZM309.043 67.387c0 1.242-.094 2.27-.281 3.078-.188.808-.473 1.453-.848 1.933-.379.48-.848.817-1.406 1.004-.559.188-1.207.282-1.945.282-.723 0-1.364-.094-1.922-.282a2.938 2.938 0 0 1-1.403-1.004c-.379-.48-.668-1.125-.863-1.933-.195-.809-.293-1.836-.293-3.078 0-2.012.36-3.489 1.082-4.422.727-.938 1.86-1.406 3.399-1.406 1.542 0 2.671.468 3.398 1.406.723.933 1.082 2.41 1.082 4.422m-2.05.355c0-.836-.04-1.543-.118-2.125-.078-.582-.207-1.05-.39-1.402-.18-.356-.426-.61-.743-.766-.316-.16-.707-.238-1.18-.238-.472 0-.863.078-1.18.238-.312.156-.562.41-.741.766-.18.351-.313.82-.391 1.402-.078.582-.117 1.29-.117 2.125 0 1.54.18 2.64.543 3.301.363.66.992.992 1.887.992.898 0 1.527-.332 1.886-.992.363-.66.543-1.762.543-3.3M315.344 73.402c-.176.032-.375.07-.602.118-.23.046-.5.07-.816.07-.235 0-.469-.04-.707-.117a1.492 1.492 0 0 1-.637-.426c-.187-.203-.348-.484-.473-.836-.125-.356-.187-.797-.187-1.332V57.008h2.004v13.754c0 .406.05.695.156.86.102.163.309.245.625.245.125 0 .246-.015.363-.047.118-.03.207-.054.274-.07ZM325.32 73.52a2.342 2.342 0 0 1-.922-.211 1.564 1.564 0 0 1-.48-.356 1.782 1.782 0 0 1-.367-.59 2.898 2.898 0 0 1-1.18.98c-.488.227-1.133.34-1.933.34-.426 0-.848-.042-1.274-.128a2.64 2.64 0 0 1-1.133-.52c-.328-.258-.597-.617-.8-1.07-.208-.457-.31-1.047-.31-1.77 0-1.277.372-2.25 1.11-2.925.739-.676 1.77-1.016 3.09-1.016h1.863V64.98c0-.503-.144-.914-.437-1.238-.29-.32-.735-.484-1.332-.484-.676 0-1.266.039-1.77.117-.5.082-1.05.207-1.648.379V62.03c.437-.125.933-.234 1.484-.328a9.716 9.716 0 0 1 1.7-.144c.769 0 1.41.078 1.921.226.512.149.922.387 1.227.707.308.324.527.727.66 1.215.133.488.2 1.07.2 1.746v5.66c0 .235.081.422.238.555.156.133.421.2.8.2v1.652Zm-4.41-1.532c.406 0 .746-.062 1.016-.191.265-.125.476-.277.633-.461.16-.18.27-.363.332-.55.062-.192.093-.34.093-.45v-2.477h-1.98c-.25 0-.5.04-.742.118-.246.078-.461.207-.649.39a1.97 1.97 0 0 0-.46.684c-.118.273-.176.61-.176 1 0 .742.164 1.246.492 1.523.332.274.812.414 1.441.414M339.66 73.52l-3.61-14.766V73.52h-1.91V57.008h3.352l3.633 14.765V57.008h1.91V73.52ZM354.074 73.52a2.342 2.342 0 0 1-.918-.211 1.533 1.533 0 0 1-.484-.356 1.782 1.782 0 0 1-.367-.59 2.898 2.898 0 0 1-1.18.98c-.488.227-1.133.34-1.934.34-.425 0-.847-.042-1.273-.128a2.64 2.64 0 0 1-1.133-.52c-.328-.258-.598-.617-.8-1.07-.204-.457-.31-1.047-.31-1.77 0-1.277.372-2.25 1.11-2.925.738-.676 1.77-1.016 3.09-1.016h1.863V64.98c0-.503-.144-.914-.433-1.238-.293-.32-.739-.484-1.336-.484-.676 0-1.266.039-1.766.117-.504.082-1.055.207-1.652.379V62.03c.437-.125.933-.234 1.484-.328a9.716 9.716 0 0 1 1.7-.144c.769 0 1.41.078 1.921.226.512.149.922.387 1.227.707.308.324.527.727.66 1.215.133.488.203 1.07.203 1.746v5.66c0 .235.078.422.234.555.157.133.426.2.801.2v1.652Zm-4.41-1.532c.41 0 .746-.062 1.016-.191a1.9 1.9 0 0 0 .636-.461c.157-.18.266-.363.329-.55.062-.192.093-.34.093-.45v-2.477h-1.98c-.25 0-.5.04-.742.118-.246.078-.461.207-.649.39a1.97 1.97 0 0 0-.46.684c-.118.273-.177.61-.177 1 0 .742.165 1.246.493 1.523.332.274.812.414 1.441.414M363.531 73.309c-.375.109-.793.199-1.25.27a8.62 8.62 0 0 1-1.32.105c-.676 0-1.274-.075-1.793-.223-.52-.148-.95-.45-1.297-.898-.348-.446-.605-1.083-.777-1.91-.176-.825-.262-1.915-.262-3.266 0-1.055.086-1.95.25-2.688.164-.742.414-1.344.742-1.804a2.863 2.863 0 0 1 1.274-1.016c.52-.211 1.132-.32 1.84-.32.394 0 .835.039 1.332.12.496.079.918.157 1.261.235v1.746a28.67 28.67 0 0 0-1.25-.238 9.689 9.689 0 0 0-1.484-.094c-.348 0-.637.07-.875.215-.235.14-.43.387-.586.742-.16.352-.274.817-.344 1.39-.07.575-.105 1.302-.105 2.184 0 .88.043 1.586.129 2.121.086.536.21.946.379 1.227.164.285.363.473.601.566.234.094.5.141.8.141.645 0 1.177-.039 1.59-.117.419-.078.801-.156 1.145-.234ZM366.059 57.008h2.238v2.125h-2.238Zm.117 4.719h2.004V73.52h-2.004ZM380.02 67.387c0 1.242-.094 2.27-.282 3.078-.191.808-.472 1.453-.847 1.933-.38.48-.848.817-1.407 1.004-.558.188-1.207.282-1.945.282-.723 0-1.363-.094-1.922-.282a2.938 2.938 0 0 1-1.402-1.004c-.38-.48-.668-1.125-.863-1.933-.196-.809-.293-1.836-.293-3.078 0-2.012.359-3.489 1.082-4.422.726-.938 1.859-1.406 3.398-1.406 1.543 0 2.672.468 3.399 1.406.722.933 1.082 2.41 1.082 4.422m-2.051.355c0-.836-.04-1.543-.117-2.125-.079-.582-.207-1.05-.391-1.402-.18-.356-.426-.61-.742-.766-.317-.16-.707-.238-1.18-.238s-.867.078-1.18.238c-.316.156-.562.41-.742.766-.18.351-.312.82-.39 1.402-.079.582-.118 1.29-.118 2.125 0 1.54.18 2.64.543 3.301.364.66.993.992 1.887.992.899 0 1.527-.332 1.887-.992.363-.66.543-1.762.543-3.3M382.898 73.52V61.727h1.653l.164 1.062c.77-.82 1.738-1.23 2.902-1.23.676 0 1.242.086 1.7.25.456.164.82.418 1.093.754.277.34.473.769.594 1.296.117.528.176 1.153.176 1.875v7.786h-2.008V65.5c0-.738-.121-1.297-.363-1.676-.247-.375-.758-.566-1.547-.566-.328 0-.64.062-.93.191a2.47 2.47 0 0 0-.754.492 2.497 2.497 0 0 0-.496.649c-.117.23-.18.453-.18.676v8.254ZM401.98 73.52c-.109 0-.246-.016-.41-.047a2.255 2.255 0 0 1-.507-.164 1.578 1.578 0 0 1-.485-.356 1.84 1.84 0 0 1-.363-.59 2.95 2.95 0 0 1-1.18.98c-.488.227-1.133.34-1.937.34-.422 0-.848-.042-1.274-.128a2.626 2.626 0 0 1-1.129-.52c-.332-.258-.601-.617-.804-1.07-.204-.457-.305-1.047-.305-1.77 0-1.277.367-2.25 1.11-2.925.738-.676 1.769-1.016 3.09-1.016h1.862V64.98c0-.503-.148-.914-.437-1.238-.293-.32-.734-.484-1.332-.484-.676 0-1.266.039-1.77.117-.504.082-1.054.207-1.652.379V62.03c.441-.125.938-.234 1.488-.328a9.64 9.64 0 0 1 1.696-.144c.77 0 1.41.078 1.921.226.512.149.922.387 1.227.707.309.324.527.727.664 1.215.133.488.2 1.07.2 1.746v5.66c0 .235.077.422.234.555.156.133.425.2.804.2v1.652Zm-4.41-1.532c.41 0 .746-.062 1.016-.191.266-.125.48-.277.637-.461.156-.18.265-.363.328-.55.062-.192.097-.34.097-.45v-2.477h-1.984c-.25 0-.496.04-.742.118a1.66 1.66 0 0 0-.649.39c-.187.18-.34.406-.46.684-.118.273-.176.61-.176 1 0 .742.164 1.246.496 1.523.332.274.808.414 1.437.414"/><g clip-path="url(#a)"><path style="stroke:none;fill-rule:nonzero;fill:#0099d3;fill-opacity:1" d="M408.516 73.402c-.172.032-.375.07-.602.118-.226.046-.5.07-.812.07a2.26 2.26 0 0 1-.711-.117 1.515 1.515 0 0 1-.637-.426c-.188-.203-.344-.484-.469-.836-.129-.356-.191-.797-.191-1.332V57.008h2.008v13.754c0 .406.05.695.152.86.101.163.308.245.625.245.125 0 .246-.015.367-.047l.27-.07Zm0 0"/></g><path style="stroke:none;fill-rule:nonzero;fill:#0099d3;fill-opacity:1" d="m276.148 92.945-.101-.601c-.219.219-.469.39-.742.515a2.318 2.318 0 0 1-.961.188c-.457 0-.836-.074-1.13-.215a1.767 1.767 0 0 1-.714-.629c-.184-.277-.309-.629-.383-1.055a9.035 9.035 0 0 1-.105-1.464c0-1.414.246-2.43.738-3.059.488-.621 1.285-.934 2.383-.934.16 0 .308.004.441.012.137.012.254.024.36.043v-2.82h1.214v10.02Zm-1.574-.93c.219 0 .414-.038.586-.117.172-.074.317-.171.43-.296.113-.125.2-.258.258-.403a1.13 1.13 0 0 0 .086-.402v-4.02a2.98 2.98 0 0 0-.387-.043 7.612 7.612 0 0 0-.559-.015c-.343 0-.625.07-.843.207a1.54 1.54 0 0 0-.532.601c-.133.262-.226.59-.277.973a9.587 9.587 0 0 0-.078 1.324c0 .43.023.785.078 1.067.05.28.129.507.234.671a.847.847 0 0 0 .41.352 1.6 1.6 0 0 0 .594.102M280.082 89.797c.012.469.047.848.11 1.137.062.293.144.52.25.68.105.163.226.269.37.323.145.051.305.079.489.079.398 0 .765-.028 1.094-.079.328-.054.601-.105.824-.152v1.031c-.23.067-.52.121-.867.164a7.606 7.606 0 0 1-.91.067c-.41 0-.774-.043-1.094-.129a1.574 1.574 0 0 1-.809-.516c-.219-.257-.387-.629-.5-1.109-.117-.48-.172-1.125-.172-1.926 0-.66.055-1.219.164-1.687.11-.47.274-.852.492-1.145.22-.297.493-.512.817-.644.324-.133.703-.2 1.133-.2.82 0 1.406.266 1.765.805.36.54.535 1.281.535 2.227v1.074Zm1.36-3.09a1.56 1.56 0 0 0-.587.098.874.874 0 0 0-.402.343 2.057 2.057 0 0 0-.242.653 7.015 7.015 0 0 0-.113 1.023h2.488v-.386c0-.543-.082-.97-.25-1.274-.168-.305-.465-.457-.895-.457M297.777 94.95c0 .976-.113 1.777-.332 2.405-.218.63-.535 1.125-.941 1.485-.41.363-.902.613-1.477.758a8.09 8.09 0 0 1-1.922.21c-.378 0-.824-.03-1.343-.093a9.563 9.563 0 0 1-1.395-.262V97.73c.363.098.79.18 1.278.25.484.07 1.05.106 1.695.106.82 0 1.414-.234 1.781-.707.371-.473.555-1.203.555-2.195 0-.563-.04-1.04-.117-1.426-.079-.383-.196-.7-.356-.942a1.516 1.516 0 0 0-.601-.554 3.007 3.007 0 0 0-.836-.285c-.66-.141-1.22-.32-1.676-.543a3.178 3.178 0 0 1-1.11-.848 3.41 3.41 0 0 1-.625-1.273c-.132-.504-.199-1.102-.199-1.793 0-.852.114-1.563.344-2.137.227-.574.547-1.04.965-1.403.418-.359.91-.62 1.476-.777a6.988 6.988 0 0 1 1.864-.238c.39 0 .82.035 1.285.11.465.07.867.152 1.215.245v1.723c-.41-.094-.868-.176-1.368-.25-.503-.07-.96-.106-1.37-.106-.297 0-.587.047-.86.141a1.99 1.99 0 0 0-.73.45 2.295 2.295 0 0 0-.52.788c-.133.325-.2.723-.2 1.192 0 .472.024.87.071 1.191.047.324.137.586.27.793.132.203.32.363.554.485.235.113.543.214.918.293.567.109 1.078.27 1.535.472.457.203.844.492 1.168.86.32.37.57.847.743 1.43.171.577.261 1.304.261 2.167M308.012 99.645c-.11 0-.246-.016-.414-.047a2.064 2.064 0 0 1-.504-.168 1.52 1.52 0 0 1-.485-.352 1.782 1.782 0 0 1-.367-.59c-.297.426-.691.75-1.18.98-.484.227-1.132.34-1.933.34-.426 0-.848-.042-1.274-.128a2.687 2.687 0 0 1-1.132-.52c-.328-.258-.598-.617-.801-1.074-.203-.453-.309-1.043-.309-1.77 0-1.273.371-2.246 1.11-2.921.738-.68 1.77-1.016 3.09-1.016h1.863v-1.274c0-.503-.145-.918-.434-1.238-.293-.324-.738-.484-1.332-.484-.68 0-1.265.039-1.77.117-.503.078-1.054.203-1.652.379v-1.723c.442-.125.934-.234 1.485-.332a10.11 10.11 0 0 1 1.699-.14c.77 0 1.41.074 1.922.226.511.149.922.383 1.226.707.309.32.528.727.66 1.215.133.484.204 1.07.204 1.746v5.66c0 .235.078.422.234.555.156.133.426.2.8.2v1.652Zm-4.41-1.536c.41 0 .746-.062 1.015-.187a1.9 1.9 0 0 0 .637-.461 1.61 1.61 0 0 0 .328-.555c.063-.187.094-.336.094-.445v-2.48h-1.98c-.25 0-.5.042-.743.12-.246.079-.46.208-.648.387-.188.184-.344.41-.461.684-.117.277-.176.61-.176 1.004 0 .738.164 1.246.492 1.523.332.274.813.41 1.442.41M317.234 99.645l-.164-.97c-.328.364-.715.641-1.156.84-.441.196-.957.294-1.555.294-.66 0-1.207-.086-1.64-.258a2.371 2.371 0 0 1-1.04-.79c-.257-.355-.445-.8-.554-1.335-.11-.535-.164-1.164-.164-1.887v-7.691h2.004v7.925c0 .38.02.711.058.993.04.28.125.527.25.73.125.207.297.36.52.461.219.102.512.152.871.152.332 0 .629-.062.899-.187.265-.125.492-.285.683-.473a2.29 2.29 0 0 0 .445-.625c.114-.226.176-.445.192-.648v-8.328h2.004v11.797Zm-3.703-13.684 2.453-3.184h2.575l-3.118 3.184ZM328.535 99.645l-.168-.993c-.36.364-.77.645-1.222.852-.457.203-.985.305-1.582.305-.754 0-1.375-.118-1.864-.356a2.852 2.852 0 0 1-1.18-1.035c-.3-.457-.507-1.035-.624-1.734a14.79 14.79 0 0 1-.176-2.418c0-2.329.402-4.008 1.215-5.036.808-1.03 2.117-1.546 3.925-1.546.27 0 .512.007.73.023.224.016.419.04.59.07v-4.644h2.005v16.512Zm-2.594-1.536c.36 0 .684-.062.965-.187.285-.125.52-.29.707-.496.188-.203.332-.426.426-.66.094-.235.14-.457.14-.66v-6.63a5.531 5.531 0 0 0-.636-.07c-.25-.015-.559-.023-.918-.023-.566 0-1.031.113-1.395.34-.359.23-.652.558-.87.992-.22.433-.376.969-.462 1.605a16.445 16.445 0 0 0-.128 2.18c0 .707.043 1.297.128 1.758.086.465.22.836.391 1.11.172.277.395.468.672.577.273.11.601.164.98.164M335.023 94.453c.012.774.07 1.399.176 1.875.102.48.238.856.41 1.121.176.27.38.446.614.531.238.086.504.13.804.13.66 0 1.262-.044 1.805-.13.543-.085.992-.168 1.356-.246v1.696a8.916 8.916 0 0 1-1.426.273c-.575.07-1.075.106-1.5.106-.676 0-1.278-.07-1.805-.211a2.622 2.622 0 0 1-1.332-.852c-.363-.422-.637-1.031-.824-1.828-.192-.793-.285-1.852-.285-3.172 0-1.086.09-2.012.273-2.781.18-.774.45-1.403.813-1.89.359-.485.808-.84 1.343-1.06.535-.222 1.157-.331 1.864-.331 1.351 0 2.324.445 2.914 1.332.59.89.882 2.113.882 3.668v1.77Zm2.239-5.094c-.375 0-.7.055-.965.164-.27.11-.488.301-.664.567-.172.27-.305.625-.399 1.074-.093.45-.156 1.012-.187 1.688h4.101v-.641c0-.895-.136-1.594-.41-2.098-.277-.504-.77-.754-1.476-.754M355.91 88.086c0 .894-.082 1.68-.25 2.348-.164.668-.426 1.222-.789 1.66-.36.441-.832.773-1.414.992-.582.219-1.289.332-2.121.332h-1.984v6.227H347.3V83.133l1.25-.098a22.61 22.61 0 0 1 1.285-.058c.48-.008.965-.012 1.45-.012.898 0 1.644.133 2.241.39.598.258 1.075.622 1.426 1.086.356.465.602 1.008.746 1.625.14.625.211 1.297.211 2.02m-2.098.164c0-1.18-.164-2.07-.484-2.676-.324-.605-.91-.91-1.758-.91-.66 0-1.195.023-1.605.07-.235.032-.442.059-.613.07v6.891h2.218c.328 0 .633-.058.907-.18.277-.117.511-.308.707-.574.199-.27.351-.625.46-1.062.11-.442.168-.984.168-1.629M364.309 99.645l-.164-.97c-.332.364-.72.641-1.157.84-.441.196-.96.294-1.558.294-.66 0-1.207-.086-1.637-.258a2.35 2.35 0 0 1-1.04-.79c-.26-.355-.444-.8-.554-1.335-.11-.535-.164-1.164-.164-1.887v-7.691h2.004v7.925c0 .38.02.711.059.993.039.28.12.527.246.73.129.207.3.36.52.461.222.102.511.152.874.152.328 0 .63-.062.895-.187a2.364 2.364 0 0 0 1.133-1.098c.109-.226.171-.445.187-.648v-8.328h2.008v11.797Zm-3.704-13.684 2.454-3.184h2.57l-3.113 3.184ZM377.492 92.992c0 1.29-.086 2.371-.258 3.242-.171.875-.457 1.575-.847 2.102-.395.527-.91.902-1.547 1.129-.637.23-1.426.344-2.371.344-.422 0-.793-.008-1.106-.024-.316-.015-.605-.039-.863-.07a27.455 27.455 0 0 1-.707-.094l-.648-.094V83.133h2.003v5.59a3.708 3.708 0 0 1 2.618-1.04c1.386 0 2.351.446 2.902 1.333.55.89.824 2.214.824 3.976m-4.101-3.61a2.18 2.18 0 0 0-.91.188 2.305 2.305 0 0 0-.708.496 2.537 2.537 0 0 0-.46.649c-.11.23-.165.453-.165.672v6.629c.172.03.387.054.637.07.25.016.559.023.922.023.566 0 1.023-.101 1.379-.304a2.07 2.07 0 0 0 .824-.922c.195-.406.336-.914.414-1.52.078-.605.117-1.32.117-2.136 0-.754-.035-1.375-.105-1.864-.07-.484-.191-.879-.356-1.18-.164-.296-.375-.507-.636-.624-.258-.118-.578-.176-.953-.176M383.746 99.527c-.176.032-.375.07-.605.118-.227.046-.496.07-.813.07-.234 0-.473-.04-.707-.117a1.566 1.566 0 0 1-.637-.426c-.187-.203-.343-.484-.472-.836-.125-.356-.188-.8-.188-1.336V83.133h2.004v13.75c0 .41.05.695.156.863.102.164.309.246.621.246.13 0 .25-.015.368-.047l.273-.07ZM385.867 83.133h2.242v2.12h-2.242Zm.117 4.715h2.008v11.797h-2.008ZM397.52 99.43a9.167 9.167 0 0 1-1.25.273 8.66 8.66 0 0 1-1.32.106c-.677 0-1.274-.075-1.794-.223a2.49 2.49 0 0 1-1.297-.898c-.347-.446-.605-1.086-.777-1.91-.176-.825-.262-1.915-.262-3.266 0-1.055.082-1.95.25-2.692.164-.738.41-1.34.743-1.804.328-.461.753-.801 1.273-1.012.52-.215 1.133-.32 1.84-.32.394 0 .836.039 1.332.117.496.082.918.16 1.262.238v1.746a23.814 23.814 0 0 0-1.25-.238 9.724 9.724 0 0 0-1.485-.094c-.348 0-.637.07-.875.211-.234.14-.43.39-.59.746-.156.352-.27.817-.34 1.39-.07.575-.105 1.302-.105 2.18 0 .883.043 1.59.129 2.125.086.536.21.942.375 1.227.168.281.367.473.601.566.239.094.504.141.805.141.645 0 1.176-.039 1.59-.117.418-.078.8-.156 1.145-.234Zm0 0"/><g clip-path="url(#b)"><path style="stroke:none;fill-rule:nonzero;fill:#0099d3;fill-opacity:1" d="M407.805 99.645a2.304 2.304 0 0 1-.922-.215 1.61 1.61 0 0 1-.485-.352 1.84 1.84 0 0 1-.363-.59c-.297.426-.691.75-1.18.98-.488.227-1.132.34-1.933.34-.426 0-.848-.042-1.274-.128a2.687 2.687 0 0 1-1.132-.52c-.332-.258-.598-.617-.801-1.074-.207-.453-.309-1.043-.309-1.77 0-1.273.371-2.246 1.11-2.921.738-.68 1.77-1.016 3.09-1.016h1.863v-1.274c0-.503-.145-.918-.438-1.238-.289-.324-.734-.484-1.332-.484-.676 0-1.265.039-1.77.117-.5.078-1.054.203-1.652.379v-1.723c.442-.125.938-.234 1.489-.332a10.11 10.11 0 0 1 1.699-.14c.77 0 1.41.074 1.922.226.511.149.922.383 1.226.707.309.32.528.727.66 1.215.133.484.2 1.07.2 1.746v5.66c0 .235.082.422.238.555.156.133.422.2.8.2v1.652Zm-4.41-1.536c.406 0 .746-.062 1.011-.187.27-.125.48-.277.637-.461.16-.18.27-.363.332-.555.063-.187.094-.336.094-.445v-2.48h-1.98c-.255 0-.5.042-.743.12-.246.079-.46.208-.648.387-.192.184-.344.41-.461.684-.117.277-.176.61-.176 1.004 0 .738.164 1.246.492 1.523.332.274.813.41 1.442.41"/></g><path style="stroke:none;fill-rule:nonzero;fill:#0099d3;fill-opacity:1" d="m216.402 113.41.918.278-1.035.457c-.328.148-.926.41-1.234.644a2.556 2.556 0 0 0-.746.922 4.884 4.884 0 0 1-.809-.367s.254-.285.695-.621c.461-.348 1.168-.743 1.555-.942.383-.203.656-.37.656-.37"/><g clip-path="url(#c)"><path style="stroke:none;fill-rule:nonzero;fill:#0099d3;fill-opacity:1" d="m219.75 114.176.656.11s-.601.792-.86 1.105c-.253.308-1.386 1.644-1.386 1.644l-1.09-.195s.953-.621 1.16-.836c.211-.223.797-.817 1.016-1.082.223-.262.504-.746.504-.746"/></g><g clip-path="url(#d)"><path style="stroke:none;fill-rule:nonzero;fill:#0099d3;fill-opacity:1" d="m222.977 114.586.656.008s-.383.722-.473 1.41c-.094.683-.12 1.68-.12 1.68l-1.08-.094s.513-.895.704-1.586c.195-.7.313-1.418.313-1.418"/></g><g clip-path="url(#e)"><path style="stroke:none;fill-rule:nonzero;fill:#0099d3;fill-opacity:1" d="m225.527 114.723.598-.059s-.012.688.207 1.45c.219.753.547 1.515.547 1.515l-.953.11s-.07-.852-.145-1.364c-.074-.512-.254-1.652-.254-1.652"/></g><g clip-path="url(#f)"><path style="stroke:none;fill-rule:nonzero;fill:#0099d3;fill-opacity:1" d="m228.926 114.34.62-.203s.821 1.09 1.169 1.48c.351.39 1.347 1.223 1.347 1.223l-.996.195s-.906-1.097-1.218-1.5l-.922-1.195"/></g><path style="stroke:none;fill-rule:nonzero;fill:#0099d3;fill-opacity:1" d="m231.813 113.645.734-.23s.875.913 1.562 1.358c.684.454 1.543.872 1.543.872l-1.007.332s-1.02-.778-1.485-1.157c-.469-.375-1.347-1.175-1.347-1.175M228.648 111.977c-.207-.098-.304.062-.21.16.097.097.39.484.593.738.153.184.531.813.735 1.152.53-.105 1.05-.23 1.57-.367-.426-.297-1.098-.765-1.344-.914-.363-.223-1.133-.676-1.344-.77m-4.23-.32c-.05.246-.465 2.176-.617 2.883a22.111 22.111 0 0 0 1.512 0c-.07-.574-.32-2.633-.333-2.852-.015-.253-.496-.335-.562-.03m2.277.32c-.16-.278-.437-.211-.437 0 0 .207-.028.707.047 1.203a28.8 28.8 0 0 0 .261 1.293c.657-.051 1.305-.125 1.942-.223-.301-.34-.828-.945-.965-1.137-.191-.277-.688-.86-.848-1.136m7.524.093c-.067-.367-.125-1.082-.254-1.511-.125-.434-.746-1.61-1.031-2.094-.286-.488-.793-1.473-.793-1.473s.297.04.527.074c.234.032.484 0 .484 0l-.011-.39s-.301.02-.524-.031c-.219-.055-.664-.051-1.137-.41-.472-.36-1.062-1.005-1.148-1.633-.082-.637-.164-1.454-.453-2.243-.281-.789-.32-1.144-.66-1.707-.336-.554-.934-1.011-1.485-1.82-.547-.809-.8-1.168-1.074-1.766-.273-.601-.418-1.093-.418-1.093l-.347.101s.144.297.113.446c-.031.148-.336.27-.79.293-.452.019-.82-.254-.85-.473-.032-.223.05-.645.136-.93.082-.281.316-.664.316-.664l-.328-.312s-.254.312-.324.609c-.074.297-.129.484-.18.793-.054.3-.21.828-.695 1.379-.484.543-.887.976-1.125 1.289-.242.32-.484.77-.863 1.183-.38.41-.907.778-.907.778s-.02.347-.191.82c-.168.473-.52 1.317-.934 1.77-.41.449-.8.82-1.148 1.125-.348.308-.781.652-.781.652l.285.219.254-.031s.336-.262.547-.473c.21-.211.652-.629.652-.629s.031.418-.148 1.05c-.176.634-.41 1.274-.965 1.653-.559.379-.969.66-1.223 1.086-.254.418-1.094 1.89-1.094 1.89s-.187.583-.265.919c-.075.34.023.652-.219 1.218a3.679 3.679 0 0 1-.559.883c.473.192.957.375 1.446.543l3.394-1.933s1.106-.692 1.406-.98c.305-.286.743-.962.852-1.24.113-.273.227-.589.227-1.198 0-.614-.227-2.02-.418-2.723-.192-.703-1.075-3.238-1.075-3.238s.305-.754.43-.961c.133-.207.707-.867.707-.867l2.695 5.703h.563l2.758-6.168 1.215 1.379s-.61 1.394-.817 2.101a16.447 16.447 0 0 0-.449 2.29 16.718 16.718 0 0 0-.098 1.6c0 .56.114 1.802.258 2.266.145.47.465.993.848 1.2.383.207.73.355 1.183.64.453.29.95.703 1.512 1.153.406.324 1.02.851 1.324 1.113a25.97 25.97 0 0 0 1.957-.715.878.878 0 0 1-.308-.512m-13.809.184c-.164.098-2.25 1.05-2.902 1.351.637.176 1.285.329 1.941.454a68.358 68.358 0 0 0 1.25-1.582c.14-.211-.097-.34-.289-.223m2.13-.488c-.044.113-.11.226-.204.386-.082.133-1.094 1.649-1.434 2.153.578.078 1.16.136 1.75.18.094-.333.25-1.044.293-1.372.043-.386.012-1.023-.02-1.297-.03-.273-.335-.16-.386-.05m4.941-18.051.235-.172c.316-.219.703-.559.703-.559l-.356-.402s-.335.332-.527.508c-.2.172-.492.418-.86.594-.023.007-.046.02-.066.027h-.004c-.335.144-.613.133-.613.133l-.012.433s.47-.007.778-.125c.226-.086.476-.261.722-.437m-2.292-4.496a.384.384 0 0 0 0-.77.38.38 0 0 0-.383.383c0 .215.168.387.382.387m-2.082 4.496c.06.047.122.105.188.148.328.254.644.254.644.254l.106-.402s-.004 0-.008-.004h-.004a5.18 5.18 0 0 1-.515-.211c-.23-.121-.43-.344-.618-.57-.265-.325-.484-.676-.484-.676l-.312.293s.171.219.37.46c.165.196.38.473.633.708m1.418-31.781c-14.53 0-26.304 11.777-26.304 26.312 0 1.871.191 3.7.566 5.469 1.52 7.183 5.973 13.289 12.05 17 .036-.117.134-.403.247-.559.148-.199.309-.43.727-.43.421 0 1.98-.093 1.98-.093l.094-.477-.82.074s.074-.304.253-.523c.176-.223.38-.36.461-.625.086-.258.172-.578.297-1.144.125-.57.328-1.36.578-2.094.254-.739.473-1.223.864-1.79.386-.57 1.023-1.199 1.023-1.199s.2-.539.375-.96c.18-.422.336-.602.484-.957.145-.356.274-.442.317-.77.043-.324.148-1.18.347-1.734.2-.559.504-1.614.747-2.25.218-.579.367-1.067.539-1.473l.058-.137c.203-.437.664-1.027.856-1.265.187-.243.64-.766.64-.766l-.23-.23s.125-.489.254-.899c.125-.41.168-.453.242-.586.074-.14.21-.172.473-.098.261.075.824.18.925.188.215.062.243-.438.106-.473 0 0-.926-.156-1.156-.199-.235-.043-.274-.094-.286-.25-.011-.16.274-1.75.274-2.285 0-.54-.695-1.95-.863-2.328-.168-.38-1.274-2.903-1.305-3.04-.031-.136.219-.034.578.2.356.23.59.504.77.809.175.304.421 1.082.511 1.109.164.059 2.348-.023 2.676-.023.379 0 .422-.493-.02-.493h-1.906c-.449 0-.41-.16-.597-.476-.192-.317-.34-.715-.653-.98-.316-.262-.757-.696-1.242-.84-.488-.149-1.18-.286-1.707-.442-.527-.16-1.21-.277-1.875-.719-.66-.441-.914-.703-1.113-.789-.203-.086-.684-.062-1.074-.136-.391-.075-.883-.297-1.79-.77-.906-.473-1.421-.938-1.757-1.18-.336-.238-1.54-.883-1.54-.883s-.218.16-.449.06c-.234-.11-1.074-.59-1.37-.74-.294-.148-1.274-.792-1.274-.792l-.082-.387s-.125-.191-.23-.289c-.106-.094-.274-.805.124-.715.403.098.368.13.528.16.156.032.156-.21-.012-.324-.168-.117-.652-.433-.867-.64-.207-.215-.078-.72.215-.54.297.176.465.243.62.297.157.051.305-.11.294-.222-.012-.118.96-.043.96-.043s.262.043.704.265c.441.22.746.368.98.575.23.214.336.695.864.96.527.262 1.23.524 1.652.696.422.164 1.336.43 1.8.672.462.242.747.441.966.664.222.218.316.492 1.054.629.735.14 1.219.265 1.684.515.46.254 1.07.653 1.281.844.211.188 1.2.125 1.2.125s.456.074.855.242c.398.172.61.246.863.445.25.196.723.555.723.555l-1.008.254.086.442 1.703-.211 1.316-.875v-2.008s-.21-.074-.433-.36a1.482 1.482 0 0 1-.27-1.093c.059-.368.293-1.293.293-1.293h3.113s.286.726.329 1.105c.039.379.082.977-.18 1.293-.262.313-.461.336-.461.336v1.938s.23.218.547.44c.316.22.683.45.683.45l1.891.207v-.488l-1.101-.129s.304-.375.609-.574c.305-.203.8-.442 1.16-.559.352-.117 1.45-.222 1.45-.222s.277-.106.464-.274c.191-.168.664-.57 1.223-.8.558-.231 1.195-.41 1.55-.47.36-.062.711-.16.942-.433.23-.273.621-.582 1.113-.781.496-.196 2.606-1 2.918-1.114.317-.12.528-.18.696-.496.167-.316.187-.324.64-.578.453-.254.785-.398 1.125-.558.34-.16.832-.348 1.098-.43.258-.086.207-.031.523-.191.32-.16.621.378.328.566-.293.191-.64.422-.78.52-.138.093-.06.23.097.207.156-.02.851-.126 1.156-.168.305-.04.516.515.086.707-.434.187-.527.293-.527.293s.039.359.05.496c.012.136.012.285-.242.406-.254.129-1.472.906-1.722 1.047-.258.133-.29.273-.676.273-.387 0-.567.02-.852.172-.281.145-2.726 1.836-2.988 1.984-.262.149-.883.504-1.496.547-.61.043-.938.168-1.578.59-.645.422-1.368.852-2.168 1.082-.801.235-1.883.426-2.54.75-.648.328-1.238.746-1.511 1.254-.274.504-.332.942-.867.938-.528-.004-1.692-.016-1.965-.016-.274 0-.285.445.012.445.293 0 2.703.067 2.812-.008.121-.074.125-.433.356-.878.164-.329.386-.622.714-.84.325-.219.809-.418.809-.418s-.703 1.902-.918 2.777c-.21.871-.523 2.04-.543 2.715-.023.672.094 1.848.137 2.062.039.211.094.524-.274.579-.37.054-.78.164-.949.18-.191.05-.117.464.043.44 0 0 .863-.167 1.05-.222.192-.05.278-.063.368.254.098.316.223.715.297.914.074.2-.02.324-.094.465-.074.137.156.39.156.39s.829 1.204 1.196 1.942c.047.086.082.164.11.234.276.676.66 1.813.8 2.371.137.555.465 1.668.578 2.282.117.613.234.992.477 1.496.242.5.324.726.609 1.02.285.296.633 1.327.8 1.839.169.52.473 1.055.68 1.621.211.57.458 1.234.614 1.727.156.496.402 1.465.515 1.875.118.41.18.84.82.988.641.148 1.075.336 1.423.297.347-.043.492-.094.753-.106.27-.011.489.051.633.153.09.066.176.152.227.215 5.305-3.762 9.156-9.434 10.547-16.012.375-1.77.57-3.598.57-5.469 0-14.535-11.777-26.312-26.309-26.312m-21.851 20.851c.93.75 1.223 1.918 1.223 1.918s-1.204-.047-2.13-.8c-.925-.75-1.226-1.919-1.226-1.919s1.207.047 2.133.801m2.578 4.653s-1.184.242-2.266-.258c-1.082-.508-1.656-1.57-1.656-1.57s1.184-.243 2.262.261c1.082.504 1.66 1.567 1.66 1.567m-3.262 6.277c.094-.34.239-.711.469-1.055.668-.988 1.809-1.387 1.809-1.387s.05 1.204-.614 2.192c-.062.086-.12.172-.187.246-.672.812-1.621 1.144-1.621 1.144s-.024-.511.144-1.14m3.36 2.008c1.191-.035 2.183.652 2.183.652s-.941.75-2.133.793c-1.191.047-2.187-.645-2.187-.645s.945-.753 2.137-.8m.613-2.524s1.148-.37 2.277.02c.352.12.66.3.922.496.567.414.887.89.887.89s-1.149.36-2.277-.027c-.583-.2-1.051-.562-1.36-.867a4.261 4.261 0 0 1-.45-.512m1.216 10.703s-.735-.957-.758-2.148c-.02-1.195.684-2.172.684-2.172s.738.957.757 2.145c.024 1.191-.683 2.175-.683 2.175m2.582-1.605s-.88-.695-1.168-1.766c-.29-1.07.125-2.113.125-2.113s.879.7 1.168 1.77c.285 1.07-.125 2.109-.125 2.109m1.86-.926s-.704-.906-.72-2.043c-.02-1.129.649-2.058.649-2.058s.7.906.715 2.039c.02 1.129-.645 2.062-.645 2.062m2.278-.55s-.704-.907-.723-2.04c-.02-1.129.648-2.062.648-2.062s.7.906.72 2.039c.019 1.129-.645 2.062-.645 2.062m4.757-16.41s.282 1.086-.132 2.113c-.415 1.032-1.375 1.618-1.375 1.618s-.286-1.09.128-2.121c.418-1.032 1.38-1.61 1.38-1.61m-2.231-1.765c.414-.977 1.344-1.524 1.344-1.524s.254 1.047-.16 2.027c-.418.98-1.344 1.524-1.344 1.524s-.258-1.047.16-2.027m-3.317-3.489s.57.793.555 1.758c-.02.973-.617 1.746-.617 1.746s-.57-.797-.555-1.762c.02-.972.617-1.742.617-1.742m-4.175 6.906c.257-1.132 1.156-1.89 1.156-1.89s.469 1.078.207 2.207c-.262 1.129-1.156 1.89-1.156 1.89s-.465-1.078-.207-2.207m-1.805-2.171c.203-1.141 1.055-1.946 1.055-1.946s.527 1.043.324 2.192c-.2 1.14-1.05 1.945-1.05 1.945s-.528-1.047-.329-2.191m-1.621-2.391c.203-1.121 1.039-1.914 1.039-1.914s.52 1.031.32 2.152c-.199 1.125-1.035 1.918-1.035 1.918s-.52-1.035-.324-2.156m1.039 4.719c.75 1.27 1.379 1.953 2.195 2.742.817.785 1.223.992 1.746 1.152.528.16 1.766.625 2.391.883.621.254 1.766.863 2.277 1.137.516.27 1.282.8 1.282.8l.367-.347s-.348-.629-.54-1.012c-.195-.383-.425-1.043-.613-1.636-.191-.598-.082-.223-.32-1.172-.238-.946-.754-1.426-.933-1.621-.172-.196-.415-.575-.88-1.122-.464-.546-1.202-1.789-1.538-2.324-.336-.531-1.086-1.972-1.41-2.656-.325-.688-.606-1.734-.606-1.734l.652-.27s.176.7.438 1.297c.258.594 1.262 2.21 1.855 3.11.59.898 1.715 2.324 1.715 2.324l.176-.051s-.176-2.176-.176-2.918c0-.739.16-2 .16-2l.64.289s.083 3.207.192 3.972c.114.766.336 2.31.582 3.11.243.797 1.153 2.644 1.582 3.5.434.848 1.07 1.883 1.07 1.883l-.062.156c-.125.285-.387.898-.555 1.309-.226.543-.386 1.261-.386 1.261s-1.012-.32-1.68-.43c-.672-.109-1.672-.097-2.648.016a11.81 11.81 0 0 0-3 .774c-.88.367-1.633.828-2.403 1.375-.77.55-1.617 1.265-2.05 1.765-.43.496-1.153 1.504-1.153 1.504l-.594-.465s.75-1.14 1.153-1.617c.398-.48 1.57-1.508 2.047-1.863.48-.356 1.433-1.008 2.183-1.406.754-.403 2.453-1.043 3.207-1.204.75-.16 2.196-.257 2.66-.273.465-.016.29-.34.114-.465a9.244 9.244 0 0 0-.446-.281h-.004a92.762 92.762 0 0 0-2.02-1.176c-.882-.496-2.35-1.012-3.136-1.254-.789-.246-2.363-.476-2.922-.554-.558-.086-2.066-.102-2.71-.036-.641.063-3.208.414-3.208.414v-.832s2.055-.496 3.047-.558c.996-.067 3.43-.02 3.43-.02s-.703-.832-1.074-1.328c-.371-.496-.719-1.074-1.086-1.703-.371-.625-.93-1.902-1.188-2.48-.261-.575-.785-2.051-.996-2.758-.21-.707-.398-2.051-.398-2.051s.836-.145.867.078c.031.223.207 1.168.32 1.606.11.43.254.78.563 1.699.308.91 1.074 2.191 1.824 3.46m21.394-22.507c.524-.195 1.083-.258 1.083-.258s.02.39-.145 1.027c-.094.368-.309.993-.309.993l-1.535.187s-.113-.375-.191-.652c-.078-.278-.23-.68-.23-.68s.738-.394 1.327-.617m-.023 3.707c.117.043.598.238.961.441.46.254 1.047.762 1.047.762s-.649.375-1.113.563c-.403.164-1.157.293-1.282.308a3.29 3.29 0 0 0 .422-1.605c0-.16-.015-.317-.035-.469m-.074-.363a3.172 3.172 0 0 0-.328-.797l-.067-.121.903-.117Zm-.38.832a2.778 2.778 0 0 1-5.554 0 2.772 2.772 0 0 1 2.778-2.774 2.775 2.775 0 0 1 2.777 2.774m-3.836-4.305c.367-.598.996-1.328.996-1.328s.54.527 1.066 1.387c.43.699.543 1.199.575 1.39a3.23 3.23 0 0 0-1.578-.41c-.637 0-1.23.184-1.73.5.026-.105.21-.789.671-1.539m-3.309-.129s.563.063 1.082.258a13.53 13.53 0 0 1 1.332.617s-.152.402-.23.68l-.191.652-1.54-.187s-.214-.625-.304-.993c-.16-.636-.149-1.027-.149-1.027m1.493 6.04c-.121-.016-.875-.145-1.282-.31-.464-.187-1.113-.562-1.113-.562s.586-.508 1.05-.762c.364-.203.84-.398.958-.441a3.68 3.68 0 0 0-.031.469c0 .582.152 1.129.418 1.605m-.309-2.437-.508-1.035.903.117-.067.12a3.172 3.172 0 0 0-.328.798m-3.02-1.145c.786-.047 1.907.035 1.907.035l.508 1.035s-.567.207-.97.473c-.402.27-1.054.863-1.054.863s-.621-.437-1.055-.918c-.418-.468-.808-1.16-.808-1.16s.765-.285 1.472-.328m.067 5.438c-.492-.035-.817-.22-.817-.22s.336-.679.532-1c.168-.284.683-1.085.683-1.085s.649.5 1.535.754c1.235.36 1.97.387 2.012.39 0 0-.21.231-.543.426-.246.145-.879.426-1.558.582a7.038 7.038 0 0 1-1.844.153m4.39 1.757s-.296 1.579-.37 2.086c-.067.5.156.778.312 1.004.152.227.45.418.45.418l-.013 1.32s-.21.254-.453.442c-.234.195-.547.348-.547.348s-.304-.336-.66-.668c-.36-.336-.804-.543-.804-.543s-.286-1.653-.286-2c0-.352.051-.754.192-1.196.144-.445.37-.957.37-.957h.825s.027-.207.082-.445c.067-.238.195-.492.473-.719a1.72 1.72 0 0 1 .715-.37c.273-.071.562-.122.562-.122h.938v1.402Zm6.106 4.407s-.441.207-.8.543c-.36.332-.661.668-.661.668s-.309-.153-.55-.348c-.239-.188-.454-.441-.454-.441l-.012-1.32s.301-.192.454-.419c.156-.226.382-.504.308-1.004-.066-.507-.367-2.086-.367-2.086h-1.781l-.004-.082v-1.32h.937s.262.016.563.121c.21.074.437.145.715.371.277.227.41.48.468.72.063.237.086.444.086.444h.825s.23.512.37.957c.141.442.192.844.192 1.196 0 .347-.289 2-.289 2m1.75-6.164a7.067 7.067 0 0 1-1.848-.153c-.675-.156-1.308-.437-1.554-.582-.336-.195-.543-.425-.543-.425.039-.004.777-.032 2.011-.391.887-.254 1.532-.754 1.532-.754s.52.8.691 1.086c.191.32.523 1 .523 1s-.328.183-.812.219m.727-3.95c-.43.48-1.051.918-1.051.918s-.656-.593-1.055-.863c-.402-.266-.973-.473-.973-.473l.516-1.035s1.113-.082 1.902-.035c.707.043 1.473.328 1.473.328s-.39.692-.812 1.16m11.27 12.512s.722.66.905 1.613c.188.954-.238 1.84-.238 1.84s-.73-.66-.91-1.613c-.184-.957.242-1.84.242-1.84m-1.922 2.23s.91.665 1.23 1.731c.329 1.07-.05 2.129-.05 2.129s-.91-.668-1.234-1.73c-.325-1.07.054-2.13.054-2.13m-.8 5.903s-.805-.785-.977-1.887c-.176-1.097.347-2.094.347-2.094s.805.786.977 1.887c.176 1.098-.348 2.094-.348 2.094m-3.421-9.281s.59.789.59 1.761c0 .973-.59 1.758-.59 1.758s-.586-.785-.586-1.758c0-.972.586-1.761.586-1.761m-4.715 2.308s.87.532 1.246 1.465c.379.934.12 1.918.12 1.918s-.874-.527-1.245-1.465c-.38-.933-.121-1.918-.121-1.918m-.723 3.028s.86.683 1.14 1.73c.278 1.043-.124 2.067-.124 2.067s-.86-.684-1.141-1.73c-.277-1.048.125-2.067.125-2.067m4.348 16.816s-.68-.914-.68-2.039c0-1.121.68-2.035.68-2.035s.675.914.675 2.035c0 1.125-.675 2.04-.675 2.04m2.25.542s-.692-.96-.672-2.137c.02-1.168.746-2.105.746-2.105s.691.96.668 2.133c-.02 1.172-.742 2.109-.742 2.109m2.828-.836c-.223 1.149-1.102 1.95-1.102 1.95s-.511-1.067-.285-2.22c.223-1.148 1.098-1.953 1.098-1.953s.515 1.07.289 2.223m1.789 3.281s-.805-.875-.926-2.039c-.125-1.164.48-2.187.48-2.187s.805.875.926 2.039c.121 1.164-.48 2.187-.48 2.187m1.101-8.25c1.165.125 2.036.93 2.036.93s-1.02.602-2.184.48c-1.164-.12-2.04-.925-2.04-.925s1.024-.602 2.188-.485m-4.476-1.16s.34-.414.906-.781c.3-.191.66-.371 1.067-.473 1.19-.293 2.332.18 2.332.18s-.102.125-.282.293c-.332.309-.93.77-1.691.96-1.188.294-2.332-.179-2.332-.179m6.812-.781a2.919 2.919 0 0 1-.203-.273c-.629-.97-.554-2.137-.554-2.137s1.093.41 1.726 1.379c.219.336.356.703.434 1.035.152.605.117 1.097.117 1.097s-.887-.332-1.52-1.101m1.977-2.512s-1.719-.328-2.727-.383c-1.011-.046-2.34-.078-3.242.055-.894.125-2.242.461-2.945.75-.703.29-2.461 1.008-3.027 1.313-.282.152-.81.484-1.262.777-.446.289-.82.535-.82.535l.19.34s1.083-.031 1.567.035c.485.063 1.254.27 1.957.492.707.223 1.602.676 2.309 1.043.703.367 1.152.59 1.797 1.137.644.547 1.3 1.125 1.683 1.559.383.43 1.38 1.789 1.38 1.789l-.567.535s-.883-1.16-1.328-1.621c-.45-.465-1.508-1.309-2.02-1.664-.511-.36-1.445-.883-2.05-1.125a10.102 10.102 0 0 0-2.391-.645c-1.024-.14-1.695-.238-2.418-.254-.719-.015-1.84.176-1.84.176s-.312-1.078-.535-1.637c-.082-.207-.2-.457-.317-.695-.195-.398-.386-.746-.386-.746s.492-.797.781-1.375c.293-.578 1.273-2.492 1.512-3.371.238-.88.484-1.555.66-2.516.176-.96.367-1.84.383-2.578.015-.738-.063-2.2-.063-2.2l.703-.237s.114 1.199.098 1.972c-.016.77-.164 2.711-.164 2.711l.195.188s1.348-1.524 1.957-2.461c.606-.95 1.153-1.836 1.41-2.348.254-.512.739-1.582.739-1.582l.605.219s-.625 1.508-.98 2.215c-.352.707-1.082 2.085-1.551 2.742-.465.656-1.762 2.496-2.004 2.82-.238.32-.48.457-.691 1.106-.207.656-.672 1.828-.899 2.355-.222.527-1.023 2.2-1.023 2.2l.289.3s1.46-.914 2.101-1.215c.637-.305 2.442-1.152 3.063-1.363.62-.211 1.539-.629 2.289-1.43.75-.797 1.297-1.586 1.664-2.097.375-.512 1.078-1.43 1.414-2.07.336-.638 1.074-1.919 1.316-2.579.239-.66.754-2.629.817-3.078.062-.453.851-.094.851-.094s-.246 1.492-.386 1.985c-.145.496-.63 1.953-.98 2.722-.352.77-1.196 2.215-1.583 2.871-.387.664-.82 1.336-1.172 1.813-.355.48-1.09 1.363-1.09 1.363s1.778-.035 2.516-.016c.738.016 1.774.094 2.356.192.578.098 1.859.387 1.859.387Zm-2.297-5.34c1.102-.445 2.262-.14 2.262-.14s-.625 1.023-1.727 1.469c-1.097.44-2.262.14-2.262.14s.625-1.027 1.727-1.469m1.84-1.894c-.899.707-2.055.734-2.055.734s.305-1.117 1.207-1.82c.903-.707 2.055-.73 2.055-.73s-.305 1.113-1.207 1.816M195.957 100.715l.606-.309s-.13.563.238 1.149c.37.582.715.746.902.804.754.243 1.57-.535 1.707-.812.14-.274.297-.656.04-1.274-.376-.902-.708-.945-.708-.945l-.203-.066.05-.203s.513-.036.696.132c.309.305.68.961.762 1.496.101.641-.035.954-.29 1.368-.253.406-1.05.855-1.679.816-.629-.031-1.066-.351-1.422-.723-.36-.378-.699-1.433-.699-1.433M194.93 97.246c.101.777.86 1.317 1.683 1.156.82-.156 1.457-.82 1.367-1.601-.09-.781-.843-1.442-1.738-1.278-.824.149-1.43.758-1.312 1.723m-.399-.039c-.176-1.25.594-2.184 1.676-2.25a2.063 2.063 0 0 1 2.172 1.793c.144 1.129-.582 2.043-1.508 2.195-1.266.211-2.187-.61-2.34-1.738"/><g clip-path="url(#g)"><path style="stroke:none;fill-rule:nonzero;fill:#0099d3;fill-opacity:1" d="m193.61 88.148 1.558.633v-1.187Zm-.419 1.48s.043-.855.043-1.737c0-.88-.035-1.407-.035-1.407h.508s-.117.297-.144.594c-.032.3-.032.516-.032.516s2.692-1.012 2.957-1.188c.266-.18.418-.32.418-.32v.941s-.344-.011-.668.118c-.328.132-.703.27-.703.27v1.437s.356.261.856.43c.328.109.53-.13.53-.13v.946s-.284-.336-.573-.434c-.29-.098-2.832-1.062-2.832-1.062s.007.293.007.523c0 .238.051.512.051.512Zm0 0"/></g><g clip-path="url(#h)"><path style="stroke:none;fill-rule:nonzero;fill:#0099d3;fill-opacity:1" d="m193.773 93.805-.164-.887s.243.215.563.172c.32-.043 2.36-.328 2.496-.356.137-.03.172-.18.164-.254-.004-.074.074-.808-.184-1.148-.253-.34-.406-.48-.406-.48l.012-.141s.305.07.5.168c.2.09.332.14.332.14l.332 2.258s-.219-.039-.73-.007c-.512.03-2.172.23-2.45.293-.277.07-.465.242-.465.242"/></g><path style="stroke:none;fill-rule:nonzero;fill:#0099d3;fill-opacity:1" d="m196.8 74.613 1.15 1.23.503-1.077Zm-1.007 1.164s.402-.757.777-1.558c.371-.797.559-1.29.559-1.29l.465.22s-.23.214-.383.472c-.156.258-.246.453-.246.453s2.867.223 3.18.176c.316-.047.511-.117.511-.117l-.394.86s-.305-.157-.66-.18c-.348-.02-.747-.055-.747-.055l-.609 1.305s.215.382.598.75c.25.238.535.105.535.105l-.402.86s-.114-.423-.336-.633c-.223-.207-2.114-2.16-2.114-2.16l-.214.476c-.102.21-.172.484-.172.484ZM213.863 59.121l-.058 1.68 1.117-.406Zm-1.535.113s.82-.254 1.649-.558c.828-.301 1.308-.516 1.308-.516l.176.485s-.32-.008-.606.062c-.289.07-.492.145-.492.145s1.867 2.187 2.125 2.375c.258.187.446.28.446.28l-.887.325s-.106-.324-.34-.59c-.234-.262-.492-.57-.492-.57l-1.352.496s-.12.422-.11.95c.009.343.302.452.302.452l-.89.325s.218-.38.21-.684c-.008-.309.035-3.027.035-3.027l-.492.191c-.219.074-.461.219-.461.219ZM242.598 63.16l-1.399.938.992.668Zm-.996-1.176s.691.512 1.421 1.008c.73.492 1.184.758 1.184.758l-.285.422s-.18-.266-.41-.453c-.227-.196-.407-.313-.407-.313s-.675 2.793-.675 3.114c0 .32.035.527.035.527l-.781-.527s.203-.278.273-.622c.078-.343.176-.73.176-.73l-1.196-.809s-.414.157-.832.473c-.273.207-.187.512-.187.512l-.79-.531s.438-.047.68-.235c.243-.183 2.47-1.75 2.47-1.75s-.247-.152-.438-.289a3.524 3.524 0 0 0-.457-.242ZM247.633 108.586l-.742-1.512-.793.887Zm1.297-.82s-.602.609-1.192 1.265c-.59.653-.918 1.07-.918 1.07l-.379-.343s.286-.145.508-.344c.223-.195.367-.36.367-.36s-2.675-1.054-2.992-1.097c-.316-.047-.527-.039-.527-.039l.633-.703s.246.238.578.36c.328.124.699.273.699.273l.965-1.07s-.094-.43-.352-.891c-.168-.301-.48-.258-.48-.258l.637-.707s-.016.441.132.707c.153.266 1.391 2.683 1.391 2.683l.344-.394c.16-.172.308-.41.308-.41ZM232.773 58.074l-.152.664s-.355-.465-1.035-.558c-.684-.09-1.004.113-1.172.215-.168.101-.402.48-.441.683l2.109.395.469-.004s.02.695-.004.676c-.031-.016-.457-.2-.457-.2l-2.219-.5s-.059.38.059.664c.125.286.293.68.922.899.378.133.941.195 1.183.129.203-.051.54-.242.54-.242l.054.125s-.172.335-.477.585c-.46.094-1.41-.109-1.945-.378-.48-.247-.754-.637-.902-1.098-.153-.461.02-1.356.453-1.816.43-.461.949-.59 1.465-.622.52-.035 1.55.383 1.55.383M199.938 68.848l.539.422s-.57.125-.95.71c-.379.586-.379.977-.351 1.172.097.793 1.16 1.211 1.469 1.22.312.007.73-.013 1.183-.513.664-.73.563-1.05.563-1.05l-.028-.215.211-.04s.254.454.172.692c-.144.41-.586 1.031-1.039 1.336-.547.367-.89.383-1.371.32-.488-.058-1.234-.597-1.473-1.191-.234-.59-.129-1.121.063-1.61.187-.488 1.012-1.253 1.012-1.253M250.367 105.914l-.574-.371s.559-.172.879-.785c.316-.61.289-.988.246-1.184-.164-.773-1.25-1.094-1.555-1.07-.308.016-.718.074-1.125.605-.59.774-.465 1.079-.465 1.079l.047.214-.203.055s-.289-.422-.23-.664c.105-.422.488-1.07.91-1.414.504-.406.844-.445 1.328-.43.484.016 1.266.485 1.547 1.051.289.559.234 1.09.086 1.59-.149.5-.89 1.324-.89 1.324M240.016 61.082l-.282.59c-.187-.637-.746-1.059-1.168-1.05-.46.007-.765.507-.425.952.343.442.394.387.804.989.602.874-.347 1.554-1.02 1.46-.804-.101-1.655-.882-1.655-.882l.21-.696s.454.79 1.305 1.086c.594.207 1.024-.277.625-.867-.281-.406-.41-.457-.734-.922-.43-.617.074-1.312.578-1.441.539-.145.96.117 1.234.304.325.215.528.477.528.477M204.379 64.543c-.61.496-.66 1.426-.094 2.039.574.617 1.477.8 2.09.313.613-.493.773-1.48.164-2.157-.562-.62-1.406-.804-2.16-.195m-.18-.36c.969-.812 2.168-.656 2.797.227.629.887.473 2.11-.367 2.797-.883.719-2.043.586-2.664-.117-.848-.961-.637-2.18.234-2.906M217.29 57.68l.878-.2s-.207.25-.152.57c.05.317.41 2.348.445 2.481.035.137.184.164.258.16.07-.011.808.04 1.136-.226.333-.266.47-.426.47-.426l.144.008s-.067.305-.153.504c-.082.203-.129.34-.129.34l-2.242.414s.028-.223-.02-.739c-.05-.507-.304-2.16-.386-2.433-.074-.274-.25-.453-.25-.453M254.535 97.047l-.25.867s-.12-.3-.422-.406c-.312-.11-2.254-.785-2.39-.817-.133-.035-.235.082-.262.149-.031.066-.43.687-.356 1.105.07.418.145.618.145.618l-.078.117s-.234-.203-.367-.375c-.133-.168-.235-.278-.235-.278l.73-2.16s.18.133.65.34c.472.203 2.038.781 2.32.848.273.062.515-.008.515-.008M194.086 81.066s.312-.148.715-.043c.41.102 2.222.63 2.383.715.16.082.425.383.425.383l.246-1.008s-.394.11-.644.035c-.25-.078-1.586-.433-1.895-.53-.304-.098-.472-.282-.52-.485-.046-.203-.023-.567.075-.871.098-.305.176-.38.336-.54.156-.16.309-.234.695-.202.38.035 1.707.437 1.93.507.219.07.492.328.492.328l.301-.933s-.328.105-.621.039c-.29-.059-1.418-.371-1.723-.457-.304-.094-.902-.207-1.304.187-.239.23-.473.704-.52 1.133-.05.43.066 1.098.066 1.098l-.324-.113ZM207.313 61.922s.32.113.539.476c.21.364 1.12 2.016 1.175 2.188.055.172.032.57.032.57l.882-.539s-.355-.199-.476-.43c-.125-.23-.82-1.425-.969-1.714-.144-.285-.133-.532-.023-.707.109-.18.382-.418.668-.563.28-.148.39-.148.617-.148.226 0 .387.054.633.347.25.297.906 1.52 1.011 1.723.102.21.114.578.114.578l.87-.441s-.304-.164-.468-.41c-.16-.25-.734-1.266-.89-1.547-.15-.278-.493-.782-1.06-.785-.323-.004-.827.16-1.167.433-.34.27-.727.82-.727.82l-.152-.304ZM200.898 67.473l.668-.657s.008.2.16.36c.149.16 1.899 1.91 2.036 2.031.133.121.535.137.535.137l-.652.808s-.125-.37-.286-.523c-.168-.149-1.941-1.906-2.03-1.988a.754.754 0 0 0-.43-.168M253.21 100.918l-.444.824s-.07-.191-.258-.297c-.192-.11-2.371-1.27-2.54-1.347-.167-.075-.558.023-.558.023l.39-.965s.227.324.43.418c.2.094 2.41 1.258 2.524 1.309.219.097.457.035.457.035M245.559 70.316s.086-.355.37-.656c.294-.312 1.63-1.637 1.782-1.742.152-.098.543-.184.543-.184l-.766-.703s-.09.399-.277.582c-.191.18-1.149 1.18-1.383 1.399-.238.222-.48.277-.676.218-.203-.05-.507-.253-.73-.484a1.092 1.092 0 0 1-.309-.558c-.062-.215-.054-.383.16-.704.22-.316 1.215-1.285 1.383-1.441.168-.16.524-.273.524-.273l-.668-.715s-.07.34-.266.562a53.828 53.828 0 0 1-1.238 1.281c-.23.223-.617.692-.469 1.239.09.312.387.75.742 1.004.352.25.992.468.992.468l-.257.235ZM252.11 90.297s.312-.18.73-.184c.422-.004 2.308.035 2.488.07.172.044.508.262.508.262l-.027-1.035s-.348.207-.61.2c-.262-.012-1.648-.005-1.969-.02-.316-.016-.523-.153-.625-.336-.101-.18-.171-.54-.152-.86.012-.32.067-.41.18-.609.113-.191.238-.305.62-.375.38-.062 1.767-.02 1.997-.008.234.008.559.188.559.188l.05-.98s-.293.19-.59.203c-.296.015-1.464.003-1.785 0-.316-.012-.922.035-1.21.523-.165.285-.274.797-.208 1.227.063.43.352 1.042.352 1.042l-.348-.023Zm0 0"/><g clip-path="url(#i)"><path style="stroke:none;fill-rule:nonzero;fill:#0099d3;fill-opacity:1" d="m225.262 57.336-.051 2.879s.492.008 1.23.008c.82 0 1.164-.778 1.164-1.453 0-.625-.468-1.372-1.28-1.418-.723-.043-1.063-.016-1.063-.016m-.938 3.266s.309-.262.324-.442c.036-.36.07-2.648.07-2.883 0-.238-.187-.382-.187-.382s1.485.046 1.973.07c.598.02 1.715.64 1.715 1.902s-1.067 1.813-1.625 1.813c-.547 0-2.27-.078-2.27-.078"/></g><path style="stroke:none;fill-rule:nonzero;fill:#0099d3;fill-opacity:1" d="m249.625 70.414-2.332 1.688s.293.402.734.988c.496.656 1.328.465 1.864.058.496-.375.812-1.203.359-1.878-.398-.602-.625-.856-.625-.856m-3.172 1.215s.39.09.547-.004c.305-.195 2.152-1.543 2.344-1.684.187-.14.195-.379.195-.379s.852 1.215 1.129 1.618c.344.492.523 1.754-.488 2.511-1.004.762-2.094.243-2.422-.199-.336-.441-1.305-1.863-1.305-1.863M251.66 82.844s.149.125.508.086c.355-.032 2.344-.39 2.547-.414.203-.032.5-.27.5-.27s.195.836.32 1.649c.125.808-.375 1.261-.758 1.324-.382.062-.847-.106-1.062-.489-.211-.382-.262-.863-.262-.863l.176-.008s.062.266.25.559c.187.293.684.32.89.238.204-.078.489-.379.426-.844-.058-.464-.168-.82-.168-.82s-2.43.438-2.718.492c-.286.051-.54.375-.54.375ZM252.258 92.535s-.219.754-.23 1.035c-.008.274.081.61.538.73.32.083.758-.015.91-.683.094-.39.157-.797.157-.797Zm1.715.348-.13.734c-.05.293.137.637.454.684a.58.58 0 0 0 .644-.465c.067-.328.141-.734.141-.734Zm-1.98-.992s.183.097.48.168c.293.07 2.367.472 2.597.488.235.02.5-.035.5-.035s-.187 1.113-.312 1.668c-.121.55-.57.683-.883.668-.309-.02-.645-.336-.719-.637-.226.46-.758.734-1.297.578-.578-.168-.765-.855-.664-1.344.075-.37.188-.902.243-1.156.054-.246.054-.398.054-.398M253.508 76.813l-.613.289s.144-.559-.204-1.16c-.347-.594-.699-.723-.886-.79-.188-.07-.625-.02-.809.075l.984 1.898.293.367s-.535.45-.535.414c-.004-.035-.125-.484-.125-.484l-.972-2.055s-.336.188-.485.461c-.148.27-.355.64-.14 1.277.129.38.425.86.625 1.008.168.13.52.282.52.282l-.063.117s-.368.074-.754-.012c-.36-.309-.781-1.184-.899-1.77-.105-.527.04-.988.309-1.386.27-.403 1.082-.817 1.71-.762.63.055 1.052.383 1.395.773.344.391.649 1.457.649 1.457M201.063 108.621l.496-.465s.035.582.55 1.04c.512.456.887.472 1.086.48.196.008.602-.176.746-.324l-1.523-1.5-.387-.258s.364-.594.38-.563c.01.031.265.422.265.422l1.558 1.656s.27-.285.32-.586c.06-.304.141-.726-.257-1.261-.242-.32-.672-.684-.906-.766a3.722 3.722 0 0 0-.582-.105l.015-.13s.332-.183.727-.218c.437.18 1.11.879 1.398 1.398.27.477.27.95.137 1.418-.133.465-.774 1.114-1.39 1.25-.614.141-1.118-.043-1.563-.304-.45-.262-1.07-1.184-1.07-1.184M198.395 105.113l.523-.386c-.129.648.164 1.28.539 1.472.41.215.914-.09.82-.64-.093-.555-.16-.528-.246-1.25-.113-1.059 1.04-1.207 1.59-.813.66.473 1.047 1.559 1.047 1.559l-.512.511s-.031-.906-.64-1.57c-.43-.46-1.04-.234-.961.473.054.492.144.601.215 1.16.09.746-.68 1.121-1.184 1.004-.547-.13-.793-.559-.953-.852-.18-.34-.238-.668-.238-.668"/><g clip-path="url(#j)"><path style="stroke:none;fill-rule:nonzero;fill:#878787;fill-opacity:1" d="M275.328 112.512h.336v3.273c0 .535 0 .996-.355 1.434-.356.406-.899.613-1.43.613-.527 0-1.07-.207-1.426-.613-.355-.438-.355-.899-.355-1.434v-3.273h.332v3.175c0 .473 0 .977.273 1.325.258.332.774.508 1.176.508.406 0 .922-.176 1.18-.508.27-.348.27-.852.27-1.325Zm0 0"/></g><g clip-path="url(#k)"><path style="stroke:none;fill-rule:nonzero;fill:#878787;fill-opacity:1" d="m282.875 117.938-4.41-4.688v4.512h-.332v-5.32l4.406 4.652v-4.582h.336Zm0 0"/></g><g clip-path="url(#l)"><path style="stroke:none;fill-rule:nonzero;fill:#878787;fill-opacity:1" d="M285.39 117.762h.337v-5.25h-.336Zm0 0"/></g><g clip-path="url(#m)"><path style="stroke:none;fill-rule:nonzero;fill:#878787;fill-opacity:1" d="M289.61 116.996h.015l1.55-4.484h.337l-1.91 5.425-1.887-5.425h.336Zm0 0"/></g><g clip-path="url(#n)"><path style="stroke:none;fill-rule:nonzero;fill:#878787;fill-opacity:1" d="M293.836 112.824v1.91h2.117v.313h-2.117v2.402h2.172v.313H293.5v-5.25h2.508v.312Zm0 0"/></g><g clip-path="url(#o)"><path style="stroke:none;fill-rule:nonzero;fill:#878787;fill-opacity:1" d="M301.02 117.762h-.383l-1.715-2.485h-.164v2.485h-.336v-5.25h.652c.426 0 .844.008 1.2.265.378.266.53.68.53 1.13 0 .91-.636 1.382-1.503 1.37Zm-1.84-2.797c.328 0 .656-.016.922-.246.25-.2.367-.516.367-.828 0-.391-.18-.782-.555-.946-.281-.132-.637-.12-.941-.12h-.215v2.14Zm0 0"/></g><g clip-path="url(#p)"><path style="stroke:none;fill-rule:nonzero;fill:#878787;fill-opacity:1" d="M305.64 113.375c-.234-.375-.57-.621-1.066-.621a.988.988 0 0 0-.988 1.004c0 .55.523.781.95.984l1.003.52c.395.25.598.574.598 1.047 0 .87-.793 1.523-1.645 1.523-.73 0-1.3-.453-1.547-1.129l.293-.133c.223.559.633.95 1.27.95.687 0 1.293-.543 1.293-1.239 0-.594-.606-.844-1.059-1.066l-.945-.504c-.348-.215-.543-.52-.543-.938 0-.78.555-1.332 1.344-1.332.527 0 1.03.286 1.28.739Zm0 0"/></g><g clip-path="url(#q)"><path style="stroke:none;fill-rule:nonzero;fill:#878787;fill-opacity:1" d="M308.39 117.762h.333v-5.25h-.332Zm0 0"/></g><g clip-path="url(#r)"><path style="stroke:none;fill-rule:nonzero;fill:#878787;fill-opacity:1" d="M311.242 112.512h.95c.765 0 1.37.125 1.949.66.55.516.836 1.219.836 1.973 0 .722-.278 1.414-.809 1.921-.578.559-1.2.696-1.977.696h-.949Zm.942 4.937c.687 0 1.261-.14 1.761-.633a2.366 2.366 0 0 0 .696-1.671 2.33 2.33 0 0 0-.758-1.747c-.5-.453-1.043-.574-1.7-.574h-.605v4.625Zm0 0"/></g><g clip-path="url(#s)"><path style="stroke:none;fill-rule:nonzero;fill:#878787;fill-opacity:1" d="m317.688 116.035-.704 1.727h-.34l2.2-5.422 2.195 5.422h-.34l-.707-1.727Zm1.156-2.847-1.031 2.535h2.054Zm0 0"/></g><g clip-path="url(#t)"><path style="stroke:none;fill-rule:nonzero;fill:#878787;fill-opacity:1" d="M323.027 112.512h.946c.77 0 1.375.125 1.953.66.55.516.836 1.219.836 1.973 0 .722-.282 1.414-.809 1.921-.578.559-1.2.696-1.98.696h-.946Zm.942 4.937c.687 0 1.261-.14 1.761-.633a2.366 2.366 0 0 0 .696-1.671c0-.668-.266-1.297-.758-1.747-.504-.453-1.047-.574-1.7-.574h-.605v4.625Zm0 0"/></g><g clip-path="url(#u)"><path style="stroke:none;fill-rule:nonzero;fill:#878787;fill-opacity:1" d="M329.293 112.824v1.91h2.117v.313h-2.117v2.402h2.172v.313h-2.508v-5.25h2.508v.312Zm0 0"/></g><g clip-path="url(#v)"><path style="stroke:none;fill-rule:nonzero;fill:#878787;fill-opacity:1" d="m342.172 117.938-4.41-4.688v4.512h-.332v-5.32l4.406 4.652v-4.582h.336Zm0 0"/></g><g clip-path="url(#w)"><path style="stroke:none;fill-rule:nonzero;fill:#878787;fill-opacity:1" d="M349.82 115.137c0 1.476-1.246 2.695-2.722 2.695-1.477 0-2.723-1.219-2.723-2.695 0-1.477 1.238-2.696 2.723-2.696 1.476 0 2.722 1.22 2.722 2.696m-5.11 0a2.403 2.403 0 0 0 2.388 2.383c1.3 0 2.39-1.094 2.39-2.383 0-1.293-1.09-2.383-2.39-2.383a2.406 2.406 0 0 0-2.387 2.383"/></g><g clip-path="url(#x)"><path style="stroke:none;fill-rule:nonzero;fill:#878787;fill-opacity:1" d="M353.39 116.996h.016l1.551-4.484h.336l-1.91 5.425-1.887-5.425h.336Zm0 0"/></g><g clip-path="url(#y)"><path style="stroke:none;fill-rule:nonzero;fill:#878787;fill-opacity:1" d="m357.102 116.035-.704 1.727h-.34l2.2-5.422 2.191 5.422h-.34l-.703-1.727Zm1.156-2.847-1.031 2.535h2.054Zm0 0"/></g><g clip-path="url(#z)"><path style="stroke:none;fill-rule:nonzero;fill:#878787;fill-opacity:1" d="M365.988 112.512h.95c.765 0 1.37.125 1.949.66.55.516.836 1.219.836 1.973 0 .722-.282 1.414-.809 1.921-.578.559-1.2.696-1.976.696h-.95Zm.942 4.937c.687 0 1.261-.14 1.761-.633a2.366 2.366 0 0 0 .696-1.671c0-.668-.266-1.297-.758-1.747-.5-.453-1.047-.574-1.7-.574h-.605v4.625Zm0 0"/></g><g clip-path="url(#A)"><path style="stroke:none;fill-rule:nonzero;fill:#878787;fill-opacity:1" d="M372.254 112.824v1.91h2.117v.313h-2.117v2.402h2.172v.313h-2.508v-5.25h2.508v.312Zm0 0"/></g><g clip-path="url(#B)"><path style="stroke:none;fill-rule:nonzero;fill:#878787;fill-opacity:1" d="M380.727 117.45h1.336v.312h-1.672v-5.25h.336Zm0 0"/></g><g clip-path="url(#C)"><path style="stroke:none;fill-rule:nonzero;fill:#878787;fill-opacity:1" d="M384.059 117.762h.336v-5.25h-.336Zm0 0"/></g><g clip-path="url(#D)"><path style="stroke:none;fill-rule:nonzero;fill:#878787;fill-opacity:1" d="M389.344 113.375c-.239-.375-.57-.621-1.067-.621a.988.988 0 0 0-.988 1.004c0 .55.524.781.95.984l1 .52c.398.25.597.574.597 1.047 0 .87-.793 1.523-1.64 1.523-.731 0-1.301-.453-1.548-1.129l.293-.133c.223.559.633.95 1.266.95.691 0 1.297-.543 1.297-1.239 0-.594-.606-.844-1.059-1.066l-.949-.504c-.348-.215-.543-.52-.543-.938 0-.78.559-1.332 1.344-1.332.531 0 1.035.286 1.285.739Zm0 0"/></g><g clip-path="url(#E)"><path style="stroke:none;fill-rule:nonzero;fill:#878787;fill-opacity:1" d="M392.094 117.762v-5.25h1.05c.395 0 .774.027 1.086.308.32.278.438.668.438 1.086 0 .48-.188.836-.606 1.07a1.32 1.32 0 0 1 1.086 1.325c0 .426-.16.808-.488 1.086-.367.312-.758.375-1.223.375Zm.332-2.867h.578c.355 0 .64.02.941-.196.297-.215.387-.48.387-.844 0-.34-.129-.675-.43-.863-.265-.168-.593-.168-.898-.168h-.578Zm0 2.554h.8c.372 0 .754.016 1.075-.203.32-.215.515-.543.515-.933 0-.383-.191-.766-.543-.938-.32-.16-.761-.168-1.109-.168h-.738Zm0 0"/></g><g clip-path="url(#F)"><path style="stroke:none;fill-rule:nonzero;fill:#878787;fill-opacity:1" d="M402.547 115.137c0 1.476-1.246 2.695-2.719 2.695-1.476 0-2.723-1.219-2.723-2.695 0-1.477 1.239-2.696 2.723-2.696 1.473 0 2.719 1.22 2.719 2.696m-5.11 0c0 1.297 1.083 2.383 2.391 2.383 1.3 0 2.387-1.094 2.387-2.383 0-1.293-1.086-2.383-2.387-2.383-1.308 0-2.39 1.09-2.39 2.383"/></g><g clip-path="url(#G)"><path style="stroke:none;fill-rule:nonzero;fill:#878787;fill-opacity:1" d="m405.27 116.035-.704 1.727h-.343l2.203-5.422 2.191 5.422h-.34l-.703-1.727Zm1.156-2.847-1.031 2.535h2.054Zm0 0"/></g><use xlink:href="#H" x="205.986" y="316.325" style="fill:#000;fill-opacity:1"/><use xlink:href="#I" x="219.651" y="316.325" style="fill:#000;fill-opacity:1"/><use xlink:href="#J" x="229.215" y="316.325" style="fill:#000;fill-opacity:1"/><use xlink:href="#K" x="237.549" y="316.325" style="fill:#000;fill-opacity:1"/><use xlink:href="#L" x="243.486" y="316.325" style="fill:#000;fill-opacity:1"/><use xlink:href="#M" x="254.893" y="316.325" style="fill:#000;fill-opacity:1"/><use xlink:href="#N" x="262.81" y="316.325" style="fill:#000;fill-opacity:1"/><use xlink:href="#O" x="271.367" y="316.325" style="fill:#000;fill-opacity:1"/><use xlink:href="#P" x="280.039" y="316.325" style="fill:#000;fill-opacity:1"/><use xlink:href="#Q" x="292.105" y="316.325" style="fill:#000;fill-opacity:1"/><use xlink:href="#O" x="300.2" y="316.325" style="fill:#000;fill-opacity:1"/><use xlink:href="#R" x="308.872" y="316.325" style="fill:#000;fill-opacity:1"/><use xlink:href="#S" x="320.968" y="316.325" style="fill:#000;fill-opacity:1"/><use xlink:href="#T" x="324.879" y="316.325" style="fill:#000;fill-opacity:1"/><use xlink:href="#U" x="337.598" y="316.325" style="fill:#000;fill-opacity:1"/><use xlink:href="#K" x="346.421" y="316.325" style="fill:#000;fill-opacity:1"/><use xlink:href="#J" x="351.764" y="316.325" style="fill:#000;fill-opacity:1"/><use xlink:href="#V" x="360.104" y="316.325" style="fill:#000;fill-opacity:1"/><use xlink:href="#V" x="367.938" y="316.325" style="fill:#000;fill-opacity:1"/><g style="fill:#000;fill-opacity:1"><use xlink:href="#W" x="375.773" y="316.325"/><use xlink:href="#X" x="379.567" y="316.325"/></g><use xlink:href="#J" x="387.486" y="316.325" style="fill:#000;fill-opacity:1"/><use xlink:href="#Y" x="176.503" y="333.243" style="fill:#000;fill-opacity:1"/><use xlink:href="#Z" x="185.821" y="333.243" style="fill:#000;fill-opacity:1"/><use xlink:href="#J" x="194.53" y="333.243" style="fill:#000;fill-opacity:1"/><use xlink:href="#V" x="202.864" y="333.243" style="fill:#000;fill-opacity:1"/><g style="fill:#000;fill-opacity:1"><use xlink:href="#W" x="210.699" y="333.243"/><use xlink:href="#V" x="214.493" y="333.243"/></g><use xlink:href="#Y" x="225.567" y="333.243" style="fill:#000;fill-opacity:1"/><g style="fill:#000;fill-opacity:1"><use xlink:href="#W" x="234.885" y="333.243"/><use xlink:href="#aa" x="238.679" y="333.243"/></g><g style="fill:#000;fill-opacity:1"><use xlink:href="#ab" x="244.259" y="333.243"/><use xlink:href="#J" x="248.053" y="333.243"/></g><use xlink:href="#ac" x="259.622" y="333.243" style="fill:#000;fill-opacity:1"/><g style="fill:#000;fill-opacity:1"><use xlink:href="#W" x="271.48" y="333.243"/><use xlink:href="#aa" x="275.274" y="333.243"/></g><use xlink:href="#Z" x="280.848" y="333.243" style="fill:#000;fill-opacity:1"/><use xlink:href="#Q" x="292.791" y="333.243" style="fill:#000;fill-opacity:1"/><use xlink:href="#ad" x="304.121" y="333.243" style="fill:#000;fill-opacity:1"/><use xlink:href="#N" x="311.723" y="333.243" style="fill:#000;fill-opacity:1"/><use xlink:href="#K" x="320.28" y="333.243" style="fill:#000;fill-opacity:1"/><use xlink:href="#ae" x="325.628" y="333.243" style="fill:#000;fill-opacity:1"/><use xlink:href="#J" x="333.817" y="333.243" style="fill:#000;fill-opacity:1"/><use xlink:href="#R" x="342.156" y="333.243" style="fill:#000;fill-opacity:1"/><use xlink:href="#M" x="354.248" y="333.243" style="fill:#000;fill-opacity:1"/><g style="fill:#000;fill-opacity:1"><use xlink:href="#W" x="362.165" y="333.243"/><use xlink:href="#O" x="365.959" y="333.243"/></g><use xlink:href="#J" x="374.631" y="333.243" style="fill:#000;fill-opacity:1"/><use xlink:href="#af" x="386.2" y="333.243" style="fill:#000;fill-opacity:1"/><use xlink:href="#K" x="395.417" y="333.243" style="fill:#000;fill-opacity:1"/><use xlink:href="#J" x="400.765" y="333.243" style="fill:#000;fill-opacity:1"/><use xlink:href="#Q" x="409.099" y="333.243" style="fill:#000;fill-opacity:1"/><use xlink:href="#ag" x="417.194" y="333.243" style="fill:#000;fill-opacity:1"/><g style="fill:#000;fill-opacity:1"><use xlink:href="#ah" x="188.414" y="373.215"/><use xlink:href="#ai" x="198.438" y="373.215"/><use xlink:href="#aj" x="206.758" y="373.215"/><use xlink:href="#ak" x="214.543" y="373.215"/></g><use xlink:href="#ai" x="219.535" y="373.215" style="fill:#000;fill-opacity:1"/><use xlink:href="#al" x="227.86" y="373.215" style="fill:#000;fill-opacity:1"/><use xlink:href="#am" x="233.045" y="373.215" style="fill:#000;fill-opacity:1"/><use xlink:href="#ak" x="240.914" y="373.215" style="fill:#000;fill-opacity:1"/><use xlink:href="#an" x="245.906" y="373.215" style="fill:#000;fill-opacity:1"/><use xlink:href="#ao" x="257.955" y="373.215" style="fill:#000;fill-opacity:1"/><use xlink:href="#ap" x="261.258" y="373.215" style="fill:#000;fill-opacity:1"/><use xlink:href="#aq" x="273.348" y="373.215" style="fill:#000;fill-opacity:1"/><g style="fill:#000;fill-opacity:1"><use xlink:href="#ar" x="278.676" y="373.215"/><use xlink:href="#as" x="287.532" y="373.215"/><use xlink:href="#ah" x="295.773" y="373.215"/></g><g style="fill:#000;fill-opacity:1"><use xlink:href="#ar" x="309.72" y="373.215"/><use xlink:href="#al" x="318.576" y="373.215"/></g><g style="fill:#000;fill-opacity:1"><use xlink:href="#ai" x="323.528" y="373.215"/><use xlink:href="#at" x="331.849" y="373.215"/></g><g style="fill:#000;fill-opacity:1"><use xlink:href="#al" x="340.352" y="373.215"/><use xlink:href="#am" x="345.543" y="373.215"/><use xlink:href="#au" x="353.408" y="373.215"/></g><use xlink:href="#av" x="369.45" y="373.215" style="fill:#000;fill-opacity:1"/><g style="fill:#000;fill-opacity:1"><use xlink:href="#am" x="379.955" y="373.215"/><use xlink:href="#au" x="387.82" y="373.215"/></g><use xlink:href="#an" x="399.939" y="373.215" style="fill:#000;fill-opacity:1"/><use xlink:href="#aw" x="408.069" y="373.215" style="fill:#000;fill-opacity:1"/><g style="fill:#000;fill-opacity:1"><use xlink:href="#ax" x="226.145" y="574.553"/><use xlink:href="#ay" x="232.959" y="574.553"/></g><use xlink:href="#az" x="240.293" y="574.553" style="fill:#000;fill-opacity:1"/><use xlink:href="#aA" x="247.758" y="574.553" style="fill:#000;fill-opacity:1"/><use xlink:href="#aB" x="257.963" y="574.553" style="fill:#000;fill-opacity:1"/><use xlink:href="#aC" x="266.161" y="574.553" style="fill:#000;fill-opacity:1"/><use xlink:href="#aD" x="273.305" y="574.553" style="fill:#000;fill-opacity:1"/><use xlink:href="#aE" x="278.398" y="574.553" style="fill:#000;fill-opacity:1"/><use xlink:href="#aF" x="288.175" y="574.553" style="fill:#000;fill-opacity:1"/><use xlink:href="#ay" x="294.957" y="574.553" style="fill:#000;fill-opacity:1"/><use xlink:href="#aA" x="302.295" y="574.553" style="fill:#000;fill-opacity:1"/><use xlink:href="#aG" x="309.728" y="574.553" style="fill:#000;fill-opacity:1"/><use xlink:href="#aA" x="317.299" y="574.553" style="fill:#000;fill-opacity:1"/><use xlink:href="#aH" x="324.732" y="574.553" style="fill:#000;fill-opacity:1"/><use xlink:href="#aI" x="331.666" y="574.553" style="fill:#000;fill-opacity:1"/><use xlink:href="#aC" x="342.572" y="574.553" style="fill:#000;fill-opacity:1"/><use xlink:href="#aJ" x="352.488" y="574.553" style="fill:#000;fill-opacity:1"/><use xlink:href="#ay" x="361.184" y="574.553" style="fill:#000;fill-opacity:1"/><use xlink:href="#aC" x="368.518" y="574.553" style="fill:#000;fill-opacity:1"/><use xlink:href="#aK" x="256.942" y="777.656" style="fill:#000;fill-opacity:1"/><g style="fill:#000;fill-opacity:1"><use xlink:href="#aI" x="261.509" y="777.656"/><use xlink:href="#ay" x="272.411" y="777.656"/><use xlink:href="#aA" x="279.747" y="777.656"/><use xlink:href="#aL" x="287.18" y="777.656"/></g><use xlink:href="#az" x="291.964" y="777.656" style="fill:#000;fill-opacity:1"/><use xlink:href="#aM" x="299.425" y="777.656" style="fill:#000;fill-opacity:1"/><use xlink:href="#aN" x="303.992" y="777.656" style="fill:#000;fill-opacity:1"/><use xlink:href="#aK" x="309.978" y="777.656" style="fill:#000;fill-opacity:1"/><g style="fill:#000;fill-opacity:1"><use xlink:href="#aE" x="314.545" y="777.656"/><use xlink:href="#aC" x="321.333" y="777.656"/></g><use xlink:href="#aH" x="328.478" y="777.656" style="fill:#000;fill-opacity:1"/><use xlink:href="#aD" x="335.414" y="777.656" style="fill:#000;fill-opacity:1"/><use xlink:href="#aM" x="340.302" y="777.656" style="fill:#000;fill-opacity:1"/></svg>