<svg xmlns="http://www.w3.org/2000/svg" xmlns:xlink="http://www.w3.org/1999/xlink" width="1122.52" height="37.795" viewBox="0 0 841.89 28.346"><defs><path id="b" d="M2.11-.906 5.577-4.25C6.953-5.562 7.25-6.422 7.25-7.39c0-1.657-1.312-2.688-3.375-2.688-1.562 0-2.828.515-3.61 1.422L1-8.031c.672-.75 1.594-1.11 2.781-1.11 1.563 0 2.39.72 2.39 1.875 0 .688-.218 1.36-1.359 2.47L.563-.735V0H7.72v-.906Zm0 0"/><path id="c" d="M4.813.078C7.172.078 8.89-1.812 8.89-5c0-3.187-1.72-5.078-4.078-5.078C2.469-10.078.75-8.188.75-5S2.469.078 4.813.078m0-.937C3.047-.86 1.828-2.33 1.828-5s1.219-4.14 2.984-4.14c1.782 0 3 1.468 3 4.14s-1.218 4.14-3 4.14m0 0"/><path id="D" d="M2.75.078c1.953 0 2.969-1.031 2.969-3.156V-10H.938v.922h3.718v6.047c0 1.469-.64 2.203-1.89 2.203-.907 0-1.641-.422-2.203-1.235l-.641.72C.547-.423 1.609.077 2.75.077m0 0"/><path id="E" d="M4.578.078c2.234 0 3.875-1.61 3.875-3.828 0-2.234-1.64-3.812-3.875-3.812-2.25 0-3.906 1.578-3.906 3.812C.672-1.531 2.328.078 4.578.078m0-.906c-1.64 0-2.86-1.172-2.86-2.922 0-1.766 1.22-2.937 2.86-2.937 1.625 0 2.828 1.171 2.828 2.937C7.406-2 6.203-.828 4.578-.828m0 0"/><path id="F" d="M5.344-7.562c-1.297 0-2.297.5-2.875 1.359v-4.39H1.438V0h1.03v-3.937c0-1.72 1.048-2.72 2.688-2.72 1.453 0 2.297.813 2.297 2.407V0h1.031v-4.36c0-2.156-1.28-3.202-3.14-3.202m0 0"/><path id="G" d="M5.344-7.562c-1.328 0-2.36.515-2.907 1.437v-1.39h-1V0H2.47v-3.937c0-1.72 1.047-2.72 2.687-2.72 1.453 0 2.297.813 2.297 2.407V0h1.031v-4.36c0-2.156-1.28-3.202-3.14-3.202m0 0"/><path id="H" d="M1.656 0h4.157c3.265 0 5.453-2.062 5.453-5 0-2.937-2.188-5-5.453-5H1.656Zm1.078-.906v-8.172H5.75c2.703 0 4.453 1.687 4.453 4.078 0 2.406-1.75 4.094-4.453 4.094Zm0 0"/><path id="I" d="M8.125-3.75c0-2.266-1.562-3.812-3.719-3.812S.672-5.984.672-3.75C.672-1.531 2.297.078 4.688.078c1.203 0 2.265-.437 2.953-1.234l-.578-.657c-.579.657-1.407.985-2.344.985-1.672 0-2.89-1.047-3.016-2.61H8.11c0-.124.016-.234.016-.312M4.406-6.703c1.5 0 2.594 1.031 2.735 2.5H1.703c.125-1.469 1.219-2.5 2.703-2.5m0 0"/><path id="d" d="M8.64 0h1.063L5.36-9.672h-1L.031 0h1.047l1.125-2.578H7.5ZM2.579-3.422 4.86-8.609l2.282 5.187Zm0 0"/><path id="e" d="M8.422-9.672 4.766-1.266 1.125-9.672H.047L4.25 0h.984l4.204-9.672Zm0 0"/><path id="f" d="M7.563-3.64c0-2.188-1.454-3.688-3.454-3.688S.625-5.797.625-3.641C.625-1.484 2.141.063 4.359.063c1.141 0 2.125-.407 2.766-1.188l-.547-.625c-.547.625-1.312.953-2.187.953-1.563 0-2.703-1.015-2.797-2.531h5.953c0-.11.016-.219.016-.313M4.108-6.485c1.391 0 2.422 1 2.532 2.422H1.594c.11-1.422 1.125-2.422 2.515-2.422m0 0"/><path id="g" d="M2.266-5.844V-7.28h-.922V0h.968v-3.703c0-1.719.907-2.688 2.391-2.688.078 0 .156.016.234.016v-.953c-1.312 0-2.218.516-2.671 1.484m0 0"/><path id="h" d="M6.39-7.281 3.704-1.094 1.016-7.28h-1L3.203-.016l-.312.704c-.407.921-.844 1.218-1.485 1.218C.891 1.906.47 1.72.11 1.36l-.453.735c.438.437 1.078.656 1.735.656 1.03 0 1.78-.453 2.375-1.875l3.578-8.156Zm0 0"/><path id="i" d="M1.547 0h6.312v-.89H2.547v-8.782h-1Zm0 0"/><path id="j" d="M4.266.063c2.078 0 3.609-1.547 3.609-3.704s-1.531-3.687-3.61-3.687c-2.093 0-3.64 1.531-3.64 3.687 0 2.157 1.547 3.704 3.64 3.704m0-.86c-1.532 0-2.672-1.14-2.672-2.844s1.14-2.828 2.672-2.828c1.515 0 2.64 1.125 2.64 2.828 0 1.704-1.125 2.844-2.64 2.844m0 0"/><path id="k" d="M4.984-7.328c-1.234 0-2.203.516-2.718 1.39V-7.28h-.922V0h.968v-3.812c0-1.657.954-2.625 2.485-2.625 1.36 0 2.14.78 2.14 2.312V0h.97v-4.219c0-2.093-1.188-3.11-2.923-3.11m0 0"/><path id="l" d="M7.031-7.281v1.406c-.61-.953-1.64-1.453-2.828-1.453-2.031 0-3.578 1.422-3.578 3.516 0 2.078 1.547 3.53 3.578 3.53 1.172 0 2.188-.484 2.781-1.405v.921c0 1.797-.828 2.641-2.625 2.641-1.109 0-2.14-.375-2.812-.984l-.484.734c.734.719 2.015 1.125 3.312 1.125 2.36 0 3.578-1.125 3.578-3.64v-6.391Zm-2.734 6.14c-1.578 0-2.703-1.093-2.703-2.671 0-1.579 1.125-2.657 2.703-2.657S7.016-5.39 7.016-3.812s-1.141 2.671-2.72 2.671m0 0"/><path id="m" d="M3.844-7.328c-1.125 0-2.188.36-2.906.984l.437.735c.578-.532 1.453-.86 2.375-.86 1.328 0 2.016.672 2.016 1.922v.438H3.5c-2.047 0-2.75.937-2.75 2.062 0 1.266.984 2.11 2.594 2.11 1.187 0 2.031-.454 2.469-1.204V0h.921v-4.516c0-1.875-1.046-2.812-2.89-2.812M3.5-.703c-1.14 0-1.812-.531-1.812-1.375 0-.75.453-1.297 1.843-1.297h2.235v1.188C5.39-1.235 4.578-.703 3.5-.703m0 0"/><path id="n" d="M6.89-10.266v4.375c-.593-.937-1.577-1.437-2.718-1.437-2.031 0-3.547 1.5-3.547 3.687C.625-1.437 2.141.063 4.172.063c1.187 0 2.172-.516 2.766-1.5V0h.921v-10.266ZM4.267-.796c-1.532 0-2.672-1.141-2.672-2.845 0-1.703 1.14-2.828 2.672-2.828 1.5 0 2.64 1.125 2.64 2.828 0 1.704-1.14 2.844-2.64 2.844m0 0"/><path id="o" d="M1.547 0h1v-9.672h-1Zm0 0"/><path id="p" d="M10.234-7.328c-1.28 0-2.296.594-2.812 1.531-.438-1.016-1.36-1.531-2.547-1.531s-2.11.516-2.61 1.375v-1.328h-.921V0h.968v-3.812c0-1.657.922-2.625 2.376-2.625 1.312 0 2.062.78 2.062 2.312V0h.969v-3.812c0-1.657.922-2.625 2.39-2.625 1.282 0 2.047.78 2.047 2.312V0h.953v-4.219c0-2.093-1.14-3.11-2.875-3.11m0 0"/><path id="q" d="M5.016-7.328c-1.172 0-2.172.531-2.75 1.5v-1.453h-.922v9.968h.968v-4.062C2.907-.422 3.875.063 5.017.063c2.03 0 3.562-1.485 3.562-3.704 0-2.187-1.531-3.687-3.562-3.687M4.953-.797c-1.516 0-2.656-1.14-2.656-2.844 0-1.687 1.14-2.828 2.656-2.828 1.5 0 2.656 1.14 2.656 2.828 0 1.704-1.156 2.844-2.656 2.844m0 0"/><path id="r" d="M3.25.063C5.11.063 6.203-.75 6.203-2c0-2.797-4.625-1.312-4.625-3.281 0-.688.563-1.203 1.86-1.203.718 0 1.468.172 2.093.625l.422-.797c-.594-.407-1.594-.672-2.516-.672C1.61-7.328.61-6.438.61-5.25c0 2.875 4.625 1.375 4.625 3.266 0 .718-.562 1.203-1.906 1.203-1.015 0-1.969-.36-2.547-.828L.36-.83c.579.517 1.72.892 2.891.892m0 0"/><path id="s" d="M1.828-8.86a.704.704 0 0 0 .703-.718.697.697 0 0 0-.703-.688.71.71 0 0 0-.703.704.71.71 0 0 0 .703.703M1.344 0h.968v-7.281h-.968Zm0 0"/><path id="t" d="M6.39-7.281 3.689-1.078 1.015-7.281h-1L3.172 0h.984l3.188-7.281Zm0 0"/><path id="u" d="M3.39 0h1v-8.797h3.344v-.875H.047v.875H3.39Zm0 0"/><path id="v" d="M4.984-7.328c-1.218 0-2.156.484-2.671 1.328v-4.266h-.97V0h.97v-3.812c0-1.657.953-2.625 2.484-2.625 1.36 0 2.14.78 2.14 2.312V0h.97v-4.219c0-2.093-1.188-3.11-2.923-3.11m0 0"/><path id="w" d="M4.766-1.14c-.282.234-.672.359-1.063.359-.797 0-1.234-.469-1.234-1.328v-4.328H4.64v-.844H2.469V-8.86H1.5v1.578H.234v.843H1.5v4.391c0 1.344.75 2.11 2.094 2.11.562 0 1.125-.157 1.5-.5Zm0 0"/><path id="x" d="M1.344 0h.968v-10.266h-.968Zm0 0"/><path id="y" d="M10.938-7.281 8.672-1.094 6.39-7.28h-.828L3.266-1.094 1.03-7.28H.11L2.797 0h.906l2.25-5.953L8.203 0h.906l2.704-7.281Zm0 0"/><path id="z" d="M8.063-8.797v-.875H1.547V0h1v-4.11h4.906v-.874H2.547v-3.813Zm0 0"/><path id="A" d="M4.297.063C5.5.063 6.53-.422 7.094-1.375l-.719-.484c-.484.718-1.25 1.062-2.078 1.062-1.563 0-2.703-1.125-2.703-2.844 0-1.703 1.14-2.828 2.703-2.828.828 0 1.594.344 2.078 1.078l.719-.5C6.53-6.844 5.5-7.328 4.297-7.328 2.172-7.328.625-5.812.625-3.641.625-1.469 2.172.063 4.297.063m0 0"/><path id="B" d="M7.531-4.984c.86-.36 1.453-1.094 1.453-2.203 0-1.579-1.234-2.485-3.343-2.485H1.547V0h4.36C8.28 0 9.483-.937 9.483-2.578c0-1.328-.734-2.14-1.953-2.406m-1.953-3.86c1.516 0 2.39.61 2.39 1.766s-.874 1.75-2.39 1.75H2.547v-3.516Zm.328 8h-3.36v-3.64h3.36c1.657 0 2.563.562 2.563 1.812 0 1.281-.906 1.828-2.563 1.828m0 0"/><path id="C" d="M6.86 0h1.187L4.703-4.297 7.75-7.28H6.563l-4.25 3.968v-6.953h-.97V0h.97v-2.078l1.671-1.578Zm0 0"/><clipPath id="a"><path d="M18.664 0h804.348v27.082H18.664Zm0 0"/></clipPath><clipPath id="J"><path d="M760 2.594h.121v.34H760Zm0 0"/></clipPath><clipPath id="K"><path d="M760.121 2.594H761v.34h-.879Zm0 0"/></clipPath><clipPath id="L"><path d="M761.098 2.594H762v.34h-.902Zm0 0"/></clipPath><clipPath id="M"><path d="M762.074 2.594H763v.34h-.926Zm0 0"/></clipPath><clipPath id="N"><path d="M763.05 2.594h.95v.34h-.95Zm0 0"/></clipPath><clipPath id="O"><path d="M763.05 2.594H765v.34h-1.95Zm0 0"/></clipPath><clipPath id="P"><path d="M764.031 2.594H765v.34h-.969Zm0 0"/></clipPath><clipPath id="Q"><path d="M765.008 2.594h.976v.34h-.976Zm0 0"/></clipPath><clipPath id="R"><path d="M766 2.594h.96v.34H766Zm0 0"/></clipPath><clipPath id="S"><path d="M747.465 5.863H757v9.778h-9.535Zm0 0"/></clipPath><clipPath id="T"><path d="M777 5.863h10.25v9.778H777Zm0 0"/></clipPath><clipPath id="U"><path d="M747.465 21.504H749v2.726h-1.535Zm0 0"/></clipPath><clipPath id="V"><path d="M749 21.504h2v2.726h-2Zm0 0"/></clipPath><clipPath id="W"><path d="M751 22h1v2.23h-1Zm0 0"/></clipPath><clipPath id="X"><path d="M752 22h1.277v2.23H752Zm0 0"/></clipPath><clipPath id="Y"><path d="M747.465 18H750v3h-2.535Zm0 0"/></clipPath><clipPath id="Z"><path d="M753.277 21.504H756v2.726h-2.723Zm0 0"/></clipPath><clipPath id="aa"><path d="M755.23 21.504H758v2.726h-2.77Zm0 0"/></clipPath><clipPath id="ab"><path d="M757.188 22h1.953v2.23h-1.953Zm0 0"/></clipPath><clipPath id="ac"><path d="M760.121 21.504H763v2.726h-2.879Zm0 0"/></clipPath><clipPath id="ad"><path d="M763 22h2v2.23h-2Zm0 0"/></clipPath><clipPath id="ae"><path d="M764.031 22h1.953v2.23h-1.953Zm0 0"/></clipPath><clipPath id="af"><path d="M766 21.504h1.938v2.726H766Zm0 0"/></clipPath><clipPath id="ag"><path d="M768 22h1.895v2.23H768Zm0 0"/></clipPath><clipPath id="ah"><path d="M770 21.504h2.828v2.726H770Zm0 0"/></clipPath><clipPath id="ai"><path d="M772 21.504h2.781v2.726H772Zm0 0"/></clipPath><clipPath id="aj"><path d="M775 22h1.734v2.23H775Zm0 0"/></clipPath><clipPath id="ak"><path d="M776 21.504h2.691v2.726H776Zm0 0"/></clipPath><clipPath id="al"><path d="M778 21.504h3v2.726h-3Zm0 0"/></clipPath><clipPath id="am"><path d="M780.645 22h1.957v2.23h-1.957Zm0 0"/></clipPath></defs><g clip-path="url(#a)"><path fill="#fff" d="M18.664 0h804.348v27.082H18.664Zm0 0"/></g><use xlink:href="#b" x="33.793" y="19.087"/><use xlink:href="#c" x="42.064" y="19.087"/><use xlink:href="#c" x="51.705" y="19.087"/><use xlink:href="#c" x="61.346" y="19.087"/><use xlink:href="#d" x="86.304" y="17.869"/><use xlink:href="#e" x="100.632" y="17.869"/><use xlink:href="#f" x="109.343" y="17.869"/><use xlink:href="#g" x="117.538" y="17.869"/><use xlink:href="#h" x="123.183" y="17.869"/><use xlink:href="#i" x="135.137" y="17.869"/><use xlink:href="#j" x="143.034" y="17.869"/><use xlink:href="#k" x="151.541" y="17.869"/><use xlink:href="#l" x="160.727" y="17.869"/><use xlink:href="#m" x="174.635" y="17.869"/><use xlink:href="#k" x="182.64" y="17.869"/><use xlink:href="#n" x="191.826" y="17.869"/><use xlink:href="#o" x="205.639" y="17.869"/><use xlink:href="#p" x="209.737" y="17.869"/><use xlink:href="#q" x="224.133" y="17.869"/><use xlink:href="#g" x="233.333" y="17.869"/><use xlink:href="#f" x="238.597" y="17.869"/><use xlink:href="#r" x="246.793" y="17.869"/><use xlink:href="#r" x="253.428" y="17.869"/><use xlink:href="#s" x="260.063" y="17.869"/><use xlink:href="#t" x="263.713" y="17.869"/><use xlink:href="#f" x="270.85" y="17.869"/><use xlink:href="#u" x="283.645" y="17.869"/><use xlink:href="#v" x="291.433" y="17.869"/><use xlink:href="#f" x="300.619" y="17.869"/><use xlink:href="#r" x="308.814" y="17.869"/><use xlink:href="#s" x="315.45" y="17.869"/><use xlink:href="#r" x="319.099" y="17.869"/><use xlink:href="#u" x="330.348" y="17.869"/><use xlink:href="#s" x="338.136" y="17.869"/><use xlink:href="#w" x="341.786" y="17.869"/><use xlink:href="#x" x="347.295" y="17.869"/><use xlink:href="#f" x="350.945" y="17.869"/><use xlink:href="#y" x="363.754" y="17.869"/><use xlink:href="#s" x="375.68" y="17.869"/><use xlink:href="#w" x="379.33" y="17.869"/><use xlink:href="#v" x="384.839" y="17.869"/><use xlink:href="#m" x="398.638" y="17.869"/><use xlink:href="#z" x="411.244" y="17.869"/><use xlink:href="#j" x="419.588" y="17.869"/><use xlink:href="#g" x="428.096" y="17.869"/><use xlink:href="#A" x="433.36" y="17.869"/><use xlink:href="#f" x="440.877" y="17.869"/><use xlink:href="#n" x="449.073" y="17.869"/><use xlink:href="#i" x="462.858" y="17.869"/><use xlink:href="#s" x="470.85" y="17.869"/><use xlink:href="#k" x="474.5" y="17.869"/><use xlink:href="#f" x="483.686" y="17.869"/><use xlink:href="#B" x="496.495" y="17.869"/><use xlink:href="#g" x="506.726" y="17.869"/><use xlink:href="#f" x="512.004" y="17.869"/><use xlink:href="#m" x="519.982" y="17.869"/><use xlink:href="#C" x="527.988" y="17.869"/><use xlink:href="#D" x="581.612" y="19.087"/><use xlink:href="#E" x="588.908" y="19.087"/><use xlink:href="#F" x="598.04" y="19.087"/><use xlink:href="#G" x="607.899" y="19.087"/><use xlink:href="#H" x="622.506" y="19.087"/><use xlink:href="#E" x="634.535" y="19.087"/><use xlink:href="#I" x="643.666" y="19.087"/><g clip-path="url(#J)"><path fill="#0071bb" d="M760.082 2.707c.012 0 .023-.012.023-.027 0-.016-.011-.028-.023-.028a.027.027 0 0 0-.027.028c0 .015.011.027.027.027"/></g><g clip-path="url(#K)"><path fill="#0071bb" d="M760.863 2.73c.032 0 .055-.023.055-.05 0-.032-.023-.051-.055-.051-.027 0-.047.02-.047.05 0 .028.02.051.047.051"/></g><g clip-path="url(#L)"><path fill="#0071bb" d="M761.648 2.754a.07.07 0 0 0 .075-.074.072.072 0 0 0-.075-.075c-.039 0-.07.032-.07.075s.031.074.07.074"/></g><g clip-path="url(#M)"><path fill="#0071bb" d="M762.438 2.762c.046 0 .078-.035.078-.082s-.032-.082-.078-.082a.083.083 0 0 0-.086.082c0 .047.039.082.086.082"/></g><g clip-path="url(#N)"><path fill="#0071bb" d="M763.219 2.77a.09.09 0 0 0 .09-.09c0-.051-.04-.086-.09-.086a.083.083 0 0 0-.082.086c0 .047.039.09.082.09"/></g><g clip-path="url(#O)"><path fill="#0071bb" d="M764.008 2.762c.043 0 .078-.04.078-.082a.076.076 0 0 0-.078-.078c-.047 0-.082.03-.082.078 0 .043.035.082.082.082"/></g><g clip-path="url(#P)"><path fill="#0071bb" d="M764.793 2.746a.07.07 0 0 0 .066-.066c0-.04-.03-.063-.066-.063-.04 0-.066.024-.066.063 0 .035.027.066.066.066"/></g><g clip-path="url(#Q)"><path fill="#0071bb" d="M765.578 2.723c.024 0 .043-.02.043-.043 0-.024-.02-.047-.043-.047s-.043.023-.043.047c0 .023.02.043.043.043"/></g><g clip-path="url(#R)"><path fill="#0071bb" d="M766.363 2.695a.02.02 0 0 0 .016-.015.02.02 0 0 0-.016-.016.02.02 0 0 0-.015.016c0 .007.007.015.015.015"/></g><path fill="#0071bb" d="M758.508 3.484c.012 0 .023-.004.023-.015 0-.016-.011-.024-.023-.024s-.024.008-.024.024c0 .011.012.015.024.015M759.293 3.531c.035 0 .066-.031.066-.062 0-.04-.03-.07-.066-.07-.035 0-.063.03-.063.07 0 .031.028.062.063.062M760.082 3.566a.1.1 0 0 0 .098-.097c0-.059-.043-.106-.098-.106a.105.105 0 0 0-.105.106c0 .05.046.097.105.097M760.863 3.598a.134.134 0 0 0 .133-.13.135.135 0 0 0-.133-.136c-.07 0-.129.063-.129.137 0 .066.059.129.13.129M761.648 3.617a.153.153 0 0 0 .157-.148c0-.09-.07-.153-.157-.153a.15.15 0 1 0 0 .301M762.438 3.629a.162.162 0 0 0 0-.324.16.16 0 0 0-.165.164c0 .086.07.16.164.16M763.219 3.633a.17.17 0 0 0 .168-.164.166.166 0 1 0-.168.164M764.008 3.625a.16.16 0 0 0 .16-.156.16.16 0 0 0-.16-.16c-.09 0-.164.07-.164.16 0 .086.074.156.164.156M764.793 3.613a.147.147 0 0 0 0-.293.143.143 0 0 0-.145.149c0 .078.063.144.145.144M765.578 3.586a.12.12 0 0 0 .121-.117.123.123 0 0 0-.12-.125.123.123 0 0 0-.122.125c0 .062.055.117.121.117M766.363 3.555c.051 0 .09-.04.09-.086 0-.055-.039-.094-.09-.094s-.093.04-.093.094c0 .047.043.086.093.086M767.148 3.516c.028 0 .055-.024.055-.047a.056.056 0 0 0-.055-.055.053.053 0 0 0-.054.055c0 .023.023.047.054.047M767.934 3.473l.004-.004c0-.004-.004-.008-.004-.008q-.005.001-.004.008s0 .004.004.004M757.723 4.29c.023 0 .039-.017.039-.04 0-.02-.016-.035-.04-.035a.035.035 0 0 0-.034.035c0 .023.015.04.035.04M758.508 4.34c.05 0 .094-.043.094-.09a.095.095 0 0 0-.094-.094c-.051 0-.09.043-.09.094 0 .047.039.09.09.09M759.293 4.387a.136.136 0 0 0 .137-.137.135.135 0 0 0-.137-.133.135.135 0 0 0-.137.133c0 .078.063.137.137.137M760.082 4.426a.177.177 0 0 0 .172-.176.17.17 0 0 0-.172-.172.17.17 0 0 0-.176.172c0 .094.074.176.176.176M760.863 4.453a.2.2 0 0 0 .203-.203.2.2 0 0 0-.203-.203c-.11 0-.203.09-.203.203s.094.203.203.203M761.648 4.477a.227.227 0 0 0 .227-.227.23.23 0 0 0-.227-.227.23.23 0 0 0-.222.227c0 .125.101.227.222.227M762.438 4.488a.238.238 0 0 0 0-.477.24.24 0 0 0-.239.239c0 .133.106.238.239.238M763.219 4.492a.24.24 0 0 0 .242-.242.243.243 0 0 0-.242-.242.24.24 0 0 0-.235.242.24.24 0 0 0 .235.242M764.008 4.484c.129 0 .23-.105.23-.234a.234.234 0 0 0-.23-.234.235.235 0 0 0-.235.234c0 .129.102.234.235.234M764.793 4.469a.22.22 0 0 0 .219-.219.224.224 0 0 0-.219-.219.218.218 0 1 0 0 .438M765.578 4.445c.11 0 .192-.09.192-.195a.19.19 0 0 0-.192-.195.19.19 0 0 0-.191.195c0 .105.082.195.191.195M766.363 4.41c.09 0 .16-.07.16-.16s-.07-.16-.16-.16-.16.07-.16.16.07.16.16.16M767.148 4.371a.12.12 0 0 0 .122-.121.12.12 0 0 0-.122-.121.12.12 0 0 0-.12.121c0 .07.05.121.12.121M767.934 4.328c.039 0 .074-.035.074-.078a.077.077 0 0 0-.074-.074.077.077 0 0 0-.075.074c0 .043.036.078.075.078M768.719 4.27q.018-.001.02-.02-.002-.019-.02-.02c-.008 0-.02.008-.02.02s.012.02.02.02M756.938 5.074c.019 0 .035-.02.035-.039 0-.02-.016-.039-.035-.039s-.036.02-.036.04c0 .019.016.038.035.038M757.723 5.137a.103.103 0 0 0 .101-.102.1.1 0 0 0-.101-.098.1.1 0 0 0-.102.098c0 .055.047.102.102.102M758.508 5.188c.09 0 .156-.067.156-.153a.157.157 0 0 0-.156-.156.16.16 0 0 0-.153.156c0 .086.07.152.153.152M759.293 5.234c.113 0 .2-.086.2-.199a.2.2 0 0 0-.2-.203c-.11 0-.2.094-.2.203 0 .113.09.2.2.2M760.082 5.277a.24.24 0 0 0 .234-.242.236.236 0 0 0-.234-.238.24.24 0 1 0 0 .48M760.863 5.305a.27.27 0 0 0 .27-.27.267.267 0 0 0-.27-.265.266.266 0 0 0-.265.265c0 .149.12.27.265.27M761.648 5.32a.285.285 0 1 0 0-.57.28.28 0 0 0-.285.285c0 .16.125.285.285.285M762.438 5.336a.3.3 0 0 0 0-.602.3.3 0 0 0-.305.301c0 .168.137.3.304.3M763.219 5.34a.305.305 0 0 0 0-.61c-.168 0-.301.137-.301.305s.133.305.3.305M764.008 5.332a.297.297 0 1 0 0-.594.3.3 0 0 0-.301.297.3.3 0 0 0 .3.297M764.793 5.316a.28.28 0 0 0 .281-.28.28.28 0 0 0-.281-.282.28.28 0 0 0-.281.281.28.28 0 0 0 .281.281M765.578 5.297c.14 0 .258-.121.258-.262a.26.26 0 0 0-.258-.258.255.255 0 0 0-.258.258c0 .14.114.262.258.262M766.363 5.262a.223.223 0 0 0 .223-.227.22.22 0 0 0-.223-.223.223.223 0 0 0-.226.223c0 .125.101.227.226.227M767.148 5.219a.183.183 0 1 0 0-.367.183.183 0 0 0 0 .367M767.934 5.168a.135.135 0 0 0 .136-.133.135.135 0 0 0-.136-.133.135.135 0 0 0-.137.133c0 .074.062.133.137.133M768.719 5.117c.047 0 .078-.035.078-.082s-.031-.078-.078-.078c-.043 0-.082.031-.082.078s.039.082.082.082M769.504 5.05a.02.02 0 0 0 .016-.015.02.02 0 0 0-.016-.015.02.02 0 0 0-.016.015c0 .008.008.016.016.016M756.152 5.8c-.011 0-.023.009-.023.024 0 .012.012.02.023.02.012 0 .024-.008.024-.02 0-.015-.012-.023-.024-.023M756.938 5.914c.05 0 .093-.043.093-.09a.092.092 0 1 0-.184 0c0 .047.044.09.09.09M757.723 5.977c.086 0 .156-.07.156-.153 0-.09-.07-.156-.156-.156a.15.15 0 0 0-.153.156c0 .082.067.153.153.153M758.508 6.027c.117 0 .21-.09.21-.203a.21.21 0 0 0-.21-.21.21.21 0 0 0-.211.21c0 .114.098.203.21.203M759.293 6.078a.258.258 0 0 0 0-.516.26.26 0 0 0-.254.262c0 .14.113.254.254.254M760.082 6.117c.16 0 .293-.133.293-.293a.3.3 0 0 0-.293-.3.3.3 0 0 0-.297.3c0 .16.133.293.297.293M760.863 6.148a.323.323 0 1 0 0-.648.323.323 0 1 0 0 .648M761.648 6.168a.35.35 0 0 0 .352-.344.35.35 0 0 0-.352-.351.348.348 0 0 0 0 .695M762.438 6.18a.36.36 0 0 0 0-.719.36.36 0 1 0 0 .719M763.219 6.184a.363.363 0 1 0 0-.727c-.2 0-.364.164-.364.367 0 .2.165.36.364.36M764.008 6.176c.199 0 .36-.16.36-.352 0-.199-.161-.36-.36-.36a.355.355 0 1 0 0 .712M764.793 6.168c.191 0 .344-.16.344-.344a.34.34 0 0 0-.344-.344.34.34 0 0 0-.344.344c0 .184.153.344.344.344M765.578 6.14a.318.318 0 1 0-.32-.316c0 .176.14.317.32.317M766.363 6.105a.28.28 0 0 0 .282-.28.287.287 0 0 0-.282-.29.29.29 0 0 0-.285.29c0 .155.129.28.285.28M767.148 6.063a.24.24 0 0 0 .243-.239.244.244 0 0 0-.243-.246.244.244 0 0 0-.242.246c0 .133.11.239.242.239M767.934 6.008a.184.184 0 0 0 .187-.184.186.186 0 0 0-.187-.191.186.186 0 0 0-.188.191c0 .102.082.184.188.184M768.664 5.941h.11c.042-.023.078-.07.078-.117a.14.14 0 0 0-.133-.136c-.074 0-.13.062-.13.136 0 .047.028.094.075.117M769.504 5.89c.039 0 .07-.03.07-.066 0-.039-.031-.074-.07-.074s-.067.035-.067.074c0 .035.028.067.067.067M756.938 6.742a.136.136 0 0 0 .136-.137.14.14 0 0 0-.136-.132.14.14 0 0 0-.137.132c0 .079.062.137.136.137M757.723 6.809c.109 0 .203-.094.203-.204s-.094-.199-.203-.199a.2.2 0 0 0-.2.2c0 .109.09.203.2.203M758.508 6.863a.258.258 0 1 0 0-.515.257.257 0 0 0-.254.257c0 .145.113.258.254.258M759.293 6.91a.31.31 0 0 0 .309-.305.31.31 0 0 0-.309-.304.305.305 0 0 0 0 .61M760.082 6.953a.345.345 0 0 0 .344-.348.34.34 0 0 0-.344-.343.346.346 0 1 0 0 .691M765.578 6.977a.37.37 0 0 0 .367-.372.367.367 0 1 0-.734 0c0 .207.164.372.367.372M766.363 6.941a.333.333 0 0 0 .332-.336.332.332 0 1 0-.664 0c0 .188.149.336.332.336M767.148 6.895a.288.288 0 0 0 0-.575.284.284 0 0 0-.285.285c0 .16.125.29.285.29M767.934 6.848a.24.24 0 0 0 0-.48.24.24 0 0 0 0 .48M768.719 6.79a.18.18 0 0 0 .18-.165l-.067-.156a.2.2 0 0 0-.113-.043.18.18 0 0 0-.18.18c0 .097.078.183.18.183M756.938 7.566a.17.17 0 0 0 .171-.175.174.174 0 0 0-.172-.176.18.18 0 0 0-.175.176c0 .097.082.175.176.175M757.723 7.633a.24.24 0 0 0 .238-.242.237.237 0 0 0-.238-.239.24.24 0 0 0-.239.239c0 .132.11.242.239.242M758.508 7.691a.3.3 0 0 0 .297-.3.297.297 0 0 0-.297-.297.293.293 0 0 0-.293.297c0 .164.129.3.293.3M759.293 7.738a.348.348 0 0 0 0-.695.348.348 0 0 0 0 .695M767.148 7.723a.332.332 0 1 0 .001-.664.332.332 0 0 0 0 .664M767.934 7.668a.276.276 0 1 0 0-.55.275.275 0 1 0 0 .55M768.719 7.61a.216.216 0 0 0 .218-.22.22.22 0 0 0-.218-.214.22.22 0 0 0-.219.215c0 .125.102.218.219.218M756.938 8.379a.2.2 0 0 0 .203-.2.2.2 0 0 0-.203-.202c-.114 0-.2.085-.2.203 0 .11.086.199.2.199M757.723 8.445a.27.27 0 0 0 .27-.265.27.27 0 0 0-.27-.27.273.273 0 0 0-.27.27c0 .144.125.265.27.265M758.508 8.504a.323.323 0 1 0 0-.649.323.323 0 1 0 0 .649M767.148 8.535c.2 0 .364-.16.364-.355a.363.363 0 1 0-.727 0c0 .195.164.355.363.355M767.934 8.484a.31.31 0 0 0 .308-.304.31.31 0 0 0-.617 0c0 .168.137.304.309.304M768.719 8.426a.248.248 0 0 0 0-.496.25.25 0 0 0-.25.25c0 .136.113.246.25.246M769.504 8.36a.18.18 0 0 0 .11-.04l-.137-.316a.18.18 0 0 0-.153.176c0 .097.082.18.18.18M756.938 9.188a.227.227 0 0 0 .226-.227.226.226 0 0 0-.226-.223.223.223 0 0 0-.223.223c0 .125.097.226.222.226M757.723 9.25a.288.288 0 1 0 0-.574.29.29 0 0 0-.29.285c0 .16.133.289.29.289M758.508 9.313a.347.347 0 0 0 .347-.352.348.348 0 0 0-.695 0 .35.35 0 0 0 .348.351M767.934 9.293a.33.33 0 0 0 .328-.332.33.33 0 0 0-.328-.328.333.333 0 0 0-.332.328c0 .184.152.332.332.332M768.719 9.23a.267.267 0 0 0 .265-.27.266.266 0 0 0-.265-.265.27.27 0 0 0-.27.266c0 .148.125.27.27.27M769.504 9.164a.2.2 0 1 0 .004-.403.2.2 0 0 0-.004.403M756.938 9.984a.236.236 0 1 0 0-.472.233.233 0 0 0-.235.238c0 .129.102.234.235.234M757.723 10.05a.303.303 0 1 0 0-.605.305.305 0 0 0-.305.305c0 .168.14.3.305.3M758.508 10.11c.199 0 .363-.165.363-.36 0-.2-.164-.363-.363-.363-.2 0-.363.164-.363.363 0 .195.164.36.363.36M767.934 10.09a.343.343 0 1 0 0-.688.34.34 0 0 0-.34.348c0 .188.152.34.34.34M768.719 10.027a.276.276 0 0 0 .277-.277.277.277 0 1 0-.555 0c0 .152.125.277.278.277M769.504 9.957c.121 0 .21-.09.21-.207s-.089-.21-.21-.21a.21.21 0 0 0-.211.21c0 .117.094.207.21.207M770.266 9.879l-.086-.203a.12.12 0 0 0-.028.074c0 .063.051.117.114.129M756.938 10.293a.24.24 0 0 0-.239.242c0 .133.106.238.239.238a.237.237 0 0 0 .238-.238.24.24 0 0 0-.239-.242M757.723 10.23a.305.305 0 1 0 0 .61.305.305 0 0 0 0-.61M758.508 10.168a.367.367 0 1 0-.001.733.367.367 0 0 0 0-.733"/><path fill="#0071bb" d="M766.781 11.18a.45.45 0 0 0-.21-.246.5.5 0 0 0 .21-.239.41.41 0 0 0 .317.239.38.38 0 0 0-.317.246m-.004-1.282a.41.41 0 0 0 .301.243.4.4 0 0 0-.297.234.48.48 0 0 0-.207-.238.44.44 0 0 0 .203-.239m-.789 2.86a.44.44 0 0 0-.195-.246.45.45 0 0 0 .2-.207.42.42 0 0 0 .257.203.42.42 0 0 0-.262.25m.004-1.2a.46.46 0 0 0 .192.165.4.4 0 0 0-.192.183.44.44 0 0 0-.152-.183.5.5 0 0 0 .152-.164m0-2.055a.46.46 0 0 0-.14-.156.5.5 0 0 0 .14-.168c.043.07.106.133.18.168a.43.43 0 0 0-.18.156m-.129.637a.5.5 0 0 0 .13-.145.44.44 0 0 0 .163.14.5.5 0 0 0-.164.145.6.6 0 0 0-.129-.14m.13.644a.46.46 0 0 0 .163.149.4.4 0 0 0-.164.148.4.4 0 0 0-.133-.148.5.5 0 0 0 .133-.149m0-2.445a.38.38 0 0 0 .23.215.45.45 0 0 0-.23.191.5.5 0 0 0-.183-.191.47.47 0 0 0 .183-.215m-.793 5.223a.45.45 0 0 0-.203-.258.46.46 0 0 0 .207-.2c.05.094.137.165.238.196a.39.39 0 0 0-.242.261m.004-1.187c.04.059.098.105.16.137a.4.4 0 0 0-.16.164.5.5 0 0 0-.137-.16.5.5 0 0 0 .137-.141m.004-3.695a.5.5 0 0 0-.129-.13.4.4 0 0 0 .125-.14q.054.093.145.145a.4.4 0 0 0-.141.125m0 2.937a.35.35 0 0 0 .11.106.34.34 0 0 0-.114.109.4.4 0 0 0-.101-.105.6.6 0 0 0 .105-.11m0-2.176a.4.4 0 0 0-.098-.093.5.5 0 0 0 .098-.102.4.4 0 0 0 .098.102.4.4 0 0 0-.098.093m-.082.696a.5.5 0 0 0 .082-.078q.033.04.086.082a.4.4 0 0 0-.086.082.6.6 0 0 0-.082-.086m.082.71a.4.4 0 0 0 .09.087.3.3 0 0 0-.09.086.4.4 0 0 0-.082-.086.6.6 0 0 0 .082-.086m-.008-3.293c.04.093.117.168.207.21a.47.47 0 0 0-.203.176.5.5 0 0 0-.18-.18.44.44 0 0 0 .176-.206m-.789-.371a.46.46 0 0 0-.219-.211.4.4 0 0 0 .215-.278.4.4 0 0 0 .254.282.42.42 0 0 0-.25.207m0 .71a.5.5 0 0 0-.14-.132.4.4 0 0 0 .14-.16c.035.066.09.12.153.16a.6.6 0 0 0-.153.133m0 4.52c.035.034.07.07.113.1a.6.6 0 0 0-.113.11 1 1 0 0 0-.101-.11c.039-.027.07-.066.101-.1m0-3.774a.5.5 0 0 0-.086-.09c.035-.024.059-.059.086-.094q.04.059.098.094a.4.4 0 0 0-.098.09m.004 3.02q.03.035.07.066a.4.4 0 0 0-.074.066c-.02-.023-.035-.043-.058-.066.023-.02.039-.043.062-.067m0-2.262a.4.4 0 0 1-.055-.054l.051-.059q.03.034.063.063zm-.039.739q.016-.02.04-.043a.2.2 0 0 0 .042.043q-.024.02-.043.043-.023-.022-.039-.043m.04.754a.3.3 0 0 0 .046.043.3.3 0 0 0-.047.043q-.023-.025-.039-.043.016-.02.04-.043m-.005 2.605a.43.43 0 0 0-.164-.191.44.44 0 0 0 .164-.153c.047.067.11.121.18.153a.45.45 0 0 0-.18.191m-.793.918a.39.39 0 0 0-.238-.32.45.45 0 0 0 .238-.211c.055.097.14.176.25.21a.39.39 0 0 0-.25.321m0-1.242a.5.5 0 0 0 .149.133.43.43 0 0 0-.149.164.5.5 0 0 0-.14-.164.5.5 0 0 0 .14-.133m.004-5.293a.6.6 0 0 0-.121-.117.5.5 0 0 0 .117-.133.5.5 0 0 0 .125.133.4.4 0 0 0-.12.117m0 4.559a1 1 0 0 0 .081.078q-.042.041-.086.09a.5.5 0 0 0-.086-.086q.051-.042.09-.082m0-3.82q-.035-.037-.07-.067a1 1 0 0 0 .07-.07q.03.04.067.07c-.02.02-.047.043-.067.066m0 3.067a.3.3 0 0 0 .047.043q-.03.02-.047.043-.024-.022-.047-.043.023-.02.047-.043m0-2.309q-.019-.016-.031-.031a.3.3 0 0 1 .031-.035l.035.035zm-.012.762.012-.016c.004.008.012.012.016.016l-.016.015q-.006-.01-.012-.015m.012.781q.013.011.02.016c-.008.004-.012.011-.02.02q-.011-.015-.016-.017c.004-.007.012-.011.016-.019m-.004-4.184c.035.106.11.192.207.239a.47.47 0 0 0-.207.183.45.45 0 0 0-.199-.183.4.4 0 0 0 .2-.239m-.79 7.657a.4.4 0 0 0-.242-.297.5.5 0 0 0 .242-.211.44.44 0 0 0 .235.21.4.4 0 0 0-.235.298m0-1.215c.035.05.086.097.14.129a.4.4 0 0 0-.14.16.5.5 0 0 0-.148-.16.4.4 0 0 0 .148-.13m0-5.3a.6.6 0 0 0-.121-.113.5.5 0 0 0 .121-.13c.027.052.067.09.113.13a.5.5 0 0 0-.113.113m0 4.566a.4.4 0 0 0 .078.079.4.4 0 0 0-.078.085.6.6 0 0 0-.086-.09q.046-.036.086-.074m0-3.828a1 1 0 0 0-.07-.062.3.3 0 0 0 .07-.07.3.3 0 0 0 .063.07.3.3 0 0 0-.063.062m0 3.075c.008.015.024.027.035.039-.011.015-.027.027-.035.043l-.043-.043q.022-.017.043-.04m-.004-2.316c-.008-.008-.02-.016-.027-.027q.016-.013.031-.031c.004.007.016.019.024.03zm-.008.766c.004-.004.004-.008.008-.012q.004.006.008.012-.004.007-.008.008c0-.004-.008-.004-.008-.008m.008.785.012.015c-.004 0-.008.008-.008.012q-.011-.012-.015-.011c.003-.008.007-.008.011-.016m.004-4.18a.4.4 0 0 0 .2.23.45.45 0 0 0-.2.18.5.5 0 0 0-.203-.175.43.43 0 0 0 .203-.235m-.793.434a.44.44 0 0 0-.23-.2.4.4 0 0 0 .23-.265c.031.117.11.21.211.266a.45.45 0 0 0-.21.199m-.005.71a.5.5 0 0 0-.14-.124.4.4 0 0 0 .144-.149.5.5 0 0 0 .133.149.6.6 0 0 0-.137.125m0 4.539q.047.047.098.09a1 1 0 0 0-.098.101.5.5 0 0 0-.097-.101.4.4 0 0 0 .097-.09m0-3.793a.4.4 0 0 0-.082-.082.25.25 0 0 0 .082-.086q.036.051.082.086a.4.4 0 0 0-.082.082m0 3.039q.024.03.055.055l-.055.058c-.015-.023-.035-.039-.054-.058q.03-.028.054-.055m0-2.285q-.023-.02-.047-.043.024-.023.047-.051c.016.02.028.035.047.05q-.023.025-.047.044m-.031.75q.016-.013.031-.032c.008.012.016.02.028.032a.1.1 0 0 0-.028.031zm.031.765q.013.018.032.036c-.012.003-.02.015-.032.027q-.014-.02-.035-.031.018-.016.035-.032m.004 2.582a.4.4 0 0 0-.168-.18.4.4 0 0 0 .164-.144q.066.093.157.145a.5.5 0 0 0-.153.18m-.789.046a.42.42 0 0 0-.219-.23.4.4 0 0 0 .215-.18c.047.078.11.145.192.184a.43.43 0 0 0-.188.226m-.004-1.14q.053.074.125.125a.6.6 0 0 0-.125.14.5.5 0 0 0-.14-.14.5.5 0 0 0 .14-.125m0-3.723a.6.6 0 0 0-.12-.113.5.5 0 0 0 .124-.121.4.4 0 0 0 .106.117.5.5 0 0 0-.11.117m-.004 2.965q.044.052.086.094a.5.5 0 0 0-.082.09 1 1 0 0 0-.094-.094.5.5 0 0 0 .09-.09m0-2.207c-.023-.031-.054-.055-.082-.078.028-.028.059-.055.086-.09q.037.048.078.086a1 1 0 0 0-.082.082m-.07.71a1 1 0 0 0 .07-.062q.03.031.067.063c-.024.023-.047.043-.067.07a.3.3 0 0 0-.07-.07m.07.726c.024.028.043.051.07.07-.027.02-.046.044-.07.07a.3.3 0 0 0-.074-.07.3.3 0 0 0 .074-.07m.008-3.293c.035.082.09.149.164.192a.5.5 0 0 0-.164.16.6.6 0 0 0-.187-.16.42.42 0 0 0 .187-.192m-.793.414a.44.44 0 0 0-.285-.218.4.4 0 0 0 .289-.286.4.4 0 0 0 .215.282.45.45 0 0 0-.219.222m0 .739a.45.45 0 0 0-.195-.168.4.4 0 0 0 .195-.188.4.4 0 0 0 .156.188.46.46 0 0 0-.156.168m0 2.863c.031.05.078.101.133.137a.4.4 0 0 0-.133.152.46.46 0 0 0-.16-.152.5.5 0 0 0 .16-.137m-.004-2.11a.5.5 0 0 0-.148-.128.5.5 0 0 0 .152-.141c.027.05.07.102.125.14a.5.5 0 0 0-.129.13m-.133.66a.4.4 0 0 0 .133-.117.4.4 0 0 0 .114.117.5.5 0 0 0-.114.117.5.5 0 0 0-.133-.117m.133.675a.4.4 0 0 0 .117.122.4.4 0 0 0-.113.12.4.4 0 0 0-.137-.12.5.5 0 0 0 .133-.121m.008 1.91a.4.4 0 0 0-.215-.211.45.45 0 0 0 .211-.18c.04.078.102.137.176.184a.4.4 0 0 0-.172.207m-.793-.75a.4.4 0 0 0-.281-.25.41.41 0 0 0 .277-.223.46.46 0 0 0 .207.223.45.45 0 0 0-.203.25m-.234-1.832a.4.4 0 0 0 .23-.203q.062.128.18.199a.5.5 0 0 0-.18.199.4.4 0 0 0-.23-.195m.23.59a.53.53 0 0 0 .18.203.46.46 0 0 0-.18.203.4.4 0 0 0-.238-.203.44.44 0 0 0 .238-.204m.004-1.613c.035.098.11.18.195.23a.46.46 0 0 0-.199.208.4.4 0 0 0-.258-.207.42.42 0 0 0 .262-.23m7.887 1.417a.4.4 0 0 0-.332-.394.398.398 0 0 0-.07-.79.4.4 0 0 0-.372.247.44.44 0 0 0-.222-.25.43.43 0 0 0 .226-.286.38.38 0 0 0 .75-.101.38.38 0 0 0-.75-.098.45.45 0 0 0-.273-.308.4.4 0 0 0 .262-.375.41.41 0 0 0-.407-.41.4.4 0 0 0-.37.246.45.45 0 0 0-.247-.25.41.41 0 0 0 .242-.371.374.374 0 0 0 .75-.004.374.374 0 0 0-.75-.004.41.41 0 0 0-.41-.407.41.41 0 0 0-.379.25.45.45 0 0 0-.277-.253.393.393 0 0 0-.129-.766.4.4 0 0 0-.387.309.4.4 0 0 0-.398-.325.41.41 0 0 0-.39.285.413.413 0 0 0-.79-.008.42.42 0 0 0-.39-.285.42.42 0 0 0-.403.317.399.399 0 0 0-.785.101c0 .168.102.31.246.372a.45.45 0 0 0-.25.234.43.43 0 0 0-.324-.234.376.376 0 0 0-.059-.746.375.375 0 0 0-.054.746.41.41 0 0 0-.352.328.39.39 0 0 0-.375-.297.384.384 0 0 0-.09.758.42.42 0 0 0-.328.355.374.374 0 0 0-.746.059c0 .203.168.37.375.37a.375.375 0 0 0 .371-.316c.02.141.113.266.238.32a.47.47 0 0 0-.238.255.4.4 0 0 0-.371-.25.401.401 0 0 0-.106.789.41.41 0 0 0-.308.402c0 .18.117.332.277.39a.41.41 0 0 0-.281.395c0 .188.121.34.29.399a.4.4 0 0 0-.282.386c0 .196.137.36.324.403a.392.392 0 1 0 .457.516.45.45 0 0 0 .254.273.41.41 0 0 0-.25.379c0 .226.184.406.41.41a.375.375 0 1 0 .004.75.375.375 0 0 0 .004-.75.42.42 0 0 0 .371-.242c.043.109.133.199.246.242a.41.41 0 0 0-.242.375.4.4 0 0 0 .402.406.41.41 0 0 0 .383-.266.43.43 0 0 0 .3.278.382.382 0 0 0 .102.75.383.383 0 0 0 .106-.75.44.44 0 0 0 .281-.23c.05.105.14.187.25.23a.4.4 0 0 0-.25.367c0 .219.18.398.403.398.195 0 .359-.144.39-.332a.398.398 0 0 0 .79-.02.393.393 0 0 0 .39.348c.215 0 .39-.18.39-.394a.395.395 0 0 0-.253-.367.44.44 0 0 0 .265-.242.43.43 0 0 0 .313.242.373.373 0 0 0 .07.742.375.375 0 0 0 .07-.742.44.44 0 0 0 .336-.309c.047.164.196.29.38.29a.4.4 0 0 0 .136-.774.42.42 0 0 0 .273-.278.397.397 0 0 0 .774-.132.4.4 0 0 0-.285-.383.42.42 0 0 0 .3-.332.378.378 0 0 0 .75-.07.378.378 0 0 0-.75-.07.42.42 0 0 0-.234-.313.45.45 0 0 0 .238-.266.393.393 0 0 0 .762-.137.387.387 0 0 0-.348-.386.41.41 0 0 0 .356-.399M767.934 10.188a.348.348 0 0 0 0 .695.345.345 0 0 0 .343-.348.345.345 0 0 0-.343-.348M768.719 10.25a.283.283 0 0 0 0 .566.283.283 0 0 0 0-.566M769.504 10.316a.22.22 0 0 0-.215.22c0 .116.098.21.215.21a.21.21 0 0 0 .215-.21.215.215 0 0 0-.215-.22M770.29 10.395a.143.143 0 0 0-.142.14c0 .074.067.137.141.137a.14.14 0 0 0 .14-.137.14.14 0 0 0-.14-.14M756.938 11.09a.23.23 0 0 0-.231.23c0 .125.102.235.23.235.13 0 .235-.11.235-.235a.23.23 0 0 0-.235-.23M757.723 11.02a.3.3 0 0 0-.301.3.3.3 0 0 0 .3.297.298.298 0 1 0 0-.598"/><path fill="#0071bb" d="M758.508 10.96c-.2 0-.356.161-.356.36a.358.358 0 1 0 .355-.36M767.934 10.98a.343.343 0 0 0-.34.34c0 .184.156.336.34.336a.336.336 0 0 0 .336-.336.337.337 0 0 0-.336-.34M768.719 11.043a.275.275 0 0 0-.274.277c0 .153.121.274.274.274a.275.275 0 1 0 0-.551M769.504 11.11a.213.213 0 0 0-.211.21c0 .114.098.207.21.207a.21.21 0 1 0 0-.418M770.29 11.188a.137.137 0 0 0-.134.132c0 .07.063.13.133.13a.13.13 0 0 0 .133-.13.134.134 0 0 0-.133-.133M756.938 11.887a.215.215 0 0 0-.215.218c0 .122.093.215.215.215a.215.215 0 0 0 .218-.215.22.22 0 0 0-.218-.218M757.723 11.82a.29.29 0 0 0-.285.285c0 .157.132.282.285.282a.283.283 0 0 0 .285-.282.287.287 0 0 0-.285-.285M758.508 11.758a.35.35 0 0 0-.344.347c0 .188.152.34.344.34a.34.34 0 0 0 .344-.34.35.35 0 0 0-.344-.347M767.934 11.781a.326.326 0 0 0-.325.324c0 .176.145.325.325.325a.325.325 0 0 0 0-.648M768.719 11.84a.266.266 0 0 0-.266.265c0 .145.121.262.266.262a.26.26 0 0 0 .261-.262.263.263 0 0 0-.261-.265M769.504 11.91a.196.196 0 0 0-.195.195c0 .106.09.192.195.192a.193.193 0 1 0 0-.387M770.29 11.984a.12.12 0 0 0-.118.121.12.12 0 0 0 .117.118.12.12 0 0 0 .117-.118.12.12 0 0 0-.117-.12M771.074 12.07a.035.035 0 0 0-.035.035c0 .02.016.036.035.036.024 0 .04-.016.04-.036s-.016-.035-.04-.035M756.938 12.695a.193.193 0 0 0-.192.196c0 .105.086.195.192.195.109 0 .195-.09.195-.195a.193.193 0 0 0-.196-.196M757.723 12.629a.26.26 0 0 0 0 .52.26.26 0 0 0 .257-.258.26.26 0 0 0-.257-.262M758.508 12.574a.315.315 0 0 0-.317.317c0 .175.141.316.317.316s.316-.14.316-.316a.315.315 0 0 0-.316-.317M759.293 12.523a.37.37 0 0 0-.367.368.367.367 0 1 0 .367-.367M767.148 12.54a.35.35 0 0 0-.351.35.35.35 0 0 0 .351.352.35.35 0 0 0 .352-.351.35.35 0 0 0-.352-.352M767.934 12.594a.297.297 0 1 0 0 .594.3.3 0 0 0 .3-.297.3.3 0 0 0-.3-.297M768.719 12.648a.243.243 0 0 0 0 .485.24.24 0 0 0 .238-.242.24.24 0 0 0-.238-.243M769.504 12.719a.17.17 0 0 0-.172.172c0 .093.078.172.172.172a.17.17 0 0 0 .172-.172.17.17 0 0 0-.172-.172M770.29 12.79a.1.1 0 0 0-.099.1c0 .055.043.098.098.098a.097.097 0 0 0 .098-.097.1.1 0 0 0-.098-.102M771.074 12.875a.02.02 0 0 0-.015.016c0 .007.007.015.015.015.012 0 .016-.008.016-.015 0-.008-.004-.016-.016-.016M756.938 13.512c-.09 0-.16.074-.16.164s.07.16.16.16.16-.07.16-.16-.07-.164-.16-.164M757.723 13.45a.23.23 0 0 0-.227.226c0 .12.106.226.227.226a.23.23 0 0 0 .226-.226.227.227 0 0 0-.226-.227M758.508 13.395a.28.28 0 0 0-.281.28.283.283 0 0 0 .566 0 .283.283 0 0 0-.285-.28M759.293 13.34a.334.334 0 0 0 0 .668.33.33 0 0 0 .332-.332.333.333 0 0 0-.332-.336M766.363 13.313c-.199 0-.36.16-.36.363a.362.362 0 1 0 .36-.363M767.148 13.355a.318.318 0 0 0 0 .637.318.318 0 0 0 0-.637M767.934 13.41a.266.266 0 1 0 0 .53.266.266 0 0 0 0-.53M768.719 13.465a.21.21 0 0 0-.207.21c0 .114.093.208.207.208s.21-.094.21-.207a.215.215 0 0 0-.21-.211M769.504 13.535a.14.14 0 0 0-.137.14c0 .079.063.137.137.137.078 0 .14-.058.14-.136a.143.143 0 0 0-.14-.14M770.29 13.613c-.036 0-.063.024-.063.063 0 .035.027.066.062.066a.07.07 0 0 0 .066-.066c0-.04-.03-.063-.066-.063M756.938 14.336a.125.125 0 0 0-.122.125c0 .066.055.121.121.121a.125.125 0 0 0 .125-.121.13.13 0 0 0-.125-.125M757.723 14.277a.18.18 0 0 0-.18.184c0 .101.078.18.18.18a.18.18 0 0 0 .183-.18.183.183 0 0 0-.183-.184M758.508 14.219a.24.24 0 0 0-.242.242c0 .133.109.242.242.242s.242-.11.242-.242a.24.24 0 0 0-.242-.242M759.293 14.172a.29.29 0 0 0-.285.289c0 .16.125.289.285.289a.29.29 0 0 0 .289-.29.294.294 0 0 0-.289-.288M760.082 14.133a.33.33 0 0 0-.332.328c0 .18.148.332.332.332.18 0 .328-.152.328-.332a.33.33 0 0 0-.328-.328M760.863 14.102a.358.358 0 1 0 0 .719.36.36 0 1 0 0-.72M765.578 14.113a.348.348 0 0 0 0 .696.348.348 0 0 0 0-.696M766.363 14.145a.318.318 0 1 0-.003.636.318.318 0 0 0 .003-.636M767.148 14.184a.28.28 0 0 0-.273.277c0 .152.121.273.273.273a.275.275 0 0 0 .278-.273.28.28 0 0 0-.278-.277M767.934 14.238a.22.22 0 0 0-.223.223.22.22 0 0 0 .223.223.22.22 0 0 0 .222-.223.22.22 0 0 0-.222-.223M768.719 14.297a.16.16 0 0 0-.164.164c0 .09.07.168.164.168.09 0 .168-.078.168-.168a.166.166 0 0 0-.168-.164M769.504 14.363a.1.1 0 0 0-.098.098.1.1 0 0 0 .098.098.1.1 0 0 0 .101-.098.1.1 0 0 0-.101-.098M770.29 14.438a.025.025 0 0 0-.024.023c0 .016.011.023.023.023s.027-.007.027-.023c0-.012-.015-.024-.027-.024M756.152 15.242q-.005-.001-.004.004-.001.005.004.004.005.001.004-.004.001-.005-.004-.004M756.938 15.172a.074.074 0 1 0 0 .148.074.074 0 0 0 0-.148M757.723 15.113a.13.13 0 0 0-.133.133.13.13 0 0 0 .133.133.133.133 0 1 0 0-.266M758.508 15.055a.194.194 0 0 0-.188.191c0 .102.086.191.188.191a.192.192 0 0 0 0-.382M759.293 15.004a.24.24 0 0 0-.238.242.24.24 0 1 0 .48 0 .24.24 0 0 0-.242-.242M760.082 14.969a.28.28 0 0 0-.277.277.275.275 0 1 0 .55 0 .275.275 0 0 0-.273-.277M760.863 14.941a.305.305 0 0 0 0 .61.306.306 0 0 0 .309-.305.306.306 0 0 0-.309-.305M761.648 14.914a.33.33 0 0 0-.328.332.333.333 0 1 0 .328-.332M762.438 14.902a.34.34 0 0 0-.344.344c0 .191.152.344.343.344a.344.344 0 0 0 0-.688M763.219 14.898a.348.348 0 0 0 0 .696.348.348 0 0 0 0-.696M764.008 14.91a.333.333 0 0 0-.336.336c0 .188.148.336.336.336.187 0 .34-.148.34-.336a.337.337 0 0 0-.34-.336M764.793 14.926a.32.32 0 1 0 0 .64.32.32 0 0 0 .32-.32.32.32 0 0 0-.32-.32M765.578 14.95c-.168 0-.3.132-.3.296s.132.297.3.297a.3.3 0 0 0 .3-.297.3.3 0 0 0-.3-.297M766.363 14.977a.27.27 0 0 0-.265.27c0 .144.12.265.265.265a.266.266 0 0 0 .266-.266.27.27 0 0 0-.266-.27M767.148 15.02a.23.23 0 0 0-.226.226c0 .125.101.227.226.227a.23.23 0 0 0 .227-.227.23.23 0 0 0-.227-.226M767.934 15.07a.18.18 0 0 0-.176.176.18.18 0 0 0 .176.176.174.174 0 0 0 .171-.176.174.174 0 0 0-.171-.176M768.719 15.133a.11.11 0 0 0-.114.113c0 .066.051.113.114.113a.114.114 0 0 0 .117-.113.114.114 0 0 0-.117-.113M769.504 15.191c-.031 0-.05.028-.05.055 0 .031.019.055.05.055a.053.053 0 0 0 .055-.055.056.056 0 0 0-.055-.055M756.938 16.012q-.017.001-.016.02 0 .018.015.019.019-.001.02-.02-.001-.018-.02-.02M757.723 15.953c-.043 0-.082.031-.082.078 0 .043.039.082.082.082.047 0 .082-.039.082-.082 0-.047-.035-.078-.082-.078M758.508 15.902a.13.13 0 0 0-.13.13c0 .073.056.128.13.128a.125.125 0 0 0 .129-.129.13.13 0 0 0-.13-.129M759.293 15.848c-.098 0-.176.086-.176.183 0 .102.078.18.176.18.102 0 .18-.078.18-.18a.183.183 0 0 0-.18-.183M760.082 15.816a.215.215 0 0 0-.219.215.22.22 0 0 0 .219.219.224.224 0 0 0 .219-.219.22.22 0 0 0-.219-.215M760.863 15.785a.245.245 0 0 0-.246.246c0 .14.11.25.246.25a.248.248 0 1 0 0-.496M761.648 15.766a.263.263 0 0 0-.265.265c0 .153.117.27.265.27.153 0 .27-.117.27-.27a.264.264 0 0 0-.27-.265M762.438 15.754a.273.273 0 0 0-.278.277.277.277 0 1 0 .555 0 .276.276 0 0 0-.278-.277M763.219 15.75a.283.283 0 0 0 0 .566.29.29 0 0 0 .289-.285.287.287 0 0 0-.29-.281M764.008 15.754a.276.276 0 0 0-.278.277c0 .157.122.278.278.278a.276.276 0 0 0 .277-.278.28.28 0 0 0-.277-.277M764.793 15.77a.26.26 0 0 0-.262.261c0 .149.117.266.262.266a.266.266 0 0 0 .266-.266.265.265 0 0 0-.266-.261M765.578 15.793a.237.237 0 0 0-.238.238c0 .13.105.242.238.242a.243.243 0 0 0 .238-.242.237.237 0 0 0-.238-.238M766.363 15.824a.21.21 0 0 0-.207.207c0 .117.094.207.207.207.114 0 .207-.09.207-.207a.21.21 0 0 0-.207-.207M767.148 15.863a.17.17 0 0 0-.168.168c0 .094.079.164.168.164a.16.16 0 0 0 .164-.164c0-.09-.07-.168-.164-.168M767.934 15.918a.117.117 0 0 0-.118.113.12.12 0 0 0 .118.117.12.12 0 0 0 .117-.117.117.117 0 0 0-.117-.113M768.719 15.973a.06.06 0 0 0-.059.058.06.06 0 0 0 .059.059.06.06 0 0 0 .058-.059c0-.035-.023-.058-.058-.058M757.723 16.8a.02.02 0 0 0-.016.016q.002.017.016.016.016.001.015-.016c0-.007-.004-.015-.015-.015M758.508 16.746c-.04 0-.07.031-.07.074 0 .035.03.067.07.067.039 0 .07-.032.07-.067 0-.043-.031-.074-.07-.074M759.293 16.7a.117.117 0 0 0-.113.116c0 .063.05.118.113.118a.12.12 0 0 0 .117-.118.12.12 0 0 0-.117-.117M760.082 16.668a.147.147 0 0 0-.152.148.15.15 0 0 0 .152.153.15.15 0 0 0 .148-.153.146.146 0 0 0-.148-.148M760.863 16.637a.18.18 0 0 0-.18.18c0 .101.083.183.18.183a.183.183 0 0 0 .184-.184.18.18 0 0 0-.184-.18M761.648 16.617c-.109 0-.195.09-.195.2 0 .109.086.199.195.199a.2.2 0 0 0 .204-.2.2.2 0 0 0-.204-.199M762.438 16.605a.213.213 0 0 0-.215.211.213.213 0 0 0 .425 0 .213.213 0 0 0-.21-.21M763.219 16.602a.21.21 0 0 0-.211.214.21.21 0 0 0 .21.215.213.213 0 0 0 .22-.215.213.213 0 0 0-.22-.214M764.008 16.61a.207.207 0 1 0 0 .413c.113 0 .207-.09.207-.207a.206.206 0 0 0-.207-.207M764.793 16.625a.193.193 0 0 0-.195.191c0 .11.09.192.195.192a.193.193 0 0 0 .195-.192c0-.109-.09-.191-.195-.191M765.578 16.645a.177.177 0 0 0-.176.171.18.18 0 0 0 .176.176.177.177 0 0 0 .172-.176.173.173 0 0 0-.172-.171M766.363 16.676a.137.137 0 0 0-.136.14c0 .079.058.141.136.141.074 0 .14-.062.14-.14a.143.143 0 0 0-.14-.141M767.148 16.719a.097.097 0 0 0-.097.097c0 .055.043.098.097.098a.1.1 0 0 0 .102-.098.1.1 0 0 0-.102-.097M767.934 16.766a.05.05 0 0 0-.051.05c0 .028.023.051.05.051s.051-.023.051-.05a.05.05 0 0 0-.05-.051M759.293 17.559c-.02 0-.04.02-.04.043s.02.043.04.043c.023 0 .043-.02.043-.043a.043.043 0 0 0-.043-.043M760.082 17.527c-.043 0-.078.032-.078.075s.035.078.078.078.074-.035.074-.078a.07.07 0 0 0-.074-.075M760.863 17.5a.1.1 0 0 0-.101.102c0 .058.047.105.101.105.059 0 .11-.047.11-.105 0-.059-.051-.102-.11-.102M761.648 17.48a.125.125 0 0 0-.125.122c0 .07.059.125.125.125.07 0 .13-.055.13-.125 0-.067-.06-.122-.13-.122M762.438 17.469a.135.135 0 1 0 0 .27c.07 0 .132-.06.132-.137a.137.137 0 0 0-.133-.133M763.219 17.465a.138.138 0 0 0 0 .277c.082 0 .14-.062.14-.14a.137.137 0 0 0-.14-.137M764.008 17.473a.13.13 0 0 0-.133.129c0 .074.059.128.133.128.07 0 .129-.054.129-.128a.13.13 0 0 0-.13-.13M764.793 17.484a.115.115 0 0 0-.117.118c0 .066.05.117.117.117.066 0 .117-.051.117-.117a.115.115 0 0 0-.117-.118M765.578 17.504a.097.097 0 0 0-.098.098c0 .054.043.097.098.097a.097.097 0 0 0 .098-.097.097.097 0 0 0-.098-.098M766.363 17.535a.07.07 0 0 0-.066.067c0 .039.031.066.066.066.04 0 .063-.027.063-.066 0-.036-.024-.067-.063-.067M767.148 17.574a.027.027 0 0 0-.027.028c0 .015.012.027.027.027a.027.027 0 0 0 .028-.027.027.027 0 0 0-.028-.028M760.863 18.363c-.015 0-.027.012-.027.024 0 .015.012.027.027.027a.027.027 0 0 0 .028-.027c0-.012-.012-.024-.028-.024M761.648 18.344c-.02 0-.039.023-.039.043 0 .023.02.043.04.043.023 0 .042-.02.042-.043 0-.02-.02-.043-.043-.043M762.438 18.336c-.032 0-.06.023-.06.05 0 .032.028.055.06.055a.053.053 0 0 0 .054-.054c0-.028-.023-.051-.054-.051M763.219 18.328c-.028 0-.055.027-.055.059 0 .031.027.058.055.058.035 0 .062-.027.062-.058s-.027-.059-.062-.059M764.008 18.336c-.028 0-.055.023-.055.05s.027.055.055.055c.031 0 .05-.027.05-.054a.05.05 0 0 0-.05-.051M764.793 18.352c-.023 0-.04.02-.04.035 0 .02.017.039.04.039.02 0 .035-.02.035-.04 0-.015-.015-.034-.035-.034M765.578 18.375c-.012 0-.015.008-.015.012q-.001.014.015.015.012-.002.012-.015c0-.004-.004-.012-.012-.012"/><g clip-path="url(#S)"><path fill="#231f20" d="m749.86 9.52 4.421 5.632h2.383v-9.21h-2.383v5.632l-4.422-5.633h-2.394v9.211h2.394Zm0 0"/></g><path fill="#231f20" d="m768.898 6.625.579 1.379.136.316.567 1.356.086.203 2.214 5.273h1.907l3.883-9.21h-2.598l-2.238 5.605-2.223-5.606h-2.598l.219.528Zm0 0"/><g clip-path="url(#T)"><path fill="#231f20" d="M783.742 5.941h-2.613l-3.504 9.211h2.55l2.263-6.488 2.285 6.488h2.527Zm0 0"/></g><g clip-path="url(#U)"><path fill="#231f20" d="m748.39 22.852-.21-.086q-.228-.095-.227-.246c0-.079.027-.137.086-.188a.32.32 0 0 1 .219-.074.3.3 0 0 1 .176.043q.06.04.136.164l.254-.152c-.133-.235-.324-.356-.562-.356a.67.67 0 0 0-.453.16.52.52 0 0 0-.18.399c0 .234.14.414.43.535l.207.082q.072.035.132.07c.04.027.067.055.094.078q.035.047.051.098.019.051.02.11a.34.34 0 0 1-.102.253.32.32 0 0 1-.242.098c-.125 0-.223-.043-.285-.133-.04-.05-.063-.133-.079-.258l-.32.07c.028.2.102.348.219.454.117.113.27.164.453.164a.66.66 0 0 0 .48-.188.65.65 0 0 0 .192-.48.56.56 0 0 0-.117-.364q-.118-.15-.371-.253"/></g><g clip-path="url(#V)"><path fill="#231f20" d="M749.426 22.344q-.265.315-.266.718c0 .297.106.547.317.762q.316.315.77.313c.198 0 .39-.047.57-.153v-.382q-.077.066-.149.113a.67.67 0 0 1-.418.125.72.72 0 0 1-.547-.227.76.76 0 0 1-.223-.554q0-.339.223-.567a.72.72 0 0 1 .547-.234c.195 0 .387.078.566.23v-.375a1.07 1.07 0 0 0-.546-.152 1.06 1.06 0 0 0-.844.383"/></g><g clip-path="url(#W)"><path fill="#231f20" fill-rule="evenodd" d="M751.219 22h.316v2.102h-.316Zm0 0"/></g><g clip-path="url(#X)"><path fill="#231f20" d="M752.035 24.102h1.16v-.297h-.84v-.703h.817V22.8h-.817v-.504h.84V22h-1.16Zm0 0"/></g><path fill="#231f20" d="M765.668 19.063a.76.76 0 0 1 .555-.223q.328 0 .55.223a.79.79 0 0 1 .227.566q-.001.334-.23.562a.75.75 0 0 1-.555.227.74.74 0 0 1-.54-.223.75.75 0 0 1-.234-.57c0-.219.079-.41.227-.562m-.188 1.37c.215.188.457.286.73.286.306 0 .567-.11.782-.32.219-.208.324-.465.324-.766q.001-.453-.32-.77a1.04 1.04 0 0 0-.77-.32q-.455 0-.777.316c-.219.211-.324.465-.324.762 0 .336.113.606.355.813M768.648 20.383h-.617v-1.805h-.316v2.102h.933ZM770.023 19.625a.77.77 0 0 1 .782-.785q.323 0 .547.223a.79.79 0 0 1 .226.566q-.002.334-.226.562a.76.76 0 0 1-.555.227.74.74 0 0 1-.54-.223.75.75 0 0 1-.234-.57m1.551.773c.219-.207.324-.464.324-.765s-.105-.559-.324-.77a1.04 1.04 0 0 0-.765-.32c-.309 0-.563.105-.782.316q-.326.316-.324.762-.001.503.356.813a1.097 1.097 0 0 0 1.515-.036M772.613 19.68h.707v-.301h-.707v-.504h.727v-.297h-1.043v2.102h.316Zm0 0"/><g clip-path="url(#Y)"><path fill="#231f20" d="M747.664 18.438v2.242h.316v-1.473l1.532 1.598v-2.227h-.317v1.461Zm0 0"/></g><path fill="#231f20" d="M751.574 20.191a.75.75 0 0 1-.558.227.74.74 0 0 1-.536-.223.75.75 0 0 1-.234-.57c0-.219.078-.41.227-.562a.76.76 0 0 1 .55-.223.75.75 0 0 1 .555.223.79.79 0 0 1 .227.566q-.001.334-.23.562m.226-1.328a1.05 1.05 0 0 0-.774-.32q-.45 0-.773.316c-.219.211-.324.465-.324.762q-.001.503.355.813c.211.187.457.285.727.285.308 0 .57-.11.789-.32.21-.208.32-.465.32-.766s-.11-.559-.32-.77M752.531 18.578h-.343l.917 2.258.942-2.258h-.344l-.59 1.457ZM754.602 19.871l.328-.715.308.715Zm.332-1.422-1.04 2.23h.344l.235-.511h.898l.219.512h.347ZM758.3 20.05q0-.221-.116-.366c-.079-.102-.207-.184-.375-.254l-.207-.082c-.157-.067-.23-.145-.23-.25a.25.25 0 0 1 .085-.188.34.34 0 0 1 .219-.07c.074 0 .129.015.176.039q.068.04.136.164l.258-.152c-.137-.235-.324-.348-.566-.348q-.268-.002-.45.156a.49.49 0 0 0-.18.395q-.002.352.43.535l.204.086a.5.5 0 0 1 .132.07q.058.035.098.082c.024.028.04.055.05.09a.4.4 0 0 1 .016.11.35.35 0 0 1-.097.253.33.33 0 0 1-.246.098c-.125 0-.223-.04-.285-.133a.6.6 0 0 1-.079-.254l-.32.067c.031.199.106.347.219.457q.18.165.453.164a.67.67 0 0 0 .48-.192.64.64 0 0 0 .196-.476M758.844 18.922q-.263.315-.262.719 0 .445.316.761.322.317.766.317.299 0 .574-.153v-.382q-.08.06-.148.109-.073.046-.133.074a.7.7 0 0 1-.289.051.74.74 0 0 1-.547-.223.76.76 0 0 1-.219-.558c0-.227.07-.414.22-.567a.72.72 0 0 1 .546-.23q.294-.001.57.226v-.37a1.05 1.05 0 0 0-.547-.153q-.52-.001-.847.379M761.914 19.402h-.906v-.824h-.317v2.102h.317v-.98h.906v.98h.316v-2.102h-.316ZM764.281 20.191a.76.76 0 0 1-.558.227.74.74 0 0 1-.535-.223.75.75 0 0 1-.235-.57.77.77 0 0 1 .777-.785q.332 0 .555.223a.78.78 0 0 1 .223.566q-.002.334-.227.562m.223-1.328a1.04 1.04 0 0 0-.77-.32q-.45 0-.777.316c-.219.211-.324.465-.324.762q-.001.503.355.813c.215.187.461.285.73.285.31 0 .567-.11.786-.32q.323-.313.324-.766-.001-.453-.324-.77"/><g clip-path="url(#Z)"><path fill="#231f20" d="m755.14 23.457-1.53-1.598v2.243h.316v-1.473l1.531 1.598V22h-.316Zm0 0"/></g><g clip-path="url(#aa)"><path fill="#231f20" d="M756.14 22.344c-.18.21-.265.449-.265.718 0 .297.105.547.316.762q.318.315.77.313c.2 0 .39-.047.57-.153v-.382q-.076.066-.148.113a1 1 0 0 1-.137.074.7.7 0 0 1-.281.05.72.72 0 0 1-.547-.226.76.76 0 0 1-.223-.554q0-.339.223-.567a.73.73 0 0 1 .543-.234c.2 0 .387.078.57.23v-.375a1.1 1.1 0 0 0-.547-.152q-.515.001-.843.383"/></g><g clip-path="url(#ab)"><path fill="#231f20" d="M757.938 24.102h1.156v-.297h-.84v-.703h.816V22.8h-.816v-.504h.84V22h-1.157Zm0 0"/></g><g clip-path="url(#ac)"><path fill="#231f20" d="M760.934 23.855a.35.35 0 0 1-.344-.343c0-.063.023-.117.07-.176q.072-.081.266-.215l.02-.008.41.5c-.157.164-.301.242-.422.242m-.032-1.574a.22.22 0 0 1 .141-.05q.097 0 .148.046a.18.18 0 0 1 .059.141.17.17 0 0 1-.043.121.3.3 0 0 1-.059.063q-.044.035-.113.09l-.023.019q-.017-.018-.016-.023l-.082-.098a.28.28 0 0 1-.074-.176q0-.081.062-.133m1.008 1.172q.064-.072.106-.125l-.211-.215q-.048.07-.106.133c-.035.04-.07.082-.113.129l-.012.016-.383-.457c.133-.106.23-.192.282-.266a.46.46 0 0 0 .074-.246.43.43 0 0 0-.14-.328.5.5 0 0 0-.356-.13.54.54 0 0 0-.367.134.47.47 0 0 0-.137.347c0 .14.07.29.207.438l-.02.015q-.006.004-.007.008l-.137.09q-.305.206-.305.524 0 .263.188.445a.7.7 0 0 0 .476.176q.31 0 .598-.297l.21.258h.4l-.391-.485c.058-.058.105-.117.144-.164"/></g><g clip-path="url(#ad)"><path fill="#231f20" d="M763.043 22.297h.484v1.805h.317v-1.805h.484V22h-1.285Zm0 0"/></g><g clip-path="url(#ae)"><path fill="#231f20" d="M764.602 24.102h1.16v-.297h-.844v-.703h.816V22.8h-.816v-.504h.844V22h-1.16Zm0 0"/></g><g clip-path="url(#af)"><path fill="#231f20" d="M766.344 22.344q-.27.315-.27.718c0 .297.11.547.32.762.211.211.47.313.766.313.203 0 .39-.047.574-.153v-.382l-.148.113a.69.69 0 0 1-.422.125.72.72 0 0 1-.547-.227.76.76 0 0 1-.219-.554c0-.227.07-.414.22-.567a.72.72 0 0 1 .546-.234q.294.001.57.23v-.375a1.1 1.1 0 0 0-.547-.152 1.06 1.06 0 0 0-.843.383"/></g><g clip-path="url(#ag)"><path fill="#231f20" d="M769.418 22.82h-.906V22h-.317v2.102h.317v-.985h.906v.985h.316V22h-.316Zm0 0"/></g><g clip-path="url(#ah)"><path fill="#231f20" d="m771.762 23.457-1.532-1.598v2.243h.317v-1.473l1.531 1.598V22h-.316Zm0 0"/></g><g clip-path="url(#ai)"><path fill="#231f20" d="M774.148 23.61a.74.74 0 0 1-.558.23.74.74 0 0 1-.54-.223.77.77 0 0 1-.23-.57.76.76 0 0 1 .223-.559.76.76 0 0 1 .555-.23q.332.001.554.23c.149.149.223.34.223.563a.75.75 0 0 1-.227.558m-.546-1.648c-.301 0-.563.11-.774.316a1.03 1.03 0 0 0-.328.766q.002.503.355.812c.215.188.461.282.73.282.306 0 .571-.106.786-.317q.321-.315.32-.765.001-.451-.32-.774c-.21-.21-.469-.32-.77-.32"/></g><g clip-path="url(#aj)"><path fill="#231f20" d="M775.41 22h-.316v2.102h.933v-.297h-.617Zm0 0"/></g><g clip-path="url(#ak)"><path fill="#231f20" d="M777.785 23.61a.74.74 0 0 1-.555.23.74.74 0 0 1-.539-.223.76.76 0 0 1-.234-.57q.002-.335.227-.559a.75.75 0 0 1 .554-.23.74.74 0 0 1 .551.23c.149.149.223.34.223.563a.75.75 0 0 1-.227.558m-.543-1.648c-.304 0-.562.11-.781.316a1.05 1.05 0 0 0-.324.766c0 .336.117.605.36.812q.32.282.73.282.457 0 .78-.317c.22-.21.325-.465.325-.765q.001-.451-.32-.774a1.06 1.06 0 0 0-.77-.32"/></g><g clip-path="url(#al)"><path fill="#231f20" d="M779.809 23.305h.527a.55.55 0 0 1-.211.379.6.6 0 0 1-.418.16.75.75 0 0 1-.512-.215.75.75 0 0 1-.25-.574.76.76 0 0 1 .227-.567.75.75 0 0 1 .558-.23q.37.002.63.344l.226-.215a1.25 1.25 0 0 0-.402-.325 1 1 0 0 0-.457-.105c-.305 0-.567.11-.782.32a1.07 1.07 0 0 0-.32.778c0 .297.11.55.316.765s.461.317.754.317c.301 0 .551-.106.746-.328a.9.9 0 0 0 .184-.317c.035-.117.055-.258.055-.414v-.07h-.871Zm0 0"/></g><g clip-path="url(#am)"><path fill="#231f20" d="m781.594 22.84-.48-.84h-.364l.684 1.191v.91h.316v-.91l.688-1.191h-.364Zm0 0"/></g></svg>