<svg xmlns="http://www.w3.org/2000/svg" xmlns:xlink="http://www.w3.org/1999/xlink" width="793.701" height="1122.52" viewBox="0 0 595.276 841.89"><defs><symbol overflow="visible" id="a"><path style="stroke:none" d="M6.766-8.703v5.672c0 1.281-.875 2.203-2.329 2.203-1.453 0-2.328-.922-2.328-2.203v-5.672H1.047v5.765c0 1.782 1.344 3.094 3.39 3.094 2.047 0 3.375-1.312 3.375-3.094v-5.765Zm0 0"/></symbol><symbol overflow="visible" id="b"><path style="stroke:none" d="M7.953-8.703H6.922v6.844h-.094l-4.75-6.844H1.047V0h1.062v-6.828h.079L6.938 0h1.015Zm0 0"/></symbol><symbol overflow="visible" id="c"><path style="stroke:none" d="M2.11-8.703H1.046V0h1.062Zm0 0"/></symbol><symbol overflow="visible" id="d"><path style="stroke:none" d="M1.406-8.703H.313L3.5 0h1.094L7.78-8.703H6.688L4.094-1.375H4Zm0 0"/></symbol><symbol overflow="visible" id="e"><path style="stroke:none" d="M1.047 0h5.328v-.938H2.109V-3.89h3.922v-.937H2.11v-2.938h4.204v-.937H1.046Zm0 0"/></symbol><symbol overflow="visible" id="f"><path style="stroke:none" d="M1.047 0h1.062v-3.406h2.125L6.063 0h1.234L5.328-3.594c1.11-.375 1.625-1.281 1.625-2.437 0-1.547-.922-2.672-2.953-2.672H1.047Zm1.062-4.36v-3.406h1.86c1.406 0 1.953.688 1.953 1.735 0 1.047-.547 1.672-1.938 1.672Zm0 0"/></symbol><symbol overflow="visible" id="g"><path style="stroke:none" d="M5.813-6.531h1.015c-.047-1.313-1.25-2.297-2.937-2.297-1.657 0-2.97.969-2.97 2.437 0 1.172.845 1.875 2.204 2.266l1.078.297c.906.265 1.734.578 1.734 1.453 0 .953-.921 1.578-2.125 1.578-1.046 0-1.953-.469-2.046-1.453H.687C.781-.812 1.938.156 3.813.156c2 0 3.141-1.11 3.141-2.515C6.953-4 5.406-4.516 4.5-4.766L3.625-5c-.656-.172-1.688-.516-1.688-1.438 0-.843.766-1.453 1.922-1.453 1.047 0 1.86.5 1.954 1.36Zm0 0"/></symbol><symbol overflow="visible" id="h"><path style="stroke:none" d="M.578-7.766h2.735V0h1.062v-7.766h2.734v-.937H.58Zm0 0"/></symbol><symbol overflow="visible" id="i"><path style="stroke:none" d="m.313-8.703 3.14 5.11V0H4.5v-3.594l3.156-5.11H6.438L4.03-4.64h-.11L1.517-8.703Zm0 0"/></symbol><symbol overflow="visible" id="j"><path style="stroke:none" d="M8.39-4.36c0-2.75-1.609-4.468-3.828-4.468C2.329-8.828.72-7.11.72-4.36.72-1.595 2.33.124 4.564.124 6.78.125 8.39-1.594 8.39-4.359Zm-1.015 0c0 2.266-1.234 3.5-2.813 3.5-1.593 0-2.828-1.234-2.828-3.5 0-2.25 1.235-3.484 2.829-3.484 1.578 0 2.812 1.235 2.812 3.485Zm0 0"/></symbol><symbol overflow="visible" id="k"><path style="stroke:none" d="M1.047 0h1.062v-3.89h3.766v-.938H2.109v-2.938h4.157v-.937h-5.22Zm0 0"/></symbol><symbol overflow="visible" id="l"><path style="stroke:none" d="M1.047 0h5.11v-.938H2.108v-7.765H1.047Zm0 0"/></symbol><symbol overflow="visible" id="m"><path style="stroke:none" d="M1.047 0h3.156C6.25 0 7.11-1 7.11-2.313c0-1.374-.953-2.124-1.75-2.171v-.094c.75-.203 1.407-.688 1.407-1.813 0-1.28-.844-2.312-2.672-2.312H1.047Zm1.062-.938v-3.03H4.25c1.14 0 1.86.765 1.86 1.655 0 .766-.532 1.376-1.907 1.376Zm0-3.937v-2.89h1.985c1.156 0 1.672.609 1.672 1.374 0 .922-.75 1.516-1.704 1.516Zm0 0"/></symbol><symbol overflow="visible" id="n"><path style="stroke:none" d="m1.406 0 .875-2.469h3.531L6.688 0h1.094L4.594-8.703H3.5L.312 0Zm1.219-3.406 1.39-3.922h.063l1.39 3.922Zm0 0"/></symbol><symbol overflow="visible" id="o"><path style="stroke:none" d="M8.063-5.984c-.329-1.782-1.75-2.844-3.5-2.844C2.328-8.828.719-7.11.719-4.36c0 2.765 1.61 4.484 3.844 4.484 1.75 0 3.171-1.063 3.5-2.844H7C6.75-1.517 5.719-.86 4.562-.86c-1.593 0-2.828-1.235-2.828-3.5 0-2.25 1.235-3.485 2.829-3.485 1.156 0 2.187.657 2.437 1.86Zm0 0"/></symbol><symbol overflow="visible" id="s"><path style="stroke:none" d="m3.188 0 .921-2.813h4.438L9.469 0h2.797l-4.25-12.313h-3.36L.406 0Zm1.578-4.844L6.28-9.5h.094L7.89-4.844Zm0 0"/></symbol><symbol overflow="visible" id="t"><path style="stroke:none" d="M3.297-12.313H.407L4.656 0h3.359l4.25-12.313h-2.89l-2.984 9.36h-.11Zm0 0"/></symbol><symbol overflow="visible" id="u"><path style="stroke:none" d="M5.234.188c2.282 0 3.829-1.125 4.188-2.829l-2.375-.156c-.25.703-.922 1.063-1.766 1.063-1.281 0-2.093-.844-2.093-2.22v-.015h6.28v-.703c0-3.14-1.89-4.687-4.343-4.687C2.406-9.36.656-7.422.656-4.58.656-1.64 2.391.188 5.234.188ZM3.188-5.548c.046-1.062.843-1.906 1.984-1.906 1.11 0 1.89.797 1.89 1.906Zm0 0"/></symbol><symbol overflow="visible" id="v"><path style="stroke:none" d="M1.016 0h2.562v-5.234c0-1.125.844-1.907 1.969-1.907.36 0 .844.047 1.078.125V-9.28a3.276 3.276 0 0 0-.797-.094c-1.047 0-1.89.61-2.219 1.75H3.5v-1.61H1.016Zm0 0"/></symbol><symbol overflow="visible" id="w"><path style="stroke:none" d="M2.61 3.469c1.906 0 2.906-.985 3.437-2.469L9.64-9.234H6.92L5-2.454h-.11l-1.906-6.78H.281L3.61.266l-.156.39c-.344.86-.984.906-1.89.625L1 3.203c.36.156.953.266 1.61.266Zm0 0"/></symbol><symbol overflow="visible" id="x"><path style="stroke:none" d="M1.078 0h7.875v-2.14H3.672v-10.172H1.078Zm0 0"/></symbol><symbol overflow="visible" id="y"><path style="stroke:none" d="M5.203.188C8 .188 9.75-1.734 9.75-4.579 9.75-7.453 8-9.36 5.203-9.36 2.391-9.36.656-7.453.656-4.58.656-1.733 2.391.188 5.203.188Zm0-1.985c-1.281 0-1.953-1.187-1.953-2.812 0-1.61.672-2.797 1.953-2.797 1.281 0 1.938 1.187 1.938 2.797 0 1.625-.657 2.812-1.938 2.812Zm0 0"/></symbol><symbol overflow="visible" id="z"><path style="stroke:none" d="M3.578-5.344c.016-1.187.719-1.89 1.75-1.89 1.031 0 1.656.671 1.656 1.812V0h2.563v-5.89c0-2.141-1.266-3.47-3.188-3.47-1.375 0-2.375.672-2.78 1.75h-.11v-1.624H1.016V0h2.562Zm0 0"/></symbol><symbol overflow="visible" id="A"><path style="stroke:none" d="M5.188 3.656c2.64 0 4.515-1.203 4.515-3.562v-9.328H7.156v1.546h-.093c-.344-.75-1.094-1.671-2.641-1.671C2.39-9.36.688-7.781.688-4.641c0 3.079 1.656 4.516 3.734 4.516 1.484 0 2.297-.75 2.64-1.516h.11V.047c0 1.281-.813 1.766-1.922 1.766-1.14 0-1.703-.485-1.922-1.047l-2.36.312c.298 1.453 1.72 2.578 4.22 2.578Zm.046-5.719c-1.25 0-1.937-1-1.937-2.593 0-1.563.672-2.672 1.937-2.672 1.25 0 1.954 1.062 1.954 2.672 0 1.64-.72 2.593-1.954 2.593Zm0 0"/></symbol><symbol overflow="visible" id="B"><path style="stroke:none" d="M3.656.172c1.36 0 2.25-.594 2.703-1.453h.079V0h2.421v-6.234C8.86-8.438 7-9.36 4.938-9.36c-2.22 0-3.672 1.062-4.016 2.75l2.36.187c.171-.61.718-1.062 1.64-1.062.875 0 1.375.437 1.375 1.187v.047c0 .594-.625.672-2.234.828-1.829.172-3.47.781-3.47 2.844C.594-.75 1.892.172 3.657.172Zm.735-1.766c-.782 0-1.36-.375-1.36-1.078 0-.719.61-1.062 1.5-1.203.563-.078 1.485-.203 1.782-.406v.984c0 .969-.797 1.703-1.922 1.703Zm0 0"/></symbol><symbol overflow="visible" id="C"><path style="stroke:none" d="M4.422.156c1.5 0 2.266-.86 2.625-1.64h.11V0h2.53v-12.313H7.126v4.626h-.078c-.344-.75-1.078-1.672-2.625-1.672C2.39-9.36.688-7.781.688-4.61c0 3.093 1.64 4.765 3.734 4.765Zm.812-2.047C3.984-1.89 3.297-3 3.297-4.625c0-1.594.672-2.703 1.937-2.703 1.25 0 1.954 1.062 1.954 2.703 0 1.656-.72 2.734-1.954 2.734Zm0 0"/></symbol><symbol overflow="visible" id="D"><path style="stroke:none" d="M3.672-12.313H1.078V0h2.594Zm0 0"/></symbol><symbol overflow="visible" id="E"><path style="stroke:none" d="M1.016 0h2.562v-5.547c0-1.016.656-1.703 1.516-1.703.843 0 1.406.578 1.406 1.484V0h2.484v-5.64c0-.954.547-1.61 1.485-1.61.812 0 1.422.516 1.422 1.547V0h2.562v-6.219c0-2-1.187-3.14-2.922-3.14-1.344 0-2.406.687-2.781 1.75h-.094C8.36-8.688 7.422-9.36 6.141-9.36c-1.235 0-2.188.656-2.563 1.75h-.11v-1.625H1.017Zm0 0"/></symbol><symbol overflow="visible" id="F"><path style="stroke:none" d="M1.016 3.469h2.562v-4.953h.078c.36.78 1.14 1.64 2.625 1.64 2.11 0 3.75-1.672 3.75-4.765 0-3.172-1.719-4.75-3.734-4.75-1.547 0-2.297.921-2.64 1.671h-.11v-1.546H1.016ZM3.53-4.625c0-1.64.703-2.703 1.938-2.703 1.281 0 1.953 1.11 1.953 2.703 0 1.625-.688 2.734-1.953 2.734-1.235 0-1.938-1.078-1.938-2.734Zm0 0"/></symbol><symbol overflow="visible" id="G"><path style="stroke:none" d="M8.703-6.61C8.484-8.311 7.11-9.36 4.781-9.36 2.406-9.36.86-8.265.86-6.483c0 1.39.86 2.28 2.672 2.64l1.594.313c.813.172 1.172.469 1.188.922-.016.546-.61.937-1.5.937-.922 0-1.516-.39-1.672-1.14l-2.532.14C.86-.906 2.36.188 4.813.188c2.39 0 4.109-1.235 4.109-3.047 0-1.344-.875-2.141-2.672-2.5l-1.672-.344c-.86-.188-1.172-.484-1.172-.922 0-.563.625-.922 1.406-.922.891 0 1.422.484 1.547 1.094Zm0 0"/></symbol><symbol overflow="visible" id="H"><path style="stroke:none" d="M1.016 0h2.562v-9.234H1.016Zm1.296-10.438c.766 0 1.391-.578 1.391-1.296 0-.704-.625-1.297-1.39-1.297-.766 0-1.391.594-1.391 1.297 0 .718.625 1.296 1.39 1.296Zm0 0"/></symbol><symbol overflow="visible" id="I"><path style="stroke:none" d="M9.64-9.234H6.923L5.016-2.625h-.094L3-9.235H.281L3.516 0h2.89Zm0 0"/></symbol><symbol overflow="visible" id="J"><path style="stroke:none" d="M.594-10.172h3.781V0h2.578v-10.172h3.766v-2.14H.594Zm0 0"/></symbol><symbol overflow="visible" id="K"><path style="stroke:none" d="M3.578-5.344c.016-1.187.735-1.89 1.781-1.89 1.047 0 1.657.671 1.657 1.812V0h2.562v-5.89c0-2.157-1.265-3.47-3.203-3.47-1.39 0-2.328.657-2.75 1.75h-.11v-4.702h-2.5V0h2.563Zm0 0"/></symbol><symbol overflow="visible" id="L"><path style="stroke:none" d="M5.938-9.234H4.202v-2.22H1.641v2.22H.375v1.921h1.266V-2.5C1.625-.687 2.859.203 4.719.125c.656-.016 1.125-.156 1.39-.234l-.406-1.907c-.125.016-.39.079-.64.079-.516 0-.86-.188-.86-.907v-4.469h1.734Zm0 0"/></symbol><symbol overflow="visible" id="M"><path style="stroke:none" d="M3.578-12.313H1.016V0h2.562Zm0 0"/></symbol><symbol overflow="visible" id="N"><path style="stroke:none" d="M2.844 0h2.703L7.14-5.813h.109L8.844 0h2.719l2.5-9.234h-2.579l-1.421 6.171h-.079L8.47-9.233H5.938l-1.5 6.203h-.079L2.922-9.234H.328Zm0 0"/></symbol><symbol overflow="visible" id="O"><path style="stroke:none" d="M1.078 0h2.594v-5.094h5.015v-2.14H3.673v-2.938h5.562v-2.14H1.078Zm0 0"/></symbol><symbol overflow="visible" id="P"><path style="stroke:none" d="M5.203.188c2.453 0 4-1.454 4.125-3.579H6.906c-.156.985-.797 1.547-1.672 1.547-1.203 0-1.984-1-1.984-2.781 0-1.734.781-2.734 1.984-2.734.938 0 1.532.609 1.672 1.53h2.422c-.11-2.124-1.734-3.53-4.14-3.53C2.374-9.36.655-7.422.655-4.58.656-1.78 2.36.188 5.203.188Zm0 0"/></symbol><symbol overflow="visible" id="Q"><path style="stroke:none" d="M1.078 0h5.25c2.766 0 4.25-1.438 4.25-3.406 0-1.828-1.312-2.922-2.703-2.985v-.125c1.281-.28 2.219-1.203 2.219-2.64 0-1.86-1.375-3.156-4.094-3.156H1.078Zm2.594-2.125v-3.281h2.187c1.25 0 2.032.718 2.032 1.75 0 .922-.641 1.531-2.094 1.531Zm0-5.047v-3.047h1.984c1.157 0 1.813.594 1.813 1.485 0 .984-.797 1.562-1.86 1.562Zm0 0"/></symbol><symbol overflow="visible" id="R"><path style="stroke:none" d="M1.016 0h2.562v-2.938l.703-.78L6.797 0h3L6.203-5.234l3.422-4H6.687l-2.968 3.5h-.14v-6.579H1.015Zm0 0"/></symbol><symbol overflow="visible" id="S"><path style="stroke:none" d="M4.36 0c3.093 0 4.827-1.922 4.827-5.094 0-3.14-1.734-5.047-4.687-5.047H1.234V0ZM2.452-1.094v-7.953h1.969C6.797-9.047 8-7.547 8-5.094c0 2.485-1.203 4-3.719 4Zm0 0"/></symbol><symbol overflow="visible" id="T"><path style="stroke:none" d="M4.156.156C6.22.156 7.61-1.406 7.61-3.766c0-2.375-1.39-3.937-3.453-3.937C2.094-7.703.72-6.141.72-3.766.72-1.406 2.095.156 4.157.156Zm0-1.047c-1.562 0-2.281-1.343-2.281-2.875 0-1.53.719-2.89 2.281-2.89 1.563 0 2.282 1.36 2.282 2.89 0 1.532-.72 2.875-2.282 2.875Zm0 0"/></symbol><symbol overflow="visible" id="U"><path style="stroke:none" d="M4.156.156c1.688 0 2.797-1.031 3-2.375H5.984C5.766-1.39 5.078-.89 4.156-.89c-1.375 0-2.281-1.156-2.281-2.906 0-1.734.922-2.86 2.281-2.86 1.032 0 1.657.641 1.828 1.329h1.172C6.953-6.75 5.75-7.703 4.141-7.703 2.078-7.703.719-6.078.719-3.766.719-1.484 2.016.156 4.156.156Zm0 0"/></symbol><symbol overflow="visible" id="V"><path style="stroke:none" d="M4.375-7.61H2.75v-1.827H1.578v1.828H.438v.984h1.14v4.766C1.578-.531 2.656.094 3.641.094c.437 0 .718-.078.875-.14L4.28-1.095a1.729 1.729 0 0 1-.515.063c-.516 0-1.016-.157-1.016-1.14v-4.454h1.625Zm0 0"/></symbol><symbol overflow="visible" id="W"><path style="stroke:none" d="M1.063 0h1.171v-4.813c0-1.03.813-1.78 1.922-1.78.313 0 .64.062.719.077v-1.187a7.206 7.206 0 0 0-.61-.031c-.921 0-1.702.515-1.984 1.28h-.078v-1.155h-1.14Zm0 0"/></symbol><symbol overflow="visible" id="X"><path style="stroke:none" d="M3.313.172c1.328 0 2.015-.703 2.25-1.203h.062V0h1.172v-5.016c0-2.421-1.844-2.687-2.813-2.687-1.156 0-2.453.39-3.046 1.781l1.109.39c.25-.546.86-1.14 1.969-1.14 1.078 0 1.609.563 1.609 1.547v.031c0 .563-.578.516-1.953.703C2.25-4.219.719-3.906.719-2.156.719-.672 1.859.172 3.313.172Zm.171-1.047c-.921 0-1.609-.406-1.609-1.219 0-.89.813-1.172 1.734-1.297.485-.062 1.813-.203 2.016-.437v1.078c0 .953-.75 1.875-2.14 1.875Zm0 0"/></symbol><symbol overflow="visible" id="Y"><path style="stroke:none" d="M4.266.156c1.546 0 2.671-.765 3.03-1.922l-1.14-.312c-.297.797-.984 1.187-1.89 1.187-1.375 0-2.329-.89-2.375-2.515h5.515v-.5c0-2.828-1.687-3.797-3.265-3.797C2.078-7.703.719-6.078.719-3.75.719-1.406 2.063.156 4.266.156ZM1.89-4.422c.078-1.187.906-2.234 2.25-2.234 1.265 0 2.078.953 2.078 2.234Zm0 0"/></symbol><symbol overflow="visible" id="Z"><path style="stroke:none" d="M1.063 0h1.171v-7.61H1.063Zm.609-8.875c.453 0 .828-.36.828-.797 0-.437-.375-.797-.828-.797-.469 0-.844.36-.844.797 0 .438.375.797.844.797Zm0 0"/></symbol><symbol overflow="visible" id="aa"><path style="stroke:none" d="M2.234-4.578c0-1.328.829-2.078 1.954-2.078 1.078 0 1.734.703 1.734 1.906V0h1.172v-4.828c0-1.953-1.032-2.875-2.578-2.875-1.141 0-1.86.516-2.22 1.281h-.093v-1.187h-1.14V0h1.171Zm0 0"/></symbol><symbol overflow="visible" id="ac"><path style="stroke:none" d="M1.234 0h1.22v-3.703h2.218c2.36 0 3.437-1.438 3.437-3.235 0-1.796-1.078-3.203-3.453-3.203H1.234Zm1.22-4.797v-4.25h2.155c1.657 0 2.282.89 2.282 2.11 0 1.218-.625 2.14-2.25 2.14Zm0 0"/></symbol><symbol overflow="visible" id="ad"><path style="stroke:none" d="M2.234-4.578c0-1.328.844-2.078 2-2.078C5.344-6.656 6-5.97 6-4.75V0h1.172v-4.828c0-1.969-1.047-2.875-2.594-2.875-1.203 0-1.89.5-2.234 1.281h-.11v-3.719H1.063V0h1.171Zm0 0"/></symbol><symbol overflow="visible" id="ae"><path style="stroke:none" d="M4.14 3.016c1.829 0 3.298-.844 3.298-2.797V-7.61H6.296v1.203h-.11c-.265-.39-.734-1.297-2.218-1.297-1.922 0-3.25 1.516-3.25 3.86 0 2.374 1.375 3.718 3.219 3.718 1.484 0 1.968-.86 2.218-1.281h.11V.14c0 1.265-.891 1.843-2.125 1.843-1.375 0-1.86-.734-2.172-1.156l-.938.656c.469.797 1.407 1.532 3.11 1.532Zm-.046-4.188c-1.453 0-2.219-1.11-2.219-2.687 0-1.547.734-2.797 2.219-2.797 1.437 0 2.187 1.14 2.187 2.797 0 1.687-.765 2.687-2.187 2.687Zm0 0"/></symbol><symbol overflow="visible" id="af"><path style="stroke:none" d="M1.063 0h1.171v-4.75c0-1.125.813-1.906 1.735-1.906.875 0 1.5.578 1.5 1.453V0h1.187v-4.953c0-.984.61-1.703 1.688-1.703.828 0 1.547.437 1.547 1.562V0h1.171v-5.094c0-1.781-.968-2.61-2.328-2.61-1.093 0-1.89.5-2.28 1.282h-.079C6-7.234 5.344-7.703 4.344-7.703c-1 0-1.735.469-2.047 1.281h-.094v-1.187h-1.14Zm0 0"/></symbol><symbol overflow="visible" id="ag"><path style="stroke:none" d="M9.266-10.14H8.062v7.984H7.97l-5.547-7.985H1.234V0h1.22v-7.969h.108L8.079 0h1.188Zm0 0"/></symbol><symbol overflow="visible" id="ai"><path style="stroke:none" d="M6.781-7.61H7.97c-.064-1.53-1.47-2.67-3.44-2.67-1.937 0-3.468 1.125-3.468 2.828 0 1.375 1 2.187 2.578 2.64l1.25.36c1.078.297 2.03.672 2.03 1.672 0 1.11-1.077 1.844-2.484 1.844-1.203 0-2.28-.532-2.375-1.672H.798C.907-.953 2.266.17 4.437.17c2.344 0 3.672-1.28 3.672-2.921 0-1.906-1.812-2.516-2.859-2.797l-1.031-.281c-.75-.188-1.953-.594-1.953-1.688 0-.968.89-1.671 2.234-1.671 1.219 0 2.156.578 2.281 1.578Zm0 0"/></symbol><symbol overflow="visible" id="aj"><path style="stroke:none" d="M1.063 2.86h1.171v-4.032h.11c.25.422.75 1.328 2.219 1.328 1.89 0 3.218-1.515 3.218-3.937 0-2.406-1.328-3.922-3.25-3.922-1.484 0-1.937.906-2.187 1.297h-.14V-7.61H1.061Zm1.156-6.657c0-1.719.75-2.86 2.172-2.86 1.5 0 2.234 1.25 2.234 2.86 0 1.625-.766 2.906-2.234 2.906-1.407 0-2.172-1.187-2.172-2.906Zm0 0"/></symbol><symbol overflow="visible" id="ak"><path style="stroke:none" d="M2.234-10.14H1.063V0h1.171Zm0 0"/></symbol><symbol overflow="visible" id="al"><path style="stroke:none" d="M.86 0h5.952v-1.094H2.484v-.078l4.188-5.5v-.937H.984v1.093h4.188v.079L.859-.891Zm0 0"/></symbol><symbol overflow="visible" id="am"><path style="stroke:none" d="M1.828 2.86c1.047 0 1.797-.563 2.234-1.75l3.235-8.72H6.016L3.922-1.546h-.078L1.75-7.609H.469L3.28.047 3.078.64c-.437 1.156-.953 1.265-1.812 1.046L.969 2.72c.125.062.453.14.86.14Zm0 0"/></symbol><symbol overflow="visible" id="an"><path style="stroke:none" d="M5.11-10.14v7.25c0 1.265-.61 1.937-1.657 1.937-.969 0-1.672-.563-1.672-1.422H.578C.578-.812 1.781.141 3.453.141c1.75 0 2.89-1.094 2.89-3.032v-7.25Zm0 0"/></symbol><symbol overflow="visible" id="ao"><path style="stroke:none" d="M1.64-10.14H.36L4.077 0h1.266l3.734-10.14H7.781l-3 8.53h-.125Zm0 0"/></symbol><symbol overflow="visible" id="ap"><path style="stroke:none" d="M1.234 0h5.938v-1.094H2.453v-9.047H1.234Zm0 0"/></symbol><symbol overflow="visible" id="ab"><path style="stroke:none" d="M4.594 2.953 1.75-3.5l2.844-6.453H3.89L.734-3.5l3.157 6.453Zm0 0"/></symbol><symbol overflow="visible" id="ah"><path style="stroke:none" d="M4.594-3.5 1.437-9.953H.735L3.594-3.5.734 2.953h.704Zm0 0"/></symbol><symbol overflow="visible" id="aq"><path style="stroke:none" d="M.484-6.453H2.75V0h.875v-6.453h2.281v-.781H.484Zm0 0"/></symbol><symbol overflow="visible" id="ar"><path style="stroke:none" d="M1.594-3.266c0-.937.61-1.484 1.422-1.484.796 0 1.265.5 1.265 1.36V0h.828v-3.453c0-1.39-.734-2.047-1.843-2.047-.86 0-1.344.36-1.594.922h-.078v-2.656H.766V0h.828Zm0 0"/></symbol><symbol overflow="visible" id="as"><path style="stroke:none" d="M3.031.11c1.11 0 1.906-.547 2.172-1.36l-.812-.234c-.204.562-.704.843-1.36.843-.969 0-1.64-.625-1.687-1.78H5.28v-.36C5.28-4.797 4.077-5.5 2.952-5.5 1.484-5.5.516-4.344.516-2.672S1.469.11 3.03.11ZM1.344-3.157C1.406-4 2-4.75 2.954-4.75c.905 0 1.483.688 1.483 1.594Zm0 0"/></symbol><symbol overflow="visible" id="at"><path style="stroke:none" d="M4.61-4.203C4.343-4.984 3.75-5.5 2.686-5.5c-1.14 0-2 .656-2 1.578 0 .75.454 1.25 1.454 1.485l.89.203c.547.125.813.39.813.765 0 .469-.5.844-1.266.844-.687 0-1.11-.297-1.265-.875l-.797.203C.719-.375 1.469.11 2.578.11c1.266 0 2.125-.687 2.125-1.625 0-.75-.469-1.234-1.437-1.468l-.813-.188c-.64-.172-.922-.375-.922-.797 0-.469.485-.812 1.157-.812.718 0 1.03.406 1.171.781Zm0 0"/></symbol><symbol overflow="visible" id="au"><path style="stroke:none" d="M.766 0h.828v-5.422H.766Zm.421-6.328c.329 0 .594-.25.594-.563 0-.312-.265-.562-.593-.562-.329 0-.594.25-.594.562 0 .313.265.563.594.563Zm0 0"/></symbol><symbol overflow="visible" id="av"><path style="stroke:none" d="M4.188-2.219c0 1.016-.782 1.485-1.407 1.485-.687 0-1.187-.516-1.187-1.297v-3.39H.766v3.437c0 1.39.734 2.062 1.75 2.062.812 0 1.359-.453 1.609-1h.063V0h.828v-5.422h-.829Zm0 0"/></symbol><symbol overflow="visible" id="aw"><path style="stroke:none" d="M.766 2.031h.828v-2.86h.078c.172.298.531.938 1.578.938 1.36 0 2.297-1.078 2.297-2.812 0-1.703-.938-2.797-2.313-2.797-1.062 0-1.39.656-1.562.938h-.11v-.86H.766Zm.812-4.75c0-1.203.547-2.031 1.563-2.031 1.046 0 1.578.89 1.578 2.031 0 1.172-.532 2.078-1.578 2.078-1 0-1.563-.843-1.563-2.078Zm0 0"/></symbol><symbol overflow="visible" id="ax"><path style="stroke:none" d="M.766 0h.828v-3.438c0-.734.578-1.265 1.375-1.265.219 0 .453.047.5.062V-5.5c-.094 0-.313-.016-.438-.016-.64 0-1.203.375-1.406.907h-.063v-.813H.766Zm0 0"/></symbol><symbol overflow="visible" id="ay"><path style="stroke:none" d="M5.203-5.422h-.906l-1.5 4.313h-.063L1.25-5.422H.344l2 5.422h.844Zm0 0"/></symbol><symbol overflow="visible" id="az"><path style="stroke:none" d="M2.813.11c1.046 0 1.39-.641 1.578-.938h.093V0h.813v-7.234h-.828v2.671H4.39c-.188-.28-.5-.937-1.563-.937C1.453-5.5.516-4.406.516-2.703.516-.97 1.453.109 2.812.109Zm.109-.75c-1.047 0-1.578-.907-1.578-2.079 0-1.14.515-2.031 1.578-2.031 1.015 0 1.562.828 1.562 2.031 0 1.235-.562 2.078-1.562 2.078Zm0 0"/></symbol><symbol overflow="visible" id="aA"><path style="stroke:none" d="M.875 0h.813v-.828h.093c.188.297.532.937 1.578.937 1.36 0 2.313-1.078 2.313-2.812 0-1.703-.953-2.797-2.328-2.797-1.063 0-1.375.656-1.563.938h-.078v-2.672H.875Zm.813-2.719c0-1.203.546-2.031 1.562-2.031 1.063 0 1.578.89 1.578 2.031 0 1.172-.531 2.078-1.578 2.078-1 0-1.563-.843-1.563-2.078Zm0 0"/></symbol><symbol overflow="visible" id="aB"><path style="stroke:none" d="M1.297 2.031c.75 0 1.281-.39 1.594-1.234l2.312-6.219h-.906l-1.5 4.313h-.063L1.25-5.422H.344l2 5.453-.156.422c-.297.828-.672.906-1.282.75l-.219.734c.094.047.329.094.61.094Zm0 0"/></symbol><symbol overflow="visible" id="aC"><path style="stroke:none" d="M1.375.063A.64.64 0 0 0 2-.579a.64.64 0 0 0-.625-.64c-.36 0-.64.296-.64.64 0 .344.28.64.64.64Zm0-4.032A.63.63 0 0 0 2-4.609a.627.627 0 0 0-.625-.625.634.634 0 1 0 0 1.266Zm0 0"/></symbol><symbol overflow="visible" id="aD"><path style="stroke:none" d="M.875-7.234V0h.813v-5.5h.078L4.03 0h.782l2.265-5.5h.063V0h.828v-7.234H6.922l-2.453 6h-.094l-2.453-6Zm0 0"/></symbol><symbol overflow="visible" id="aE"><path style="stroke:none" d="M2.36.125c.953 0 1.437-.5 1.609-.86h.047V0h.828v-3.578c0-1.719-1.313-1.922-2-1.922-.828 0-1.75.281-2.188 1.281l.797.282c.188-.407.625-.829 1.422-.829.766 0 1.14.407 1.14 1.11v.031c0 .39-.406.36-1.406.484C1.61-3 .516-2.78.516-1.547c0 1.063.812 1.672 1.843 1.672Zm.124-.75c-.656 0-1.14-.297-1.14-.875 0-.64.578-.828 1.234-.922.344-.031 1.297-.14 1.438-.297v.75c0 .688-.547 1.344-1.532 1.344Zm0 0"/></symbol><symbol overflow="visible" id="aF"><path style="stroke:none" d="M3.11 0c2.203 0 3.437-1.375 3.437-3.625s-1.234-3.61-3.344-3.61H.875V0ZM1.75-.781v-5.672h1.406c1.688 0 2.547 1.078 2.547 2.828 0 1.766-.86 2.844-2.656 2.844Zm0 0"/></symbol><symbol overflow="visible" id="aG"><path style="stroke:none" d="M2.969.11C4.438.11 5.422-1 5.422-2.688s-.984-2.813-2.453-2.813C1.5-5.5.516-4.375.516-2.687.516-1 1.5.108 2.969.108Zm0-.75c-1.125 0-1.625-.954-1.625-2.047 0-1.079.5-2.063 1.625-2.063 1.11 0 1.625.984 1.625 2.063 0 1.093-.516 2.046-1.625 2.046Zm0 0"/></symbol><symbol overflow="visible" id="aH"><path style="stroke:none" d="m1.172 0 .734-2.047h2.922L5.547 0h.922L3.812-7.234h-.906L.25 0Zm1-2.828 1.156-3.266h.063l1.156 3.266Zm0 0"/></symbol><symbol overflow="visible" id="aI"><path style="stroke:none" d="M6.61-7.234h-.86v5.687h-.078L1.719-7.234H.875V0h.875v-5.672h.078L5.766 0h.843Zm0 0"/></symbol><symbol overflow="visible" id="aJ"><path style="stroke:none" d="M.766 0h.828v-3.39c0-.797.578-1.36 1.234-1.36.625 0 1.078.422 1.078 1.031V0h.844v-3.531c0-.703.438-1.219 1.203-1.219.594 0 1.094.313 1.094 1.125V0h.828v-3.625c0-1.281-.672-1.875-1.64-1.875-.782 0-1.344.36-1.626.922h-.062C4.28-5.156 3.813-5.5 3.094-5.5c-.703 0-1.235.344-1.453.922h-.079v-.844H.766Zm0 0"/></symbol><symbol overflow="visible" id="aK"><path style="stroke:none" d="M2-.984h-.89l-.048.39C.954.36.75 1.312.656 1.766h.64c.173-.485.532-1.563.657-2.375Zm0 0"/></symbol><symbol overflow="visible" id="aL"><path style="stroke:none" d="M3.64-7.234v5.171c0 .907-.421 1.391-1.187 1.391-.687 0-1.187-.406-1.187-1.015h-.86c0 1.109.86 1.78 2.047 1.78 1.266 0 2.063-.765 2.063-2.155v-5.172Zm0 0"/></symbol><symbol overflow="visible" id="aM"><path style="stroke:none" d="M1.594-3.266c0-.937.593-1.484 1.39-1.484.766 0 1.235.516 1.235 1.36V0h.843v-3.453c0-1.375-.75-2.047-1.843-2.047-.813 0-1.328.375-1.578.922h-.079v-.844H.766V0h.828Zm0 0"/></symbol><symbol overflow="visible" id="aN"><path style="stroke:none" d="M6.688-4.969c-.266-1.484-1.454-2.36-2.907-2.36-1.844 0-3.187 1.423-3.187 3.72C.594-1.33 1.938.094 3.78.094c1.453 0 2.64-.875 2.906-2.36h-.875C5.61-1.25 4.75-.719 3.783-.719c-1.313 0-2.345-1.015-2.345-2.89 0-1.891 1.032-2.907 2.344-2.907.969 0 1.828.547 2.031 1.547Zm0 0"/></symbol><symbol overflow="visible" id="aO"><path style="stroke:none" d="M3.875-4H.703v.766h3.172Zm0 0"/></symbol><symbol overflow="visible" id="aP"><path style="stroke:none" d="M3.125-5.422H1.969v-1.297h-.844v1.297H.312v.703h.813v3.39c0 .954.766 1.407 1.469 1.407.312 0 .515-.062.625-.11l-.172-.75c-.063.016-.172.048-.36.048-.374 0-.718-.11-.718-.813v-3.172h1.156Zm0 0"/></symbol><symbol overflow="visible" id="aQ"><path style="stroke:none" d="M2.969.11c1.203 0 1.984-.735 2.125-1.688h-.828c-.157.594-.657.937-1.297.937-.985 0-1.625-.812-1.625-2.078 0-1.219.64-2.031 1.625-2.031.734 0 1.172.453 1.297.953h.828c-.14-1.015-1-1.703-2.14-1.703C1.483-5.5.515-4.344.515-2.687c0 1.624.921 2.796 2.453 2.796Zm0 0"/></symbol><symbol overflow="visible" id="aR"><path style="stroke:none" d="M1.984 0h.829L4-4.172h.078L5.266 0h.828l1.64-5.422H6.86l-1.171 4.14H5.64l-1.157-4.14H3.61L2.438-1.266H2.39L1.219-5.422H.344Zm0 0"/></symbol><symbol overflow="visible" id="aS"><path style="stroke:none" d="M2.953 2.14c1.297 0 2.344-.593 2.344-1.984v-5.578h-.813v.86h-.078C4.22-4.845 3.891-5.5 2.828-5.5 1.453-5.5.516-4.406.516-2.734c0 1.687.984 2.656 2.296 2.656 1.063 0 1.391-.625 1.579-.922h.078V.094c0 .906-.64 1.312-1.516 1.312-.984 0-1.328-.515-1.562-.812l-.657.469c.344.562 1 1.078 2.22 1.078ZM2.922-.827c-1.047 0-1.578-.797-1.578-1.922 0-1.11.515-2 1.578-2 1.015 0 1.562.828 1.562 2 0 1.203-.562 1.922-1.562 1.922Zm0 0"/></symbol><symbol overflow="visible" id="aT"><path style="stroke:none" d="M3.172-5.422H1.969v-.547c0-.547.218-.828.765-.828.25 0 .391.063.47.094l.25-.719a1.875 1.875 0 0 0-.798-.156c-.781 0-1.531.469-1.531 1.406v.75H.25v.703h.875V0h.844v-4.719h1.203Zm0 0"/></symbol><symbol overflow="visible" id="aU"><path style="stroke:none" d="M.875 0h.875v-2.64h1.578c1.688 0 2.453-1.032 2.453-2.297 0-1.282-.765-2.297-2.468-2.297H.874Zm.875-3.422v-3.031h1.547c1.172 0 1.625.64 1.625 1.516 0 .859-.453 1.515-1.61 1.515Zm0 0"/></symbol><symbol overflow="visible" id="aV"><path style="stroke:none" d="M1.594-7.234H.766V0h.828Zm0 0"/></symbol><clipPath id="p"><path d="M263 229h84v17.395h-84Zm0 0"/></clipPath><clipPath id="q"><path d="M261.371 206h98.91v19h-98.91Zm0 0"/></clipPath><clipPath id="r"><path d="M261.371 117.41H339V195h-77.629Zm0 0"/></clipPath></defs><path style="stroke:none;fill-rule:nonzero;fill:#fff;fill-opacity:1" d="M0 842.09h595.277V.2H0Zm0 0"/><use xlink:href="#a" x="232.638" y="40.194" style="fill:#000;fill-opacity:1"/><use xlink:href="#b" x="241.5" y="40.194" style="fill:#000;fill-opacity:1"/><use xlink:href="#c" x="250.5" y="40.194" style="fill:#000;fill-opacity:1"/><use xlink:href="#d" x="253.659" y="40.194" style="fill:#000;fill-opacity:1"/><use xlink:href="#e" x="261.743" y="40.194" style="fill:#000;fill-opacity:1"/><use xlink:href="#f" x="268.892" y="40.194" style="fill:#000;fill-opacity:1"/><use xlink:href="#g" x="276.535" y="40.194" style="fill:#000;fill-opacity:1"/><use xlink:href="#c" x="284.159" y="40.194" style="fill:#000;fill-opacity:1"/><use xlink:href="#h" x="287.318" y="40.194" style="fill:#000;fill-opacity:1"/><use xlink:href="#i" x="294.994" y="40.194" style="fill:#000;fill-opacity:1"/><use xlink:href="#j" x="306.303" y="40.194" style="fill:#000;fill-opacity:1"/><use xlink:href="#k" x="315.407" y="40.194" style="fill:#000;fill-opacity:1"/><use xlink:href="#l" x="325.781" y="40.194" style="fill:#000;fill-opacity:1"/><use xlink:href="#c" x="332.508" y="40.194" style="fill:#000;fill-opacity:1"/><use xlink:href="#g" x="335.663" y="40.194" style="fill:#000;fill-opacity:1"/><use xlink:href="#m" x="343.292" y="40.194" style="fill:#000;fill-opacity:1"/><use xlink:href="#j" x="351.068" y="40.194" style="fill:#000;fill-opacity:1"/><use xlink:href="#b" x="360.171" y="40.194" style="fill:#000;fill-opacity:1"/><use xlink:href="#k" x="233.759" y="60.365" style="fill:#000;fill-opacity:1"/><use xlink:href="#n" x="239.684" y="60.365" style="fill:#000;fill-opacity:1"/><use xlink:href="#o" x="247.36" y="60.365" style="fill:#000;fill-opacity:1"/><use xlink:href="#a" x="256.056" y="60.365" style="fill:#000;fill-opacity:1"/><use xlink:href="#l" x="264.918" y="60.365" style="fill:#000;fill-opacity:1"/><use xlink:href="#h" x="270.491" y="60.365" style="fill:#000;fill-opacity:1"/><use xlink:href="#i" x="278.166" y="60.365" style="fill:#000;fill-opacity:1"/><use xlink:href="#j" x="289.475" y="60.365" style="fill:#000;fill-opacity:1"/><use xlink:href="#k" x="298.575" y="60.365" style="fill:#000;fill-opacity:1"/><use xlink:href="#g" x="308.953" y="60.365" style="fill:#000;fill-opacity:1"/><use xlink:href="#o" x="316.577" y="60.365" style="fill:#000;fill-opacity:1"/><use xlink:href="#c" x="325.273" y="60.365" style="fill:#000;fill-opacity:1"/><use xlink:href="#e" x="328.433" y="60.365" style="fill:#000;fill-opacity:1"/><use xlink:href="#b" x="335.582" y="60.365" style="fill:#000;fill-opacity:1"/><use xlink:href="#o" x="344.582" y="60.365" style="fill:#000;fill-opacity:1"/><use xlink:href="#e" x="353.273" y="60.365" style="fill:#000;fill-opacity:1"/><use xlink:href="#g" x="360.423" y="60.365" style="fill:#000;fill-opacity:1"/><g clip-path="url(#p)"><path style="stroke:none;fill-rule:nonzero;fill:#000;fill-opacity:1" d="M269.445 244.04c-1.824 0-3.422-1.34-3.422-3.395v-10.391h-2.488v10.39c0 3.489 2.719 5.75 5.91 5.75 3.164 0 5.887-2.261 5.887-5.75v-10.39h-2.469v10.39c0 2.055-1.593 3.395-3.418 3.395m10.348 2.125h8.82v-2.238h-6.375v-13.672h-2.445Zm14.039 0h-2.355v-10.781h2.355Zm-2.77-15.152c0 .855.739 1.504 1.594 1.504.875 0 1.567-.649 1.567-1.504 0-.852-.692-1.496-1.567-1.496-.855 0-1.594.644-1.594 1.496m8.961 10.488 1.454.348c.785.183 1.5.578 1.5 1.27 0 .808-.829 1.292-1.914 1.292-1.25 0-2.008-.625-2.125-1.547h-2.196c.047 2.262 2.125 3.532 4.133 3.532 2.473 0 4.297-1.18 4.297-3.254 0-1.086-.485-2.563-2.817-3.141l-1.664-.418c-.578-.16-1.175-.418-1.316-.832a1.115 1.115 0 0 1 .094-.969c.23-.37.922-.601 1.523-.601.738 0 1.48.347 1.57 1.156h2.262c-.137-2.309-2.008-3.188-3.922-3.188-1.988 0-3.722 1.247-3.859 2.84-.137 1.73.691 2.887 2.98 3.512m10.137-.762c0-2.129 1.684-3.285 3.305-3.285 1.8 0 3.258 1.297 3.258 3.285 0 1.989-1.457 3.348-3.258 3.348-1.758 0-3.305-1.246-3.305-3.348m-.023 5.426v-1.57c.668 1.156 2.144 1.8 3.601 1.8 2.91 0 5.407-2.214 5.407-5.609 0-3.469-2.45-5.637-5.383-5.637-1.524 0-2.957.602-3.625 1.778v-7.41h-2.375v16.648Zm17.16-2.078c-1.781 0-3.258-1.316-3.258-3.348 0-1.988 1.477-3.258 3.258-3.258 1.8 0 3.281 1.27 3.281 3.258 0 2.032-1.48 3.348-3.281 3.348m0 2.309c3.07 0 5.656-2.239 5.656-5.657 0-3.422-2.586-5.59-5.656-5.59-3.05 0-5.613 2.168-5.613 5.59 0 3.418 2.562 5.657 5.613 5.657m17.273-.23h2.356v-10.782h-2.356v1.523c-.738-1.226-2.332-1.758-3.625-1.758-2.91 0-5.472 2.168-5.472 5.614 0 3.441 2.562 5.633 5.472 5.633 1.34 0 2.91-.602 3.625-1.778Zm-6.652-5.43c0-1.985 1.504-3.282 3.305-3.282 1.617 0 3.328 1.156 3.328 3.281 0 2.13-1.57 3.352-3.328 3.352-1.801 0-3.305-1.36-3.305-3.348Zm0 0"/></g><g clip-path="url(#q)"><path style="stroke:none;fill-rule:nonzero;fill:#000;fill-opacity:1" d="M274.188 218.977c-.907 1.367-2.446 2.32-4.208 2.32-2.808 0-4.867-2.348-4.867-5.258 0-2.934 2.059-5.285 4.867-5.285 1.735 0 3.204.883 4.11 2.207l2.91-2.008c-1.469-2.152-4.012-3.566-7.02-3.566-4.816 0-8.457 3.86-8.457 8.652 0 4.746 3.641 8.633 8.457 8.633 3.055 0 5.625-1.465 7.094-3.692Zm8.925-5.97h-3.375v11.419h3.375Zm-3.812-4.23c0 1.125.976 2.004 2.125 2.004 1.148 0 2.078-.879 2.078-2.004s-.93-1.976-2.078-1.976c-1.149 0-2.125.851-2.125 1.976m11.023-1.734-2.664 4.11h2.445l1.907-2.18 1.933 2.18h2.446l-2.692-4.11Zm4.5 13.617c-.562.738-1.562 1.078-2.492 1.078-1.2 0-2.64-.586-2.812-1.91h8.363c.023-.293.047-.758.047-1.047 0-3.597-2.59-6.015-5.844-6.015-3.277 0-5.965 2.32-5.965 5.914 0 3.593 2.688 5.992 5.965 5.992 1.934 0 4.059-.613 5.21-2.32Zm-5.258-2.953c.293-1.45 1.59-1.96 2.543-1.96.957 0 2.227.562 2.399 1.96Zm14.649.68c0-1.739.902-2.325 2.101-2.325 1.153 0 1.985.758 1.985 2.274v6.09h3.394v-6.824c0-3.247-1.613-4.836-4.18-4.836-1.343 0-2.69.757-3.3 1.902v-1.66h-3.399v11.418h3.399Zm10.367.293c0 3.593 2.934 5.992 6.207 5.992 2.059 0 3.89-.906 4.965-2.445l-2.762-1.957c-.465.734-1.32 1.152-2.203 1.152-1.441 0-2.836-1.102-2.836-2.742 0-1.637 1.395-2.664 2.836-2.664.883 0 1.738.414 2.203 1.148l2.762-1.98c-1.102-1.54-2.934-2.418-4.965-2.418-3.273 0-6.207 2.324-6.207 5.914m17.457-5.672h-3.371v11.418h3.371Zm-3.809-4.23c0 1.124.973 2.003 2.125 2.003 1.145 0 2.075-.879 2.075-2.004s-.93-1.976-2.075-1.976c-1.152 0-2.125.851-2.125 1.976m15.965 15.649h3.371v-11.418h-3.37v1.273c-.884-1.273-2.594-1.515-3.329-1.515-2.91 0-5.82 2.27-5.82 5.941 0 3.668 2.91 5.941 5.82 5.941.88 0 2.594-.418 3.328-1.515Zm-5.629-5.723c0-1.637 1.446-2.71 2.864-2.71 1.394 0 2.765 1 2.765 2.71 0 1.715-1.37 2.719-2.765 2.719-1.418 0-2.864-1.078-2.864-2.715Zm17.145 1.418c.832.223 1.125.492 1.125.984 0 .586-.637.926-1.39.95-.934 0-1.669-.657-1.692-1.317h-3.176c.024 2.54 2.442 3.934 4.766 3.934 2.398 0 4.937-1.152 4.937-3.567 0-.734-.344-2.57-3.101-3.328l-1.934-.515c-.683-.172-.976-.512-1-.856-.027-.515.465-.86 1.2-.86.534.005 1.269.15 1.292 1.005h3.2c-.024-2.785-2.418-3.785-4.692-3.785-2.394 0-4.426 1.562-4.45 3.25-.023 1.05 0 2.789 3.423 3.718Zm0 0"/></g><path style="stroke:none;fill-rule:nonzero;fill:#000;fill-opacity:1" d="M309.496 162.875c-2.137 3.23-5.773 5.484-9.93 5.484-6.64 0-11.488-5.543-11.488-12.414 0-6.93 4.848-12.472 11.488-12.472 4.098 0 7.563 2.078 9.704 5.199l6.867-4.734c-3.465-5.083-9.469-8.43-16.57-8.43-11.376 0-19.977 9.12-19.977 20.437 0 11.203 8.601 20.38 19.976 20.38 7.215 0 13.278-3.462 16.747-8.72Zm-34.187-23.121h1.859v-3.488h2.855v-1.621h-2.855v-1.993h3.602v-1.632h-5.461Zm0 0"/><g clip-path="url(#r)"><path style="stroke:none;fill-rule:nonzero;fill:#000;fill-opacity:1" d="M338.39 117.41h-77.019v77.02h77.02Zm-8.085 68.93h-60.848v-60.844h60.848Zm0 0"/></g><use xlink:href="#s" x="185.646" y="292.98" style="fill:#000;fill-opacity:1"/><use xlink:href="#t" x="202.239" y="292.98" style="fill:#000;fill-opacity:1"/><use xlink:href="#u" x="213.852" y="292.98" style="fill:#000;fill-opacity:1"/><use xlink:href="#v" x="223.973" y="292.98" style="fill:#000;fill-opacity:1"/><use xlink:href="#w" x="231.182" y="292.98" style="fill:#000;fill-opacity:1"/><use xlink:href="#x" x="245.033" y="292.98" style="fill:#000;fill-opacity:1"/><use xlink:href="#y" x="254.647" y="292.98" style="fill:#000;fill-opacity:1"/><use xlink:href="#z" x="265.037" y="292.98" style="fill:#000;fill-opacity:1"/><use xlink:href="#A" x="275.567" y="292.98" style="fill:#000;fill-opacity:1"/><use xlink:href="#B" x="290.219" y="292.98" style="fill:#000;fill-opacity:1"/><use xlink:href="#z" x="300.049" y="292.98" style="fill:#000;fill-opacity:1"/><use xlink:href="#C" x="310.579" y="292.98" style="fill:#000;fill-opacity:1"/><use xlink:href="#D" x="325.267" y="292.98" style="fill:#000;fill-opacity:1"/><use xlink:href="#E" x="330.016" y="292.98" style="fill:#000;fill-opacity:1"/><use xlink:href="#F" x="345.46" y="292.98" style="fill:#000;fill-opacity:1"/><use xlink:href="#v" x="356.175" y="292.98" style="fill:#000;fill-opacity:1"/><use xlink:href="#u" x="362.662" y="292.98" style="fill:#000;fill-opacity:1"/><use xlink:href="#G" x="372.789" y="292.98" style="fill:#000;fill-opacity:1"/><use xlink:href="#G" x="382.302" y="292.98" style="fill:#000;fill-opacity:1"/><use xlink:href="#H" x="391.816" y="292.98" style="fill:#000;fill-opacity:1"/><use xlink:href="#I" x="396.423" y="292.98" style="fill:#000;fill-opacity:1"/><use xlink:href="#u" x="406.039" y="292.98" style="fill:#000;fill-opacity:1"/><use xlink:href="#J" x="149.845" y="313.524" style="fill:#000;fill-opacity:1"/><use xlink:href="#K" x="161.16" y="313.524" style="fill:#000;fill-opacity:1"/><use xlink:href="#u" x="171.735" y="313.524" style="fill:#000;fill-opacity:1"/><use xlink:href="#G" x="181.855" y="313.524" style="fill:#000;fill-opacity:1"/><use xlink:href="#H" x="191.369" y="313.524" style="fill:#000;fill-opacity:1"/><use xlink:href="#G" x="195.976" y="313.524" style="fill:#000;fill-opacity:1"/><use xlink:href="#J" x="209.423" y="313.524" style="fill:#000;fill-opacity:1"/><use xlink:href="#H" x="220.738" y="313.524" style="fill:#000;fill-opacity:1"/><use xlink:href="#L" x="225.345" y="313.524" style="fill:#000;fill-opacity:1"/><use xlink:href="#M" x="232.12" y="313.524" style="fill:#000;fill-opacity:1"/><use xlink:href="#u" x="236.727" y="313.524" style="fill:#000;fill-opacity:1"/><use xlink:href="#N" x="250.775" y="313.524" style="fill:#000;fill-opacity:1"/><use xlink:href="#H" x="265.174" y="313.524" style="fill:#000;fill-opacity:1"/><use xlink:href="#L" x="269.781" y="313.524" style="fill:#000;fill-opacity:1"/><use xlink:href="#K" x="276.556" y="313.524" style="fill:#000;fill-opacity:1"/><use xlink:href="#B" x="291.052" y="313.524" style="fill:#000;fill-opacity:1"/><use xlink:href="#O" x="304.809" y="313.524" style="fill:#000;fill-opacity:1"/><use xlink:href="#y" x="314.041" y="313.524" style="fill:#000;fill-opacity:1"/><use xlink:href="#v" x="324.431" y="313.524" style="fill:#000;fill-opacity:1"/><use xlink:href="#P" x="330.925" y="313.524" style="fill:#000;fill-opacity:1"/><use xlink:href="#u" x="340.869" y="313.524" style="fill:#000;fill-opacity:1"/><use xlink:href="#C" x="350.995" y="313.524" style="fill:#000;fill-opacity:1"/><use xlink:href="#x" x="365.678" y="313.524" style="fill:#000;fill-opacity:1"/><use xlink:href="#H" x="375.292" y="313.524" style="fill:#000;fill-opacity:1"/><use xlink:href="#z" x="379.899" y="313.524" style="fill:#000;fill-opacity:1"/><use xlink:href="#u" x="390.429" y="313.524" style="fill:#000;fill-opacity:1"/><use xlink:href="#Q" x="404.477" y="313.524" style="fill:#000;fill-opacity:1"/><use xlink:href="#v" x="415.669" y="313.524" style="fill:#000;fill-opacity:1"/><use xlink:href="#u" x="422.163" y="313.524" style="fill:#000;fill-opacity:1"/><use xlink:href="#B" x="432.283" y="313.524" style="fill:#000;fill-opacity:1"/><use xlink:href="#R" x="442.113" y="313.524" style="fill:#000;fill-opacity:1"/><use xlink:href="#S" x="188.414" y="420.305" style="fill:#000;fill-opacity:1"/><use xlink:href="#T" x="198.438" y="420.305" style="fill:#000;fill-opacity:1"/><use xlink:href="#U" x="206.757" y="420.305" style="fill:#000;fill-opacity:1"/><use xlink:href="#V" x="214.544" y="420.305" style="fill:#000;fill-opacity:1"/><use xlink:href="#T" x="219.535" y="420.305" style="fill:#000;fill-opacity:1"/><use xlink:href="#W" x="227.859" y="420.305" style="fill:#000;fill-opacity:1"/><use xlink:href="#X" x="233.046" y="420.305" style="fill:#000;fill-opacity:1"/><use xlink:href="#V" x="240.916" y="420.305" style="fill:#000;fill-opacity:1"/><use xlink:href="#Y" x="245.906" y="420.305" style="fill:#000;fill-opacity:1"/><use xlink:href="#Z" x="257.954" y="420.305" style="fill:#000;fill-opacity:1"/><use xlink:href="#aa" x="261.259" y="420.305" style="fill:#000;fill-opacity:1"/><use xlink:href="#ab" x="273.348" y="420.305" style="fill:#000;fill-opacity:1"/><use xlink:href="#ac" x="278.676" y="420.305" style="fill:#000;fill-opacity:1"/><use xlink:href="#ad" x="287.532" y="420.305" style="fill:#000;fill-opacity:1"/><use xlink:href="#S" x="295.773" y="420.305" style="fill:#000;fill-opacity:1"/><use xlink:href="#ac" x="309.72" y="420.305" style="fill:#000;fill-opacity:1"/><use xlink:href="#W" x="318.575" y="420.305" style="fill:#000;fill-opacity:1"/><use xlink:href="#T" x="323.529" y="420.305" style="fill:#000;fill-opacity:1"/><use xlink:href="#ae" x="331.848" y="420.305" style="fill:#000;fill-opacity:1"/><use xlink:href="#W" x="340.35" y="420.305" style="fill:#000;fill-opacity:1"/><use xlink:href="#X" x="345.541" y="420.305" style="fill:#000;fill-opacity:1"/><use xlink:href="#af" x="353.406" y="420.305" style="fill:#000;fill-opacity:1"/><use xlink:href="#ag" x="369.45" y="420.305" style="fill:#000;fill-opacity:1"/><use xlink:href="#X" x="379.955" y="420.305" style="fill:#000;fill-opacity:1"/><use xlink:href="#af" x="387.82" y="420.305" style="fill:#000;fill-opacity:1"/><use xlink:href="#Y" x="399.941" y="420.305" style="fill:#000;fill-opacity:1"/><use xlink:href="#ah" x="408.069" y="420.305" style="fill:#000;fill-opacity:1"/><use xlink:href="#ai" x="186.997" y="442.893" style="fill:#000;fill-opacity:1"/><use xlink:href="#aj" x="195.892" y="442.893" style="fill:#000;fill-opacity:1"/><use xlink:href="#Y" x="204.388" y="442.893" style="fill:#000;fill-opacity:1"/><use xlink:href="#U" x="212.513" y="442.893" style="fill:#000;fill-opacity:1"/><use xlink:href="#Z" x="220.3" y="442.893" style="fill:#000;fill-opacity:1"/><use xlink:href="#X" x="223.61" y="442.893" style="fill:#000;fill-opacity:1"/><use xlink:href="#ak" x="231.475" y="442.893" style="fill:#000;fill-opacity:1"/><use xlink:href="#Z" x="234.779" y="442.893" style="fill:#000;fill-opacity:1"/><use xlink:href="#al" x="238.089" y="442.893" style="fill:#000;fill-opacity:1"/><use xlink:href="#X" x="245.638" y="442.893" style="fill:#000;fill-opacity:1"/><use xlink:href="#V" x="253.503" y="442.893" style="fill:#000;fill-opacity:1"/><use xlink:href="#Z" x="258.578" y="442.893" style="fill:#000;fill-opacity:1"/><use xlink:href="#T" x="261.883" y="442.893" style="fill:#000;fill-opacity:1"/><use xlink:href="#aa" x="270.207" y="442.893" style="fill:#000;fill-opacity:1"/><use xlink:href="#Z" x="282.293" y="442.893" style="fill:#000;fill-opacity:1"/><use xlink:href="#aa" x="285.598" y="442.893" style="fill:#000;fill-opacity:1"/><use xlink:href="#ab" x="297.687" y="442.893" style="fill:#000;fill-opacity:1"/><use xlink:href="#ai" x="303.015" y="442.893" style="fill:#000;fill-opacity:1"/><use xlink:href="#aj" x="311.91" y="442.893" style="fill:#000;fill-opacity:1"/><use xlink:href="#Y" x="320.406" y="442.893" style="fill:#000;fill-opacity:1"/><use xlink:href="#U" x="328.531" y="442.893" style="fill:#000;fill-opacity:1"/><use xlink:href="#Z" x="336.318" y="442.893" style="fill:#000;fill-opacity:1"/><use xlink:href="#X" x="339.628" y="442.893" style="fill:#000;fill-opacity:1"/><use xlink:href="#ak" x="347.493" y="442.893" style="fill:#000;fill-opacity:1"/><use xlink:href="#Z" x="350.797" y="442.893" style="fill:#000;fill-opacity:1"/><use xlink:href="#V" x="354.107" y="442.893" style="fill:#000;fill-opacity:1"/><use xlink:href="#am" x="359.182" y="442.893" style="fill:#000;fill-opacity:1"/><use xlink:href="#ag" x="370.87" y="442.893" style="fill:#000;fill-opacity:1"/><use xlink:href="#X" x="381.369" y="442.893" style="fill:#000;fill-opacity:1"/><use xlink:href="#af" x="389.234" y="442.893" style="fill:#000;fill-opacity:1"/><use xlink:href="#Y" x="401.361" y="442.893" style="fill:#000;fill-opacity:1"/><use xlink:href="#ah" x="409.485" y="442.893" style="fill:#000;fill-opacity:1"/><use xlink:href="#an" x="216.07" y="559.425" style="fill:#000;fill-opacity:1"/><use xlink:href="#T" x="223.636" y="559.425" style="fill:#000;fill-opacity:1"/><use xlink:href="#ad" x="231.955" y="559.425" style="fill:#000;fill-opacity:1"/><use xlink:href="#aa" x="240.197" y="559.425" style="fill:#000;fill-opacity:1"/><use xlink:href="#ao" x="252.283" y="559.425" style="fill:#000;fill-opacity:1"/><use xlink:href="#Y" x="261.001" y="559.425" style="fill:#000;fill-opacity:1"/><use xlink:href="#W" x="269.126" y="559.425" style="fill:#000;fill-opacity:1"/><use xlink:href="#am" x="274.555" y="559.425" style="fill:#000;fill-opacity:1"/><use xlink:href="#ap" x="286.243" y="559.425" style="fill:#000;fill-opacity:1"/><use xlink:href="#T" x="294.087" y="559.425" style="fill:#000;fill-opacity:1"/><use xlink:href="#aa" x="302.411" y="559.425" style="fill:#000;fill-opacity:1"/><use xlink:href="#ae" x="310.569" y="559.425" style="fill:#000;fill-opacity:1"/><use xlink:href="#aa" x="319.071" y="559.425" style="fill:#000;fill-opacity:1"/><use xlink:href="#X" x="327.234" y="559.425" style="fill:#000;fill-opacity:1"/><use xlink:href="#af" x="335.099" y="559.425" style="fill:#000;fill-opacity:1"/><use xlink:href="#Y" x="347.225" y="559.425" style="fill:#000;fill-opacity:1"/><use xlink:href="#S" x="359.268" y="559.425" style="fill:#000;fill-opacity:1"/><use xlink:href="#T" x="369.292" y="559.425" style="fill:#000;fill-opacity:1"/><use xlink:href="#Y" x="377.616" y="559.425" style="fill:#000;fill-opacity:1"/><use xlink:href="#aq" x="249.606" y="629.881" style="fill:#000;fill-opacity:1"/><use xlink:href="#ar" x="256.002" y="629.881" style="fill:#000;fill-opacity:1"/><use xlink:href="#as" x="261.889" y="629.881" style="fill:#000;fill-opacity:1"/><use xlink:href="#at" x="267.689" y="629.881" style="fill:#000;fill-opacity:1"/><use xlink:href="#au" x="272.899" y="629.881" style="fill:#000;fill-opacity:1"/><use xlink:href="#at" x="275.26" y="629.881" style="fill:#000;fill-opacity:1"/><use xlink:href="#at" x="283.272" y="629.881" style="fill:#000;fill-opacity:1"/><use xlink:href="#av" x="288.479" y="629.881" style="fill:#000;fill-opacity:1"/><use xlink:href="#aw" x="294.267" y="629.881" style="fill:#000;fill-opacity:1"/><use xlink:href="#as" x="300.339" y="629.881" style="fill:#000;fill-opacity:1"/><use xlink:href="#ax" x="306.139" y="629.881" style="fill:#000;fill-opacity:1"/><use xlink:href="#ay" x="310.017" y="629.881" style="fill:#000;fill-opacity:1"/><use xlink:href="#au" x="315.564" y="629.881" style="fill:#000;fill-opacity:1"/><use xlink:href="#at" x="317.928" y="629.881" style="fill:#000;fill-opacity:1"/><use xlink:href="#as" x="323.135" y="629.881" style="fill:#000;fill-opacity:1"/><use xlink:href="#az" x="328.938" y="629.881" style="fill:#000;fill-opacity:1"/><use xlink:href="#aA" x="337.923" y="629.881" style="fill:#000;fill-opacity:1"/><use xlink:href="#aB" x="343.908" y="629.881" style="fill:#000;fill-opacity:1"/><use xlink:href="#aC" x="349.458" y="629.881" style="fill:#000;fill-opacity:1"/><use xlink:href="#aD" x="84.097" y="650.469" style="fill:#000;fill-opacity:1"/><use xlink:href="#aE" x="92.953" y="650.469" style="fill:#000;fill-opacity:1"/><use xlink:href="#ax" x="98.574" y="650.469" style="fill:#000;fill-opacity:1"/><use xlink:href="#aB" x="102.449" y="650.469" style="fill:#000;fill-opacity:1"/><use xlink:href="#aF" x="110.801" y="650.469" style="fill:#000;fill-opacity:1"/><use xlink:href="#aG" x="117.961" y="650.469" style="fill:#000;fill-opacity:1"/><use xlink:href="#as" x="123.903" y="650.469" style="fill:#000;fill-opacity:1"/><use xlink:href="#aH" x="132.509" y="650.469" style="fill:#000;fill-opacity:1"/><use xlink:href="#az" x="139.245" y="650.469" style="fill:#000;fill-opacity:1"/><use xlink:href="#ay" x="145.428" y="650.469" style="fill:#000;fill-opacity:1"/><use xlink:href="#au" x="150.975" y="650.469" style="fill:#000;fill-opacity:1"/><use xlink:href="#at" x="153.339" y="650.469" style="fill:#000;fill-opacity:1"/><use xlink:href="#as" x="158.546" y="650.469" style="fill:#000;fill-opacity:1"/><use xlink:href="#ax" x="164.349" y="650.469" style="fill:#000;fill-opacity:1"/><use xlink:href="#aI" x="170.86" y="650.469" style="fill:#000;fill-opacity:1"/><use xlink:href="#aE" x="178.359" y="650.469" style="fill:#000;fill-opacity:1"/><use xlink:href="#aJ" x="183.977" y="650.469" style="fill:#000;fill-opacity:1"/><use xlink:href="#as" x="192.639" y="650.469" style="fill:#000;fill-opacity:1"/><use xlink:href="#aK" x="198.439" y="650.469" style="fill:#000;fill-opacity:1"/><use xlink:href="#aL" x="204.028" y="650.469" style="fill:#000;fill-opacity:1"/><use xlink:href="#aG" x="209.436" y="650.469" style="fill:#000;fill-opacity:1"/><use xlink:href="#ar" x="215.378" y="650.469" style="fill:#000;fill-opacity:1"/><use xlink:href="#aM" x="221.265" y="650.469" style="fill:#000;fill-opacity:1"/><use xlink:href="#aF" x="229.898" y="650.469" style="fill:#000;fill-opacity:1"/><use xlink:href="#aG" x="237.058" y="650.469" style="fill:#000;fill-opacity:1"/><use xlink:href="#as" x="243.004" y="650.469" style="fill:#000;fill-opacity:1"/><use xlink:href="#aN" x="251.606" y="650.469" style="fill:#000;fill-opacity:1"/><use xlink:href="#aG" x="258.852" y="650.469" style="fill:#000;fill-opacity:1"/><use xlink:href="#aO" x="264.794" y="650.469" style="fill:#000;fill-opacity:1"/><use xlink:href="#aH" x="269.38" y="650.469" style="fill:#000;fill-opacity:1"/><use xlink:href="#az" x="276.117" y="650.469" style="fill:#000;fill-opacity:1"/><use xlink:href="#ay" x="282.3" y="650.469" style="fill:#000;fill-opacity:1"/><use xlink:href="#au" x="287.85" y="650.469" style="fill:#000;fill-opacity:1"/><use xlink:href="#at" x="290.21" y="650.469" style="fill:#000;fill-opacity:1"/><use xlink:href="#as" x="295.421" y="650.469" style="fill:#000;fill-opacity:1"/><use xlink:href="#ax" x="301.221" y="650.469" style="fill:#000;fill-opacity:1"/><use xlink:href="#aI" x="307.731" y="650.469" style="fill:#000;fill-opacity:1"/><use xlink:href="#aE" x="315.231" y="650.469" style="fill:#000;fill-opacity:1"/><use xlink:href="#aJ" x="320.848" y="650.469" style="fill:#000;fill-opacity:1"/><use xlink:href="#as" x="329.51" y="650.469" style="fill:#000;fill-opacity:1"/><use xlink:href="#aE" x="338.116" y="650.469" style="fill:#000;fill-opacity:1"/><use xlink:href="#aM" x="343.733" y="650.469" style="fill:#000;fill-opacity:1"/><use xlink:href="#az" x="349.565" y="650.469" style="fill:#000;fill-opacity:1"/><use xlink:href="#aL" x="358.55" y="650.469" style="fill:#000;fill-opacity:1"/><use xlink:href="#aG" x="363.954" y="650.469" style="fill:#000;fill-opacity:1"/><use xlink:href="#ar" x="369.9" y="650.469" style="fill:#000;fill-opacity:1"/><use xlink:href="#aM" x="375.787" y="650.469" style="fill:#000;fill-opacity:1"/><use xlink:href="#aF" x="384.42" y="650.469" style="fill:#000;fill-opacity:1"/><use xlink:href="#aG" x="391.58" y="650.469" style="fill:#000;fill-opacity:1"/><use xlink:href="#as" x="397.522" y="650.469" style="fill:#000;fill-opacity:1"/><use xlink:href="#aG" x="406.127" y="650.469" style="fill:#000;fill-opacity:1"/><use xlink:href="#aP" x="412.07" y="650.469" style="fill:#000;fill-opacity:1"/><use xlink:href="#ar" x="415.808" y="650.469" style="fill:#000;fill-opacity:1"/><use xlink:href="#as" x="421.694" y="650.469" style="fill:#000;fill-opacity:1"/><use xlink:href="#ax" x="427.494" y="650.469" style="fill:#000;fill-opacity:1"/><use xlink:href="#aN" x="434.005" y="650.469" style="fill:#000;fill-opacity:1"/><use xlink:href="#aG" x="441.251" y="650.469" style="fill:#000;fill-opacity:1"/><use xlink:href="#aO" x="447.194" y="650.469" style="fill:#000;fill-opacity:1"/><use xlink:href="#aH" x="451.779" y="650.469" style="fill:#000;fill-opacity:1"/><use xlink:href="#az" x="458.516" y="650.469" style="fill:#000;fill-opacity:1"/><use xlink:href="#ay" x="464.699" y="650.469" style="fill:#000;fill-opacity:1"/><use xlink:href="#au" x="470.246" y="650.469" style="fill:#000;fill-opacity:1"/><use xlink:href="#at" x="472.61" y="650.469" style="fill:#000;fill-opacity:1"/><use xlink:href="#as" x="477.82" y="650.469" style="fill:#000;fill-opacity:1"/><use xlink:href="#ax" x="483.62" y="650.469" style="fill:#000;fill-opacity:1"/><use xlink:href="#aI" x="490.13" y="650.469" style="fill:#000;fill-opacity:1"/><use xlink:href="#aE" x="497.63" y="650.469" style="fill:#000;fill-opacity:1"/><use xlink:href="#aJ" x="503.248" y="650.469" style="fill:#000;fill-opacity:1"/><use xlink:href="#as" x="511.909" y="650.469" style="fill:#000;fill-opacity:1"/><use xlink:href="#aF" x="156.921" y="758.073" style="fill:#000;fill-opacity:1"/><use xlink:href="#aG" x="164.081" y="758.073" style="fill:#000;fill-opacity:1"/><use xlink:href="#aQ" x="170.023" y="758.073" style="fill:#000;fill-opacity:1"/><use xlink:href="#av" x="175.585" y="758.073" style="fill:#000;fill-opacity:1"/><use xlink:href="#aJ" x="181.373" y="758.073" style="fill:#000;fill-opacity:1"/><use xlink:href="#as" x="190.035" y="758.073" style="fill:#000;fill-opacity:1"/><use xlink:href="#aM" x="195.835" y="758.073" style="fill:#000;fill-opacity:1"/><use xlink:href="#aP" x="201.666" y="758.073" style="fill:#000;fill-opacity:1"/><use xlink:href="#aR" x="208.09" y="758.073" style="fill:#000;fill-opacity:1"/><use xlink:href="#ax" x="216.186" y="758.073" style="fill:#000;fill-opacity:1"/><use xlink:href="#au" x="219.894" y="758.073" style="fill:#000;fill-opacity:1"/><use xlink:href="#aP" x="222.258" y="758.073" style="fill:#000;fill-opacity:1"/><use xlink:href="#aP" x="225.88" y="758.073" style="fill:#000;fill-opacity:1"/><use xlink:href="#as" x="229.445" y="758.073" style="fill:#000;fill-opacity:1"/><use xlink:href="#aM" x="235.248" y="758.073" style="fill:#000;fill-opacity:1"/><use xlink:href="#aP" x="243.881" y="758.073" style="fill:#000;fill-opacity:1"/><use xlink:href="#aG" x="247.446" y="758.073" style="fill:#000;fill-opacity:1"/><use xlink:href="#as" x="256.194" y="758.073" style="fill:#000;fill-opacity:1"/><use xlink:href="#aE" x="261.994" y="758.073" style="fill:#000;fill-opacity:1"/><use xlink:href="#ax" x="267.611" y="758.073" style="fill:#000;fill-opacity:1"/><use xlink:href="#aM" x="271.32" y="758.073" style="fill:#000;fill-opacity:1"/><use xlink:href="#aP" x="279.953" y="758.073" style="fill:#000;fill-opacity:1"/><use xlink:href="#ar" x="283.687" y="758.073" style="fill:#000;fill-opacity:1"/><use xlink:href="#as" x="289.574" y="758.073" style="fill:#000;fill-opacity:1"/><use xlink:href="#az" x="298.18" y="758.073" style="fill:#000;fill-opacity:1"/><use xlink:href="#as" x="304.363" y="758.073" style="fill:#000;fill-opacity:1"/><use xlink:href="#aS" x="310.166" y="758.073" style="fill:#000;fill-opacity:1"/><use xlink:href="#ax" x="316.235" y="758.073" style="fill:#000;fill-opacity:1"/><use xlink:href="#as" x="319.774" y="758.073" style="fill:#000;fill-opacity:1"/><use xlink:href="#as" x="325.577" y="758.073" style="fill:#000;fill-opacity:1"/><use xlink:href="#aG" x="334.179" y="758.073" style="fill:#000;fill-opacity:1"/><use xlink:href="#aT" x="340.125" y="758.073" style="fill:#000;fill-opacity:1"/><use xlink:href="#aF" x="346.521" y="758.073" style="fill:#000;fill-opacity:1"/><use xlink:href="#aG" x="353.681" y="758.073" style="fill:#000;fill-opacity:1"/><use xlink:href="#aQ" x="359.626" y="758.073" style="fill:#000;fill-opacity:1"/><use xlink:href="#aP" x="365.185" y="758.073" style="fill:#000;fill-opacity:1"/><use xlink:href="#aG" x="368.753" y="758.073" style="fill:#000;fill-opacity:1"/><use xlink:href="#ax" x="374.696" y="758.073" style="fill:#000;fill-opacity:1"/><use xlink:href="#aG" x="381.206" y="758.073" style="fill:#000;fill-opacity:1"/><use xlink:href="#aT" x="387.148" y="758.073" style="fill:#000;fill-opacity:1"/><use xlink:href="#aU" x="393.548" y="758.073" style="fill:#000;fill-opacity:1"/><use xlink:href="#ar" x="399.873" y="758.073" style="fill:#000;fill-opacity:1"/><use xlink:href="#au" x="405.76" y="758.073" style="fill:#000;fill-opacity:1"/><use xlink:href="#aV" x="408.124" y="758.073" style="fill:#000;fill-opacity:1"/><use xlink:href="#aG" x="410.484" y="758.073" style="fill:#000;fill-opacity:1"/><use xlink:href="#at" x="416.43" y="758.073" style="fill:#000;fill-opacity:1"/><use xlink:href="#aG" x="421.636" y="758.073" style="fill:#000;fill-opacity:1"/><use xlink:href="#aw" x="427.582" y="758.073" style="fill:#000;fill-opacity:1"/><use xlink:href="#ar" x="433.651" y="758.073" style="fill:#000;fill-opacity:1"/><use xlink:href="#aB" x="439.34" y="758.073" style="fill:#000;fill-opacity:1"/><use xlink:href="#ab" x="281.243" y="816.525" style="fill:#000;fill-opacity:1"/><use xlink:href="#am" x="286.571" y="816.525" style="fill:#000;fill-opacity:1"/><use xlink:href="#Y" x="294.059" y="816.525" style="fill:#000;fill-opacity:1"/><use xlink:href="#X" x="302.179" y="816.525" style="fill:#000;fill-opacity:1"/><use xlink:href="#W" x="310.044" y="816.525" style="fill:#000;fill-opacity:1"/><use xlink:href="#ah" x="315.239" y="816.525" style="fill:#000;fill-opacity:1"/></svg>
