<svg xmlns="http://www.w3.org/2000/svg" xmlns:xlink="http://www.w3.org/1999/xlink" width="793.701" height="1122.52" viewBox="0 0 595.276 841.89"><defs><symbol overflow="visible" id="a"><path style="stroke:none" d="M6.766-8.703v5.672c0 1.281-.875 2.203-2.329 2.203-1.453 0-2.328-.922-2.328-2.203v-5.672H1.047v5.765c0 1.782 1.344 3.094 3.39 3.094 2.047 0 3.375-1.312 3.375-3.094v-5.765Zm0 0"/></symbol><symbol overflow="visible" id="b"><path style="stroke:none" d="M7.953-8.703H6.922v6.844h-.094l-4.75-6.844H1.047V0h1.062v-6.828h.079L6.938 0h1.015Zm0 0"/></symbol><symbol overflow="visible" id="c"><path style="stroke:none" d="M2.11-8.703H1.046V0h1.062Zm0 0"/></symbol><symbol overflow="visible" id="d"><path style="stroke:none" d="M1.406-8.703H.313L3.5 0h1.094L7.78-8.703H6.688L4.094-1.375H4Zm0 0"/></symbol><symbol overflow="visible" id="e"><path style="stroke:none" d="M1.047 0h5.328v-.938H2.109V-3.89h3.922v-.937H2.11v-2.938h4.204v-.937H1.046Zm0 0"/></symbol><symbol overflow="visible" id="f"><path style="stroke:none" d="M1.047 0h1.062v-3.406h2.125L6.063 0h1.234L5.328-3.594c1.11-.375 1.625-1.281 1.625-2.437 0-1.547-.922-2.672-2.953-2.672H1.047Zm1.062-4.36v-3.406h1.86c1.406 0 1.953.688 1.953 1.735 0 1.047-.547 1.672-1.938 1.672Zm0 0"/></symbol><symbol overflow="visible" id="g"><path style="stroke:none" d="M5.813-6.531h1.015c-.047-1.313-1.25-2.297-2.937-2.297-1.657 0-2.97.969-2.97 2.437 0 1.172.845 1.875 2.204 2.266l1.078.297c.906.265 1.734.578 1.734 1.453 0 .953-.921 1.578-2.125 1.578-1.046 0-1.953-.469-2.046-1.453H.687C.781-.812 1.938.156 3.813.156c2 0 3.141-1.11 3.141-2.515C6.953-4 5.406-4.516 4.5-4.766L3.625-5c-.656-.172-1.688-.516-1.688-1.438 0-.843.766-1.453 1.922-1.453 1.047 0 1.86.5 1.954 1.36Zm0 0"/></symbol><symbol overflow="visible" id="h"><path style="stroke:none" d="M.578-7.766h2.735V0h1.062v-7.766h2.734v-.937H.58Zm0 0"/></symbol><symbol overflow="visible" id="i"><path style="stroke:none" d="m.313-8.703 3.14 5.11V0H4.5v-3.594l3.156-5.11H6.438L4.03-4.64h-.11L1.517-8.703Zm0 0"/></symbol><symbol overflow="visible" id="j"><path style="stroke:none" d="M8.39-4.36c0-2.75-1.609-4.468-3.828-4.468C2.329-8.828.72-7.11.72-4.36.72-1.595 2.33.124 4.564.124 6.78.125 8.39-1.594 8.39-4.359Zm-1.015 0c0 2.266-1.234 3.5-2.813 3.5-1.593 0-2.828-1.234-2.828-3.5 0-2.25 1.235-3.484 2.829-3.484 1.578 0 2.812 1.235 2.812 3.485Zm0 0"/></symbol><symbol overflow="visible" id="k"><path style="stroke:none" d="M1.047 0h1.062v-3.89h3.766v-.938H2.109v-2.938h4.157v-.937h-5.22Zm0 0"/></symbol><symbol overflow="visible" id="l"><path style="stroke:none" d="M1.047 0h5.11v-.938H2.108v-7.765H1.047Zm0 0"/></symbol><symbol overflow="visible" id="m"><path style="stroke:none" d="M1.047 0h3.156C6.25 0 7.11-1 7.11-2.313c0-1.374-.953-2.124-1.75-2.171v-.094c.75-.203 1.407-.688 1.407-1.813 0-1.28-.844-2.312-2.672-2.312H1.047Zm1.062-.938v-3.03H4.25c1.14 0 1.86.765 1.86 1.655 0 .766-.532 1.376-1.907 1.376Zm0-3.937v-2.89h1.985c1.156 0 1.672.609 1.672 1.374 0 .922-.75 1.516-1.704 1.516Zm0 0"/></symbol><symbol overflow="visible" id="n"><path style="stroke:none" d="m1.406 0 .875-2.469h3.531L6.688 0h1.094L4.594-8.703H3.5L.312 0Zm1.219-3.406 1.39-3.922h.063l1.39 3.922Zm0 0"/></symbol><symbol overflow="visible" id="o"><path style="stroke:none" d="M8.063-5.984c-.329-1.782-1.75-2.844-3.5-2.844C2.328-8.828.719-7.11.719-4.36c0 2.765 1.61 4.484 3.844 4.484 1.75 0 3.171-1.063 3.5-2.844H7C6.75-1.517 5.719-.86 4.562-.86c-1.593 0-2.828-1.235-2.828-3.5 0-2.25 1.235-3.485 2.829-3.485 1.156 0 2.187.657 2.437 1.86Zm0 0"/></symbol><symbol overflow="visible" id="p"><path style="stroke:none" d="M3.734 0c2.657 0 4.157-1.656 4.157-4.375 0-2.703-1.5-4.328-4.032-4.328H1.047V0ZM2.11-.938v-6.828h1.688c2.031 0 3.078 1.282 3.078 3.391 0 2.125-1.047 3.438-3.203 3.438Zm0 0"/></symbol><symbol overflow="visible" id="q"><path style="stroke:none" d="M1.047 0h1.062v-3.172h1.907c2.03 0 2.937-1.234 2.937-2.781 0-1.531-.906-2.75-2.953-2.75H1.047Zm1.062-4.11v-3.656h1.86c1.406 0 1.953.766 1.953 1.813S5.375-4.11 3.984-4.11Zm0 0"/></symbol><symbol overflow="visible" id="r"><path style="stroke:none" d="M1.047-8.703V0h1v-6.61h.078L4.844 0h.953l2.719-6.61h.093V0h.985v-8.703H8.328L5.375-1.484h-.11l-2.952-7.22Zm0 0"/></symbol><symbol overflow="visible" id="t"><path style="stroke:none" d="M1.047 0h1.062v-3.89H6.75V0h1.047v-8.703H6.75v3.875H2.11v-3.875H1.046Zm0 0"/></symbol><symbol overflow="visible" id="s"><path style="stroke:none" d="M3.938 2.531 1.5-3l2.438-5.516h-.61L.641-3l2.687 5.531Zm0 0"/></symbol><symbol overflow="visible" id="u"><path style="stroke:none" d="M3.938-3 1.233-8.516H.641L3.078-3 .641 2.531h.593Zm0 0"/></symbol><symbol overflow="visible" id="x"><path style="stroke:none" d="m3.188 0 .921-2.813h4.438L9.469 0h2.797l-4.25-12.313h-3.36L.406 0Zm1.578-4.844L6.28-9.5h.094L7.89-4.844Zm0 0"/></symbol><symbol overflow="visible" id="y"><path style="stroke:none" d="M3.297-12.313H.407L4.656 0h3.359l4.25-12.313h-2.89l-2.984 9.36h-.11Zm0 0"/></symbol><symbol overflow="visible" id="z"><path style="stroke:none" d="M5.234.188c2.282 0 3.829-1.125 4.188-2.829l-2.375-.156c-.25.703-.922 1.063-1.766 1.063-1.281 0-2.093-.844-2.093-2.22v-.015h6.28v-.703c0-3.14-1.89-4.687-4.343-4.687C2.406-9.36.656-7.422.656-4.58.656-1.64 2.391.188 5.234.188ZM3.188-5.548c.046-1.062.843-1.906 1.984-1.906 1.11 0 1.89.797 1.89 1.906Zm0 0"/></symbol><symbol overflow="visible" id="A"><path style="stroke:none" d="M1.016 0h2.562v-5.234c0-1.125.844-1.907 1.969-1.907.36 0 .844.047 1.078.125V-9.28a3.276 3.276 0 0 0-.797-.094c-1.047 0-1.89.61-2.219 1.75H3.5v-1.61H1.016Zm0 0"/></symbol><symbol overflow="visible" id="B"><path style="stroke:none" d="M2.61 3.469c1.906 0 2.906-.985 3.437-2.469L9.64-9.234H6.92L5-2.454h-.11l-1.906-6.78H.281L3.61.266l-.156.39c-.344.86-.984.906-1.89.625L1 3.203c.36.156.953.266 1.61.266Zm0 0"/></symbol><symbol overflow="visible" id="C"><path style="stroke:none" d="M1.078 0h7.875v-2.14H3.672v-10.172H1.078Zm0 0"/></symbol><symbol overflow="visible" id="D"><path style="stroke:none" d="M5.203.188C8 .188 9.75-1.734 9.75-4.579 9.75-7.453 8-9.36 5.203-9.36 2.391-9.36.656-7.453.656-4.58.656-1.733 2.391.188 5.203.188Zm0-1.985c-1.281 0-1.953-1.187-1.953-2.812 0-1.61.672-2.797 1.953-2.797 1.281 0 1.938 1.187 1.938 2.797 0 1.625-.657 2.812-1.938 2.812Zm0 0"/></symbol><symbol overflow="visible" id="E"><path style="stroke:none" d="M3.578-5.344c.016-1.187.719-1.89 1.75-1.89 1.031 0 1.656.671 1.656 1.812V0h2.563v-5.89c0-2.141-1.266-3.47-3.188-3.47-1.375 0-2.375.672-2.78 1.75h-.11v-1.624H1.016V0h2.562Zm0 0"/></symbol><symbol overflow="visible" id="F"><path style="stroke:none" d="M5.188 3.656c2.64 0 4.515-1.203 4.515-3.562v-9.328H7.156v1.546h-.093c-.344-.75-1.094-1.671-2.641-1.671C2.39-9.36.688-7.781.688-4.641c0 3.079 1.656 4.516 3.734 4.516 1.484 0 2.297-.75 2.64-1.516h.11V.047c0 1.281-.813 1.766-1.922 1.766-1.14 0-1.703-.485-1.922-1.047l-2.36.312c.298 1.453 1.72 2.578 4.22 2.578Zm.046-5.719c-1.25 0-1.937-1-1.937-2.593 0-1.563.672-2.672 1.937-2.672 1.25 0 1.954 1.062 1.954 2.672 0 1.64-.72 2.593-1.954 2.593Zm0 0"/></symbol><symbol overflow="visible" id="G"><path style="stroke:none" d="M3.656.172c1.36 0 2.25-.594 2.703-1.453h.079V0h2.421v-6.234C8.86-8.438 7-9.36 4.938-9.36c-2.22 0-3.672 1.062-4.016 2.75l2.36.187c.171-.61.718-1.062 1.64-1.062.875 0 1.375.437 1.375 1.187v.047c0 .594-.625.672-2.234.828-1.829.172-3.47.781-3.47 2.844C.594-.75 1.892.172 3.657.172Zm.735-1.766c-.782 0-1.36-.375-1.36-1.078 0-.719.61-1.062 1.5-1.203.563-.078 1.485-.203 1.782-.406v.984c0 .969-.797 1.703-1.922 1.703Zm0 0"/></symbol><symbol overflow="visible" id="H"><path style="stroke:none" d="M4.422.156c1.5 0 2.266-.86 2.625-1.64h.11V0h2.53v-12.313H7.126v4.626h-.078c-.344-.75-1.078-1.672-2.625-1.672C2.39-9.36.688-7.781.688-4.61c0 3.093 1.64 4.765 3.734 4.765Zm.812-2.047C3.984-1.89 3.297-3 3.297-4.625c0-1.594.672-2.703 1.937-2.703 1.25 0 1.954 1.062 1.954 2.703 0 1.656-.72 2.734-1.954 2.734Zm0 0"/></symbol><symbol overflow="visible" id="I"><path style="stroke:none" d="M3.672-12.313H1.078V0h2.594Zm0 0"/></symbol><symbol overflow="visible" id="J"><path style="stroke:none" d="M1.016 0h2.562v-5.547c0-1.016.656-1.703 1.516-1.703.843 0 1.406.578 1.406 1.484V0h2.484v-5.64c0-.954.547-1.61 1.485-1.61.812 0 1.422.516 1.422 1.547V0h2.562v-6.219c0-2-1.187-3.14-2.922-3.14-1.344 0-2.406.687-2.781 1.75h-.094C8.36-8.688 7.422-9.36 6.141-9.36c-1.235 0-2.188.656-2.563 1.75h-.11v-1.625H1.017Zm0 0"/></symbol><symbol overflow="visible" id="K"><path style="stroke:none" d="M1.016 3.469h2.562v-4.953h.078c.36.78 1.14 1.64 2.625 1.64 2.11 0 3.75-1.672 3.75-4.765 0-3.172-1.719-4.75-3.734-4.75-1.547 0-2.297.921-2.64 1.671h-.11v-1.546H1.016ZM3.53-4.625c0-1.64.703-2.703 1.938-2.703 1.281 0 1.953 1.11 1.953 2.703 0 1.625-.688 2.734-1.953 2.734-1.235 0-1.938-1.078-1.938-2.734Zm0 0"/></symbol><symbol overflow="visible" id="L"><path style="stroke:none" d="M8.703-6.61C8.484-8.311 7.11-9.36 4.781-9.36 2.406-9.36.86-8.265.86-6.483c0 1.39.86 2.28 2.672 2.64l1.594.313c.813.172 1.172.469 1.188.922-.016.546-.61.937-1.5.937-.922 0-1.516-.39-1.672-1.14l-2.532.14C.86-.906 2.36.188 4.813.188c2.39 0 4.109-1.235 4.109-3.047 0-1.344-.875-2.141-2.672-2.5l-1.672-.344c-.86-.188-1.172-.484-1.172-.922 0-.563.625-.922 1.406-.922.891 0 1.422.484 1.547 1.094Zm0 0"/></symbol><symbol overflow="visible" id="M"><path style="stroke:none" d="M1.016 0h2.562v-9.234H1.016Zm1.296-10.438c.766 0 1.391-.578 1.391-1.296 0-.704-.625-1.297-1.39-1.297-.766 0-1.391.594-1.391 1.297 0 .718.625 1.296 1.39 1.296Zm0 0"/></symbol><symbol overflow="visible" id="N"><path style="stroke:none" d="M9.64-9.234H6.923L5.016-2.625h-.094L3-9.235H.281L3.516 0h2.89Zm0 0"/></symbol><symbol overflow="visible" id="O"><path style="stroke:none" d="M.594-10.172h3.781V0h2.578v-10.172h3.766v-2.14H.594Zm0 0"/></symbol><symbol overflow="visible" id="P"><path style="stroke:none" d="M3.578-5.344c.016-1.187.735-1.89 1.781-1.89 1.047 0 1.657.671 1.657 1.812V0h2.562v-5.89c0-2.157-1.265-3.47-3.203-3.47-1.39 0-2.328.657-2.75 1.75h-.11v-4.702h-2.5V0h2.563Zm0 0"/></symbol><symbol overflow="visible" id="Q"><path style="stroke:none" d="M5.938-9.234H4.202v-2.22H1.641v2.22H.375v1.921h1.266V-2.5C1.625-.687 2.859.203 4.719.125c.656-.016 1.125-.156 1.39-.234l-.406-1.907c-.125.016-.39.079-.64.079-.516 0-.86-.188-.86-.907v-4.469h1.734Zm0 0"/></symbol><symbol overflow="visible" id="R"><path style="stroke:none" d="M3.578-12.313H1.016V0h2.562Zm0 0"/></symbol><symbol overflow="visible" id="S"><path style="stroke:none" d="M2.844 0h2.703L7.14-5.813h.109L8.844 0h2.719l2.5-9.234h-2.579l-1.421 6.171h-.079L8.47-9.233H5.938l-1.5 6.203h-.079L2.922-9.234H.328Zm0 0"/></symbol><symbol overflow="visible" id="T"><path style="stroke:none" d="M1.078 0h2.594v-5.094h5.015v-2.14H3.673v-2.938h5.562v-2.14H1.078Zm0 0"/></symbol><symbol overflow="visible" id="U"><path style="stroke:none" d="M5.203.188c2.453 0 4-1.454 4.125-3.579H6.906c-.156.985-.797 1.547-1.672 1.547-1.203 0-1.984-1-1.984-2.781 0-1.734.781-2.734 1.984-2.734.938 0 1.532.609 1.672 1.53h2.422c-.11-2.124-1.734-3.53-4.14-3.53C2.374-9.36.655-7.422.655-4.58.656-1.78 2.36.188 5.203.188Zm0 0"/></symbol><symbol overflow="visible" id="V"><path style="stroke:none" d="M1.078 0h5.25c2.766 0 4.25-1.438 4.25-3.406 0-1.828-1.312-2.922-2.703-2.985v-.125c1.281-.28 2.219-1.203 2.219-2.64 0-1.86-1.375-3.156-4.094-3.156H1.078Zm2.594-2.125v-3.281h2.187c1.25 0 2.032.718 2.032 1.75 0 .922-.641 1.531-2.094 1.531Zm0-5.047v-3.047h1.984c1.157 0 1.813.594 1.813 1.485 0 .984-.797 1.562-1.86 1.562Zm0 0"/></symbol><symbol overflow="visible" id="W"><path style="stroke:none" d="M1.016 0h2.562v-2.938l.703-.78L6.797 0h3L6.203-5.234l3.422-4H6.687l-2.968 3.5h-.14v-6.579H1.015Zm0 0"/></symbol><symbol overflow="visible" id="X"><path style="stroke:none" d="M5.11-10.14v7.25c0 1.265-.61 1.937-1.657 1.937-.969 0-1.672-.563-1.672-1.422H.578C.578-.812 1.781.141 3.453.141c1.75 0 2.89-1.094 2.89-3.032v-7.25Zm0 0"/></symbol><symbol overflow="visible" id="Y"><path style="stroke:none" d="M4.156.156C6.22.156 7.61-1.406 7.61-3.766c0-2.375-1.39-3.937-3.453-3.937C2.094-7.703.72-6.141.72-3.766.72-1.406 2.095.156 4.157.156Zm0-1.047c-1.562 0-2.281-1.343-2.281-2.875 0-1.53.719-2.89 2.281-2.89 1.563 0 2.282 1.36 2.282 2.89 0 1.532-.72 2.875-2.282 2.875Zm0 0"/></symbol><symbol overflow="visible" id="Z"><path style="stroke:none" d="M2.234-4.578c0-1.328.844-2.078 2-2.078C5.344-6.656 6-5.97 6-4.75V0h1.172v-4.828c0-1.969-1.047-2.875-2.594-2.875-1.203 0-1.89.5-2.234 1.281h-.11v-3.719H1.063V0h1.171Zm0 0"/></symbol><symbol overflow="visible" id="aa"><path style="stroke:none" d="M2.234-4.578c0-1.328.829-2.078 1.954-2.078 1.078 0 1.734.703 1.734 1.906V0h1.172v-4.828c0-1.953-1.032-2.875-2.578-2.875-1.141 0-1.86.516-2.22 1.281h-.093v-1.187h-1.14V0h1.171Zm0 0"/></symbol><symbol overflow="visible" id="ab"><path style="stroke:none" d="M1.64-10.14H.36L4.077 0h1.266l3.734-10.14H7.781l-3 8.53h-.125Zm0 0"/></symbol><symbol overflow="visible" id="ac"><path style="stroke:none" d="M4.266.156c1.546 0 2.671-.765 3.03-1.922l-1.14-.312c-.297.797-.984 1.187-1.89 1.187-1.375 0-2.329-.89-2.375-2.515h5.515v-.5c0-2.828-1.687-3.797-3.265-3.797C2.078-7.703.719-6.078.719-3.75.719-1.406 2.063.156 4.266.156ZM1.89-4.422c.078-1.187.906-2.234 2.25-2.234 1.265 0 2.078.953 2.078 2.234Zm0 0"/></symbol><symbol overflow="visible" id="ad"><path style="stroke:none" d="M1.063 0h1.171v-4.813c0-1.03.813-1.78 1.922-1.78.313 0 .64.062.719.077v-1.187a7.206 7.206 0 0 0-.61-.031c-.921 0-1.702.515-1.984 1.28h-.078v-1.155h-1.14Zm0 0"/></symbol><symbol overflow="visible" id="ae"><path style="stroke:none" d="M1.828 2.86c1.047 0 1.797-.563 2.234-1.75l3.235-8.72H6.016L3.922-1.546h-.078L1.75-7.609H.469L3.28.047 3.078.64c-.437 1.156-.953 1.265-1.812 1.046L.969 2.72c.125.062.453.14.86.14Zm0 0"/></symbol><symbol overflow="visible" id="af"><path style="stroke:none" d="M1.234 0h5.938v-1.094H2.453v-9.047H1.234Zm0 0"/></symbol><symbol overflow="visible" id="ag"><path style="stroke:none" d="M4.14 3.016c1.829 0 3.298-.844 3.298-2.797V-7.61H6.296v1.203h-.11c-.265-.39-.734-1.297-2.218-1.297-1.922 0-3.25 1.516-3.25 3.86 0 2.374 1.375 3.718 3.219 3.718 1.484 0 1.968-.86 2.218-1.281h.11V.14c0 1.265-.891 1.843-2.125 1.843-1.375 0-1.86-.734-2.172-1.156l-.938.656c.469.797 1.407 1.532 3.11 1.532Zm-.046-4.188c-1.453 0-2.219-1.11-2.219-2.687 0-1.547.734-2.797 2.219-2.797 1.437 0 2.187 1.14 2.187 2.797 0 1.687-.765 2.687-2.187 2.687Zm0 0"/></symbol><symbol overflow="visible" id="ah"><path style="stroke:none" d="M3.313.172c1.328 0 2.015-.703 2.25-1.203h.062V0h1.172v-5.016c0-2.421-1.844-2.687-2.813-2.687-1.156 0-2.453.39-3.046 1.781l1.109.39c.25-.546.86-1.14 1.969-1.14 1.078 0 1.609.563 1.609 1.547v.031c0 .563-.578.516-1.953.703C2.25-4.219.719-3.906.719-2.156.719-.672 1.859.172 3.313.172Zm.171-1.047c-.921 0-1.609-.406-1.609-1.219 0-.89.813-1.172 1.734-1.297.485-.062 1.813-.203 2.016-.437v1.078c0 .953-.75 1.875-2.14 1.875Zm0 0"/></symbol><symbol overflow="visible" id="ai"><path style="stroke:none" d="M1.063 0h1.171v-4.75c0-1.125.813-1.906 1.735-1.906.875 0 1.5.578 1.5 1.453V0h1.187v-4.953c0-.984.61-1.703 1.688-1.703.828 0 1.547.437 1.547 1.562V0h1.171v-5.094c0-1.781-.968-2.61-2.328-2.61-1.093 0-1.89.5-2.28 1.282h-.079C6-7.234 5.344-7.703 4.344-7.703c-1 0-1.735.469-2.047 1.281h-.094v-1.187h-1.14Zm0 0"/></symbol><symbol overflow="visible" id="aj"><path style="stroke:none" d="M4.36 0c3.093 0 4.827-1.922 4.827-5.094 0-3.14-1.734-5.047-4.687-5.047H1.234V0ZM2.452-1.094v-7.953h1.969C6.797-9.047 8-7.547 8-5.094c0 2.485-1.203 4-3.719 4Zm0 0"/></symbol><symbol overflow="visible" id="ak"><path style="stroke:none" d="M1.234-10.14V0h1.141v-7.703h.11L5.64 0h1.11l3.172-7.703h.11V0h1.14v-10.14H9.703L6.266-1.72H6.14l-3.453-8.42Zm0 0"/></symbol><symbol overflow="visible" id="al"><path style="stroke:none" d="M6.453-5.906c-.36-1.078-1.187-1.797-2.687-1.797-1.61 0-2.797.906-2.797 2.187 0 1.063.625 1.766 2.015 2.094l1.282.297c.765.172 1.125.547 1.125 1.063 0 .656-.688 1.187-1.782 1.187-.953 0-1.562-.406-1.765-1.219l-1.11.266C1-.531 2.078.156 3.625.156c1.766 0 2.969-.969 2.969-2.281 0-1.063-.657-1.719-2.016-2.063l-1.125-.265c-.906-.234-1.312-.531-1.312-1.11 0-.656.687-1.14 1.625-1.14 1.015 0 1.437.578 1.64 1.094Zm0 0"/></symbol><symbol overflow="visible" id="am"><path style="stroke:none" d="M4.375-7.61H2.75v-1.827H1.578v1.828H.438v.984h1.14v4.766C1.578-.531 2.656.094 3.641.094c.437 0 .718-.078.875-.14L4.28-1.095a1.729 1.729 0 0 1-.515.063c-.516 0-1.016-.157-1.016-1.14v-4.454h1.625Zm0 0"/></symbol><symbol overflow="visible" id="an"><path style="stroke:none" d="M1.063 0h1.171v-7.61H1.063Zm.609-8.875c.453 0 .828-.36.828-.797 0-.437-.375-.797-.828-.797-.469 0-.844.36-.844.797 0 .438.375.797.844.797Zm0 0"/></symbol><symbol overflow="visible" id="ap"><path style="stroke:none" d="M1.234 0h1.22v-3.703h2.218c2.36 0 3.437-1.438 3.437-3.235 0-1.796-1.078-3.203-3.453-3.203H1.234Zm1.22-4.797v-4.25h2.155c1.657 0 2.282.89 2.282 2.11 0 1.218-.625 2.14-2.25 2.14Zm0 0"/></symbol><symbol overflow="visible" id="aq"><path style="stroke:none" d="M9.266-10.14H8.062v7.984H7.97l-5.547-7.985H1.234V0h1.22v-7.969h.108L8.079 0h1.188Zm0 0"/></symbol><symbol overflow="visible" id="as"><path style="stroke:none" d="M6.781-7.61H7.97c-.064-1.53-1.47-2.67-3.44-2.67-1.937 0-3.468 1.125-3.468 2.828 0 1.375 1 2.187 2.578 2.64l1.25.36c1.078.297 2.03.672 2.03 1.672 0 1.11-1.077 1.844-2.484 1.844-1.203 0-2.28-.532-2.375-1.672H.798C.907-.953 2.266.17 4.437.17c2.344 0 3.672-1.28 3.672-2.921 0-1.906-1.812-2.516-2.859-2.797l-1.031-.281c-.75-.188-1.953-.594-1.953-1.688 0-.968.89-1.671 2.234-1.671 1.219 0 2.156.578 2.281 1.578Zm0 0"/></symbol><symbol overflow="visible" id="at"><path style="stroke:none" d="M1.063 2.86h1.171v-4.032h.11c.25.422.75 1.328 2.219 1.328 1.89 0 3.218-1.515 3.218-3.937 0-2.406-1.328-3.922-3.25-3.922-1.484 0-1.937.906-2.187 1.297h-.14V-7.61H1.061Zm1.156-6.657c0-1.719.75-2.86 2.172-2.86 1.5 0 2.234 1.25 2.234 2.86 0 1.625-.766 2.906-2.234 2.906-1.407 0-2.172-1.187-2.172-2.906Zm0 0"/></symbol><symbol overflow="visible" id="au"><path style="stroke:none" d="M4.156.156c1.688 0 2.797-1.031 3-2.375H5.984C5.766-1.39 5.078-.89 4.156-.89c-1.375 0-2.281-1.156-2.281-2.906 0-1.734.922-2.86 2.281-2.86 1.032 0 1.657.641 1.828 1.329h1.172C6.953-6.75 5.75-7.703 4.141-7.703 2.078-7.703.719-6.078.719-3.766.719-1.484 2.016.156 4.156.156Zm0 0"/></symbol><symbol overflow="visible" id="av"><path style="stroke:none" d="M2.234-10.14H1.063V0h1.171Zm0 0"/></symbol><symbol overflow="visible" id="aw"><path style="stroke:none" d="M.86 0h5.952v-1.094H2.484v-.078l4.188-5.5v-.937H.984v1.093h4.188v.079L.859-.891Zm0 0"/></symbol><symbol overflow="visible" id="ao"><path style="stroke:none" d="M4.594 2.953 1.75-3.5l2.844-6.453H3.89L.734-3.5l3.157 6.453Zm0 0"/></symbol><symbol overflow="visible" id="ar"><path style="stroke:none" d="M4.594-3.5 1.437-9.953H.735L3.594-3.5.734 2.953h.704Zm0 0"/></symbol><symbol overflow="visible" id="ax"><path style="stroke:none" d="M3.11 0c2.203 0 3.437-1.375 3.437-3.625s-1.234-3.61-3.344-3.61H.875V0ZM1.75-.781v-5.672h1.406c1.688 0 2.547 1.078 2.547 2.828 0 1.766-.86 2.844-2.656 2.844Zm0 0"/></symbol><symbol overflow="visible" id="ay"><path style="stroke:none" d="M.766 0h.828v-5.422H.766Zm.421-6.328c.329 0 .594-.25.594-.563 0-.312-.265-.562-.593-.562-.329 0-.594.25-.594.562 0 .313.265.563.594.563Zm0 0"/></symbol><symbol overflow="visible" id="az"><path style="stroke:none" d="M4.61-4.203C4.343-4.984 3.75-5.5 2.686-5.5c-1.14 0-2 .656-2 1.578 0 .75.454 1.25 1.454 1.485l.89.203c.547.125.813.39.813.765 0 .469-.5.844-1.266.844-.687 0-1.11-.297-1.265-.875l-.797.203C.719-.375 1.469.11 2.578.11c1.266 0 2.125-.687 2.125-1.625 0-.75-.469-1.234-1.437-1.468l-.813-.188c-.64-.172-.922-.375-.922-.797 0-.469.485-.812 1.157-.812.718 0 1.03.406 1.171.781Zm0 0"/></symbol><symbol overflow="visible" id="aA"><path style="stroke:none" d="M3.031.11c1.11 0 1.906-.547 2.172-1.36l-.812-.234c-.204.562-.704.843-1.36.843-.969 0-1.64-.625-1.687-1.78H5.28v-.36C5.28-4.797 4.077-5.5 2.952-5.5 1.484-5.5.516-4.344.516-2.672S1.469.11 3.03.11ZM1.344-3.157C1.406-4 2-4.75 2.954-4.75c.905 0 1.483.688 1.483 1.594Zm0 0"/></symbol><symbol overflow="visible" id="aB"><path style="stroke:none" d="M.766 0h.828v-3.438c0-.734.578-1.265 1.375-1.265.219 0 .453.047.5.062V-5.5c-.094 0-.313-.016-.438-.016-.64 0-1.203.375-1.406.907h-.063v-.813H.766Zm0 0"/></symbol><symbol overflow="visible" id="aC"><path style="stroke:none" d="M3.125-5.422H1.969v-1.297h-.844v1.297H.312v.703h.813v3.39c0 .954.766 1.407 1.469 1.407.312 0 .515-.062.625-.11l-.172-.75c-.063.016-.172.048-.36.048-.374 0-.718-.11-.718-.813v-3.172h1.156Zm0 0"/></symbol><symbol overflow="visible" id="aD"><path style="stroke:none" d="M2.36.125c.953 0 1.437-.5 1.609-.86h.047V0h.828v-3.578c0-1.719-1.313-1.922-2-1.922-.828 0-1.75.281-2.188 1.281l.797.282c.188-.407.625-.829 1.422-.829.766 0 1.14.407 1.14 1.11v.031c0 .39-.406.36-1.406.484C1.61-3 .516-2.78.516-1.547c0 1.063.812 1.672 1.843 1.672Zm.124-.75c-.656 0-1.14-.297-1.14-.875 0-.64.578-.828 1.234-.922.344-.031 1.297-.14 1.438-.297v.75c0 .688-.547 1.344-1.532 1.344Zm0 0"/></symbol><symbol overflow="visible" id="aE"><path style="stroke:none" d="M2.969.11C4.438.11 5.422-1 5.422-2.688s-.984-2.813-2.453-2.813C1.5-5.5.516-4.375.516-2.687.516-1 1.5.108 2.969.108Zm0-.75c-1.125 0-1.625-.954-1.625-2.047 0-1.079.5-2.063 1.625-2.063 1.11 0 1.625.984 1.625 2.063 0 1.093-.516 2.046-1.625 2.046Zm0 0"/></symbol><symbol overflow="visible" id="aF"><path style="stroke:none" d="M1.594-3.266c0-.937.593-1.484 1.39-1.484.766 0 1.235.516 1.235 1.36V0h.843v-3.453c0-1.375-.75-2.047-1.843-2.047-.813 0-1.328.375-1.578.922h-.079v-.844H.766V0h.828Zm0 0"/></symbol><symbol overflow="visible" id="aG"><path style="stroke:none" d="M4.188-2.219c0 1.016-.782 1.485-1.407 1.485-.687 0-1.187-.516-1.187-1.297v-3.39H.766v3.437c0 1.39.734 2.062 1.75 2.062.812 0 1.359-.453 1.609-1h.063V0h.828v-5.422h-.829Zm0 0"/></symbol><symbol overflow="visible" id="aH"><path style="stroke:none" d="M.766 2.031h.828v-2.86h.078c.172.298.531.938 1.578.938 1.36 0 2.297-1.078 2.297-2.812 0-1.703-.938-2.797-2.313-2.797-1.062 0-1.39.656-1.562.938h-.11v-.86H.766Zm.812-4.75c0-1.203.547-2.031 1.563-2.031 1.046 0 1.578.89 1.578 2.031 0 1.172-.532 2.078-1.578 2.078-1 0-1.563-.843-1.563-2.078Zm0 0"/></symbol><symbol overflow="visible" id="aI"><path style="stroke:none" d="M5.203-5.422h-.906l-1.5 4.313h-.063L1.25-5.422H.344l2 5.422h.844Zm0 0"/></symbol><symbol overflow="visible" id="aJ"><path style="stroke:none" d="M2.813.11c1.046 0 1.39-.641 1.578-.938h.093V0h.813v-7.234h-.828v2.671H4.39c-.188-.28-.5-.937-1.563-.937C1.453-5.5.516-4.406.516-2.703.516-.97 1.453.109 2.812.109Zm.109-.75c-1.047 0-1.578-.907-1.578-2.079 0-1.14.515-2.031 1.578-2.031 1.015 0 1.562.828 1.562 2.031 0 1.235-.562 2.078-1.562 2.078Zm0 0"/></symbol><symbol overflow="visible" id="aK"><path style="stroke:none" d="M.875 0h.813v-.828h.093c.188.297.532.937 1.578.937 1.36 0 2.313-1.078 2.313-2.812 0-1.703-.953-2.797-2.328-2.797-1.063 0-1.375.656-1.563.938h-.078v-2.672H.875Zm.813-2.719c0-1.203.546-2.031 1.562-2.031 1.063 0 1.578.89 1.578 2.031 0 1.172-.531 2.078-1.578 2.078-1 0-1.563-.843-1.563-2.078Zm0 0"/></symbol><symbol overflow="visible" id="aL"><path style="stroke:none" d="M1.297 2.031c.75 0 1.281-.39 1.594-1.234l2.312-6.219h-.906l-1.5 4.313h-.063L1.25-5.422H.344l2 5.453-.156.422c-.297.828-.672.906-1.282.75l-.219.734c.094.047.329.094.61.094Zm0 0"/></symbol><symbol overflow="visible" id="aM"><path style="stroke:none" d="M1.375.063A.64.64 0 0 0 2-.579a.64.64 0 0 0-.625-.64c-.36 0-.64.296-.64.64 0 .344.28.64.64.64Zm0-4.032A.63.63 0 0 0 2-4.609a.627.627 0 0 0-.625-.625.634.634 0 1 0 0 1.266Zm0 0"/></symbol><symbol overflow="visible" id="aN"><path style="stroke:none" d="M.875-7.234V0h.813v-5.5h.078L4.03 0h.782l2.265-5.5h.063V0h.828v-7.234H6.922l-2.453 6h-.094l-2.453-6Zm0 0"/></symbol><symbol overflow="visible" id="aO"><path style="stroke:none" d="m1.172 0 .734-2.047h2.922L5.547 0h.922L3.812-7.234h-.906L.25 0Zm1-2.828 1.156-3.266h.063l1.156 3.266Zm0 0"/></symbol><symbol overflow="visible" id="aP"><path style="stroke:none" d="M6.61-7.234h-.86v5.687h-.078L1.719-7.234H.875V0h.875v-5.672h.078L5.766 0h.843Zm0 0"/></symbol><symbol overflow="visible" id="aQ"><path style="stroke:none" d="M.766 0h.828v-3.39c0-.797.578-1.36 1.234-1.36.625 0 1.078.422 1.078 1.031V0h.844v-3.531c0-.703.438-1.219 1.203-1.219.594 0 1.094.313 1.094 1.125V0h.828v-3.625c0-1.281-.672-1.875-1.64-1.875-.782 0-1.344.36-1.626.922h-.062C4.28-5.156 3.813-5.5 3.094-5.5c-.703 0-1.235.344-1.453.922h-.079v-.844H.766Zm0 0"/></symbol><symbol overflow="visible" id="aR"><path style="stroke:none" d="M2-.984h-.89l-.048.39C.954.36.75 1.312.656 1.766h.64c.173-.485.532-1.563.657-2.375Zm0 0"/></symbol><symbol overflow="visible" id="aS"><path style="stroke:none" d="M3.64-7.234v5.171c0 .907-.421 1.391-1.187 1.391-.687 0-1.187-.406-1.187-1.015h-.86c0 1.109.86 1.78 2.047 1.78 1.266 0 2.063-.765 2.063-2.155v-5.172Zm0 0"/></symbol><symbol overflow="visible" id="aT"><path style="stroke:none" d="M1.594-3.266c0-.937.61-1.484 1.422-1.484.796 0 1.265.5 1.265 1.36V0h.828v-3.453c0-1.39-.734-2.047-1.843-2.047-.86 0-1.344.36-1.594.922h-.078v-2.656H.766V0h.828Zm0 0"/></symbol><symbol overflow="visible" id="aU"><path style="stroke:none" d="M6.688-4.969c-.266-1.484-1.454-2.36-2.907-2.36-1.844 0-3.187 1.423-3.187 3.72C.594-1.33 1.938.094 3.78.094c1.453 0 2.64-.875 2.906-2.36h-.875C5.61-1.25 4.75-.719 3.783-.719c-1.313 0-2.345-1.015-2.345-2.89 0-1.891 1.032-2.907 2.344-2.907.969 0 1.828.547 2.031 1.547Zm0 0"/></symbol><symbol overflow="visible" id="aV"><path style="stroke:none" d="M3.875-4H.703v.766h3.172Zm0 0"/></symbol><clipPath id="v"><path d="M296 136h104.125v20H296Zm0 0"/></clipPath><clipPath id="w"><path d="M201.691 117.418H283v80.613h-81.309Zm0 0"/></clipPath></defs><path style="stroke:none;fill-rule:nonzero;fill:#fff;fill-opacity:1" d="M0 842.09h595.277V.2H0Zm0 0"/><use xlink:href="#a" x="232.638" y="40.194" style="fill:#000;fill-opacity:1"/><use xlink:href="#b" x="241.5" y="40.194" style="fill:#000;fill-opacity:1"/><use xlink:href="#c" x="250.5" y="40.194" style="fill:#000;fill-opacity:1"/><use xlink:href="#d" x="253.659" y="40.194" style="fill:#000;fill-opacity:1"/><use xlink:href="#e" x="261.743" y="40.194" style="fill:#000;fill-opacity:1"/><use xlink:href="#f" x="268.892" y="40.194" style="fill:#000;fill-opacity:1"/><use xlink:href="#g" x="276.535" y="40.194" style="fill:#000;fill-opacity:1"/><use xlink:href="#c" x="284.159" y="40.194" style="fill:#000;fill-opacity:1"/><use xlink:href="#h" x="287.318" y="40.194" style="fill:#000;fill-opacity:1"/><use xlink:href="#i" x="294.994" y="40.194" style="fill:#000;fill-opacity:1"/><use xlink:href="#j" x="306.303" y="40.194" style="fill:#000;fill-opacity:1"/><use xlink:href="#k" x="315.407" y="40.194" style="fill:#000;fill-opacity:1"/><use xlink:href="#l" x="325.781" y="40.194" style="fill:#000;fill-opacity:1"/><use xlink:href="#c" x="332.508" y="40.194" style="fill:#000;fill-opacity:1"/><use xlink:href="#g" x="335.663" y="40.194" style="fill:#000;fill-opacity:1"/><use xlink:href="#m" x="343.292" y="40.194" style="fill:#000;fill-opacity:1"/><use xlink:href="#j" x="351.068" y="40.194" style="fill:#000;fill-opacity:1"/><use xlink:href="#b" x="360.171" y="40.194" style="fill:#000;fill-opacity:1"/><use xlink:href="#k" x="233.759" y="60.365" style="fill:#000;fill-opacity:1"/><use xlink:href="#n" x="239.684" y="60.365" style="fill:#000;fill-opacity:1"/><use xlink:href="#o" x="247.36" y="60.365" style="fill:#000;fill-opacity:1"/><use xlink:href="#a" x="256.056" y="60.365" style="fill:#000;fill-opacity:1"/><use xlink:href="#l" x="264.918" y="60.365" style="fill:#000;fill-opacity:1"/><use xlink:href="#h" x="270.491" y="60.365" style="fill:#000;fill-opacity:1"/><use xlink:href="#i" x="278.166" y="60.365" style="fill:#000;fill-opacity:1"/><use xlink:href="#j" x="289.475" y="60.365" style="fill:#000;fill-opacity:1"/><use xlink:href="#k" x="298.575" y="60.365" style="fill:#000;fill-opacity:1"/><use xlink:href="#g" x="308.953" y="60.365" style="fill:#000;fill-opacity:1"/><use xlink:href="#o" x="316.577" y="60.365" style="fill:#000;fill-opacity:1"/><use xlink:href="#c" x="325.273" y="60.365" style="fill:#000;fill-opacity:1"/><use xlink:href="#e" x="328.433" y="60.365" style="fill:#000;fill-opacity:1"/><use xlink:href="#b" x="335.582" y="60.365" style="fill:#000;fill-opacity:1"/><use xlink:href="#o" x="344.582" y="60.365" style="fill:#000;fill-opacity:1"/><use xlink:href="#e" x="353.273" y="60.365" style="fill:#000;fill-opacity:1"/><use xlink:href="#g" x="360.423" y="60.365" style="fill:#000;fill-opacity:1"/><use xlink:href="#p" x="162.242" y="80.536" style="fill:#000;fill-opacity:1"/><use xlink:href="#e" x="170.834" y="80.536" style="fill:#000;fill-opacity:1"/><use xlink:href="#q" x="177.983" y="80.536" style="fill:#000;fill-opacity:1"/><use xlink:href="#n" x="184.691" y="80.536" style="fill:#000;fill-opacity:1"/><use xlink:href="#f" x="192.774" y="80.536" style="fill:#000;fill-opacity:1"/><use xlink:href="#h" x="200.417" y="80.536" style="fill:#000;fill-opacity:1"/><use xlink:href="#r" x="208.093" y="80.536" style="fill:#000;fill-opacity:1"/><use xlink:href="#e" x="218.72" y="80.536" style="fill:#000;fill-opacity:1"/><use xlink:href="#b" x="225.869" y="80.536" style="fill:#000;fill-opacity:1"/><use xlink:href="#h" x="234.873" y="80.536" style="fill:#000;fill-opacity:1"/><use xlink:href="#j" x="245.911" y="80.536" style="fill:#000;fill-opacity:1"/><use xlink:href="#k" x="255.011" y="80.536" style="fill:#000;fill-opacity:1"/><use xlink:href="#s" x="265.389" y="80.536" style="fill:#000;fill-opacity:1"/><use xlink:href="#b" x="269.956" y="80.536" style="fill:#000;fill-opacity:1"/><use xlink:href="#n" x="278.955" y="80.536" style="fill:#000;fill-opacity:1"/><use xlink:href="#r" x="287.039" y="80.536" style="fill:#000;fill-opacity:1"/><use xlink:href="#e" x="297.666" y="80.536" style="fill:#000;fill-opacity:1"/><use xlink:href="#j" x="308.178" y="80.536" style="fill:#000;fill-opacity:1"/><use xlink:href="#k" x="317.282" y="80.536" style="fill:#000;fill-opacity:1"/><use xlink:href="#h" x="327.656" y="80.536" style="fill:#000;fill-opacity:1"/><use xlink:href="#t" x="335.332" y="80.536" style="fill:#000;fill-opacity:1"/><use xlink:href="#e" x="344.18" y="80.536" style="fill:#000;fill-opacity:1"/><use xlink:href="#p" x="354.692" y="80.536" style="fill:#000;fill-opacity:1"/><use xlink:href="#e" x="363.288" y="80.536" style="fill:#000;fill-opacity:1"/><use xlink:href="#q" x="370.437" y="80.536" style="fill:#000;fill-opacity:1"/><use xlink:href="#n" x="377.144" y="80.536" style="fill:#000;fill-opacity:1"/><use xlink:href="#f" x="385.228" y="80.536" style="fill:#000;fill-opacity:1"/><use xlink:href="#h" x="392.867" y="80.536" style="fill:#000;fill-opacity:1"/><use xlink:href="#r" x="400.542" y="80.536" style="fill:#000;fill-opacity:1"/><use xlink:href="#e" x="411.174" y="80.536" style="fill:#000;fill-opacity:1"/><use xlink:href="#b" x="418.323" y="80.536" style="fill:#000;fill-opacity:1"/><use xlink:href="#h" x="427.323" y="80.536" style="fill:#000;fill-opacity:1"/><use xlink:href="#u" x="435.002" y="80.536" style="fill:#000;fill-opacity:1"/><path style="stroke:none;fill-rule:nonzero;fill:#000;fill-opacity:1" d="M305.047 175.57c-1.91 0-3.578-1.398-3.578-3.55v-10.88h-2.606v10.88c0 3.648 2.848 6.015 6.184 6.015 3.316 0 6.164-2.367 6.164-6.015v-10.88h-2.582v10.88c0 2.152-1.672 3.55-3.582 3.55m10.832 2.223h9.23v-2.344h-6.671v-14.308h-2.56Zm14.695 0h-2.46v-11.285h2.46Zm-2.898-15.856c0 .895.773 1.567 1.668 1.567.914 0 1.64-.672 1.64-1.566 0-.895-.726-1.57-1.64-1.57-.895 0-1.668.675-1.668 1.57m9.379 10.972 1.523.363c.82.196 1.57.606 1.57 1.329 0 .847-.87 1.359-2.007 1.359-1.301-.004-2.102-.656-2.223-1.625h-2.297c.05 2.371 2.223 3.7 4.328 3.7 2.586 0 4.492-1.231 4.492-3.407 0-1.137-.507-2.688-2.945-3.29l-1.742-.437c-.602-.168-1.23-.433-1.375-.867a1.164 1.164 0 0 1 .094-1.015c.242-.387.968-.63 1.597-.63.774 0 1.547.364 1.64 1.208h2.368c-.144-2.414-2.101-3.332-4.105-3.332-2.078 0-3.895 1.3-4.04 2.968-.144 1.817.727 3.024 3.122 3.676m10.61-.797c0-2.226 1.765-3.433 3.456-3.433 1.887 0 3.41 1.351 3.41 3.433s-1.523 3.504-3.41 3.504c-1.836 0-3.457-1.3-3.457-3.504m-.027 5.68v-1.645c.703 1.211 2.25 1.887 3.773 1.887 3.05 0 5.656-2.316 5.656-5.875 0-3.625-2.558-5.894-5.632-5.894-1.594 0-3.094.629-3.797 1.859v-7.758h-2.485v17.426Zm17.965-2.176c-1.864 0-3.41-1.375-3.41-3.504 0-2.082 1.546-3.41 3.41-3.41 1.882 0 3.433 1.328 3.433 3.41 0 2.13-1.55 3.504-3.433 3.504m0 2.418c3.214 0 5.918-2.344 5.918-5.922s-2.704-5.847-5.918-5.847c-3.192 0-5.875 2.27-5.875 5.847 0 3.578 2.683 5.922 5.875 5.922m18.082-.242h2.46v-11.285h-2.46v1.594c-.774-1.282-2.446-1.836-3.797-1.836-3.047 0-5.73 2.27-5.73 5.87 0 3.606 2.683 5.9 5.73 5.9 1.402 0 3.043-.626 3.797-1.86Zm-6.965-5.68c0-2.082 1.57-3.433 3.457-3.433 1.691 0 3.484 1.207 3.484 3.433 0 2.223-1.648 3.504-3.484 3.504-1.887 0-3.457-1.422-3.457-3.504Zm0 0"/><g clip-path="url(#v)"><path style="stroke:none;fill-rule:nonzero;fill:#000;fill-opacity:1" d="M310.012 149.336c-.946 1.434-2.559 2.434-4.403 2.434-2.941 0-5.093-2.461-5.093-5.504 0-3.075 2.152-5.532 5.093-5.532 1.817 0 3.356.922 4.301 2.305l3.043-2.101c-1.531-2.25-4.195-3.735-7.344-3.735-5.043 0-8.851 4.043-8.851 9.063 0 4.964 3.808 9.03 8.851 9.03 3.2 0 5.887-1.534 7.422-3.862Zm9.34-6.242h-3.528v11.949h3.528Zm-3.989-4.43c0 1.176 1.024 2.094 2.227 2.094 1.2 0 2.172-.918 2.172-2.094 0-1.18-.973-2.074-2.172-2.074-1.203 0-2.227.894-2.227 2.074m11.54-1.816-2.79 4.297h2.563l1.996-2.278 2.02 2.278h2.558l-2.813-4.297Zm4.71 14.254c-.59.77-1.636 1.128-2.61 1.128-1.253 0-2.765-.617-2.94-2h8.75c.027-.308.05-.792.05-1.101 0-3.762-2.71-6.293-6.117-6.293-3.43 0-6.246 2.43-6.246 6.191 0 3.762 2.816 6.27 6.246 6.27 2.024 0 4.25-.64 5.453-2.426Zm-5.5-3.094c.305-1.512 1.66-2.051 2.66-2.051.997 0 2.329.59 2.508 2.05Zm15.325.71c0-1.816.949-2.429 2.207-2.429 1.199 0 2.07.793 2.07 2.379v6.375h3.558v-7.14c0-3.403-1.691-5.067-4.375-5.067-1.41 0-2.82.793-3.46 1.992v-1.734h-3.551v11.949h3.55Zm10.855.31c0 3.761 3.066 6.269 6.5 6.269 2.148 0 4.066-.945 5.195-2.555l-2.894-2.05c-.485.769-1.38 1.206-2.301 1.206-1.512 0-2.973-1.156-2.973-2.87 0-1.715 1.461-2.79 2.973-2.79.922 0 1.816.434 2.3 1.203l2.895-2.074c-1.152-1.61-3.074-2.531-5.195-2.531-3.434 0-6.5 2.43-6.5 6.191m18.27-5.933h-3.528v11.949h3.527Zm-3.989-4.43c0 1.176 1.024 2.094 2.227 2.094 1.203 0 2.172-.918 2.172-2.094 0-1.18-.97-2.074-2.172-2.074-1.203 0-2.227.894-2.227 2.074m16.711 16.379h3.527v-11.95h-3.527v1.329c-.922-1.332-2.715-1.586-3.48-1.586-3.047 0-6.09 2.379-6.09 6.219 0 3.836 3.043 6.218 6.09 6.218.922 0 2.715-.437 3.48-1.585Zm-5.89-5.992c0-1.715 1.511-2.84 3-2.84 1.457 0 2.89 1.05 2.89 2.84 0 1.797-1.433 2.847-2.89 2.847-1.489 0-3-1.128-3-2.843Zm17.949 1.488c.867.23 1.176.512 1.176 1.024 0 .613-.668.972-1.461 1-.973 0-1.739-.692-1.766-1.383h-3.328c.027 2.66 2.562 4.117 4.992 4.117 2.508 0 5.168-1.203 5.168-3.734 0-.766-.36-2.688-3.246-3.481l-2.024-.539c-.718-.18-1.023-.54-1.05-.895-.028-.539.488-.898 1.254-.898.562 0 1.332.152 1.359 1.05h3.348c-.024-2.917-2.532-3.964-4.91-3.964-2.508 0-4.633 1.637-4.66 3.402-.024 1.098 0 2.918 3.581 3.89Zm0 0"/></g><path style="stroke:none;fill-rule:nonzero;fill:#000;fill-opacity:1" d="M252.063 165.004c-2.239 3.383-6.043 5.742-10.395 5.742-6.95 0-12.027-5.805-12.027-12.996 0-7.25 5.078-13.055 12.027-13.055 4.289 0 7.918 2.176 10.152 5.442l7.192-4.957c-3.625-5.317-9.91-8.82-17.344-8.82-11.902 0-20.91 9.546-20.91 21.39 0 11.727 9.008 21.332 20.91 21.332 7.55 0 13.898-3.625 17.523-9.125Zm-35.786-24.188h1.95v-3.648h2.984v-1.695h-2.984v-2.086h3.77v-1.711h-5.72Zm0 0"/><g clip-path="url(#w)"><path style="stroke:none;fill-rule:nonzero;fill:#000;fill-opacity:1" d="M282.305 117.414H201.69v80.617h80.614Zm-8.465 72.148h-63.684V125.88h63.684Zm0 0"/></g><use xlink:href="#x" x="185.646" y="341.321" style="fill:#000;fill-opacity:1"/><use xlink:href="#y" x="202.239" y="341.321" style="fill:#000;fill-opacity:1"/><use xlink:href="#z" x="213.852" y="341.321" style="fill:#000;fill-opacity:1"/><use xlink:href="#A" x="223.973" y="341.321" style="fill:#000;fill-opacity:1"/><use xlink:href="#B" x="231.182" y="341.321" style="fill:#000;fill-opacity:1"/><use xlink:href="#C" x="245.033" y="341.321" style="fill:#000;fill-opacity:1"/><use xlink:href="#D" x="254.647" y="341.321" style="fill:#000;fill-opacity:1"/><use xlink:href="#E" x="265.037" y="341.321" style="fill:#000;fill-opacity:1"/><use xlink:href="#F" x="275.567" y="341.321" style="fill:#000;fill-opacity:1"/><use xlink:href="#G" x="290.219" y="341.321" style="fill:#000;fill-opacity:1"/><use xlink:href="#E" x="300.049" y="341.321" style="fill:#000;fill-opacity:1"/><use xlink:href="#H" x="310.579" y="341.321" style="fill:#000;fill-opacity:1"/><use xlink:href="#I" x="325.267" y="341.321" style="fill:#000;fill-opacity:1"/><use xlink:href="#J" x="330.016" y="341.321" style="fill:#000;fill-opacity:1"/><use xlink:href="#K" x="345.46" y="341.321" style="fill:#000;fill-opacity:1"/><use xlink:href="#A" x="356.175" y="341.321" style="fill:#000;fill-opacity:1"/><use xlink:href="#z" x="362.662" y="341.321" style="fill:#000;fill-opacity:1"/><use xlink:href="#L" x="372.789" y="341.321" style="fill:#000;fill-opacity:1"/><use xlink:href="#L" x="382.302" y="341.321" style="fill:#000;fill-opacity:1"/><use xlink:href="#M" x="391.816" y="341.321" style="fill:#000;fill-opacity:1"/><use xlink:href="#N" x="396.423" y="341.321" style="fill:#000;fill-opacity:1"/><use xlink:href="#z" x="406.039" y="341.321" style="fill:#000;fill-opacity:1"/><use xlink:href="#O" x="149.845" y="361.865" style="fill:#000;fill-opacity:1"/><use xlink:href="#P" x="161.16" y="361.865" style="fill:#000;fill-opacity:1"/><use xlink:href="#z" x="171.735" y="361.865" style="fill:#000;fill-opacity:1"/><use xlink:href="#L" x="181.855" y="361.865" style="fill:#000;fill-opacity:1"/><use xlink:href="#M" x="191.369" y="361.865" style="fill:#000;fill-opacity:1"/><use xlink:href="#L" x="195.976" y="361.865" style="fill:#000;fill-opacity:1"/><use xlink:href="#O" x="209.423" y="361.865" style="fill:#000;fill-opacity:1"/><use xlink:href="#M" x="220.738" y="361.865" style="fill:#000;fill-opacity:1"/><use xlink:href="#Q" x="225.345" y="361.865" style="fill:#000;fill-opacity:1"/><use xlink:href="#R" x="232.12" y="361.865" style="fill:#000;fill-opacity:1"/><use xlink:href="#z" x="236.727" y="361.865" style="fill:#000;fill-opacity:1"/><use xlink:href="#S" x="250.775" y="361.865" style="fill:#000;fill-opacity:1"/><use xlink:href="#M" x="265.174" y="361.865" style="fill:#000;fill-opacity:1"/><use xlink:href="#Q" x="269.781" y="361.865" style="fill:#000;fill-opacity:1"/><use xlink:href="#P" x="276.556" y="361.865" style="fill:#000;fill-opacity:1"/><use xlink:href="#G" x="291.052" y="361.865" style="fill:#000;fill-opacity:1"/><use xlink:href="#T" x="304.809" y="361.865" style="fill:#000;fill-opacity:1"/><use xlink:href="#D" x="314.041" y="361.865" style="fill:#000;fill-opacity:1"/><use xlink:href="#A" x="324.431" y="361.865" style="fill:#000;fill-opacity:1"/><use xlink:href="#U" x="330.925" y="361.865" style="fill:#000;fill-opacity:1"/><use xlink:href="#z" x="340.869" y="361.865" style="fill:#000;fill-opacity:1"/><use xlink:href="#H" x="350.995" y="361.865" style="fill:#000;fill-opacity:1"/><use xlink:href="#C" x="365.678" y="361.865" style="fill:#000;fill-opacity:1"/><use xlink:href="#M" x="375.292" y="361.865" style="fill:#000;fill-opacity:1"/><use xlink:href="#E" x="379.899" y="361.865" style="fill:#000;fill-opacity:1"/><use xlink:href="#z" x="390.429" y="361.865" style="fill:#000;fill-opacity:1"/><use xlink:href="#V" x="404.477" y="361.865" style="fill:#000;fill-opacity:1"/><use xlink:href="#A" x="415.669" y="361.865" style="fill:#000;fill-opacity:1"/><use xlink:href="#z" x="422.163" y="361.865" style="fill:#000;fill-opacity:1"/><use xlink:href="#G" x="432.283" y="361.865" style="fill:#000;fill-opacity:1"/><use xlink:href="#W" x="442.113" y="361.865" style="fill:#000;fill-opacity:1"/><use xlink:href="#X" x="216.07" y="469.71" style="fill:#000;fill-opacity:1"/><use xlink:href="#Y" x="223.636" y="469.71" style="fill:#000;fill-opacity:1"/><use xlink:href="#Z" x="231.955" y="469.71" style="fill:#000;fill-opacity:1"/><use xlink:href="#aa" x="240.197" y="469.71" style="fill:#000;fill-opacity:1"/><use xlink:href="#ab" x="252.283" y="469.71" style="fill:#000;fill-opacity:1"/><use xlink:href="#ac" x="261.001" y="469.71" style="fill:#000;fill-opacity:1"/><use xlink:href="#ad" x="269.126" y="469.71" style="fill:#000;fill-opacity:1"/><use xlink:href="#ae" x="274.555" y="469.71" style="fill:#000;fill-opacity:1"/><use xlink:href="#af" x="286.243" y="469.71" style="fill:#000;fill-opacity:1"/><use xlink:href="#Y" x="294.087" y="469.71" style="fill:#000;fill-opacity:1"/><use xlink:href="#aa" x="302.411" y="469.71" style="fill:#000;fill-opacity:1"/><use xlink:href="#ag" x="310.569" y="469.71" style="fill:#000;fill-opacity:1"/><use xlink:href="#aa" x="319.071" y="469.71" style="fill:#000;fill-opacity:1"/><use xlink:href="#ah" x="327.234" y="469.71" style="fill:#000;fill-opacity:1"/><use xlink:href="#ai" x="335.099" y="469.71" style="fill:#000;fill-opacity:1"/><use xlink:href="#ac" x="347.225" y="469.71" style="fill:#000;fill-opacity:1"/><use xlink:href="#aj" x="359.268" y="469.71" style="fill:#000;fill-opacity:1"/><use xlink:href="#Y" x="369.292" y="469.71" style="fill:#000;fill-opacity:1"/><use xlink:href="#ac" x="377.616" y="469.71" style="fill:#000;fill-opacity:1"/><use xlink:href="#ak" x="198.29" y="554.951" style="fill:#000;fill-opacity:1"/><use xlink:href="#ah" x="210.688" y="554.951" style="fill:#000;fill-opacity:1"/><use xlink:href="#al" x="218.553" y="554.951" style="fill:#000;fill-opacity:1"/><use xlink:href="#am" x="225.848" y="554.951" style="fill:#000;fill-opacity:1"/><use xlink:href="#ac" x="230.838" y="554.951" style="fill:#000;fill-opacity:1"/><use xlink:href="#ad" x="238.963" y="554.951" style="fill:#000;fill-opacity:1"/><use xlink:href="#an" x="248.078" y="554.951" style="fill:#000;fill-opacity:1"/><use xlink:href="#aa" x="251.382" y="554.951" style="fill:#000;fill-opacity:1"/><use xlink:href="#ao" x="263.472" y="554.951" style="fill:#000;fill-opacity:1"/><use xlink:href="#ap" x="268.8" y="554.951" style="fill:#000;fill-opacity:1"/><use xlink:href="#Z" x="277.656" y="554.951" style="fill:#000;fill-opacity:1"/><use xlink:href="#aj" x="285.897" y="554.951" style="fill:#000;fill-opacity:1"/><use xlink:href="#ap" x="299.844" y="554.951" style="fill:#000;fill-opacity:1"/><use xlink:href="#ad" x="308.699" y="554.951" style="fill:#000;fill-opacity:1"/><use xlink:href="#Y" x="313.653" y="554.951" style="fill:#000;fill-opacity:1"/><use xlink:href="#ag" x="321.972" y="554.951" style="fill:#000;fill-opacity:1"/><use xlink:href="#ad" x="330.474" y="554.951" style="fill:#000;fill-opacity:1"/><use xlink:href="#ah" x="335.665" y="554.951" style="fill:#000;fill-opacity:1"/><use xlink:href="#ai" x="343.53" y="554.951" style="fill:#000;fill-opacity:1"/><use xlink:href="#aq" x="359.574" y="554.951" style="fill:#000;fill-opacity:1"/><use xlink:href="#ah" x="370.079" y="554.951" style="fill:#000;fill-opacity:1"/><use xlink:href="#ai" x="377.944" y="554.951" style="fill:#000;fill-opacity:1"/><use xlink:href="#ac" x="390.065" y="554.951" style="fill:#000;fill-opacity:1"/><use xlink:href="#ar" x="398.192" y="554.951" style="fill:#000;fill-opacity:1"/><use xlink:href="#as" x="186.997" y="577.539" style="fill:#000;fill-opacity:1"/><use xlink:href="#at" x="195.892" y="577.539" style="fill:#000;fill-opacity:1"/><use xlink:href="#ac" x="204.388" y="577.539" style="fill:#000;fill-opacity:1"/><use xlink:href="#au" x="212.513" y="577.539" style="fill:#000;fill-opacity:1"/><use xlink:href="#an" x="220.3" y="577.539" style="fill:#000;fill-opacity:1"/><use xlink:href="#ah" x="223.61" y="577.539" style="fill:#000;fill-opacity:1"/><use xlink:href="#av" x="231.475" y="577.539" style="fill:#000;fill-opacity:1"/><use xlink:href="#an" x="234.779" y="577.539" style="fill:#000;fill-opacity:1"/><use xlink:href="#aw" x="238.089" y="577.539" style="fill:#000;fill-opacity:1"/><use xlink:href="#ah" x="245.638" y="577.539" style="fill:#000;fill-opacity:1"/><use xlink:href="#am" x="253.503" y="577.539" style="fill:#000;fill-opacity:1"/><use xlink:href="#an" x="258.578" y="577.539" style="fill:#000;fill-opacity:1"/><use xlink:href="#Y" x="261.883" y="577.539" style="fill:#000;fill-opacity:1"/><use xlink:href="#aa" x="270.207" y="577.539" style="fill:#000;fill-opacity:1"/><use xlink:href="#an" x="282.293" y="577.539" style="fill:#000;fill-opacity:1"/><use xlink:href="#aa" x="285.598" y="577.539" style="fill:#000;fill-opacity:1"/><use xlink:href="#ao" x="297.687" y="577.539" style="fill:#000;fill-opacity:1"/><use xlink:href="#as" x="303.015" y="577.539" style="fill:#000;fill-opacity:1"/><use xlink:href="#at" x="311.91" y="577.539" style="fill:#000;fill-opacity:1"/><use xlink:href="#ac" x="320.406" y="577.539" style="fill:#000;fill-opacity:1"/><use xlink:href="#au" x="328.531" y="577.539" style="fill:#000;fill-opacity:1"/><use xlink:href="#an" x="336.318" y="577.539" style="fill:#000;fill-opacity:1"/><use xlink:href="#ah" x="339.628" y="577.539" style="fill:#000;fill-opacity:1"/><use xlink:href="#av" x="347.493" y="577.539" style="fill:#000;fill-opacity:1"/><use xlink:href="#an" x="350.797" y="577.539" style="fill:#000;fill-opacity:1"/><use xlink:href="#am" x="354.107" y="577.539" style="fill:#000;fill-opacity:1"/><use xlink:href="#ae" x="359.182" y="577.539" style="fill:#000;fill-opacity:1"/><use xlink:href="#aq" x="370.87" y="577.539" style="fill:#000;fill-opacity:1"/><use xlink:href="#ah" x="381.369" y="577.539" style="fill:#000;fill-opacity:1"/><use xlink:href="#ai" x="389.234" y="577.539" style="fill:#000;fill-opacity:1"/><use xlink:href="#ac" x="401.361" y="577.539" style="fill:#000;fill-opacity:1"/><use xlink:href="#ar" x="409.485" y="577.539" style="fill:#000;fill-opacity:1"/><use xlink:href="#ax" x="236.643" y="664.049" style="fill:#000;fill-opacity:1"/><use xlink:href="#ay" x="243.803" y="664.049" style="fill:#000;fill-opacity:1"/><use xlink:href="#az" x="246.167" y="664.049" style="fill:#000;fill-opacity:1"/><use xlink:href="#az" x="251.374" y="664.049" style="fill:#000;fill-opacity:1"/><use xlink:href="#aA" x="256.58" y="664.049" style="fill:#000;fill-opacity:1"/><use xlink:href="#aB" x="262.384" y="664.049" style="fill:#000;fill-opacity:1"/><use xlink:href="#aC" x="266.432" y="664.049" style="fill:#000;fill-opacity:1"/><use xlink:href="#aD" x="270.053" y="664.049" style="fill:#000;fill-opacity:1"/><use xlink:href="#aC" x="275.671" y="664.049" style="fill:#000;fill-opacity:1"/><use xlink:href="#ay" x="279.296" y="664.049" style="fill:#000;fill-opacity:1"/><use xlink:href="#aE" x="281.656" y="664.049" style="fill:#000;fill-opacity:1"/><use xlink:href="#aF" x="287.602" y="664.049" style="fill:#000;fill-opacity:1"/><use xlink:href="#az" x="296.235" y="664.049" style="fill:#000;fill-opacity:1"/><use xlink:href="#aG" x="301.442" y="664.049" style="fill:#000;fill-opacity:1"/><use xlink:href="#aH" x="307.23" y="664.049" style="fill:#000;fill-opacity:1"/><use xlink:href="#aA" x="313.299" y="664.049" style="fill:#000;fill-opacity:1"/><use xlink:href="#aB" x="319.102" y="664.049" style="fill:#000;fill-opacity:1"/><use xlink:href="#aI" x="322.98" y="664.049" style="fill:#000;fill-opacity:1"/><use xlink:href="#ay" x="328.527" y="664.049" style="fill:#000;fill-opacity:1"/><use xlink:href="#az" x="330.891" y="664.049" style="fill:#000;fill-opacity:1"/><use xlink:href="#aA" x="336.098" y="664.049" style="fill:#000;fill-opacity:1"/><use xlink:href="#aJ" x="341.901" y="664.049" style="fill:#000;fill-opacity:1"/><use xlink:href="#aK" x="350.886" y="664.049" style="fill:#000;fill-opacity:1"/><use xlink:href="#aL" x="356.871" y="664.049" style="fill:#000;fill-opacity:1"/><use xlink:href="#aM" x="362.422" y="664.049" style="fill:#000;fill-opacity:1"/><use xlink:href="#aN" x="84.097" y="684.637" style="fill:#000;fill-opacity:1"/><use xlink:href="#aD" x="92.953" y="684.637" style="fill:#000;fill-opacity:1"/><use xlink:href="#aB" x="98.574" y="684.637" style="fill:#000;fill-opacity:1"/><use xlink:href="#aL" x="102.449" y="684.637" style="fill:#000;fill-opacity:1"/><use xlink:href="#ax" x="110.801" y="684.637" style="fill:#000;fill-opacity:1"/><use xlink:href="#aE" x="117.961" y="684.637" style="fill:#000;fill-opacity:1"/><use xlink:href="#aA" x="123.903" y="684.637" style="fill:#000;fill-opacity:1"/><use xlink:href="#aO" x="132.509" y="684.637" style="fill:#000;fill-opacity:1"/><use xlink:href="#aJ" x="139.245" y="684.637" style="fill:#000;fill-opacity:1"/><use xlink:href="#aI" x="145.428" y="684.637" style="fill:#000;fill-opacity:1"/><use xlink:href="#ay" x="150.975" y="684.637" style="fill:#000;fill-opacity:1"/><use xlink:href="#az" x="153.339" y="684.637" style="fill:#000;fill-opacity:1"/><use xlink:href="#aA" x="158.546" y="684.637" style="fill:#000;fill-opacity:1"/><use xlink:href="#aB" x="164.349" y="684.637" style="fill:#000;fill-opacity:1"/><use xlink:href="#aP" x="170.86" y="684.637" style="fill:#000;fill-opacity:1"/><use xlink:href="#aD" x="178.359" y="684.637" style="fill:#000;fill-opacity:1"/><use xlink:href="#aQ" x="183.977" y="684.637" style="fill:#000;fill-opacity:1"/><use xlink:href="#aA" x="192.639" y="684.637" style="fill:#000;fill-opacity:1"/><use xlink:href="#aR" x="198.439" y="684.637" style="fill:#000;fill-opacity:1"/><use xlink:href="#aS" x="204.028" y="684.637" style="fill:#000;fill-opacity:1"/><use xlink:href="#aE" x="209.436" y="684.637" style="fill:#000;fill-opacity:1"/><use xlink:href="#aT" x="215.378" y="684.637" style="fill:#000;fill-opacity:1"/><use xlink:href="#aF" x="221.265" y="684.637" style="fill:#000;fill-opacity:1"/><use xlink:href="#ax" x="229.898" y="684.637" style="fill:#000;fill-opacity:1"/><use xlink:href="#aE" x="237.058" y="684.637" style="fill:#000;fill-opacity:1"/><use xlink:href="#aA" x="243.004" y="684.637" style="fill:#000;fill-opacity:1"/><use xlink:href="#aU" x="251.606" y="684.637" style="fill:#000;fill-opacity:1"/><use xlink:href="#aE" x="258.852" y="684.637" style="fill:#000;fill-opacity:1"/><use xlink:href="#aV" x="264.794" y="684.637" style="fill:#000;fill-opacity:1"/><use xlink:href="#aO" x="269.38" y="684.637" style="fill:#000;fill-opacity:1"/><use xlink:href="#aJ" x="276.117" y="684.637" style="fill:#000;fill-opacity:1"/><use xlink:href="#aI" x="282.3" y="684.637" style="fill:#000;fill-opacity:1"/><use xlink:href="#ay" x="287.85" y="684.637" style="fill:#000;fill-opacity:1"/><use xlink:href="#az" x="290.21" y="684.637" style="fill:#000;fill-opacity:1"/><use xlink:href="#aA" x="295.421" y="684.637" style="fill:#000;fill-opacity:1"/><use xlink:href="#aB" x="301.221" y="684.637" style="fill:#000;fill-opacity:1"/><use xlink:href="#aP" x="307.731" y="684.637" style="fill:#000;fill-opacity:1"/><use xlink:href="#aD" x="315.231" y="684.637" style="fill:#000;fill-opacity:1"/><use xlink:href="#aQ" x="320.848" y="684.637" style="fill:#000;fill-opacity:1"/><use xlink:href="#aA" x="329.51" y="684.637" style="fill:#000;fill-opacity:1"/><use xlink:href="#aD" x="338.116" y="684.637" style="fill:#000;fill-opacity:1"/><use xlink:href="#aF" x="343.733" y="684.637" style="fill:#000;fill-opacity:1"/><use xlink:href="#aJ" x="349.565" y="684.637" style="fill:#000;fill-opacity:1"/><use xlink:href="#aS" x="358.55" y="684.637" style="fill:#000;fill-opacity:1"/><use xlink:href="#aE" x="363.954" y="684.637" style="fill:#000;fill-opacity:1"/><use xlink:href="#aT" x="369.9" y="684.637" style="fill:#000;fill-opacity:1"/><use xlink:href="#aF" x="375.787" y="684.637" style="fill:#000;fill-opacity:1"/><use xlink:href="#ax" x="384.42" y="684.637" style="fill:#000;fill-opacity:1"/><use xlink:href="#aE" x="391.58" y="684.637" style="fill:#000;fill-opacity:1"/><use xlink:href="#aA" x="397.522" y="684.637" style="fill:#000;fill-opacity:1"/><use xlink:href="#aE" x="406.127" y="684.637" style="fill:#000;fill-opacity:1"/><use xlink:href="#aC" x="412.07" y="684.637" style="fill:#000;fill-opacity:1"/><use xlink:href="#aT" x="415.808" y="684.637" style="fill:#000;fill-opacity:1"/><use xlink:href="#aA" x="421.694" y="684.637" style="fill:#000;fill-opacity:1"/><use xlink:href="#aB" x="427.494" y="684.637" style="fill:#000;fill-opacity:1"/><use xlink:href="#aU" x="434.005" y="684.637" style="fill:#000;fill-opacity:1"/><use xlink:href="#aE" x="441.251" y="684.637" style="fill:#000;fill-opacity:1"/><use xlink:href="#aV" x="447.194" y="684.637" style="fill:#000;fill-opacity:1"/><use xlink:href="#aO" x="451.779" y="684.637" style="fill:#000;fill-opacity:1"/><use xlink:href="#aJ" x="458.516" y="684.637" style="fill:#000;fill-opacity:1"/><use xlink:href="#aI" x="464.699" y="684.637" style="fill:#000;fill-opacity:1"/><use xlink:href="#ay" x="470.246" y="684.637" style="fill:#000;fill-opacity:1"/><use xlink:href="#az" x="472.61" y="684.637" style="fill:#000;fill-opacity:1"/><use xlink:href="#aA" x="477.82" y="684.637" style="fill:#000;fill-opacity:1"/><use xlink:href="#aB" x="483.62" y="684.637" style="fill:#000;fill-opacity:1"/><use xlink:href="#aP" x="490.13" y="684.637" style="fill:#000;fill-opacity:1"/><use xlink:href="#aD" x="497.63" y="684.637" style="fill:#000;fill-opacity:1"/><use xlink:href="#aQ" x="503.248" y="684.637" style="fill:#000;fill-opacity:1"/><use xlink:href="#aA" x="511.909" y="684.637" style="fill:#000;fill-opacity:1"/><use xlink:href="#ao" x="281.243" y="816.525" style="fill:#000;fill-opacity:1"/><use xlink:href="#ae" x="286.571" y="816.525" style="fill:#000;fill-opacity:1"/><use xlink:href="#ac" x="294.059" y="816.525" style="fill:#000;fill-opacity:1"/><use xlink:href="#ah" x="302.179" y="816.525" style="fill:#000;fill-opacity:1"/><use xlink:href="#ad" x="310.044" y="816.525" style="fill:#000;fill-opacity:1"/><use xlink:href="#ar" x="315.239" y="816.525" style="fill:#000;fill-opacity:1"/></svg>
