<svg xmlns="http://www.w3.org/2000/svg" width="793.707" height="1122.52" viewBox="0 0 793.707 1122.52"><defs><clipPath id="c" clipPathUnits="userSpaceOnUse"><path d="M2604.59 5955h834.066v173.281H2604.59z"/></clipPath><clipPath id="b" clipPathUnits="userSpaceOnUse"><path d="M344.401 328.524h131.886V156.537H344.4Z"/></clipPath><clipPath id="e" clipPathUnits="userSpaceOnUse"><path d="M2583 6170v183h990v-183z"/></clipPath><clipPath id="d" clipPathUnits="userSpaceOnUse"><path d="M344.401 328.524h131.886V156.537H344.4Z"/></clipPath><clipPath id="g" clipPathUnits="userSpaceOnUse"><path d="M2583.01 5954.97h989.145v1289.9H2583.01z"/></clipPath><clipPath id="f" clipPathUnits="userSpaceOnUse"><path d="M344.401 328.524h131.886V156.537H344.4Z"/></clipPath><clipPath id="a" clipPathUnits="userSpaceOnUse"><path d="M344.401 328.524h131.886V156.537H344.401z"/></clipPath></defs><path d="M0 0h5952.76v8418.9H0Z" style="fill:#fff;fill-opacity:1;fill-rule:nonzero;stroke:none" transform="matrix(.13333 0 0 -.13333 0 1122.52)"/><path d="M4.232.13c1.945 0 3.223-1.242 3.223-2.942V-8.26H6.4v5.367c0 1.184-.82 2.051-2.168 2.051-1.36 0-2.18-.867-2.18-2.05V-8.26H.998v5.45C.998-1.111 2.275.13 4.232.13M9.447 0H10.5v-4.71c0-.399-.035-1.23-.082-2.285.645 1.148.961 1.699 1.336 2.297l3 4.699h1.254v-8.262h-1.054v5.074c0 .434 0 1.137.07 1.946-.375-.75-.75-1.383-.973-1.735L10.69-8.26H9.447Zm9.612-8.26h-1.055V0h1.055zM23.386 0h1.207l3.012-8.26H26.48l-1.7 4.898a57 57 0 0 0-.784 2.507 39 39 0 0 0-.797-2.507l-1.746-4.899H20.35Zm5.505 0h5.086v-.925h-4.031v-2.777h3.703v-.926h-3.703v-2.695h3.984v-.938h-5.039zm6.826 0h1.055v-3.198h1.781c.07 0 .13 0 .188-.012L40.463 0h1.22L39.83-3.397c1.043-.363 1.535-1.218 1.535-2.308 0-1.477-.89-2.555-2.825-2.555h-2.824Zm1.055-4.136v-3.2h1.723c1.312 0 1.816.645 1.816 1.63 0 .972-.504 1.57-1.805 1.57zM45.675.141c1.899 0 3-1.042 3-2.39 0-1.547-1.453-2.04-2.343-2.285l-.82-.223c-.61-.176-1.583-.48-1.583-1.336 0-.785.715-1.348 1.781-1.348.985 0 1.723.457 1.817 1.266h1.031c-.047-1.242-1.183-2.191-2.812-2.191-1.594 0-2.836.925-2.836 2.32 0 1.102.773 1.781 2.097 2.156l1.008.281c.879.247 1.629.54 1.629 1.348 0 .879-.855 1.465-1.969 1.465-.972 0-1.84-.434-1.922-1.36h-1.078c.094 1.383 1.207 2.297 3 2.297m5.693-8.402h-1.055V.001h1.055zM55.94.001c2.52 0 3.937-1.559 3.937-4.149 0-2.554-1.418-4.113-3.832-4.113h-2.683V.001Zm-1.524-.926v-6.398h1.56c1.91 0 2.882 1.195 2.882 3.175 0 2.004-.973 3.223-2.988 3.223zm6.06.926h1.112l.797-2.309h3.41l.82 2.309h1.114l-3.035-8.262h-1.23Zm2.237-3.223.575-1.676c.175-.515.433-1.3.785-2.52.351 1.196.597 1.97.797 2.52l.597 1.676zM71.591.001c2.52 0 3.938-1.559 3.938-4.149 0-2.554-1.418-4.113-3.832-4.113h-2.684V.001Zm-1.523-.926v-6.398h1.558c1.91 0 2.883 1.195 2.883 3.175 0 2.004-.972 3.223-2.988 3.223zm7.142.926h5.086v-.926h-4.03v-2.777h3.702v-.926h-3.703v-2.695h3.985v-.938h-5.04zm12.595 0c2.52 0 3.938-1.559 3.938-4.149 0-2.554-1.418-4.113-3.832-4.113h-2.684V.001Zm-1.523-.926v-6.398h1.558c1.91 0 2.883 1.195 2.883 3.175 0 2.004-.973 3.223-2.988 3.223zm7.14.926h5.085v-.926h-4.03v-2.777h3.702v-.926h-3.703v-2.695h3.984v-.938h-5.039zm10.022 0h4.875v-.926h-3.82V-8.26h-1.055zm7.476-8.262h-1.054V.001h1.054zm4.644 8.402c1.898 0 3-1.042 3-2.39 0-1.547-1.453-2.04-2.344-2.285l-.82-.223c-.61-.176-1.582-.48-1.582-1.336 0-.785.715-1.348 1.781-1.348.984 0 1.723.457 1.817 1.266h1.03c-.046-1.242-1.183-2.191-2.812-2.191-1.593 0-2.836.925-2.836 2.32 0 1.102.774 1.781 2.098 2.156l1.008.281c.879.247 1.629.54 1.629 1.348 0 .879-.856 1.465-1.969 1.465-.973 0-1.84-.434-1.922-1.36h-1.078c.094 1.383 1.207 2.297 3 2.297m4.638-.14h3.023c1.945 0 2.766-.95 2.766-2.203 0-1.29-.903-2.004-1.676-2.051v-.082c.727-.188 1.36-.68 1.36-1.734 0-1.207-.821-2.192-2.544-2.192h-2.93zm1.054-.926v-2.824h1.993c1.066 0 1.722.715 1.722 1.535 0 .715-.492 1.29-1.77 1.29zm0-3.703v-2.695h1.852c1.066 0 1.547.562 1.547 1.277 0 .855-.692 1.418-1.582 1.418zm9.73 4.734c2.12 0 3.656-1.617 3.656-4.23 0-2.625-1.535-4.242-3.656-4.242s-3.668 1.617-3.668 4.242c0 2.613 1.547 4.23 3.668 4.23m0-.972c-1.488 0-2.649-1.149-2.649-3.258 0-2.121 1.16-3.27 2.649-3.27 1.476 0 2.637 1.149 2.637 3.27 0 2.11-1.16 3.258-2.637 3.258M137.23 0h1.113l.797-2.309h3.41L143.37 0h1.114l-3.035-8.262h-1.23zm2.238-3.223.574-1.676c.176-.515.434-1.3.786-2.52.351 1.196.597 1.97.796 2.52l.598 1.676zM8.855 20.168H9.91v-3.573h3.562v-.926H9.91v-2.824h3.937v-.938H8.855Zm4.975 0h1.113l.797-2.308h3.41l.82 2.309h1.113l-3.035-8.262h-1.23zm2.238-3.222.574-1.676c.176-.515.434-1.3.785-2.52.352 1.196.598 1.97.797 2.52l.598 1.676zm9.252 3.328c1.699 0 3.047-1.031 3.34-2.707h-1.055c-.234 1.125-1.195 1.735-2.285 1.735-1.477 0-2.637-1.149-2.637-3.258 0-2.121 1.16-3.27 2.637-3.27 1.078 0 2.05.61 2.285 1.735h1.055c-.293-1.7-1.664-2.707-3.34-2.707-2.11 0-3.656 1.617-3.656 4.242 0 2.613 1.546 4.23 3.656 4.23m8.191.024c1.946 0 3.223-1.242 3.223-2.942v-5.449h-1.055v5.367c0 1.184-.82 2.051-2.168 2.051-1.36 0-2.18-.867-2.18-2.05v-5.368h-1.054v5.45c0 1.699 1.277 2.94 3.234 2.94m5.218-.13h4.875v-.925h-3.82v-7.336h-1.055Zm4.872-7.323h2.602v7.324h1.054v-7.324h2.59v-.938h-6.246Zm10.336 7.324h1.055v-3.387l3.035-4.875h-1.219L55.18 14.58c-.258.434-.48.809-.703 1.348-.223-.516-.445-.891-.726-1.348l-1.63-2.672h-1.218l3.035 4.875zm11.92.105c2.122 0 3.657-1.617 3.657-4.23 0-2.625-1.535-4.242-3.656-4.242s-3.668 1.617-3.668 4.242c0 2.613 1.547 4.23 3.668 4.23m0-.972c-1.487 0-2.648-1.149-2.648-3.258 0-2.121 1.16-3.27 2.649-3.27 1.476 0 2.637 1.149 2.637 3.27 0 2.11-1.16 3.258-2.637 3.258m5.333.867h1.055v-3.574h3.562v-.926h-3.562v-2.824h3.937v-.938H71.19zm12.548.14c1.898 0 3-1.043 3-2.39 0-1.547-1.453-2.04-2.344-2.285l-.82-.223c-.61-.176-1.582-.48-1.582-1.336 0-.785.715-1.348 1.78-1.348.985 0 1.724.457 1.817 1.266h1.032c-.047-1.242-1.184-2.191-2.813-2.191-1.594 0-2.836.925-2.836 2.32 0 1.102.774 1.781 2.098 2.156l1.008.281c.879.247 1.629.54 1.629 1.348 0 .879-.856 1.465-1.97 1.465-.972 0-1.84-.434-1.921-1.36H80.74c.094 1.383 1.207 2.297 3 2.297m7.977-.035c1.7 0 3.047-1.031 3.34-2.707H94c-.234 1.125-1.195 1.735-2.285 1.735-1.476 0-2.636-1.149-2.636-3.258 0-2.121 1.16-3.27 2.636-3.27 1.078 0 2.051.61 2.285 1.735h1.055c-.293-1.7-1.664-2.707-3.34-2.707-2.109 0-3.656 1.617-3.656 4.242 0 2.613 1.547 4.23 3.656 4.23m6.012-8.367h-1.055v8.262h1.055zm1.998 8.262h5.086v-.926h-4.031v-2.777h3.703v-.926h-3.703v-2.695h3.984v-.938h-5.039zm6.826 0h1.055v-4.711c0-.399-.035-1.23-.082-2.285.644 1.148.96 1.699 1.336 2.297l3 4.699h1.254v-8.262h-1.055v5.074c0 .434 0 1.137.07 1.946-.375-.75-.75-1.383-.972-1.735l-3.364-5.285h-1.242zm11.898.105c1.699 0 3.047-1.031 3.34-2.707h-1.055c-.234 1.125-1.195 1.735-2.285 1.735-1.477 0-2.637-1.149-2.637-3.258 0-2.121 1.16-3.27 2.637-3.27 1.078 0 2.05.61 2.285 1.735h1.055c-.293-1.7-1.664-2.707-3.34-2.707-2.11 0-3.657 1.617-3.657 4.242 0 2.613 1.547 4.23 3.657 4.23m4.957-.105h5.086v-.926h-4.032v-2.777h3.704v-.926h-3.704v-2.695h3.985v-.938h-5.04zm9.474.14c1.899 0 3-1.043 3-2.39 0-1.547-1.453-2.04-2.343-2.285l-.82-.223c-.61-.176-1.583-.48-1.583-1.336 0-.785.715-1.348 1.782-1.348.984 0 1.722.457 1.816 1.266h1.031c-.047-1.242-1.183-2.191-2.812-2.191-1.594 0-2.836.925-2.836 2.32 0 1.102.773 1.781 2.097 2.156l1.008.281c.88.247 1.63.54 1.63 1.348 0 .879-.856 1.465-1.97 1.465-.972 0-1.84-.434-1.922-1.36h-1.078c.094 1.383 1.207 2.297 3 2.297m0 0" aria-label="UNIVERSIDADEDELISBOA FACULTYOFSCIENCES" style="fill:#000;fill-opacity:1;fill-rule:nonzero;stroke:none" transform="translate(300.861 53.007)scale(1.33333)"/><g clip-path="url(#a)"><g clip-path="url(#b)"><path d="M2663.75 5978.51c-18.24 0-34.22 13.36-34.22 33.93v103.92h-24.9v-103.92c0-34.9 27.22-57.44 59.12-57.44 31.65 0 58.87 22.54 58.87 57.44v103.92h-24.69v-103.92c0-20.57-15.97-33.93-34.18-33.93m103.46-21.24h88.2v22.39h-63.75v136.7h-24.45zm140.38 0h-23.48v107.85h23.52zm-27.69 151.5c0-8.51 7.42-15 15.97-15 8.76 0 15.68 6.49 15.68 15 0 8.55-6.92 15-15.72 15-8.51 0-15.93-6.45-15.93-15m89.64-104.8 14.53-3.55c7.88-1.77 15.04-5.77 15.04-12.67 0-8.09-8.33-12.95-19.16-12.95-12.48 0-20.11 6.28-21.25 15.47h-21.95c.46-22.63 21.24-35.27 41.34-35.27 24.73 0 42.95 11.75 42.95 32.53 0 10.83-4.86 25.62-28.16 31.4l-16.6 4.12c-5.82 1.65-11.81 4.22-13.2 8.36-1.22 3.19-.88 6.77.93 9.73 2.28 3.66 9.24 5.99 15.22 5.99 7.41 0 14.79-3.51 15.72-11.56h22.62c-1.39 23.06-20.05 31.86-39.27 31.86-19.85 0-37.17-12.52-38.57-28.39-1.34-17.33 6.92-28.88 29.81-35.07m101.39 7.54c0 21.28 16.86 32.83 33.03 32.83 18 0 32.59-12.93 32.59-32.83 0-19.85-14.59-33.46-32.59-33.46-17.57 0-33.03 12.47-33.03 33.46m-.26-54.24v15.72c6.71-11.59 21.49-17.99 36.08-17.99 29.07 0 53.98 22.12 53.98 56.05 0 34.68-24.44 56.38-53.78 56.38-15.29 0-29.57-6.02-36.23-17.78v74.12h-23.77v-166.5zm171.6 20.78c-17.78 0-32.57 13.15-32.57 33.46 0 19.9 14.79 32.62 32.57 32.62 18.04 0 32.83-12.72 32.83-32.62 0-20.31-14.79-33.46-32.83-33.46m0-23.05c30.73 0 56.6 22.34 56.6 56.51 0 34.22-25.87 55.92-56.6 55.92-30.51 0-56.09-21.65-56.09-55.92 0-34.17 25.62-56.51 56.09-56.51m172.79 2.27h23.52v107.85h-23.52v-15.26c-7.42 12.22-23.35 17.57-36.24 17.57-29.13 0-54.75-21.65-54.75-56.13 0-34.43 25.62-56.3 54.75-56.3 13.36 0 29.07 5.94 36.24 17.7zm-66.54 54.24c0 19.9 15 32.83 33.04 32.83 16.18 0 33.28-11.55 33.28-32.83 0-21.24-15.71-33.46-33.28-33.46-18.04 0-33.04 13.61-33.04 33.46" clip-path="url(#c)" style="fill:#000;fill-opacity:1;fill-rule:nonzero;stroke:none" transform="matrix(.13333 0 0 -.13333 0 1122.52)"/></g><g clip-path="url(#d)"><path d="M2711.16 6229.13c-9.02-13.7-24.44-23.22-42.06-23.22-28.1 0-48.67 23.47-48.67 52.63 0 29.34 20.57 52.81 48.67 52.81 17.37 0 32.03-8.81 41.1-22.04l29.11 20.06c-14.66 21.49-40.11 35.7-70.21 35.7-48.16 0-84.57-38.61-84.57-86.57 0-47.45 36.41-86.26 84.57-86.26 30.55 0 56.26 14.63 70.94 36.87zm89.21 59.67h-33.668v-114.164h33.668zm-38.09 42.36c0-11.25 9.77-20.07 21.29-20.07 11.45 0 20.77 8.82 20.77 20.07s-9.32 19.8-20.77 19.8c-11.52 0-21.29-8.55-21.29-19.8m110.29 17.36-26.68-41.13h24.45l19.08 21.78 19.34-21.78h24.45l-26.93 41.08zm45.01-136.2c-5.65-7.34-15.68-10.79-24.95-10.79-12.01 0-26.43 5.9-28.15 19.09h83.65c.25 2.95.46 7.59.46 10.49 0 35.94-25.92 60.13-58.41 60.13-32.78 0-59.68-23.17-59.68-59.12 0-35.94 26.9-59.88 59.64-59.88 19.39 0 40.62 6.07 52.09 23.18zm-52.6 29.53c2.95 14.46 15.88 19.61 25.41 19.61s22.26-5.62 23.98-19.61zm146.49-6.81c0 17.4 9.02 23.25 21.02 23.25 11.51 0 19.85-7.58 19.85-22.72v-60.93h33.92v68.23c0 32.54-16.13 48.37-41.8 48.37-13.49 0-26.89-7.54-32.99-19.04v16.6h-33.97v-114.16h33.97zm103.66-2.92c0-35.94 29.33-59.88 62.08-59.88 20.56 0 38.9 9.01 49.65 24.36l-27.61 19.59c-4.64-7.33-13.23-11.5-22.04-11.5-14.41 0-28.37 11.03-28.37 27.43 0 16.36 13.96 26.64 28.37 26.64 8.81 0 17.4-4.13 22.04-11.47l27.61 19.76c-11.01 15.43-29.34 24.19-49.65 24.19-32.75 0-62.08-23.21-62.08-59.12m174.6 56.68h-33.76v-114.16h33.76zm-38.09 42.36c0-11.25 9.73-20.07 21.23-20.07 11.47 0 20.77 8.82 20.77 20.07s-9.3 19.8-20.77 19.8c-11.5 0-21.28-8.55-21.28-19.8m159.67-156.52h33.76v114.16h-33.76v-12.68c-8.8 12.73-25.91 15.12-33.25 15.12-29.07 0-58.19-22.67-58.19-59.36 0-36.72 29.12-59.43 58.19-59.43 8.81 0 25.92 4.17 33.25 15.13zm-56.25 57.24c0 16.38 14.45 27.13 28.61 27.13 13.95 0 27.64-10.03 27.64-27.13 0-17.16-13.69-27.19-27.64-27.19-14.16 0-28.61 10.74-28.61 27.19m171.47-14.17c8.31-2.23 11.21-4.93 11.21-9.82 0-5.9-6.32-9.26-13.91-9.52-9.35 0-16.69 6.61-16.89 13.19h-31.74c.21-25.42 24.4-39.32 47.62-39.32 23.98 0 49.4 11.51 49.4 35.65 0 7.34-3.47 25.71-31.06 33.25l-19.3 5.15c-6.83 1.72-9.79 5.13-10.04 8.54-.21 5.15 4.68 8.6 12.01 8.6 5.35-.04 12.69-1.47 12.94-10.02h31.98c-.2 27.85-24.14 37.83-46.89 37.83-23.94 0-44.3-15.59-44.51-32.48-.25-10.5 0-27.86 34.26-37.21z" clip-path="url(#e)" style="fill:#000;fill-opacity:1;fill-rule:nonzero;stroke:none" transform="matrix(.13333 0 0 -.13333 0 1122.52)"/></g><g clip-path="url(#f)"><path d="M3064.27 6790.2c-21.36-32.32-57.73-54.86-99.29-54.86-66.41 0-114.92 55.45-114.92 124.14 0 69.29 48.51 124.75 114.92 124.75 40.97 0 75.65-20.82 97.01-51.97l68.7 47.33c-34.64 50.82-94.7 84.33-165.71 84.33-113.78 0-199.79-91.24-199.79-204.44 0-112 86.01-203.79 199.79-203.79 72.2 0 132.79 34.64 167.43 87.19zm-341.89 231.24h18.58v34.85h28.57v16.19h-28.57v19.97h36.07v16.35h-54.65z" clip-path="url(#g)" style="fill:#000;fill-opacity:1;fill-rule:nonzero;stroke:none" transform="matrix(.13333 0 0 -.13333 0 1122.52)"/><path d="M3353.24 7244.88h-770.23v-770.23h770.23zm-80.84-689.33h-608.523v608.492H3272.4Z" clip-path="url(#g)" style="fill:#000;fill-opacity:1;fill-rule:nonzero;stroke:none" transform="matrix(.13333 0 0 -.13333 0 1122.52)"/></g></g><path d="M.387.001h2.648l.867-2.719h4.149l.902 2.72h2.672L7.523-11.695h-3.14ZM4.5-4.593l.34-1.054c.35-1.173.69-2.567 1.09-4.173.41 1.594.773 2.976 1.148 4.172l.352 1.054zM20.312.001h3.128l4.008-11.695H24.8l-1.805 5.637a98 98 0 0 0-1.113 4.125 75 75 0 0 0-1.149-4.125l-1.863-5.637h-2.66Zm11.51.176c2.04 0 3.446-.95 3.868-2.414l-2.133-.399c-.246.68-.867 1.032-1.7 1.032-1.183 0-1.98-.739-2.039-2.168h6.012v-.668c0-2.989-1.828-4.442-4.125-4.442-2.566 0-4.219 1.828-4.219 4.535 0 2.778 1.653 4.524 4.336 4.524m-1.98-5.426c.094-1.09.762-1.863 1.887-1.863 1.09 0 1.71.715 1.828 1.863zm7.602 5.25H39.8V-4.99c0-1.09.785-1.84 1.875-1.84.34 0 .808.059 1.02.117V-8.81a4 4 0 0 0-.762-.082c-.985 0-1.793.562-2.121 1.652h-.094v-1.535h-2.274zm6.733 3.106c.34.14.926.234 1.547.234 1.758 0 2.683-.879 3.21-2.309l3.739-9.808H50.2l-1.547 4.558c-.246.75-.457 1.5-.632 2.286-.165-.774-.317-1.524-.563-2.286l-1.477-4.558h-2.496l3.293 8.8-.058.47c-.106.878-.762 1.171-1.711.913l-.281-.07zM57.794 0h7.453v-1.99h-5.05v-9.703h-2.403ZM70.77.177c2.636 0 4.289-1.828 4.289-4.524 0-2.718-1.653-4.535-4.29-4.535-2.648 0-4.3 1.817-4.3 4.535 0 2.696 1.652 4.524 4.3 4.524m0-1.852c-1.254 0-1.899-1.148-1.899-2.683 0-1.559.645-2.672 1.899-2.672 1.253 0 1.898 1.125 1.898 2.672 0 1.535-.645 2.683-1.898 2.683m8.296-3.398c0-1.172.692-1.84 1.7-1.84.996 0 1.582.645 1.582 1.734v5.18h2.355v-5.578c0-2.062-1.183-3.305-3.012-3.305-1.347 0-2.238.692-2.73 1.922l-.035-1.816H76.71V0h2.355zM90.63 3.47c2.473 0 4.242-1.16 4.242-3.54v-8.706h-2.308V-7.3h-.106c-.328-.703-1.043-1.582-2.52-1.582-1.945 0-3.585 1.512-3.585 4.477 0 2.906 1.593 4.277 3.574 4.277 1.418 0 2.11-.715 2.437-1.43h.176V.06c0 1.16-.726 1.699-1.934 1.699-1.136 0-1.687-.504-1.898-1.008l-2.027.574c.386 1.254 1.746 2.145 3.949 2.145m.035-5.379c-1.219 0-1.887-.984-1.887-2.508 0-1.512.645-2.59 1.887-2.59 1.207 0 1.887 1.032 1.887 2.59 0 1.57-.68 2.508-1.887 2.508M103.151.177c1.29 0 2.145-.574 2.567-1.395h.082v1.22h2.226v-5.919c0-2.12-1.84-2.965-3.726-2.965-1.957 0-3.375.868-3.82 2.39l2.156.364c.187-.574.75-1.02 1.664-1.02.879 0 1.37.423 1.37 1.173v.035c0 .574-.62.644-2.132.785-1.723.176-3.305.738-3.305 2.695 0 1.735 1.243 2.637 2.918 2.637m.668-1.664c-.785 0-1.324-.352-1.324-1.031 0-.704.574-1.043 1.442-1.172.527-.07 1.453-.2 1.746-.399v.95c0 .925-.762 1.652-1.864 1.652m8.581-3.586c0-1.172.692-1.84 1.7-1.84.996 0 1.582.645 1.582 1.734v5.18h2.355v-5.578c0-2.062-1.183-3.305-3.012-3.305-1.347 0-2.238.692-2.73 1.922l-.035-1.816h-2.215V0h2.355zM123.273.153c1.43 0 2.156-.855 2.484-1.558h.117V0h2.309v-11.695h-2.356V-7.3h-.07c-.317-.703-1.008-1.582-2.508-1.582-1.945 0-3.562 1.512-3.562 4.512 0 2.918 1.558 4.523 3.586 4.523m.714-1.898c-1.218 0-1.875-1.09-1.875-2.637 0-1.535.645-2.625 1.875-2.625 1.22 0 1.887 1.032 1.887 2.625 0 1.582-.68 2.637-1.887 2.637m12.478-9.95h-2.402V.002h2.402zM138.533.002h2.356v-5.308c0-1.055.633-1.63 1.465-1.63.796 0 1.37.551 1.37 1.407V0h2.274v-5.4c0-.914.55-1.535 1.442-1.535.796 0 1.394.48 1.394 1.464V.001h2.356v-5.918c0-1.91-1.184-2.988-2.801-2.988-1.207 0-2.32.61-2.813 1.969-.41-1.336-1.136-1.97-2.261-1.97-1.055 0-2.04.552-2.508 1.829l-.094-1.7h-2.18zm14.684 3.281h2.355v-4.687h.07c.329.703 1.055 1.558 2.485 1.558 2.027 0 3.574-1.605 3.574-4.523 0-3-1.605-4.512-3.55-4.512-1.5 0-2.192.88-2.508 1.582h-.118v-1.476h-2.308zm4.195-5.027c-1.207 0-1.898-1.055-1.898-2.637 0-1.593.68-2.625 1.898-2.625 1.23 0 1.875 1.09 1.875 2.625 0 1.547-.656 2.637-1.875 2.637M163.36.001h2.356V-4.99c0-1.09.785-1.84 1.875-1.84.34 0 .808.059 1.02.117V-8.81a4 4 0 0 0-.762-.082c-.985 0-1.793.562-2.121 1.652h-.094v-1.535h-2.274zm10.123.176c2.039 0 3.445-.95 3.867-2.414l-2.133-.399c-.246.68-.867 1.032-1.7 1.032-1.183 0-1.98-.739-2.038-2.168h6.011v-.668c0-2.989-1.828-4.442-4.125-4.442-2.566 0-4.218 1.828-4.218 4.535 0 2.778 1.652 4.524 4.336 4.524M171.5-5.25c.094-1.09.762-1.863 1.887-1.863 1.09 0 1.71.715 1.828 1.863zM182.584.177c2.309 0 3.926-1.16 3.926-2.883 0-1.254-.809-2.027-2.508-2.367l-1.582-.316c-.832-.176-1.125-.481-1.125-.926 0-.528.598-.88 1.36-.88.855 0 1.359.423 1.546 1.02l2.086-.375c-.328-1.43-1.582-2.332-3.656-2.332-2.227 0-3.691 1.032-3.691 2.72 0 1.312.832 2.144 2.519 2.483l1.523.317c.762.164 1.125.445 1.125.902 0 .528-.55.903-1.453.903-.96 0-1.523-.399-1.757-1.22l-2.192.376c.305 1.629 1.758 2.578 3.879 2.578m9.012 0c2.308 0 3.926-1.16 3.926-2.883 0-1.254-.809-2.027-2.508-2.367l-1.582-.316c-.832-.176-1.125-.481-1.125-.926 0-.528.597-.88 1.36-.88.855 0 1.358.423 1.546 1.02l2.086-.375c-.328-1.43-1.582-2.332-3.656-2.332-2.227 0-3.692 1.032-3.692 2.72 0 1.312.832 2.144 2.52 2.483l1.523.317c.762.164 1.125.445 1.125.902 0 .528-.55.903-1.453.903-.96 0-1.523-.399-1.758-1.22l-2.191.376c.305 1.629 1.758 2.578 3.879 2.578M197.127 0h2.355v-8.777h-2.355zm1.172-9.926c.715 0 1.3-.527 1.3-1.207 0-.668-.585-1.207-1.3-1.207s-1.29.54-1.29 1.207c0 .68.575 1.207 1.29 1.207M203.959 0h2.672l3.246-8.777h-2.473l-1.464 4.558a31 31 0 0 0-.61 2.391 31 31 0 0 0-.633-2.39l-1.476-4.56h-2.496zm10.846.176c2.039 0 3.445-.95 3.867-2.414l-2.133-.399c-.246.68-.867 1.032-1.7 1.032-1.183 0-1.98-.739-2.038-2.168h6.012v-.668c0-2.989-1.829-4.442-4.125-4.442-2.567 0-4.22 1.828-4.22 4.535 0 2.778 1.653 4.524 4.337 4.524m-1.98-5.426c.093-1.09.761-1.863 1.886-1.863 1.09 0 1.71.715 1.828 1.863zM-32.626 10.83h3.586v9.715h2.402V10.83h3.575V8.85h-9.563zm13.518 4.64c0-1.171.691-1.839 1.699-1.839.996 0 1.582.645 1.582 1.734v5.18h2.367v-5.578c0-2.063-1.195-3.305-3.023-3.305-1.301 0-2.168.645-2.672 1.782V8.849h-2.309v11.695h2.356zm11.622 5.25c2.039 0 3.445-.948 3.867-2.413l-2.133-.399c-.246.68-.867 1.032-1.7 1.032-1.183 0-1.98-.739-2.038-2.168h6.012v-.668c0-2.989-1.829-4.442-4.125-4.442-2.567 0-4.22 1.828-4.22 4.535 0 2.778 1.653 4.524 4.337 4.524m-1.98-5.425c.093-1.09.761-1.863 1.886-1.863 1.09 0 1.71.715 1.828 1.863zM1.62 20.72c2.309 0 3.926-1.16 3.926-2.883 0-1.254-.809-2.027-2.508-2.367l-1.582-.317c-.832-.175-1.125-.48-1.125-.925 0-.528.598-.88 1.36-.88.855 0 1.359.423 1.546 1.02l2.086-.375c-.328-1.43-1.582-2.332-3.656-2.332-2.227 0-3.691 1.032-3.691 2.719 0 1.313.832 2.145 2.52 2.484l1.523.317c.761.164 1.125.445 1.125.902 0 .528-.551.903-1.454.903-.96 0-1.523-.399-1.757-1.22l-2.192.376c.305 1.629 1.758 2.578 3.88 2.578m5.531-.176h2.356v-8.777H7.15Zm1.172-9.926c.715 0 1.301-.527 1.301-1.207 0-.668-.586-1.207-1.3-1.207-.716 0-1.29.54-1.29 1.207 0 .68.574 1.207 1.29 1.207m6.668 10.102c2.309 0 3.926-1.16 3.926-2.883 0-1.254-.809-2.027-2.508-2.367l-1.582-.317c-.832-.175-1.125-.48-1.125-.925 0-.528.598-.88 1.36-.88.855 0 1.359.423 1.546 1.02l2.086-.375c-.328-1.43-1.582-2.332-3.656-2.332-2.226 0-3.691 1.032-3.691 2.719 0 1.313.832 2.145 2.52 2.484l1.523.317c.761.164 1.125.445 1.125.902 0 .528-.551.903-1.453.903-.961 0-1.524-.399-1.758-1.22l-2.192.376c.305 1.629 1.758 2.578 3.88 2.578m8.921-9.89h3.586v9.714H29.9V10.83h3.575V8.85h-9.563zm11.162 9.714h2.356v-8.777h-2.356zm1.172-9.926c.715 0 1.3-.527 1.3-1.207 0-.668-.585-1.207-1.3-1.207s-1.289.54-1.289 1.207c0 .68.574 1.207 1.29 1.207m7.547 1.149h-1.64V9.68h-2.356v2.086h-1.219v1.793h1.219v4.617c0 1.617.95 2.496 2.707 2.496.48 0 .996-.059 1.523-.21l-.328-1.77a4 4 0 0 1-.75.105c-.574 0-.797-.27-.797-.82V13.56h1.641zm3.929-2.918H45.37v11.695h2.356zm5.965 11.87c2.039 0 3.445-.948 3.867-2.413l-2.133-.399c-.246.68-.867 1.032-1.7 1.032-1.183 0-1.98-.739-2.038-2.168h6.011v-.668c0-2.989-1.828-4.442-4.125-4.442-2.566 0-4.218 1.828-4.218 4.535 0 2.778 1.652 4.524 4.336 4.524m-1.98-5.425c.093-1.09.76-1.863 1.886-1.863 1.09 0 1.71.715 1.828 1.863zm13.241 5.25h2.39l.974-3.387c.21-.738.421-1.746.62-2.671.212.925.41 1.933.633 2.671l.973 3.387h2.39l2.614-8.777h-2.508l-.761 3.246a80 80 0 0 0-.704 3.398c-.246-1.3-.527-2.414-.75-3.398l-.785-3.246H67.87l-.797 3.246c-.234.996-.515 2.11-.761 3.387-.235-1.301-.504-2.414-.715-3.387l-.762-3.246h-2.473zm11.85 0h2.356v-8.777H76.8zm1.173-9.926c.715 0 1.3-.527 1.3-1.207 0-.668-.585-1.207-1.3-1.207s-1.29.54-1.29 1.207c0 .68.575 1.207 1.29 1.207m7.547 1.149h-1.641V9.68h-2.355v2.086h-1.22v1.793h1.22v4.617c0 1.617.949 2.496 2.707 2.496.48 0 .996-.059 1.523-.21l-.328-1.77a4 4 0 0 1-.75.105c-.574 0-.797-.27-.797-.82V13.56h1.64zm3.928 3.703c0-1.172.692-1.84 1.7-1.84.996 0 1.582.645 1.582 1.734v5.18h2.367v-5.578c0-2.063-1.196-3.305-3.024-3.305-1.3 0-2.168.645-2.672 1.782V8.849h-2.308v11.695h2.355zm13.922 5.25c1.29 0 2.145-.574 2.567-1.395h.082v1.22h2.226v-5.919c0-2.121-1.84-2.965-3.726-2.965-1.957 0-3.375.867-3.82 2.39l2.156.364c.187-.574.75-1.02 1.664-1.02.879 0 1.37.423 1.37 1.173v.035c0 .574-.62.644-2.132.785-1.723.176-3.305.738-3.305 2.695 0 1.735 1.242 2.637 2.918 2.637m.668-1.664c-.785 0-1.324-.352-1.324-1.031 0-.704.574-1.043 1.441-1.172.528-.07 1.453-.2 1.746-.399v.95c0 .925-.761 1.652-1.863 1.652m10.072 1.488h2.403v-4.488h4.781V14.1h-4.781v-3.27h5.297V8.85h-7.7zm12.868.176c2.636 0 4.289-1.828 4.289-4.524 0-2.718-1.653-4.535-4.29-4.535-2.648 0-4.3 1.817-4.3 4.535 0 2.696 1.652 4.524 4.3 4.524m0-1.852c-1.254 0-1.899-1.148-1.899-2.683 0-1.559.645-2.672 1.899-2.672s1.898 1.125 1.898 2.672c0 1.535-.644 2.683-1.898 2.683m5.941 1.676h2.356v-4.992c0-1.09.785-1.84 1.875-1.84.34 0 .808.059 1.019.117v-2.097a4 4 0 0 0-.762-.082c-.984 0-1.793.562-2.12 1.652h-.094v-1.535h-2.274zm10.084.176c2.098 0 3.586-1.137 3.914-2.988l-2.191-.399c-.188.95-.797 1.535-1.7 1.535-1.253 0-1.921-1.113-1.921-2.683 0-1.582.668-2.672 1.921-2.672.903 0 1.489.562 1.688 1.476l2.191-.41c-.328-1.804-1.828-2.918-3.902-2.918-2.648 0-4.3 1.817-4.3 4.535 0 2.696 1.652 4.524 4.3 4.524m9.501 0c2.04 0 3.445-.95 3.867-2.414l-2.133-.399c-.246.68-.867 1.032-1.699 1.032-1.183 0-1.98-.739-2.039-2.168h6.012v-.668c0-2.989-1.828-4.442-4.125-4.442-2.567 0-4.219 1.828-4.219 4.535 0 2.778 1.652 4.524 4.336 4.524m-1.98-5.426c.093-1.09.761-1.863 1.886-1.863 1.09 0 1.711.715 1.828 1.863zm10.816 5.402c1.43 0 2.156-.855 2.484-1.558h.118v1.406h2.308V8.85h-2.355v4.394h-.07c-.317-.703-1.008-1.582-2.508-1.582-1.946 0-3.563 1.512-3.563 4.512 0 2.918 1.559 4.523 3.586 4.523m.715-1.898c-1.219 0-1.875-1.09-1.875-2.637 0-1.535.644-2.625 1.875-2.625 1.219 0 1.887 1.032 1.887 2.625 0 1.582-.68 2.637-1.887 2.637m10.066 1.746h7.453v-1.992h-5.05V8.849h-2.403zm9.05 0h2.355v-8.777h-2.355Zm1.172-9.926c.715 0 1.3-.527 1.3-1.207 0-.668-.585-1.207-1.3-1.207s-1.29.54-1.29 1.207c0 .68.575 1.207 1.29 1.207m5.543 4.852c0-1.172.691-1.84 1.7-1.84.995 0 1.581.645 1.581 1.734v5.18h2.356v-5.578c0-2.063-1.184-3.305-3.012-3.305-1.348 0-2.238.692-2.73 1.922l-.036-1.816h-2.215v8.777h2.356zm11.625 5.25c2.039 0 3.445-.95 3.867-2.414l-2.133-.399c-.246.68-.867 1.032-1.699 1.032-1.184 0-1.98-.739-2.04-2.168h6.013v-.668c0-2.989-1.828-4.442-4.125-4.442-2.567 0-4.22 1.828-4.22 4.535 0 2.778 1.653 4.524 4.337 4.524m-1.98-5.426c.093-1.09.761-1.863 1.886-1.863 1.09 0 1.711.715 1.828 1.863zm11.46 5.25h4.946c2.636 0 4.02-1.371 4.02-3.223 0-1.734-1.243-2.777-2.567-2.835v-.118c1.207-.27 2.11-1.125 2.11-2.52 0-1.745-1.29-3-3.868-3h-4.64zm2.403-1.969V15.4h2.132c1.207 0 1.97.703 1.97 1.687 0 .89-.622 1.488-2.028 1.488zm0-4.816v-2.953h1.933c1.125 0 1.746.574 1.746 1.43 0 .949-.761 1.523-1.793 1.523zm8.194 6.785h2.355v-4.992c0-1.09.786-1.84 1.875-1.84.34 0 .809.059 1.02.117v-2.097a4 4 0 0 0-.762-.082c-.984 0-1.793.562-2.12 1.652h-.095v-1.535h-2.273zm10.128.176c2.039 0 3.445-.95 3.867-2.414l-2.133-.399c-.246.68-.867 1.032-1.699 1.032-1.184 0-1.98-.739-2.039-2.168h6.012v-.668c0-2.989-1.828-4.442-4.125-4.442-2.567 0-4.219 1.828-4.219 4.535 0 2.778 1.652 4.524 4.336 4.524m-1.98-5.426c.093-1.09.761-1.863 1.886-1.863 1.09 0 1.711.715 1.828 1.863zm10.204 5.426c1.289 0 2.144-.574 2.566-1.395h.082v1.22h2.227v-5.919c0-2.121-1.84-2.965-3.727-2.965-1.957 0-3.375.867-3.82 2.39l2.156.364c.187-.574.75-1.02 1.664-1.02.879 0 1.371.423 1.371 1.173v.035c0 .574-.621.644-2.133.785-1.722.176-3.304.738-3.304 2.695 0 1.735 1.242 2.637 2.918 2.637m.668-1.664c-.786 0-1.325-.352-1.325-1.031 0-.704.575-1.043 1.442-1.172.527-.07 1.453-.2 1.746-.399v.95c0 .925-.762 1.652-1.863 1.652m6.225 1.488h2.356V17.72l.668-.762 2.449 3.586h2.777l-3.445-4.969 3.281-3.808h-2.73l-2.872 3.375h-.128V8.849h-2.356zM7.219 127.486c2.941 0 4.605-1.828 4.605-4.84 0-2.988-1.664-4.792-4.476-4.792h-3.14v9.632zm-1.781-1.09v-7.464h1.816c2.238 0 3.375 1.394 3.375 3.715 0 2.343-1.137 3.75-3.492 3.75zm11.132 1.243c1.98 0 3.305-1.488 3.305-3.727 0-2.261-1.324-3.75-3.305-3.75-1.957 0-3.293 1.489-3.293 3.75 0 2.239 1.336 3.727 3.293 3.727m0-1.043c-1.441 0-2.109-1.254-2.109-2.684 0-1.441.668-2.707 2.11-2.707 1.464 0 2.132 1.278 2.132 2.707 0 1.43-.668 2.684-2.133 2.684m7.946 1.043c1.418 0 2.578-.762 2.965-2.05l-1.114-.317c-.222.773-.879 1.324-1.851 1.324-1.442 0-2.11-1.254-2.11-2.684 0-1.441.668-2.707 2.11-2.707.96 0 1.605.528 1.816 1.278l1.113-.317c-.386-1.265-1.523-2.004-2.93-2.004-1.956 0-3.292 1.489-3.292 3.75 0 2.239 1.336 3.727 3.293 3.727m7.473-7.383h-1.488v-1.723h-1.16v1.723h-1.09v.996h1.09v4.453c0 1.184.738 1.875 1.98 1.875.305 0 .633-.047.868-.129l-.235-.984c-.2.035-.445.07-.598.07-.609 0-.855-.281-.855-.926v-4.359h1.488zm4.307 7.383c1.98 0 3.305-1.488 3.305-3.727 0-2.261-1.325-3.75-3.305-3.75-1.957 0-3.293 1.489-3.293 3.75 0 2.239 1.336 3.727 3.293 3.727m0-1.043c-1.441 0-2.11-1.254-2.11-2.684 0-1.441.669-2.707 2.11-2.707 1.465 0 2.133 1.278 2.133 2.707 0 1.43-.668 2.684-2.133 2.684m5.004.89h1.172v-4.523c0-.984.761-1.687 1.804-1.687.305 0 .622.046.692.07v-1.172a9 9 0 0 0-.586-.023c-.856 0-1.606.48-1.875 1.218h-.082v-1.113H41.3zm7.016.165c1.22 0 1.899-.633 2.145-1.149h.082v.984h1.148v-4.77c0-2.249-1.746-2.554-2.718-2.554-1.114 0-2.356.399-2.918 1.711l1.125.375c.222-.504.785-1.066 1.828-1.066 1.008 0 1.512.527 1.512 1.418v.047c0 .527-.563.492-1.852.656-1.336.164-2.812.469-2.812 2.121 0 1.43 1.09 2.227 2.46 2.227m.2-1.02c-.868 0-1.489-.398-1.489-1.148 0-.82.739-1.09 1.582-1.196.446-.058 1.723-.187 1.91-.422v1.008c0 .89-.714 1.758-2.003 1.758m8.06-6.375h-1.489v-1.723h-1.16v1.723h-1.09v.996h1.09v4.453c0 1.184.738 1.875 1.98 1.875.305 0 .633-.047.867-.129l-.234-.984c-.2.035-.445.07-.598.07-.609 0-.855-.281-.855-.926v-4.359h1.488zm4.397 7.383c1.476 0 2.554-.738 2.894-1.84l-1.125-.305c-.27.739-.914 1.114-1.77 1.114-1.277 0-2.156-.832-2.214-2.344h5.226v-.48c0-2.673-1.617-3.622-3.152-3.622-1.969 0-3.258 1.547-3.258 3.762 0 2.227 1.301 3.715 3.399 3.715m-2.215-4.36c.07-1.101.832-2.085 2.074-2.085 1.195 0 1.852.855 1.969 2.085zm10.62 4.207h1.172v-7.23h-1.172zm.586-8.414c.457 0 .82-.34.82-.773 0-.422-.363-.773-.82-.773-.434 0-.809.351-.809.773 0 .434.375.773.809.773m3.794 4.079c0-1.23.773-1.934 1.816-1.934 1.008 0 1.63.656 1.63 1.77v4.5h1.171v-4.594c0-1.828-.984-2.73-2.45-2.73-.972 0-1.745.41-2.214 1.429v-1.336h-1.125v7.23h1.172zm13.62 4.5c2.227 0 3.492-1.207 3.492-2.79 0-1.804-1.687-2.378-2.73-2.671l-.961-.258c-.703-.2-1.84-.551-1.84-1.559 0-.902.832-1.57 2.086-1.57 1.137 0 2.004.539 2.121 1.476h1.195c-.058-1.453-1.383-2.566-3.281-2.566-1.863 0-3.316 1.09-3.316 2.719 0 1.277.902 2.074 2.46 2.508l1.16.34c1.032.28 1.91.632 1.91 1.558 0 1.031-.995 1.723-2.296 1.723-1.137 0-2.145-.504-2.238-1.594h-1.266c.106 1.617 1.406 2.684 3.504 2.684m8.112-7.395h-1.488v-1.723h-1.16v1.723h-1.09v.996h1.09v4.453c0 1.184.738 1.875 1.98 1.875.305 0 .633-.047.868-.129l-.235-.984c-.2.035-.445.07-.598.07-.609 0-.855-.281-.855-.926v-4.359h1.488zm3.938 7.324c.96 0 1.746-.386 2.215-1.441v1.347h1.125v-7.23h-1.172v4.336c0 1.23-.774 1.934-1.817 1.934-1.007 0-1.629-.668-1.629-1.77v-4.5h-1.17v4.594c0 1.828.996 2.73 2.449 2.73m8.103.059c1.371 0 1.852-.867 2.098-1.266h.129v1.113h1.125v-9.632h-1.16v3.562h-.094c-.246-.387-.691-1.254-2.098-1.254-1.804 0-3.07 1.442-3.07 3.727 0 2.308 1.254 3.75 3.07 3.75m.164-1.043c-1.347 0-2.05-1.195-2.05-2.719 0-1.5.68-2.672 2.05-2.672 1.336 0 2.04 1.078 2.04 2.672 0 1.606-.727 2.719-2.04 2.719m5.177 3.515c.129.06.445.13.856.13 1.02 0 1.722-.528 2.168-1.676l3.175-8.309h-1.277l-1.547 4.29a25 25 0 0 0-.562 1.85c-.164-.597-.329-1.218-.551-1.85l-1.535-4.29h-1.278l2.766 7.266-.211.609c-.363 1.031-.867 1.184-1.582.996l-.117-.035zm11.432-2.625h1.23v-3.492h2.074c2.25 0 3.282-1.36 3.282-3.082 0-1.71-1.032-3.058-3.282-3.058h-3.304zm1.23-4.57v-3.984h2.004c1.547 0 2.133.844 2.133 1.98 0 1.149-.586 2.004-2.121 2.004zm7.093 4.57h1.172v-4.523c0-.984.762-1.687 1.805-1.687.304 0 .62.046.691.07v-1.172a9 9 0 0 0-.586-.023c-.855 0-1.605.48-1.875 1.218h-.082v-1.113h-1.125zm7.717.153c1.98 0 3.304-1.488 3.304-3.727 0-2.261-1.324-3.75-3.304-3.75-1.957 0-3.293 1.489-3.293 3.75 0 2.239 1.336 3.727 3.293 3.727m0-1.043c-1.442 0-2.11-1.254-2.11-2.684 0-1.441.668-2.707 2.11-2.707 1.465 0 2.133 1.278 2.133 2.707 0 1.43-.668 2.684-2.133 2.684m7.928 3.75c1.757 0 3.152-.797 3.152-2.672v-7.418h-1.137v1.16h-.105c-.246-.387-.715-1.254-2.11-1.254-1.804 0-3.082 1.442-3.082 3.68 0 2.262 1.325 3.527 3.059 3.527 1.394 0 1.851-.797 2.098-1.207h.117v1.442c0 1.195-.832 1.722-1.992 1.722-1.266 0-1.723-.644-2.028-1.066l-.949.61c.445.796 1.371 1.476 2.977 1.476m-.024-4.008c-1.36 0-2.074-1.043-2.074-2.531 0-1.442.691-2.602 2.074-2.602 1.324 0 2.027 1.078 2.027 2.602 0 1.582-.714 2.531-2.027 2.531m5.22 1.148h1.173v-4.523c0-.984.761-1.687 1.804-1.687a3.2 3.2 0 0 1 .692.07v-1.172a9 9 0 0 0-.586-.023c-.856 0-1.606.48-1.875 1.218h-.082v-1.113h-1.125zm7.015.165c1.218 0 1.898-.633 2.144-1.149h.082v.984h1.148v-4.769c0-2.25-1.746-2.555-2.718-2.555-1.114 0-2.356.399-2.918 1.711l1.125.375c.222-.504.785-1.066 1.828-1.066 1.008 0 1.512.527 1.512 1.418v.047c0 .527-.563.492-1.852.656-1.336.164-2.812.469-2.812 2.121 0 1.43 1.09 2.227 2.46 2.227m.199-1.02c-.867 0-1.489-.398-1.489-1.148 0-.82.739-1.09 1.582-1.196.446-.058 1.723-.187 1.91-.422v1.008c0 .89-.714 1.758-2.003 1.758m5.215.855h1.171v-4.558c0-1.149.762-1.746 1.618-1.746.808 0 1.406.539 1.406 1.347v4.957h1.172v-4.722c0-.914.597-1.582 1.57-1.582.774 0 1.453.422 1.453 1.465v4.84h1.172v-4.876c0-1.675-1.02-2.484-2.273-2.484-1.055 0-1.934.563-2.286 1.477-.257-.89-.89-1.477-1.84-1.477-.855 0-1.663.48-2.027 1.453v-1.324h-1.136zm15.474 0h1.242v-5.496c0-.468-.047-1.43-.093-2.671.75 1.347 1.113 1.992 1.558 2.683l3.492 5.484h1.454v-9.632h-1.23v5.906c0 .516.01 1.336.093 2.273a24 24 0 0 0-1.137-2.015l-3.926-6.164h-1.453zm11.871.165c1.219 0 1.899-.633 2.145-1.149h.082v.984h1.148v-4.77c0-2.249-1.746-2.554-2.719-2.554-1.113 0-2.355.399-2.917 1.711l1.125.375c.222-.504.785-1.066 1.828-1.066 1.007 0 1.511.527 1.511 1.418v.047c0 .527-.562.492-1.851.656-1.336.164-2.813.469-2.813 2.121 0 1.43 1.09 2.227 2.461 2.227m.2-1.02c-.868 0-1.489-.398-1.489-1.148 0-.82.738-1.09 1.582-1.196.446-.058 1.723-.187 1.91-.422v1.008c0 .89-.714 1.758-2.004 1.758m5.211.855h1.172v-4.558c0-1.149.762-1.746 1.617-1.746.81 0 1.407.539 1.407 1.347v4.957h1.172v-4.722c0-.914.597-1.582 1.57-1.582.773 0 1.453.422 1.453 1.465v4.84h1.172v-4.876c0-1.675-1.02-2.484-2.274-2.484-1.054 0-1.933.563-2.285 1.477-.257-.891-.89-1.477-1.84-1.477-.855 0-1.664.48-2.027 1.453v-1.324h-1.137zm14.655.153c1.476 0 2.554-.738 2.894-1.84l-1.125-.305c-.27.739-.914 1.114-1.77 1.114-1.277 0-2.156-.832-2.214-2.344h5.226v-.48c0-2.673-1.617-3.622-3.152-3.622-1.969 0-3.258 1.547-3.258 3.762 0 2.227 1.301 3.715 3.399 3.715m-2.215-4.36c.07-1.101.832-2.085 2.074-2.085 1.195 0 1.852.855 1.969 2.085zM-2.28 150.236c2.226 0 3.492-1.208 3.492-2.79 0-1.804-1.688-2.378-2.73-2.671l-.961-.258c-.704-.2-1.84-.551-1.84-1.559 0-.902.832-1.57 2.086-1.57 1.136 0 2.004.539 2.12 1.476h1.196c-.059-1.453-1.383-2.566-3.281-2.566-1.863 0-3.317 1.09-3.317 2.719 0 1.277.903 2.074 2.461 2.508l1.16.34c1.032.28 1.91.632 1.91 1.558 0 1.031-.995 1.723-2.296 1.723-1.137 0-2.145-.504-2.239-1.594h-1.265c.105 1.617 1.406 2.684 3.504 2.684m5.267 2.542H4.16v-3.82h.082c.246.399.727 1.266 2.11 1.266 1.804 0 3.058-1.442 3.058-3.75 0-2.285-1.265-3.727-3.07-3.727-1.406 0-1.852.867-2.098 1.254h-.129v-1.16H2.988zm3.188-3.597c-1.313 0-2.04-1.113-2.04-2.719 0-1.594.704-2.672 2.04-2.672 1.37 0 2.05 1.172 2.05 2.672 0 1.524-.703 2.719-2.05 2.719m7.972 1.043c1.476 0 2.554-.738 2.894-1.84l-1.125-.305c-.27.739-.914 1.114-1.77 1.114-1.277 0-2.156-.832-2.214-2.344h5.226v-.48c0-2.673-1.617-3.622-3.152-3.622-1.969 0-3.258 1.547-3.258 3.762 0 2.227 1.3 3.715 3.399 3.715m-2.215-4.36c.07-1.101.832-2.086 2.074-2.086 1.195 0 1.851.856 1.969 2.086zm9.835 4.36c1.418 0 2.578-.762 2.964-2.051l-1.113-.316c-.222.773-.879 1.324-1.851 1.324-1.442 0-2.11-1.254-2.11-2.684 0-1.441.668-2.707 2.11-2.707.96 0 1.605.528 1.816 1.278l1.113-.317c-.386-1.265-1.523-2.004-2.93-2.004-1.956 0-3.292 1.489-3.292 3.75 0 2.239 1.336 3.727 3.293 3.727m4.629-.153h1.171v-7.23h-1.171zm.585-8.414c.458 0 .82-.34.82-.773 0-.422-.362-.773-.82-.773-.433 0-.808.351-.808.773 0 .434.375.773.808.773m4.65 8.579c1.219 0 1.898-.633 2.144-1.149h.082v.984h1.149v-4.77c0-2.25-1.746-2.554-2.719-2.554-1.113 0-2.355.399-2.918 1.711l1.125.375c.223-.504.785-1.066 1.828-1.066 1.008 0 1.512.527 1.512 1.418v.047c0 .527-.562.492-1.852.656-1.335.164-2.812.469-2.812 2.121 0 1.43 1.09 2.227 2.46 2.227m.2-1.02c-.868 0-1.49-.398-1.49-1.148 0-.82.74-1.09 1.583-1.196.445-.058 1.723-.187 1.91-.422v1.008c0 .89-.715 1.758-2.004 1.758m6.386-8.777h-1.172v9.632h1.172zm2.036 9.632h1.172v-7.23h-1.172zm.586-8.414c.457 0 .82-.34.82-.773 0-.422-.363-.773-.82-.773-.434 0-.809.351-.809.773 0 .434.375.773.809.773m2.426 8.414h5.683v-1.078H44.88v-.07l3.937-5.156v-.926h-5.425v1.078h3.925v.07l-4.054 5.215zm9.542.165c1.218 0 1.898-.633 2.144-1.149h.082v.984h1.149v-4.77c0-2.25-1.746-2.554-2.72-2.554-1.112 0-2.355.399-2.917 1.711l1.125.375c.223-.504.785-1.066 1.828-1.066 1.008 0 1.512.527 1.512 1.418v.047c0 .527-.563.492-1.852.656-1.336.164-2.812.469-2.812 2.121 0 1.43 1.09 2.227 2.46 2.227m.199-1.02c-.867 0-1.488-.398-1.488-1.148 0-.82.738-1.09 1.582-1.196.445-.058 1.722-.187 1.91-.422v1.008c0 .89-.715 1.758-2.004 1.758m8.062-6.375h-1.488v-1.723h-1.16v1.723h-1.09v.996h1.09v4.453c0 1.184.738 1.875 1.98 1.875.305 0 .633-.047.868-.129l-.235-.984c-.199.035-.445.07-.597.07-.61 0-.856-.281-.856-.926v-4.359h1.488zm1.486 7.23h1.172v-7.23h-1.172zm.586-8.414c.457 0 .82-.34.82-.773 0-.422-.363-.773-.82-.773-.434 0-.809.351-.809.773 0 .434.375.773.809.773m5.566 8.567c1.98 0 3.305-1.488 3.305-3.727 0-2.261-1.324-3.75-3.305-3.75-1.957 0-3.293 1.489-3.293 3.75 0 2.239 1.336 3.727 3.293 3.727m0-1.043c-1.441 0-2.11-1.254-2.11-2.684 0-1.441.669-2.707 2.11-2.707 1.465 0 2.133 1.278 2.133 2.707 0 1.43-.668 2.684-2.133 2.684m6.176-3.445c0-1.231.773-1.934 1.816-1.934 1.008 0 1.63.656 1.63 1.77v4.5H79.5v-4.594c0-1.828-.984-2.73-2.45-2.73-.972 0-1.745.41-2.214 1.429v-1.336h-1.125v7.23h1.172zm10.383 4.335h1.172v-7.23h-1.172Zm.586-8.414c.457 0 .82-.34.82-.773 0-.422-.363-.773-.82-.773-.434 0-.809.351-.809.773 0 .434.375.773.809.773m3.794 4.079c0-1.231.773-1.934 1.816-1.934 1.008 0 1.629.656 1.629 1.77v4.5h1.172v-4.594c0-1.828-.985-2.73-2.45-2.73-.972 0-1.746.41-2.214 1.429v-1.336H88.47v7.23h1.172zm13.617 4.5c2.226 0 3.492-1.208 3.492-2.79 0-1.804-1.688-2.378-2.73-2.671l-.961-.258c-.704-.2-1.84-.551-1.84-1.559 0-.902.832-1.57 2.086-1.57 1.136 0 2.004.539 2.12 1.476h1.196c-.059-1.453-1.383-2.566-3.281-2.566-1.863 0-3.317 1.09-3.317 2.719 0 1.277.903 2.074 2.461 2.508l1.16.34c1.032.28 1.91.632 1.91 1.558 0 1.031-.995 1.723-2.296 1.723-1.137 0-2.145-.504-2.239-1.594h-1.26c.105 1.617 1.406 2.684 3.504 2.684m5.267 2.542h1.172v-3.82h.082c.246.399.727 1.266 2.11 1.266 1.804 0 3.058-1.442 3.058-3.75 0-2.285-1.265-3.727-3.07-3.727-1.406 0-1.852.867-2.098 1.254h-.129v-1.16h-1.125zm3.188-3.597c-1.313 0-2.04-1.113-2.04-2.719 0-1.594.704-2.672 2.04-2.672 1.37 0 2.05 1.172 2.05 2.672 0 1.524-.703 2.719-2.05 2.719m7.972 1.043c1.476 0 2.554-.738 2.894-1.84l-1.125-.305c-.27.739-.914 1.114-1.77 1.114-1.277 0-2.156-.832-2.214-2.344h5.226v-.48c0-2.673-1.617-3.622-3.152-3.622-1.969 0-3.258 1.547-3.258 3.762 0 2.227 1.3 3.715 3.399 3.715m-2.215-4.36c.07-1.101.832-2.086 2.074-2.086 1.195 0 1.851.856 1.969 2.086zm9.835 4.36c1.418 0 2.578-.762 2.964-2.051l-1.113-.316c-.222.773-.879 1.324-1.851 1.324-1.442 0-2.11-1.254-2.11-2.684 0-1.441.668-2.707 2.11-2.707.96 0 1.605.528 1.816 1.278l1.113-.317c-.386-1.265-1.523-2.004-2.93-2.004-1.956 0-3.292 1.489-3.292 3.75 0 2.239 1.336 3.727 3.293 3.727m4.629-.153h1.171v-7.23h-1.171zm.585-8.414c.457 0 .82-.34.82-.773 0-.422-.363-.773-.82-.773-.433 0-.808.351-.808.773 0 .434.375.773.808.773m4.65 8.579c1.219 0 1.898-.633 2.144-1.149h.082v.984h1.149v-4.77c0-2.25-1.746-2.554-2.719-2.554-1.113 0-2.355.399-2.918 1.711l1.125.375c.223-.504.785-1.066 1.828-1.066 1.008 0 1.512.527 1.512 1.418v.047c0 .527-.563.492-1.852.656-1.336.164-2.812.469-2.812 2.121 0 1.43 1.09 2.227 2.46 2.227m.2-1.02c-.868 0-1.49-.398-1.49-1.148 0-.82.74-1.09 1.583-1.196.445-.058 1.723-.187 1.91-.422v1.008c0 .89-.715 1.758-2.004 1.758m6.386-8.777h-1.172v9.632h1.172zm2.036 9.632h1.172v-7.23h-1.172zm.586-8.414c.457 0 .82-.34.82-.773 0-.422-.363-.773-.82-.773-.434 0-.809.351-.809.773 0 .434.375.773.809.773m2.426 8.414h5.683v-1.078h-4.066v-.07l3.937-5.156v-.926h-5.425v1.078h3.925v.07l-4.054 5.215zm9.542.165c1.218 0 1.898-.633 2.144-1.149h.082v.984h1.149v-4.77c0-2.25-1.746-2.554-2.72-2.554-1.112 0-2.355.399-2.917 1.711l1.125.375c.223-.504.785-1.066 1.828-1.066 1.008 0 1.512.527 1.512 1.418v.047c0 .527-.563.492-1.852.656-1.336.164-2.812.469-2.812 2.121 0 1.43 1.09 2.227 2.46 2.227m.199-1.02c-.867 0-1.488-.398-1.488-1.148 0-.82.738-1.09 1.582-1.196.445-.058 1.722-.187 1.91-.422v1.008c0 .89-.715 1.758-2.004 1.758m8.062-6.375h-1.488v-1.723h-1.16v1.723h-1.09v.996h1.09v4.453c0 1.184.738 1.875 1.98 1.875.305 0 .633-.047.868-.129l-.235-.984c-.199.035-.445.07-.597.07-.61 0-.856-.281-.856-.926v-4.359h1.488zm1.486 7.23h1.172v-7.23h-1.172zm.586-8.414c.457 0 .82-.34.82-.773 0-.422-.363-.773-.82-.773-.434 0-.809.351-.809.773 0 .434.375.773.809.773m5.563 8.567c1.98 0 3.305-1.488 3.305-3.727 0-2.261-1.324-3.75-3.305-3.75-1.957 0-3.293 1.489-3.293 3.75 0 2.239 1.336 3.727 3.293 3.727m0-1.043c-1.441 0-2.11-1.254-2.11-2.684 0-1.441.669-2.707 2.11-2.707 1.465 0 2.133 1.278 2.133 2.707 0 1.43-.668 2.684-2.133 2.684m6.176-3.445c0-1.231.773-1.934 1.816-1.934 1.008 0 1.63.656 1.63 1.77v4.5h1.171v-4.594c0-1.828-.984-2.73-2.45-2.73-.972 0-1.745.41-2.214 1.429v-1.336h-1.125v7.23h1.172zm10.518 4.335h1.242v-5.496c0-.468-.047-1.43-.094-2.672.75 1.348 1.113 1.993 1.559 2.684l3.492 5.484h1.453v-9.632h-1.23v5.906c0 .516.011 1.336.093 2.273a24 24 0 0 0-1.137-2.015l-3.925-6.164h-1.453zm11.87.165c1.22 0 1.899-.633 2.145-1.149h.082v.984h1.149v-4.77c0-2.25-1.747-2.554-2.72-2.554-1.112 0-2.355.399-2.917 1.711l1.125.375c.223-.504.785-1.066 1.828-1.066 1.008 0 1.512.527 1.512 1.418v.047c0 .527-.563.492-1.852.656-1.336.164-2.812.469-2.812 2.121 0 1.43 1.09 2.227 2.46 2.227m.2-1.02c-.867 0-1.488-.398-1.488-1.148 0-.82.738-1.09 1.582-1.196.445-.058 1.722-.187 1.91-.422v1.008c0 .89-.715 1.758-2.004 1.758m5.212.855h1.172v-4.558c0-1.149.761-1.746 1.617-1.746.808 0 1.406.539 1.406 1.347v4.957h1.172v-4.722c0-.914.598-1.582 1.57-1.582.774 0 1.453.422 1.453 1.465v4.84h1.172v-4.876c0-1.675-1.02-2.484-2.273-2.484-1.055 0-1.934.563-2.285 1.477-.258-.891-.891-1.477-1.84-1.477-.856 0-1.664.48-2.028 1.453v-1.324h-1.136zm14.654.153c1.477 0 2.555-.738 2.895-1.84l-1.125-.305c-.27.739-.915 1.114-1.77 1.114-1.277 0-2.156-.832-2.215-2.344h5.227v-.48c0-2.673-1.617-3.622-3.153-3.622-1.968 0-3.257 1.547-3.257 3.762 0 2.227 1.3 3.715 3.398 3.715m-2.215-4.36c.07-1.101.832-2.086 2.074-2.086 1.196 0 1.852.856 1.97 2.086zM32.136 266.39c1.699 0 2.87-1.031 2.87-2.883v-6.879h-1.23v6.879c0 1.172-.656 1.805-1.64 1.805-.996 0-1.653-.633-1.653-1.805v-.516h-1.23v.516c0 1.852 1.184 2.883 2.883 2.883m7.995.023c1.98 0 3.305-1.488 3.305-3.726 0-2.262-1.325-3.75-3.305-3.75-1.957 0-3.293 1.488-3.293 3.75 0 2.238 1.336 3.726 3.293 3.726m0-1.043c-1.441 0-2.11-1.254-2.11-2.683 0-1.442.669-2.707 2.11-2.707 1.465 0 2.133 1.277 2.133 2.707s-.668 2.683-2.133 2.683m6.176-3.445c0-1.23.773-1.934 1.816-1.934 1.008 0 1.629.657 1.629 1.77v4.5h1.172v-4.594c0-1.828-.984-2.73-2.45-2.73-.949 0-1.699.386-2.167 1.347v-3.656h-1.172v9.633h1.172zm7.834 0c0-1.23.773-1.934 1.816-1.934 1.008 0 1.629.657 1.629 1.77v4.5h1.172v-4.594c0-1.828-.985-2.73-2.45-2.73-.972 0-1.745.41-2.214 1.43v-1.337h-1.125v7.23h1.172zm13.245 4.336h1.418l3.504-9.633h-1.301l-1.992 5.707c-.2.598-.504 1.524-.914 2.93a52 52 0 0 0-.926-2.93l-2.04-5.707h-1.288zm8.66.152c1.477 0 2.555-.738 2.894-1.84l-1.125-.304c-.269.738-.914 1.113-1.769 1.113-1.277 0-2.156-.832-2.215-2.344h5.227v-.48c0-2.672-1.618-3.621-3.153-3.621-1.968 0-3.257 1.547-3.257 3.761 0 2.227 1.3 3.715 3.398 3.715m-2.215-4.36c.07-1.1.832-2.085 2.074-2.085 1.196 0 1.852.855 1.97 2.086zm6.894 4.208h1.172v-4.524c0-.984.761-1.687 1.804-1.687.305 0 .621.047.692.07v-1.172a9 9 0 0 0-.586-.023c-.856 0-1.606.48-1.875 1.219h-.082v-1.114h-1.125zm5.071 2.625c.129.058.445.129.855.129 1.02 0 1.723-.528 2.168-1.676l3.176-8.309h-1.277l-1.547 4.29a25 25 0 0 0-.563 1.851c-.164-.598-.328-1.219-.55-1.852l-1.535-4.289h-1.278l2.766 7.266-.211.61c-.363 1.03-.867 1.183-1.582.996l-.117-.036zm11.432-2.625h5.695v-1.09h-4.465v-8.543h-1.23zm10.292.152c1.98 0 3.304-1.488 3.304-3.726 0-2.262-1.324-3.75-3.304-3.75-1.957 0-3.293 1.488-3.293 3.75 0 2.238 1.336 3.726 3.293 3.726m0-1.043c-1.442 0-2.11-1.254-2.11-2.683 0-1.442.668-2.707 2.11-2.707 1.464 0 2.132 1.277 2.132 2.707s-.668 2.683-2.132 2.683m6.175-3.445c0-1.23.774-1.934 1.817-1.934 1.008 0 1.629.657 1.629 1.77v4.5h1.172v-4.594c0-1.828-.985-2.73-2.45-2.73-.972 0-1.746.41-2.215 1.43v-1.337h-1.125v7.23h1.172zm9.586 7.195c1.758 0 3.153-.797 3.153-2.672v-7.418h-1.137v1.16h-.106c-.246-.386-.714-1.253-2.109-1.253-1.805 0-3.082 1.441-3.082 3.68 0 2.261 1.324 3.527 3.059 3.527 1.394 0 1.851-.797 2.097-1.207h.117v1.441c0 1.195-.832 1.723-1.992 1.723-1.265 0-1.722-.645-2.027-1.067l-.95.61c.446.797 1.372 1.476 2.977 1.476m-.023-4.008c-1.36 0-2.074-1.043-2.074-2.53 0-1.442.691-2.602 2.074-2.602 1.324 0 2.027 1.078 2.027 2.601 0 1.582-.715 2.531-2.027 2.531m6.392-3.187c0-1.23.774-1.934 1.817-1.934 1.008 0 1.629.657 1.629 1.77v4.5h1.172v-4.594c0-1.828-.985-2.73-2.45-2.73-.972 0-1.746.41-2.214 1.43v-1.337h-1.125v7.23h1.171zm8.684 4.5c1.219 0 1.899-.633 2.145-1.148h.082v.984h1.148v-4.77c0-2.25-1.746-2.554-2.719-2.554-1.113 0-2.355.398-2.918 1.71l1.125.376c.223-.504.785-1.067 1.828-1.067 1.008 0 1.512.528 1.512 1.418v.047c0 .527-.562.492-1.851.656-1.336.164-2.813.47-2.813 2.121 0 1.43 1.09 2.227 2.461 2.227m.2-1.02c-.868 0-1.489-.398-1.489-1.148 0-.82.738-1.09 1.582-1.195.445-.059 1.723-.188 1.91-.422v1.008c0 .89-.715 1.757-2.004 1.757m5.214.856h1.172V261.7c0-1.148.762-1.746 1.617-1.746.809 0 1.406.54 1.406 1.348v4.957h1.172v-4.723c0-.914.598-1.582 1.57-1.582.774 0 1.454.422 1.454 1.465v4.84h1.172v-4.875c0-1.676-1.02-2.484-2.274-2.484-1.054 0-1.933.562-2.285 1.476-.258-.89-.89-1.476-1.84-1.476-.855 0-1.664.48-2.027 1.453v-1.325h-1.137zm14.654.152c1.477 0 2.555-.738 2.895-1.84l-1.125-.304c-.27.738-.914 1.113-1.77 1.113-1.277 0-2.156-.832-2.214-2.344h5.226v-.48c0-2.672-1.617-3.621-3.152-3.621-1.969 0-3.258 1.547-3.258 3.761 0 2.227 1.3 3.715 3.398 3.715m-2.214-4.36c.07-1.1.832-2.085 2.074-2.085 1.195 0 1.851.855 1.969 2.086zm13.772 4.208c2.941 0 4.606-1.828 4.606-4.84 0-2.988-1.665-4.793-4.477-4.793h-3.14v9.633zm-1.781-1.09v-7.465h1.816c2.238 0 3.375 1.395 3.375 3.715 0 2.344-1.137 3.75-3.492 3.75zm11.133 1.242c1.98 0 3.304-1.488 3.304-3.726 0-2.262-1.324-3.75-3.304-3.75-1.957 0-3.293 1.488-3.293 3.75 0 2.238 1.336 3.726 3.293 3.726m0-1.043c-1.442 0-2.11-1.254-2.11-2.683 0-1.442.668-2.707 2.11-2.707 1.464 0 2.132 1.277 2.132 2.707s-.668 2.683-2.132 2.683m8.05 1.043c1.477 0 2.555-.738 2.895-1.84l-1.125-.304c-.27.738-.914 1.113-1.77 1.113-1.277 0-2.156-.832-2.214-2.344h5.226v-.48c0-2.672-1.617-3.621-3.152-3.621-1.969 0-3.258 1.547-3.258 3.761 0 2.227 1.3 3.715 3.398 3.715m-2.214-4.36c.07-1.1.832-2.085 2.074-2.085 1.195 0 1.851.855 1.969 2.086zM61.57 328.306h3.036v8.555h1.23v-8.555h3.023v-1.078H61.57zm7.667 4.219c0-1.23.774-1.934 1.817-1.934 1.008 0 1.629.656 1.629 1.77v4.5h1.172v-4.594c0-1.828-.985-2.73-2.45-2.73-.949 0-1.699.386-2.168 1.347v-3.656h-1.172v9.633h1.172zm7.471 4.488c1.477 0 2.555-.738 2.895-1.84l-1.125-.305c-.27.739-.914 1.114-1.77 1.114-1.277 0-2.156-.832-2.215-2.344h5.227v-.48c0-2.672-1.617-3.622-3.153-3.622-1.968 0-3.257 1.547-3.257 3.762 0 2.227 1.3 3.715 3.398 3.715m-2.215-4.36c.07-1.101.832-2.085 2.074-2.085 1.196 0 1.852.855 1.97 2.085zm7.149 4.36c1.699 0 2.847-.926 2.847-2.192 0-.984-.61-1.64-1.922-1.957l-1.09-.257c-.855-.2-1.218-.493-1.218-1.032 0-.597.644-1.043 1.5-1.043.937 0 1.347.504 1.547 1.02l1.054-.27c-.328-1.02-1.113-1.746-2.601-1.746-1.535 0-2.684.868-2.684 2.11 0 1.02.633 1.664 1.946 1.968l1.207.293c.703.164 1.054.493 1.054.997 0 .597-.644 1.09-1.652 1.09-.867 0-1.453-.352-1.664-1.15l-1.102.259c.258 1.254 1.29 1.91 2.778 1.91m2.534-.152h1.172v-7.23h-1.172zm.586-8.415c.457 0 .82-.34.82-.773 0-.422-.363-.773-.82-.773-.434 0-.809.351-.809.773 0 .434.375.773.809.773m4.166 8.567c1.699 0 2.847-.926 2.847-2.192 0-.984-.609-1.64-1.921-1.957l-1.09-.257c-.856-.2-1.219-.493-1.219-1.032 0-.597.645-1.043 1.5-1.043.937 0 1.348.504 1.547 1.02l1.055-.27c-.329-1.02-1.114-1.746-2.602-1.746-1.535 0-2.684.868-2.684 2.11 0 1.02.633 1.664 1.946 1.968l1.207.293c.703.164 1.054.493 1.054.997 0 .597-.644 1.09-1.652 1.09-.867 0-1.453-.352-1.664-1.15l-1.102.259c.258 1.254 1.29 1.91 2.778 1.91m7.652 0c1.7 0 2.848-.926 2.848-2.192 0-.984-.61-1.64-1.922-1.957l-1.09-.257c-.855-.2-1.219-.493-1.219-1.032 0-.597.645-1.043 1.5-1.043.938 0 1.348.504 1.547 1.02l1.055-.27c-.328-1.02-1.113-1.746-2.602-1.746-1.535 0-2.683.868-2.683 2.11 0 1.02.633 1.664 1.945 1.968l1.207.293c.703.164 1.055.493 1.055.997 0 .597-.645 1.09-1.653 1.09-.867 0-1.453-.352-1.664-1.15l-1.101.259c.258 1.254 1.289 1.91 2.777 1.91m4.986-.059c.961 0 1.747-.386 2.215-1.441v1.348h1.125v-7.231h-1.172v4.336c0 1.23-.773 1.934-1.816 1.934-1.008 0-1.629-.668-1.629-1.77v-4.5h-1.172v4.594c0 1.828.996 2.73 2.45 2.73m3.147 2.614h1.172v-3.82h.082c.246.398.726 1.265 2.11 1.265 1.804 0 3.058-1.442 3.058-3.75 0-2.285-1.266-3.727-3.07-3.727-1.407 0-1.852.867-2.098 1.254h-.13v-1.16h-1.124zm3.187-3.598c-1.312 0-2.039-1.113-2.039-2.719 0-1.594.704-2.672 2.04-2.672 1.37 0 2.05 1.172 2.05 2.672 0 1.524-.703 2.719-2.05 2.719m5.655 1.043c1.476 0 2.554-.738 2.894-1.84l-1.125-.305c-.27.739-.914 1.114-1.77 1.114-1.277 0-2.156-.832-2.214-2.344h5.226v-.48c0-2.672-1.617-3.622-3.152-3.622-1.969 0-3.258 1.547-3.258 3.762 0 2.227 1.301 3.715 3.399 3.715m-2.215-4.36c.07-1.101.832-2.085 2.074-2.085 1.195 0 1.852.855 1.969 2.085zm4.684 4.208h1.172v-4.524c0-.984.762-1.687 1.805-1.687.305 0 .621.046.691.07v-1.172a9 9 0 0 0-.585-.023c-.856 0-1.606.48-1.875 1.218h-.082v-1.113h-1.125zm5.81 0h1.219l2.765-7.231h-1.277l-1.547 4.29c-.222.62-.387 1.253-.55 1.862a24 24 0 0 0-.563-1.863l-1.535-4.289h-1.278zm3.223 0h1.172v-7.231h-1.172zm.586-8.415c.457 0 .82-.34.82-.773 0-.422-.363-.773-.82-.773-.434 0-.809.351-.809.773 0 .434.375.773.809.773m4.166 8.567c1.699 0 2.847-.926 2.847-2.192 0-.984-.61-1.64-1.922-1.957l-1.09-.257c-.855-.2-1.218-.493-1.218-1.032 0-.597.644-1.043 1.5-1.043.937 0 1.347.504 1.547 1.02l1.054-.27c-.328-1.02-1.113-1.746-2.601-1.746-1.535 0-2.684.867-2.684 2.11 0 1.02.633 1.664 1.946 1.968l1.207.293c.703.164 1.054.493 1.054.996 0 .598-.644 1.09-1.652 1.09-.867 0-1.453-.351-1.664-1.148l-1.102.258c.258 1.254 1.29 1.91 2.778 1.91m5.58 0c1.477 0 2.555-.738 2.895-1.84l-1.125-.305c-.27.739-.914 1.114-1.77 1.114-1.277 0-2.156-.832-2.214-2.344h5.226v-.48c0-2.672-1.617-3.622-3.152-3.622-1.969 0-3.258 1.547-3.258 3.762 0 2.227 1.301 3.715 3.399 3.715m-2.214-4.36c.07-1.101.832-2.085 2.074-2.085 1.195 0 1.852.855 1.969 2.085zm7.406 4.36c1.371 0 1.852-.867 2.098-1.266h.129v1.114h1.125v-9.633h-1.16v3.562h-.094c-.246-.387-.692-1.254-2.098-1.254-1.805 0-3.07 1.442-3.07 3.727 0 2.308 1.254 3.75 3.07 3.75m.164-1.043c-1.347 0-2.05-1.195-2.05-2.719 0-1.5.68-2.672 2.05-2.672 1.336 0 2.04 1.078 2.04 2.672 0 1.606-.727 2.719-2.04 2.719m8.936 1.043c1.804 0 3.058-1.442 3.058-3.75 0-2.285-1.265-3.727-3.07-3.727-1.406 0-1.852.867-2.098 1.254h-.082v-3.562h-1.172v9.633h1.125v-1.114h.13c.245.399.726 1.266 2.109 1.266m-.176-1.043c-1.313 0-2.04-1.113-2.04-2.719 0-1.594.704-2.672 2.04-2.672 1.371 0 2.05 1.172 2.05 2.672 0 1.524-.702 2.719-2.05 2.719m2.311 3.516c.13.058.446.128.856.128 1.02 0 1.723-.527 2.168-1.675l3.176-8.309h-1.278l-1.547 4.29a25 25 0 0 0-.562 1.85c-.164-.597-.328-1.218-.55-1.85l-1.536-4.29h-1.277l2.765 7.266-.21.609c-.364 1.031-.868 1.184-1.583.996l-.117-.035zm6.22-2.543c.48 0 .88-.387.88-.868a.88.88 0 0 0-.88-.879.88.88 0 0 0-.879.88c0 .48.399.867.88.867m0-5.227c.48 0 .88-.398.88-.879a.875.875 0 0 0-.88-.867.875.875 0 0 0-.879.867c0 .48.399.879.88.879m-270.419 16.594h-1.664v-.703c0-.704.305-1.079 1.031-1.079.317 0 .504.07.622.106l.328-.996a2.9 2.9 0 0 0-1.09-.188c-1.055 0-2.063.645-2.063 1.899v.96h-1.418v.997h1.418v6.234h1.172v-6.234h1.664zm3.334-2.86h-1.078l-3.105 11.543h1.078zm.094 10.09h1.172v-5.508c0-.738-.024-1.875-.047-2.8.387 1.136.762 2.261.973 2.8l2.191 5.508h1.066l2.157-5.508c.21-.562.62-1.722.96-2.812-.023.996-.035 2.11-.035 2.812v5.508h1.207v-9.633h-1.757l-2.344 6.07c-.188.493-.48 1.442-.703 2.204a42 42 0 0 0-.715-2.203l-2.38-6.07h-1.745zm10.435.164c1.22 0 1.899-.633 2.145-1.148h.082v.984h1.148v-4.77c0-2.25-1.746-2.554-2.718-2.554-1.114 0-2.356.398-2.918 1.71l1.125.376c.222-.504.785-1.066 1.828-1.066 1.008 0 1.512.527 1.512 1.417v.047c0 .528-.563.493-1.852.657-1.336.164-2.812.468-2.812 2.12 0 1.43 1.09 2.227 2.46 2.227m.2-1.02c-.867 0-1.489-.398-1.489-1.148 0-.82.739-1.09 1.582-1.195.446-.059 1.723-.188 1.91-.422v1.008c0 .89-.714 1.758-2.003 1.758m3.088.856h1.171v-4.523c0-.985.762-1.688 1.805-1.688.305 0 .621.047.692.07v-1.171a9 9 0 0 0-.586-.024c-.856 0-1.606.48-1.875 1.219h-.082v-1.113h-1.125zm3.588 2.625c.13.059.446.13.856.13 1.02 0 1.723-.528 2.168-1.677l3.176-8.308h-1.278l-1.547 4.289a25 25 0 0 0-.562 1.851c-.164-.597-.328-1.218-.55-1.851l-1.536-4.29h-1.277l2.765 7.266-.21.61c-.364 1.031-.868 1.183-1.583.996l-.117-.035zm11.25-2.625c2.942 0 4.606-1.828 4.606-4.84 0-2.988-1.664-4.793-4.477-4.793h-3.14v9.633zm-1.78-1.09v-7.464h1.816c2.238 0 3.375 1.394 3.375 3.714 0 2.344-1.137 3.75-3.493 3.75zm8.402 1.243c1.98 0 3.304-1.489 3.304-3.727 0-2.262-1.324-3.75-3.304-3.75-1.957 0-3.293 1.488-3.293 3.75 0 2.238 1.336 3.727 3.293 3.727m0-1.043c-1.442 0-2.11-1.254-2.11-2.684 0-1.441.668-2.707 2.11-2.707 1.464 0 2.132 1.277 2.132 2.707s-.668 2.684-2.132 2.684m5.78 1.043c1.476 0 2.555-.739 2.894-1.84l-1.125-.305c-.27.738-.914 1.113-1.77 1.113-1.277 0-2.155-.832-2.214-2.343h5.227v-.48c0-2.673-1.618-3.622-3.153-3.622-1.969 0-3.258 1.547-3.258 3.762 0 2.226 1.301 3.715 3.399 3.715m-2.215-4.36c.07-1.101.832-2.086 2.074-2.086 1.196 0 1.852.856 1.969 2.086zm6.668 4.207h1.3l.938-2.695h3.973l.96 2.695h1.29l-3.54-9.633h-1.429zm2.613-3.762.68-1.957c.2-.597.504-1.511.914-2.941.398 1.406.691 2.297.914 2.941l.703 1.957zm7.316 3.915c1.37 0 1.851-.868 2.097-1.266h.13v1.113h1.124v-9.633h-1.16v3.563h-.094c-.246-.387-.691-1.254-2.097-1.254-1.805 0-3.07 1.441-3.07 3.727 0 2.308 1.253 3.75 3.07 3.75m.164-1.043c-1.348 0-2.051-1.196-2.051-2.72 0-1.5.68-2.671 2.05-2.671 1.337 0 2.04 1.078 2.04 2.672 0 1.605-.727 2.719-2.04 2.719m5.053.89h1.22l2.765-7.23h-1.278l-1.546 4.289c-.223.62-.387 1.254-.551 1.863-.164-.61-.34-1.242-.563-1.863l-1.535-4.29h-1.277zm3.223 0h1.172v-7.23h-1.172zm.586-8.414c.457 0 .82-.34.82-.773 0-.422-.363-.774-.82-.774-.434 0-.809.352-.809.774 0 .433.375.773.809.773m4.166 8.567c1.7 0 2.848-.926 2.848-2.192 0-.984-.61-1.64-1.922-1.957l-1.09-.258c-.855-.199-1.219-.492-1.219-1.031 0-.598.645-1.043 1.5-1.043.938 0 1.348.504 1.547 1.02l1.055-.27c-.328-1.02-1.113-1.746-2.602-1.746-1.535 0-2.683.867-2.683 2.11 0 1.019.632 1.663 1.945 1.968l1.207.293c.703.164 1.055.492 1.055.996 0 .598-.645 1.09-1.653 1.09-.867 0-1.453-.352-1.664-1.148l-1.101.257c.258 1.254 1.289 1.91 2.777 1.91m5.584 0c1.477 0 2.555-.739 2.895-1.84l-1.125-.305c-.27.738-.915 1.113-1.77 1.113-1.277 0-2.156-.832-2.215-2.343h5.227v-.48c0-2.673-1.617-3.622-3.153-3.622-1.968 0-3.257 1.547-3.257 3.762 0 2.226 1.3 3.715 3.398 3.715m-2.215-4.36c.07-1.101.832-2.086 2.074-2.086 1.196 0 1.852.856 1.97 2.086zm4.685 4.207h1.172v-4.523c0-.985.761-1.688 1.804-1.688.305 0 .621.047.692.07v-1.171a9 9 0 0 0-.586-.024c-.856 0-1.606.48-1.875 1.219h-.082v-1.113h-1.125zm6.366 0h1.242v-5.496c0-.469-.047-1.43-.094-2.672.75 1.348 1.114 1.992 1.559 2.684l3.492 5.484h1.453v-9.633h-1.23v5.907c0 .515.012 1.336.094 2.273a24 24 0 0 0-1.137-2.016l-3.926-6.164h-1.453zm9.018.164c1.218 0 1.898-.633 2.144-1.148h.082v.984h1.149v-4.77c0-2.25-1.747-2.554-2.72-2.554-1.112 0-2.355.398-2.917 1.71l1.125.376c.222-.504.785-1.066 1.828-1.066 1.008 0 1.512.527 1.512 1.417v.047c0 .528-.563.493-1.852.657-1.336.164-2.812.468-2.812 2.12 0 1.43 1.09 2.227 2.46 2.227m.199-1.02c-.867 0-1.489-.398-1.489-1.148 0-.82.739-1.09 1.583-1.195.445-.059 1.722-.188 1.91-.422v1.008c0 .89-.715 1.758-2.004 1.758m3.088.856h1.172v-4.558c0-1.149.761-1.746 1.617-1.746.808 0 1.406.539 1.406 1.347v4.957h1.172v-4.722c0-.915.597-1.582 1.57-1.582.774 0 1.453.421 1.453 1.464v4.84h1.172v-4.875c0-1.676-1.02-2.484-2.273-2.484-1.055 0-1.934.562-2.285 1.476-.258-.89-.891-1.476-1.84-1.476-.856 0-1.664.48-2.028 1.453v-1.324h-1.136zm11.338.153c1.476 0 2.554-.739 2.894-1.84l-1.125-.305c-.27.738-.914 1.113-1.77 1.113-1.277 0-2.156-.832-2.214-2.343H.656v-.48c0-2.673-1.617-3.622-3.152-3.622-1.969 0-3.258 1.547-3.258 3.762 0 2.226 1.3 3.715 3.399 3.715m-2.215-4.36c.07-1.101.832-2.086 2.074-2.086 1.195 0 1.851.856 1.969 2.086zm4.368 6.528h.89l1.008-3.668H.36Zm8.182-2.32h1.172v-4.56c0-1.148.762-1.745 1.618-1.745.808 0 1.406.539 1.406 1.347v4.957h1.172v-4.722c0-.915.597-1.582 1.57-1.582.773 0 1.453.421 1.453 1.464v4.84h1.172v-4.875c0-1.676-1.02-2.484-2.273-2.484-1.055 0-1.934.562-2.286 1.476-.257-.89-.89-1.476-1.84-1.476-.855 0-1.664.48-2.027 1.453v-1.324H7.981Zm11.749-10.09H18.65l-3.105 11.542h1.078zm1.875 10.218c1.699 0 2.87-1.031 2.87-2.883v-6.879h-1.23v6.88c0 1.171-.656 1.804-1.64 1.804-.997 0-1.653-.633-1.653-1.805v-.515h-1.23v.515c0 1.852 1.183 2.883 2.883 2.883m5.836.024c1.98 0 3.304-1.489 3.304-3.727 0-2.262-1.324-3.75-3.304-3.75-1.958 0-3.293 1.488-3.293 3.75 0 2.238 1.335 3.727 3.293 3.727m0-1.043c-1.442 0-2.11-1.254-2.11-2.684 0-1.441.668-2.707 2.11-2.707 1.464 0 2.132 1.277 2.132 2.707s-.668 2.684-2.132 2.684m3.905-3.446c0-1.23.773-1.933 1.816-1.933 1.008 0 1.63.656 1.63 1.77v4.5h1.171v-4.595c0-1.828-.984-2.73-2.45-2.73-.948 0-1.698.387-2.167 1.348v-3.657h-1.172v9.633h1.172zm5.595 0c0-1.23.774-1.933 1.817-1.933 1.008 0 1.629.656 1.629 1.77v4.5h1.172v-4.595c0-1.828-.985-2.73-2.45-2.73-.972 0-1.746.41-2.214 1.43v-1.336h-1.125v7.23h1.171zm10.231 4.336c2.941 0 4.605-1.828 4.605-4.84 0-2.988-1.664-4.793-4.476-4.793h-3.14v9.633zm-1.781-1.09v-7.465h1.816c2.238 0 3.375 1.395 3.375 3.715 0 2.344-1.137 3.75-3.492 3.75zm8.4 1.243c1.98 0 3.304-1.489 3.304-3.727 0-2.262-1.324-3.75-3.305-3.75-1.957 0-3.293 1.488-3.293 3.75 0 2.238 1.336 3.727 3.293 3.727m0-1.043c-1.442 0-2.11-1.254-2.11-2.684 0-1.441.668-2.707 2.11-2.707 1.464 0 2.132 1.277 2.132 2.707s-.668 2.684-2.133 2.684m5.78 1.043c1.476 0 2.554-.739 2.894-1.84l-1.125-.305c-.27.738-.914 1.113-1.77 1.113-1.277 0-2.156-.832-2.214-2.343h5.226v-.481c0-2.672-1.617-3.621-3.152-3.621-1.969 0-3.258 1.547-3.258 3.762 0 2.226 1.3 3.715 3.398 3.715m-2.215-4.36c.07-1.101.832-2.086 2.074-2.086 1.195 0 1.851.856 1.969 2.086zm11.39 4.336c1.98 0 3.551-1.207 3.89-3.164h-1.23c-.27 1.313-1.394 2.027-2.66 2.027-1.722 0-3.082-1.336-3.082-3.808 0-2.473 1.348-3.809 3.082-3.809 1.254 0 2.39.703 2.66 2.016h1.23c-.339-1.98-1.933-3.164-3.89-3.164-2.472 0-4.277 1.898-4.277 4.957 0 3.058 1.805 4.945 4.277 4.945m5.813.023c1.98 0 3.304-1.488 3.304-3.726 0-2.262-1.324-3.75-3.304-3.75-1.957 0-3.293 1.488-3.293 3.75 0 2.238 1.336 3.726 3.293 3.726m0-1.042c-1.442 0-2.11-1.254-2.11-2.684 0-1.441.668-2.707 2.11-2.707 1.465 0 2.132 1.277 2.132 2.707s-.667 2.684-2.132 2.684m8.1-3.762h-4.23v1.078h4.23zm.091 4.652h1.3l.938-2.695h3.973l.961 2.695h1.289l-3.539-9.633h-1.43zm2.613-3.762.68-1.957c.2-.597.504-1.511.914-2.941.399 1.406.692 2.297.914 2.941l.703 1.957zm7.316 3.914c1.37 0 1.851-.867 2.097-1.265h.13v1.113h1.124v-9.633h-1.16v3.563h-.094c-.246-.387-.691-1.254-2.097-1.254-1.805 0-3.07 1.441-3.07 3.726 0 2.31 1.253 3.75 3.07 3.75m.164-1.042c-1.348 0-2.05-1.196-2.05-2.72 0-1.5.679-2.671 2.05-2.671 1.336 0 2.039 1.078 2.039 2.672 0 1.605-.727 2.719-2.04 2.719m5.056.89h1.22l2.765-7.23h-1.277l-1.547 4.289c-.223.62-.387 1.254-.551 1.863-.164-.61-.34-1.242-.563-1.863l-1.535-4.29h-1.277zm3.22 0h1.172v-7.23h-1.172zm.586-8.414c.457 0 .82-.34.82-.773 0-.422-.363-.774-.82-.774-.433 0-.808.352-.808.774 0 .433.375.773.808.773m4.17 8.566c1.698 0 2.847-.925 2.847-2.19 0-.985-.61-1.642-1.922-1.958l-1.09-.258c-.855-.199-1.219-.492-1.219-1.031 0-.598.645-1.043 1.5-1.043.938 0 1.348.504 1.547 1.02l1.055-.27c-.328-1.02-1.113-1.746-2.602-1.746-1.535 0-2.683.867-2.683 2.11 0 1.019.633 1.663 1.945 1.968l1.207.293c.703.164 1.055.492 1.055.996 0 .598-.645 1.09-1.653 1.09-.867 0-1.453-.352-1.664-1.148l-1.101.257c.258 1.254 1.289 1.91 2.777 1.91m5.58 0c1.477 0 2.555-.738 2.895-1.84l-1.125-.304c-.27.738-.914 1.113-1.77 1.113-1.277 0-2.156-.832-2.215-2.344h5.227v-.48c0-2.672-1.617-3.621-3.152-3.621-1.97 0-3.258 1.547-3.258 3.762 0 2.226 1.3 3.714 3.398 3.714m-2.215-4.359c.07-1.101.832-2.086 2.075-2.086 1.195 0 1.851.856 1.968 2.086zm4.685 4.207h1.172v-4.523c0-.985.761-1.688 1.804-1.688.305 0 .622.047.692.07v-1.171a9 9 0 0 0-.586-.024c-.856 0-1.606.48-1.875 1.219h-.082v-1.113h-1.125zm6.366 0h1.242v-5.496c0-.469-.047-1.43-.093-2.672.75 1.348 1.113 1.992 1.558 2.684l3.492 5.484h1.453v-9.633h-1.23v5.907c0 .515.012 1.336.094 2.273a24 24 0 0 0-1.137-2.016l-3.926-6.164h-1.453zm9.018.164c1.218 0 1.898-.633 2.144-1.148h.082v.984h1.149v-4.77c0-2.25-1.746-2.554-2.72-2.554-1.112 0-2.355.398-2.917 1.71l1.125.376c.223-.504.785-1.067 1.828-1.067 1.008 0 1.512.528 1.512 1.418v.047c0 .528-.563.493-1.852.657-1.336.164-2.812.468-2.812 2.12 0 1.43 1.09 2.227 2.46 2.227m.199-1.02c-.867 0-1.488-.398-1.488-1.148 0-.82.738-1.09 1.582-1.195.445-.059 1.722-.188 1.91-.422v1.008c0 .89-.715 1.758-2.004 1.758m3.088.856h1.172v-4.558c0-1.149.761-1.747 1.617-1.747.808 0 1.406.54 1.406 1.348v4.957h1.172v-4.723c0-.914.598-1.582 1.57-1.582.774 0 1.453.422 1.453 1.465v4.84h1.172v-4.875c0-1.676-1.02-2.484-2.273-2.484-1.055 0-1.934.562-2.285 1.476-.258-.89-.89-1.476-1.84-1.476-.856 0-1.664.48-2.028 1.453v-1.324h-1.136zm11.338.152c1.476 0 2.554-.738 2.894-1.84l-1.125-.304c-.27.738-.914 1.113-1.77 1.113-1.277 0-2.156-.832-2.214-2.344h5.226v-.48c0-2.672-1.617-3.621-3.152-3.621-1.969 0-3.258 1.547-3.258 3.762 0 2.226 1.301 3.714 3.399 3.714m-2.215-4.359c.07-1.101.832-2.086 2.074-2.086 1.195 0 1.852.856 1.969 2.086zm12.035 4.371c1.219 0 1.898-.633 2.145-1.148h.082v.984h1.148v-4.77c0-2.25-1.746-2.554-2.719-2.554-1.113 0-2.355.398-2.918 1.71l1.125.376c.223-.504.785-1.067 1.828-1.067 1.008 0 1.512.528 1.512 1.418v.047c0 .528-.562.493-1.851.657-1.336.164-2.813.468-2.813 2.12 0 1.43 1.09 2.227 2.46 2.227m.2-1.02c-.868 0-1.49-.398-1.49-1.148 0-.82.74-1.09 1.583-1.195.445-.059 1.723-.188 1.91-.422v1.008c0 .89-.715 1.758-2.004 1.758m4.259-3.48c0-1.23.773-1.933 1.816-1.933 1.008 0 1.63.656 1.63 1.77v4.5h1.171v-4.595c0-1.828-.984-2.73-2.45-2.73-.972 0-1.745.41-2.214 1.43v-1.336h-1.125v7.23h1.172zm7.14 4.488c1.37 0 1.851-.867 2.097-1.265h.13v1.113h1.124v-9.633h-1.16v3.563h-.094c-.246-.387-.691-1.254-2.097-1.254-1.805 0-3.07 1.441-3.07 3.726 0 2.31 1.253 3.75 3.07 3.75m.164-1.042c-1.348 0-2.051-1.196-2.051-2.72 0-1.5.68-2.671 2.05-2.671 1.337 0 2.04 1.078 2.04 2.672 0 1.605-.727 2.719-2.04 2.719m14.261-6.34h-1.664v-.703c0-.704.305-1.079 1.032-1.079.316 0 .503.07.62.106l.329-.996a2.9 2.9 0 0 0-1.09-.188c-1.055 0-2.063.645-2.063 1.899v.96h-1.418v.997h1.418v6.234h1.172v-6.234h1.664zm3.329-2.86h-1.079l-3.105 11.543H180zm1.869 10.219c1.699 0 2.87-1.031 2.87-2.883v-6.879h-1.23v6.88c0 1.171-.656 1.804-1.64 1.804-.996 0-1.653-.633-1.653-1.805v-.515h-1.23v.515c0 1.852 1.183 2.883 2.883 2.883m5.836.023c1.98 0 3.304-1.488 3.304-3.726 0-2.262-1.324-3.75-3.304-3.75-1.957 0-3.293 1.488-3.293 3.75 0 2.238 1.336 3.726 3.293 3.726m0-1.043c-1.442 0-2.11-1.253-2.11-2.683 0-1.442.668-2.707 2.11-2.707 1.464 0 2.132 1.277 2.132 2.707s-.668 2.683-2.132 2.683m3.905-3.445c0-1.23.773-1.933 1.816-1.933 1.008 0 1.63.656 1.63 1.77v4.5h1.171v-4.595c0-1.828-.984-2.73-2.45-2.73-.948 0-1.698.387-2.167 1.348v-3.657h-1.172v9.633h1.172zm5.599 0c0-1.23.773-1.933 1.816-1.933 1.008 0 1.629.656 1.629 1.77v4.5h1.172v-4.595c0-1.828-.985-2.73-2.45-2.73-.972 0-1.746.41-2.214 1.43v-1.336h-1.125v7.23h1.172zm10.233 4.336c2.941 0 4.605-1.828 4.605-4.84 0-2.988-1.664-4.793-4.476-4.793h-3.14v9.633zm-1.781-1.09v-7.465h1.816c2.238 0 3.375 1.395 3.375 3.715 0 2.344-1.137 3.75-3.492 3.75zm8.4 1.242c1.98 0 3.304-1.488 3.304-3.726 0-2.262-1.324-3.75-3.305-3.75-1.957 0-3.293 1.488-3.293 3.75 0 2.238 1.336 3.726 3.293 3.726m0-1.043c-1.442 0-2.11-1.253-2.11-2.683 0-1.442.668-2.707 2.11-2.707 1.464 0 2.132 1.277 2.132 2.707s-.668 2.683-2.133 2.683m5.78 1.043c1.476 0 2.554-.738 2.894-1.84l-1.125-.304c-.27.738-.914 1.113-1.77 1.113-1.277 0-2.156-.832-2.215-2.344h5.227v-.48c0-2.672-1.617-3.621-3.152-3.621-1.969 0-3.258 1.547-3.258 3.762 0 2.226 1.3 3.714 3.398 3.714m-2.216-4.359c.07-1.102.833-2.086 2.075-2.086 1.195 0 1.851.856 1.968 2.086zm10.29 4.36c1.98 0 3.304-1.489 3.304-3.727 0-2.262-1.324-3.75-3.304-3.75-1.957 0-3.293 1.488-3.293 3.75 0 2.238 1.336 3.726 3.293 3.726m0-1.044c-1.442 0-2.11-1.253-2.11-2.683 0-1.442.668-2.707 2.11-2.707 1.464 0 2.132 1.277 2.132 2.707s-.668 2.683-2.132 2.683m5.58-6.34h-1.488v-1.722h-1.16v1.723h-1.09v.996h1.09v4.453c0 1.183.738 1.875 1.98 1.875.305 0 .633-.047.868-.13l-.235-.983c-.199.035-.445.07-.597.07-.61 0-.856-.281-.856-.926v-4.36h1.489zm1.422 2.895c0-1.23.773-1.933 1.816-1.933 1.008 0 1.629.656 1.629 1.77v4.5h1.172v-4.595c0-1.828-.985-2.73-2.45-2.73-.949 0-1.699.387-2.167 1.348v-3.657h-1.172v9.633h1.172zm7.473 4.488c1.477 0 2.555-.738 2.895-1.84l-1.125-.304c-.27.738-.914 1.113-1.77 1.113-1.277 0-2.156-.832-2.215-2.344h5.227v-.48c0-2.672-1.617-3.621-3.152-3.621-1.97 0-3.258 1.547-3.258 3.762 0 2.226 1.3 3.714 3.398 3.714m-2.215-4.359c.07-1.102.832-2.086 2.075-2.086 1.195 0 1.851.856 1.968 2.086zm4.685 4.207h1.172v-4.523c0-.985.761-1.688 1.804-1.688.305 0 .622.047.692.07v-1.171a9 9 0 0 0-.586-.024c-.856 0-1.606.48-1.875 1.219h-.082v-1.113h-1.125zm-359.67 12.214c1.981 0 3.552-1.207 3.892-3.164h-1.23c-.27 1.312-1.395 2.027-2.661 2.027-1.723 0-3.082-1.336-3.082-3.808 0-2.473 1.348-3.809 3.082-3.809 1.254 0 2.39.703 2.66 2.016h1.23c-.34-1.98-1.933-3.164-3.89-3.164-2.473 0-4.277 1.898-4.277 4.957 0 3.058 1.804 4.945 4.277 4.945m5.813.023c1.98 0 3.305-1.488 3.305-3.726 0-2.262-1.324-3.75-3.305-3.75-1.957 0-3.293 1.488-3.293 3.75 0 2.238 1.336 3.726 3.293 3.726m0-1.043c-1.441 0-2.109-1.254-2.109-2.683 0-1.442.668-2.707 2.11-2.707 1.464 0 2.132 1.277 2.132 2.707s-.668 2.683-2.133 2.683m8.101-3.761h-4.23v1.078h4.23zm.09 4.652h1.302l.937-2.695h3.973l.96 2.695h1.29l-3.54-9.633h-1.429zm2.614-3.762.68-1.957c.199-.597.504-1.511.914-2.941.398 1.406.691 2.297.914 2.941l.703 1.957zm7.316 3.914c1.37 0 1.851-.867 2.097-1.265h.13v1.113h1.124v-9.633h-1.16v3.563h-.094c-.246-.387-.691-1.254-2.097-1.254-1.805 0-3.07 1.441-3.07 3.726 0 2.309 1.253 3.75 3.07 3.75m.164-1.043c-1.348 0-2.051-1.195-2.051-2.718 0-1.5.68-2.672 2.05-2.672 1.337 0 2.04 1.078 2.04 2.672 0 1.605-.727 2.718-2.04 2.718m5.053.891h1.22l2.765-7.23h-1.278l-1.547 4.289c-.222.62-.386 1.254-.55 1.863-.164-.61-.34-1.242-.563-1.863l-1.535-4.29h-1.277zm3.223 0h1.172v-7.23h-1.172zm.586-8.414c.457 0 .82-.34.82-.773 0-.422-.363-.774-.82-.774-.434 0-.809.352-.809.774 0 .433.375.773.809.773m4.166 8.566c1.7 0 2.848-.925 2.848-2.191 0-.984-.61-1.64-1.922-1.957l-1.09-.258c-.856-.2-1.219-.492-1.219-1.031 0-.598.645-1.043 1.5-1.043.938 0 1.348.504 1.547 1.02l1.055-.27c-.328-1.02-1.114-1.746-2.602-1.746-1.535 0-2.683.867-2.683 2.11 0 1.019.632 1.663 1.945 1.968l1.207.293c.703.164 1.055.492 1.055.996 0 .598-.645 1.09-1.653 1.09-.867 0-1.453-.352-1.664-1.149l-1.101.258c.257 1.254 1.289 1.91 2.777 1.91m5.584 0c1.476 0 2.555-.738 2.894-1.84l-1.125-.304c-.27.738-.914 1.113-1.77 1.113-1.276 0-2.155-.832-2.214-2.344h5.227v-.48c0-2.672-1.618-3.621-3.153-3.621-1.968 0-3.258 1.547-3.258 3.762 0 2.226 1.301 3.714 3.399 3.714m-2.215-4.359c.07-1.102.832-2.086 2.074-2.086 1.196 0 1.852.856 1.969 2.086zm4.685 4.207h1.172v-4.523c0-.985.761-1.688 1.804-1.688.305 0 .621.047.692.07v-1.171a9 9 0 0 0-.586-.024c-.856 0-1.606.48-1.875 1.219h-.082v-1.113h-1.125zm6.366 0h1.242v-5.496c0-.469-.047-1.43-.094-2.672.75 1.348 1.114 1.992 1.559 2.684l3.492 5.484h1.453v-9.633h-1.23v5.906c0 .516.011 1.336.093 2.274a24 24 0 0 0-1.136-2.016l-3.926-6.164h-1.453zm9.017.164c1.22 0 1.899-.633 2.145-1.148h.082v.984h1.148v-4.77c0-2.25-1.746-2.554-2.718-2.554-1.114 0-2.356.398-2.918 1.71l1.125.376c.222-.504.785-1.067 1.828-1.067 1.008 0 1.512.528 1.512 1.418v.047c0 .528-.563.492-1.852.656-1.336.165-2.813.47-2.813 2.122 0 1.43 1.09 2.226 2.461 2.226m.2-1.02c-.868 0-1.489-.398-1.489-1.148 0-.82.739-1.09 1.582-1.195.446-.059 1.723-.188 1.91-.422v1.008c0 .89-.714 1.758-2.003 1.758m3.088.856h1.171v-4.559c0-1.148.762-1.746 1.618-1.746.808 0 1.406.54 1.406 1.348v4.957h1.172v-4.723c0-.914.597-1.582 1.57-1.582.773 0 1.453.422 1.453 1.465v4.84h1.172v-4.875c0-1.676-1.02-2.484-2.273-2.484-1.055 0-1.934.562-2.286 1.476-.257-.89-.89-1.476-1.84-1.476-.855 0-1.663.48-2.027 1.453v-1.324h-1.136zm11.337.152c1.477 0 2.555-.738 2.895-1.84l-1.125-.304c-.27.738-.914 1.113-1.77 1.113-1.277 0-2.156-.832-2.214-2.344h5.226v-.48c0-2.672-1.617-3.621-3.152-3.621-1.969 0-3.258 1.547-3.258 3.762 0 2.226 1.3 3.714 3.398 3.714m-2.214-4.359c.07-1.102.832-2.086 2.074-2.086 1.195 0 1.851.856 1.969 2.086zm16.532 104.525c2.941 0 4.605-1.828 4.605-4.84 0-2.988-1.664-4.792-4.476-4.792h-3.14v9.632zm-1.781-1.09v-7.464h1.816c2.238 0 3.375 1.394 3.375 3.715 0 2.343-1.137 3.75-3.492 3.75zm8.399 1.243c1.98 0 3.305-1.489 3.305-3.727 0-2.262-1.325-3.75-3.305-3.75-1.957 0-3.293 1.488-3.293 3.75 0 2.238 1.336 3.727 3.293 3.727m0-1.043c-1.441 0-2.11-1.254-2.11-2.684 0-1.441.669-2.707 2.11-2.707 1.465 0 2.133 1.277 2.133 2.707s-.668 2.684-2.133 2.684m5.675 1.043c1.418 0 2.578-.762 2.965-2.051l-1.114-.316c-.222.773-.879 1.324-1.851 1.324-1.442 0-2.11-1.254-2.11-2.684 0-1.441.668-2.707 2.11-2.707.96 0 1.605.527 1.816 1.277l1.113-.316c-.386-1.266-1.523-2.004-2.93-2.004-1.956 0-3.292 1.488-3.292 3.75 0 2.238 1.336 3.727 3.293 3.727m4.916-.059c.96 0 1.746-.387 2.215-1.441v1.347h1.125v-7.23h-1.172v4.336c0 1.23-.774 1.933-1.817 1.933-1.007 0-1.629-.668-1.629-1.77v-4.5H-7.45v4.595c0 1.828.996 2.73 2.449 2.73m3.146-.094H-.67v-4.558c0-1.149.762-1.746 1.617-1.746.809 0 1.407.539 1.407 1.347v4.957h1.171v-4.722c0-.914.598-1.582 1.57-1.582.774 0 1.454.422 1.454 1.465v4.84H7.72v-4.876c0-1.675-1.02-2.484-2.274-2.484-1.054 0-1.933.563-2.285 1.477-.258-.891-.89-1.477-1.84-1.477-.855 0-1.664.48-2.027 1.453v-1.324h-1.137zm11.338.153c1.477 0 2.555-.739 2.895-1.84l-1.125-.305c-.27.739-.914 1.114-1.77 1.114-1.277 0-2.156-.833-2.215-2.344h5.227v-.48c0-2.673-1.617-3.622-3.152-3.622-1.97 0-3.258 1.547-3.258 3.762 0 2.226 1.3 3.715 3.398 3.715m-2.215-4.36c.07-1.101.832-2.086 2.075-2.086 1.195 0 1.851.856 1.968 2.086zm5.86-.129c0-1.23.773-1.933 1.816-1.933 1.008 0 1.629.656 1.629 1.77v4.5h1.172v-4.594c0-1.828-.984-2.73-2.45-2.73-.972 0-1.745.41-2.214 1.429v-1.336h-1.125v7.23h1.172zm7.265-2.894h-1.488v-1.723h-1.16v1.723h-1.09v.996h1.09v4.453c0 1.184.738 1.875 1.98 1.875.305 0 .633-.047.868-.129l-.235-.984c-.199.035-.445.07-.597.07-.61 0-.856-.281-.856-.926v-4.359h1.488zm4.541 7.23h1.16l.938-3.27c.223-.808.457-1.722.68-2.636.21.926.433 1.805.68 2.637l.937 3.27h1.148l2.203-7.231h-1.23l-.879 3.152c-.222.797-.457 1.7-.703 2.813a48 48 0 0 0-.656-2.813l-.855-3.152h-1.243l-.867 3.152a51 51 0 0 0-.691 2.825 40 40 0 0 0-.692-2.825l-.879-3.152h-1.23zm6.115 0h1.171v-4.523c0-.984.762-1.688 1.805-1.688.305 0 .621.047.692.07v-1.171a9 9 0 0 0-.586-.023c-.856 0-1.606.48-1.875 1.218h-.082v-1.113H31.06zm3.712 0h1.171v-7.23h-1.171zm.585-8.414c.457 0 .82-.34.82-.773 0-.422-.363-.774-.82-.774-.433 0-.808.352-.808.774 0 .434.375.773.808.773m4.553 1.184h-1.488v-1.723h-1.16v1.723h-1.09v.996h1.09v4.453c0 1.184.738 1.875 1.98 1.875.305 0 .633-.047.867-.129l-.234-.984c-.2.035-.445.07-.598.07-.609 0-.855-.281-.855-.926v-4.359h1.488zm2.865 0h-1.488v-1.723h-1.16v1.723h-1.09v.996h1.09v4.453c0 1.184.738 1.875 1.98 1.875.305 0 .633-.047.868-.129l-.235-.984c-.199.035-.445.07-.597.07-.61 0-.856-.281-.856-.926v-4.359h1.488zm3.205 7.383c1.477 0 2.555-.739 2.895-1.84l-1.125-.305c-.27.739-.914 1.114-1.77 1.114-1.277 0-2.156-.833-2.214-2.344h5.226v-.48c0-2.673-1.617-3.622-3.152-3.622-1.969 0-3.258 1.547-3.258 3.762 0 2.226 1.3 3.715 3.399 3.715m-2.214-4.36c.07-1.101.832-2.086 2.074-2.086 1.195 0 1.851.856 1.969 2.086zm5.856-.129c0-1.23.774-1.933 1.817-1.933 1.007 0 1.628.656 1.628 1.77v4.5h1.172v-4.594c0-1.828-.984-2.73-2.449-2.73-.973 0-1.746.41-2.215 1.429v-1.336H48.44v7.23h1.172zm9.929-2.894h-1.488v-1.723h-1.16v1.723h-1.09v.996h1.09v4.453c0 1.184.738 1.875 1.98 1.875.305 0 .633-.047.867-.129l-.234-.984c-.2.035-.446.07-.598.07-.61 0-.855-.281-.855-.926v-4.359h1.488zm3.1 7.383c1.98 0 3.304-1.489 3.304-3.727 0-2.262-1.324-3.75-3.305-3.75-1.957 0-3.293 1.488-3.293 3.75 0 2.238 1.336 3.727 3.293 3.727m0-1.043c-1.442 0-2.11-1.254-2.11-2.684 0-1.441.668-2.707 2.11-2.707 1.464 0 2.132 1.278 2.132 2.707 0 1.43-.668 2.684-2.133 2.684m8.44 1.043c1.476 0 2.555-.739 2.894-1.84l-1.125-.305c-.27.739-.914 1.114-1.77 1.114-1.276 0-2.155-.833-2.214-2.344h5.227v-.48c0-2.673-1.618-3.622-3.153-3.622-1.969 0-3.258 1.547-3.258 3.762 0 2.226 1.301 3.715 3.399 3.715m-2.215-4.36c.07-1.101.832-2.086 2.074-2.086 1.196 0 1.852.856 1.969 2.086zm6.806 4.371c1.218 0 1.898-.632 2.144-1.148h.082v.984h1.149v-4.77c0-2.25-1.746-2.554-2.72-2.554-1.112 0-2.355.399-2.917 1.711l1.125.375c.223-.504.785-1.066 1.828-1.066 1.008 0 1.512.527 1.512 1.418v.047c0 .527-.563.492-1.852.656-1.336.164-2.812.469-2.812 2.121 0 1.43 1.09 2.227 2.46 2.227m.199-1.019c-.867 0-1.488-.398-1.488-1.148 0-.82.738-1.09 1.582-1.196.445-.058 1.722-.187 1.91-.422v1.008c0 .89-.715 1.758-2.004 1.758m3.088.855h1.172v-4.523c0-.984.761-1.688 1.804-1.688.305 0 .621.047.692.07v-1.171a9 9 0 0 0-.586-.023c-.856 0-1.606.48-1.875 1.218h-.082v-1.113H78.97zm4.884-4.336c0-1.23.773-1.933 1.816-1.933 1.008 0 1.629.656 1.629 1.77v4.5h1.172v-4.594c0-1.828-.985-2.73-2.45-2.73-.972 0-1.746.41-2.214 1.429v-1.336h-1.125v7.23h1.172zm9.928-2.894H92.28v-1.723h-1.16v1.723h-1.09v.996h1.09v4.453c0 1.184.738 1.875 1.98 1.875.305 0 .633-.047.867-.129l-.234-.984c-.2.035-.445.07-.598.07-.609 0-.855-.281-.855-.926v-4.359h1.488zm1.421 2.894c0-1.23.774-1.933 1.817-1.933 1.007 0 1.628.656 1.628 1.77v4.5h1.172v-4.594c0-1.828-.984-2.73-2.449-2.73-.95 0-1.7.386-2.168 1.347v-3.656h-1.172v9.632h1.172zm7.47 4.489c1.477 0 2.556-.739 2.895-1.84l-1.125-.305c-.27.739-.914 1.114-1.77 1.114-1.276 0-2.155-.833-2.214-2.344h5.227v-.48c0-2.673-1.618-3.622-3.153-3.622-1.968 0-3.258 1.547-3.258 3.762 0 2.226 1.301 3.715 3.399 3.715m-2.214-4.36c.07-1.101.832-2.086 2.074-2.086 1.196 0 1.852.856 1.969 2.086zm10.066 4.36c1.372 0 1.852-.867 2.098-1.266h.129v1.113h1.125v-9.632h-1.16v3.562h-.094c-.246-.387-.691-1.254-2.098-1.254-1.804 0-3.07 1.442-3.07 3.727 0 2.308 1.254 3.75 3.07 3.75m.165-1.043c-1.348 0-2.051-1.196-2.051-2.719 0-1.5.68-2.672 2.05-2.672 1.336 0 2.04 1.078 2.04 2.672 0 1.606-.727 2.719-2.04 2.719m5.958 1.043c1.477 0 2.555-.739 2.895-1.84l-1.125-.305c-.27.739-.914 1.114-1.77 1.114-1.277 0-2.156-.833-2.214-2.344h5.226v-.48c0-2.673-1.617-3.622-3.152-3.622-1.969 0-3.258 1.547-3.258 3.762 0 2.226 1.3 3.715 3.398 3.715m-2.214-4.36c.07-1.101.832-2.086 2.074-2.086 1.195 0 1.851.856 1.969 2.086zm7.617 7.067c1.758 0 3.152-.797 3.152-2.672v-7.418h-1.137v1.16h-.105c-.246-.387-.715-1.254-2.11-1.254-1.804 0-3.081 1.442-3.081 3.68 0 2.262 1.324 3.527 3.058 3.527 1.395 0 1.852-.797 2.098-1.207h.117v1.442c0 1.195-.832 1.722-1.992 1.722-1.266 0-1.723-.644-2.028-1.066l-.949.61c.446.796 1.371 1.476 2.977 1.476m-.024-4.008c-1.359 0-2.074-1.043-2.074-2.531 0-1.442.692-2.602 2.074-2.602 1.325 0 2.028 1.078 2.028 2.602 0 1.582-.715 2.531-2.028 2.531m2.898 1.148h1.172v-4.523c0-.984.761-1.688 1.804-1.688.305 0 .622.047.692.07v-1.171a9 9 0 0 0-.586-.023c-.856 0-1.606.48-1.875 1.218h-.082v-1.113h-1.125zm6.454.153c1.477 0 2.555-.739 2.895-1.84l-1.125-.305c-.27.739-.915 1.114-1.77 1.114-1.277 0-2.156-.833-2.215-2.344h5.227v-.48c0-2.673-1.617-3.622-3.153-3.622-1.968 0-3.257 1.547-3.257 3.762 0 2.226 1.3 3.715 3.398 3.715m-2.215-4.36c.07-1.101.832-2.086 2.074-2.086 1.196 0 1.852.856 1.97 2.086zm7.732 4.36c1.476 0 2.554-.739 2.894-1.84l-1.125-.305c-.27.739-.914 1.114-1.77 1.114-1.277 0-2.156-.833-2.214-2.344h5.226v-.48c0-2.673-1.617-3.622-3.152-3.622-1.969 0-3.258 1.547-3.258 3.762 0 2.226 1.3 3.715 3.399 3.715m-2.215-4.36c.07-1.101.832-2.086 2.074-2.086 1.195 0 1.852.856 1.969 2.086zm10.289 4.36c1.98 0 3.305-1.489 3.305-3.727 0-2.262-1.325-3.75-3.305-3.75-1.957 0-3.293 1.488-3.293 3.75 0 2.238 1.336 3.727 3.293 3.727m0-1.043c-1.442 0-2.11-1.254-2.11-2.684 0-1.441.668-2.707 2.11-2.707 1.465 0 2.133 1.278 2.133 2.707 0 1.43-.668 2.684-2.133 2.684m6.096-6.34h-1.664v-.703c0-.703.305-1.078 1.032-1.078.316 0 .504.07.62.105l.329-.996c-.176-.07-.54-.187-1.09-.187-1.055 0-2.062.644-2.062 1.898v.961h-1.418v.996h1.418v6.234h1.171v-6.234h1.664zm5.954 7.23c2.941 0 4.605-1.828 4.605-4.84 0-2.988-1.664-4.792-4.476-4.792h-3.141v9.632zm-1.782-1.09v-7.464h1.817c2.238 0 3.375 1.394 3.375 3.715 0 2.343-1.137 3.75-3.492 3.75zm8.403 1.243c1.98 0 3.304-1.489 3.304-3.727 0-2.262-1.324-3.75-3.304-3.75-1.957 0-3.293 1.488-3.293 3.75 0 2.238 1.336 3.727 3.293 3.727m0-1.043c-1.442 0-2.11-1.254-2.11-2.684 0-1.441.668-2.707 2.11-2.707 1.465 0 2.133 1.278 2.133 2.707 0 1.43-.668 2.684-2.133 2.684m5.675 1.043c1.417 0 2.578-.762 2.964-2.051l-1.113-.316c-.223.773-.879 1.324-1.851 1.324-1.442 0-2.11-1.254-2.11-2.684 0-1.441.668-2.707 2.11-2.707.96 0 1.605.528 1.816 1.278l1.113-.317c-.387-1.266-1.523-2.004-2.93-2.004-1.957 0-3.292 1.488-3.292 3.75 0 2.238 1.335 3.727 3.293 3.727m5.311-7.383h-1.488v-1.723h-1.16v1.723h-1.09v.996h1.09v4.453c0 1.184.738 1.875 1.98 1.875.305 0 .633-.047.867-.129l-.234-.984c-.2.035-.445.07-.598.07-.61 0-.855-.281-.855-.926v-4.359h1.488zm3.1 7.383c1.98 0 3.304-1.489 3.304-3.727 0-2.262-1.324-3.75-3.304-3.75-1.957 0-3.293 1.488-3.293 3.75 0 2.238 1.336 3.727 3.293 3.727m0-1.043c-1.442 0-2.11-1.254-2.11-2.684 0-1.441.668-2.707 2.11-2.707 1.464 0 2.132 1.278 2.132 2.707 0 1.43-.668 2.684-2.132 2.684m2.733.89h1.172v-4.523c0-.984.762-1.688 1.805-1.688.304 0 .62.047.691.07v-1.171a9 9 0 0 0-.586-.023c-.855 0-1.605.48-1.875 1.218h-.082v-1.113h-1.125zm9.167.153c1.98 0 3.305-1.489 3.305-3.727 0-2.262-1.324-3.75-3.305-3.75-1.957 0-3.293 1.488-3.293 3.75 0 2.238 1.336 3.727 3.293 3.727m0-1.043c-1.441 0-2.11-1.254-2.11-2.684 0-1.441.669-2.707 2.11-2.707 1.465 0 2.133 1.278 2.133 2.707 0 1.43-.668 2.684-2.133 2.684m6.097-6.34h-1.664v-.703c0-.703.304-1.078 1.03-1.078.317 0 .505.07.622.105l.328-.996c-.176-.07-.539-.187-1.09-.187-1.054 0-2.062.644-2.062 1.898v.961h-1.418v.996h1.418v6.234h1.172v-6.234h1.664zm2.941 7.23h1.23v-3.492h2.075c2.25 0 3.281-1.36 3.281-3.082 0-1.71-1.031-3.058-3.281-3.058h-3.305zm1.23-4.57v-3.984h2.005c1.546 0 2.132.843 2.132 1.98 0 1.149-.586 2.004-2.12 2.004zm5.845.234c0-1.23.774-1.933 1.817-1.933 1.008 0 1.629.656 1.629 1.77v4.5h1.172v-4.594c0-1.828-.985-2.73-2.45-2.73-.949 0-1.699.386-2.168 1.347v-3.656h-1.172v9.632h1.172zm4.424 4.336h1.172v-7.23h-1.172zm.586-8.414c.457 0 .82-.34.82-.773 0-.422-.363-.774-.82-.774-.434 0-.809.352-.809.774 0 .434.375.773.81.773m2.88-1.218h-1.172v9.632h1.172zm4.06 9.785c1.981 0 3.305-1.489 3.305-3.727 0-2.262-1.324-3.75-3.304-3.75-1.958 0-3.293 1.488-3.293 3.75 0 2.238 1.335 3.727 3.293 3.727m0-1.043c-1.44 0-2.109-1.254-2.109-2.684 0-1.441.668-2.707 2.11-2.707 1.464 0 2.132 1.278 2.132 2.707 0 1.43-.668 2.684-2.132 2.684m5.195 1.043c1.7 0 2.848-.926 2.848-2.192 0-.984-.61-1.64-1.922-1.957l-1.09-.257c-.856-.2-1.219-.493-1.219-1.032 0-.597.645-1.043 1.5-1.043.938 0 1.348.504 1.547 1.02l1.055-.27c-.329-1.02-1.114-1.746-2.602-1.746-1.535 0-2.684.867-2.684 2.11 0 1.02.633 1.664 1.946 1.968l1.207.293c.703.164 1.054.492 1.054.996 0 .598-.644 1.09-1.652 1.09-.867 0-1.453-.351-1.664-1.148l-1.101.258c.257 1.254 1.289 1.91 2.777 1.91m5.475 0c1.98 0 3.305-1.489 3.305-3.727 0-2.262-1.324-3.75-3.305-3.75-1.957 0-3.293 1.488-3.293 3.75 0 2.238 1.336 3.727 3.293 3.727m0-1.043c-1.441 0-2.109-1.254-2.109-2.684 0-1.441.668-2.707 2.11-2.707 1.464 0 2.132 1.278 2.132 2.707 0 1.43-.668 2.684-2.133 2.684m2.737 3.597h1.172v-3.82h.082c.246.399.726 1.266 2.109 1.266 1.805 0 3.059-1.442 3.059-3.75 0-2.285-1.266-3.727-3.07-3.727-1.407 0-1.852.867-2.098 1.254h-.13v-1.16h-1.124zm3.187-3.597c-1.312 0-2.039-1.113-2.039-2.719 0-1.594.703-2.672 2.04-2.672 1.37 0 2.05 1.172 2.05 2.672 0 1.523-.703 2.719-2.05 2.719m3.78-3.446c0-1.23.773-1.933 1.816-1.933 1.008 0 1.629.656 1.629 1.77v4.5h1.172v-4.594c0-1.828-.985-2.73-2.45-2.73-.949 0-1.699.386-2.167 1.347v-3.656h-1.172v9.632h1.172zm4.169 6.961c.128.059.445.13.855.13 1.02 0 1.723-.528 2.168-1.676l3.176-8.309h-1.278l-1.546 4.289a25 25 0 0 0-.563 1.852c-.164-.598-.328-1.22-.55-1.852l-1.536-4.289h-1.277l2.765 7.266-.21.609c-.364 1.031-.868 1.184-1.583.996l-.117-.035zM94.04 526.621h6.14v-1.078h-4.44v-.082l2.109-2.238c1.699-1.817 2.168-2.637 2.168-3.68 0-1.512-1.22-2.695-2.942-2.695-1.71 0-3 1.16-3 2.87h1.172c0-1.089.703-1.792 1.793-1.792 1.031 0 1.817.621 1.817 1.629 0 .89-.54 1.547-1.606 2.707l-3.21 3.469zm11.675.13c2.144 0 3.375-1.806 3.375-4.946 0-3.117-1.242-4.957-3.375-4.957-2.145 0-3.387 1.84-3.387 4.957 0 3.14 1.23 4.945 3.387 4.945m0-1.079c-1.418 0-2.203-1.406-2.203-3.867s.785-3.88 2.203-3.88c1.406 0 2.191 1.419 2.191 3.88s-.785 3.867-2.191 3.867m8.59 1.078c2.144 0 3.375-1.805 3.375-4.945 0-3.117-1.242-4.957-3.375-4.957-2.145 0-3.387 1.84-3.387 4.957 0 3.14 1.23 4.945 3.387 4.945m0-1.078c-1.418 0-2.203-1.406-2.203-3.867s.785-3.88 2.203-3.88c1.406 0 2.191 1.419 2.191 3.88s-.785 3.867-2.191 3.867m8.593 1.078c2.144 0 3.375-1.805 3.375-4.945 0-3.117-1.243-4.957-3.375-4.957-2.145 0-3.387 1.84-3.387 4.957 0 3.14 1.23 4.945 3.387 4.945m0-1.078c-1.418 0-2.204-1.406-2.204-3.867s.786-3.88 2.204-3.88c1.406 0 2.19 1.419 2.19 3.88s-.784 3.867-2.19 3.867m0 0" aria-label="AVeryLongandImpressive ThesisTitlewithaForcedLineBreak DoctorateinStudyProgramName SpecializationinSpecializationName JohnVeryLongnameDoe Thesissupervisedby: f/MaryDoeAdviserName,m/JohnDoeCo-AdviserNameandf/JohnDoeother Co-AdviserName DocumentwrittentoearnthedegreeofDoctorofPhilosophy 2000" style="fill:#000;fill-opacity:1;fill-rule:nonzero;stroke:none" transform="translate(250.441 390.213)scale(1.33333)"/></svg>