<svg xmlns="http://www.w3.org/2000/svg" xmlns:xlink="http://www.w3.org/1999/xlink" width="793.701" height="1122.52" viewBox="0 0 595.276 841.89"><defs><symbol overflow="visible" id="d"><path style="stroke:none" d="M8.156-11.578v7.312c0 1.313-.922 2.282-2.344 2.282-1.421 0-2.359-.97-2.359-2.282v-7.312H1v7.515C1-1.53 2.922.157 5.813.157c2.875 0 4.796-1.688 4.796-4.22v-7.515Zm0 0"/></symbol><symbol overflow="visible" id="e"><path style="stroke:none" d="M10.703-11.578H8.266v7.281h-.11l-5-7.281H1V0h2.453v-7.297h.094L8.578 0h2.125Zm0 0"/></symbol><symbol overflow="visible" id="f"><path style="stroke:none" d="M3.453-11.578H1V0h2.453Zm0 0"/></symbol><symbol overflow="visible" id="g"><path style="stroke:none" d="M3.094-11.578H.375L4.375 0h3.156l4-11.578H8.812L6-2.781h-.094Zm0 0"/></symbol><symbol overflow="visible" id="h"><path style="stroke:none" d="M1 0h7.828v-2.016H3.453V-4.78h4.953v-2.016H3.453v-2.766h5.36v-2.015H1Zm0 0"/></symbol><symbol overflow="visible" id="i"><path style="stroke:none" d="M1 0h2.453v-4.11H5.25L7.438 0h2.703L7.687-4.5C9-5.063 9.735-6.219 9.735-7.797c0-2.312-1.53-3.781-4.156-3.781H1Zm2.453-6.078v-3.5H5.11c1.407 0 2.094.625 2.094 1.781 0 1.14-.687 1.719-2.078 1.719Zm0 0"/></symbol><symbol overflow="visible" id="j"><path style="stroke:none" d="M7.297-8.25H9.64c-.032-2.063-1.735-3.5-4.313-3.5-2.547 0-4.406 1.406-4.39 3.516 0 1.703 1.203 2.687 3.156 3.156l1.265.312c1.266.313 1.954.672 1.97 1.454-.016.843-.813 1.421-2.063 1.421C4-1.89 3.078-2.484 3-3.64H.64C.704-1.125 2.485.156 5.298.156c2.828 0 4.5-1.343 4.5-3.469 0-1.921-1.453-2.953-3.469-3.406l-1.047-.25c-1-.218-1.843-.593-1.828-1.437 0-.735.656-1.281 1.86-1.281 1.171 0 1.89.53 1.984 1.437Zm0 0"/></symbol><symbol overflow="visible" id="k"><path style="stroke:none" d="M.563-9.563h3.546V0h2.422v-9.563h3.547v-2.015H.563Zm0 0"/></symbol><symbol overflow="visible" id="l"><path style="stroke:none" d="m.328-11.578 4.219 7.484V0h2.437v-4.094l4.22-7.484H8.468l-2.64 4.984h-.11l-2.64-4.984Zm0 0"/></symbol><symbol overflow="visible" id="m"><path style="stroke:none" d="M11.656-5.797c0-3.781-2.36-5.953-5.422-5.953-3.093 0-5.437 2.172-5.437 5.953S3.14.156 6.234.156c3.063 0 5.422-2.156 5.422-5.953Zm-2.484 0c0 2.453-1.172 3.781-2.938 3.781-1.78 0-2.953-1.328-2.953-3.78 0-2.454 1.172-3.782 2.953-3.782C8-9.578 9.172-8.25 9.172-5.797Zm0 0"/></symbol><symbol overflow="visible" id="n"><path style="stroke:none" d="M1 0h2.453v-4.781h4.719v-2.016H3.453v-2.766h5.219v-2.015H1Zm0 0"/></symbol><symbol overflow="visible" id="o"><path style="stroke:none" d="M1 0h7.422v-2.016H3.453v-9.562H1Zm0 0"/></symbol><symbol overflow="visible" id="p"><path style="stroke:none" d="M1 0h4.953c2.61 0 3.984-1.36 3.984-3.203 0-1.719-1.218-2.75-2.546-2.813v-.109c1.218-.266 2.093-1.125 2.093-2.484 0-1.735-1.28-2.97-3.843-2.97H1Zm2.453-2v-3.078h2.063c1.171 0 1.906.672 1.906 1.64C7.422-2.578 6.828-2 5.453-2Zm0-4.734V-9.61h1.86c1.093 0 1.703.562 1.703 1.406 0 .906-.75 1.469-1.75 1.469Zm0 0"/></symbol><symbol overflow="visible" id="q"><path style="stroke:none" d="M1 0h2.453v-3.75h2.063c2.656 0 4.218-1.594 4.218-3.906 0-2.297-1.53-3.922-4.156-3.922H1Zm2.453-5.719v-3.86H5.11c1.407 0 2.094.767 2.094 1.923 0 1.14-.687 1.937-2.078 1.937Zm0 0"/></symbol><symbol overflow="visible" id="r"><path style="stroke:none" d="M1 0h7.828v-2.016H3.453V-4.78h4.953v-2.016H3.453v-2.766h5.36v-2.015H1Zm3.063-12.703h1.703l1.718-2.578H5.266Zm0 0"/></symbol><symbol overflow="visible" id="s"><path style="stroke:none" d="M11.234-7.531c-.328-2.672-2.359-4.219-5.03-4.219C3.14-11.75.796-9.578.796-5.797S3.094.156 6.203.156c2.969 0 4.766-1.968 5.031-4.11H8.75c-.234 1.235-1.203 1.938-2.516 1.938-1.75 0-2.953-1.296-2.953-3.78 0-2.407 1.188-3.782 2.969-3.782 1.344 0 2.313.781 2.5 2.047Zm0 0"/></symbol><symbol overflow="visible" id="t"><path style="stroke:none" d="m3.39 0 .97-2.984h4.702L10.033 0H13L8.484-13.063H4.938L.421 0Zm1.672-5.125 1.594-4.953h.11l1.609 4.953Zm0 0"/></symbol><symbol overflow="visible" id="u"><path style="stroke:none" d="M3.5-13.063H.422L4.938 0h3.546L13-13.063H9.937L6.767-3.14h-.11Zm0 0"/></symbol><symbol overflow="visible" id="v"><path style="stroke:none" d="M5.547.188c2.422 0 4.047-1.172 4.437-3L7.47-2.97c-.266.75-.969 1.125-1.875 1.125-1.36 0-2.219-.89-2.219-2.343v-.016h6.672v-.75c0-3.328-2.016-4.969-4.61-4.969-2.875 0-4.75 2.047-4.75 5.078C.688-1.75 2.532.188 5.548.188ZM3.375-5.891c.063-1.109.906-2 2.11-2 1.171 0 2 .844 2 2Zm0 0"/></symbol><symbol overflow="visible" id="w"><path style="stroke:none" d="M1.078 0h2.719v-5.547c0-1.203.875-2.031 2.078-2.031.375 0 .89.062 1.156.156v-2.422a5.167 5.167 0 0 0-.86-.094c-1.093 0-2 .641-2.359 1.86H3.72v-1.719H1.08Zm0 0"/></symbol><symbol overflow="visible" id="x"><path style="stroke:none" d="M2.766 3.672c2.015 0 3.093-1.031 3.64-2.61L10.22-9.796H7.344L5.297-2.594h-.11l-2.03-7.203H.311L3.813.281l-.156.406c-.36.922-1.031.97-2 .672l-.61 2.032c.391.171 1.032.28 1.72.28Zm0 0"/></symbol><symbol overflow="visible" id="y"><path style="stroke:none" d="M1.14 0H9.5v-2.281H3.89v-10.781H1.14Zm0 0"/></symbol><symbol overflow="visible" id="z"><path style="stroke:none" d="M5.516.188c2.968 0 4.812-2.032 4.812-5.047 0-3.032-1.844-5.063-4.812-5.063C2.53-9.922.687-7.89.687-4.859.688-1.844 2.532.187 5.516.187Zm0-2.094c-1.36 0-2.063-1.266-2.063-2.969 0-1.703.703-2.969 2.063-2.969 1.343 0 2.046 1.266 2.046 2.969 0 1.703-.703 2.969-2.046 2.969Zm0 0"/></symbol><symbol overflow="visible" id="A"><path style="stroke:none" d="M3.797-5.656c.015-1.266.765-2 1.86-2 1.093 0 1.75.703 1.734 1.906V0h2.718v-6.234c0-2.282-1.343-3.688-3.375-3.688-1.453 0-2.5.719-2.953 1.86h-.11v-1.735H1.079V0h2.719Zm0 0"/></symbol><symbol overflow="visible" id="B"><path style="stroke:none" d="M5.5 3.875c2.797 0 4.781-1.281 4.781-3.781v-9.89H7.594v1.655h-.11c-.359-.796-1.156-1.78-2.796-1.78-2.157 0-3.97 1.671-3.97 5 0 3.265 1.766 4.78 3.97 4.78 1.562 0 2.437-.78 2.796-1.593h.11V.062c0 1.344-.86 1.86-2.032 1.86-1.203 0-1.812-.516-2.03-1.11l-2.516.329C1.344 2.687 2.859 3.875 5.5 3.875Zm.047-6.063C4.219-2.188 3.5-3.234 3.5-4.921c0-1.672.703-2.844 2.047-2.844 1.328 0 2.062 1.125 2.062 2.844 0 1.719-.75 2.734-2.062 2.734Zm0 0"/></symbol><symbol overflow="visible" id="C"><path style="stroke:none" d="M3.875.188c1.453 0 2.39-.641 2.86-1.547h.077V0h2.579v-6.61c0-2.327-1.97-3.312-4.157-3.312-2.343 0-3.89 1.125-4.265 2.906l2.515.204c.188-.641.766-1.125 1.735-1.125.922 0 1.453.468 1.453 1.265v.047c0 .625-.672.703-2.375.875-1.938.172-3.672.828-3.672 3.016 0 1.937 1.39 2.921 3.25 2.921Zm.781-1.875c-.843 0-1.437-.391-1.437-1.141 0-.766.625-1.14 1.594-1.266.593-.093 1.562-.234 1.875-.437V-3.5c0 1.031-.844 1.813-2.032 1.813Zm0 0"/></symbol><symbol overflow="visible" id="D"><path style="stroke:none" d="M4.688.156c1.578 0 2.406-.906 2.78-1.718h.126V0h2.672v-13.063h-2.72v4.922H7.47c-.36-.796-1.14-1.78-2.782-1.78C2.531-9.922.72-8.25.72-4.892.719-1.609 2.453.156 4.688.156ZM5.546-2C4.219-2 3.5-3.188 3.5-4.89c0-1.704.703-2.876 2.047-2.876 1.328 0 2.062 1.125 2.062 2.875C7.61-3.156 6.86-2 5.547-2Zm0 0"/></symbol><symbol overflow="visible" id="E"><path style="stroke:none" d="M3.89-13.063H1.14V0h2.75Zm0 0"/></symbol><symbol overflow="visible" id="F"><path style="stroke:none" d="M1.078 0h2.719v-5.875c0-1.094.687-1.813 1.594-1.813.89 0 1.5.625 1.5 1.579V0h2.625v-5.984c0-1.016.578-1.704 1.578-1.704.86 0 1.515.547 1.515 1.641V0h2.704v-6.578c0-2.125-1.266-3.344-3.079-3.344-1.437 0-2.562.735-2.953 1.86h-.11c-.312-1.141-1.312-1.86-2.655-1.86-1.313 0-2.329.703-2.735 1.86h-.11v-1.735H1.079Zm0 0"/></symbol><symbol overflow="visible" id="G"><path style="stroke:none" d="M1.078 3.672h2.719v-5.235h.078c.39.813 1.203 1.72 2.781 1.72 2.235 0 3.985-1.766 3.985-5.048 0-3.359-1.829-5.03-3.97-5.03-1.64 0-2.421.983-2.796 1.78h-.11v-1.656H1.079Zm2.656-8.563c0-1.75.75-2.875 2.063-2.875 1.344 0 2.062 1.172 2.062 2.875C7.86-3.187 7.141-2 5.797-2 4.5-2 3.734-3.156 3.734-4.89Zm0 0"/></symbol><symbol overflow="visible" id="H"><path style="stroke:none" d="M9.234-7c-.25-1.797-1.703-2.922-4.171-2.922-2.5 0-4.157 1.156-4.157 3.047 0 1.469.922 2.422 2.828 2.797l1.704.344c.859.171 1.25.484 1.25.968 0 .579-.641 1-1.594 1-.969 0-1.61-.421-1.766-1.218l-2.672.14C.906-.969 2.5.187 5.094.187c2.531 0 4.36-1.296 4.36-3.218 0-1.422-.923-2.266-2.829-2.656l-1.781-.36c-.907-.187-1.235-.5-1.235-.984 0-.578.657-.969 1.5-.969.938 0 1.5.516 1.641 1.156Zm0 0"/></symbol><symbol overflow="visible" id="I"><path style="stroke:none" d="M1.078 0h2.719v-9.797H1.078Zm1.375-11.047c.797 0 1.469-.625 1.469-1.39 0-.75-.672-1.36-1.469-1.36-.812 0-1.469.61-1.469 1.36 0 .765.657 1.39 1.47 1.39Zm0 0"/></symbol><symbol overflow="visible" id="J"><path style="stroke:none" d="M10.219-9.797H7.344L5.312-2.78h-.109L3.172-9.797H.312L3.735 0h3.063Zm0 0"/></symbol><symbol overflow="visible" id="K"><path style="stroke:none" d="M.64-10.781h4V0h2.72v-10.781h4v-2.281H.64Zm0 0"/></symbol><symbol overflow="visible" id="L"><path style="stroke:none" d="M3.797-5.656c.015-1.266.781-2 1.89-2 1.11 0 1.75.703 1.75 1.906V0h2.72v-6.234c0-2.297-1.36-3.688-3.391-3.688-1.485 0-2.485.703-2.922 1.86h-.125v-5h-2.64V0h2.718Zm0 0"/></symbol><symbol overflow="visible" id="M"><path style="stroke:none" d="M6.297-9.797H4.453v-2.344H1.734v2.344H.391v2.047h1.343v5.094C1.72-.734 3.031.219 5 .14a5.12 5.12 0 0 0 1.469-.266l-.422-2.016c-.14.032-.422.094-.672.094-.547 0-.922-.203-.922-.969V-7.75h1.844Zm0 0"/></symbol><symbol overflow="visible" id="N"><path style="stroke:none" d="M3.797-13.063H1.078V0h2.719Zm0 0"/></symbol><symbol overflow="visible" id="O"><path style="stroke:none" d="M3.016 0H5.89l1.671-6.156h.125L9.376 0h2.875l2.656-9.797h-2.75L10.672-3.25h-.078l-1.61-6.547H6.281L4.703-3.219H4.61L3.094-9.797H.344Zm0 0"/></symbol><symbol overflow="visible" id="P"><path style="stroke:none" d="M1.14 0h2.75v-5.39h5.313v-2.282H3.891v-3.11h5.89v-2.28h-8.64Zm0 0"/></symbol><symbol overflow="visible" id="Q"><path style="stroke:none" d="M5.516.188c2.593 0 4.234-1.532 4.359-3.782H7.312c-.156 1.047-.843 1.64-1.765 1.64-1.281 0-2.094-1.062-2.094-2.937 0-1.859.828-2.906 2.094-2.906.984 0 1.625.656 1.766 1.625h2.562c-.11-2.266-1.828-3.75-4.375-3.75-2.969 0-4.813 2.063-4.813 5.063C.688-1.875 2.5.187 5.516.187Zm0 0"/></symbol><symbol overflow="visible" id="R"><path style="stroke:none" d="M1.14 0h5.58c2.922 0 4.484-1.531 4.484-3.61 0-1.937-1.375-3.093-2.86-3.171v-.125c1.36-.297 2.36-1.266 2.36-2.797 0-1.969-1.453-3.36-4.344-3.36H1.141Zm2.75-2.25v-3.469h2.313c1.328 0 2.156.766 2.156 1.844 0 .969-.671 1.625-2.218 1.625Zm0-5.344v-3.234H6c1.219 0 1.906.64 1.906 1.578 0 1.031-.843 1.656-1.968 1.656Zm0 0"/></symbol><symbol overflow="visible" id="S"><path style="stroke:none" d="M1.078 0h2.719v-3.11l.734-.843L7.203 0h3.188L6.562-5.547l3.641-4.25H7.078L3.953-6.078h-.156v-6.984H1.078Zm0 0"/></symbol><symbol overflow="visible" id="T"><path style="stroke:none" d="M4.938-10.14v7.062c0 .984-.438 1.5-1.235 1.5-.734 0-1.219-.469-1.234-1.281H.329c-.017 2.03 1.437 3 3.265 3 2.062 0 3.469-1.25 3.469-3.22v-7.062Zm0 0"/></symbol><symbol overflow="visible" id="U"><path style="stroke:none" d="M4.281.156c2.313 0 3.75-1.593 3.75-3.937s-1.437-3.922-3.75-3.922c-2.312 0-3.75 1.578-3.75 3.922C.531-1.437 1.97.156 4.281.156Zm.016-1.64c-1.078 0-1.625-.985-1.625-2.313 0-1.312.547-2.297 1.625-2.297 1.031 0 1.578.985 1.578 2.297 0 1.328-.547 2.313-1.578 2.313Zm0 0"/></symbol><symbol overflow="visible" id="V"><path style="stroke:none" d="M2.953-4.39c0-.985.61-1.563 1.469-1.563.86 0 1.36.547 1.36 1.484V0H7.89v-4.844c0-1.781-1.047-2.86-2.641-2.86-1.156 0-1.922.548-2.266 1.438H2.89v-3.875H.844V0h2.11Zm0 0"/></symbol><symbol overflow="visible" id="W"><path style="stroke:none" d="M2.953-4.39c0-.985.594-1.563 1.438-1.563.843 0 1.359.547 1.359 1.484V0h2.11v-4.844c0-1.781-1.048-2.86-2.626-2.86-1.14 0-1.953.548-2.296 1.438h-.079v-1.343H.844V0h2.11Zm0 0"/></symbol><symbol overflow="visible" id="X"><path style="stroke:none" d="M2.719-10.14H.329L3.828 0h2.765l3.5-10.14H7.719L5.266-2.438h-.094Zm0 0"/></symbol><symbol overflow="visible" id="Y"><path style="stroke:none" d="M4.313.156c1.875 0 3.14-.922 3.437-2.328l-1.938-.14c-.218.578-.765.89-1.468.89-1.063 0-1.719-.703-1.719-1.844h5.172v-.578c0-2.578-1.563-3.86-3.578-3.86C1.984-7.703.53-6.108.53-3.765.531-1.359 1.97.156 4.312.156ZM2.625-4.578c.047-.86.703-1.547 1.64-1.547.907 0 1.548.64 1.548 1.547Zm0 0"/></symbol><symbol overflow="visible" id="Z"><path style="stroke:none" d="M.844 0h2.11v-4.297c0-.937.687-1.594 1.608-1.594.297 0 .704.063.891.125V-7.64a3.017 3.017 0 0 0-.656-.078c-.86 0-1.547.5-1.828 1.438H2.89v-1.33H.844Zm0 0"/></symbol><symbol overflow="visible" id="aa"><path style="stroke:none" d="M2.14 2.86c1.579 0 2.407-.813 2.844-2.032l2.954-8.437H5.703L4.11-2.016h-.078L2.453-7.609H.234L2.97.219l-.125.328c-.281.703-.813.734-1.547.515L.813 2.641c.312.125.796.218 1.328.218Zm0 0"/></symbol><symbol overflow="visible" id="ab"><path style="stroke:none" d="M.875 0h6.5v-1.766H3.031v-8.375H.875Zm0 0"/></symbol><symbol overflow="visible" id="ac"><path style="stroke:none" d="M4.266 3.016c2.171 0 3.718-1 3.718-2.938v-7.687H5.891v1.28h-.079c-.28-.624-.906-1.374-2.171-1.374-1.672 0-3.079 1.297-3.079 3.89 0 2.532 1.375 3.704 3.079 3.704 1.218 0 1.89-.61 2.171-1.235h.094v1.39c0 1.048-.672 1.454-1.593 1.454-.922 0-1.391-.406-1.563-.875L.797.891c.25 1.203 1.422 2.125 3.469 2.125Zm.046-4.704c-1.03 0-1.593-.828-1.593-2.14 0-1.297.547-2.203 1.594-2.203 1.03 0 1.593.875 1.593 2.203 0 1.344-.578 2.14-1.593 2.14Zm0 0"/></symbol><symbol overflow="visible" id="ad"><path style="stroke:none" d="M3.016.14c1.125 0 1.843-.484 2.218-1.203h.063V0h2v-5.125c0-1.813-1.531-2.578-3.234-2.578-1.813 0-3.016.875-3.313 2.25l1.953.156c.14-.5.594-.875 1.36-.875.718 0 1.125.36 1.125.984v.032c0 .5-.516.562-1.844.687-1.5.14-2.86.64-2.86 2.344 0 1.5 1.079 2.266 2.532 2.266Zm.593-1.453c-.64 0-1.109-.296-1.109-.875 0-.593.484-.89 1.234-1 .47-.062 1.22-.171 1.47-.343v.812c0 .797-.657 1.406-1.595 1.406Zm0 0"/></symbol><symbol overflow="visible" id="ae"><path style="stroke:none" d="M.844 0h2.11v-4.563c0-.843.53-1.406 1.233-1.406.704 0 1.157.469 1.157 1.219V0H7.39v-4.64c0-.798.453-1.329 1.218-1.329.672 0 1.188.422 1.188 1.266V0h2.094v-5.11c0-1.656-.97-2.593-2.391-2.593-1.11 0-1.984.562-2.297 1.437h-.078c-.234-.875-1.016-1.437-2.063-1.437-1.03 0-1.796.547-2.125 1.437H2.86v-1.343H.844Zm0 0"/></symbol><symbol overflow="visible" id="af"><path style="stroke:none" d="M4.484 0c3.079 0 4.954-1.906 4.954-5.078 0-3.156-1.876-5.063-4.938-5.063H.875V0ZM3.031-1.844v-6.468h1.36c1.906 0 2.906.984 2.906 3.234 0 2.266-1 3.234-2.906 3.234Zm0 0"/></symbol><symbol overflow="visible" id="bC"><path style="stroke:none" d="M.875 0h6.86v-1.766H3.03v-2.421h4.33v-1.766H3.031v-2.422H7.72v-1.766H.875Zm0 0"/></symbol><symbol overflow="visible" id="bD"><path style="stroke:none" d="M2.61-7.61H.421l2.187 3.813L.344 0H2.53L4-2.625 5.5 0h2.156L5.391-3.797l2.203-3.812H5.437L4-4.953Zm0 0"/></symbol><symbol overflow="visible" id="bE"><path style="stroke:none" d="M.844 0h2.11v-7.61H.843Zm1.062-8.594c.625 0 1.14-.469 1.14-1.062 0-.594-.515-1.063-1.14-1.063-.625 0-1.14.469-1.14 1.063s.515 1.062 1.14 1.062Zm0 0"/></symbol><symbol overflow="visible" id="bF"><path style="stroke:none" d="M4.89-7.61H3.454v-1.827h-2.11v1.828H.314v1.593h1.03v3.954c0 1.5 1.016 2.234 2.548 2.171.53-.03.921-.14 1.14-.203l-.328-1.578c-.11.031-.328.078-.531.078-.422 0-.719-.156-.719-.75v-3.672h1.438Zm0 0"/></symbol><symbol overflow="visible" id="bG"><path style="stroke:none" d="M9.828-6.594c-.281-2.343-2.047-3.687-4.406-3.687-2.672 0-4.719 1.89-4.719 5.203C.703-1.766 2.72.14 5.422.14c2.61 0 4.172-1.735 4.406-3.594L7.656-3.47C7.453-2.375 6.61-1.766 5.47-1.766c-1.547 0-2.594-1.14-2.594-3.312 0-2.11 1.031-3.313 2.61-3.313 1.171 0 2.015.688 2.171 1.797Zm0 0"/></symbol><symbol overflow="visible" id="bU"><path style="stroke:none" d="M3.14-1.39H1.39l-.03.562C1.311.516.921 1.89.78 2.484h1.36c.234-.609.812-2.015.937-3.328Zm0 0"/></symbol><symbol overflow="visible" id="ag"><path style="stroke:none" d="M.578-7.766h2.735V0h1.062v-7.766h2.734v-.937H.58Zm0 0"/></symbol><symbol overflow="visible" id="ah"><path style="stroke:none" d="M1.922-3.922c0-1.14.719-1.797 1.719-1.797.937 0 1.515.61 1.515 1.64V0h1v-4.14c0-1.688-.89-2.47-2.234-2.47-1.016 0-1.61.423-1.922 1.094h-.078v-3.187h-1V0h1Zm0 0"/></symbol><symbol overflow="visible" id="ai"><path style="stroke:none" d="M3.656.14c1.328 0 2.297-.67 2.594-1.655l-.969-.265c-.25.672-.843 1.015-1.625 1.015-1.172 0-1.984-.765-2.031-2.156h4.734v-.422c0-2.437-1.453-3.265-2.812-3.265C1.78-6.61.609-5.22.609-3.22.609-1.204 1.766.14 3.656.14ZM1.625-3.796c.063-1.015.781-1.922 1.922-1.922 1.094 0 1.797.828 1.797 1.922Zm0 0"/></symbol><symbol overflow="visible" id="aj"><path style="stroke:none" d="M5.547-5.063C5.234-6 4.516-6.609 3.234-6.609 1.86-6.61.828-5.83.828-4.72c0 .89.547 1.5 1.735 1.782l1.093.25c.656.156.969.468.969.921 0 .563-.594 1.016-1.531 1.016-.813 0-1.328-.344-1.516-1.047l-.953.234C.859-.452 1.781.141 3.109.141c1.516 0 2.547-.829 2.547-1.954 0-.921-.562-1.484-1.734-1.78l-.969-.235c-.765-.188-1.11-.453-1.11-.953 0-.563.595-.969 1.391-.969.875 0 1.235.484 1.407.938Zm0 0"/></symbol><symbol overflow="visible" id="ak"><path style="stroke:none" d="M.922 0h1v-6.531h-1Zm.5-7.61c.39 0 .719-.312.719-.687 0-.375-.329-.672-.72-.672-.39 0-.702.297-.702.672 0 .375.312.688.703.688Zm0 0"/></symbol><symbol overflow="visible" id="al"><path style="stroke:none" d="M5.031-2.672c0 1.235-.937 1.781-1.687 1.781-.828 0-1.422-.609-1.422-1.562v-4.078h-1v4.156c0 1.656.875 2.453 2.11 2.453.984 0 1.624-.515 1.937-1.187h.062V0h1v-6.531h-1Zm0 0"/></symbol><symbol overflow="visible" id="am"><path style="stroke:none" d="M1.047 0h.969v-1h.125c.218.36.64 1.14 1.906 1.14 1.625 0 2.766-1.312 2.766-3.39 0-2.047-1.141-3.36-2.782-3.36-1.281 0-1.672.782-1.89 1.126h-.079v-3.22H1.048Zm1-3.266c0-1.453.64-2.453 1.86-2.453 1.28 0 1.905 1.078 1.905 2.453 0 1.391-.64 2.5-1.906 2.5-1.203 0-1.86-1.015-1.86-2.5Zm0 0"/></symbol><symbol overflow="visible" id="an"><path style="stroke:none" d="M.922 0h1v-4.078c0-.953.703-1.64 1.484-1.64.75 0 1.281.5 1.281 1.25V0H5.72v-4.25c0-.844.515-1.469 1.437-1.469.719 0 1.328.39 1.328 1.344V0h1v-4.375c0-1.531-.828-2.234-1.984-2.234-.938 0-1.625.421-1.953 1.093H5.47c-.313-.687-.89-1.093-1.75-1.093-.844 0-1.469.406-1.75 1.093h-.08V-6.53H.92Zm0 0"/></symbol><symbol overflow="visible" id="ao"><path style="stroke:none" d="M3.75-6.531H2.36v-1.563h-1v1.563H.374v.86h.984v4.077c0 1.14.922 1.672 1.766 1.672.375 0 .61-.062.75-.11l-.203-.905c-.078.015-.219.046-.438.046-.453 0-.875-.125-.875-.984v-3.797H3.75Zm0 0"/></symbol><symbol overflow="visible" id="ap"><path style="stroke:none" d="M3.39.14C4.64.14 5.063-.64 5.282-1h.125v1h.969v-8.703h-1v3.219h-.094c-.218-.344-.61-1.125-1.875-1.125C1.75-6.61.61-5.297.61-3.25.61-1.172 1.75.14 3.391.14Zm.126-.906c-1.25 0-1.907-1.109-1.907-2.5 0-1.375.641-2.453 1.907-2.453 1.234 0 1.875 1 1.875 2.453 0 1.485-.672 2.5-1.875 2.5Zm0 0"/></symbol><symbol overflow="visible" id="aq"><path style="stroke:none" d="M1.922-3.922c0-1.14.703-1.797 1.672-1.797.922 0 1.484.61 1.484 1.64V0h1.016v-4.14c0-1.673-.89-2.47-2.219-2.47-.984 0-1.594.438-1.906 1.094H1.89V-6.53H.92V0h1Zm0 0"/></symbol><symbol overflow="visible" id="ar"><path style="stroke:none" d="M.922 2.453h1V-1H2c.234.36.656 1.14 1.906 1.14 1.64 0 2.781-1.312 2.781-3.39 0-2.047-1.14-3.36-2.796-3.36-1.266 0-1.657.782-1.891 1.126h-.11v-1.047H.923Zm.984-5.719c0-1.453.64-2.453 1.875-2.453 1.266 0 1.89 1.078 1.89 2.453 0 1.391-.64 2.5-1.89 2.5-1.219 0-1.875-1.015-1.875-2.5Zm0 0"/></symbol><symbol overflow="visible" id="as"><path style="stroke:none" d="M2.844.156c1.14 0 1.734-.61 1.937-1.047h.047V0h1v-4.297c0-2.078-1.578-2.312-2.406-2.312-.985 0-2.11.343-2.625 1.53l.953.329c.219-.469.75-.984 1.703-.984.922 0 1.375.5 1.375 1.328v.031c0 .484-.5.453-1.687.594C1.937-3.61.609-3.344.609-1.86.61-.58 1.594.156 2.844.156Zm.14-.906c-.796 0-1.375-.36-1.375-1.047 0-.766.704-1.016 1.485-1.11.422-.046 1.562-.171 1.734-.374v.922c0 .812-.64 1.609-1.844 1.609Zm0 0"/></symbol><symbol overflow="visible" id="at"><path style="stroke:none" d="M.922 0h1v-4.125c0-.89.703-1.531 1.64-1.531.282 0 .547.047.626.062v-1.015c-.125-.016-.391-.016-.532-.016-.781 0-1.469.438-1.703 1.078h-.062v-.984H.92Zm0 0"/></symbol><symbol overflow="visible" id="au"><path style="stroke:none" d="M1.922-8.703h-1V0h1Zm0 0"/></symbol><symbol overflow="visible" id="av"><path style="stroke:none" d="M3.828-6.531H2.36v-.657c0-.656.282-.984.938-.984.297 0 .453.063.562.094l.282-.86c-.141-.078-.454-.171-.938-.171-.937 0-1.844.562-1.844 1.687v.89H.313v.86h1.046V0h1v-5.672h1.47Zm0 0"/></symbol><symbol overflow="visible" id="aw"><path style="stroke:none" d="M3.563.14c1.78 0 2.968-1.343 2.968-3.374 0-2.032-1.187-3.375-2.968-3.375C1.796-6.61.608-5.266.608-3.234.61-1.204 1.797.14 3.563.14Zm0-.906c-1.329 0-1.954-1.156-1.954-2.468 0-1.297.625-2.485 1.954-2.485 1.343 0 1.968 1.188 1.968 2.485 0 1.312-.625 2.468-1.968 2.468Zm0 0"/></symbol><symbol overflow="visible" id="ax"><path style="stroke:none" d="M6.375 2.453V-6.53h-.969v1.047h-.125c-.218-.344-.61-1.125-1.875-1.125C1.75-6.61.61-5.297.61-3.25.61-1.172 1.75.14 3.391.14 4.64.14 5.062-.64 5.28-1h.094v3.453Zm-.984-5.719c0 1.485-.672 2.5-1.875 2.5-1.25 0-1.907-1.109-1.907-2.5 0-1.375.641-2.453 1.907-2.453 1.234 0 1.875 1 1.875 2.453Zm0 0"/></symbol><symbol overflow="visible" id="ay"><path style="stroke:none" d="M3.547 2.578c1.562 0 2.828-.703 2.828-2.39v-6.72h-.969v1.048h-.11c-.218-.344-.624-1.125-1.89-1.125C1.75-6.61.61-5.297.61-3.297c0 2.031 1.188 3.188 2.782 3.188 1.265 0 1.671-.735 1.89-1.094h.094V.125c0 1.078-.766 1.578-1.828 1.578-1.172 0-1.594-.625-1.86-.984l-.796.562c.406.672 1.203 1.297 2.656 1.297ZM3.516-1c-1.25 0-1.907-.953-1.907-2.313 0-1.328.641-2.406 1.907-2.406 1.234 0 1.875 1 1.875 2.407C5.39-1.875 4.719-1 3.516-1Zm0 0"/></symbol><symbol overflow="visible" id="az"><path style="stroke:none" d="M3.734 0c2.657 0 4.157-1.656 4.157-4.375 0-2.703-1.5-4.328-4.032-4.328H1.047V0ZM2.11-.938v-6.828h1.688c2.031 0 3.078 1.282 3.078 3.391 0 2.125-1.047 3.438-3.203 3.438Zm0 0"/></symbol><symbol overflow="visible" id="aA"><path style="stroke:none" d="M3.563.14c1.453 0 2.406-.89 2.578-2.046h-1c-.188.718-.782 1.14-1.579 1.14-1.187 0-1.953-.984-1.953-2.5 0-1.484.782-2.453 1.954-2.453.89 0 1.421.547 1.578 1.14h1c-.172-1.218-1.204-2.03-2.594-2.03C1.78-6.61.609-5.22.609-3.234.61-1.281 1.734.14 3.563.14Zm0 0"/></symbol><symbol overflow="visible" id="aB"><path style="stroke:none" d="M1.047 0h1.062v-3.172h1.907c2.03 0 2.937-1.234 2.937-2.781 0-1.531-.906-2.75-2.953-2.75H1.047Zm1.062-4.11v-3.656h1.86c1.406 0 1.953.766 1.953 1.813S5.375-4.11 3.984-4.11Zm0 0"/></symbol><symbol overflow="visible" id="aC"><path style="stroke:none" d="M1.563 2.453c.906 0 1.546-.484 1.921-1.5L6.25-6.53H5.172L3.359-1.328h-.062L1.5-6.531H.406L2.828.03l-.187.516c-.375.984-.829 1.078-1.547.89l-.266.891c.11.047.39.125.735.125Zm0 0"/></symbol><symbol overflow="visible" id="aU"><path style="stroke:none" d="M1.656.063c.407 0 .75-.344.75-.766a.764.764 0 0 0-.75-.766.767.767 0 0 0 0 1.532Zm0-4.844c.407 0 .75-.344.75-.766a.764.764 0 0 0-.75-.766.767.767 0 0 0 0 1.532Zm0 0"/></symbol><symbol overflow="visible" id="aV"><path style="stroke:none" d="M1.047-8.703V0h1v-6.61h.078L4.844 0h.953l2.719-6.61h.093V0h.985v-8.703H8.328L5.375-1.484h-.11l-2.952-7.22Zm0 0"/></symbol><symbol overflow="visible" id="aW"><path style="stroke:none" d="m1.406 0 .875-2.469h3.531L6.688 0h1.094L4.594-8.703H3.5L.312 0Zm1.219-3.406 1.39-3.922h.063l1.39 3.922Zm0 0"/></symbol><symbol overflow="visible" id="aX"><path style="stroke:none" d="M6.25-6.531H5.172L3.359-1.328h-.062L1.5-6.531H.406L2.828 0h1.016Zm0 0"/></symbol><symbol overflow="visible" id="aY"><path style="stroke:none" d="M7.953-8.703H6.922v6.844h-.094l-4.75-6.844H1.047V0h1.062v-6.828h.079L6.938 0h1.015Zm0 0"/></symbol><symbol overflow="visible" id="bx"><path style="stroke:none" d="M4.39-8.703v6.219c0 1.093-.515 1.671-1.437 1.671-.828 0-1.422-.484-1.422-1.234H.5C.5-.703 1.531.125 2.953.125c1.516 0 2.485-.938 2.485-2.61v-6.218Zm0 0"/></symbol><symbol overflow="visible" id="by"><path style="stroke:none" d="M8.063-5.984c-.329-1.782-1.75-2.844-3.5-2.844C2.328-8.828.719-7.11.719-4.36c0 2.765 1.61 4.484 3.844 4.484 1.75 0 3.171-1.063 3.5-2.844H7C6.75-1.517 5.719-.86 4.562-.86c-1.593 0-2.828-1.235-2.828-3.5 0-2.25 1.235-3.485 2.829-3.485 1.156 0 2.187.657 2.437 1.86Zm0 0"/></symbol><symbol overflow="visible" id="bz"><path style="stroke:none" d="M4.656-4.813H.844v.922h3.812Zm0 0"/></symbol><symbol overflow="visible" id="bR"><path style="stroke:none" d="m.313-8.703 3.14 5.11V0H4.5v-3.594l3.156-5.11H6.438L4.03-4.64h-.11L1.517-8.703Zm0 0"/></symbol><symbol overflow="visible" id="aD"><path style="stroke:none" d="M3.938 2.531 1.5-3l2.438-5.516h-.61L.641-3l2.687 5.531Zm0 0"/></symbol><symbol overflow="visible" id="aO"><path style="stroke:none" d="M3.938-3 1.233-8.516H.641L3.078-3 .641 2.531h.593Zm0 0"/></symbol><symbol overflow="visible" id="aE"><path style="stroke:none" d="M.75 0h1.844v-2.828H4.14c2 0 3.171-1.188 3.171-2.922 0-1.734-1.14-2.953-3.125-2.953H.75Zm1.844-4.297v-2.906h1.25c1.062 0 1.578.578 1.578 1.453 0 .86-.516 1.453-1.578 1.453Zm0 0"/></symbol><symbol overflow="visible" id="aF"><path style="stroke:none" d="M2.531-3.781c0-.828.516-1.328 1.266-1.328.734 0 1.156.468 1.156 1.28V0h1.813v-4.156c0-1.532-.891-2.453-2.25-2.453-1 0-1.657.468-1.954 1.234h-.078v-3.328H.72V0h1.81Zm0 0"/></symbol><symbol overflow="visible" id="aG"><path style="stroke:none" d="M3.844 0c2.656 0 4.25-1.64 4.25-4.36 0-2.718-1.594-4.343-4.219-4.343H.75V0Zm-1.25-1.578v-5.547h1.172c1.64 0 2.5.828 2.5 2.766 0 1.937-.86 2.78-2.5 2.78Zm0 0"/></symbol><symbol overflow="visible" id="aH"><path style="stroke:none" d="M.719 0H2.53v-3.688c0-.812.594-1.359 1.39-1.359.25 0 .595.047.767.094v-1.61a3.447 3.447 0 0 0-.579-.062c-.718 0-1.328.422-1.562 1.234h-.063v-1.14H.72Zm0 0"/></symbol><symbol overflow="visible" id="aI"><path style="stroke:none" d="M3.672.125c1.984 0 3.219-1.36 3.219-3.36 0-2.03-1.235-3.374-3.22-3.374C1.689-6.61.454-5.266.454-3.234c0 2 1.234 3.359 3.219 3.359Zm.015-1.406c-.921 0-1.39-.828-1.39-1.969 0-1.14.469-1.984 1.39-1.984.891 0 1.36.843 1.36 1.984 0 1.14-.469 1.969-1.36 1.969Zm0 0"/></symbol><symbol overflow="visible" id="aJ"><path style="stroke:none" d="M3.656 2.578c1.875 0 3.203-.844 3.203-2.515v-6.594H5.063v1.093h-.079c-.234-.53-.765-1.171-1.859-1.171C1.687-6.61.485-5.5.485-3.281c0 2.172 1.171 3.187 2.64 3.187 1.047 0 1.625-.515 1.86-1.062h.077V.03c0 .906-.562 1.25-1.359 1.25-.797 0-1.203-.343-1.344-.734L.688.766c.203 1.03 1.218 1.812 2.968 1.812Zm.047-4.031c-.89 0-1.375-.703-1.375-1.828 0-1.11.485-1.89 1.375-1.89.875 0 1.375.75 1.375 1.89s-.5 1.828-1.375 1.828Zm0 0"/></symbol><symbol overflow="visible" id="aK"><path style="stroke:none" d="M2.578.125c.969 0 1.594-.422 1.922-1.031h.047V0h1.719v-4.406c0-1.547-1.329-2.203-2.782-2.203-1.562 0-2.593.75-2.843 1.937l1.687.14c.11-.437.5-.765 1.156-.765.61 0 .97.313.97.844v.031c0 .422-.454.484-1.579.594-1.297.11-2.453.547-2.453 2 0 1.297.922 1.953 2.156 1.953Zm.531-1.25c-.562 0-.968-.266-.968-.75 0-.516.421-.766 1.062-.86.39-.046 1.047-.14 1.266-.296v.703c0 .672-.578 1.203-1.36 1.203Zm0 0"/></symbol><symbol overflow="visible" id="aL"><path style="stroke:none" d="M.719 0H2.53v-3.922c0-.719.453-1.203 1.063-1.203.594 0 1 .406 1 1.047V0h1.75v-3.984c0-.672.39-1.141 1.047-1.141.578 0 1.015.36 1.015 1.094V0h1.797v-4.39c0-1.423-.844-2.22-2.047-2.22-.953 0-1.703.485-1.969 1.235H6.11c-.203-.766-.875-1.234-1.765-1.234-.875 0-1.547.468-1.813 1.234h-.078v-1.156H.72Zm0 0"/></symbol><symbol overflow="visible" id="aM"><path style="stroke:none" d="M8.031-8.703H6.203v5.469h-.078l-3.75-5.47H.75V0h1.844v-5.484h.062L6.453 0h1.578Zm0 0"/></symbol><symbol overflow="visible" id="aN"><path style="stroke:none" d="M3.703.125c1.61 0 2.703-.781 2.953-2l-1.672-.11c-.187.5-.656.766-1.25.766-.906 0-1.484-.61-1.484-1.578h4.438v-.5c0-2.219-1.344-3.312-3.063-3.312C1.703-6.61.453-5.25.453-3.234c0 2.062 1.234 3.359 3.25 3.359ZM2.25-3.922c.031-.75.61-1.344 1.406-1.344.781 0 1.328.563 1.328 1.344Zm0 0"/></symbol><symbol overflow="visible" id="aP"><path style="stroke:none" d="m2.25 0 .656-1.984h3.14L6.688 0h1.97l-3-8.703h-2.36L.28 0Zm1.125-3.422 1.063-3.297h.078l1.062 3.297Zm0 0"/></symbol><symbol overflow="visible" id="aQ"><path style="stroke:none" d="M3.125.11c1.063 0 1.61-.61 1.86-1.157h.077V0h1.782v-8.703H5.03v3.265h-.047c-.25-.53-.765-1.171-1.859-1.171C1.687-6.61.485-5.5.485-3.25.484-1.078 1.64.11 3.124.11Zm.578-1.438c-.89 0-1.375-.797-1.375-1.938 0-1.125.485-1.906 1.375-1.906.875 0 1.375.75 1.375 1.906 0 1.172-.5 1.938-1.375 1.938Zm0 0"/></symbol><symbol overflow="visible" id="aR"><path style="stroke:none" d="M6.813-6.531H4.89L3.547-1.86h-.078l-1.36-4.672H.203L2.484 0h2.047Zm0 0"/></symbol><symbol overflow="visible" id="aS"><path style="stroke:none" d="M.719 0H2.53v-6.531H.72Zm.906-7.375c.547 0 .984-.406.984-.906 0-.516-.437-.922-.984-.922-.531 0-.969.406-.969.922 0 .5.438.906.969.906Zm0 0"/></symbol><symbol overflow="visible" id="aT"><path style="stroke:none" d="M6.156-4.672C6-5.875 5.031-6.609 3.375-6.609c-1.672 0-2.766.765-2.766 2.03 0 .97.61 1.61 1.891 1.86l1.125.235c.563.109.828.312.844.64-.016.39-.438.672-1.063.672-.656 0-1.078-.281-1.187-.812l-1.781.093C.609-.64 1.671.125 3.39.125c1.703 0 2.906-.86 2.906-2.14 0-.954-.61-1.516-1.875-1.782L3.234-4.03c-.609-.125-.828-.344-.828-.657 0-.39.438-.64 1-.64.625 0 1 .344 1.094.766Zm0 0"/></symbol><symbol overflow="visible" id="bv"><path style="stroke:none" d="M8.438-5.656c-.25-2.016-1.766-3.172-3.782-3.172C2.36-8.828.61-7.203.61-4.36.61-1.516 2.33.125 4.656.125c2.235 0 3.578-1.484 3.782-3.094h-1.86c-.172.922-.906 1.453-1.89 1.453-1.329 0-2.22-.968-2.22-2.843 0-1.797.891-2.844 2.235-2.844 1 0 1.734.594 1.875 1.547Zm0 0"/></symbol><symbol overflow="visible" id="bw"><path style="stroke:none" d="M4.797-4.297H.813v1.438h3.984Zm0 0"/></symbol><symbol overflow="visible" id="bK"><path style="stroke:none" d="M.75 0h1.844v-3.078h1.344L5.593 0h2.031l-1.86-3.39c1-.422 1.548-1.282 1.548-2.47 0-1.734-1.141-2.843-3.125-2.843H.75Zm1.844-4.563v-2.64h1.25c1.062 0 1.578.469 1.578 1.344 0 .859-.516 1.296-1.578 1.296Zm0 0"/></symbol><symbol overflow="visible" id="bL"><path style="stroke:none" d="M.719 2.453H2.53v-3.5h.063C2.844-.5 3.39.11 4.438.11c1.484 0 2.656-1.187 2.656-3.359 0-2.25-1.219-3.36-2.64-3.36-1.095 0-1.626.641-1.86 1.173H2.5V-6.53H.719ZM2.5-3.266c0-1.156.484-1.906 1.375-1.906.89 0 1.36.781 1.36 1.906 0 1.141-.485 1.938-1.36 1.938C3-1.328 2.5-2.094 2.5-3.266Zm0 0"/></symbol><symbol overflow="visible" id="bM"><path style="stroke:none" d="M4.188-6.531h-1.22v-1.563H1.157v1.563h-.89v1.36h.89v3.405C1.141-.484 2.016.141 3.328.094c.469-.016.797-.11.985-.172L4.03-1.422a2.831 2.831 0 0 1-.453.047c-.36 0-.61-.125-.61-.625v-3.172h1.22Zm0 0"/></symbol><symbol overflow="visible" id="bN"><path style="stroke:none" d="M4.906-2.781c0 .875-.593 1.344-1.25 1.344-.672 0-1.125-.485-1.125-1.25v-3.844H.72v4.156C.734-.844 1.625.078 2.938.078c.984 0 1.687-.5 1.968-1.266h.078V0H6.72v-6.531H4.906Zm0 0"/></symbol><symbol overflow="visible" id="bP"><path style="stroke:none" d="M.75-8.703V0h1.797v-5.688h.062L4.86-.046h1.22l2.25-5.625h.077V0h1.781v-8.703H7.922L5.532-2.86h-.11l-2.39-5.844Zm0 0"/></symbol><symbol overflow="visible" id="bQ"><path style="stroke:none" d="M.75 0h1.797v-1.047h.078C2.875-.5 3.422.11 4.469.11c1.5 0 2.656-1.187 2.656-3.359 0-2.25-1.219-3.36-2.64-3.36-1.094 0-1.626.641-1.86 1.173h-.063v-3.266H.75Zm1.781-3.266c0-1.156.485-1.906 1.375-1.906s1.375.781 1.375 1.906c0 1.141-.484 1.938-1.375 1.938-.875 0-1.375-.766-1.375-1.938Zm0 0"/></symbol><symbol overflow="visible" id="aZ"><path style="stroke:none" d="M.344 0h.703l.422-2.594h2.515l.094-.625h-2.5l.328-1.953h2.766l.11-.625H1.296Zm0 0"/></symbol><symbol overflow="visible" id="ba"><path style="stroke:none" d="M3.281-1.781C3.141-.97 2.47-.594 1.97-.594c-.563 0-.875-.406-.782-1.031l.454-2.719H.969L.516-1.578C.328-.468.828.062 1.64.062a1.65 1.65 0 0 0 1.421-.796h.047L2.984 0h.672l.719-4.344h-.672Zm0 0"/></symbol><symbol overflow="visible" id="bb"><path style="stroke:none" d="M1.875-5.797h-.672L.25 0h.672Zm0 0"/></symbol><symbol overflow="visible" id="bc"><path style="stroke:none" d="M.344 0h.703l.344-2.11h1.265C4-2.11 4.75-2.937 4.922-3.952c.172-1.031-.313-1.844-1.656-1.844h-1.97ZM1.5-2.734l.406-2.438h1.235c.937 0 1.203.516 1.093 1.219-.109.687-.562 1.219-1.5 1.219Zm0 0"/></symbol><symbol overflow="visible" id="bd"><path style="stroke:none" d="M.25 0h.672l.453-2.75c.094-.594.625-1.016 1.266-1.016.171 0 .359.032.406.047l.11-.687h-.345c-.53 0-1.03.281-1.265.718H1.5l.125-.656H.969Zm0 0"/></symbol><symbol overflow="visible" id="be"><path style="stroke:none" d="M2.047.094c1.14 0 2.062-.875 2.281-2.203.219-1.375-.437-2.297-1.625-2.297-1.156 0-2.078.875-2.297 2.218C.187-.827.844.095 2.046.095Zm0-.61c-.875 0-1.125-.734-.985-1.593.141-.891.704-1.688 1.625-1.688.876 0 1.126.75 1 1.61-.156.89-.718 1.671-1.64 1.671Zm0 0"/></symbol><symbol overflow="visible" id="bf"><path style="stroke:none" d="M2.906-4.344h-.984L2-4.78c.078-.438.297-.657.734-.657.204 0 .297.047.36.063l.281-.578c-.078-.047-.281-.11-.61-.11-.609 0-1.28.375-1.39 1.125l-.11.594H.564L.47-3.78h.703L.547 0h.656l.625-3.781h.984Zm0 0"/></symbol><symbol overflow="visible" id="bg"><path style="stroke:none" d="M2.063.094C2.937.094 3.655-.344 3.968-1l-.61-.188c-.25.454-.671.672-1.203.672-.828 0-1.281-.359-1.125-1.437h3.172l.031-.281c.282-1.61-.593-2.172-1.5-2.172-1.171 0-2.109.937-2.328 2.265C.187-.797.812.094 2.062.094Zm-.938-2.61c.14-.625.781-1.28 1.516-1.28.718 0 1.093.53.968 1.28Zm0 0"/></symbol><symbol overflow="visible" id="bh"><path style="stroke:none" d="M3.89-3.375C3.782-4 3.376-4.406 2.517-4.406c-.907 0-1.672.531-1.797 1.265-.11.594.187.985.953 1.188l.687.172c.438.093.61.297.547.61-.062.374-.515.671-1.125.671-.547 0-.86-.234-.89-.703l-.672.156C.266-.313.797.093 1.703.093c1 0 1.781-.562 1.906-1.296.094-.625-.218-.984-.968-1.188l-.61-.156c-.5-.125-.703-.297-.64-.625.062-.375.5-.656 1.03-.656.595 0 .767.328.845.625Zm0 0"/></symbol><symbol overflow="visible" id="bi"><path style="stroke:none" d="M1.375-.797H.656l-.094.328C.36.297.063 1.047-.063 1.406h.516c.188-.375.625-1.25.828-1.89Zm0 0"/></symbol><symbol overflow="visible" id="bj"><path style="stroke:none" d="M5.89-5.797h-.687l-.75 4.563h-.062L1.984-5.797h-.687L.344 0h.703l.75-4.547h.062L4.25 0h.688Zm0 0"/></symbol><symbol overflow="visible" id="bk"><path style="stroke:none" d="M5.703-2.844C6-4.704 5.11-5.875 3.61-5.875 2.141-5.875.906-4.75.594-2.937.297-1.095 1.204.078 2.704.078c1.452 0 2.687-1.125 3-2.922Zm-.672-.094c-.25 1.532-1.234 2.36-2.312 2.36-1.016 0-1.703-.797-1.453-2.266.25-1.531 1.234-2.375 2.312-2.375 1.031 0 1.703.797 1.453 2.282Zm0 0"/></symbol><symbol overflow="visible" id="bl"><path style="stroke:none" d="M1.531-5.797H.797L1.969 0h.718l3.094-5.797h-.734L2.516-.922h-.063Zm0 0"/></symbol><symbol overflow="visible" id="bm"><path style="stroke:none" d="m.578 0 .86-1.64H3.78L4.078 0h.734L3.657-5.797h-.719L-.155 0Zm1.188-2.266 1.359-2.609h.047l.484 2.61Zm0 0"/></symbol><symbol overflow="visible" id="bn"><path style="stroke:none" d="m5.11-5.797-.641 3.781c-.125.844-.813 1.47-1.782 1.47-.968 0-1.453-.626-1.312-1.47L2-5.796h-.703L.672-1.954C.469-.766 1.203.109 2.578.109c1.36 0 2.39-.875 2.594-2.062l.625-3.844Zm0 0"/></symbol><symbol overflow="visible" id="bo"><path style="stroke:none" d="M1.344-2.61c.14-.765.672-1.187 1.312-1.187.625 0 .938.406.813 1.078L3.016 0h.671l.47-2.766c.171-1.109-.329-1.64-1.204-1.64-.656 0-1.125.297-1.39.734H1.5l.125-.672H.969L.25 0h.672Zm0 0"/></symbol><symbol overflow="visible" id="bp"><path style="stroke:none" d="M.25 0h.672l.719-4.344H.969Zm1.266-5.078c.25 0 .468-.203.468-.453a.467.467 0 0 0-.468-.453c-.266 0-.485.203-.485.453s.219.453.485.453Zm0 0"/></symbol><symbol overflow="visible" id="bq"><path style="stroke:none" d="M4.531-4.344h-.765L2-.875h-.047l-.625-3.469H.641L1.516 0h.671Zm0 0"/></symbol><symbol overflow="visible" id="br"><path style="stroke:none" d="M2.86-4.344h-.922l.171-1.047h-.671l-.172 1.047H.609l-.093.563h.656L.719-1.062c-.125.75.422 1.125.984 1.125.25 0 .422-.047.531-.079l-.046-.609a1.211 1.211 0 0 1-.297.031c-.297 0-.563-.078-.485-.656l.422-2.531h.938Zm0 0"/></symbol><symbol overflow="visible" id="bs"><path style="stroke:none" d="M.406 1.625c.594 0 1.078-.297 1.453-1l2.672-4.969h-.765L2-.875h-.047l-.625-3.469H.641L1.5 0l-.188.344C.954 1 .672 1.094.204.969l-.266.578c.063.031.25.078.47.078Zm0 0"/></symbol><symbol overflow="visible" id="bt"><path style="stroke:none" d="M.344 0h3.39l.094-.625H1.141L2-5.797h-.703Zm0 0"/></symbol><symbol overflow="visible" id="bu"><path style="stroke:none" d="M.344 0h.64l.11-.672h.078c.125.235.312.766 1.14.766 1.094 0 2-.875 2.22-2.25.234-1.375-.376-2.25-1.485-2.25-.844 0-1.188.531-1.375.75h-.047l.344-2.14h-.672Zm1.015-2.172c.157-.969.704-1.625 1.516-1.625.844 0 1.14.703 1 1.625-.172.922-.703 1.656-1.547 1.656-.797 0-1.125-.671-.969-1.656Zm0 0"/></symbol><symbol overflow="visible" id="bA"><path style="stroke:none" d="M2 .094c.969 0 1.688-.594 1.938-1.36h-.672a1.23 1.23 0 0 1-1.157.75c-.796 0-1.203-.656-1.03-1.656.155-.984.78-1.625 1.562-1.625.593 0 .89.36.921.75h.672c.016-.812-.578-1.36-1.5-1.36-1.171 0-2.109.938-2.328 2.25C.187-.843.781.094 2 .094Zm0 0"/></symbol><symbol overflow="visible" id="bB"><path style="stroke:none" d="M1.516.11c.765 0 1.218-.422 1.406-.704h.031L2.843 0h.673L4-2.86c.219-1.374-.797-1.546-1.36-1.546-.656 0-1.437.234-1.906 1.031l.594.219a1.484 1.484 0 0 1 1.266-.656c.61 0 .828.328.75.874v.032c-.063.312-.39.297-1.188.39-.828.11-1.734.282-1.906 1.282C.11-.391.688.109 1.516.109Zm.187-.61c-.531 0-.86-.234-.781-.703.078-.5.578-.656 1.11-.734.28-.032 1.046-.11 1.187-.25l-.11.609C3.016-1.031 2.5-.5 1.703-.5Zm0 0"/></symbol><symbol overflow="visible" id="bH"><path style="stroke:none" d="M5.656-3.984c-.015-1.188-.875-1.891-2.047-1.891C2.141-5.875.906-4.75.594-2.937.297-1.095 1.204.078 2.704.078c1.14 0 2.187-.703 2.608-1.89H4.61C4.297-1 3.516-.579 2.72-.579c-1.016 0-1.703-.797-1.453-2.266.25-1.531 1.234-2.375 2.312-2.375.75 0 1.36.438 1.39 1.235Zm0 0"/></symbol><symbol overflow="visible" id="bI"><path style="stroke:none" d="M.875-5.172h1.828L1.843 0h.704l.86-5.172h1.812l.11-.625H.983Zm0 0"/></symbol><symbol overflow="visible" id="bJ"><path style="stroke:none" d="M3.266-3.203H.734l-.093.625h2.53Zm0 0"/></symbol><symbol overflow="visible" id="bO"><path style="stroke:none" d="M1.344-2.61c.14-.765.687-1.187 1.343-1.187.626 0 .938.39.829 1.078L3.062 0h.672l.47-2.766c.171-1.109-.329-1.64-1.22-1.64-.687 0-1.125.281-1.406.734h-.047l.344-2.125h-.672L.25 0h.672Zm0 0"/></symbol><symbol overflow="visible" id="bS"><path style="stroke:none" d="M4.594 2.953 1.75-3.5l2.844-6.453H3.89L.734-3.5l3.157 6.453Zm0 0"/></symbol><symbol overflow="visible" id="bT"><path style="stroke:none" d="M4.594-3.5 1.437-9.953H.735L3.594-3.5.734 2.953h.704Zm0 0"/></symbol><clipPath id="a"><path d="M143 57.066h11V78h-11Zm0 0"/></clipPath><clipPath id="b"><path d="M203 61h12.84v18H203Zm0 0"/></clipPath><clipPath id="c"><path d="M74.133 57.066H120V111.7H74.133Zm0 0"/></clipPath></defs><path style="stroke:none;fill-rule:nonzero;fill:#fff;fill-opacity:1" d="M0 842.09h595.277V.2H0Zm0 0"/><path style="stroke:none;fill-rule:nonzero;fill:#424a52;fill-opacity:1" d="M134.21 64.7h-4.519v-2.657h12.102v2.656h-4.52v13.285h-3.062Zm0 0"/><g clip-path="url(#a)"><path style="stroke:none;fill-rule:nonzero;fill:#424a52;fill-opacity:1" d="M147.238 59.387c1.14-.696 2.258-1.39 3.23-2.133l1.145 1.773c-1.093.79-1.996 1.317-3.308 1.985Zm-3.379 2.656h9.914v2.656h-6.851v3.856h6.316v2.656h-6.316v4.117h6.851v2.656h-9.914Zm0 0"/></g><path style="stroke:none;fill-rule:nonzero;fill:#424a52;fill-opacity:1" d="M156.203 66.422c0-2.922 1.727-4.621 5.762-4.621 1.508 0 3.062.191 4.398.527l-.34 2.61c-1.312-.239-2.843-.407-3.96-.407-2.118 0-2.797.719-2.797 2.418v6.13c0 1.698.68 2.417 2.797 2.417 1.117 0 2.648-.168 3.96-.41l.34 2.61a18.58 18.58 0 0 1-4.398.527c-4.035 0-5.762-1.7-5.762-4.618Zm15.703-.527v12.09h-2.992V62.042h4.082l6.152 12.11v-12.11h2.989v15.941h-4.082Zm16.696 12.089h-3.063V62.043h3.063Zm3.035-11.562c0-2.922 1.726-4.621 5.761-4.621 1.508 0 3.063.191 4.399.527l-.34 2.61c-1.312-.239-2.844-.407-3.96-.407-2.114 0-2.798.719-2.798 2.418v6.13c0 1.698.684 2.417 2.797 2.417 1.117 0 2.649-.168 3.961-.41l.34 2.61c-1.336.335-2.89.527-4.399.527-4.035 0-5.761-1.7-5.761-4.618Zm0 0"/><g clip-path="url(#b)"><path style="stroke:none;fill-rule:nonzero;fill:#424a52;fill-opacity:1" d="M206.684 73.148c0 1.508.777 2.418 3.058 2.418 2.285 0 3.063-.91 3.063-2.418v-6.27c0-1.507-.778-2.417-3.063-2.417-2.281 0-3.058.91-3.058 2.418Zm9.183.168c0 2.657-1.554 4.907-6.125 4.907-4.566 0-6.12-2.25-6.12-4.907v-6.605c0-2.66 1.554-4.91 6.12-4.91 4.57 0 6.125 2.25 6.125 4.91Zm0 0"/></g><path style="stroke:none;fill-rule:nonzero;fill:#424a52;fill-opacity:1" d="M135.574 96.84h7.293v1.27h-8.726V82.167h1.433Zm11.985 1.27h-1.434V82.167h1.434Zm8.554.238c-1.41 0-3.183-.239-4.57-.762l.266-1.152c1.46.433 2.941.648 4.351.648 2.77 0 3.524-.816 3.524-2.852 0-2.464-.024-2.726-3.621-3.543-3.91-.882-4.348-1.578-4.348-4.785 0-2.609.969-3.972 5.027-3.972 1.41 0 3.09.238 4.184.55l-.172 1.196c-1.191-.262-2.7-.48-3.961-.48-3.211 0-3.645.769-3.645 2.753 0 2.586.07 2.707 3.473 3.543 4.254 1.055 4.496 1.653 4.496 4.668 0 2.61-.898 4.188-5.004 4.188m17.497-5.528c0-1.34-.801-2.25-2.673-2.25h-4.519v6.297h4.934c1.527 0 2.257-.742 2.257-2.012Zm-.512-7.707c0-1.101-.63-1.699-2.016-1.699h-4.664v5.91h4.18c1.773 0 2.5-.91 2.5-2.176ZM164.98 98.11V82.168h6.079c2.187 0 3.476 1.031 3.476 3.137v1.914c0 1.27-.535 2.105-1.847 2.586 1.261.168 2.355 1.195 2.355 2.968v2.082c0 2.204-1.629 3.254-3.719 3.254Zm22.97-4.547v-6.848c0-2.274-1.118-3.52-4.231-3.52-3.11 0-4.227 1.246-4.227 3.52v6.847c0 2.274 1.117 3.52 4.227 3.52 3.113 0 4.23-1.246 4.23-3.52m-4.23 4.786c-4.156 0-5.664-2.008-5.664-4.739v-6.941c0-2.727 1.507-4.738 5.664-4.738 4.156 0 5.664 2.011 5.664 4.738v6.941c0 2.73-1.508 4.739-5.664 4.739M195.02 92.7h6.66l-3.328-9.72Zm7.097 1.222h-7.531l-1.508 4.187h-1.41l5.637-15.941h2.117l5.637 15.941h-1.41Zm0 0"/><g clip-path="url(#c)"><path style="stroke:none;fill-rule:evenodd;fill:#00adef;fill-opacity:1" d="M96.75 111.7s-22.617-11.095-22.617-31.805V56.89h45.316v23.004c0 20.71-22.699 31.804-22.699 31.804"/></g><path style="stroke:none;fill-rule:nonzero;fill:#fff;fill-opacity:1" d="M108.855 74.195h-1.886v14.188h-4.086V74.195h-1.88v-2.843h7.852Zm-18.23 14.176h-4.082l.004-17.02h4.074Zm0 0"/><path style="stroke:none;fill-rule:nonzero;fill:#fff;fill-opacity:1" d="M100.828 61.707c-3.379 0-6.113 1.75-6.113 5.129l-.004 26.07c0 2.864 0 4.281-2.031 4.281-1.89 0-2.055-1.414-2.055-3.5a2.038 2.038 0 0 0-2.043-2.035c-1.121 0-2.035.91-2.035 2.035h-.004c0 2.872 2.762 4.348 6.137 4.348 3.379 0 6.117-1.75 6.117-5.129v-26.07c0-2.86 0-4.277 2.031-4.277 1.89 0 2.055 1.414 2.055 3.496h.004a2.04 2.04 0 0 0 2.039 2.039 2.04 2.04 0 0 0 2.039-2.04h.004c0-2.87-2.762-4.347-6.14-4.347"/><use xlink:href="#d" x="208.442" y="138.621" style="fill:#000;fill-opacity:1"/><use xlink:href="#e" x="220.065" y="138.621" style="fill:#000;fill-opacity:1"/><use xlink:href="#f" x="231.783" y="138.621" style="fill:#000;fill-opacity:1"/><use xlink:href="#g" x="236.258" y="138.621" style="fill:#000;fill-opacity:1"/><use xlink:href="#h" x="248.179" y="138.621" style="fill:#000;fill-opacity:1"/><use xlink:href="#i" x="257.941" y="138.621" style="fill:#000;fill-opacity:1"/><use xlink:href="#j" x="268.403" y="138.621" style="fill:#000;fill-opacity:1"/><use xlink:href="#f" x="278.84" y="138.621" style="fill:#000;fill-opacity:1"/><use xlink:href="#k" x="283.315" y="138.621" style="fill:#000;fill-opacity:1"/><use xlink:href="#l" x="293.964" y="138.621" style="fill:#000;fill-opacity:1"/><use xlink:href="#m" x="309.211" y="138.621" style="fill:#000;fill-opacity:1"/><use xlink:href="#n" x="321.675" y="138.621" style="fill:#000;fill-opacity:1"/><use xlink:href="#o" x="334.694" y="138.621" style="fill:#000;fill-opacity:1"/><use xlink:href="#f" x="343.737" y="138.621" style="fill:#000;fill-opacity:1"/><use xlink:href="#j" x="348.212" y="138.621" style="fill:#000;fill-opacity:1"/><use xlink:href="#p" x="358.649" y="138.621" style="fill:#000;fill-opacity:1"/><use xlink:href="#m" x="369.182" y="138.621" style="fill:#000;fill-opacity:1"/><use xlink:href="#e" x="381.647" y="138.621" style="fill:#000;fill-opacity:1"/><use xlink:href="#f" x="177.36" y="163.626" style="fill:#000;fill-opacity:1"/><use xlink:href="#e" x="181.829" y="163.626" style="fill:#000;fill-opacity:1"/><use xlink:href="#j" x="193.547" y="163.626" style="fill:#000;fill-opacity:1"/><use xlink:href="#k" x="203.984" y="163.626" style="fill:#000;fill-opacity:1"/><use xlink:href="#f" x="214.639" y="163.626" style="fill:#000;fill-opacity:1"/><use xlink:href="#k" x="219.108" y="163.626" style="fill:#000;fill-opacity:1"/><use xlink:href="#d" x="229.763" y="163.626" style="fill:#000;fill-opacity:1"/><use xlink:href="#k" x="241.392" y="163.626" style="fill:#000;fill-opacity:1"/><use xlink:href="#m" x="251.526" y="163.626" style="fill:#000;fill-opacity:1"/><use xlink:href="#j" x="267.687" y="163.626" style="fill:#000;fill-opacity:1"/><use xlink:href="#d" x="278.13" y="163.626" style="fill:#000;fill-opacity:1"/><use xlink:href="#q" x="289.753" y="163.626" style="fill:#000;fill-opacity:1"/><use xlink:href="#h" x="300.076" y="163.626" style="fill:#000;fill-opacity:1"/><use xlink:href="#i" x="309.844" y="163.626" style="fill:#000;fill-opacity:1"/><use xlink:href="#f" x="320.307" y="163.626" style="fill:#000;fill-opacity:1"/><use xlink:href="#m" x="324.776" y="163.626" style="fill:#000;fill-opacity:1"/><use xlink:href="#i" x="337.241" y="163.626" style="fill:#000;fill-opacity:1"/><use xlink:href="#k" x="351.399" y="163.626" style="fill:#000;fill-opacity:1"/><use xlink:href="#r" x="362.049" y="163.626" style="fill:#000;fill-opacity:1"/><use xlink:href="#s" x="371.817" y="163.626" style="fill:#000;fill-opacity:1"/><use xlink:href="#e" x="383.806" y="163.626" style="fill:#000;fill-opacity:1"/><use xlink:href="#f" x="395.524" y="163.626" style="fill:#000;fill-opacity:1"/><use xlink:href="#s" x="399.993" y="163.626" style="fill:#000;fill-opacity:1"/><use xlink:href="#m" x="411.983" y="163.626" style="fill:#000;fill-opacity:1"/><use xlink:href="#t" x="178.866" y="210.857" style="fill:#000;fill-opacity:1"/><use xlink:href="#u" x="196.435" y="210.857" style="fill:#000;fill-opacity:1"/><use xlink:href="#v" x="208.731" y="210.857" style="fill:#000;fill-opacity:1"/><use xlink:href="#w" x="219.447" y="210.857" style="fill:#000;fill-opacity:1"/><use xlink:href="#x" x="227.081" y="210.857" style="fill:#000;fill-opacity:1"/><use xlink:href="#y" x="241.746" y="210.857" style="fill:#000;fill-opacity:1"/><use xlink:href="#z" x="251.925" y="210.857" style="fill:#000;fill-opacity:1"/><use xlink:href="#A" x="262.927" y="210.857" style="fill:#000;fill-opacity:1"/><use xlink:href="#B" x="274.083" y="210.857" style="fill:#000;fill-opacity:1"/><use xlink:href="#C" x="289.59" y="210.857" style="fill:#000;fill-opacity:1"/><use xlink:href="#A" x="299.998" y="210.857" style="fill:#000;fill-opacity:1"/><use xlink:href="#D" x="311.147" y="210.857" style="fill:#000;fill-opacity:1"/><use xlink:href="#E" x="326.7" y="210.857" style="fill:#000;fill-opacity:1"/><use xlink:href="#F" x="331.728" y="210.857" style="fill:#000;fill-opacity:1"/><use xlink:href="#G" x="348.087" y="210.857" style="fill:#000;fill-opacity:1"/><use xlink:href="#w" x="359.426" y="210.857" style="fill:#000;fill-opacity:1"/><use xlink:href="#v" x="366.295" y="210.857" style="fill:#000;fill-opacity:1"/><use xlink:href="#H" x="377.017" y="210.857" style="fill:#000;fill-opacity:1"/><use xlink:href="#H" x="387.09" y="210.857" style="fill:#000;fill-opacity:1"/><use xlink:href="#I" x="397.163" y="210.857" style="fill:#000;fill-opacity:1"/><use xlink:href="#J" x="402.041" y="210.857" style="fill:#000;fill-opacity:1"/><use xlink:href="#v" x="412.223" y="210.857" style="fill:#000;fill-opacity:1"/><use xlink:href="#K" x="140.959" y="235.027" style="fill:#000;fill-opacity:1"/><use xlink:href="#L" x="152.939" y="235.027" style="fill:#000;fill-opacity:1"/><use xlink:href="#v" x="164.137" y="235.027" style="fill:#000;fill-opacity:1"/><use xlink:href="#H" x="174.852" y="235.027" style="fill:#000;fill-opacity:1"/><use xlink:href="#I" x="184.925" y="235.027" style="fill:#000;fill-opacity:1"/><use xlink:href="#H" x="189.803" y="235.027" style="fill:#000;fill-opacity:1"/><use xlink:href="#K" x="204.041" y="235.027" style="fill:#000;fill-opacity:1"/><use xlink:href="#I" x="216.022" y="235.027" style="fill:#000;fill-opacity:1"/><use xlink:href="#M" x="220.9" y="235.027" style="fill:#000;fill-opacity:1"/><use xlink:href="#N" x="228.074" y="235.027" style="fill:#000;fill-opacity:1"/><use xlink:href="#v" x="232.952" y="235.027" style="fill:#000;fill-opacity:1"/><use xlink:href="#O" x="247.826" y="235.027" style="fill:#000;fill-opacity:1"/><use xlink:href="#I" x="263.072" y="235.027" style="fill:#000;fill-opacity:1"/><use xlink:href="#M" x="267.95" y="235.027" style="fill:#000;fill-opacity:1"/><use xlink:href="#L" x="275.123" y="235.027" style="fill:#000;fill-opacity:1"/><use xlink:href="#C" x="290.473" y="235.027" style="fill:#000;fill-opacity:1"/><use xlink:href="#P" x="305.038" y="235.027" style="fill:#000;fill-opacity:1"/><use xlink:href="#z" x="314.813" y="235.027" style="fill:#000;fill-opacity:1"/><use xlink:href="#w" x="325.821" y="235.027" style="fill:#000;fill-opacity:1"/><use xlink:href="#Q" x="332.69" y="235.027" style="fill:#000;fill-opacity:1"/><use xlink:href="#v" x="343.219" y="235.027" style="fill:#000;fill-opacity:1"/><use xlink:href="#D" x="353.941" y="235.027" style="fill:#000;fill-opacity:1"/><use xlink:href="#y" x="369.488" y="235.027" style="fill:#000;fill-opacity:1"/><use xlink:href="#I" x="379.668" y="235.027" style="fill:#000;fill-opacity:1"/><use xlink:href="#A" x="384.546" y="235.027" style="fill:#000;fill-opacity:1"/><use xlink:href="#v" x="395.695" y="235.027" style="fill:#000;fill-opacity:1"/><use xlink:href="#R" x="410.569" y="235.027" style="fill:#000;fill-opacity:1"/><use xlink:href="#w" x="422.426" y="235.027" style="fill:#000;fill-opacity:1"/><use xlink:href="#v" x="429.295" y="235.027" style="fill:#000;fill-opacity:1"/><use xlink:href="#C" x="440.011" y="235.027" style="fill:#000;fill-opacity:1"/><use xlink:href="#S" x="450.418" y="235.027" style="fill:#000;fill-opacity:1"/><use xlink:href="#T" x="213.685" y="278.667" style="fill:#000;fill-opacity:1"/><use xlink:href="#U" x="221.635" y="278.667" style="fill:#000;fill-opacity:1"/><use xlink:href="#V" x="230.191" y="278.667" style="fill:#000;fill-opacity:1"/><use xlink:href="#W" x="238.9" y="278.667" style="fill:#000;fill-opacity:1"/><use xlink:href="#X" x="250.806" y="278.667" style="fill:#000;fill-opacity:1"/><use xlink:href="#Y" x="260.37" y="278.667" style="fill:#000;fill-opacity:1"/><use xlink:href="#Z" x="268.705" y="278.667" style="fill:#000;fill-opacity:1"/><use xlink:href="#aa" x="274.647" y="278.667" style="fill:#000;fill-opacity:1"/><use xlink:href="#ab" x="286.053" y="278.667" style="fill:#000;fill-opacity:1"/><use xlink:href="#U" x="293.966" y="278.667" style="fill:#000;fill-opacity:1"/><use xlink:href="#W" x="302.527" y="278.667" style="fill:#000;fill-opacity:1"/><use xlink:href="#ac" x="311.199" y="278.667" style="fill:#000;fill-opacity:1"/><use xlink:href="#W" x="320.031" y="278.667" style="fill:#000;fill-opacity:1"/><use xlink:href="#ad" x="328.703" y="278.667" style="fill:#000;fill-opacity:1"/><use xlink:href="#ae" x="336.793" y="278.667" style="fill:#000;fill-opacity:1"/><use xlink:href="#Y" x="349.517" y="278.667" style="fill:#000;fill-opacity:1"/><use xlink:href="#af" x="361.085" y="278.667" style="fill:#000;fill-opacity:1"/><use xlink:href="#U" x="371.231" y="278.667" style="fill:#000;fill-opacity:1"/><use xlink:href="#Y" x="379.787" y="278.667" style="fill:#000;fill-opacity:1"/><use xlink:href="#ag" x="90.077" y="326.345" style="fill:#000;fill-opacity:1"/><use xlink:href="#ah" x="97.749" y="326.345" style="fill:#000;fill-opacity:1"/><use xlink:href="#ai" x="104.817" y="326.345" style="fill:#000;fill-opacity:1"/><use xlink:href="#aj" x="111.777" y="326.345" style="fill:#000;fill-opacity:1"/><use xlink:href="#ak" x="118.025" y="326.345" style="fill:#000;fill-opacity:1"/><use xlink:href="#aj" x="120.862" y="326.345" style="fill:#000;fill-opacity:1"/><use xlink:href="#aj" x="130.476" y="326.345" style="fill:#000;fill-opacity:1"/><use xlink:href="#al" x="136.724" y="326.345" style="fill:#000;fill-opacity:1"/><use xlink:href="#am" x="143.67" y="326.345" style="fill:#000;fill-opacity:1"/><use xlink:href="#an" x="151.089" y="326.345" style="fill:#000;fill-opacity:1"/><use xlink:href="#ak" x="161.484" y="326.345" style="fill:#000;fill-opacity:1"/><use xlink:href="#ao" x="164.32" y="326.345" style="fill:#000;fill-opacity:1"/><use xlink:href="#ao" x="168.666" y="326.345" style="fill:#000;fill-opacity:1"/><use xlink:href="#ai" x="172.944" y="326.345" style="fill:#000;fill-opacity:1"/><use xlink:href="#ap" x="179.908" y="326.345" style="fill:#000;fill-opacity:1"/><use xlink:href="#ak" x="190.69" y="326.345" style="fill:#000;fill-opacity:1"/><use xlink:href="#aq" x="193.527" y="326.345" style="fill:#000;fill-opacity:1"/><use xlink:href="#ar" x="203.887" y="326.345" style="fill:#000;fill-opacity:1"/><use xlink:href="#as" x="211.174" y="326.345" style="fill:#000;fill-opacity:1"/><use xlink:href="#at" x="217.915" y="326.345" style="fill:#000;fill-opacity:1"/><use xlink:href="#ao" x="222.768" y="326.345" style="fill:#000;fill-opacity:1"/><use xlink:href="#ak" x="227.118" y="326.345" style="fill:#000;fill-opacity:1"/><use xlink:href="#as" x="229.955" y="326.345" style="fill:#000;fill-opacity:1"/><use xlink:href="#au" x="236.696" y="326.345" style="fill:#000;fill-opacity:1"/><use xlink:href="#av" x="242.895" y="326.345" style="fill:#000;fill-opacity:1"/><use xlink:href="#al" x="247.208" y="326.345" style="fill:#000;fill-opacity:1"/><use xlink:href="#au" x="254.153" y="326.345" style="fill:#000;fill-opacity:1"/><use xlink:href="#av" x="256.99" y="326.345" style="fill:#000;fill-opacity:1"/><use xlink:href="#ak" x="261.303" y="326.345" style="fill:#000;fill-opacity:1"/><use xlink:href="#au" x="264.14" y="326.345" style="fill:#000;fill-opacity:1"/><use xlink:href="#au" x="266.972" y="326.345" style="fill:#000;fill-opacity:1"/><use xlink:href="#an" x="269.809" y="326.345" style="fill:#000;fill-opacity:1"/><use xlink:href="#ai" x="280.203" y="326.345" style="fill:#000;fill-opacity:1"/><use xlink:href="#aq" x="287.163" y="326.345" style="fill:#000;fill-opacity:1"/><use xlink:href="#ao" x="294.16" y="326.345" style="fill:#000;fill-opacity:1"/><use xlink:href="#aw" x="301.873" y="326.345" style="fill:#000;fill-opacity:1"/><use xlink:href="#av" x="309.003" y="326.345" style="fill:#000;fill-opacity:1"/><use xlink:href="#ao" x="316.678" y="326.345" style="fill:#000;fill-opacity:1"/><use xlink:href="#ah" x="321.164" y="326.345" style="fill:#000;fill-opacity:1"/><use xlink:href="#ai" x="328.228" y="326.345" style="fill:#000;fill-opacity:1"/><use xlink:href="#at" x="338.55" y="326.345" style="fill:#000;fill-opacity:1"/><use xlink:href="#ai" x="342.797" y="326.345" style="fill:#000;fill-opacity:1"/><use xlink:href="#ax" x="349.761" y="326.345" style="fill:#000;fill-opacity:1"/><use xlink:href="#al" x="357.043" y="326.345" style="fill:#000;fill-opacity:1"/><use xlink:href="#ak" x="363.989" y="326.345" style="fill:#000;fill-opacity:1"/><use xlink:href="#at" x="366.826" y="326.345" style="fill:#000;fill-opacity:1"/><use xlink:href="#ai" x="371.072" y="326.345" style="fill:#000;fill-opacity:1"/><use xlink:href="#an" x="378.036" y="326.345" style="fill:#000;fill-opacity:1"/><use xlink:href="#ai" x="388.426" y="326.345" style="fill:#000;fill-opacity:1"/><use xlink:href="#aq" x="395.39" y="326.345" style="fill:#000;fill-opacity:1"/><use xlink:href="#ao" x="402.388" y="326.345" style="fill:#000;fill-opacity:1"/><use xlink:href="#aj" x="406.614" y="326.345" style="fill:#000;fill-opacity:1"/><use xlink:href="#av" x="416.225" y="326.345" style="fill:#000;fill-opacity:1"/><use xlink:href="#aw" x="420.27" y="326.345" style="fill:#000;fill-opacity:1"/><use xlink:href="#at" x="427.401" y="326.345" style="fill:#000;fill-opacity:1"/><use xlink:href="#ao" x="435.213" y="326.345" style="fill:#000;fill-opacity:1"/><use xlink:href="#ah" x="439.695" y="326.345" style="fill:#000;fill-opacity:1"/><use xlink:href="#ai" x="446.758" y="326.345" style="fill:#000;fill-opacity:1"/><use xlink:href="#ap" x="457.085" y="326.345" style="fill:#000;fill-opacity:1"/><use xlink:href="#ai" x="464.505" y="326.345" style="fill:#000;fill-opacity:1"/><use xlink:href="#ay" x="471.469" y="326.345" style="fill:#000;fill-opacity:1"/><use xlink:href="#at" x="478.752" y="326.345" style="fill:#000;fill-opacity:1"/><use xlink:href="#ai" x="482.998" y="326.345" style="fill:#000;fill-opacity:1"/><use xlink:href="#ai" x="489.962" y="326.345" style="fill:#000;fill-opacity:1"/><use xlink:href="#aw" x="500.285" y="326.345" style="fill:#000;fill-opacity:1"/><use xlink:href="#av" x="507.419" y="326.345" style="fill:#000;fill-opacity:1"/><use xlink:href="#az" x="172.543" y="348.997" style="fill:#000;fill-opacity:1"/><use xlink:href="#aw" x="181.135" y="348.997" style="fill:#000;fill-opacity:1"/><use xlink:href="#aA" x="188.266" y="348.997" style="fill:#000;fill-opacity:1"/><use xlink:href="#ao" x="194.94" y="348.997" style="fill:#000;fill-opacity:1"/><use xlink:href="#aw" x="199.218" y="348.997" style="fill:#000;fill-opacity:1"/><use xlink:href="#at" x="206.353" y="348.997" style="fill:#000;fill-opacity:1"/><use xlink:href="#aw" x="214.165" y="348.997" style="fill:#000;fill-opacity:1"/><use xlink:href="#av" x="221.296" y="348.997" style="fill:#000;fill-opacity:1"/><use xlink:href="#aB" x="228.971" y="348.997" style="fill:#000;fill-opacity:1"/><use xlink:href="#ah" x="236.561" y="348.997" style="fill:#000;fill-opacity:1"/><use xlink:href="#ak" x="243.625" y="348.997" style="fill:#000;fill-opacity:1"/><use xlink:href="#au" x="246.462" y="348.997" style="fill:#000;fill-opacity:1"/><use xlink:href="#aw" x="249.299" y="348.997" style="fill:#000;fill-opacity:1"/><use xlink:href="#aj" x="256.429" y="348.997" style="fill:#000;fill-opacity:1"/><use xlink:href="#aw" x="262.682" y="348.997" style="fill:#000;fill-opacity:1"/><use xlink:href="#ar" x="269.812" y="348.997" style="fill:#000;fill-opacity:1"/><use xlink:href="#ah" x="277.099" y="348.997" style="fill:#000;fill-opacity:1"/><use xlink:href="#aC" x="283.926" y="348.997" style="fill:#000;fill-opacity:1"/><use xlink:href="#ak" x="293.944" y="348.997" style="fill:#000;fill-opacity:1"/><use xlink:href="#aq" x="296.781" y="348.997" style="fill:#000;fill-opacity:1"/><use xlink:href="#aD" x="307.141" y="348.997" style="fill:#000;fill-opacity:1"/><use xlink:href="#aE" x="311.708" y="348.997" style="fill:#000;fill-opacity:1"/><use xlink:href="#aF" x="319.45" y="348.997" style="fill:#000;fill-opacity:1"/><use xlink:href="#aG" x="326.911" y="348.997" style="fill:#000;fill-opacity:1"/><use xlink:href="#aE" x="338.379" y="348.997" style="fill:#000;fill-opacity:1"/><use xlink:href="#aH" x="346.122" y="348.997" style="fill:#000;fill-opacity:1"/><use xlink:href="#aI" x="350.705" y="348.997" style="fill:#000;fill-opacity:1"/><use xlink:href="#aJ" x="358.04" y="348.997" style="fill:#000;fill-opacity:1"/><use xlink:href="#aH" x="365.61" y="348.997" style="fill:#000;fill-opacity:1"/><use xlink:href="#aK" x="370.313" y="348.997" style="fill:#000;fill-opacity:1"/><use xlink:href="#aL" x="377.251" y="348.997" style="fill:#000;fill-opacity:1"/><use xlink:href="#aM" x="390.925" y="348.997" style="fill:#000;fill-opacity:1"/><use xlink:href="#aK" x="399.714" y="348.997" style="fill:#000;fill-opacity:1"/><use xlink:href="#aL" x="406.652" y="348.997" style="fill:#000;fill-opacity:1"/><use xlink:href="#aN" x="417.554" y="348.997" style="fill:#000;fill-opacity:1"/><use xlink:href="#aO" x="424.7" y="348.997" style="fill:#000;fill-opacity:1"/><use xlink:href="#aP" x="123.762" y="427.294" style="fill:#000;fill-opacity:1"/><use xlink:href="#aQ" x="132.397" y="427.294" style="fill:#000;fill-opacity:1"/><use xlink:href="#aR" x="139.989" y="427.294" style="fill:#000;fill-opacity:1"/><use xlink:href="#aS" x="146.993" y="427.294" style="fill:#000;fill-opacity:1"/><use xlink:href="#aT" x="150.245" y="427.294" style="fill:#000;fill-opacity:1"/><use xlink:href="#aN" x="156.965" y="427.294" style="fill:#000;fill-opacity:1"/><use xlink:href="#aH" x="164.109" y="427.294" style="fill:#000;fill-opacity:1"/><use xlink:href="#aU" x="168.997" y="427.294" style="fill:#000;fill-opacity:1"/><use xlink:href="#aV" x="179.015" y="427.294" style="fill:#000;fill-opacity:1"/><use xlink:href="#as" x="189.646" y="427.294" style="fill:#000;fill-opacity:1"/><use xlink:href="#at" x="196.387" y="427.294" style="fill:#000;fill-opacity:1"/><use xlink:href="#aC" x="201.041" y="427.294" style="fill:#000;fill-opacity:1"/><use xlink:href="#az" x="211.06" y="427.294" style="fill:#000;fill-opacity:1"/><use xlink:href="#aw" x="219.651" y="427.294" style="fill:#000;fill-opacity:1"/><use xlink:href="#ai" x="226.786" y="427.294" style="fill:#000;fill-opacity:1"/><use xlink:href="#aW" x="237.109" y="427.294" style="fill:#000;fill-opacity:1"/><use xlink:href="#ap" x="245.192" y="427.294" style="fill:#000;fill-opacity:1"/><use xlink:href="#aX" x="252.612" y="427.294" style="fill:#000;fill-opacity:1"/><use xlink:href="#ak" x="259.272" y="427.294" style="fill:#000;fill-opacity:1"/><use xlink:href="#aj" x="262.105" y="427.294" style="fill:#000;fill-opacity:1"/><use xlink:href="#ai" x="268.357" y="427.294" style="fill:#000;fill-opacity:1"/><use xlink:href="#at" x="275.317" y="427.294" style="fill:#000;fill-opacity:1"/><use xlink:href="#aY" x="283.13" y="427.294" style="fill:#000;fill-opacity:1"/><use xlink:href="#as" x="292.129" y="427.294" style="fill:#000;fill-opacity:1"/><use xlink:href="#an" x="298.871" y="427.294" style="fill:#000;fill-opacity:1"/><use xlink:href="#ai" x="309.265" y="427.294" style="fill:#000;fill-opacity:1"/><use xlink:href="#aZ" x="179.017" y="441.795" style="fill:#000;fill-opacity:1"/><use xlink:href="#ba" x="183.42" y="441.795" style="fill:#000;fill-opacity:1"/><use xlink:href="#bb" x="188.05" y="441.795" style="fill:#000;fill-opacity:1"/><use xlink:href="#bb" x="189.941" y="441.795" style="fill:#000;fill-opacity:1"/><use xlink:href="#bc" x="194.071" y="441.795" style="fill:#000;fill-opacity:1"/><use xlink:href="#bd" x="199.122" y="441.795" style="fill:#000;fill-opacity:1"/><use xlink:href="#be" x="201.963" y="441.795" style="fill:#000;fill-opacity:1"/><use xlink:href="#bf" x="206.719" y="441.795" style="fill:#000;fill-opacity:1"/><use xlink:href="#bg" x="209.413" y="441.795" style="fill:#000;fill-opacity:1"/><use xlink:href="#bh" x="214.065" y="441.795" style="fill:#000;fill-opacity:1"/><use xlink:href="#bh" x="218.231" y="441.795" style="fill:#000;fill-opacity:1"/><use xlink:href="#be" x="222.399" y="441.795" style="fill:#000;fill-opacity:1"/><use xlink:href="#bd" x="227.153" y="441.795" style="fill:#000;fill-opacity:1"/><use xlink:href="#bi" x="229.631" y="441.795" style="fill:#000;fill-opacity:1"/><use xlink:href="#bj" x="234.105" y="441.795" style="fill:#000;fill-opacity:1"/><use xlink:href="#bk" x="240.105" y="441.795" style="fill:#000;fill-opacity:1"/><use xlink:href="#bl" x="245.9" y="441.795" style="fill:#000;fill-opacity:1"/><use xlink:href="#bm" x="250.791" y="441.795" style="fill:#000;fill-opacity:1"/><use xlink:href="#bn" x="258.421" y="441.795" style="fill:#000;fill-opacity:1"/><use xlink:href="#bo" x="264.332" y="441.795" style="fill:#000;fill-opacity:1"/><use xlink:href="#bp" x="268.997" y="441.795" style="fill:#000;fill-opacity:1"/><use xlink:href="#bq" x="270.886" y="441.795" style="fill:#000;fill-opacity:1"/><use xlink:href="#bg" x="275.167" y="441.795" style="fill:#000;fill-opacity:1"/><use xlink:href="#bd" x="279.82" y="441.795" style="fill:#000;fill-opacity:1"/><use xlink:href="#bh" x="282.796" y="441.795" style="fill:#000;fill-opacity:1"/><use xlink:href="#bp" x="286.962" y="441.795" style="fill:#000;fill-opacity:1"/><use xlink:href="#br" x="288.853" y="441.795" style="fill:#000;fill-opacity:1"/><use xlink:href="#bs" x="291.753" y="441.795" style="fill:#000;fill-opacity:1"/><use xlink:href="#bt" x="298.432" y="441.795" style="fill:#000;fill-opacity:1"/><use xlink:href="#bp" x="302.913" y="441.795" style="fill:#000;fill-opacity:1"/><use xlink:href="#bh" x="304.805" y="441.795" style="fill:#000;fill-opacity:1"/><use xlink:href="#bu" x="308.97" y="441.795" style="fill:#000;fill-opacity:1"/><use xlink:href="#be" x="313.919" y="441.795" style="fill:#000;fill-opacity:1"/><use xlink:href="#bo" x="318.673" y="441.795" style="fill:#000;fill-opacity:1"/><use xlink:href="#bv" x="96.812" y="464.455" style="fill:#000;fill-opacity:1"/><use xlink:href="#aI" x="105.8" y="464.455" style="fill:#000;fill-opacity:1"/><use xlink:href="#bw" x="113.139" y="464.455" style="fill:#000;fill-opacity:1"/><use xlink:href="#aK" x="118.742" y="464.455" style="fill:#000;fill-opacity:1"/><use xlink:href="#aQ" x="125.68" y="464.455" style="fill:#000;fill-opacity:1"/><use xlink:href="#aR" x="133.272" y="464.455" style="fill:#000;fill-opacity:1"/><use xlink:href="#aS" x="140.281" y="464.455" style="fill:#000;fill-opacity:1"/><use xlink:href="#aT" x="143.533" y="464.455" style="fill:#000;fill-opacity:1"/><use xlink:href="#aN" x="150.249" y="464.455" style="fill:#000;fill-opacity:1"/><use xlink:href="#aH" x="157.392" y="464.455" style="fill:#000;fill-opacity:1"/><use xlink:href="#aT" x="162.278" y="464.455" style="fill:#000;fill-opacity:1"/><use xlink:href="#aU" x="168.997" y="464.455" style="fill:#000;fill-opacity:1"/><use xlink:href="#bx" x="179.015" y="464.455" style="fill:#000;fill-opacity:1"/><use xlink:href="#aw" x="185.5" y="464.455" style="fill:#000;fill-opacity:1"/><use xlink:href="#ah" x="192.635" y="464.455" style="fill:#000;fill-opacity:1"/><use xlink:href="#aq" x="199.699" y="464.455" style="fill:#000;fill-opacity:1"/><use xlink:href="#az" x="210.058" y="464.455" style="fill:#000;fill-opacity:1"/><use xlink:href="#aw" x="218.65" y="464.455" style="fill:#000;fill-opacity:1"/><use xlink:href="#ai" x="225.781" y="464.455" style="fill:#000;fill-opacity:1"/><use xlink:href="#by" x="236.108" y="464.455" style="fill:#000;fill-opacity:1"/><use xlink:href="#aw" x="244.804" y="464.455" style="fill:#000;fill-opacity:1"/><use xlink:href="#bz" x="251.934" y="464.455" style="fill:#000;fill-opacity:1"/><use xlink:href="#aW" x="257.437" y="464.455" style="fill:#000;fill-opacity:1"/><use xlink:href="#ap" x="265.521" y="464.455" style="fill:#000;fill-opacity:1"/><use xlink:href="#aX" x="272.941" y="464.455" style="fill:#000;fill-opacity:1"/><use xlink:href="#ak" x="279.597" y="464.455" style="fill:#000;fill-opacity:1"/><use xlink:href="#aj" x="282.433" y="464.455" style="fill:#000;fill-opacity:1"/><use xlink:href="#ai" x="288.681" y="464.455" style="fill:#000;fill-opacity:1"/><use xlink:href="#at" x="295.646" y="464.455" style="fill:#000;fill-opacity:1"/><use xlink:href="#aY" x="303.458" y="464.455" style="fill:#000;fill-opacity:1"/><use xlink:href="#as" x="312.458" y="464.455" style="fill:#000;fill-opacity:1"/><use xlink:href="#an" x="319.199" y="464.455" style="fill:#000;fill-opacity:1"/><use xlink:href="#ai" x="329.593" y="464.455" style="fill:#000;fill-opacity:1"/><use xlink:href="#bm" x="179.017" y="478.957" style="fill:#000;fill-opacity:1"/><use xlink:href="#bh" x="184.403" y="478.957" style="fill:#000;fill-opacity:1"/><use xlink:href="#bh" x="188.572" y="478.957" style="fill:#000;fill-opacity:1"/><use xlink:href="#be" x="192.737" y="478.957" style="fill:#000;fill-opacity:1"/><use xlink:href="#bA" x="197.491" y="478.957" style="fill:#000;fill-opacity:1"/><use xlink:href="#bp" x="201.94" y="478.957" style="fill:#000;fill-opacity:1"/><use xlink:href="#bB" x="203.832" y="478.957" style="fill:#000;fill-opacity:1"/><use xlink:href="#br" x="208.326" y="478.957" style="fill:#000;fill-opacity:1"/><use xlink:href="#bg" x="211.178" y="478.957" style="fill:#000;fill-opacity:1"/><use xlink:href="#bc" x="218.075" y="478.957" style="fill:#000;fill-opacity:1"/><use xlink:href="#bd" x="223.122" y="478.957" style="fill:#000;fill-opacity:1"/><use xlink:href="#be" x="225.963" y="478.957" style="fill:#000;fill-opacity:1"/><use xlink:href="#bf" x="230.72" y="478.957" style="fill:#000;fill-opacity:1"/><use xlink:href="#bg" x="233.413" y="478.957" style="fill:#000;fill-opacity:1"/><use xlink:href="#bh" x="238.066" y="478.957" style="fill:#000;fill-opacity:1"/><use xlink:href="#bh" x="242.234" y="478.957" style="fill:#000;fill-opacity:1"/><use xlink:href="#be" x="246.399" y="478.957" style="fill:#000;fill-opacity:1"/><use xlink:href="#bd" x="251.153" y="478.957" style="fill:#000;fill-opacity:1"/><use xlink:href="#bi" x="253.634" y="478.957" style="fill:#000;fill-opacity:1"/><use xlink:href="#bj" x="258.105" y="478.957" style="fill:#000;fill-opacity:1"/><use xlink:href="#bk" x="264.105" y="478.957" style="fill:#000;fill-opacity:1"/><use xlink:href="#bl" x="269.903" y="478.957" style="fill:#000;fill-opacity:1"/><use xlink:href="#bm" x="274.794" y="478.957" style="fill:#000;fill-opacity:1"/><use xlink:href="#bn" x="282.422" y="478.957" style="fill:#000;fill-opacity:1"/><use xlink:href="#bo" x="288.333" y="478.957" style="fill:#000;fill-opacity:1"/><use xlink:href="#bp" x="292.998" y="478.957" style="fill:#000;fill-opacity:1"/><use xlink:href="#bq" x="294.889" y="478.957" style="fill:#000;fill-opacity:1"/><use xlink:href="#bg" x="299.168" y="478.957" style="fill:#000;fill-opacity:1"/><use xlink:href="#bd" x="303.82" y="478.957" style="fill:#000;fill-opacity:1"/><use xlink:href="#bh" x="306.797" y="478.957" style="fill:#000;fill-opacity:1"/><use xlink:href="#bp" x="310.965" y="478.957" style="fill:#000;fill-opacity:1"/><use xlink:href="#br" x="312.853" y="478.957" style="fill:#000;fill-opacity:1"/><use xlink:href="#bs" x="315.753" y="478.957" style="fill:#000;fill-opacity:1"/><use xlink:href="#bt" x="322.432" y="478.957" style="fill:#000;fill-opacity:1"/><use xlink:href="#bp" x="326.917" y="478.957" style="fill:#000;fill-opacity:1"/><use xlink:href="#bh" x="328.805" y="478.957" style="fill:#000;fill-opacity:1"/><use xlink:href="#bu" x="332.973" y="478.957" style="fill:#000;fill-opacity:1"/><use xlink:href="#be" x="337.92" y="478.957" style="fill:#000;fill-opacity:1"/><use xlink:href="#bo" x="342.673" y="478.957" style="fill:#000;fill-opacity:1"/><use xlink:href="#bx" x="179.017" y="497.444" style="fill:#000;fill-opacity:1"/><use xlink:href="#aw" x="185.502" y="497.444" style="fill:#000;fill-opacity:1"/><use xlink:href="#ah" x="192.633" y="497.444" style="fill:#000;fill-opacity:1"/><use xlink:href="#aq" x="199.697" y="497.444" style="fill:#000;fill-opacity:1"/><use xlink:href="#az" x="210.057" y="497.444" style="fill:#000;fill-opacity:1"/><use xlink:href="#aw" x="218.649" y="497.444" style="fill:#000;fill-opacity:1"/><use xlink:href="#ai" x="225.783" y="497.444" style="fill:#000;fill-opacity:1"/><use xlink:href="#aw" x="236.106" y="497.444" style="fill:#000;fill-opacity:1"/><use xlink:href="#ao" x="243.241" y="497.444" style="fill:#000;fill-opacity:1"/><use xlink:href="#ah" x="247.722" y="497.444" style="fill:#000;fill-opacity:1"/><use xlink:href="#ai" x="254.786" y="497.444" style="fill:#000;fill-opacity:1"/><use xlink:href="#at" x="261.75" y="497.444" style="fill:#000;fill-opacity:1"/><use xlink:href="#by" x="269.563" y="497.444" style="fill:#000;fill-opacity:1"/><use xlink:href="#aw" x="278.255" y="497.444" style="fill:#000;fill-opacity:1"/><use xlink:href="#bz" x="285.389" y="497.444" style="fill:#000;fill-opacity:1"/><use xlink:href="#aW" x="290.892" y="497.444" style="fill:#000;fill-opacity:1"/><use xlink:href="#ap" x="298.972" y="497.444" style="fill:#000;fill-opacity:1"/><use xlink:href="#aX" x="306.396" y="497.444" style="fill:#000;fill-opacity:1"/><use xlink:href="#ak" x="313.052" y="497.444" style="fill:#000;fill-opacity:1"/><use xlink:href="#aj" x="315.889" y="497.444" style="fill:#000;fill-opacity:1"/><use xlink:href="#ai" x="322.137" y="497.444" style="fill:#000;fill-opacity:1"/><use xlink:href="#at" x="329.101" y="497.444" style="fill:#000;fill-opacity:1"/><use xlink:href="#aY" x="336.909" y="497.444" style="fill:#000;fill-opacity:1"/><use xlink:href="#as" x="345.913" y="497.444" style="fill:#000;fill-opacity:1"/><use xlink:href="#an" x="352.654" y="497.444" style="fill:#000;fill-opacity:1"/><use xlink:href="#ai" x="363.044" y="497.444" style="fill:#000;fill-opacity:1"/><use xlink:href="#aZ" x="179.017" y="511.945" style="fill:#000;fill-opacity:1"/><use xlink:href="#ba" x="183.42" y="511.945" style="fill:#000;fill-opacity:1"/><use xlink:href="#bb" x="188.05" y="511.945" style="fill:#000;fill-opacity:1"/><use xlink:href="#bb" x="189.941" y="511.945" style="fill:#000;fill-opacity:1"/><use xlink:href="#bc" x="194.071" y="511.945" style="fill:#000;fill-opacity:1"/><use xlink:href="#bd" x="199.122" y="511.945" style="fill:#000;fill-opacity:1"/><use xlink:href="#be" x="201.963" y="511.945" style="fill:#000;fill-opacity:1"/><use xlink:href="#bf" x="206.719" y="511.945" style="fill:#000;fill-opacity:1"/><use xlink:href="#bg" x="209.413" y="511.945" style="fill:#000;fill-opacity:1"/><use xlink:href="#bh" x="214.065" y="511.945" style="fill:#000;fill-opacity:1"/><use xlink:href="#bh" x="218.231" y="511.945" style="fill:#000;fill-opacity:1"/><use xlink:href="#be" x="222.399" y="511.945" style="fill:#000;fill-opacity:1"/><use xlink:href="#bd" x="227.153" y="511.945" style="fill:#000;fill-opacity:1"/><use xlink:href="#bi" x="229.631" y="511.945" style="fill:#000;fill-opacity:1"/><use xlink:href="#bj" x="234.105" y="511.945" style="fill:#000;fill-opacity:1"/><use xlink:href="#bk" x="240.105" y="511.945" style="fill:#000;fill-opacity:1"/><use xlink:href="#bl" x="245.9" y="511.945" style="fill:#000;fill-opacity:1"/><use xlink:href="#bm" x="250.791" y="511.945" style="fill:#000;fill-opacity:1"/><use xlink:href="#bn" x="258.421" y="511.945" style="fill:#000;fill-opacity:1"/><use xlink:href="#bo" x="264.332" y="511.945" style="fill:#000;fill-opacity:1"/><use xlink:href="#bp" x="268.997" y="511.945" style="fill:#000;fill-opacity:1"/><use xlink:href="#bq" x="270.886" y="511.945" style="fill:#000;fill-opacity:1"/><use xlink:href="#bg" x="275.167" y="511.945" style="fill:#000;fill-opacity:1"/><use xlink:href="#bd" x="279.82" y="511.945" style="fill:#000;fill-opacity:1"/><use xlink:href="#bh" x="282.796" y="511.945" style="fill:#000;fill-opacity:1"/><use xlink:href="#bp" x="286.962" y="511.945" style="fill:#000;fill-opacity:1"/><use xlink:href="#br" x="288.853" y="511.945" style="fill:#000;fill-opacity:1"/><use xlink:href="#bs" x="291.753" y="511.945" style="fill:#000;fill-opacity:1"/><use xlink:href="#bt" x="298.432" y="511.945" style="fill:#000;fill-opacity:1"/><use xlink:href="#bp" x="302.913" y="511.945" style="fill:#000;fill-opacity:1"/><use xlink:href="#bh" x="304.805" y="511.945" style="fill:#000;fill-opacity:1"/><use xlink:href="#bu" x="308.97" y="511.945" style="fill:#000;fill-opacity:1"/><use xlink:href="#be" x="313.919" y="511.945" style="fill:#000;fill-opacity:1"/><use xlink:href="#bo" x="318.673" y="511.945" style="fill:#000;fill-opacity:1"/><use xlink:href="#bC" x="173.328" y="582.959" style="fill:#000;fill-opacity:1"/><use xlink:href="#bD" x="181.87" y="582.959" style="fill:#000;fill-opacity:1"/><use xlink:href="#ad" x="189.839" y="582.959" style="fill:#000;fill-opacity:1"/><use xlink:href="#ae" x="197.934" y="582.959" style="fill:#000;fill-opacity:1"/><use xlink:href="#bE" x="210.652" y="582.959" style="fill:#000;fill-opacity:1"/><use xlink:href="#W" x="214.446" y="582.959" style="fill:#000;fill-opacity:1"/><use xlink:href="#ad" x="223.118" y="582.959" style="fill:#000;fill-opacity:1"/><use xlink:href="#bF" x="231.213" y="582.959" style="fill:#000;fill-opacity:1"/><use xlink:href="#bE" x="236.629" y="582.959" style="fill:#000;fill-opacity:1"/><use xlink:href="#U" x="240.423" y="582.959" style="fill:#000;fill-opacity:1"/><use xlink:href="#W" x="248.985" y="582.959" style="fill:#000;fill-opacity:1"/><use xlink:href="#bG" x="260.891" y="582.959" style="fill:#000;fill-opacity:1"/><use xlink:href="#U" x="271.382" y="582.959" style="fill:#000;fill-opacity:1"/><use xlink:href="#ae" x="279.939" y="582.959" style="fill:#000;fill-opacity:1"/><use xlink:href="#ae" x="292.658" y="582.959" style="fill:#000;fill-opacity:1"/><use xlink:href="#bE" x="305.377" y="582.959" style="fill:#000;fill-opacity:1"/><use xlink:href="#bF" x="309.171" y="582.959" style="fill:#000;fill-opacity:1"/><use xlink:href="#bF" x="314.592" y="582.959" style="fill:#000;fill-opacity:1"/><use xlink:href="#Y" x="319.928" y="582.959" style="fill:#000;fill-opacity:1"/><use xlink:href="#Y" x="328.268" y="582.959" style="fill:#000;fill-opacity:1"/><use xlink:href="#bv" x="131.778" y="604.435" style="fill:#000;fill-opacity:1"/><use xlink:href="#aF" x="140.766" y="604.435" style="fill:#000;fill-opacity:1"/><use xlink:href="#aK" x="148.231" y="604.435" style="fill:#000;fill-opacity:1"/><use xlink:href="#aS" x="155.169" y="604.435" style="fill:#000;fill-opacity:1"/><use xlink:href="#aH" x="158.421" y="604.435" style="fill:#000;fill-opacity:1"/><use xlink:href="#aU" x="163.309" y="604.435" style="fill:#000;fill-opacity:1"/><use xlink:href="#aY" x="173.327" y="604.435" style="fill:#000;fill-opacity:1"/><use xlink:href="#as" x="182.326" y="604.435" style="fill:#000;fill-opacity:1"/><use xlink:href="#an" x="189.067" y="604.435" style="fill:#000;fill-opacity:1"/><use xlink:href="#ai" x="199.461" y="604.435" style="fill:#000;fill-opacity:1"/><use xlink:href="#aw" x="209.784" y="604.435" style="fill:#000;fill-opacity:1"/><use xlink:href="#av" x="216.919" y="604.435" style="fill:#000;fill-opacity:1"/><use xlink:href="#ao" x="224.594" y="604.435" style="fill:#000;fill-opacity:1"/><use xlink:href="#ah" x="229.075" y="604.435" style="fill:#000;fill-opacity:1"/><use xlink:href="#ai" x="236.143" y="604.435" style="fill:#000;fill-opacity:1"/><use xlink:href="#aA" x="246.466" y="604.435" style="fill:#000;fill-opacity:1"/><use xlink:href="#aw" x="253.14" y="604.435" style="fill:#000;fill-opacity:1"/><use xlink:href="#an" x="260.271" y="604.435" style="fill:#000;fill-opacity:1"/><use xlink:href="#an" x="270.665" y="604.435" style="fill:#000;fill-opacity:1"/><use xlink:href="#ak" x="281.059" y="604.435" style="fill:#000;fill-opacity:1"/><use xlink:href="#ao" x="283.896" y="604.435" style="fill:#000;fill-opacity:1"/><use xlink:href="#ao" x="288.242" y="604.435" style="fill:#000;fill-opacity:1"/><use xlink:href="#ai" x="292.519" y="604.435" style="fill:#000;fill-opacity:1"/><use xlink:href="#ai" x="299.484" y="604.435" style="fill:#000;fill-opacity:1"/><use xlink:href="#aA" x="309.81" y="604.435" style="fill:#000;fill-opacity:1"/><use xlink:href="#ah" x="316.481" y="604.435" style="fill:#000;fill-opacity:1"/><use xlink:href="#as" x="323.545" y="604.435" style="fill:#000;fill-opacity:1"/><use xlink:href="#ak" x="330.29" y="604.435" style="fill:#000;fill-opacity:1"/><use xlink:href="#at" x="333.123" y="604.435" style="fill:#000;fill-opacity:1"/><use xlink:href="#ar" x="337.573" y="604.435" style="fill:#000;fill-opacity:1"/><use xlink:href="#ai" x="344.86" y="604.435" style="fill:#000;fill-opacity:1"/><use xlink:href="#at" x="351.82" y="604.435" style="fill:#000;fill-opacity:1"/><use xlink:href="#aj" x="356.27" y="604.435" style="fill:#000;fill-opacity:1"/><use xlink:href="#aw" x="362.518" y="604.435" style="fill:#000;fill-opacity:1"/><use xlink:href="#aq" x="369.653" y="604.435" style="fill:#000;fill-opacity:1"/><use xlink:href="#aZ" x="173.328" y="618.936" style="fill:#000;fill-opacity:1"/><use xlink:href="#ba" x="177.731" y="618.936" style="fill:#000;fill-opacity:1"/><use xlink:href="#bb" x="182.361" y="618.936" style="fill:#000;fill-opacity:1"/><use xlink:href="#bb" x="184.252" y="618.936" style="fill:#000;fill-opacity:1"/><use xlink:href="#bc" x="188.382" y="618.936" style="fill:#000;fill-opacity:1"/><use xlink:href="#bd" x="193.433" y="618.936" style="fill:#000;fill-opacity:1"/><use xlink:href="#be" x="196.274" y="618.936" style="fill:#000;fill-opacity:1"/><use xlink:href="#bf" x="201.03" y="618.936" style="fill:#000;fill-opacity:1"/><use xlink:href="#bg" x="203.724" y="618.936" style="fill:#000;fill-opacity:1"/><use xlink:href="#bh" x="208.376" y="618.936" style="fill:#000;fill-opacity:1"/><use xlink:href="#bh" x="212.542" y="618.936" style="fill:#000;fill-opacity:1"/><use xlink:href="#be" x="216.71" y="618.936" style="fill:#000;fill-opacity:1"/><use xlink:href="#bd" x="221.464" y="618.936" style="fill:#000;fill-opacity:1"/><use xlink:href="#bi" x="223.945" y="618.936" style="fill:#000;fill-opacity:1"/><use xlink:href="#aZ" x="228.416" y="618.936" style="fill:#000;fill-opacity:1"/><use xlink:href="#bH" x="233.091" y="618.936" style="fill:#000;fill-opacity:1"/><use xlink:href="#bI" x="238.888" y="618.936" style="fill:#000;fill-opacity:1"/><use xlink:href="#bJ" x="243.416" y="618.936" style="fill:#000;fill-opacity:1"/><use xlink:href="#bj" x="247.085" y="618.936" style="fill:#000;fill-opacity:1"/><use xlink:href="#bk" x="253.085" y="618.936" style="fill:#000;fill-opacity:1"/><use xlink:href="#bl" x="258.879" y="618.936" style="fill:#000;fill-opacity:1"/><use xlink:href="#bm" x="263.771" y="618.936" style="fill:#000;fill-opacity:1"/><use xlink:href="#bK" x="96.812" y="641.596" style="fill:#000;fill-opacity:1"/><use xlink:href="#aK" x="104.655" y="641.596" style="fill:#000;fill-opacity:1"/><use xlink:href="#bL" x="111.593" y="641.596" style="fill:#000;fill-opacity:1"/><use xlink:href="#bL" x="119.152" y="641.596" style="fill:#000;fill-opacity:1"/><use xlink:href="#aI" x="126.715" y="641.596" style="fill:#000;fill-opacity:1"/><use xlink:href="#aH" x="134.05" y="641.596" style="fill:#000;fill-opacity:1"/><use xlink:href="#bM" x="139.266" y="641.596" style="fill:#000;fill-opacity:1"/><use xlink:href="#aN" x="143.84" y="641.596" style="fill:#000;fill-opacity:1"/><use xlink:href="#bN" x="150.984" y="641.596" style="fill:#000;fill-opacity:1"/><use xlink:href="#aH" x="158.421" y="641.596" style="fill:#000;fill-opacity:1"/><use xlink:href="#aU" x="163.309" y="641.596" style="fill:#000;fill-opacity:1"/><use xlink:href="#aY" x="173.327" y="641.596" style="fill:#000;fill-opacity:1"/><use xlink:href="#as" x="182.326" y="641.596" style="fill:#000;fill-opacity:1"/><use xlink:href="#an" x="189.067" y="641.596" style="fill:#000;fill-opacity:1"/><use xlink:href="#ai" x="199.461" y="641.596" style="fill:#000;fill-opacity:1"/><use xlink:href="#aw" x="209.784" y="641.596" style="fill:#000;fill-opacity:1"/><use xlink:href="#av" x="216.919" y="641.596" style="fill:#000;fill-opacity:1"/><use xlink:href="#as" x="224.594" y="641.596" style="fill:#000;fill-opacity:1"/><use xlink:href="#at" x="234.697" y="641.596" style="fill:#000;fill-opacity:1"/><use xlink:href="#as" x="239.147" y="641.596" style="fill:#000;fill-opacity:1"/><use xlink:href="#ar" x="245.889" y="641.596" style="fill:#000;fill-opacity:1"/><use xlink:href="#ar" x="253.176" y="641.596" style="fill:#000;fill-opacity:1"/><use xlink:href="#aw" x="260.458" y="641.596" style="fill:#000;fill-opacity:1"/><use xlink:href="#at" x="267.593" y="641.596" style="fill:#000;fill-opacity:1"/><use xlink:href="#ao" x="272.447" y="641.596" style="fill:#000;fill-opacity:1"/><use xlink:href="#ai" x="276.728" y="641.596" style="fill:#000;fill-opacity:1"/><use xlink:href="#al" x="283.688" y="641.596" style="fill:#000;fill-opacity:1"/><use xlink:href="#at" x="290.634" y="641.596" style="fill:#000;fill-opacity:1"/><use xlink:href="#bm" x="173.328" y="656.098" style="fill:#000;fill-opacity:1"/><use xlink:href="#bh" x="178.714" y="656.098" style="fill:#000;fill-opacity:1"/><use xlink:href="#bh" x="182.883" y="656.098" style="fill:#000;fill-opacity:1"/><use xlink:href="#be" x="187.048" y="656.098" style="fill:#000;fill-opacity:1"/><use xlink:href="#bA" x="191.802" y="656.098" style="fill:#000;fill-opacity:1"/><use xlink:href="#bp" x="196.251" y="656.098" style="fill:#000;fill-opacity:1"/><use xlink:href="#bB" x="198.143" y="656.098" style="fill:#000;fill-opacity:1"/><use xlink:href="#br" x="202.637" y="656.098" style="fill:#000;fill-opacity:1"/><use xlink:href="#bg" x="205.489" y="656.098" style="fill:#000;fill-opacity:1"/><use xlink:href="#bc" x="212.386" y="656.098" style="fill:#000;fill-opacity:1"/><use xlink:href="#bd" x="217.433" y="656.098" style="fill:#000;fill-opacity:1"/><use xlink:href="#be" x="220.277" y="656.098" style="fill:#000;fill-opacity:1"/><use xlink:href="#bf" x="225.031" y="656.098" style="fill:#000;fill-opacity:1"/><use xlink:href="#bg" x="227.724" y="656.098" style="fill:#000;fill-opacity:1"/><use xlink:href="#bh" x="232.377" y="656.098" style="fill:#000;fill-opacity:1"/><use xlink:href="#bh" x="236.545" y="656.098" style="fill:#000;fill-opacity:1"/><use xlink:href="#be" x="240.71" y="656.098" style="fill:#000;fill-opacity:1"/><use xlink:href="#bd" x="245.464" y="656.098" style="fill:#000;fill-opacity:1"/><use xlink:href="#bi" x="247.945" y="656.098" style="fill:#000;fill-opacity:1"/><use xlink:href="#bm" x="252.416" y="656.098" style="fill:#000;fill-opacity:1"/><use xlink:href="#bo" x="257.806" y="656.098" style="fill:#000;fill-opacity:1"/><use xlink:href="#be" x="262.471" y="656.098" style="fill:#000;fill-opacity:1"/><use xlink:href="#br" x="267.224" y="656.098" style="fill:#000;fill-opacity:1"/><use xlink:href="#bO" x="270.212" y="656.098" style="fill:#000;fill-opacity:1"/><use xlink:href="#bg" x="274.921" y="656.098" style="fill:#000;fill-opacity:1"/><use xlink:href="#bd" x="279.577" y="656.098" style="fill:#000;fill-opacity:1"/><use xlink:href="#bn" x="284.795" y="656.098" style="fill:#000;fill-opacity:1"/><use xlink:href="#bo" x="290.706" y="656.098" style="fill:#000;fill-opacity:1"/><use xlink:href="#bp" x="295.368" y="656.098" style="fill:#000;fill-opacity:1"/><use xlink:href="#bq" x="297.259" y="656.098" style="fill:#000;fill-opacity:1"/><use xlink:href="#bg" x="301.538" y="656.098" style="fill:#000;fill-opacity:1"/><use xlink:href="#bd" x="306.193" y="656.098" style="fill:#000;fill-opacity:1"/><use xlink:href="#bh" x="309.169" y="656.098" style="fill:#000;fill-opacity:1"/><use xlink:href="#bp" x="313.335" y="656.098" style="fill:#000;fill-opacity:1"/><use xlink:href="#br" x="315.226" y="656.098" style="fill:#000;fill-opacity:1"/><use xlink:href="#bs" x="318.123" y="656.098" style="fill:#000;fill-opacity:1"/><use xlink:href="#bP" x="107.982" y="678.758" style="fill:#000;fill-opacity:1"/><use xlink:href="#aN" x="118.917" y="678.758" style="fill:#000;fill-opacity:1"/><use xlink:href="#aL" x="126.061" y="678.758" style="fill:#000;fill-opacity:1"/><use xlink:href="#bQ" x="136.963" y="678.758" style="fill:#000;fill-opacity:1"/><use xlink:href="#aN" x="144.559" y="678.758" style="fill:#000;fill-opacity:1"/><use xlink:href="#aH" x="151.703" y="678.758" style="fill:#000;fill-opacity:1"/><use xlink:href="#aT" x="156.588" y="678.758" style="fill:#000;fill-opacity:1"/><use xlink:href="#aU" x="163.309" y="678.758" style="fill:#000;fill-opacity:1"/><use xlink:href="#aW" x="173.327" y="678.758" style="fill:#000;fill-opacity:1"/><use xlink:href="#aq" x="181.41" y="678.758" style="fill:#000;fill-opacity:1"/><use xlink:href="#aw" x="188.408" y="678.758" style="fill:#000;fill-opacity:1"/><use xlink:href="#ao" x="195.538" y="678.758" style="fill:#000;fill-opacity:1"/><use xlink:href="#ah" x="200.02" y="678.758" style="fill:#000;fill-opacity:1"/><use xlink:href="#ai" x="207.084" y="678.758" style="fill:#000;fill-opacity:1"/><use xlink:href="#at" x="214.048" y="678.758" style="fill:#000;fill-opacity:1"/><use xlink:href="#an" x="221.86" y="678.758" style="fill:#000;fill-opacity:1"/><use xlink:href="#ai" x="232.255" y="678.758" style="fill:#000;fill-opacity:1"/><use xlink:href="#an" x="239.214" y="678.758" style="fill:#000;fill-opacity:1"/><use xlink:href="#am" x="249.609" y="678.758" style="fill:#000;fill-opacity:1"/><use xlink:href="#ai" x="257.028" y="678.758" style="fill:#000;fill-opacity:1"/><use xlink:href="#at" x="263.993" y="678.758" style="fill:#000;fill-opacity:1"/><use xlink:href="#aw" x="271.805" y="678.758" style="fill:#000;fill-opacity:1"/><use xlink:href="#av" x="278.936" y="678.758" style="fill:#000;fill-opacity:1"/><use xlink:href="#ao" x="286.611" y="678.758" style="fill:#000;fill-opacity:1"/><use xlink:href="#ah" x="291.096" y="678.758" style="fill:#000;fill-opacity:1"/><use xlink:href="#ai" x="298.16" y="678.758" style="fill:#000;fill-opacity:1"/><use xlink:href="#aA" x="308.483" y="678.758" style="fill:#000;fill-opacity:1"/><use xlink:href="#aw" x="315.157" y="678.758" style="fill:#000;fill-opacity:1"/><use xlink:href="#an" x="322.288" y="678.758" style="fill:#000;fill-opacity:1"/><use xlink:href="#an" x="332.682" y="678.758" style="fill:#000;fill-opacity:1"/><use xlink:href="#ak" x="343.076" y="678.758" style="fill:#000;fill-opacity:1"/><use xlink:href="#ao" x="345.913" y="678.758" style="fill:#000;fill-opacity:1"/><use xlink:href="#ao" x="350.259" y="678.758" style="fill:#000;fill-opacity:1"/><use xlink:href="#ai" x="354.536" y="678.758" style="fill:#000;fill-opacity:1"/><use xlink:href="#ai" x="361.501" y="678.758" style="fill:#000;fill-opacity:1"/><use xlink:href="#aZ" x="173.328" y="693.26" style="fill:#000;fill-opacity:1"/><use xlink:href="#ba" x="177.731" y="693.26" style="fill:#000;fill-opacity:1"/><use xlink:href="#bb" x="182.361" y="693.26" style="fill:#000;fill-opacity:1"/><use xlink:href="#bb" x="184.252" y="693.26" style="fill:#000;fill-opacity:1"/><use xlink:href="#bc" x="188.382" y="693.26" style="fill:#000;fill-opacity:1"/><use xlink:href="#bd" x="193.433" y="693.26" style="fill:#000;fill-opacity:1"/><use xlink:href="#be" x="196.274" y="693.26" style="fill:#000;fill-opacity:1"/><use xlink:href="#bf" x="201.03" y="693.26" style="fill:#000;fill-opacity:1"/><use xlink:href="#bg" x="203.724" y="693.26" style="fill:#000;fill-opacity:1"/><use xlink:href="#bh" x="208.376" y="693.26" style="fill:#000;fill-opacity:1"/><use xlink:href="#bh" x="212.542" y="693.26" style="fill:#000;fill-opacity:1"/><use xlink:href="#be" x="216.71" y="693.26" style="fill:#000;fill-opacity:1"/><use xlink:href="#bd" x="221.464" y="693.26" style="fill:#000;fill-opacity:1"/><use xlink:href="#bi" x="223.945" y="693.26" style="fill:#000;fill-opacity:1"/><use xlink:href="#bm" x="228.416" y="693.26" style="fill:#000;fill-opacity:1"/><use xlink:href="#bo" x="233.805" y="693.26" style="fill:#000;fill-opacity:1"/><use xlink:href="#be" x="238.467" y="693.26" style="fill:#000;fill-opacity:1"/><use xlink:href="#br" x="243.224" y="693.26" style="fill:#000;fill-opacity:1"/><use xlink:href="#bO" x="246.212" y="693.26" style="fill:#000;fill-opacity:1"/><use xlink:href="#bg" x="250.921" y="693.26" style="fill:#000;fill-opacity:1"/><use xlink:href="#bd" x="255.576" y="693.26" style="fill:#000;fill-opacity:1"/><use xlink:href="#bn" x="260.794" y="693.26" style="fill:#000;fill-opacity:1"/><use xlink:href="#bo" x="266.702" y="693.26" style="fill:#000;fill-opacity:1"/><use xlink:href="#bp" x="271.367" y="693.26" style="fill:#000;fill-opacity:1"/><use xlink:href="#bq" x="273.259" y="693.26" style="fill:#000;fill-opacity:1"/><use xlink:href="#bg" x="277.537" y="693.26" style="fill:#000;fill-opacity:1"/><use xlink:href="#bd" x="282.19" y="693.26" style="fill:#000;fill-opacity:1"/><use xlink:href="#bh" x="285.169" y="693.26" style="fill:#000;fill-opacity:1"/><use xlink:href="#bp" x="289.334" y="693.26" style="fill:#000;fill-opacity:1"/><use xlink:href="#br" x="291.226" y="693.26" style="fill:#000;fill-opacity:1"/><use xlink:href="#bs" x="294.123" y="693.26" style="fill:#000;fill-opacity:1"/><use xlink:href="#bR" x="173.328" y="711.746" style="fill:#000;fill-opacity:1"/><use xlink:href="#ai" x="180.358" y="711.746" style="fill:#000;fill-opacity:1"/><use xlink:href="#ao" x="187.318" y="711.746" style="fill:#000;fill-opacity:1"/><use xlink:href="#as" x="195.03" y="711.746" style="fill:#000;fill-opacity:1"/><use xlink:href="#aq" x="201.771" y="711.746" style="fill:#000;fill-opacity:1"/><use xlink:href="#aw" x="208.769" y="711.746" style="fill:#000;fill-opacity:1"/><use xlink:href="#ao" x="215.899" y="711.746" style="fill:#000;fill-opacity:1"/><use xlink:href="#ah" x="220.381" y="711.746" style="fill:#000;fill-opacity:1"/><use xlink:href="#ai" x="227.449" y="711.746" style="fill:#000;fill-opacity:1"/><use xlink:href="#at" x="234.409" y="711.746" style="fill:#000;fill-opacity:1"/><use xlink:href="#an" x="242.221" y="711.746" style="fill:#000;fill-opacity:1"/><use xlink:href="#ai" x="252.615" y="711.746" style="fill:#000;fill-opacity:1"/><use xlink:href="#an" x="259.575" y="711.746" style="fill:#000;fill-opacity:1"/><use xlink:href="#am" x="269.969" y="711.746" style="fill:#000;fill-opacity:1"/><use xlink:href="#ai" x="277.389" y="711.746" style="fill:#000;fill-opacity:1"/><use xlink:href="#at" x="284.353" y="711.746" style="fill:#000;fill-opacity:1"/><use xlink:href="#aw" x="292.166" y="711.746" style="fill:#000;fill-opacity:1"/><use xlink:href="#av" x="299.297" y="711.746" style="fill:#000;fill-opacity:1"/><use xlink:href="#ao" x="306.971" y="711.746" style="fill:#000;fill-opacity:1"/><use xlink:href="#ah" x="311.457" y="711.746" style="fill:#000;fill-opacity:1"/><use xlink:href="#ai" x="318.521" y="711.746" style="fill:#000;fill-opacity:1"/><use xlink:href="#aA" x="328.844" y="711.746" style="fill:#000;fill-opacity:1"/><use xlink:href="#aw" x="335.518" y="711.746" style="fill:#000;fill-opacity:1"/><use xlink:href="#an" x="342.653" y="711.746" style="fill:#000;fill-opacity:1"/><use xlink:href="#an" x="353.043" y="711.746" style="fill:#000;fill-opacity:1"/><use xlink:href="#ak" x="363.437" y="711.746" style="fill:#000;fill-opacity:1"/><use xlink:href="#ao" x="366.274" y="711.746" style="fill:#000;fill-opacity:1"/><use xlink:href="#ao" x="370.62" y="711.746" style="fill:#000;fill-opacity:1"/><use xlink:href="#ai" x="374.901" y="711.746" style="fill:#000;fill-opacity:1"/><use xlink:href="#ai" x="381.861" y="711.746" style="fill:#000;fill-opacity:1"/><use xlink:href="#bm" x="173.328" y="726.248" style="fill:#000;fill-opacity:1"/><use xlink:href="#bh" x="178.714" y="726.248" style="fill:#000;fill-opacity:1"/><use xlink:href="#bh" x="182.883" y="726.248" style="fill:#000;fill-opacity:1"/><use xlink:href="#bp" x="187.048" y="726.248" style="fill:#000;fill-opacity:1"/><use xlink:href="#bh" x="188.939" y="726.248" style="fill:#000;fill-opacity:1"/><use xlink:href="#br" x="193.104" y="726.248" style="fill:#000;fill-opacity:1"/><use xlink:href="#bB" x="196.002" y="726.248" style="fill:#000;fill-opacity:1"/><use xlink:href="#bo" x="200.499" y="726.248" style="fill:#000;fill-opacity:1"/><use xlink:href="#br" x="205.161" y="726.248" style="fill:#000;fill-opacity:1"/><use xlink:href="#bc" x="210.302" y="726.248" style="fill:#000;fill-opacity:1"/><use xlink:href="#bd" x="215.35" y="726.248" style="fill:#000;fill-opacity:1"/><use xlink:href="#be" x="218.193" y="726.248" style="fill:#000;fill-opacity:1"/><use xlink:href="#bf" x="222.947" y="726.248" style="fill:#000;fill-opacity:1"/><use xlink:href="#bg" x="225.641" y="726.248" style="fill:#000;fill-opacity:1"/><use xlink:href="#bh" x="230.293" y="726.248" style="fill:#000;fill-opacity:1"/><use xlink:href="#bh" x="234.462" y="726.248" style="fill:#000;fill-opacity:1"/><use xlink:href="#be" x="238.627" y="726.248" style="fill:#000;fill-opacity:1"/><use xlink:href="#bd" x="243.381" y="726.248" style="fill:#000;fill-opacity:1"/><use xlink:href="#bi" x="245.862" y="726.248" style="fill:#000;fill-opacity:1"/><use xlink:href="#bm" x="250.333" y="726.248" style="fill:#000;fill-opacity:1"/><use xlink:href="#bo" x="255.722" y="726.248" style="fill:#000;fill-opacity:1"/><use xlink:href="#be" x="260.387" y="726.248" style="fill:#000;fill-opacity:1"/><use xlink:href="#br" x="265.141" y="726.248" style="fill:#000;fill-opacity:1"/><use xlink:href="#bO" x="268.131" y="726.248" style="fill:#000;fill-opacity:1"/><use xlink:href="#bg" x="272.841" y="726.248" style="fill:#000;fill-opacity:1"/><use xlink:href="#bd" x="277.493" y="726.248" style="fill:#000;fill-opacity:1"/><use xlink:href="#bn" x="282.711" y="726.248" style="fill:#000;fill-opacity:1"/><use xlink:href="#bo" x="288.622" y="726.248" style="fill:#000;fill-opacity:1"/><use xlink:href="#bp" x="293.284" y="726.248" style="fill:#000;fill-opacity:1"/><use xlink:href="#bq" x="295.176" y="726.248" style="fill:#000;fill-opacity:1"/><use xlink:href="#bg" x="299.454" y="726.248" style="fill:#000;fill-opacity:1"/><use xlink:href="#bd" x="304.11" y="726.248" style="fill:#000;fill-opacity:1"/><use xlink:href="#bh" x="307.086" y="726.248" style="fill:#000;fill-opacity:1"/><use xlink:href="#bp" x="311.251" y="726.248" style="fill:#000;fill-opacity:1"/><use xlink:href="#br" x="313.143" y="726.248" style="fill:#000;fill-opacity:1"/><use xlink:href="#bs" x="316.042" y="726.248" style="fill:#000;fill-opacity:1"/><use xlink:href="#bS" x="249.615" y="796.682" style="fill:#000;fill-opacity:1"/><use xlink:href="#ae" x="254.943" y="796.682" style="fill:#000;fill-opacity:1"/><use xlink:href="#U" x="267.662" y="796.682" style="fill:#000;fill-opacity:1"/><use xlink:href="#W" x="276.219" y="796.682" style="fill:#000;fill-opacity:1"/><use xlink:href="#bF" x="284.89" y="796.682" style="fill:#000;fill-opacity:1"/><use xlink:href="#V" x="290.47" y="796.682" style="fill:#000;fill-opacity:1"/><use xlink:href="#bT" x="299.178" y="796.682" style="fill:#000;fill-opacity:1"/><use xlink:href="#bU" x="304.506" y="796.682" style="fill:#000;fill-opacity:1"/><use xlink:href="#bS" x="311.49" y="796.682" style="fill:#000;fill-opacity:1"/><use xlink:href="#aa" x="316.818" y="796.682" style="fill:#000;fill-opacity:1"/><use xlink:href="#Y" x="324.737" y="796.682" style="fill:#000;fill-opacity:1"/><use xlink:href="#ad" x="333.072" y="796.682" style="fill:#000;fill-opacity:1"/><use xlink:href="#Z" x="341.167" y="796.682" style="fill:#000;fill-opacity:1"/><use xlink:href="#bT" x="346.868" y="796.682" style="fill:#000;fill-opacity:1"/></svg>
