<svg xmlns="http://www.w3.org/2000/svg" xmlns:xlink="http://www.w3.org/1999/xlink" width="793.707" height="1122.52" viewBox="0 0 595.28 841.89"><defs><symbol overflow="visible" id="c"><path d="M3.094-9.297v6.094c0 .555.035.922.11 1.11.163.429.491.64.983.64.395 0 .696-.149.907-.453.156-.207.234-.64.234-1.297v-6.094h2.313v6.094c0 .367-.016.672-.047.922C7.5-1.52 7.133-.911 6.5-.453c-.574.43-1.36.64-2.36.64-1.167 0-2.054-.335-2.656-1.015A2.348 2.348 0 01.86-2.172a11.293 11.293 0 01-.062-1.297v-5.828zm0 0"/></symbol><symbol overflow="visible" id="d"><path d="M2.781-6.563v.75C3.52-6.468 4.258-6.796 5-6.796c.375 0 .703.121.984.36.32.261.516.683.579 1.265.03.219.046.54.046.953V0H4.516v-4.219c0-.593-.235-.89-.704-.89-.324 0-.667.171-1.03.515V0H.686v-6.563zm0 0"/></symbol><symbol overflow="visible" id="e"><path d="M2.781-6.563V0H.687v-6.563zm0-2.734v1.86H.687v-1.86zm0 0"/></symbol><symbol overflow="visible" id="f"><path d="M6.266-6.563L4.312 0H1.97L-.14-6.563h2.297l.672 2.625c.188.805.32 1.57.406 2.297.04-.664.157-1.472.344-2.421l.516-2.5zm0 0"/></symbol><symbol overflow="visible" id="g"><path d="M4.531-2.078l1.953.156c-.105.45-.273.82-.5 1.11-.511.667-1.324 1-2.437 1-1.086 0-1.899-.333-2.438-1C.63-1.406.391-2.196.391-3.188c0-1.063.234-1.899.703-2.516a2.537 2.537 0 011.14-.844c.407-.164.836-.25 1.297-.25.883 0 1.586.277 2.11.828.406.43.66.965.765 1.61.032.156.063.664.094 1.515H2.61c0 .512.05.86.156 1.047.175.313.457.469.843.469.489 0 .797-.25.922-.75zM2.61-3.984h1.922c0-.313-.043-.567-.125-.766-.168-.352-.449-.531-.843-.531-.325 0-.57.148-.735.437-.148.219-.219.508-.219.86zm0 0"/></symbol><symbol overflow="visible" id="h"><path d="M5.203-6.734v2a2.095 2.095 0 00-.469-.063c-.5 0-.945.149-1.328.438-.242.18-.449.43-.625.75V0H.687v-6.563h2.094v.734a.804.804 0 00-.015.173c0 .062.004.215.015.453.188-.363.395-.656.625-.875.457-.445.957-.672 1.5-.672.051 0 .149.008.297.016zm0 0"/></symbol><symbol overflow="visible" id="i"><path d="M5.453-4.969l-1.922.157c-.043-.395-.242-.594-.594-.594-.21 0-.374.07-.5.203a.552.552 0 00-.124.36c0 .273.132.464.406.577.07.043.457.133 1.156.266 1.219.242 1.828.898 1.828 1.969 0 .668-.25 1.21-.75 1.625-.469.398-1.164.594-2.078.594-1.512 0-2.328-.665-2.453-2l1.953-.125c.05.492.29.734.719.734.25 0 .43-.086.547-.266a.615.615 0 00.093-.328c0-.332-.261-.55-.78-.656a23.456 23.456 0 01-1.173-.25 1.92 1.92 0 01-.547-.266c-.554-.363-.828-.91-.828-1.64 0-.664.254-1.207.766-1.625.437-.375 1.023-.563 1.766-.563 1 0 1.71.274 2.14.813.188.242.313.578.375 1.015zm0 0"/></symbol><symbol overflow="visible" id="j"><path d="M6.578-9.297V0H4.75l-.094-.672c-.523.574-1.105.86-1.75.86-.875 0-1.543-.399-2-1.204-.336-.613-.5-1.367-.5-2.265 0-.977.192-1.77.578-2.375a2.63 2.63 0 01.766-.782 2.003 2.003 0 011.14-.359c.594 0 1.126.281 1.594.844v-3.344zM4.484-4.516c-.242-.382-.546-.578-.921-.578a.686.686 0 00-.579.297c-.261.324-.39.824-.39 1.5 0 .887.191 1.496.578 1.828.113.094.258.14.437.14.352 0 .645-.194.875-.593zm0 0"/></symbol><symbol overflow="visible" id="k"><path d="M2.703-4.516l-2.031-.25c.082-.52.258-.921.531-1.203.508-.55 1.32-.828 2.438-.828 1.093 0 1.875.25 2.343.75.258.274.41.602.454.984.019.243.03.57.03.985v1.687c0 1.23.032 2.028.095 2.391H4.546l-.078-.531c-.606.48-1.262.719-1.969.719-.625 0-1.125-.157-1.5-.47-.406-.343-.61-.8-.61-1.374 0-.696.313-1.254.938-1.672.488-.32 1.453-.633 2.89-.938l.157-.03v-.157c0-.3-.047-.504-.14-.61-.137-.144-.352-.218-.641-.218-.512 0-.809.258-.89.765zm1.672 1.547a4.589 4.589 0 00-1.078.281c-.469.18-.703.454-.703.829 0 .18.07.32.219.421.113.075.253.11.421.11.352 0 .735-.145 1.141-.438zm0 0"/></symbol><symbol overflow="visible" id="l"><path d="M3.594-6.797c1.176 0 2.047.445 2.61 1.328.35.574.53 1.309.53 2.203a4.57 4.57 0 01-.328 1.704c-.218.554-.562.968-1.031 1.25-.531.332-1.172.5-1.922.5-.992 0-1.75-.32-2.281-.97C.66-1.413.406-2.25.406-3.281c0-1.218.344-2.132 1.031-2.75.563-.507 1.282-.765 2.157-.765zM3.563-5.28c-.649 0-.97.648-.97 1.937 0 1.356.321 2.031.97 2.031.3 0 .519-.113.656-.343.218-.375.328-.969.328-1.782 0-1.226-.328-1.843-.984-1.843zm0 0"/></symbol><symbol overflow="visible" id="m"><path d="M10.89-9.297V0H8.579v-6.172l-.015-.375c0-.008.003-.219.015-.625v-.39c-.031.125-.094.402-.187.828l-.079.343L6.782 0H4.968l-1.5-6.172a20.215 20.215 0 01-.266-1.39V0H.891v-9.297h3.656l1.14 4.703c.157.657.25 1.18.282 1.563.039-.32.117-.781.234-1.375l.031-.188.954-4.703zm0 0"/></symbol><symbol overflow="visible" id="n"><path d="M2.781-9.297v3.5a2.45 2.45 0 01.719-.562c.508-.29.977-.438 1.406-.438.395 0 .739.117 1.032.344.351.273.562.73.625 1.375.019.168.03.406.03.719V0H4.5v-4.203c0-.25-.031-.43-.094-.547a.674.674 0 00-.625-.36c-.336 0-.668.18-1 .532V0H.687v-9.297zm0 0"/></symbol><symbol overflow="visible" id="o"><path d="M1.172-9.297h4.875v.625H1.875v3.406h3.063v.641H1.874v3.984H6.25V0H1.172zm0 0"/></symbol><symbol overflow="visible" id="p"><path d="M4.625-5.64l-.453.343c-.45-.582-.984-.875-1.61-.875-.398 0-.718.106-.968.313-.25.218-.375.484-.375.796 0 .375.195.684.593.922.208.125.579.282 1.11.47.676.25 1.129.468 1.36.655.35.305.53.704.53 1.204 0 .53-.203.984-.609 1.359-.406.375-.945.562-1.61.562C1.665.11.927-.328.376-1.203l.5-.313c.457.711 1.05 1.063 1.781 1.063.5 0 .895-.156 1.188-.469.219-.25.328-.531.328-.844 0-.28-.09-.52-.266-.718-.168-.196-.547-.395-1.14-.594-.75-.25-1.293-.504-1.625-.766C.773-4.133.594-4.52.594-5c0-.5.195-.914.594-1.25.363-.3.835-.453 1.421-.453.82 0 1.493.355 2.016 1.062zm0 0"/></symbol><symbol overflow="visible" id="q"><path d="M5.078-5.016l-.578.188a2.22 2.22 0 00-.313-.656c-.304-.438-.695-.657-1.171-.657-.606 0-1.075.309-1.407.922-.28.532-.421 1.188-.421 1.969 0 .68.113 1.266.343 1.766.301.68.785 1.015 1.453 1.015.551 0 1.008-.265 1.375-.797a4.65 4.65 0 00.313-.546l.531.265c-.137.313-.308.59-.516.828-.46.543-1.027.813-1.703.813C2.098.094 1.438-.305 1-1.11.656-1.734.484-2.453.484-3.266c0-.882.196-1.656.594-2.312a2.37 2.37 0 01.797-.813A2.142 2.142 0 013-6.703c.633 0 1.148.234 1.547.703a3.1 3.1 0 01.531.984zm0 0"/></symbol><symbol overflow="visible" id="r"><path d="M3.047-6.703c.875 0 1.539.402 2 1.203.32.543.484 1.281.484 2.219 0 1.281-.34 2.234-1.015 2.86-.387.355-.883.53-1.485.53-.898 0-1.578-.382-2.047-1.156-.336-.562-.5-1.3-.5-2.219 0-1.07.235-1.921.704-2.546.457-.594 1.078-.891 1.859-.891zm-.016.562c-.71 0-1.23.344-1.562 1.032-.23.46-.344 1.074-.344 1.843 0 .887.156 1.575.469 2.063.332.512.812.766 1.437.766.446 0 .801-.13 1.063-.391.531-.508.797-1.332.797-2.469 0-1.156-.282-1.976-.844-2.469-.274-.25-.61-.375-1.016-.375zm0 0"/></symbol><symbol overflow="visible" id="s"><path d="M1.61-9.297V0H.968v-9.297zm0 0"/></symbol><symbol overflow="visible" id="t"><path d="M1.266-5.125l-.47-.297c.438-.851 1.165-1.281 2.188-1.281.5 0 .93.121 1.297.36.414.28.664.718.75 1.312.032.18.047.523.047 1.031v1.61c.008 1.105.067 1.902.172 2.39h-.64c-.063-.27-.11-.61-.141-1.016a7.37 7.37 0 01-.625.594c-.418.344-.89.516-1.422.516-.574 0-1.027-.176-1.36-.531-.324-.32-.484-.735-.484-1.235 0-1 .64-1.719 1.922-2.156.352-.113.848-.238 1.484-.375.227-.05.38-.086.454-.11 0-.57-.075-.976-.22-1.218-.25-.407-.671-.61-1.265-.61-.469 0-.875.149-1.219.438-.187.148-.343.34-.468.578zm3.171 1.281c-.699.168-1.289.344-1.765.531-.438.168-.762.34-.969.516-.336.293-.5.664-.5 1.11 0 .324.11.601.328.828.25.261.555.39.922.39.645 0 1.305-.363 1.985-1.094zm0 0"/></symbol><symbol overflow="visible" id="u"><path d="M5.281-9.297v7.64c-.011.68.02 1.231.094 1.657h-.594a7.649 7.649 0 01-.11-.89c-.198.23-.386.417-.562.562a1.958 1.958 0 01-1.218.422 2.016 2.016 0 01-1.485-.61C.79-1.129.484-2.078.484-3.359c0-.864.164-1.57.5-2.125.196-.332.454-.61.766-.829.363-.257.75-.39 1.156-.39.614 0 1.192.308 1.735.922v-3.516zm-.64 4.078c-.543-.613-1.102-.922-1.672-.922-.418 0-.778.157-1.078.47-.512.53-.766 1.308-.766 2.327 0 1.137.281 1.977.844 2.516.25.242.566.36.953.36.394 0 .789-.145 1.187-.438a2.79 2.79 0 00.532-.516zm0 0"/></symbol><symbol overflow="visible" id="v"><path d="M5.172-3.297H1.125c.063.961.234 1.649.516 2.063.351.511.804.765 1.359.765.582 0 1.086-.281 1.516-.844.082-.113.175-.257.28-.437l.454.297c-.148.25-.29.465-.422.64-.469.606-1.086.907-1.844.907-.98 0-1.683-.473-2.109-1.422-.262-.57-.39-1.234-.39-1.984 0-.79.117-1.446.359-1.97.426-.945 1.101-1.421 2.031-1.421.977 0 1.66.543 2.047 1.625.164.46.25 1.055.25 1.781zm-4.047-.578h3.39a4.225 4.225 0 00-.265-1.281 1.895 1.895 0 00-.578-.719 1.28 1.28 0 00-.797-.266c-.656 0-1.152.368-1.484 1.094a3.493 3.493 0 00-.266 1.172zm0 0"/></symbol><symbol overflow="visible" id="w"><path d="M1.172-9.297h1.094c.656 0 1.148.016 1.484.047.875.094 1.563.36 2.063.797.882.773 1.328 2.023 1.328 3.75 0 1.586-.387 2.805-1.157 3.656C5.348-.347 4.266 0 2.734 0H1.172zm.703.578v8.14h.844c.75 0 1.351-.081 1.812-.25.75-.28 1.285-.882 1.61-1.812.195-.593.296-1.28.296-2.062 0-1.195-.234-2.16-.703-2.89a2.371 2.371 0 00-1.406-.97c-.437-.101-1.047-.156-1.828-.156zm0 0"/></symbol><symbol overflow="visible" id="x"><path d="M1.61-6.61V0H.968v-6.61zm.03-2.296v.937H.939v-.937zm0 0"/></symbol><symbol overflow="visible" id="y"><path d="M3.734-6.734v.609c-.343.012-.632.086-.859.219-.781.449-1.203 1.234-1.266 2.36V0H.97v-6.61h.64v1.75c.133-.456.32-.831.563-1.124.406-.5.86-.75 1.36-.75h.202zm0 0"/></symbol><symbol overflow="visible" id="z"><path d="M1.797-8.984v2.375h1.437v.593H1.797v4.422c.008.492.035.782.078.875.113.219.336.328.672.328.133 0 .363-.03.687-.093v.546a5.992 5.992 0 01-.828.094c-.511 0-.86-.136-1.047-.406-.093-.145-.156-.39-.187-.734a12.48 12.48 0 01-.016-.735v-4.297H.141v-.593h1.015v-2.375zm0 0"/></symbol><symbol overflow="visible" id="A"><path d="M4.781-10.625v6.984c0 1.137-.105 1.934-.312 2.391-.18.418-.45.75-.813 1-.437.29-.937.438-1.5.438-.73 0-1.297-.239-1.703-.72-.18-.206-.344-.484-.5-.827l.922-.547c.031.062.055.12.078.172.238.437.457.714.656.828.176.105.368.156.579.156.406 0 .738-.148 1-.453.226-.25.363-.617.406-1.11.02-.218.035-.718.047-1.5v-6.812zm0 0"/></symbol><symbol overflow="visible" id="B"><path d="M3.5-7.703c.758 0 1.398.242 1.922.719.726.668 1.094 1.765 1.094 3.296 0 .887-.157 1.665-.47 2.329-.187.406-.46.734-.812.984-.492.355-1.062.531-1.718.531-.637 0-1.196-.172-1.672-.515C.957-1.004.516-2.125.516-3.72c0-1.176.238-2.11.718-2.797.54-.789 1.297-1.187 2.266-1.187zm0 .86c-.438 0-.828.152-1.172.452-.543.47-.812 1.336-.812 2.594 0 .98.156 1.735.468 2.266.133.23.329.422.579.578.289.168.601.25.937.25.77 0 1.316-.363 1.64-1.094.239-.539.36-1.191.36-1.953 0-.863-.133-1.55-.39-2.063a1.888 1.888 0 00-.673-.75 1.709 1.709 0 00-.937-.28zm0 0"/></symbol><symbol overflow="visible" id="C"><path d="M2.047-10.625v4.219c.363-.352.66-.617.89-.797a2.35 2.35 0 011.485-.5c.738 0 1.281.262 1.625.781.187.281.297.61.328.984.02.274.031.59.031.954V0H5.375v-4.984c0-.602-.047-1.02-.14-1.25-.063-.164-.196-.313-.391-.438a1.16 1.16 0 00-.61-.172c-.449 0-.949.219-1.5.657a3.42 3.42 0 00-.687.656V0H1.016v-10.625zm0 0"/></symbol><symbol overflow="visible" id="D"><path d="M2.047-7.563v1.204c.758-.907 1.57-1.36 2.437-1.36.457 0 .864.14 1.22.422.331.274.538.64.624 1.11.04.25.063.656.063 1.218V0H5.359v-4.969c0-.539-.027-.91-.078-1.11a1.038 1.038 0 00-.39-.546 1.115 1.115 0 00-.672-.219c-.586 0-1.309.43-2.172 1.282V0H1.016v-7.563zm0 0"/></symbol><symbol overflow="visible" id="E"><path d="M1.219-10.625l1.843 6.594c.313 1.125.524 2 .641 2.625.05-.414.11-.77.172-1.063l.328-1.281.078-.281 1.89-6.594h1.063L4.094 0h-.907L.047-10.625zm0 0"/></symbol><symbol overflow="visible" id="F"><path d="M5.625-2.172l.734.5a3.98 3.98 0 01-.609.875c-.594.637-1.305.953-2.125.953-.688 0-1.297-.21-1.828-.64C.94-1.172.516-2.29.516-3.844c0-1.226.304-2.207.921-2.937.508-.614 1.188-.922 2.032-.922 1.164 0 1.976.617 2.437 1.844.207.554.317 1.293.328 2.218H1.578c0 .98.211 1.727.64 2.235.395.48.876.718 1.438.718.625 0 1.156-.296 1.594-.89.094-.125.219-.32.375-.594zM1.578-4.516h3.547c0-.507-.086-.945-.25-1.312-.313-.676-.79-1.016-1.422-1.016-.48 0-.898.184-1.25.547-.355.387-.562.98-.625 1.781zm0 0"/></symbol><symbol overflow="visible" id="G"><path d="M4.563-7.672v.984c-.625.032-1.137.247-1.532.641-.367.387-.695.992-.984 1.813V0H1.016v-7.563h1.03v1.97a3.081 3.081 0 011.345-1.845c.289-.164.68-.242 1.171-.234zm0 0"/></symbol><symbol overflow="visible" id="H"><path d="M6.078-7.563L3.75-.484c-.273.832-.559 1.492-.86 1.984-.468.727-1.109 1.094-1.921 1.094-.23 0-.57-.047-1.016-.14l.11-.907c.32.101.57.156.75.156.488 0 .882-.21 1.187-.625.195-.273.395-.633.594-1.078L.063-7.563h1L2.75-2.625c.145.418.266.813.36 1.188.05-.22.14-.532.265-.938l.063-.25 1.609-4.938zm0 0"/></symbol><symbol overflow="visible" id="I"><path d="M2.36-10.625v9.64h4.609V0h-5.75v-10.625zm0 0"/></symbol><symbol overflow="visible" id="J"><path d="M6.875-7.86v.923c-.086-.008-.137-.016-.156-.016-.418 0-.79.09-1.11.266.375.5.563 1.058.563 1.671 0 .657-.215 1.227-.64 1.704-.5.574-1.169.859-2 .859a2.86 2.86 0 01-1.157-.25l-.11.11c-.21.187-.328.312-.359.374A.366.366 0 001.828-2c0 .156.067.266.203.328.188.106.442.168.766.188.476.043.914.078 1.312.109.926.063 1.567.184 1.922.36.625.312.938.796.938 1.452 0 .739-.367 1.297-1.094 1.672-.586.301-1.371.454-2.36.454-1.261 0-2.163-.29-2.703-.86a1.198 1.198 0 01-.328-.86c0-.71.473-1.226 1.422-1.562a1.453 1.453 0 01-.578-.219c-.336-.218-.5-.488-.5-.812 0-.27.133-.535.406-.797.125-.125.348-.281.672-.469-.718-.55-1.078-1.25-1.078-2.093 0-.758.258-1.391.781-1.891.477-.477 1.102-.719 1.875-.719.633 0 1.188.18 1.657.532.52-.446 1.097-.672 1.734-.672zM3.5-6.843c-.555 0-.984.2-1.297.594-.25.324-.375.727-.375 1.203 0 .555.164.984.5 1.297.313.293.695.438 1.156.438.625 0 1.086-.223 1.391-.672.207-.32.313-.68.313-1.079 0-.593-.196-1.05-.579-1.375A1.648 1.648 0 003.5-6.843zM2.922-.5c-.586.21-.965.383-1.14.516-.2.156-.298.379-.298.671 0 .688.68 1.032 2.047 1.032 1.02 0 1.739-.184 2.156-.547A.803.803 0 005.97.547c0-.48-.36-.781-1.078-.906a22.08 22.08 0 00-1.266-.125c-.438-.02-.672-.024-.703-.016zm0 0"/></symbol><symbol overflow="visible" id="K"><path d="M1.516-5.64l-.813-.532c.57-1.02 1.469-1.531 2.688-1.531.8 0 1.441.219 1.921.656.29.262.477.574.563.938.07.312.11.695.11 1.14V-2c0 .805.066 1.469.202 2H5.063c-.054-.25-.093-.648-.125-1.203a6.49 6.49 0 01-.75.797c-.437.375-.968.562-1.593.562-.637 0-1.14-.191-1.516-.578C.691-.828.5-1.352.5-2c0-.906.379-1.57 1.14-2 .508-.29 1.274-.566 2.298-.828.144-.04.476-.129 1-.266-.012-.445-.063-.773-.157-.984a1.196 1.196 0 00-.515-.563 1.843 1.843 0 00-.875-.203c-.856 0-1.48.403-1.875 1.203zm3.421 1.39c-1.085.313-1.804.543-2.156.688-.492.21-.824.437-1 .687-.18.23-.265.508-.265.828 0 .461.144.82.437 1.078.207.18.461.266.766.266.75 0 1.488-.508 2.219-1.531zm0 0"/></symbol><symbol overflow="visible" id="L"><path d="M2.047-7.563v1.172c.3-.343.582-.613.844-.812a2.48 2.48 0 011.484-.5c.55 0 1.004.195 1.36.578.175.2.304.445.39.734.79-.875 1.602-1.312 2.438-1.312.5 0 .937.137 1.312.406.32.242.531.61.625 1.11.05.261.078.562.078.906V0H9.531v-5.406c0-.383-.054-.676-.156-.875-.2-.375-.527-.563-.984-.563-.594 0-1.293.399-2.094 1.188V0H5.25v-5.281c0-.407-.04-.703-.11-.89a1.129 1.129 0 00-.39-.5 1.087 1.087 0 00-.594-.173c-.406 0-.855.18-1.343.532a8.684 8.684 0 00-.766.656V0H1.016v-7.563zm0 0"/></symbol><symbol overflow="visible" id="M"><path d="M1.219-10.625h1.765c.614 0 1.149.027 1.61.078.883.106 1.601.39 2.156.86 1.063.917 1.594 2.359 1.594 4.328 0 1.28-.211 2.343-.625 3.187-.407.793-.95 1.356-1.625 1.688C5.426-.16 4.554 0 3.484 0H1.22zm1.14.984v8.657h.766c.727 0 1.238-.02 1.531-.063.29-.05.61-.164.953-.344.582-.3 1.008-.828 1.282-1.578.226-.633.343-1.406.343-2.312 0-1.79-.398-3.02-1.187-3.688-.531-.445-1.438-.672-2.719-.672zm0 0"/></symbol><symbol overflow="visible" id="N"><path d="M3.078-2.5L2.438 0H-.11l2.937-10.625h3.328L9.046 0H6.329l-.625-2.5zm.453-1.86h1.75l-.64-2.937a14.302 14.302 0 01-.235-1.594 32.713 32.713 0 01-.25 1.594zm0 0"/></symbol><symbol overflow="visible" id="O"><path d="M2.719-10.625L4.016-4.75l.046.219c.145.687.274 1.351.391 1.984.05-.426.192-1.16.422-2.203l1.406-5.875h2.594L5.937 0H2.845L-.11-10.625zm0 0"/></symbol><symbol overflow="visible" id="P"><path d="M5.188-2.375l2.218.188c-.117.511-.304.933-.562 1.265C6.258-.172 5.328.203 4.047.203c-1.242 0-2.168-.379-2.781-1.14C.723-1.614.453-2.516.453-3.642c0-1.207.266-2.164.797-2.875a2.96 2.96 0 011.297-.968 3.95 3.95 0 011.484-.282c1.008 0 1.813.313 2.407.938.468.492.765 1.105.89 1.844.031.18.063.757.094 1.734H2.984c0 .586.063.984.188 1.203.195.356.515.531.953.531.563 0 .914-.285 1.063-.859zM2.983-4.547h2.204c-.012-.351-.063-.644-.157-.875-.187-.406-.508-.61-.953-.61a.952.952 0 00-.86.485c-.155.262-.234.594-.234 1zm0 0"/></symbol><symbol overflow="visible" id="Q"><path d="M5.938-7.688v2.266a2.495 2.495 0 00-.532-.062c-.574 0-1.078.168-1.515.5-.274.199-.508.484-.704.859V0H.797v-7.5h2.39v.672c0 .012-.007.07-.015.172v.187c0 .086.004.262.015.532.208-.415.446-.754.72-1.016.507-.508 1.07-.766 1.687-.766.07 0 .187.012.343.032zm0 0"/></symbol><symbol overflow="visible" id="R"><path d="M7.172-7.5L4.797-.187c-.344 1.07-.656 1.789-.938 2.156-.492.633-1.25.953-2.28.953-.368 0-.806-.055-1.313-.156v-1.75c.351.093.648.14.89.14.551 0 .93-.23 1.14-.687.052-.117.102-.274.157-.469l-2.61-7.5h2.61l.938 3.516c.132.617.222 1.074.265 1.375.063-.407.149-.864.266-1.375L4.687-7.5zm0 0"/></symbol><symbol overflow="visible" id="S"><path d="M3.656-10.625v8.64h4.11V0h-6.75v-10.625zm0 0"/></symbol><symbol overflow="visible" id="T"><path d="M4.094-7.766c1.351 0 2.347.512 2.984 1.532.414.648.625 1.48.625 2.5 0 .668-.133 1.312-.39 1.937-.25.637-.641 1.121-1.172 1.453C5.535.031 4.805.22 3.953.22c-1.148 0-2.015-.367-2.61-1.11C.75-1.617.454-2.57.454-3.75c0-1.383.399-2.43 1.203-3.14.633-.583 1.446-.876 2.438-.876zM4.062-6.03c-.73 0-1.093.742-1.093 2.218 0 1.543.367 2.313 1.11 2.313.331 0 .577-.133.734-.406.25-.414.375-1.086.375-2.016 0-1.406-.375-2.11-1.125-2.11zm0 0"/></symbol><symbol overflow="visible" id="U"><path d="M3.188-7.5v.86c.832-.75 1.671-1.126 2.515-1.126.426 0 .805.137 1.14.407.364.304.583.789.657 1.453.031.242.047.605.047 1.093V0h-2.39v-4.813c0-.675-.266-1.015-.798-1.015-.367 0-.757.195-1.171.578V0H.796v-7.5zm0 0"/></symbol><symbol overflow="visible" id="V"><path d="M8.297-7.89v1.624a1.248 1.248 0 00-.563-.14 1.82 1.82 0 00-.656.14c.32.368.484.793.484 1.282 0 .71-.296 1.289-.89 1.734-.586.46-1.43.688-2.531.688-.293 0-.594-.032-.907-.094-.273.117-.406.261-.406.437 0 .106.047.18.14.219.126.063.302.105.532.125l1.39.094c1.157.074 1.805.133 1.954.172.945.273 1.422.906 1.422 1.906 0 .937-.454 1.629-1.36 2.078-.668.332-1.601.5-2.797.5-1.343 0-2.336-.227-2.968-.672a1.434 1.434 0 01-.438-.5 1.093 1.093 0 01-.156-.562c0-.532.3-.954.906-1.266-.46-.29-.687-.688-.687-1.188 0-.425.187-.8.562-1.125.176-.144.469-.296.875-.453C1.172-3.328.656-4.066.656-5.109c0-.926.399-1.633 1.203-2.125.582-.352 1.286-.532 2.11-.532 1.008 0 1.789.243 2.344.72.375-.563.953-.845 1.734-.845h.25zM4.14-6.298c-.649 0-.97.399-.97 1.188 0 .343.071.62.22.828.164.218.406.328.718.328.25 0 .454-.07.61-.219.226-.207.343-.52.343-.937 0-.407-.101-.711-.296-.922a.8.8 0 00-.625-.266zM2.375.156a.684.684 0 00-.203.485c0 .53.789.796 2.375.796 1.27 0 1.906-.203 1.906-.609A.333.333 0 006.375.61C6.281.492 6.062.438 5.719.438 4.477.438 3.363.344 2.375.156zm0 0"/></symbol><symbol overflow="visible" id="W"><path d="M3.094-5.156L.766-5.438c.101-.593.304-1.054.609-1.39.57-.625 1.5-.938 2.781-.938 1.25 0 2.14.29 2.672.86.3.312.473.687.516 1.125.031.273.047.648.047 1.125v1.922c0 1.406.035 2.32.109 2.734H5.187l-.093-.61c-.688.544-1.434.813-2.235.813-.71 0-1.28-.18-1.718-.531C.67-.723.437-1.242.437-1.891c0-.8.36-1.437 1.079-1.906.562-.363 1.66-.719 3.296-1.062L5-4.906v-.188c0-.343-.055-.57-.156-.687-.157-.164-.403-.25-.735-.25-.586 0-.921.293-1.015.875zM5-3.391a5.598 5.598 0 00-1.219.313c-.543.21-.812.527-.812.953 0 .21.082.371.25.484a.807.807 0 00.469.125c.406 0 .843-.164 1.312-.5zm0 0"/></symbol><symbol overflow="visible" id="X"><path d="M7.516-10.625V0H5.437l-.125-.766c-.593.649-1.257.97-1.984.97-1 0-1.762-.458-2.281-1.376C.648-1.859.453-2.719.453-3.75c0-1.125.223-2.031.672-2.719.227-.351.52-.648.875-.89.406-.27.836-.407 1.297-.407.687 0 1.297.325 1.828.97v-3.829zM5.125-5.156c-.273-.446-.621-.672-1.047-.672a.817.817 0 00-.672.344c-.293.375-.437.949-.437 1.718 0 1.024.219 1.715.656 2.079a.675.675 0 00.484.171c.414 0 .754-.226 1.016-.687zm0 0"/></symbol><symbol overflow="visible" id="Y"><path d="M3.656-10.625V0h-2.64v-10.625zm0 0"/></symbol><symbol overflow="visible" id="Z"><path d="M3.188-7.5v.89c.78-.769 1.562-1.156 2.343-1.156.477 0 .89.168 1.235.5.175.168.316.387.421.657a4.71 4.71 0 01.891-.688c.54-.312 1.067-.469 1.578-.469.446 0 .844.133 1.188.391.351.281.578.73.672 1.344.039.261.062.593.062 1V0h-2.39v-4.781c0-.375-.043-.63-.126-.766-.124-.187-.32-.281-.578-.281-.386 0-.757.195-1.109.578V0h-2.39v-4.781c0-.696-.235-1.047-.704-1.047-.367 0-.73.195-1.093.578V0H.796v-7.5zm0 0"/></symbol><symbol overflow="visible" id="aa"><path d="M3.188-7.5v.781c.55-.695 1.222-1.047 2.015-1.047.625 0 1.164.243 1.625.72.676.698 1.016 1.73 1.016 3.093 0 1.031-.172 1.918-.516 2.656-.21.45-.527.813-.953 1.094a2.54 2.54 0 01-1.406.406c-.68 0-1.274-.273-1.782-.828v3.39H.797V-7.5zm0 5.313c.28.449.609.671.984.671.344 0 .61-.16.797-.484.238-.395.36-1 .36-1.813 0-.843-.165-1.437-.485-1.78a.72.72 0 00-.547-.235c-.367 0-.734.215-1.11.64zm0 0"/></symbol><symbol overflow="visible" id="ab"><path d="M6.219-5.672L4.03-5.5c-.043-.445-.265-.672-.672-.672a.748.748 0 00-.578.234.627.627 0 00-.14.407c0 .312.156.539.468.672.082.03.52.132 1.313.296C5.805-4.288 6.5-3.538 6.5-2.313c0 .75-.281 1.368-.844 1.844C5.113-.008 4.32.22 3.281.22 1.562.219.63-.547.484-2.078l2.235-.14c.062.562.332.843.812.843.281 0 .489-.102.625-.313a.679.679 0 00.11-.359c0-.383-.297-.633-.891-.75a23.176 23.176 0 01-1.328-.297 2.592 2.592 0 01-.64-.297C.77-3.797.452-4.42.452-5.266c0-.757.29-1.379.875-1.859.5-.426 1.176-.64 2.031-.64 1.133 0 1.946.312 2.438.937.207.273.348.656.422 1.156zm0 0"/></symbol><symbol overflow="visible" id="ac"><path d="M3.188-7.5V0H.796v-7.5zm0-3.125v2.14H.796v-2.14zm0 0"/></symbol><symbol overflow="visible" id="ad"><path d="M7.156-7.5L4.938 0H2.25L-.156-7.5h2.625l.75 3c.219.918.375 1.793.469 2.625.05-.758.187-1.68.406-2.766L4.672-7.5zm0 0"/></symbol><symbol overflow="visible" id="ae"><path d="M.11-10.625h8.28v1.984H5.563V0h-2.64v-8.64H.109zm0 0"/></symbol><symbol overflow="visible" id="af"><path d="M3.188-10.625v4.016c.207-.25.472-.47.796-.657.594-.332 1.133-.5 1.625-.5.446 0 .836.133 1.172.391.407.313.645.84.719 1.578.02.188.031.461.031.813V0h-2.39v-4.797c0-.289-.04-.504-.11-.64-.156-.258-.398-.391-.718-.391-.375 0-.75.2-1.125.594V0H.796v-10.625zm0 0"/></symbol><symbol overflow="visible" id="ag"><path d="M3.406-9.547V-7.5h1.531v1.656h-1.53v3c0 .399.019.656.062.781.05.126.16.243.328.344a.77.77 0 00.453.14c.133 0 .363-.062.688-.187V0c-.45.063-.97.094-1.563.094-.773 0-1.328-.133-1.672-.406-.324-.25-.531-.602-.625-1.063-.043-.207-.062-.516-.062-.922v-3.547H-.156V-7.5h1.172v-2.047zm0 0"/></symbol><symbol overflow="visible" id="ah"><path d="M3.188-10.625V0H.796v-10.625zm0 0"/></symbol><symbol overflow="visible" id="ai"><path d="M2.516-7.5l.796 4c.114.656.176 1.21.188 1.656.031-.332.098-.812.203-1.437l.031-.219.688-4h2.562l.688 3.875c.101.617.172 1.21.203 1.781.02-.332.098-.926.234-1.781L8.891-7.5h2.437L9.203 0H6.61l-.718-3.922-.032-.234a26.257 26.257 0 01-.187-1.25 26.07 26.07 0 01-.156 1.234l-.047.25L4.78 0H2.125L0-7.5zm0 0"/></symbol><symbol overflow="visible" id="aj"><path d="M1.016-10.625h6.953v1.984H3.656v2.157H7.22V-4.5H3.656V0h-2.64zm0 0"/></symbol><symbol overflow="visible" id="ak"><path d="M7.297-5.125l-2.156.344c-.024-.383-.11-.68-.266-.89a.894.894 0 00-.734-.36c-.782 0-1.172.75-1.172 2.25 0 1.511.367 2.265 1.11 2.265.32 0 .57-.113.75-.343.132-.188.237-.489.312-.907l2.156.25C7.097-.703 5.992.204 3.984.204c-1.187 0-2.07-.36-2.64-1.079-.594-.727-.89-1.68-.89-2.86 0-1.163.296-2.1.89-2.812.664-.812 1.593-1.219 2.781-1.219 1.133 0 1.988.371 2.563 1.11.312.406.515.918.609 1.531zm0 0"/></symbol><symbol overflow="visible" id="al"><path d="M1.016-10.625H4.89c.55 0 .96.023 1.234.063 1.082.136 1.832.648 2.25 1.53.188.387.281.79.281 1.204 0 1.105-.508 1.86-1.515 2.266.382.085.707.25.968.5.57.511.86 1.195.86 2.046 0 .875-.297 1.606-.89 2.188a2.59 2.59 0 01-1.188.672C6.492-.051 6.05 0 5.562 0H1.016zm2.64 4.14H4.5c.477 0 .813-.054 1-.171.281-.188.422-.492.422-.922 0-.445-.168-.754-.5-.922-.2-.094-.508-.14-.922-.14h-.844zm0 4.5H4.5c.707 0 1.18-.117 1.422-.359.219-.219.328-.504.328-.86 0-.394-.133-.71-.39-.952-.25-.227-.743-.344-1.47-.344h-.734zm0 0"/></symbol><symbol overflow="visible" id="am"><path d="M3.188-10.625v5.375L4.78-7.5H7.5L5.266-4.781 7.796 0H5.079L3.625-2.906l-.438.531V0H.797v-10.625zm0 0"/></symbol><symbol overflow="visible" id="an"><path d="M3.406 2.11l-2.11-4.907 2.11-4.906h-.515L.547-2.797 2.89 2.11zm0 0"/></symbol><symbol overflow="visible" id="at"><path d="M3.406-2.797L1.062-7.703H.547l2.11 4.906L.546 2.11h.515zm0 0"/></symbol><symbol overflow="visible" id="ao"><path d="M1.406-5.203v.812c.207-.238.399-.425.578-.562A1.694 1.694 0 013-5.297a1.204 1.204 0 011.203.906c.55-.601 1.113-.906 1.688-.906.343 0 .64.094.89.281.227.168.375.422.438.766.031.18.047.387.047.625V0h-.72v-3.719c0-.27-.038-.469-.109-.594-.136-.257-.359-.39-.671-.39-.407 0-.887.277-1.438.828V0H3.61v-3.625c0-.281-.027-.488-.078-.625a.722.722 0 00-.672-.453c-.28 0-.59.121-.921.36-.125.093-.305.25-.532.468V0H.688v-5.203zm0 0"/></symbol><symbol overflow="visible" id="ap"><path d="M2.406-5.297c.52 0 .961.168 1.328.5.489.45.735 1.203.735 2.266 0 .605-.106 1.136-.313 1.594a1.836 1.836 0 01-.562.687c-.336.242-.73.36-1.188.36a1.88 1.88 0 01-1.14-.36C.66-.688.359-1.453.359-2.547c0-.812.16-1.457.485-1.937.375-.54.894-.813 1.562-.813zm0 .594c-.304 0-.574.105-.812.312-.375.325-.563.918-.563 1.782 0 .668.11 1.187.328 1.562.094.156.227.29.407.39.195.118.41.173.64.173.531 0 .906-.25 1.125-.75.164-.375.25-.82.25-1.344 0-.594-.09-1.067-.265-1.422a1.56 1.56 0 00-.47-.516 1.187 1.187 0 00-.64-.187zm0 0"/></symbol><symbol overflow="visible" id="aq"><path d="M1.406-5.203v.828c.52-.613 1.078-.922 1.672-.922.313 0 .594.094.844.281.226.188.375.446.437.766.02.168.032.45.032.844V0h-.72v-3.406c0-.375-.015-.63-.046-.766a.742.742 0 00-.266-.39.787.787 0 00-.453-.141c-.406 0-.906.293-1.5.875V0H.688v-5.203zm0 0"/></symbol><symbol overflow="visible" id="ar"><path d="M1.563-6.953v1.75h1.093v.61H1.562v3.234c0 .105.016.261.047.468.032.188.11.309.235.36a.675.675 0 00.312.062c.114 0 .281-.02.5-.062V0a2.476 2.476 0 01-.734.125c-.461 0-.774-.145-.938-.438C.91-.413.867-.597.86-.859c0-.04-.007-.266-.015-.672v-3.063H.03v-.61h.813v-1.75zm0 0"/></symbol><symbol overflow="visible" id="as"><path d="M1.406-7.297v2.89c.25-.238.453-.421.61-.546a1.601 1.601 0 011.015-.344c.508 0 .883.184 1.125.547.125.188.196.414.219.672.02.187.031.406.031.656V0h-.718v-3.422c0-.414-.032-.703-.094-.86a.634.634 0 00-.266-.296.754.754 0 00-.422-.125c-.304 0-.648.152-1.031.453-.18.137-.336.29-.469.453V0H.688v-7.297zm0 0"/></symbol><symbol overflow="visible" id="au"><path d="M1.75-1.016V0l-.516 1.453h-.5L1.234 0H.875v-1.016zm0 0"/></symbol><symbol overflow="visible" id="av"><path d="M4.188-5.203l-1.61 4.86c-.187.58-.387 1.037-.594 1.373-.312.5-.75.75-1.312.75-.156 0-.39-.031-.703-.093l.078-.625c.219.07.39.109.515.109.333 0 .602-.149.813-.438.133-.18.27-.421.406-.734L.047-5.203h.687l1.157 3.406c.093.281.175.555.25.813a6.4 6.4 0 01.171-.641l.047-.172 1.11-3.406zm0 0"/></symbol><symbol overflow="visible" id="aw"><path d="M3.86-1.484l.515.328a2.64 2.64 0 01-.422.61c-.406.437-.898.655-1.469.655-.468 0-.886-.144-1.25-.437C.648-.797.36-1.566.36-2.641c0-.843.207-1.515.625-2.015.352-.426.82-.64 1.407-.64.789 0 1.347.421 1.671 1.265.145.386.22.898.22 1.531H1.077c0 .68.149 1.188.453 1.531.27.336.598.5.985.5.425 0 .789-.203 1.093-.61a8.78 8.78 0 00.25-.405zM1.077-3.11H3.53A2.598 2.598 0 003.36-4c-.218-.469-.546-.703-.984-.703-.336 0-.621.125-.86.375-.25.273-.398.68-.437 1.219zm0 0"/></symbol><symbol overflow="visible" id="ax"><path d="M1.047-3.875L.484-4.25c.395-.695 1.008-1.047 1.844-1.047.55 0 .988.152 1.313.453.207.18.336.39.39.64.051.22.078.485.078.798v2.031c0 .555.047 1.012.141 1.375h-.781a6.806 6.806 0 01-.078-.828c-.2.242-.371.422-.516.547-.305.261-.668.39-1.094.39C1.344.11.992-.023.734-.297c-.261-.281-.39-.64-.39-1.078 0-.625.258-1.082.781-1.375.352-.195.879-.39 1.578-.578.102-.02.332-.078.688-.172-.012-.3-.047-.531-.11-.688a.859.859 0 00-.344-.375 1.298 1.298 0 00-.609-.14c-.586 0-1.012.277-1.281.828zm2.344.953c-.75.219-1.243.375-1.47.469-.343.148-.577.305-.702.469a.901.901 0 00-.188.578c0 .312.102.558.313.734a.78.78 0 00.531.188c.508 0 1.016-.348 1.516-1.047zm0 0"/></symbol><symbol overflow="visible" id="ay"><path d="M3.14-5.266v.672c-.43.024-.78.168-1.062.438-.25.273-.476.687-.672 1.25V0H.688v-5.203h.718v1.36c.145-.54.453-.962.922-1.266.195-.114.469-.164.813-.157zm0 0"/></symbol><clipPath id="a"><path d="M223.29 0h70.866v70.781H223.29zm0 0"/></clipPath><clipPath id="b"><path d="M294.152 0h70.871v70.781h-70.87zm0 0"/></clipPath></defs><g clip-path="url(#a)"><path d="M223.29 70.781h70.866V-.086H223.29zm0 0" fill="#a4293c"/></g><path d="M276.95 27.082l-13.536 7.879c-2.457 1.418-4.617-2.313-2.16-3.73l13.535-7.88c2.461-1.417 4.613 2.313 2.16 3.731m-37.133.05l13.684 7.763c2.453 1.414 4.61-2.32 2.148-3.739l-13.683-7.758c-2.457-1.418-4.606 2.317-2.149 3.735m16.41 28.5V39.89a2.155 2.155 0 114.309 0v15.742a2.155 2.155 0 01-4.309 0m-13.546-8.41l6.574-3.727c2.46-1.422.3-5.152-2.152-3.734l-6.575 3.73c-2.453 1.418-.304 5.149 2.153 3.73m32.789.126l-6.399-3.864c-2.457-1.418-.297-5.148 2.16-3.726l6.399 3.863c2.453 1.414.3 5.145-2.16 3.727m-17.09-34.442a2.152 2.152 0 00-2.152 2.156v7.555c0 1.192.96 2.156 2.152 2.156a2.158 2.158 0 002.156-2.156v-7.555a2.156 2.156 0 00-2.156-2.156" fill="#fff"/><g clip-path="url(#b)"><path d="M294.152 70.781h70.871V-.086h-70.87zm0 0" fill="#ea002a"/></g><path d="M348.133 27.09l-13.52 7.87c-2.453 1.419-4.61-2.308-2.156-3.726l13.523-7.867c2.457-1.418 4.606 2.309 2.153 3.723m-34.945-3.68l13.671 7.75c2.457 1.418.305 5.149-2.144 3.735l-13.672-7.75c-2.453-1.418-.309-5.149 2.144-3.735m14.29 32.2l-.004-15.723a2.155 2.155 0 014.308 0l-.004 15.722a2.148 2.148 0 01-2.148 2.153 2.149 2.149 0 01-2.152-2.153m4.312-40.527v7.55a2.151 2.151 0 11-4.305 0v-7.55a2.151 2.151 0 114.305 0" fill="#fff"/><use xlink:href="#c" x="223.287" y="110.837" fill="#98989a"/><use xlink:href="#d" x="232.074" y="110.837" fill="#98989a"/><use xlink:href="#e" x="239.731" y="110.837" fill="#98989a"/><use xlink:href="#f" x="243.567" y="110.837" fill="#98989a"/><use xlink:href="#g" x="250.011" y="110.837" fill="#98989a"/><use xlink:href="#h" x="257.347" y="110.837" fill="#98989a"/><use xlink:href="#i" x="263.15" y="110.837" fill="#98989a"/><use xlink:href="#e" x="269.607" y="110.837" fill="#98989a"/><use xlink:href="#j" x="273.443" y="110.837" fill="#98989a"/><use xlink:href="#k" x="281.058" y="110.837" fill="#98989a"/><use xlink:href="#j" x="288.562" y="110.837" fill="#98989a"/><use xlink:href="#g" x="296.178" y="110.837" fill="#98989a"/><use xlink:href="#j" x="307.001" y="110.837" fill="#98989a"/><use xlink:href="#l" x="314.617" y="110.837" fill="#98989a"/><use xlink:href="#m" x="325.579" y="110.837" fill="#98989a"/><use xlink:href="#e" x="337.686" y="110.837" fill="#98989a"/><use xlink:href="#d" x="341.522" y="110.837" fill="#98989a"/><use xlink:href="#n" x="349.179" y="110.837" fill="#98989a"/><use xlink:href="#l" x="356.808" y="110.837" fill="#98989a"/><g fill="#98989a"><use xlink:href="#o" x="223.287" y="128.146"/><use xlink:href="#p" x="229.898" y="128.146"/><use xlink:href="#q" x="235.129" y="128.146"/><use xlink:href="#r" x="240.722" y="128.146"/><use xlink:href="#s" x="246.747" y="128.146"/><use xlink:href="#t" x="249.341" y="128.146"/></g><g fill="#98989a"><use xlink:href="#u" x="258.882" y="128.146"/><use xlink:href="#v" x="265.242" y="128.146"/></g><g fill="#98989a"><use xlink:href="#w" x="274.475" y="128.146"/><use xlink:href="#x" x="282.216" y="128.146"/><use xlink:href="#y" x="284.81" y="128.146"/></g><g fill="#98989a"><use xlink:href="#v" x="288.409" y="128.146"/><use xlink:href="#x" x="294.155" y="128.146"/><use xlink:href="#z" x="296.75" y="128.146"/></g><use xlink:href="#r" x="299.93" y="128.146" fill="#98989a"/><use xlink:href="#A" x="223.287" y="261.98" fill="#98989a"/><use xlink:href="#B" x="229.743" y="261.98" fill="#98989a"/><use xlink:href="#C" x="237.298" y="261.98" fill="#98989a"/><use xlink:href="#D" x="245.269" y="261.98" fill="#98989a"/><use xlink:href="#E" x="257.224" y="261.98" fill="#98989a"/><use xlink:href="#F" x="264.524" y="261.98" fill="#98989a"/><use xlink:href="#G" x="271.952" y="261.98" fill="#98989a"/><use xlink:href="#H" x="277.547" y="261.98" fill="#98989a"/><use xlink:href="#I" x="288.116" y="261.98" fill="#98989a"/><use xlink:href="#B" x="295.687" y="261.98" fill="#98989a"/><use xlink:href="#D" x="303.243" y="261.98" fill="#98989a"/><use xlink:href="#J" x="311.213" y="261.98" fill="#98989a"/><use xlink:href="#D" x="318.562" y="261.98" fill="#98989a"/><use xlink:href="#K" x="326.532" y="261.98" fill="#98989a"/><use xlink:href="#L" x="334.071" y="261.98" fill="#98989a"/><use xlink:href="#F" x="346.218" y="261.98" fill="#98989a"/><use xlink:href="#M" x="357.631" y="261.98" fill="#98989a"/><use xlink:href="#B" x="367.179" y="261.98" fill="#98989a"/><use xlink:href="#F" x="374.735" y="261.98" fill="#98989a"/><use xlink:href="#N" x="223.287" y="302.584" fill="#98989a"/><use xlink:href="#O" x="236.677" y="302.584" fill="#98989a"/><use xlink:href="#P" x="245.492" y="302.584" fill="#98989a"/><use xlink:href="#Q" x="253.94" y="302.584" fill="#98989a"/><use xlink:href="#R" x="260.922" y="302.584" fill="#98989a"/><use xlink:href="#S" x="272.367" y="302.584" fill="#98989a"/><use xlink:href="#T" x="280.751" y="302.584" fill="#98989a"/><use xlink:href="#U" x="289.359" y="302.584" fill="#98989a"/><use xlink:href="#V" x="298.174" y="302.584" fill="#98989a"/><use xlink:href="#W" x="310.91" y="302.584" fill="#98989a"/><use xlink:href="#U" x="319.55" y="302.584" fill="#98989a"/><use xlink:href="#X" x="328.365" y="302.584" fill="#98989a"/><use xlink:href="#Y" x="341.117" y="302.584" fill="#98989a"/><use xlink:href="#Z" x="346.234" y="302.584" fill="#98989a"/><use xlink:href="#aa" x="359.113" y="302.584" fill="#98989a"/><use xlink:href="#Q" x="367.865" y="302.584" fill="#98989a"/><use xlink:href="#P" x="374.464" y="302.584" fill="#98989a"/><use xlink:href="#ab" x="382.912" y="302.584" fill="#98989a"/><use xlink:href="#ab" x="390.356" y="302.584" fill="#98989a"/><use xlink:href="#ac" x="397.8" y="302.584" fill="#98989a"/><use xlink:href="#ad" x="402.248" y="302.584" fill="#98989a"/><use xlink:href="#P" x="409.66" y="302.584" fill="#98989a"/><use xlink:href="#ae" x="223.287" y="322.366" fill="#98989a"/><use xlink:href="#af" x="232.245" y="322.366" fill="#98989a"/><use xlink:href="#P" x="241.028" y="322.366" fill="#98989a"/><use xlink:href="#ab" x="249.477" y="322.366" fill="#98989a"/><use xlink:href="#ac" x="256.921" y="322.366" fill="#98989a"/><use xlink:href="#ab" x="261.368" y="322.366" fill="#98989a"/><use xlink:href="#ae" x="272.797" y="322.366" fill="#98989a"/><use xlink:href="#ac" x="281.788" y="322.366" fill="#98989a"/><use xlink:href="#ag" x="286.235" y="322.366" fill="#98989a"/><use xlink:href="#ah" x="291.75" y="322.366" fill="#98989a"/><use xlink:href="#P" x="296.197" y="322.366" fill="#98989a"/><use xlink:href="#ai" x="308.631" y="322.366" fill="#98989a"/><use xlink:href="#ac" x="320.411" y="322.366" fill="#98989a"/><use xlink:href="#ag" x="324.858" y="322.366" fill="#98989a"/><use xlink:href="#af" x="330.549" y="322.366" fill="#98989a"/><use xlink:href="#W" x="343.317" y="322.366" fill="#98989a"/><use xlink:href="#aj" x="355.941" y="322.366" fill="#98989a"/><use xlink:href="#T" x="364.469" y="322.366" fill="#98989a"/><use xlink:href="#Q" x="373.077" y="322.366" fill="#98989a"/><use xlink:href="#ak" x="379.676" y="322.366" fill="#98989a"/><use xlink:href="#P" x="387.886" y="322.366" fill="#98989a"/><use xlink:href="#X" x="396.334" y="322.366" fill="#98989a"/><use xlink:href="#S" x="409.086" y="322.366" fill="#98989a"/><use xlink:href="#ac" x="417.471" y="322.366" fill="#98989a"/><use xlink:href="#U" x="421.918" y="322.366" fill="#98989a"/><use xlink:href="#P" x="430.733" y="322.366" fill="#98989a"/><use xlink:href="#al" x="443.166" y="322.366" fill="#98989a"/><use xlink:href="#Q" x="453.113" y="322.366" fill="#98989a"/><use xlink:href="#P" x="459.712" y="322.366" fill="#98989a"/><use xlink:href="#W" x="468.16" y="322.366" fill="#98989a"/><use xlink:href="#am" x="476.8" y="322.366" fill="#98989a"/><use xlink:href="#an" x="223.724" y="811.597" fill="#98989a"/><g fill="#98989a"><use xlink:href="#ao" x="227.684" y="811.597"/><use xlink:href="#ap" x="235.651" y="811.597"/><use xlink:href="#aq" x="240.462" y="811.597"/><use xlink:href="#ar" x="245.558" y="811.597"/></g><use xlink:href="#as" x="248.232" y="811.597" fill="#98989a"/><use xlink:href="#at" x="253.326" y="811.597" fill="#98989a"/><use xlink:href="#au" x="257.722" y="811.597" fill="#98989a"/><use xlink:href="#an" x="263.531" y="811.597" fill="#98989a"/><use xlink:href="#av" x="267.491" y="811.597" fill="#98989a"/><g fill="#98989a"><use xlink:href="#aw" x="271.513" y="811.597"/><use xlink:href="#ax" x="276.236" y="811.597"/><use xlink:href="#ay" x="281.036" y="811.597"/></g><use xlink:href="#at" x="284.245" y="811.597" fill="#98989a"/></svg>