<svg xmlns="http://www.w3.org/2000/svg" xmlns:xlink="http://www.w3.org/1999/xlink" width="793.701" height="1122.52" viewBox="0 0 595.276 841.89"><defs><symbol overflow="visible" id="H"><path d="M6.984-2.047L7.656 0h2.157L6.296-10.172H3.984L.36 0H2.5l.688-2.047zm-.562-1.75H3.766l1.328-3.969zm0 0"/></symbol><symbol overflow="visible" id="I"><path d="M5.547 0L9.03-10.172H6.92L4.704-2.516l-2.266-7.656H.329L3.766 0zm0 0"/></symbol><symbol overflow="visible" id="J"><path d="M7.313-3.156c.015-.172.015-.235.015-.328 0-.75-.11-1.454-.297-1.985-.5-1.375-1.718-2.187-3.234-2.187-2.172 0-3.485 1.562-3.485 4.078C.313-1.156 1.625.328 3.75.328c1.688 0 3.063-.969 3.484-2.453H5.313c-.235.61-.782.953-1.485.953-.562 0-1.015-.234-1.281-.656-.188-.281-.266-.61-.281-1.328zM2.28-4.453c.125-1.14.625-1.719 1.485-1.719a1.5 1.5 0 011.218.625c.172.281.266.578.297 1.094zm0 0"/></symbol><symbol overflow="visible" id="K"><path d="M.875-7.531V0h1.953v-4c0-1.156.578-1.719 1.719-1.719.219 0 .344.016.61.047V-7.64c-.11-.015-.173-.015-.235-.015-.89 0-1.672.578-2.094 1.593V-7.53zm0 0"/></symbol><symbol overflow="visible" id="L"><path d="M5.5-7.531L3.937-2.047 2.282-7.53H.125L2.938.312V.36c0 .72-.532 1.266-1.22 1.266-.155 0-.265-.016-.515-.094V3c.297.047.453.063.688.063.5 0 1.078-.11 1.421-.25.532-.22.782-.532 1.094-1.438L7.5-7.531zm0 0"/></symbol><symbol overflow="visible" id="M"><path d="M3.203-10.172H1.11V0h6.97v-1.75H3.202zm0 0"/></symbol><symbol overflow="visible" id="N"><path d="M4.203-7.656C1.891-7.656.484-6.141.484-3.672c0 2.485 1.407 4 3.735 4 2.281 0 3.718-1.531 3.718-3.937 0-2.563-1.375-4.047-3.734-4.047zm.016 1.578c1.062 0 1.765.953 1.765 2.437 0 1.407-.718 2.391-1.765 2.391-1.063 0-1.782-.984-1.782-2.422 0-1.437.72-2.406 1.782-2.406zm0 0"/></symbol><symbol overflow="visible" id="O"><path d="M.875-7.531V0h1.953v-4.516c0-.89.625-1.484 1.578-1.484.844 0 1.266.453 1.266 1.36V0h1.953v-5.047c0-1.672-.922-2.61-2.531-2.61-1.016 0-1.703.376-2.266 1.204v-1.078zm0 0"/></symbol><symbol overflow="visible" id="P"><path d="M5.688-7.531v1.156c-.579-.89-1.22-1.281-2.094-1.281-1.781 0-3.125 1.734-3.125 4.062 0 2.36 1.234 3.922 3.094 3.922.874 0 1.406-.266 2.124-1.094V.25c0 .906-.671 1.531-1.656 1.531-.734 0-1.234-.297-1.375-.875H.625c.016.594.234.985.75 1.406.594.485 1.422.735 2.594.735 2.265 0 3.578-1.031 3.578-2.797v-7.781zm-1.672 1.5c.984 0 1.703 1.015 1.703 2.422 0 1.359-.703 2.296-1.735 2.296-.921 0-1.562-.937-1.562-2.296 0-1.422.64-2.422 1.594-2.422zm0 0"/></symbol><symbol overflow="visible" id="Q"><path d="M7.313-.234c-.344-.329-.454-.532-.454-.922v-4.188c0-1.531-1.046-2.312-3.078-2.312-2.031 0-3.094.86-3.219 2.61h1.875c.11-.782.422-1.032 1.391-1.032.75 0 1.125.25 1.125.75 0 .25-.125.469-.328.578-.266.14-.266.14-1.234.297l-.782.14C1.11-4.063.391-3.296.391-1.938c0 .641.187 1.172.53 1.547.438.454 1.095.72 1.75.72.845 0 1.61-.376 2.298-1.079 0 .39.047.531.218.75h2.125zm-2.36-2.797c0 1.14-.562 1.781-1.547 1.781-.656 0-1.062-.36-1.062-.906 0-.594.312-.875 1.11-1.031l.671-.141c.516-.094.61-.125.828-.235zm0 0"/></symbol><symbol overflow="visible" id="R"><path d="M5.656 0H7.61v-10.172H5.656v3.61c-.5-.75-1.156-1.094-2.078-1.094-1.812 0-3.172 1.718-3.172 4 0 1.015.313 2.047.813 2.781.515.719 1.437 1.203 2.36 1.203.921 0 1.577-.36 2.077-1.094zM4-6.031c1 0 1.656.968 1.656 2.406 0 1.36-.672 2.313-1.656 2.313-.969 0-1.64-.97-1.64-2.344 0-1.39.671-2.375 1.64-2.375zm0 0"/></symbol><symbol overflow="visible" id="S"><path d="M2.969-10.172H.875V0h2.094zm0 0"/></symbol><symbol overflow="visible" id="T"><path d="M.844-7.531V0h1.953v-4.516c0-.921.5-1.484 1.328-1.484.656 0 1.063.375 1.063.984V0H7.14v-4.516C7.14-5.437 7.64-6 8.484-6c.657 0 1.063.375 1.063.984V0H11.5v-5.328c0-1.469-.89-2.328-2.406-2.328-.938 0-1.61.328-2.203 1.11-.36-.704-1.11-1.11-2.047-1.11-.86 0-1.422.281-2.063 1.062v-.937zm0 0"/></symbol><symbol overflow="visible" id="U"><path d="M2.766-7.531H.812V3.047h1.954V-.891C3.234-.062 3.906.33 4.859.33c1.813 0 3.157-1.704 3.157-3.985 0-1.063-.313-2.125-.813-2.813-.5-.718-1.437-1.187-2.344-1.187-.953 0-1.625.406-2.093 1.234zm1.64 1.5c1 0 1.657.968 1.657 2.406 0 1.36-.688 2.328-1.657 2.328-.968 0-1.64-.953-1.64-2.36 0-1.405.671-2.374 1.64-2.374zm0 0"/></symbol><symbol overflow="visible" id="V"><path d="M7.047-5.11c-.031-1.593-1.25-2.546-3.281-2.546-1.907 0-3.094.953-3.094 2.5 0 .515.156.937.422 1.234.265.266.5.39 1.218.625l2.329.735c.5.156.656.296.656.609 0 .453-.531.734-1.453.734-.5 0-.906-.093-1.156-.265-.204-.141-.282-.297-.376-.704H.407C.453-.546 1.672.329 3.97.329c1.047 0 1.828-.234 2.39-.672a2.431 2.431 0 00.891-1.89c0-.97-.484-1.61-1.469-1.891l-2.468-.719c-.547-.172-.688-.281-.688-.578 0-.422.438-.703 1.125-.703.938 0 1.406.328 1.406 1.016zm0 0"/></symbol><symbol overflow="visible" id="W"><path d="M2.89-7.531H.938V0h1.954zm0-2.64H.938v1.75h1.954zm0 0"/></symbol><symbol overflow="visible" id="X"><path d="M4.89 0l2.594-7.531H5.406L3.891-2.016 2.266-7.53H.203L2.828 0zm0 0"/></symbol><symbol overflow="visible" id="Y"><path d="M5.375-8.422h2.969v-1.75H.204v1.75H3.28V0h2.094zm0 0"/></symbol><symbol overflow="visible" id="Z"><path d="M.938-10.172V0H2.89v-4.516C2.89-5.39 3.516-6 4.39-6c.421 0 .765.156.984.453.172.266.219.453.219.938V0h1.953v-5.047c0-.937-.25-1.61-.766-2.047-.437-.36-1.062-.562-1.687-.562-.969 0-1.657.39-2.203 1.203v-3.719zm0 0"/></symbol><symbol overflow="visible" id="aa"><path d="M4.203-7.375H3.11v-2.031H1.156v2.031H.203v1.297h.953v4.625c0 1.187.625 1.781 1.907 1.781a3.73 3.73 0 001.14-.156v-1.375a2.778 2.778 0 01-.453.047c-.516 0-.64-.157-.64-.828v-4.094h1.093zm0 0"/></symbol><symbol overflow="visible" id="ab"><path d="M2.89-10.172H.938V0h1.954zm0 0"/></symbol><symbol overflow="visible" id="ac"><path d="M8.547 0l2.14-7.531H8.672L7.516-2.266 6.39-7.53H4.437l-1.14 5.265L2.094-7.53H.063L2.187 0h2.016l1.203-5.313L6.531 0zm0 0"/></symbol><symbol overflow="visible" id="ad"><path d="M3.125-4.375h4.453v-1.75H3.125v-2.297h5.047v-1.75h-7.14V0h2.093zm0 0"/></symbol><symbol overflow="visible" id="ae"><path d="M7.281-4.719c-.14-1.843-1.36-2.937-3.25-2.937C1.781-7.656.47-6.188.47-3.61.469-1.125 1.766.328 4 .328c1.828 0 3.11-1.14 3.281-2.937H5.406c-.25.984-.64 1.359-1.39 1.359-.985 0-1.594-.906-1.594-2.36 0-.718.14-1.39.375-1.828.234-.421.656-.64 1.219-.64.796 0 1.171.375 1.39 1.36zm0 0"/></symbol><symbol overflow="visible" id="af"><path d="M1.14 0h4.58c1.17 0 1.952-.219 2.56-.734.625-.516 1.016-1.391 1.016-2.204 0-1-.547-1.796-1.688-2.468C8.61-6.046 9-6.625 9-7.5c0-.688-.344-1.438-.922-1.938-.594-.515-1.312-.734-2.406-.734H1.14zm2.094-8.422h2.282c.953 0 1.468.406 1.468 1.156 0 .735-.515 1.141-1.468 1.141H3.234zm0 4.047h2.5c1.016 0 1.547.453 1.547 1.313 0 .859-.531 1.312-1.547 1.312h-2.5zm0 0"/></symbol><symbol overflow="visible" id="ag"><path d="M2.781-4.61v-5.562H.828V0h1.953v-2.469l.781-.86L5.36 0h2.282L4.89-4.688 7.469-7.53H5.25zm0 0"/></symbol><symbol overflow="visible" id="ah"><path d="M1.969-6.656V-8.11h-.672c-.016-.797.203-1.188.672-1.25v-.532c-.844.063-1.297.72-1.297 1.829v1.406zm2.203 0V-8.11H3.5c-.016-.797.203-1.188.672-1.25v-.532c-.844.063-1.297.72-1.297 1.829v1.406zm0 0"/></symbol><symbol overflow="visible" id="ai"><path d="M1.234 0h3.922c2.578 0 4.157-1.922 4.157-5.094 0-3.156-1.563-5.078-4.157-5.078H1.234zm1.313-1.14v-7.891h2.39c2.016 0 3.079 1.36 3.079 3.953 0 2.562-1.063 3.937-3.079 3.937zm0 0"/></symbol><symbol overflow="visible" id="aj"><path d="M7.156-3.266c0-1.109-.078-1.78-.297-2.328-.468-1.203-1.578-1.922-2.953-1.922-2.031 0-3.344 1.563-3.344 3.954 0 2.406 1.266 3.89 3.313 3.89C5.547.328 6.719-.625 7-2.219H5.828C5.516-1.25 4.86-.75 3.922-.75a2.05 2.05 0 01-1.766-.953c-.265-.422-.375-.844-.39-1.563zm-5.36-.953c.095-1.343.923-2.234 2.095-2.234 1.14 0 2.03.953 2.03 2.156 0 .031 0 .063-.015.078zm0 0"/></symbol><symbol overflow="visible" id="ak"><path d="M5.75-7.313v1.063c-.594-.86-1.297-1.266-2.234-1.266-1.86 0-3.11 1.61-3.11 3.985 0 1.203.313 2.172.922 2.875.547.61 1.328.984 2.094.984.922 0 1.562-.39 2.219-1.312v.375c0 .984-.125 1.593-.422 1.984-.313.438-.907.688-1.625.688-.531 0-1-.141-1.313-.391-.265-.203-.39-.406-.453-.828H.641c.125 1.375 1.203 2.203 2.921 2.203 1.079 0 2.016-.36 2.5-.938.547-.671.766-1.593.766-3.312v-6.11zm-2.11.86c1.25 0 2 1.062 2 2.89 0 1.75-.75 2.813-1.984 2.813-1.265 0-2.031-1.078-2.031-2.844 0-1.765.781-2.86 2.016-2.86zm0 0"/></symbol><symbol overflow="visible" id="al"><path d="M.969-7.313V0H2.14v-3.797c0-1.047.265-1.734.812-2.14.375-.25.719-.344 1.531-.36v-1.187c-.203-.016-.296-.032-.453-.032-.75 0-1.328.438-2 1.532v-1.329zm0 0"/></symbol><symbol overflow="visible" id="am"><path d="M9.016-10.172H7.78v8.313l-5.31-8.313H1.063V0H2.28v-8.25L7.547 0h1.469zm0 0"/></symbol><symbol overflow="visible" id="an"><path d="M7.469-.688c-.125.032-.188.032-.25.032-.407 0-.64-.203-.64-.578v-4.297c0-1.297-.938-1.985-2.735-1.985-1.063 0-1.953.297-2.438.844-.328.375-.468.797-.5 1.516h1.172c.094-.89.625-1.297 1.719-1.297 1.047 0 1.625.39 1.625 1.094v.312c0 .484-.281.688-1.203.813-1.657.203-1.907.25-2.344.437-.86.344-1.281 1-1.281 1.953C.594-.516 1.5.328 2.984.328 3.906.328 4.641 0 5.47-.75c.078.734.453 1.078 1.203 1.078.234 0 .422-.031.797-.125zM5.422-2.296c0 .39-.11.625-.453.938-.469.437-1.047.656-1.735.656-.906 0-1.437-.422-1.437-1.172 0-.766.516-1.156 1.766-1.328 1.218-.172 1.468-.235 1.859-.406zm0 0"/></symbol><symbol overflow="visible" id="ao"><path d="M.984-7.313V0h1.172v-4.594c0-1.062.766-1.906 1.703-1.906.875 0 1.36.531 1.36 1.469V0H6.39v-4.594c0-1.062.765-1.906 1.718-1.906.844 0 1.344.547 1.344 1.469V0h1.172v-5.484c0-1.313-.75-2.032-2.11-2.032-.984 0-1.562.282-2.25 1.11-.437-.782-1.015-1.11-1.968-1.11-.969 0-1.625.36-2.25 1.235v-1.032zm0 0"/></symbol><symbol overflow="visible" id="ap"><path d="M.688-9.89v1.453h.671c.016.812-.187 1.187-.671 1.25v.53c.828-.062 1.296-.718 1.296-1.827v-1.407zm2.234 0v1.453h.672c0 .812-.188 1.187-.672 1.25v.53c.828-.062 1.297-.718 1.297-1.827v-1.407zm0 0"/></symbol><symbol overflow="visible" id="aq"><path d="M4.016-8.719v6.453c0 .657-.344 1.016-.97 1.016-.687 0-.968-.344-.968-1.14v-.844H.281v.875c0 .906.219 1.468.735 1.937.5.453 1.171.703 2 .703 1.78 0 2.796-.922 2.796-2.547v-6.453zm0 0"/></symbol><symbol overflow="visible" id="ar"><path d="M3.594-6.563C1.625-6.563.422-5.266.422-3.14S1.625.281 3.609.281c1.954 0 3.188-1.312 3.188-3.375 0-2.187-1.172-3.469-3.203-3.469zm.015 1.344c.922 0 1.516.828 1.516 2.094 0 1.219-.625 2.047-1.516 2.047-.906 0-1.515-.828-1.515-2.063 0-1.234.61-2.078 1.515-2.078zm0 0"/></symbol><symbol overflow="visible" id="as"><path d="M.797-8.719V0h1.672v-3.875c0-.734.547-1.266 1.297-1.266.359 0 .64.125.843.391.141.219.188.39.188.813V0h1.672v-4.328c0-.797-.219-1.375-.657-1.75-.375-.313-.906-.484-1.453-.484-.828 0-1.421.328-1.89 1.046v-3.203zm0 0"/></symbol><symbol overflow="visible" id="at"><path d="M.75-6.453V0h1.672v-3.875c0-.766.547-1.266 1.36-1.266.718 0 1.077.391 1.077 1.157V0h1.672v-4.328c0-1.422-.797-2.234-2.172-2.234-.875 0-1.453.328-1.937 1.046v-.937zm0 0"/></symbol><symbol overflow="visible" id="au"><path d="M4.75 0l2.984-8.719H5.922l-1.89 6.563L2.093-8.72H.28L3.234 0zm0 0"/></symbol><symbol overflow="visible" id="av"><path d="M6.266-2.703c.015-.14.015-.203.015-.281 0-.657-.093-1.25-.25-1.704-.437-1.171-1.484-1.875-2.781-1.875-1.844 0-2.984 1.344-2.984 3.5C.266-.983 1.39.281 3.219.281c1.437 0 2.61-.828 2.984-2.094H4.547C4.344-1.296 3.89-1 3.28-1c-.484 0-.86-.203-1.11-.563-.155-.25-.218-.53-.233-1.14zm-4.313-1.11c.11-.984.531-1.468 1.281-1.468.407 0 .797.203 1.032.531.156.25.234.5.265.938zm0 0"/></symbol><symbol overflow="visible" id="aw"><path d="M.75-6.453V0h1.672v-3.438c0-.968.5-1.468 1.469-1.468.187 0 .312.015.53.047v-1.688c-.093-.016-.155-.016-.202-.016-.766 0-1.438.5-1.797 1.375v-1.265zm0 0"/></symbol><symbol overflow="visible" id="ax"><path d="M4.703-6.453L3.375-1.75 1.953-6.453H.11L2.516.266v.046c0 .61-.454 1.079-1.047 1.079-.125 0-.219-.016-.438-.079v1.25c.25.047.39.063.594.063.422 0 .922-.094 1.203-.203.469-.203.672-.469.953-1.235l2.656-7.64zm0 0"/></symbol><symbol overflow="visible" id="ay"><path d="M2.75-8.719H.953V0h5.969v-1.5H2.75zm0 0"/></symbol><symbol overflow="visible" id="az"><path d="M4.875-6.453v.984c-.5-.765-1.047-1.093-1.797-1.093-1.531 0-2.672 1.5-2.672 3.484 0 2.015 1.047 3.36 2.64 3.36.75 0 1.204-.235 1.829-.938v.875c0 .765-.578 1.312-1.422 1.312-.625 0-1.047-.265-1.187-.75H.53c.016.5.203.844.64 1.203.516.422 1.235.625 2.22.625 1.953 0 3.078-.875 3.078-2.39v-6.672zM3.437-5.156c.844 0 1.47.86 1.47 2.062 0 1.172-.61 1.969-1.485 1.969-.797 0-1.344-.797-1.344-1.969 0-1.219.547-2.062 1.36-2.062zm0 0"/></symbol><symbol overflow="visible" id="aA"><path d="M6.266-.203c-.297-.281-.391-.453-.391-.781v-3.594c0-1.313-.89-1.984-2.64-1.984-1.735 0-2.657.734-2.75 2.234h1.609c.078-.672.36-.89 1.187-.89.64 0 .969.218.969.655 0 .22-.11.407-.297.5-.219.125-.219.125-1.047.25l-.672.126c-1.28.203-1.906.859-1.906 2.03 0 .548.156 1 .453 1.329.375.375.938.61 1.516.61.719 0 1.375-.313 1.953-.923 0 .329.047.454.203.641h1.813zM4.25-2.593c0 .968-.484 1.515-1.328 1.515-.563 0-.906-.297-.906-.781 0-.5.25-.735.953-.875l.562-.11c.453-.078.516-.11.719-.203zm0 0"/></symbol><symbol overflow="visible" id="aB"><path d="M.719-6.453V0H2.39v-3.875c0-.781.437-1.266 1.14-1.266.563 0 .922.329.922.844V0h1.672v-3.875c0-.781.422-1.266 1.14-1.266.563 0 .907.329.907.844V0h1.672v-4.563c0-1.265-.766-2-2.047-2-.813 0-1.39.282-1.89.954-.313-.61-.954-.954-1.766-.954-.735 0-1.22.25-1.766.907v-.797zm0 0"/></symbol><symbol overflow="visible" id="aC"><path d="M.922 0h3.406c1.328 0 2.156-.313 2.75-1.016.688-.812 1.063-2 1.063-3.343 0-1.344-.375-2.532-1.063-3.344-.594-.719-1.406-1.016-2.75-1.016H.922zm1.797-1.5v-5.719h1.61c1.343 0 2.015.938 2.015 2.875 0 1.907-.672 2.844-2.016 2.844zm0 0"/></symbol><symbol overflow="visible" id="aE"><path d="M3.594-6.328h-.922v-1.734H.984v1.734H.172v1.11h.812v3.968c0 1.016.547 1.531 1.641 1.531.375 0 .672-.047.969-.14v-1.172a1.876 1.876 0 01-.375.047c-.453 0-.547-.141-.547-.72v-3.515h.922zm0 0"/></symbol><symbol overflow="visible" id="aG"><path d="M.766-1.75V0h1.03v.031c0 .813-.327 1.235-1.03 1.375v.672c.484-.062.828-.187 1.14-.437.485-.375.657-.813.657-1.75V-1.75zm0 0"/></symbol><symbol overflow="visible" id="aD"><path d="M3.938 2.531L1.5-3l2.438-5.516h-.61L.641-3l2.687 5.531zm0 0"/></symbol><symbol overflow="visible" id="aF"><path d="M3.938-3L1.233-8.516H.641L3.078-3 .641 2.531h.593zm0 0"/></symbol><clipPath id="a"><path d="M402 57h3.55v17H402zm0 0"/></clipPath><clipPath id="b"><path d="M396 87h9.55v13H396zm0 0"/></clipPath><clipPath id="c"><path d="M214 114h4v3.938h-4zm0 0"/></clipPath><clipPath id="d"><path d="M218 114h3v3.938h-3zm0 0"/></clipPath><clipPath id="e"><path d="M222 114h2v3.938h-2zm0 0"/></clipPath><clipPath id="f"><path d="M225 114h4v3.938h-4zm0 0"/></clipPath><clipPath id="g"><path d="M190.121 86H194v5h-3.879zm0 0"/></clipPath><clipPath id="h"><path d="M190.121 90H195v4h-4.879zm0 0"/></clipPath><clipPath id="i"><path d="M221 56.895h5V61h-5zm0 0"/></clipPath><clipPath id="j"><path d="M269 112h4v5.938h-4zm0 0"/></clipPath><clipPath id="k"><path d="M275 112h5v5.938h-5zm0 0"/></clipPath><clipPath id="l"><path d="M282 112h1v5.938h-1zm0 0"/></clipPath><clipPath id="m"><path d="M284 112h5v5.938h-5zm0 0"/></clipPath><clipPath id="n"><path d="M290 112h3v5.938h-3zm0 0"/></clipPath><clipPath id="o"><path d="M295 112h3v5.938h-3zm0 0"/></clipPath><clipPath id="p"><path d="M299 112h5v5.938h-5zm0 0"/></clipPath><clipPath id="q"><path d="M305 112h1v5.938h-1zm0 0"/></clipPath><clipPath id="r"><path d="M308 112h4v5.938h-4zm0 0"/></clipPath><clipPath id="s"><path d="M313 112h5v5.938h-5zm0 0"/></clipPath><clipPath id="t"><path d="M319 112h5v5.938h-5zm0 0"/></clipPath><clipPath id="u"><path d="M325 112h4v5.938h-4zm0 0"/></clipPath><clipPath id="v"><path d="M334 112h6v5.938h-6zm0 0"/></clipPath><clipPath id="w"><path d="M341 112h6v5.938h-6zm0 0"/></clipPath><clipPath id="x"><path d="M348 112h5v5.938h-5zm0 0"/></clipPath><clipPath id="y"><path d="M352 112h6v5.938h-6zm0 0"/></clipPath><clipPath id="z"><path d="M362 112h5v5.938h-5zm0 0"/></clipPath><clipPath id="A"><path d="M368 112h4v5.938h-4zm0 0"/></clipPath><clipPath id="B"><path d="M377 112h2v5.938h-2zm0 0"/></clipPath><clipPath id="C"><path d="M380 112h2v5.938h-2zm0 0"/></clipPath><clipPath id="D"><path d="M383 112h4v5.938h-4zm0 0"/></clipPath><clipPath id="E"><path d="M389 112h4v5.938h-4zm0 0"/></clipPath><clipPath id="F"><path d="M394 112h6v5.938h-6zm0 0"/></clipPath><clipPath id="G"><path d="M401 112h4.55v5.938H401zm0 0"/></clipPath></defs><path d="M0 841.89h595.277V0H0zm0 0" fill="#fff"/><path d="M269.18 57.008V73.52h7.734v-1.723h-5.684v-5.945h5.094v-1.72h-5.094V58.73h5.684v-1.722zm16.91 13.094c0 1.304-.356 2.226-1.07 2.77-.72.542-1.68.812-2.891.812a9.81 9.81 0 01-1.723-.13 11.54 11.54 0 01-1.11-.245v-1.723c.145.031.329.066.556.105a22.372 22.372 0 001.582.223c.289.035.578.05.859.05.316 0 .578-.05.793-.155.21-.102.383-.235.516-.399.136-.168.234-.355.296-.566a2.21 2.21 0 00.094-.625c0-.567-.097-.985-.293-1.25-.199-.27-.594-.457-1.191-.567-1.211-.222-2.067-.601-2.563-1.144-.492-.543-.742-1.254-.742-2.137 0-.644.102-1.191.309-1.637.203-.449.48-.816.836-1.097.355-.285.77-.492 1.25-.625s1.004-.2 1.57-.2c.613 0 1.129.051 1.543.153.418.101.742.183.98.246v1.723a62.06 62.06 0 01-1.18-.282c-.378-.097-.89-.144-1.534-.144-.36 0-.657.05-.883.156-.23.102-.406.234-.531.398a1.318 1.318 0 00-.247.555 3.423 3.423 0 00-.058.637c0 .867.5 1.375 1.508 1.535 1.226.203 2.086.59 2.582 1.152.496.57.742 1.371.742 2.41m8.87 3.208c-.378.109-.792.199-1.25.27a8.71 8.71 0 01-1.32.105c-.675 0-1.273-.075-1.792-.223a2.453 2.453 0 01-1.297-.898c-.348-.446-.606-1.083-.781-1.91-.172-.825-.258-1.915-.258-3.266 0-1.055.082-1.95.246-2.688.168-.742.414-1.344.746-1.804a2.842 2.842 0 011.273-1.016c.52-.211 1.133-.32 1.84-.32.39 0 .836.039 1.332.12.496.079.914.157 1.262.235v1.746a29.826 29.826 0 00-1.25-.238 9.78 9.78 0 00-1.488-.094c-.344 0-.637.07-.871.215-.235.14-.434.387-.59.742-.157.352-.27.817-.344 1.39-.07.575-.106 1.302-.106 2.184 0 .88.043 1.586.133 2.121.086.536.211.946.375 1.227.164.285.368.473.602.566.238.094.504.141.8.141.65 0 1.176-.039 1.594-.117.418-.078.797-.156 1.145-.234zm11.017-5.922c0 1.242-.094 2.27-.282 3.078-.191.808-.472 1.453-.851 1.933-.375.48-.844.817-1.403 1.004-.558.188-1.207.282-1.945.282-.723 0-1.367-.094-1.922-.282a2.967 2.967 0 01-1.406-1.004c-.375-.48-.664-1.125-.86-1.933-.195-.809-.296-1.836-.296-3.078 0-2.012.363-3.489 1.086-4.422.722-.938 1.855-1.406 3.398-1.406 1.54 0 2.672.468 3.395 1.406.722.933 1.086 2.41 1.086 4.422m-2.051.355c0-.836-.043-1.543-.117-2.125-.082-.582-.211-1.05-.391-1.402-.184-.356-.43-.61-.742-.766-.317-.16-.711-.238-1.18-.238-.473 0-.867.078-1.18.238-.316.156-.562.41-.742.766-.183.351-.312.82-.39 1.402-.079.582-.118 1.29-.118 2.125 0 1.54.18 2.64.543 3.301.36.66.989.992 1.887.992.895 0 1.524-.332 1.887-.992.36-.66.543-1.762.543-3.3m8.347 5.659c-.171.032-.375.07-.601.118-.227.046-.5.07-.813.07-.234 0-.472-.04-.707-.117a1.469 1.469 0 01-.636-.426c-.192-.203-.348-.484-.473-.836-.125-.356-.188-.797-.188-1.332V57.008h2.004v13.754c0 .406.051.695.153.86.101.163.312.245.625.245a1.4 1.4 0 00.367-.047l.27-.07zm9.981.118c-.113 0-.25-.016-.414-.047a2.255 2.255 0 01-.508-.164 1.578 1.578 0 01-.484-.356 1.84 1.84 0 01-.364-.59 2.95 2.95 0 01-1.18.98c-.488.227-1.132.34-1.937.34a6.37 6.37 0 01-1.27-.128 2.62 2.62 0 01-1.132-.52c-.332-.258-.598-.617-.805-1.07-.203-.457-.305-1.047-.305-1.77 0-1.277.368-2.25 1.11-2.925.738-.676 1.77-1.016 3.09-1.016h1.863V64.98c0-.503-.148-.914-.438-1.238-.289-.32-.734-.484-1.332-.484-.675 0-1.265.039-1.77.117a14.32 14.32 0 00-1.651.379V62.03a14.32 14.32 0 011.488-.328c.55-.094 1.117-.144 1.695-.144.774 0 1.414.078 1.926.226.508.149.918.387 1.226.707.305.324.528.727.66 1.215.133.488.2 1.07.2 1.746v5.66c0 .235.078.422.234.555.16.133.426.2.805.2v1.652zm-4.414-1.532c.41 0 .75-.062 1.015-.191.266-.125.48-.277.637-.461a1.647 1.647 0 00.426-1v-2.477h-1.98c-.254 0-.5.04-.747.118a1.66 1.66 0 00-.648.39c-.188.18-.34.406-.457.684-.121.273-.18.61-.18 1 0 .742.164 1.246.496 1.523.332.274.809.414 1.438.414m18.754 1.532l-3.61-14.766V73.52h-1.91V57.008h3.352l3.629 14.765V57.008h1.914V73.52zm14.414 0c-.11 0-.25-.016-.414-.047a2.255 2.255 0 01-.508-.164 1.626 1.626 0 01-.484-.356 1.84 1.84 0 01-.364-.59c-.3.426-.691.754-1.18.98-.488.227-1.132.34-1.933.34-.426 0-.852-.042-1.273-.128a2.62 2.62 0 01-1.133-.52c-.332-.258-.598-.617-.801-1.07-.207-.457-.309-1.047-.309-1.77 0-1.277.368-2.25 1.11-2.925.738-.676 1.77-1.016 3.09-1.016h1.863V64.98c0-.503-.145-.914-.438-1.238-.289-.32-.734-.484-1.332-.484-.675 0-1.265.039-1.77.117-.503.082-1.054.207-1.652.379V62.03a14.4 14.4 0 011.489-.328c.55-.094 1.117-.144 1.699-.144.77 0 1.41.078 1.922.226.508.149.918.387 1.226.707.305.324.528.727.66 1.215.133.488.2 1.07.2 1.746v5.66c0 .235.078.422.238.555.156.133.422.2.8.2v1.652zm-4.41-1.532c.406 0 .746-.062 1.011-.191.266-.125.48-.277.637-.461a1.647 1.647 0 00.426-1v-2.477h-1.98c-.255 0-.5.04-.747.118a1.66 1.66 0 00-.648.39c-.188.18-.34.406-.457.684-.121.273-.18.61-.18 1 0 .742.168 1.246.496 1.523.332.274.809.414 1.442.414m13.867 1.321c-.38.109-.793.199-1.25.27-.457.07-.899.105-1.32.105-.676 0-1.274-.075-1.793-.223a2.453 2.453 0 01-1.297-.898c-.348-.446-.606-1.083-.782-1.91-.171-.825-.257-1.915-.257-3.266 0-1.055.082-1.95.25-2.688.164-.742.41-1.344.742-1.804a2.842 2.842 0 011.273-1.016c.52-.211 1.13-.32 1.84-.32.39 0 .836.039 1.332.12.496.079.918.157 1.262.235v1.746a29.825 29.825 0 00-1.25-.238 9.78 9.78 0 00-1.488-.094c-.344 0-.637.07-.872.215-.234.14-.433.387-.59.742-.156.352-.269.817-.343 1.39-.07.575-.102 1.302-.102 2.184 0 .88.04 1.586.13 2.121.085.536.21.946.374 1.227.168.285.367.473.602.566.234.094.504.141.8.141.645 0 1.176-.039 1.594-.117.418-.078.801-.156 1.145-.234zm2.523-16.301h2.242v2.12h-2.242zm.117 4.719h2.008V73.52h-2.008zm13.848 5.66c0 1.242-.094 2.27-.285 3.078-.188.808-.469 1.453-.848 1.933s-.843.817-1.402 1.004c-.559.188-1.207.282-1.945.282-.727 0-1.368-.094-1.926-.282a2.956 2.956 0 01-1.402-1.004c-.375-.48-.665-1.125-.86-1.933-.2-.809-.297-1.836-.297-3.078 0-2.012.364-3.489 1.086-4.422.723-.938 1.856-1.406 3.399-1.406 1.539 0 2.672.468 3.394 1.406.723.933 1.086 2.41 1.086 4.422m-2.055.355c0-.836-.039-1.543-.113-2.125-.082-.582-.21-1.05-.39-1.402-.184-.356-.43-.61-.747-.766-.312-.16-.707-.238-1.175-.238-.473 0-.868.078-1.18.238-.316.156-.563.41-.746.766-.18.351-.309.82-.387 1.402a16.34 16.34 0 00-.117 2.125c0 1.54.18 2.64.539 3.301.363.66.992.992 1.89.992.895 0 1.524-.332 1.887-.992.36-.66.54-1.762.54-3.3m4.933 5.777V61.727h1.648l.168 1.062c.77-.82 1.735-1.23 2.899-1.23.676 0 1.246.086 1.7.25a2.45 2.45 0 011.097.754c.273.34.472.769.59 1.296.117.528.175 1.153.175 1.875v7.786h-2.004V65.5c0-.738-.12-1.297-.367-1.676-.242-.379-.758-.566-1.543-.566-.332 0-.64.062-.933.187a2.55 2.55 0 00-1.25 1.145c-.117.23-.176.453-.176.676v8.254zm19.082 0a2.342 2.342 0 01-.922-.211 1.564 1.564 0 01-.48-.356 1.782 1.782 0 01-.367-.59 2.898 2.898 0 01-1.18.98c-.488.227-1.133.34-1.934.34-.426 0-.847-.042-1.273-.128a2.64 2.64 0 01-1.133-.52c-.328-.258-.598-.617-.8-1.07-.208-.457-.31-1.047-.31-1.77 0-1.277.372-2.25 1.11-2.925.738-.676 1.77-1.016 3.09-1.016h1.863V64.98c0-.503-.144-.914-.433-1.238-.293-.32-.739-.484-1.336-.484-.676 0-1.266.039-1.77.117-.5.082-1.05.207-1.648.379V62.03c.437-.125.933-.234 1.484-.328.55-.094 1.117-.144 1.7-.144.769 0 1.41.078 1.921.226.512.149.922.387 1.227.707.308.324.527.727.66 1.215.133.488.199 1.07.199 1.746v5.66c0 .235.082.422.238.555.157.133.426.2.801.2v1.652zm-4.41-1.532c.406 0 .746-.062 1.016-.191a1.84 1.84 0 00.632-.461c.16-.18.27-.363.332-.55.063-.192.094-.34.094-.45v-2.477h-1.98c-.25 0-.5.04-.743.118-.246.078-.46.207-.648.39a1.97 1.97 0 00-.46.684c-.118.273-.177.61-.177 1 0 .742.164 1.246.493 1.523.332.274.812.414 1.44.414" fill="#0099d3"/><g clip-path="url(#a)"><path d="M405.45 73.402c-.177.032-.376.07-.602.118-.23.046-.5.07-.817.07-.234 0-.472-.04-.707-.117a1.492 1.492 0 01-.637-.426c-.187-.203-.347-.484-.472-.836-.125-.356-.188-.797-.188-1.332V57.008h2.004v13.754c0 .406.051.695.156.86.102.163.31.245.625.245.125 0 .247-.015.364-.047l.273-.07zm0 0" fill="#0099d3"/></g><path d="M273.078 92.945l-.098-.601a2.53 2.53 0 01-.746.515 2.312 2.312 0 01-.957.188c-.457 0-.836-.074-1.132-.215a1.793 1.793 0 01-.715-.629c-.18-.277-.309-.629-.38-1.055a9.035 9.035 0 01-.105-1.464c0-1.414.243-2.43.735-3.059.492-.621 1.285-.934 2.382-.934a4.12 4.12 0 01.801.055v-2.82h1.219v10.02zm-1.574-.93c.223 0 .418-.038.59-.117a1.21 1.21 0 00.426-.296c.117-.125.203-.258.257-.403a1.04 1.04 0 00.086-.402v-4.02a2.98 2.98 0 00-.386-.043 10.52 10.52 0 00-.555-.015c-.344 0-.625.07-.844.207a1.48 1.48 0 00-.531.601c-.133.266-.227.59-.281.973a10.19 10.19 0 00-.079 1.324c0 .43.028.785.079 1.067.054.28.132.507.238.671a.856.856 0 00.406.352c.168.066.367.102.594.102m5.512-2.219c.007.469.043.848.105 1.137.063.293.145.52.25.68.106.163.23.269.375.323.14.051.305.079.484.079a7.12 7.12 0 001.094-.079c.332-.054.606-.105.824-.152v1.031c-.23.067-.515.121-.867.164a7.547 7.547 0 01-.906.067c-.41 0-.777-.043-1.094-.129a1.6 1.6 0 01-.812-.516c-.219-.257-.383-.629-.5-1.109-.114-.48-.172-1.125-.172-1.926 0-.66.055-1.219.168-1.687.11-.47.273-.852.492-1.145.219-.297.492-.512.816-.644.325-.133.7-.2 1.13-.2.82 0 1.41.266 1.769.805.355.54.535 1.281.535 2.227v1.074zm1.359-3.09c-.23 0-.426.031-.586.098a.874.874 0 00-.402.343 1.884 1.884 0 00-.242.653 6.458 6.458 0 00-.118 1.023h2.493v-.386c0-.543-.082-.97-.25-1.274-.168-.305-.465-.457-.895-.457m16.332 8.243c0 .976-.11 1.777-.328 2.405-.223.63-.535 1.125-.945 1.485a3.44 3.44 0 01-1.473.758 8.09 8.09 0 01-1.922.21c-.379 0-.828-.03-1.348-.093a9.504 9.504 0 01-1.39-.262v-1.719c.363.094.785.176 1.273.246.488.07 1.055.106 1.7.106.816 0 1.41-.234 1.78-.707.368-.473.555-1.203.555-2.195 0-.563-.039-1.04-.117-1.426-.082-.383-.199-.7-.355-.942a1.543 1.543 0 00-.602-.554 3.051 3.051 0 00-.836-.285c-.66-.141-1.219-.32-1.676-.543a3.178 3.178 0 01-1.109-.848 3.352 3.352 0 01-.625-1.273c-.133-.504-.2-1.102-.2-1.793 0-.852.114-1.563.34-2.137.231-.574.551-1.04.97-1.403.413-.359.906-.62 1.472-.777a6.988 6.988 0 011.863-.238c.395 0 .825.035 1.286.11.464.07.87.152 1.214.245v1.723a17.47 17.47 0 00-1.367-.25 9.994 9.994 0 00-1.367-.106c-.3 0-.586.047-.86.141a2.036 2.036 0 00-.734.45 2.42 2.42 0 00-.52.788c-.132.325-.199.723-.199 1.192 0 .472.024.87.07 1.191.048.324.138.586.274.793.133.203.317.363.555.485.234.113.539.214.918.293.566.109 1.078.27 1.535.472a3.4 3.4 0 011.168.86c.32.37.566.847.742 1.43.172.577.258 1.304.258 2.167m10.238 4.696a2.304 2.304 0 01-.922-.215 1.61 1.61 0 01-.484-.352 1.84 1.84 0 01-.363-.59c-.301.426-.692.75-1.18.977-.488.23-1.133.344-1.933.344-.426 0-.852-.043-1.274-.13a2.666 2.666 0 01-1.133-.519c-.332-.258-.597-.617-.8-1.074-.208-.453-.31-1.043-.31-1.77 0-1.273.368-2.246 1.11-2.921.739-.68 1.77-1.016 3.09-1.016h1.863v-1.274c0-.503-.144-.918-.437-1.238-.29-.324-.735-.484-1.332-.484-.676 0-1.266.039-1.77.117-.504.078-1.054.203-1.652.379v-1.723c.441-.125.937-.234 1.488-.332a10.11 10.11 0 011.7-.14c.769 0 1.41.074 1.921.226.512.149.918.383 1.227.707.305.32.527.727.66 1.215.133.484.2 1.07.2 1.746v5.66c0 .235.077.422.238.555.156.133.421.2.8.2v1.652zm-4.41-1.536c.406 0 .746-.062 1.012-.187.27-.125.48-.277.637-.461.16-.18.27-.363.332-.555.062-.187.093-.336.093-.445v-2.48h-1.98c-.254 0-.5.042-.742.12a1.668 1.668 0 00-.649.387c-.191.184-.343.41-.46.684-.118.277-.18.61-.18 1.004 0 .742.168 1.246.496 1.523.332.274.812.41 1.441.41m13.633 1.536l-.164-.97a3.523 3.523 0 01-1.156.84c-.442.196-.961.294-1.559.294-.66 0-1.207-.086-1.637-.258a2.35 2.35 0 01-1.039-.79c-.261-.355-.445-.8-.554-1.335-.11-.535-.164-1.164-.164-1.887v-7.691h2.003v7.925c0 .38.02.711.059.993.04.28.121.527.246.73.129.207.3.36.52.461.222.102.511.152.875.152.328 0 .629-.062.894-.187a2.364 2.364 0 001.133-1.098 1.82 1.82 0 00.188-.648v-8.328h2.007v11.797zm-3.703-13.684l2.453-3.184h2.57l-3.113 3.184zm15 13.684l-.164-.993c-.363.364-.77.645-1.227.852-.457.203-.98.305-1.578.305-.758 0-1.379-.118-1.867-.356a2.9 2.9 0 01-1.18-1.035c-.297-.457-.504-1.035-.62-1.734-.122-.7-.18-1.508-.18-2.418 0-2.329.406-4.008 1.214-5.036.813-1.03 2.121-1.546 3.93-1.546.266 0 .512.007.73.023.22.016.414.04.59.07v-4.644h2.004v16.512zm-2.594-1.536c.363 0 .684-.062.969-.187.281-.125.52-.29.707-.496.187-.203.332-.426.426-.66a1.81 1.81 0 00.14-.66v-6.63a5.74 5.74 0 00-.636-.07 15.289 15.289 0 00-.922-.023c-.567 0-1.032.113-1.39.344-.364.226-.653.554-.876.988-.219.433-.371.969-.457 1.605a16.446 16.446 0 00-.129 2.18c0 .707.043 1.297.129 1.758.086.465.215.836.387 1.11.176.277.398.468.672.577.277.11.605.164.98.164m9.082-3.656c.016.774.074 1.399.176 1.875.101.48.242.856.414 1.121.172.27.379.446.613.531.235.086.504.13.801.13.66 0 1.262-.044 1.805-.13.543-.085.996-.168 1.355-.246v1.696a8.745 8.745 0 01-1.426.273c-.574.07-1.074.106-1.496.106-.675 0-1.277-.07-1.804-.211a2.606 2.606 0 01-1.332-.852c-.364-.422-.637-1.031-.829-1.828-.187-.793-.28-1.852-.28-3.172 0-1.086.09-2.012.269-2.781.18-.774.453-1.403.816-1.89.36-.485.809-.84 1.344-1.06.535-.222 1.156-.331 1.863-.331 1.352 0 2.324.445 2.914 1.332.59.89.883 2.113.883 3.668v1.77zm2.242-5.094c-.379 0-.703.055-.968.164-.266.11-.489.301-.66.567-.172.27-.305.625-.403 1.074-.094.45-.156 1.012-.187 1.688h4.105v-.641c0-.895-.137-1.594-.414-2.098-.273-.504-.766-.754-1.473-.754m18.649-1.273c0 .894-.086 1.68-.25 2.348-.164.668-.43 1.222-.79 1.66a3.287 3.287 0 01-1.413.992c-.582.219-1.293.332-2.125.332h-1.98v6.227h-2.052V83.133l1.25-.098a22.61 22.61 0 011.286-.058c.476-.008.96-.012 1.449-.012.894 0 1.644.133 2.242.39.598.258 1.07.622 1.426 1.086.351.465.601 1.008.742 1.625.14.625.215 1.297.215 2.02m-2.102.164c0-1.18-.16-2.07-.484-2.676-.32-.605-.906-.91-1.758-.91-.656 0-1.191.023-1.602.07a9.424 9.424 0 01-.613.07v6.891h2.215c.332 0 .633-.058.91-.18a1.7 1.7 0 00.707-.574c.195-.27.352-.625.461-1.062.11-.442.164-.984.164-1.629m10.496 11.395l-.164-.97a3.442 3.442 0 01-1.156.84c-.438.196-.957.294-1.555.294-.66 0-1.207-.086-1.64-.258a2.371 2.371 0 01-1.04-.79c-.257-.355-.44-.8-.554-1.335-.11-.535-.164-1.164-.164-1.887v-7.691h2.004v7.925c0 .38.02.711.062.993.04.28.121.527.246.73.125.207.297.36.52.461.219.102.512.152.871.152.332 0 .629-.062.898-.187.266-.125.493-.285.684-.473.188-.187.336-.398.45-.625.109-.226.171-.445.187-.648v-8.328h2.004v11.797zm-3.703-13.684l2.453-3.184h2.575l-3.114 3.184zm16.891 7.031c0 1.29-.086 2.371-.258 3.242-.176.875-.457 1.575-.852 2.102-.39.527-.906.902-1.543 1.129-.636.23-1.43.344-2.37.344-.426 0-.794-.008-1.11-.024a11.991 11.991 0 01-.86-.07 27.905 27.905 0 01-.71-.094l-.649-.094V83.133h2.008v5.59a3.7 3.7 0 012.617-1.04c1.383 0 2.352.446 2.903 1.333.55.89.824 2.214.824 3.976m-4.106-3.61c-.328 0-.632.063-.906.188a2.259 2.259 0 00-.707.496c-.2.204-.352.422-.46.649-.11.23-.165.453-.165.672v6.629c.172.03.383.054.637.07.25.016.558.023.918.023.566 0 1.027-.101 1.379-.304a2.08 2.08 0 00.828-.922c.195-.406.332-.914.414-1.52.074-.605.117-1.32.117-2.136 0-.754-.04-1.375-.105-1.864-.075-.484-.192-.879-.356-1.18-.164-.296-.379-.507-.637-.624-.261-.118-.578-.176-.957-.176m10.356 10.144c-.172.032-.375.07-.602.118-.226.046-.5.07-.812.07-.235 0-.473-.04-.707-.117a1.54 1.54 0 01-.637-.426c-.191-.203-.348-.484-.473-.836-.129-.356-.187-.8-.187-1.336V83.133h2.004v13.75c0 .41.05.695.152.863.102.164.309.246.625.246a1.4 1.4 0 00.367-.047l.27-.07zm2.124-16.394h2.24v2.12h-2.24zm.118 4.715h2.004v11.797h-2.004zm11.535 11.582a9.299 9.299 0 01-1.25.273c-.457.07-.898.106-1.32.106-.676 0-1.274-.075-1.793-.223a2.475 2.475 0 01-1.297-.898c-.348-.446-.606-1.086-.781-1.91-.172-.825-.258-1.915-.258-3.266 0-1.055.082-1.95.246-2.692.164-.738.414-1.34.746-1.804a2.859 2.859 0 011.274-1.012c.515-.215 1.128-.32 1.84-.32.39 0 .835.039 1.331.117.497.082.914.16 1.262.238v1.746a25.45 25.45 0 00-1.25-.238 9.78 9.78 0 00-1.488-.094c-.344 0-.637.07-.871.211-.235.14-.434.39-.59.746-.156.352-.274.817-.344 1.39-.07.575-.105 1.302-.105 2.18 0 .883.043 1.59.129 2.125.086.536.214.946.378 1.227.165.281.368.473.602.566.234.094.504.141.8.141.645 0 1.177-.039 1.595-.117a32.34 32.34 0 001.144-.234zm0 0" fill="#0099d3"/><g clip-path="url(#b)"><path d="M404.738 99.645a2.268 2.268 0 01-.922-.215 1.564 1.564 0 01-.484-.352 1.84 1.84 0 01-.363-.59c-.301.426-.696.75-1.18.977-.488.23-1.133.344-1.937.344-.422 0-.848-.043-1.274-.13a2.672 2.672 0 01-1.129-.519c-.332-.258-.597-.617-.804-1.074-.204-.453-.305-1.043-.305-1.77 0-1.273.367-2.246 1.11-2.921.738-.68 1.769-1.016 3.09-1.016h1.862v-1.274c0-.503-.148-.918-.437-1.238-.293-.324-.735-.484-1.332-.484-.676 0-1.266.039-1.77.117-.504.078-1.054.203-1.652.379v-1.723c.441-.125.937-.234 1.488-.332a10.04 10.04 0 011.696-.14c.773 0 1.414.074 1.925.226.508.149.918.383 1.227.707.305.32.523.727.66 1.215.133.484.2 1.07.2 1.746v5.66c0 .235.077.422.234.555.16.133.425.2.804.2v1.652zm-4.414-1.536c.41 0 .746-.062 1.016-.187.265-.125.48-.277.637-.461a1.66 1.66 0 00.425-1v-2.48h-1.984c-.25 0-.496.042-.742.12a1.7 1.7 0 00-.649.387 2.17 2.17 0 00-.46.684c-.118.277-.176.61-.176 1.004 0 .742.164 1.246.496 1.523.332.274.808.41 1.437.41" fill="#0099d3"/></g><path d="M213.336 113.41l.914.278-1.031.457c-.332.148-.926.41-1.235.644a2.528 2.528 0 00-.75.922 4.94 4.94 0 01-.804-.367s.25-.285.695-.621c.457-.348 1.168-.743 1.555-.942.382-.203.656-.37.656-.37" fill="#0099d3"/><g clip-path="url(#c)"><path d="M216.68 114.176l.66.11s-.602.792-.86 1.105c-.257.308-1.386 1.644-1.386 1.644l-1.09-.195s.953-.621 1.16-.836c.211-.223.793-.817 1.016-1.082.218-.262.5-.746.5-.746" fill="#0099d3"/></g><g clip-path="url(#d)"><path d="M219.906 114.586l.66.008s-.382.722-.476 1.41c-.09.683-.117 1.68-.117 1.68l-1.078-.094s.511-.895.703-1.586c.191-.7.308-1.418.308-1.418" fill="#0099d3"/></g><g clip-path="url(#e)"><path d="M222.457 114.723l.602-.059s-.016.688.203 1.45c.222.753.547 1.515.547 1.515l-.95.11s-.07-.852-.144-1.364c-.074-.512-.258-1.652-.258-1.652" fill="#0099d3"/></g><g clip-path="url(#f)"><path d="M225.86 114.34l.62-.203s.82 1.09 1.168 1.48c.348.39 1.344 1.223 1.344 1.223l-.996.195s-.902-1.097-1.215-1.5c-.312-.402-.922-1.195-.922-1.195" fill="#0099d3"/></g><path d="M228.746 113.645l.734-.23s.875.913 1.56 1.358a16.27 16.27 0 001.542.872l-1.004.332s-1.02-.778-1.488-1.157c-.469-.375-1.344-1.175-1.344-1.175m-3.164-1.668c-.21-.098-.309.062-.21.16.093.097.386.484.593.738.148.184.531.813.734 1.152a25.48 25.48 0 001.567-.367 36.811 36.811 0 00-1.34-.914c-.367-.223-1.137-.676-1.344-.77m-4.23-.32c-.055.246-.47 2.176-.618 2.883a26.378 26.378 0 001.508 0c-.07-.574-.316-2.633-.332-2.852-.015-.253-.496-.335-.558-.03m2.273.32c-.156-.278-.434-.211-.434 0 0 .207-.03.707.047 1.203.063.37.196 1.004.258 1.293a26.44 26.44 0 001.945-.223c-.3-.34-.832-.945-.968-1.137-.188-.277-.688-.86-.848-1.136m7.523.093c-.062-.367-.125-1.082-.25-1.511-.128-.434-.75-1.61-1.03-2.094-.286-.488-.794-1.473-.794-1.473s.297.04.528.074c.234.032.484 0 .484 0l-.012-.39s-.3.02-.523-.031c-.223-.055-.664-.051-1.137-.41-.476-.36-1.066-1.005-1.148-1.633-.086-.637-.168-1.454-.453-2.243-.286-.789-.325-1.144-.66-1.707-.34-.554-.938-1.011-1.489-1.82-.543-.809-.797-1.168-1.074-1.766-.274-.601-.418-1.093-.418-1.093l-.348.101s.149.297.113.446c-.027.148-.335.27-.785.293-.457.019-.824-.254-.855-.473-.027-.223.055-.645.14-.93.083-.281.313-.664.313-.664l-.328-.312s-.25.312-.32.609c-.079.297-.133.484-.18.793-.055.3-.215.828-.695 1.379-.489.543-.887.976-1.125 1.289-.243.32-.489.77-.864 1.183-.379.41-.91.778-.91.778s-.02.347-.187.82c-.168.473-.524 1.317-.934 1.77-.414.449-.805.82-1.148 1.125-.348.308-.782.652-.782.652l.286.219.253-.031s.336-.262.547-.473c.207-.211.653-.629.653-.629s.027.418-.149 1.05c-.18.634-.41 1.274-.969 1.653-.554.379-.964.66-1.218 1.086-.254.418-1.094 1.89-1.094 1.89s-.191.583-.266.919c-.074.34.02.652-.218 1.218a3.676 3.676 0 01-.563.883c.473.192.957.375 1.445.543l3.395-1.933s1.105-.692 1.41-.98c.305-.286.742-.962.852-1.24.113-.273.222-.589.222-1.198 0-.614-.222-2.02-.418-2.723-.187-.703-1.07-3.238-1.07-3.238s.3-.754.43-.961c.129-.207.707-.867.707-.867l2.691 5.703h.563l2.757-6.168 1.22 1.379s-.61 1.394-.817 2.101a16.52 16.52 0 00-.453 2.29c-.043.484-.094 1.042-.094 1.6 0 .56.113 1.802.258 2.266.144.47.465.993.847 1.2.38.207.73.355 1.184.64.45.29.95.703 1.508 1.153.41.324 1.023.851 1.328 1.113a25.85 25.85 0 001.953-.715.92.92 0 01-.309-.512m-13.804.184c-.164.098-2.25 1.05-2.903 1.351.637.176 1.282.329 1.938.454a68.355 68.355 0 001.25-1.582c.144-.211-.094-.34-.285-.223m2.129-.488c-.047.113-.114.226-.203.386a286.85 286.85 0 01-1.438 2.153c.578.078 1.16.136 1.754.18.09-.333.246-1.044.289-1.372.047-.386.016-1.023-.016-1.297-.03-.273-.336-.16-.386-.05m4.937-18.051c.082-.059.16-.117.238-.172.317-.219.704-.559.704-.559l-.36-.402s-.332.332-.527.508a3.79 3.79 0 01-.856.594c-.023.007-.047.02-.066.027h-.004c-.34.144-.617.133-.617.133l-.008.433s.469-.007.774-.125c.23-.086.48-.261.722-.437m-2.289-4.496a.387.387 0 00.383-.387.384.384 0 10-.383.387m-2.082 4.496c.059.047.121.105.184.148.332.254.648.254.648.254l.106-.402s-.008 0-.012-.004h-.004a5.667 5.667 0 01-.512-.211c-.23-.121-.43-.344-.617-.57-.266-.325-.484-.676-.484-.676l-.317.293s.172.219.375.46c.16.196.38.473.633.708m1.414-31.781c-14.527 0-26.305 11.777-26.305 26.312 0 1.871.196 3.7.57 5.469 1.52 7.183 5.973 13.289 12.052 17 .035-.117.132-.403.246-.559.148-.199.304-.43.726-.43s1.977-.093 1.977-.093l.097-.477-.82.074s.074-.304.25-.523c.176-.223.379-.36.461-.625.09-.258.176-.578.297-1.144.129-.57.328-1.36.582-2.094.25-.739.469-1.223.86-1.79.39-.57 1.023-1.199 1.023-1.199s.199-.539.379-.96c.18-.422.336-.602.48-.957.149-.356.277-.442.32-.77.043-.324.145-1.18.344-1.734.203-.559.508-1.614.75-2.25.215-.579.367-1.067.535-1.473.02-.047.043-.094.063-.137.203-.437.664-1.027.851-1.265.192-.243.641-.766.641-.766l-.227-.23s.125-.489.254-.899c.121-.41.164-.453.239-.586.074-.14.21-.172.476-.098.258.075.82.18.922.188.219.062.242-.438.11-.473 0 0-.93-.156-1.16-.199-.235-.043-.274-.094-.286-.25-.012-.16.274-1.75.274-2.285 0-.54-.692-1.95-.86-2.328-.168-.38-1.277-2.903-1.308-3.04-.028-.136.222-.034.582.2.355.23.59.504.77.809.175.304.417 1.082.507 1.109.168.059 2.352-.023 2.676-.023.379 0 .422-.493-.02-.493h-1.906c-.445 0-.406-.16-.598-.476-.187-.317-.336-.715-.652-.98-.316-.262-.754-.696-1.238-.84-.489-.149-1.18-.286-1.707-.442-.528-.16-1.211-.277-1.875-.719-.66-.441-.914-.703-1.114-.789-.203-.086-.687-.062-1.074-.136-.39-.075-.887-.297-1.789-.77-.906-.473-1.422-.938-1.758-1.18-.34-.238-1.539-.883-1.539-.883s-.219.16-.449.06c-.234-.11-1.074-.59-1.375-.74-.289-.148-1.27-.792-1.27-.792l-.085-.387s-.125-.191-.23-.289c-.102-.094-.274-.805.128-.715.398.098.367.13.527.16.157.032.157-.21-.011-.324-.168-.117-.653-.433-.868-.64-.207-.215-.078-.72.215-.54.293.176.465.243.621.297.157.051.305-.11.293-.222-.011-.118.957-.043.957-.043s.266.043.707.265c.442.22.746.368.977.575.234.214.34.695.863.96.528.262 1.235.524 1.653.696.421.164 1.336.43 1.8.672.465.242.746.441.97.664.222.218.316.492 1.05.629.734.14 1.223.265 1.687.515.461.254 1.07.653 1.282.844.21.188 1.199.125 1.199.125s.453.074.851.242c.403.172.614.246.864.445.25.196.726.555.726.555l-1.008.254.083.442 1.703-.211 1.316-.875v-2.008s-.21-.074-.43-.36a1.502 1.502 0 01-.273-1.093c.062-.368.293-1.293.293-1.293h3.117s.285.726.324 1.105c.043.379.086.977-.175 1.293-.266.313-.465.336-.465.336v1.938s.234.218.547.44c.316.22.683.45.683.45l1.895.207v-.488l-1.106-.129s.305-.375.613-.574a5.452 5.452 0 011.157-.559c.355-.117 1.453-.222 1.453-.222s.273-.106.465-.274c.187-.168.66-.57 1.218-.8a8.552 8.552 0 011.555-.47c.36-.062.707-.16.938-.433a2.953 2.953 0 011.117-.781c.496-.196 2.605-1 2.914-1.114.316-.12.531-.18.695-.496.172-.316.188-.324.645-.578.449-.254.785-.398 1.125-.558.336-.16.828-.348 1.093-.43.262-.086.211-.031.528-.191.316-.16.617.378.324.566a42.54 42.54 0 00-.777.52c-.137.093-.063.23.097.207.157-.02.848-.126 1.153-.168.308-.04.52.515.09.707-.434.187-.528.293-.528.293s.04.359.051.496c.008.136.008.285-.242.406-.254.129-1.473.906-1.723 1.047-.258.136-.289.273-.676.273-.39 0-.57.02-.855.172-.281.145-2.723 1.836-2.988 1.984-.262.149-.883.504-1.493.547-.613.043-.937.168-1.582.59-.64.422-1.367.852-2.168 1.082-.796.235-1.882.426-2.535.75-.652.328-1.242.746-1.515 1.254-.274.504-.328.942-.864.938-.53-.004-1.695-.016-1.964-.016-.278 0-.286.445.007.445s2.707.067 2.817-.008c.117-.074.125-.433.351-.878a2.17 2.17 0 01.715-.84c.324-.219.813-.418.813-.418s-.707 1.902-.918 2.777c-.211.871-.528 2.04-.547 2.715-.02.672.094 1.848.137 2.062.042.211.093.524-.274.579-.367.054-.777.164-.945.18-.192.05-.121.464.043.44 0 0 .86-.167 1.05-.222.188-.05.274-.063.368.254.097.316.222.715.297.914.07.2-.024.324-.098.465-.074.137.16.39.16.39s.824 1.204 1.195 1.942c.043.086.078.164.11.234.273.676.66 1.813.8 2.371.133.555.461 1.668.579 2.282.117.613.23.992.472 1.496.243.5.325.726.61 1.02.285.296.632 1.327.8 1.839.168.52.473 1.055.684 1.621.211.57.453 1.234.613 1.727.157.496.399 1.465.516 1.875.113.41.176.84.82.988.64.148 1.075.336 1.418.297.348-.043.496-.094.758-.106.266-.011.484.051.633.153.086.066.172.152.226.215 5.305-3.762 9.157-9.434 10.547-16.012.371-1.77.57-3.598.57-5.469 0-14.535-11.777-26.312-26.312-26.312m-21.851 20.851c.93.75 1.226 1.918 1.226 1.918s-1.203-.047-2.133-.8c-.925-.75-1.222-1.919-1.222-1.919s1.203.047 2.129.801m2.578 4.653s-1.184.242-2.266-.258c-1.082-.508-1.652-1.57-1.652-1.57s1.183-.243 2.261.261c1.082.504 1.657 1.567 1.657 1.567m-3.258 6.277c.09-.34.238-.711.469-1.055.668-.988 1.804-1.387 1.804-1.387s.055 1.204-.613 2.192a1.946 1.946 0 01-.187.246c-.668.812-1.618 1.144-1.618 1.144s-.023-.511.145-1.14m3.36 2.008c1.19-.035 2.183.652 2.183.652s-.942.75-2.137.793c-1.191.047-2.183-.645-2.183-.645s.945-.753 2.136-.8m.61-2.524s1.152-.37 2.28.02c.352.12.661.3.923.496.566.414.883.89.883.89s-1.145.36-2.274-.027c-.582-.2-1.05-.562-1.36-.867-.292-.285-.452-.512-.452-.512m1.218 10.703s-.734-.957-.757-2.148c-.02-1.195.68-2.172.68-2.172s.738.957.761 2.145c.02 1.191-.684 2.175-.684 2.175m2.578-1.605s-.878-.695-1.164-1.762c-.289-1.074.125-2.117.125-2.117s.88.7 1.168 1.77c.286 1.07-.129 2.109-.129 2.109m1.86-.926s-.7-.906-.719-2.043c-.02-1.129.649-2.058.649-2.058s.699.906.718 2.039c.02 1.129-.648 2.062-.648 2.062m2.277-.55s-.699-.907-.719-2.04c-.02-1.129.649-2.062.649-2.062s.7.906.719 2.039c.02 1.129-.649 2.062-.649 2.062m4.758-16.41s.285 1.086-.129 2.113c-.414 1.032-1.379 1.618-1.379 1.618s-.281-1.09.133-2.121c.418-1.032 1.375-1.61 1.375-1.61m-2.23-1.765c.414-.977 1.343-1.524 1.343-1.524s.254 1.047-.16 2.027c-.414.98-1.344 1.524-1.344 1.524s-.257-1.047.16-2.027m-3.316-3.489s.57.793.555 1.758c-.02.973-.613 1.746-.613 1.746s-.575-.797-.555-1.762c.016-.972.613-1.742.613-1.742m-4.176 6.906c.258-1.132 1.157-1.89 1.157-1.89s.472 1.078.21 2.207c-.261 1.129-1.156 1.89-1.156 1.89s-.468-1.078-.21-2.207m-1.801-2.171c.203-1.141 1.054-1.946 1.054-1.946s.528 1.043.325 2.192c-.2 1.14-1.055 1.945-1.055 1.945s-.528-1.047-.324-2.191m-1.621-2.391c.199-1.121 1.039-1.914 1.039-1.914s.52 1.031.32 2.152c-.2 1.125-1.04 1.918-1.04 1.918s-.519-1.035-.32-2.156m1.036 4.719c.75 1.27 1.379 1.953 2.199 2.742.812.785 1.219.992 1.746 1.152.527.16 1.762.625 2.387.883.625.254 1.765.863 2.28 1.137.513.27 1.282.8 1.282.8l.367-.347s-.351-.629-.543-1.012c-.191-.383-.421-1.043-.609-1.636-.195-.598-.082-.223-.32-1.172-.242-.946-.758-1.426-.934-1.621-.172-.196-.414-.575-.879-1.122-.469-.546-1.203-1.789-1.539-2.324-.336-.531-1.09-1.972-1.41-2.656-.324-.688-.61-1.734-.61-1.734l.657-.27s.172.7.437 1.297c.254.594 1.262 2.21 1.856 3.11.59.898 1.715 2.324 1.715 2.324l.172-.051s-.172-2.176-.172-2.918c0-.739.156-2 .156-2l.644.289s.079 3.207.192 3.972c.113.766.336 2.31.578 3.11.246.797 1.156 2.644 1.586 3.5.434.848 1.07 1.883 1.07 1.883s-.023.058-.066.156a69.88 69.88 0 00-.555 1.309c-.222.543-.383 1.261-.383 1.261s-1.011-.32-1.683-.43c-.672-.109-1.668-.097-2.645.016-.976.113-2.117.403-3 .774-.879.367-1.633.828-2.406 1.375-.766.55-1.617 1.265-2.05 1.765-.43.496-1.15 1.504-1.15 1.504l-.597-.465s.754-1.14 1.152-1.617c.403-.48 1.575-1.508 2.051-1.863.48-.356 1.434-1.008 2.184-1.406.75-.403 2.453-1.043 3.207-1.204.75-.16 2.195-.257 2.66-.273.46-.016.29-.34.113-.465a9.895 9.895 0 00-.449-.281 103.1 103.1 0 00-2.02-1.176c-.882-.496-2.355-1.012-3.14-1.254-.79-.246-2.36-.476-2.922-.554-.559-.086-2.062-.102-2.707-.036-.645.063-3.207.414-3.207.414v-.832s2.05-.496 3.047-.558c.996-.067 3.43-.02 3.43-.02s-.708-.832-1.075-1.328c-.37-.496-.718-1.074-1.09-1.703-.37-.625-.925-1.902-1.187-2.48-.262-.575-.781-2.051-.992-2.758-.211-.707-.399-2.051-.399-2.051s.836-.145.864.078c.03.223.207 1.168.324 1.606.11.43.25.78.558 1.699.313.91 1.075 2.191 1.825 3.46m21.398-22.507c.524-.195 1.078-.258 1.078-.258s.02.39-.14 1.027c-.094.368-.313.993-.313.993l-1.535.187s-.11-.375-.188-.652c-.078-.278-.23-.68-.23-.68s.734-.394 1.328-.617m-.027 3.707c.12.043.601.238.965.441.46.254 1.046.762 1.046.762s-.648.375-1.113.563c-.402.164-1.16.293-1.281.308a3.287 3.287 0 00.383-2.074m-.07-.363a3.182 3.182 0 00-.333-.797l-.066-.121.906-.117zm-.383.832a2.778 2.778 0 01-5.555 0 2.775 2.775 0 012.777-2.774 2.772 2.772 0 012.778 2.774m-3.832-4.305c.363-.598.996-1.328.996-1.328s.535.527 1.066 1.387c.43.699.54 1.199.574 1.39a3.245 3.245 0 00-3.312.09c.027-.105.21-.789.676-1.539m-3.309-.129s.563.063 1.082.258c.59.223 1.328.617 1.328.617s-.148.402-.23.68c-.078.277-.188.652-.188.652l-1.539-.187s-.215-.625-.308-.993c-.16-.636-.145-1.027-.145-1.027m1.492 6.04c-.12-.016-.879-.145-1.281-.31-.465-.187-1.113-.562-1.113-.562s.582-.508 1.047-.762a8.35 8.35 0 01.96-.441c-.02.152-.035.309-.035.469 0 .582.157 1.129.422 1.605m-.312-2.437l-.504-1.035.902.117-.066.12a3.044 3.044 0 00-.332.798m-3.016-1.145c.781-.047 1.902.035 1.902.035l.512 1.035s-.566.207-.969.473c-.406.27-1.058.863-1.058.863s-.621-.437-1.055-.918c-.418-.468-.809-1.16-.809-1.16s.77-.289 1.477-.328m.063 5.438c-.489-.035-.813-.22-.813-.22s.332-.679.527-1c.168-.284.688-1.085.688-1.085s.648.5 1.531.754c1.235.36 1.973.387 2.012.39 0 0-.207.231-.54.426-.25.145-.878.426-1.558.582a7.067 7.067 0 01-1.847.153m4.394 1.757s-.3 1.579-.375 2.086c-.066.5.156.778.316 1.004.153.227.45.418.45.418l-.012 1.32s-.215.254-.453.442c-.238.195-.547.348-.547.348s-.305-.336-.66-.668c-.36-.336-.805-.543-.805-.543s-.285-1.653-.285-2c0-.352.047-.754.188-1.196.144-.445.37-.957.37-.957h.829s.023-.207.082-.445c.062-.238.191-.492.472-.719a1.73 1.73 0 01.711-.37c.278-.071.567-.122.567-.122h.937v1.402zm6.106 4.407s-.446.207-.805.543c-.356.332-.656.668-.656.668s-.313-.153-.551-.348c-.238-.188-.457-.441-.457-.441l-.008-1.32s.3-.192.453-.419c.156-.226.383-.504.309-1.004-.07-.507-.367-2.086-.367-2.086h-1.786v-1.402h.934s.262.016.566.121c.211.074.438.145.715.371.278.227.406.48.469.72.062.237.082.444.082.444h.828s.227.512.371.957c.14.442.192.844.192 1.196 0 .347-.29 2-.29 2m1.75-6.164a7.067 7.067 0 01-1.847-.153 6.427 6.427 0 01-1.559-.582c-.332-.195-.539-.425-.539-.425.04-.004.778-.032 2.012-.391a5.08 5.08 0 001.531-.754s.52.8.688 1.086c.191.32.527 1 .527 1s-.328.183-.812.219m.726-3.95c-.433.48-1.05.918-1.05.918s-.657-.593-1.055-.863c-.407-.266-.977-.473-.977-.473l.516-1.035s1.117-.082 1.902-.035c.707.04 1.477.328 1.477.328s-.391.692-.813 1.16M239.72 79.91s.722.66.91 1.613c.184.954-.238 1.84-.238 1.84s-.73-.66-.914-1.613c-.184-.957.242-1.84.242-1.84m-1.922 2.23s.91.665 1.234 1.731c.324 1.07-.054 2.129-.054 2.129s-.907-.668-1.23-1.73c-.329-1.07.05-2.13.05-2.13M237 88.044s-.805-.785-.98-1.887c-.176-1.097.347-2.094.347-2.094s.809.786.98 1.887c.176 1.098-.347 2.094-.347 2.094m-3.422-9.281s.59.789.59 1.761c0 .973-.59 1.758-.59 1.758s-.586-.785-.586-1.758c0-.972.586-1.761.586-1.761m-4.715 2.308s.871.532 1.246 1.465c.375.934.118 1.918.118 1.918s-.872-.527-1.247-1.465c-.375-.933-.117-1.918-.117-1.918m-.726 3.028s.863.683 1.14 1.73c.282 1.043-.12 2.067-.12 2.067s-.86-.684-1.141-1.73c-.282-1.048.12-2.067.12-2.067m4.348 16.816s-.675-.914-.675-2.039c0-1.121.675-2.035.675-2.035s.68.914.68 2.035c0 1.125-.68 2.04-.68 2.04m2.25.542s-.691-.96-.668-2.137c.02-1.168.746-2.105.746-2.105s.692.96.668 2.133c-.02 1.172-.746 2.109-.746 2.109m2.832-.836c-.226 1.149-1.101 1.95-1.101 1.95s-.516-1.067-.29-2.22c.223-1.148 1.102-1.953 1.102-1.953s.512 1.07.29 2.223m1.785 3.281s-.801-.875-.926-2.039c-.121-1.164.484-2.187.484-2.187s.8.875.926 2.039c.121 1.164-.484 2.187-.484 2.187m1.101-8.25c1.168.125 2.04.93 2.04.93s-1.02.602-2.188.48c-1.164-.12-2.035-.925-2.035-.925s1.023-.602 2.183-.485m-4.473-1.16s.336-.414.907-.781c.3-.191.66-.371 1.066-.473 1.192-.293 2.332.18 2.332.18s-.101.125-.285.293c-.328.309-.93.77-1.688.96-1.187.294-2.332-.179-2.332-.179m6.81-.781a2.89 2.89 0 01-.2-.273c-.63-.97-.559-2.137-.559-2.137s1.098.41 1.727 1.379c.219.336.355.703.437 1.035.149.605.118 1.097.118 1.097s-.887-.332-1.524-1.101m1.98-2.512s-1.718-.328-2.726-.383c-1.012-.046-2.34-.078-3.242.055-.895.125-2.242.461-2.946.75-.703.29-2.464 1.008-3.027 1.313a22.88 22.88 0 00-1.262.777c-.449.289-.82.535-.82.535l.191.34s1.083-.031 1.567.035c.484.063 1.254.27 1.957.492.707.223 1.601.676 2.309 1.043.703.367 1.152.59 1.796 1.137.641.547 1.301 1.125 1.684 1.559.383.43 1.375 1.789 1.375 1.789l-.563.535s-.882-1.16-1.328-1.621c-.449-.465-1.507-1.309-2.023-1.664-.508-.356-1.441-.883-2.05-1.125a10.063 10.063 0 00-2.388-.645c-1.023-.14-1.695-.238-2.418-.254-.722-.015-1.843.176-1.843.176s-.309-1.078-.532-1.637a10.195 10.195 0 00-.316-.695c-.2-.398-.387-.746-.387-.746s.489-.797.782-1.375c.293-.578 1.27-2.492 1.511-3.371.239-.88.48-1.555.66-2.516.172-.96.368-1.84.38-2.578.015-.738-.063-2.2-.063-2.2l.707-.237s.113 1.199.094 1.972c-.012.77-.164 2.711-.164 2.711l.199.188s1.347-1.524 1.957-2.461c.605-.95 1.152-1.836 1.406-2.348.258-.512.742-1.582.742-1.582l.602.219s-.625 1.508-.977 2.215c-.351.707-1.086 2.085-1.55 2.742-.47.656-1.766 2.496-2.008 2.82-.239.32-.48.457-.688 1.106-.207.656-.676 1.828-.898 2.355-.223.527-1.024 2.2-1.024 2.2l.29.3s1.46-.914 2.1-1.215c.638-.305 2.438-1.152 3.06-1.363.625-.211 1.539-.629 2.292-1.43.75-.797 1.293-1.586 1.665-2.097.37-.512 1.078-1.43 1.414-2.07.332-.638 1.074-1.919 1.312-2.579.242-.66.754-2.629.82-3.078.063-.453.848-.094.848-.094s-.242 1.492-.387 1.985c-.144.496-.625 1.953-.98 2.722-.348.77-1.195 2.215-1.582 2.871a20.49 20.49 0 01-1.172 1.813c-.352.48-1.086 1.363-1.086 1.363s1.774-.035 2.516-.016c.738.016 1.773.094 2.351.192.582.098 1.864.387 1.864.387zm-2.296-5.34c1.097-.445 2.257-.14 2.257-.14s-.625 1.023-1.722 1.469c-1.102.44-2.262.14-2.262.14s.625-1.027 1.727-1.469m1.84-1.894c-.903.707-2.06.734-2.06.734s.31-1.117 1.212-1.82c.898-.707 2.055-.73 2.055-.73s-.31 1.113-1.208 1.816m-51.425 16.749l.61-.313s-.13.567.237 1.153c.371.582.715.746.903.804.754.243 1.57-.535 1.707-.808.14-.278.297-.66.039-1.278-.375-.902-.707-.945-.707-.945l-.207-.066.054-.203s.512-.036.692.132c.312.305.68.961.765 1.496.098.641-.035.954-.289 1.368-.257.406-1.054.855-1.683.816-.625-.031-1.063-.351-1.418-.723-.36-.378-.703-1.433-.703-1.433m-1.024-3.469c.102.777.86 1.317 1.68 1.156.824-.156 1.46-.82 1.371-1.601-.094-.781-.848-1.442-1.738-1.278-.828.149-1.43.758-1.313 1.723m-.402-.039c-.176-1.25.594-2.184 1.676-2.25 1.082-.062 2.043.719 2.175 1.793.141 1.129-.582 2.043-1.507 2.195-1.27.211-2.188-.61-2.344-1.738" fill="#0099d3"/><g clip-path="url(#g)"><path d="M190.543 88.148l1.559.633v-1.187zm-.422 1.48s.047-.855.047-1.737c0-.88-.04-1.407-.04-1.407h.513s-.118.297-.149.594c-.031.3-.031.516-.031.516s2.695-1.012 2.96-1.188c.267-.18.419-.32.419-.32v.941s-.344-.011-.672.118c-.324.132-.703.27-.703.27v1.437s.36.261.86.43a.498.498 0 00.527-.13v.946s-.282-.336-.575-.434c-.289-.098-2.828-1.062-2.828-1.062s.004.293.004.523c0 .238.055.512.055.512zm0 0" fill="#0099d3"/></g><g clip-path="url(#h)"><path d="M190.707 93.805l-.164-.887s.238.215.562.172c.317-.043 2.36-.328 2.497-.356.132-.03.171-.18.164-.254-.004-.074.07-.808-.184-1.148-.254-.34-.406-.48-.406-.48l.012-.141s.304.07.5.168c.195.09.332.14.332.14l.332 2.258s-.22-.039-.735-.007c-.512.03-2.168.23-2.449.293a1.19 1.19 0 00-.461.242" fill="#0099d3"/></g><path d="M193.734 74.613l1.145 1.23.504-1.077zm-1.007 1.164s.402-.757.773-1.558c.375-.797.563-1.29.563-1.29l.46.22s-.226.214-.378.472a4.04 4.04 0 00-.247.453s2.868.223 3.18.176c.317-.047.512-.117.512-.117l-.395.86s-.304-.157-.66-.18c-.347-.02-.746-.055-.746-.055l-.61 1.305s.216.382.598.75c.246.238.532.105.532.105l-.403.86s-.113-.423-.336-.633c-.218-.207-2.113-2.16-2.113-2.16s-.113.261-.215.476c-.097.21-.172.484-.172.484zm18.07-16.656l-.059 1.68 1.117-.406zm-1.535.113s.82-.254 1.648-.558c.828-.301 1.309-.516 1.309-.516l.176.485s-.32-.008-.606.062c-.293.07-.492.145-.492.145s1.867 2.187 2.125 2.375c.254.187.441.28.441.28l-.883.325s-.109-.324-.343-.59c-.23-.262-.489-.57-.489-.57l-1.355.496s-.121.422-.11.95a.504.504 0 00.305.452l-.89.325s.218-.38.207-.684c-.008-.309.035-3.027.035-3.027l-.488.191c-.22.074-.465.219-.465.219zm30.265 3.926l-1.394.938.988.668zm-.992-1.176s.688.512 1.418 1.008c.73.492 1.188.758 1.188.758l-.286.422s-.183-.266-.41-.453c-.226-.196-.406-.313-.406-.313s-.676 2.793-.676 3.114c0 .32.035.527.035.527l-.785-.527s.207-.278.278-.622c.078-.343.175-.73.175-.73l-1.195-.809s-.414.157-.832.473c-.277.207-.191.512-.191.512l-.786-.531s.434-.047.676-.235c.246-.183 2.469-1.75 2.469-1.75s-.242-.152-.437-.289c-.196-.129-.454-.242-.454-.242zm6.028 46.598l-.739-1.508-.797.887zm1.3-.816s-.601.609-1.191 1.265c-.594.653-.918 1.07-.918 1.07l-.379-.343s.281-.145.508-.344c.219-.195.363-.36.363-.36s-2.676-1.054-2.992-1.097c-.316-.047-.524-.039-.524-.039l.63-.703s.25.238.577.36c.333.124.704.273.704.273l.964-1.07s-.097-.43-.351-.891c-.168-.301-.484-.258-.484-.258l.64-.707s-.015.441.133.707c.152.266 1.39 2.683 1.39 2.683s.192-.218.344-.394c.157-.172.305-.41.305-.41zm-16.156-49.692l-.156.664s-.352-.465-1.031-.558c-.688-.09-1.004.113-1.172.215-.168.101-.403.48-.442.683l2.106.395.468-.004s.024.695 0 .676c-.03-.016-.46-.2-.46-.2l-2.215-.5s-.063.38.058.664c.121.286.29.68.922.899.38.133.938.195 1.18.129.203-.051.543-.242.543-.242l.054.125s-.175.335-.476.585c-.465.094-1.414-.109-1.945-.378-.485-.247-.754-.637-.907-1.098-.148-.461.024-1.356.453-1.816.43-.461.954-.59 1.47-.622.519-.035 1.55.383 1.55.383m-32.84 10.774l.543.422s-.574.125-.95.71c-.378.586-.382.977-.355 1.172.102.793 1.16 1.211 1.473 1.22.309.007.727-.013 1.184-.513.664-.73.562-1.05.562-1.05l-.027-.215.207-.04s.254.454.172.692c-.14.41-.586 1.031-1.035 1.336-.547.367-.895.383-1.375.32-.485-.058-1.23-.597-1.47-1.191-.233-.59-.132-1.121.06-1.61.19-.488 1.011-1.253 1.011-1.253m50.43 37.066l-.57-.371s.554-.172.875-.785c.32-.61.293-.988.25-1.184-.168-.773-1.25-1.094-1.555-1.07-.309.016-.719.074-1.129.605-.59.774-.461 1.079-.461 1.079l.043.214-.203.055s-.29-.422-.227-.664c.102-.422.489-1.07.91-1.414.504-.406.844-.445 1.329-.43.484.016 1.261.485 1.546 1.051.286.559.23 1.09.086 1.59-.148.5-.894 1.324-.894 1.324M236.95 61.082l-.286.59c-.187-.637-.742-1.059-1.164-1.05-.465.007-.766.507-.426.952.34.442.39.387.801.989.602.874-.344 1.554-1.016 1.46-.804-.101-1.66-.882-1.66-.882l.215-.696s.453.79 1.3 1.086c.599.207 1.028-.277.626-.867-.278-.406-.406-.457-.73-.922-.434-.617.074-1.312.577-1.441.54-.145.958.117 1.235.304.32.215.527.477.527.477m-35.636 3.461c-.61.496-.665 1.426-.094 2.039.574.617 1.472.8 2.09.313.609-.493.773-1.48.164-2.157-.567-.62-1.41-.804-2.16-.195m-.18-.36c.969-.812 2.168-.656 2.793.227.629.887.476 2.11-.367 2.797-.88.719-2.04.586-2.66-.117-.848-.961-.641-2.18.234-2.906m13.086-6.504l.879-.2s-.203.25-.153.57c.055.317.414 2.348.446 2.481.035.137.187.164.261.16.07-.011.805.04 1.137-.226.328-.266.469-.426.469-.426l.14.008s-.062.305-.148.504c-.086.203-.133.34-.133.34l-2.242.414s.031-.223-.02-.739c-.046-.507-.3-2.16-.382-2.433-.075-.274-.254-.453-.254-.453m37.246 39.367l-.25.867s-.117-.3-.422-.406c-.309-.11-2.254-.785-2.387-.817-.136-.035-.234.082-.265.149-.028.066-.426.687-.352 1.105.07.418.145.618.145.618l-.079.117s-.238-.203-.37-.375a6.888 6.888 0 00-.231-.278l.726-2.16s.18.133.653.34c.472.203 2.039.781 2.316.848a1.14 1.14 0 00.516-.008M191.02 81.066s.308-.148.714-.043c.41.102 2.223.63 2.383.715.16.082.426.383.426.383l.242-1.008s-.39.11-.64.035c-.25-.078-1.59-.433-1.895-.53-.305-.098-.473-.282-.52-.485-.05-.203-.023-.567.075-.871.097-.305.172-.38.332-.54.16-.16.312-.234.695-.202.379.035 1.711.437 1.934.507.218.07.488.328.488.328l.305-.933s-.332.105-.621.039c-.29-.059-1.418-.371-1.727-.457-.305-.094-.899-.207-1.305.187-.234.23-.472.704-.52 1.133-.046.43.071 1.098.071 1.098l-.324-.113zm13.222-19.144s.324.113.54.476c.21.364 1.124 2.016 1.175 2.188.055.172.031.57.031.57l.883-.539s-.355-.199-.473-.43c-.125-.23-.82-1.425-.968-1.714-.149-.285-.133-.532-.028-.707.11-.18.387-.418.672-.563.281-.148.39-.148.617-.148.227 0 .387.054.633.347.246.297.903 1.52 1.008 1.723.106.21.117.578.117.578l.867-.441s-.3-.164-.464-.41c-.16-.25-.739-1.266-.891-1.547-.152-.278-.492-.782-1.059-.785-.328-.004-.828.16-1.168.433-.34.27-.726.82-.726.82l-.156-.304zm-6.41 5.551l.664-.657s.012.2.16.36c.153.16 1.903 1.91 2.035 2.031.137.121.54.137.54.137l-.657.808s-.12-.37-.285-.523c-.164-.149-1.941-1.906-2.031-1.988a.749.749 0 00-.426-.168m52.313 33.445l-.45.824s-.066-.191-.254-.297c-.191-.11-2.375-1.27-2.539-1.347-.168-.075-.558.023-.558.023l.39-.965s.227.324.426.418c.203.094 2.41 1.258 2.524 1.309.218.097.46.035.46.035m-7.656-30.602s.086-.355.371-.656c.293-.312 1.63-1.64 1.786-1.742.148-.098.539-.184.539-.184l-.762-.703s-.094.399-.281.582c-.188.18-1.145 1.18-1.383 1.399-.235.222-.477.277-.676.218-.2-.05-.504-.253-.727-.484a1.092 1.092 0 01-.308-.558c-.063-.215-.055-.383.16-.704.215-.316 1.215-1.285 1.383-1.441.164-.16.523-.273.523-.273l-.672-.715s-.066.34-.265.562a47.1 47.1 0 01-1.238 1.281c-.227.223-.614.692-.465 1.239.086.312.382.75.738 1.004.355.25.996.468.996.468l-.258.235zm6.552 19.981s.312-.18.733-.184c.422-.004 2.309.035 2.485.07.176.044.508.262.508.262l-.028-1.035s-.343.207-.61.2c-.257-.012-1.644-.005-1.964-.02-.32-.016-.527-.153-.629-.336-.097-.18-.168-.54-.152-.86.015-.32.07-.41.183-.609.114-.191.239-.305.618-.375.382-.062 1.765-.02 2-.008.23.008.554.188.554.188l.051-.98s-.289.19-.586.203c-.297.015-1.465.003-1.785 0-.32-.012-.922.035-1.211.523-.168.285-.273.797-.207 1.227.063.43.348 1.042.348 1.042l-.344-.023zm0 0" fill="#0099d3"/><g clip-path="url(#i)"><path d="M222.195 57.336l-.054 2.879s.496.008 1.23.008c.824 0 1.168-.778 1.168-1.453 0-.625-.469-1.372-1.285-1.418-.719-.043-1.059-.016-1.059-.016m-.941 3.266s.312-.262.324-.442c.035-.36.074-2.648.074-2.883a.52.52 0 00-.191-.382s1.488.046 1.976.07c.598.02 1.715.64 1.715 1.902s-1.066 1.813-1.625 1.813c-.55 0-2.273-.078-2.273-.078" fill="#0099d3"/></g><path d="M246.559 70.414l-2.336 1.688s.297.402.738.988c.492.656 1.324.465 1.86.058.495-.375.812-1.203.363-1.878-.399-.602-.625-.856-.625-.856m-3.176 1.215s.394.086.55-.004c.305-.195 2.153-1.543 2.344-1.684a.524.524 0 00.192-.379s.855 1.215 1.133 1.618c.343.492.52 1.754-.489 2.511-1.008.762-2.093.243-2.425-.199a88.691 88.691 0 01-1.305-1.863m5.211 11.215s.148.125.508.086c.355-.032 2.34-.39 2.543-.414.207-.032.5-.27.5-.27s.195.836.324 1.649c.12.808-.375 1.261-.758 1.324-.387.062-.848-.106-1.063-.489-.21-.382-.265-.863-.265-.863l.176-.008s.062.266.25.559c.187.293.687.32.89.238.207-.078.492-.379.426-.844-.059-.464-.168-.82-.168-.82s-2.43.438-2.715.492c-.285.051-.543.375-.543.375zm.594 9.691s-.22.754-.227 1.035c-.012.274.082.61.535.73.324.083.758-.015.914-.683.09-.39.156-.797.156-.797zm1.718.348s-.082.441-.129.734c-.05.293.137.637.453.684a.58.58 0 00.645-.465c.066-.328.137-.734.137-.734zm-1.984-.992s.187.097.48.168c.293.07 2.368.472 2.602.488.23.02.496-.035.496-.035s-.184 1.113-.313 1.668c-.12.55-.566.683-.878.668-.313-.02-.645-.336-.72-.637-.23.46-.757.734-1.296.578-.578-.168-.766-.855-.668-1.344.078-.37.191-.902.242-1.156.055-.246.055-.398.055-.398m1.519-15.078l-.617.289s.145-.559-.199-1.16c-.348-.594-.703-.723-.887-.79-.187-.07-.625-.02-.812.075l.988 1.898.29.367s-.536.45-.536.414a17.025 17.025 0 00-.125-.484l-.969-2.055s-.34.188-.488.461c-.149.27-.356.64-.14 1.277.128.38.425.86.624 1.008.168.13.524.282.524.282l-.063.117s-.37.074-.758-.012c-.355-.309-.78-1.184-.894-1.77-.106-.527.039-.988.309-1.386.269-.403 1.078-.817 1.707-.762.628.055 1.05.383 1.394.773.348.391.652 1.457.652 1.457m-52.449 31.809l.5-.465s.035.582.547 1.04c.516.456.89.472 1.09.48.195.008.601-.176.746-.324l-1.527-1.5-.387-.258s.367-.594.379-.563c.012.031.265.422.265.422l1.56 1.656s.269-.285.323-.586c.059-.304.14-.726-.261-1.261-.239-.32-.668-.684-.907-.766-.199-.066-.582-.105-.582-.105l.02-.13s.332-.183.726-.218c.434.18 1.106.879 1.399 1.398.265.477.27.95.137 1.418-.133.465-.778 1.114-1.391 1.25-.613.141-1.117-.043-1.566-.304-.446-.262-1.07-1.184-1.07-1.184m-2.665-3.508l.524-.386c-.13.648.16 1.28.539 1.472.41.215.914-.09.82-.64-.094-.555-.16-.528-.246-1.25-.117-1.059 1.035-1.207 1.59-.813.656.473 1.043 1.559 1.043 1.559l-.512.511s-.027-.906-.64-1.57c-.426-.46-1.036-.234-.962.473.059.492.149.601.22 1.16.089.746-.684 1.121-1.188 1.004-.547-.13-.79-.559-.95-.852-.183-.34-.238-.668-.238-.668" fill="#0099d3"/><g clip-path="url(#j)"><path d="M272.262 112.512h.332v3.273c0 .535 0 .996-.356 1.434-.355.406-.898.613-1.425.613-.532 0-1.075-.207-1.43-.613-.356-.438-.356-.899-.356-1.434v-3.273h.336v3.175c0 .473 0 .977.274 1.325.254.332.773.508 1.175.508.403 0 .918-.176 1.176-.508.274-.348.274-.852.274-1.325zm0 0" fill="#878787"/></g><g clip-path="url(#k)"><path d="M279.805 117.938l-4.407-4.688v4.512h-.336v-5.32l4.41 4.652v-4.582h.333zm0 0" fill="#878787"/></g><g clip-path="url(#l)"><path d="M282.324 117.762h.332v-5.25h-.332zm0 0" fill="#878787"/></g><g clip-path="url(#m)"><path d="M286.543 116.996h.012l1.554-4.484h.336l-1.91 5.425-1.887-5.425h.336zm0 0" fill="#878787"/></g><g clip-path="url(#n)"><path d="M290.766 112.824v1.91h2.117v.313h-2.117v2.402h2.171v.313h-2.503v-5.25h2.503v.312zm0 0" fill="#878787"/></g><g clip-path="url(#o)"><path d="M297.953 117.762h-.383l-1.715-2.485h-.168v2.485h-.332v-5.25h.653c.426 0 .844.008 1.199.265.375.266.527.68.527 1.13 0 .91-.632 1.382-1.504 1.37zm-1.84-2.797c.328 0 .657-.016.918-.246.25-.2.371-.516.371-.828 0-.391-.183-.782-.558-.946-.278-.132-.633-.12-.942-.12h-.214v2.14zm0 0" fill="#878787"/></g><g clip-path="url(#p)"><path d="M302.574 113.375c-.238-.375-.57-.621-1.066-.621a.988.988 0 00-.988 1.004c0 .55.523.781.945.984l1.004.52c.398.25.597.574.597 1.047 0 .87-.793 1.523-1.64 1.523-.735 0-1.305-.453-1.547-1.129l.293-.133c.223.559.633.95 1.265.95.692 0 1.297-.543 1.297-1.239 0-.594-.605-.844-1.058-1.066l-.95-.504c-.347-.215-.542-.52-.542-.938 0-.78.558-1.332 1.343-1.332.532 0 1.032.286 1.282.739zm0 0" fill="#878787"/></g><g clip-path="url(#q)"><path d="M305.32 117.762h.336v-5.25h-.336zm0 0" fill="#878787"/></g><g clip-path="url(#r)"><path d="M308.176 112.512h.945c.77 0 1.375.125 1.953.66.547.516.836 1.219.836 1.973a2.65 2.65 0 01-.808 1.921c-.579.559-1.2.696-1.98.696h-.946zm.941 4.937c.688 0 1.258-.14 1.762-.633a2.366 2.366 0 00.695-1.671c0-.668-.265-1.297-.758-1.75-.503-.45-1.046-.57-1.699-.57h-.605v4.624zm0 0" fill="#878787"/></g><g clip-path="url(#s)"><path d="M314.621 116.035l-.703 1.727h-.34l2.2-5.422 2.19 5.422h-.34l-.702-1.727zm1.156-2.847l-1.03 2.535h2.054zm0 0" fill="#878787"/></g><g clip-path="url(#t)"><path d="M319.96 112.512h.946c.766 0 1.371.125 1.95.66.55.516.835 1.219.835 1.973 0 .722-.277 1.414-.808 1.921-.574.559-1.195.696-1.977.696h-.945zm.938 4.937c.692 0 1.262-.14 1.762-.633a2.37 2.37 0 00-.062-3.421c-.5-.45-1.043-.57-1.7-.57h-.605v4.624zm0 0" fill="#878787"/></g><g clip-path="url(#u)"><path d="M326.223 112.824v1.91h2.117v.313h-2.117v2.402h2.175v.313h-2.507v-5.25h2.507v.312zm0 0" fill="#878787"/></g><g clip-path="url(#v)"><path d="M339.102 117.938l-4.407-4.688v4.512h-.336v-5.32l4.41 4.652v-4.582h.333zm0 0" fill="#878787"/></g><g clip-path="url(#w)"><path d="M346.754 115.137c0 1.476-1.246 2.695-2.723 2.695-1.476 0-2.722-1.219-2.722-2.695 0-1.477 1.238-2.696 2.722-2.696 1.477 0 2.723 1.22 2.723 2.696m-5.113 0c0 1.297 1.082 2.383 2.39 2.383 1.301 0 2.387-1.094 2.387-2.383 0-1.293-1.086-2.383-2.387-2.383-1.308 0-2.39 1.09-2.39 2.383" fill="#878787"/></g><g clip-path="url(#x)"><path d="M350.324 116.996h.012l1.555-4.484h.332l-1.907 5.425-1.886-5.425h.332zm0 0" fill="#878787"/></g><g clip-path="url(#y)"><path d="M354.035 116.035l-.707 1.727h-.34l2.203-5.422 2.192 5.422h-.34l-.703-1.727zm1.156-2.847l-1.03 2.535h2.054zm0 0" fill="#878787"/></g><g clip-path="url(#z)"><path d="M362.922 112.512h.945c.766 0 1.371.125 1.95.66.55.516.835 1.219.835 1.973 0 .722-.277 1.414-.804 1.921-.578.559-1.2.696-1.98.696h-.946zm.937 4.937c.692 0 1.262-.14 1.766-.633a2.366 2.366 0 00.695-1.671c0-.668-.265-1.297-.757-1.75-.504-.45-1.047-.57-1.704-.57h-.605v4.624zm0 0" fill="#878787"/></g><g clip-path="url(#A)"><path d="M369.188 112.824v1.91h2.117v.313h-2.118v2.402h2.172v.313h-2.507v-5.25h2.507v.312zm0 0" fill="#878787"/></g><g clip-path="url(#B)"><path d="M377.656 117.45h1.336v.312h-1.668v-5.25h.332zm0 0" fill="#878787"/></g><g clip-path="url(#C)"><path d="M380.992 117.762h.336v-5.25h-.336zm0 0" fill="#878787"/></g><g clip-path="url(#D)"><path d="M386.277 113.375c-.238-.375-.574-.621-1.066-.621a.985.985 0 00-.988 1.004c0 .55.52.781.945.984l1.004.52c.394.25.598.574.598 1.047 0 .87-.793 1.523-1.645 1.523-.73 0-1.3-.453-1.543-1.129l.29-.133c.222.559.636.95 1.269.95.691 0 1.293-.543 1.293-1.239 0-.594-.602-.844-1.055-1.066l-.95-.504c-.347-.215-.542-.52-.542-.938 0-.78.558-1.332 1.343-1.332.532 0 1.032.286 1.282.739zm0 0" fill="#878787"/></g><g clip-path="url(#E)"><path d="M389.023 117.762v-5.25h1.051c.399 0 .774.027 1.086.308.32.278.442.668.442 1.086 0 .48-.188.836-.606 1.07a1.324 1.324 0 011.086 1.325c0 .426-.16.808-.488 1.086-.367.312-.758.375-1.227.375zm.336-2.867h.579c.355 0 .64.02.937-.196.3-.215.39-.48.39-.844 0-.34-.132-.675-.43-.863-.265-.168-.593-.168-.897-.168h-.579zm0 2.554h.801c.367 0 .75.016 1.07-.203.32-.215.516-.543.516-.933 0-.383-.187-.766-.543-.938-.32-.16-.758-.168-1.105-.168h-.739zm0 0" fill="#878787"/></g><g clip-path="url(#F)"><path d="M399.48 115.137c0 1.476-1.246 2.695-2.722 2.695-1.477 0-2.723-1.219-2.723-2.695 0-1.477 1.238-2.696 2.723-2.696 1.476 0 2.722 1.22 2.722 2.696m-5.109 0a2.403 2.403 0 002.387 2.383c1.3 0 2.39-1.094 2.39-2.383 0-1.293-1.09-2.383-2.39-2.383a2.406 2.406 0 00-2.387 2.383" fill="#878787"/></g><g clip-path="url(#G)"><path d="M402.2 116.035l-.704 1.727h-.34l2.2-5.422 2.195 5.422h-.344l-.703-1.727zm1.155-2.847l-1.03 2.535h2.054zm0 0" fill="#878787"/></g><use xlink:href="#H" x="204.047" y="330.149"/><use xlink:href="#I" x="217.995" y="330.149"/><use xlink:href="#J" x="226.6" y="330.149"/><use xlink:href="#K" x="234.355" y="330.149"/><use xlink:href="#L" x="239.92" y="330.149"/><use xlink:href="#M" x="251.553" y="330.149"/><use xlink:href="#N" x="260.075" y="330.149"/><use xlink:href="#O" x="268.597" y="330.149"/><use xlink:href="#P" x="277.119" y="330.149"/><use xlink:href="#Q" x="289.519" y="330.149"/><use xlink:href="#O" x="297.273" y="330.149"/><use xlink:href="#R" x="305.795" y="330.149"/><use xlink:href="#S" x="318.195" y="330.149"/><use xlink:href="#T" x="322.072" y="330.149"/><use xlink:href="#U" x="334.472" y="330.149"/><use xlink:href="#K" x="342.994" y="330.149"/><use xlink:href="#J" x="348.42" y="330.149"/><use xlink:href="#V" x="356.175" y="330.149"/><use xlink:href="#V" x="363.929" y="330.149"/><use xlink:href="#W" x="371.684" y="330.149"/><use xlink:href="#X" x="375.562" y="330.149"/><use xlink:href="#J" x="383.317" y="330.149"/><use xlink:href="#Y" x="175.099" y="347.068"/><use xlink:href="#Z" x="183.621" y="347.068"/><use xlink:href="#J" x="192.143" y="347.068"/><use xlink:href="#V" x="199.898" y="347.068"/><use xlink:href="#W" x="207.653" y="347.068"/><use xlink:href="#V" x="211.53" y="347.068"/><use xlink:href="#Y" x="223.163" y="347.068"/><use xlink:href="#W" x="231.685" y="347.068"/><use xlink:href="#aa" x="235.562" y="347.068"/><use xlink:href="#ab" x="240.207" y="347.068"/><use xlink:href="#J" x="244.084" y="347.068"/><use xlink:href="#ac" x="255.717" y="347.068"/><use xlink:href="#W" x="266.568" y="347.068"/><use xlink:href="#aa" x="270.445" y="347.068"/><use xlink:href="#Z" x="275.09" y="347.068"/><use xlink:href="#Q" x="287.49" y="347.068"/><use xlink:href="#ad" x="299.122" y="347.068"/><use xlink:href="#N" x="307.644" y="347.068"/><use xlink:href="#K" x="316.166" y="347.068"/><use xlink:href="#ae" x="321.313" y="347.068"/><use xlink:href="#J" x="329.068" y="347.068"/><use xlink:href="#R" x="336.823" y="347.068"/><use xlink:href="#M" x="349.222" y="347.068"/><use xlink:href="#W" x="357.744" y="347.068"/><use xlink:href="#O" x="361.622" y="347.068"/><use xlink:href="#J" x="370.144" y="347.068"/><use xlink:href="#af" x="381.776" y="347.068"/><use xlink:href="#K" x="391.846" y="347.068"/><use xlink:href="#J" x="397.272" y="347.068"/><use xlink:href="#Q" x="405.027" y="347.068"/><use xlink:href="#ag" x="412.782" y="347.068"/><use xlink:href="#ah" x="249.858" y="386.843"/><use xlink:href="#ai" x="254.503" y="386.843"/><use xlink:href="#aj" x="264.573" y="386.843"/><use xlink:href="#ak" x="272.328" y="386.843"/><use xlink:href="#al" x="279.943" y="386.843"/><use xlink:href="#aj" x="284.588" y="386.843"/><use xlink:href="#aj" x="292.343" y="386.843"/><use xlink:href="#am" x="303.975" y="386.843"/><use xlink:href="#an" x="314.045" y="386.843"/><use xlink:href="#ao" x="321.8" y="386.843"/><use xlink:href="#aj" x="333.419" y="386.843"/><use xlink:href="#ap" x="341.174" y="386.843"/><use xlink:href="#aq" x="224.152" y="599.056"/><use xlink:href="#ar" x="230.799" y="599.056"/><use xlink:href="#as" x="238.104" y="599.056"/><use xlink:href="#at" x="245.408" y="599.056"/><use xlink:href="#au" x="256.037" y="599.056"/><use xlink:href="#av" x="263.413" y="599.056"/><use xlink:href="#aw" x="270.06" y="599.056"/><use xlink:href="#ax" x="274.83" y="599.056"/><use xlink:href="#ay" x="284.801" y="599.056"/><use xlink:href="#ar" x="292.105" y="599.056"/><use xlink:href="#at" x="299.41" y="599.056"/><use xlink:href="#az" x="306.715" y="599.056"/><use xlink:href="#at" x="314.019" y="599.056"/><use xlink:href="#aA" x="321.324" y="599.056"/><use xlink:href="#aB" x="327.971" y="599.056"/><use xlink:href="#av" x="338.599" y="599.056"/><use xlink:href="#aC" x="348.57" y="599.056"/><use xlink:href="#ar" x="357.201" y="599.056"/><use xlink:href="#av" x="364.506" y="599.056"/><use xlink:href="#aD" x="254.883" y="811.268"/><use xlink:href="#aB" x="259.449" y="811.268"/><use xlink:href="#ar" x="270.077" y="811.268"/><use xlink:href="#at" x="277.382" y="811.268"/><use xlink:href="#aE" x="284.686" y="811.268"/><use xlink:href="#as" x="288.668" y="811.268"/><use xlink:href="#aF" x="295.972" y="811.268"/><use xlink:href="#aG" x="300.539" y="811.268"/><use xlink:href="#aD" x="307.186" y="811.268"/><use xlink:href="#ax" x="311.753" y="811.268"/><use xlink:href="#av" x="318.281" y="811.268"/><use xlink:href="#aA" x="324.928" y="811.268"/><use xlink:href="#aw" x="331.575" y="811.268"/><use xlink:href="#aF" x="336.225" y="811.268"/></svg>