<svg xmlns="http://www.w3.org/2000/svg" xmlns:xlink="http://www.w3.org/1999/xlink" width="793.701" height="1122.52" viewBox="0 0 595.276 841.89"><defs><symbol overflow="visible" id="a"><path d="M5.36-8.578v5.422c0 1.5-.673 2.344-1.829 2.344s-1.797-.844-1.797-2.36v-5.406H.781v5.719C.781-.97 1.828.234 3.484.234c1.735 0 2.829-1.28 2.829-3.25v-5.562zm0 0"/></symbol><symbol overflow="visible" id="b"><path d="M5.422-1.61L1.859-8.577H.734V0h.922v-6.969L5.266 0h1.062v-8.578h-.906zm0 0"/></symbol><symbol overflow="visible" id="c"><path d="M1.844-8.578H.89V0h.953zm0 0"/></symbol><symbol overflow="visible" id="d"><path d="M3.281-1.234L1.25-8.578H.187L2.767 0H3.78l2.563-8.578H5.266zm0 0"/></symbol><symbol overflow="visible" id="e"><path d="M6.031-1.047H1.813V-3.89H5.64v-1.03H1.812v-2.626H5.97v-1.031H.844V0H6.03zm0 0"/></symbol><symbol overflow="visible" id="f"><path d="M1.813-3.688h2.312c.89 0 1.234.438 1.25 1.532 0 .906.078 1.812.156 2.156h1.172v-.188c-.281-.203-.328-.343-.36-.859l-.046-1.562c-.063-.97-.234-1.329-.844-1.61.734-.547.984-1.078.984-2.047 0-1.5-.812-2.312-2.312-2.312H.859V0h.954zm0-3.906h2.375c.843 0 1.265.469 1.265 1.422 0 1.016-.453 1.5-1.437 1.5H1.812zm0 0"/></symbol><symbol overflow="visible" id="g"><path d="M5.875-6.078c-.047-.766-.14-1.125-.36-1.531-.406-.766-1.218-1.204-2.28-1.204-.86 0-1.5.266-1.938.797a3.071 3.071 0 00-.578 1.829c0 1.078.5 1.78 1.5 2.046l1.437.407c1.156.343 1.5.656 1.5 1.484 0 .953-.672 1.484-1.812 1.484-.781 0-1.375-.296-1.688-.843-.203-.313-.265-.61-.281-1.157h-.89c0 .907.14 1.407.5 1.922C1.53-.094 2.218.234 3.296.234c1.719 0 2.781-.984 2.781-2.593 0-1.22-.562-2.016-1.61-2.297l-2-.563c-.562-.156-.827-.5-.827-1.11 0-.937.578-1.484 1.593-1.484.657 0 1.172.266 1.47.72.171.296.25.546.28 1.015zm0 0"/></symbol><symbol overflow="visible" id="h"><path d="M.125-7.547h2.39V0h.97v-7.547h2.374v-1.031H.125zm0 0"/></symbol><symbol overflow="visible" id="i"><path d="M3.734-3.453l2.657-5.125H5.28L3.266-4.453 1.25-8.578H.125l2.656 5.125V0h.953zm0 0"/></symbol><symbol overflow="visible" id="j"><path d="M3.86-8.813c-1.016 0-1.829.376-2.407 1.094C.766-6.89.375-5.64.375-4.28c0 1.343.39 2.562 1.078 3.422.563.703 1.39 1.093 2.36 1.093.968 0 1.812-.39 2.374-1.093.672-.86 1.063-2.079 1.063-3.422 0-.938-.203-1.907-.563-2.657C6.079-8.155 5.11-8.813 3.86-8.813zm-.016 1.047c1.437 0 2.422 1.407 2.422 3.47 0 2.093-.985 3.484-2.454 3.484-1.468 0-2.453-1.391-2.453-3.47 0-2.124.97-3.484 2.485-3.484zm0 0"/></symbol><symbol overflow="visible" id="k"><path d="M1.813-3.89H5.25v-1.032H1.812v-2.625H5.72v-1.031H.844V0h.969zm0 0"/></symbol><symbol overflow="visible" id="l"><path d="M1.703-8.578H.734V0h4.532v-1.047H1.703zm0 0"/></symbol><symbol overflow="visible" id="m"><path d="M.734 0h3.032C5.203 0 6.14-1.016 6.14-2.563c0-1.046-.344-1.609-1.266-2.062.64-.422.938-.969.938-1.797 0-1.297-.797-2.156-1.985-2.156H.734zm.954-7.594h1.718c1 0 1.453.407 1.453 1.282 0 .937-.468 1.359-1.468 1.359H1.687zm0 3.578h1.859c1.094 0 1.64.485 1.64 1.454 0 1-.53 1.578-1.468 1.578H1.688zm0 0"/></symbol><symbol overflow="visible" id="n"><path d="M4.672-2.5L5.359 0h1.047L3.86-8.578H2.766L.125 0h.984l.75-2.5zM2.14-3.531l1.14-3.813L4.328-3.53zm0 0"/></symbol><symbol overflow="visible" id="o"><path d="M6.594-6c-.078-.672-.188-1-.453-1.453-.5-.86-1.375-1.36-2.422-1.36C1.703-8.813.438-7.046.438-4.28.438-1.516 1.655.234 3.594.234A2.74 2.74 0 005.625-.64c.547-.546.813-1.171 1.047-2.515H5.75c-.14.734-.266 1.094-.516 1.469-.39.593-.89.875-1.546.875-1.438 0-2.282-1.25-2.282-3.438s.875-3.516 2.328-3.516c.5 0 .954.157 1.282.454.343.312.5.625.656 1.312zm0 0"/></symbol><symbol overflow="visible" id="q"><path d="M.781 0H3.61c.813 0 1.516-.328 2-.922.641-.828 1-2.047 1-3.469 0-2.546-1.156-4.187-2.968-4.187H.78zm.969-7.594h1.781c1.344 0 2.094 1.172 2.094 3.297 0 2.047-.766 3.313-2.047 3.313H1.75zm0 0"/></symbol><symbol overflow="visible" id="r"><path d="M1.813-3.625H4c1.266 0 2.094-1 2.094-2.531 0-1.453-.828-2.422-2.094-2.422H.844V0h.969zm0-3.969h1.906c.937 0 1.39.485 1.39 1.469 0 1.016-.468 1.516-1.421 1.516H1.812zm0 0"/></symbol><symbol overflow="visible" id="s"><path d="M7.453 0v-8.578H6.11L4.094-1.297 2.078-8.578H.718V0h.923v-5.063c0-.093 0-.28-.016-.562 0-.234 0-.875-.016-1.64L3.625 0h.922l2.016-7.281c-.016.828-.016 1.39-.032 1.672V0zm0 0"/></symbol><symbol overflow="visible" id="p"><path d="M3.938 2.531L1.5-3l2.438-5.516h-.61L.641-3l2.687 5.531zm0 0"/></symbol><symbol overflow="visible" id="t"><path d="M3.938-3L1.233-8.516H.641L3.078-3 .641 2.531h.593zm0 0"/></symbol><symbol overflow="visible" id="w"><path d="M3.172-2.5h3.672l.64 2.5H9.75L6.234-12.156H3.828L.266 0h2.203zm1.844-6.969l1.25 4.875H3.719zm0 0"/></symbol><symbol overflow="visible" id="x"><path d="M4.656-2.875L2.5-12.156H.266L3.625 0h1.984L9-12.156H6.828zm0 0"/></symbol><symbol overflow="visible" id="y"><path d="M5.25-2.656c-.188.64-.625.984-1.281.984-1.063 0-1.578-.672-1.703-2.172h5.062v-.422c0-3.203-1.25-4.984-3.5-4.984-2.187 0-3.5 1.766-3.5 4.703C.328-1.484 1.625.234 3.922.234c.844 0 1.531-.234 2.094-.718.625-.532.906-1.063 1.234-2.172zm-2.922-2.75c.156-1.297.625-1.89 1.485-1.89.874 0 1.39.624 1.515 1.89zm0 0"/></symbol><symbol overflow="visible" id="z"><path d="M.875 0h1.938v-4.688c0-1.453.609-2.156 1.874-2.156.188 0 .36.016.5.032V-9.22c-.218-.031-.312-.031-.39-.031-.953 0-1.484.469-2.047 1.844v-1.61H.875zm0 0"/></symbol><symbol overflow="visible" id="A"><path d="M7.484-9.016H5.422L3.89-2.296l-1.594-6.72H.14L2.859.375c-.187 1.094-.421 1.36-1.25 1.36-.14 0-.265-.032-.406-.048v1.907c.453.015.734.031.938.031.859 0 1.312-.172 1.656-.625.297-.406.578-1.14 1.156-3.156zm0 0"/></symbol><symbol overflow="visible" id="B"><path d="M3.14-12.156H1.048V0h7.047v-2.203H3.14zm0 0"/></symbol><symbol overflow="visible" id="C"><path d="M4.297-9.25C1.953-9.25.469-7.406.469-4.484c0 2.859 1.5 4.718 3.781 4.718s3.781-1.859 3.781-4.718c0-2.86-1.469-4.766-3.734-4.766zm-.031 2c1.14 0 1.765.984 1.765 2.75S5.406-1.766 4.25-1.766 2.469-2.734 2.469-4.5c0-1.797.625-2.75 1.797-2.75zm0 0"/></symbol><symbol overflow="visible" id="D"><path d="M2.766-9.016H.89V0h1.937v-5.172c0-1.281.61-2.078 1.578-2.078.875 0 1.25.531 1.25 1.781V0h1.938v-6.234c0-1.844-1-3.016-2.563-3.016-1.047 0-1.75.5-2.265 1.61zm0 0"/></symbol><symbol overflow="visible" id="E"><path d="M5.813-9.016v1.391C5.296-8.781 4.655-9.25 3.64-9.25 1.78-9.25.562-7.406.562-4.594c0 2.86 1.22 4.64 3.157 4.64.984 0 1.5-.358 2-1.405v1.171c0 1.438-.469 2.047-1.61 2.047-.53 0-.937-.156-1.109-.421-.094-.11-.125-.22-.172-.47H.718c.11.86.25 1.235.641 1.673.594.671 1.516 1.03 2.704 1.03 1.234 0 2.25-.39 2.843-1.108.532-.657.766-1.563.766-3.032v-8.547zM4.109-7.187c.97 0 1.625 1.093 1.625 2.671 0 1.625-.578 2.563-1.625 2.563-.968 0-1.546-.953-1.546-2.563 0-1.656.593-2.671 1.546-2.671zm0 0"/></symbol><symbol overflow="visible" id="F"><path d="M2.5-6.094c.125-.922.469-1.25 1.297-1.25.797 0 1.203.328 1.203 1.016 0 .422-.203.656-.688.734l-1.734.328c-1.39.25-2.172 1.282-2.172 2.86 0 1.625.875 2.64 2.297 2.64.953 0 1.578-.343 2.344-1.296.047.484.062.625.187 1.062h2.079v-.36C7-.53 6.89-.874 6.89-1.765V-6.64c0-1.64-1.094-2.609-3.016-2.609-1.266 0-2.125.375-2.656 1.156-.328.516-.469 1-.578 2zM5-3.234c0 .984-.766 1.78-1.719 1.78-.578 0-.922-.421-.922-1.109 0-.78.344-1.124 1.313-1.328.781-.156 1.078-.265 1.328-.5zm0 0"/></symbol><symbol overflow="visible" id="G"><path d="M7.656-12.156H5.72v4.36C5.125-8.845 4.516-9.25 3.579-9.25c-1.876 0-3.11 1.844-3.11 4.64C.469-1.655 1.688.235 3.594.235c1 0 1.687-.453 2.172-1.421V0h1.89zM4.172-7.187c1.031 0 1.625 1.015 1.625 2.78 0 1.72-.61 2.704-1.703 2.704-1 0-1.625-1.078-1.625-2.766 0-1.718.625-2.718 1.703-2.718zm0 0"/></symbol><symbol overflow="visible" id="H"><path d="M2.969-12.156H.875V0h2.094zm0 0"/></symbol><symbol overflow="visible" id="I"><path d="M2.75-9.016H.875V0h1.938v-5.484c0-1.172.406-1.766 1.234-1.766.844 0 1.156.469 1.156 1.828V0h1.922v-5.406c0-1.188.469-1.844 1.313-1.844.718 0 1.093.61 1.093 1.781V0h1.938v-6.234c0-1.797-1-3.016-2.485-3.016-.921 0-1.5.39-2.078 1.438-.593-1.094-1.062-1.438-2-1.438-1.047 0-1.703.5-2.156 1.61zm0 0"/></symbol><symbol overflow="visible" id="J"><path d="M2.734-9.016H.86V3.5h1.938v-4.703C3.297-.172 3.89.234 4.89.234c1.921 0 3.14-1.875 3.14-4.843 0-2.797-1.234-4.641-3.125-4.641-1 0-1.625.453-2.172 1.594zm1.641 1.829c1.031 0 1.656 1.015 1.656 2.703 0 1.687-.625 2.78-1.625 2.78-1.093 0-1.672-.968-1.672-2.702 0-1.828.547-2.782 1.641-2.782zm0 0"/></symbol><symbol overflow="visible" id="K"><path d="M7-6.266c-.156-1.25-.406-1.828-1.016-2.328-.53-.422-1.312-.656-2.218-.656-1.235 0-2.125.422-2.625 1.297C.844-7.47.687-6.875.687-6.25c0 1.5.922 2.36 2.97 2.75 1.109.219 1.609.516 1.609 1 0 .563-.485.922-1.266.922-1.047 0-1.547-.406-1.578-1.297h-2c.125 1.234.36 1.797 1 2.313.61.515 1.516.796 2.5.796 2.047 0 3.297-1.156 3.297-3.046 0-.532-.125-1-.344-1.376-.39-.625-1.406-1.171-2.688-1.421-1.125-.204-1.593-.5-1.593-.985 0-.547.406-.843 1.172-.843.843 0 1.187.296 1.312 1.171zm0 0"/></symbol><symbol overflow="visible" id="L"><path d="M.969-9.016V0H2.89v-9.016zM2.89-12.28H.969v2.203H2.89zm0 0"/></symbol><symbol overflow="visible" id="M"><path d="M7.531-9.016H5.47l-1.58 6.72-1.532-6.72H.188L2.828 0h2.047zm0 0"/></symbol><symbol overflow="visible" id="N"><path d="M5.281-10.016h3.016v-2.14H.187v2.14h3.016V0h2.078zm0 0"/></symbol><symbol overflow="visible" id="O"><path d="M2.828-12.156H.891V0h1.937v-5.172c0-1.281.61-2.078 1.578-2.078.875 0 1.25.531 1.25 1.781V0h1.938v-6.234c0-1.829-1-3.016-2.547-3.016-1.047 0-1.828.516-2.219 1.469zm0 0"/></symbol><symbol overflow="visible" id="P"><path d="M3.063-11.453H1.14v2.437h-1v1.704h1v5.468C1.14-.422 1.67.11 3.094.11h.265c.22 0 .266 0 .922-.046v-1.797c-.218.046-.297.046-.422.046-.671 0-.796-.109-.796-.734v-4.89H4.28v-1.704H3.063zm0 0"/></symbol><symbol overflow="visible" id="Q"><path d="M2.89-12.156H.97V0h1.92zm0 0"/></symbol><symbol overflow="visible" id="R"><path d="M10.688-9.016h-2L7.516-2.453 6.39-9.016H4.437L3.375-2.453 2.203-9.016H.141L2.219 0h2L5.39-6.656 6.562 0h1.985zm0 0"/></symbol><symbol overflow="visible" id="S"><path d="M3.14-5.11h4.376v-2.156H3.14v-2.75h5v-2.14H1.047V0H3.14zm0 0"/></symbol><symbol overflow="visible" id="T"><path d="M5.297-3.281c-.078.937-.61 1.578-1.344 1.578-.984 0-1.484-.938-1.484-2.781 0-1.813.547-2.766 1.594-2.766.703 0 1.062.438 1.25 1.453H7.28c-.078-.89-.203-1.328-.484-1.86C6.234-8.671 5.203-9.25 3.984-9.25 1.781-9.25.47-7.437.47-4.39.469-1.423 1.688.233 3.875.233 5.797.234 6.985-1 7.265-3.28zm0 0"/></symbol><symbol overflow="visible" id="U"><path d="M1.047 0h4.219C7 0 7.734-.25 8.437-1.078c.579-.703.86-1.578.86-2.578 0-.656-.14-1.297-.375-1.766-.266-.516-.531-.797-1.172-1.14C8.625-7.079 8.984-7.798 8.984-9c0-1.953-1.171-3.156-3.093-3.156H1.047zm2-5.328h2.656c.953 0 1.516.547 1.516 1.516 0 1.124-.563 1.734-1.61 1.734H3.047zm0-4.75h2.39c1.063 0 1.547.406 1.547 1.281 0 .906-.546 1.39-1.5 1.39H3.047zm0 0"/></symbol><symbol overflow="visible" id="V"><path d="M2.89-2.844l.813-1.015L5.47 0h2.343L5.11-5.516l2.61-3.5H5.33L2.89-5.594v-6.562H.969V0H2.89zm0 0"/></symbol><symbol overflow="visible" id="W"><path d="M.203-3.219v.985c0 1.515.906 2.5 2.313 2.5C4.03.266 4.89-.813 4.89-2.704v-7.312H3.78v7.391c0 1.156-.422 1.734-1.281 1.734-.875 0-1.266-.515-1.266-1.64v-.688zm0 0"/></symbol><symbol overflow="visible" id="X"><path d="M3.219-7.5C1.53-7.5.406-5.953.406-3.656c0 2.281 1.14 3.86 2.781 3.86 1.641 0 2.766-1.579 2.766-3.86 0-2.25-1.125-3.844-2.734-3.844zm-.016 1.063c1.031 0 1.703 1.109 1.703 2.78 0 1.688-.672 2.782-1.718 2.782-1.047 0-1.735-1.094-1.735-2.781 0-1.703.672-2.781 1.75-2.781zm0 0"/></symbol><symbol overflow="visible" id="Y"><path d="M1.75-10.016H.734V0H1.75v-3.984c0-1.547.61-2.438 1.703-2.438.813 0 1.172.484 1.172 1.656V0h1v-4.969c0-1.61-.75-2.531-2.031-2.531-.797 0-1.266.297-1.844 1.203zm0 0"/></symbol><symbol overflow="visible" id="Z"><path d="M1.688-7.297H.734V0H1.75v-3.984c0-1.516.625-2.438 1.64-2.438.844 0 1.235.594 1.235 1.922V0h1v-4.969c0-1.61-.75-2.531-2.031-2.531-.813 0-1.39.375-1.906 1.281zm0 0"/></symbol><symbol overflow="visible" id="aa"><path d="M3.828-1.438l-2.36-8.578H.219L3.219 0h1.188l3-10.016h-1.25zm0 0"/></symbol><symbol overflow="visible" id="ab"><path d="M4.813-2.281A1.59 1.59 0 013.234-.86c-.578 0-1.062-.266-1.343-.766-.25-.406-.329-.797-.36-1.625h4.375c-.047-1.438-.172-2.125-.515-2.844C4.92-7.062 4.25-7.5 3.297-7.5 1.562-7.5.453-5.953.453-3.516c0 2.297 1.047 3.72 2.75 3.72 1.39 0 2.344-.923 2.61-2.485zM1.53-4.234c.063-1.313.75-2.188 1.719-2.188.516 0 .953.25 1.234.703.22.375.313.735.375 1.485zm0 0"/></symbol><symbol overflow="visible" id="ac"><path d="M3.797-6.203V-7.47c-.094-.03-.172-.03-.267-.03-.703 0-1.172.39-1.703 1.438v-1.235H.875V0h1.016v-4.25c0-1.14.64-1.953 1.53-1.953zm0 0"/></symbol><symbol overflow="visible" id="ad"><path d="M2.86-1.313L1.25-7.296H.125l2.219 7.5c-.11.328-.203.64-.25.75-.219.735-.39.938-.813.938-.203 0-.422-.047-.61-.125v1.109l.079.031c.188.063.266.078.406.078 1.203 0 1.39-.234 2.282-3.125.874-2.796.874-2.796 2.156-7.156h-1.11zm0 0"/></symbol><symbol overflow="visible" id="ae"><path d="M1.984-10.016H.86V0h5.282v-1.219H1.984zm0 0"/></symbol><symbol overflow="visible" id="af"><path d="M5.703-7.297h-.937v1.078C4.219-7.172 3.734-7.5 2.937-7.5 1.454-7.5.454-6.031.454-3.828.453-1.391 1.5.203 3.063.203c.75 0 1.25-.297 1.64-1.016v.297c0 .891-.078 1.36-.266 1.75-.265.547-.734.813-1.453.813-.765 0-1.156-.328-1.343-1.156h-1c.156.937.343 1.359.828 1.734.39.297.89.438 1.468.438 1.047 0 1.829-.391 2.282-1.172.343-.594.484-1.313.484-2.485zm-2.562.875c1.03 0 1.609 1.047 1.609 2.969 0 1.61-.625 2.594-1.656 2.594-1 0-1.594-1.063-1.594-2.891 0-1.797.547-2.672 1.64-2.672zm0 0"/></symbol><symbol overflow="visible" id="ag"><path d="M1.625-5.078c.14-1.016.531-1.406 1.422-1.406.906 0 1.375.421 1.375 1.203 0 .531-.156.781-.531.843l-1.657.25C1.078-4 .422-3.188.422-1.921c0 1.281.75 2.125 1.906 2.125.86 0 1.469-.344 2.125-1.187C4.516-.188 4.797.14 5.484.14c.157 0 .266-.032.454-.094.078-.031.093-.031.125-.047v-.89c-.204.046-.266.046-.344.046-.203 0-.313-.14-.313-.422V-5.47c0-1.265-.875-2.031-2.297-2.031-.937 0-1.64.328-2.03.953-.235.39-.329.75-.36 1.469zm2.766 2.547c0 .922-.844 1.719-1.844 1.719-.688 0-1.078-.438-1.078-1.22 0-.734.36-1.077 1.281-1.234 1.14-.187 1.438-.265 1.64-.453zm0 0"/></symbol><symbol overflow="visible" id="ah"><path d="M.734 0H1.75v-3.984c0-1.47.625-2.438 1.578-2.438.594 0 .938.5.938 1.375V0H5.28v-4.453c0-1.094.625-1.969 1.438-1.969.734 0 1.078.563 1.078 1.703V0h1v-5.047c0-1.531-.719-2.453-1.875-2.453-.734 0-1.125.25-1.797 1.172C4.75-7.172 4.281-7.5 3.547-7.5c-.797 0-1.344.375-1.86 1.281v-1.078H.735zm0 0"/></symbol><symbol overflow="visible" id="ai"><path d="M.922 0h3.297c.937 0 1.765-.375 2.328-1.078.75-.953 1.172-2.375 1.172-4.047 0-2.969-1.36-4.89-3.469-4.89H.922zm1.11-8.86h2.077c1.579 0 2.47 1.36 2.47 3.844 0 2.391-.907 3.86-2.391 3.86H2.03zm0 0"/></symbol><symbol overflow="visible" id="ak"><path d="M8.703 0v-10.016H7.125L4.781-1.5l-2.36-8.516H.845V0h1.062v-5.922c0-.11 0-.312-.015-.64v-1.922L4.234 0h1.079l2.343-8.5c-.015.969-.015 1.625-.031 1.953V0zm0 0"/></symbol><symbol overflow="visible" id="al"><path d="M6.86-7.094c-.063-.89-.157-1.312-.407-1.797-.5-.89-1.437-1.39-2.687-1.39-.985 0-1.75.312-2.25.937-.422.547-.672 1.313-.672 2.11 0 1.28.578 2.078 1.734 2.406l1.688.469c1.359.39 1.75.765 1.75 1.734 0 1.11-.782 1.734-2.11 1.734-.922 0-1.61-.343-1.984-.984-.219-.375-.297-.703-.313-1.36H.563c.015 1.079.156 1.641.593 2.25.625.876 1.438 1.25 2.688 1.25 2.015 0 3.25-1.14 3.25-3.015 0-1.422-.64-2.36-1.875-2.688l-2.344-.656c-.656-.187-.969-.593-.969-1.297 0-1.093.688-1.734 1.86-1.734.765 0 1.39.313 1.734.844.188.344.281.64.313 1.187zm0 0"/></symbol><symbol overflow="visible" id="am"><path d="M5.453-4.844C5.281-6.625 4.516-7.5 3.187-7.5 1.454-7.5.345-5.953.345-3.516.344-1.234 1.39.204 3.03.204c1.36 0 2.188-.923 2.422-2.782h-.969C4.266-1.438 3.781-.86 3.016-.86c-1.016 0-1.594-1-1.594-2.75 0-1.782.61-2.813 1.656-2.813.797 0 1.235.484 1.406 1.578zm0 0"/></symbol><symbol overflow="visible" id="an"><path d="M2.11-4.234h2.562c1.484 0 2.437-1.172 2.437-2.954 0-1.703-.968-2.828-2.437-2.828H.984V0H2.11zm0-4.625h2.234c1.093 0 1.625.562 1.625 1.718 0 1.172-.563 1.75-1.672 1.75H2.109zm0 0"/></symbol><symbol overflow="visible" id="ao"><path d="M6.328-1.89l-4.156-8.126H.859V0h1.079v-8.14L6.155 0H7.39v-10.016H6.328zm0 0"/></symbol><symbol overflow="visible" id="aq"><path d="M.672 2.89h1V-.812c.406.72.89 1.016 1.64 1.016 1.579 0 2.61-1.594 2.61-4.031 0-2.203-1-3.672-2.469-3.672-.812 0-1.297.328-1.828 1.281v-1.078H.672zm2.61-9.312c1.03 0 1.593.922 1.593 2.64 0 1.845-.594 2.923-1.61 2.923-1 0-1.64-.97-1.64-2.563 0-1.984.563-3 1.656-3zm0 0"/></symbol><symbol overflow="visible" id="ar"><path d="M1.766-7.297h-1V0h1zm0-1.328v-1.39h-1v1.39zm0 0"/></symbol><symbol overflow="visible" id="as"><path d="M1.766-10.016h-1V0h1zm0 0"/></symbol><symbol overflow="visible" id="at"><path d="M2.938-6.281v-1.016h-.97v-2.031h-1v2.031H.157v1.016H.97v4.812C.969-.406 1.344.094 2.14.094c.062 0 .125 0 .343-.032.079-.015.22-.03.454-.062v-.969h-.36c-.437 0-.61-.156-.61-.562v-4.75zm0 0"/></symbol><symbol overflow="visible" id="aj"><path d="M4.594 2.953L1.75-3.5l2.844-6.453H3.89L.734-3.5l3.157 6.453zm0 0"/></symbol><symbol overflow="visible" id="ap"><path d="M4.594-3.5L1.437-9.953H.735L3.594-3.5.734 2.953h.704zm0 0"/></symbol><symbol overflow="visible" id="au"><path d="M.89 0h2.797c1.829 0 2.97-1.375 2.97-3.64 0-2.25-1.126-3.626-2.97-3.626H.892zm.922-.813v-5.64h1.72c1.437 0 2.187.969 2.187 2.828 0 1.828-.75 2.813-2.188 2.813zm0 0"/></symbol><symbol overflow="visible" id="av"><path d="M1.5-5.219H.672V0H1.5zm0-2.047H.656v1.047H1.5zm0 0"/></symbol><symbol overflow="visible" id="aw"><path d="M4.36-3.766c0-1.03-.688-1.609-1.891-1.609-1.219 0-2 .625-2 1.594 0 .828.422 1.203 1.656 1.515l.781.188c.578.14.797.344.797.719 0 .484-.484.828-1.203.828-.453 0-.828-.14-1.047-.36-.125-.14-.187-.296-.234-.671H.344C.375-.345 1.063.234 2.422.234c1.312 0 2.156-.656 2.156-1.656 0-.781-.437-1.203-1.484-1.453l-.797-.203c-.672-.156-.969-.375-.969-.735 0-.484.438-.796 1.11-.796.671 0 1.03.296 1.046.843zm0 0"/></symbol><symbol overflow="visible" id="ax"><path d="M5.11-2.328c0-.797-.063-1.281-.204-1.672-.343-.86-1.14-1.375-2.11-1.375-1.468 0-2.39 1.125-2.39 2.828 0 1.719.906 2.781 2.36 2.781C3.969.234 4.796-.453 5-1.578h-.828c-.234.687-.703 1.047-1.375 1.047a1.44 1.44 0 01-1.25-.688c-.203-.297-.266-.593-.281-1.11zm-3.83-.688c.078-.968.657-1.593 1.5-1.593.813 0 1.453.687 1.453 1.53 0 .032 0 .048-.015.063zm0 0"/></symbol><symbol overflow="visible" id="ay"><path d="M.688-5.219V0h.843v-2.719c0-.734.188-1.234.578-1.515.266-.188.516-.25 1.094-.266v-.844c-.14-.015-.219-.031-.328-.031-.531 0-.938.328-1.422 1.094v-.938zm0 0"/></symbol><symbol overflow="visible" id="az"><path d="M2.531-5.219h-.86v-1.437H.845v1.437H.14v.672h.703v3.953c0 .531.36.828 1.015.828.188 0 .391-.03.672-.078V-.53c-.11.015-.234.031-.39.031-.36 0-.47-.094-.47-.469v-3.578h.86zm0 0"/></symbol><symbol overflow="visible" id="aA"><path d="M5.328-.484c-.078.015-.125.015-.172.015-.297 0-.453-.156-.453-.406v-3.078c0-.922-.672-1.422-1.969-1.422-.75 0-1.375.219-1.734.61-.234.265-.328.562-.36 1.093h.844c.079-.64.454-.937 1.235-.937.734 0 1.156.28 1.156.78v.22c0 .343-.203.5-.86.578-1.187.156-1.359.187-1.687.312-.594.25-.906.719-.906 1.406 0 .938.656 1.547 1.719 1.547.656 0 1.171-.234 1.765-.765.063.515.328.765.86.765.171 0 .296-.03.562-.093zM3.875-1.641c0 .282-.078.438-.328.672-.344.313-.75.469-1.235.469-.64 0-1.03-.313-1.03-.828 0-.563.374-.828 1.265-.969.875-.11 1.047-.156 1.328-.281zm0 0"/></symbol><symbol overflow="visible" id="aB"><path d="M2.719-5.375c-1.469 0-2.36 1.047-2.36 2.797C.36-.813 1.234.234 2.72.234c1.469 0 2.36-1.046 2.36-2.765 0-1.813-.86-2.844-2.36-2.844zm0 .766c.937 0 1.5.765 1.5 2.062 0 1.235-.578 2.016-1.5 2.016s-1.5-.781-1.5-2.047c0-1.25.578-2.031 1.5-2.031zm0 0"/></symbol><symbol overflow="visible" id="aC"><path d="M.703-5.219V0h.828v-2.875c0-1.078.563-1.766 1.422-1.766.656 0 1.078.391 1.078 1.016V0h.828v-3.953c0-.86-.656-1.422-1.656-1.422-.781 0-1.281.297-1.734 1.031v-.875zm0 0"/></symbol><symbol overflow="visible" id="aD"><path d="M4.813 0v-5.219h-.829v2.953C3.984-1.203 3.422-.5 2.547-.5c-.656 0-1.078-.39-1.078-1.031V-5.22H.64v4.016c0 .875.656 1.437 1.671 1.437.766 0 1.25-.28 1.75-.968V0zm0 0"/></symbol><symbol overflow="visible" id="aE"><path d="M.531 2.172h.844V-.547c.438.531.922.781 1.61.781 1.343 0 2.234-1.093 2.234-2.75 0-1.765-.86-2.859-2.25-2.859-.703 0-1.281.328-1.656.938v-.782H.53zm2.297-6.766c.922 0 1.516.813 1.516 2.047 0 1.188-.61 2-1.516 2-.875 0-1.453-.797-1.453-2.031 0-1.219.578-2.016 1.453-2.016zm0 0"/></symbol><symbol overflow="visible" id="aF"><path d="M2.844 0l2-5.219h-.938L2.437-.984 1.032-5.22H.094L1.937 0zm0 0"/></symbol><symbol overflow="visible" id="aG"><path d="M4.938-7.266h-.829v2.704c-.343-.532-.906-.813-1.609-.813-1.36 0-2.234 1.094-2.234 2.75 0 1.766.859 2.86 2.265 2.86.719 0 1.219-.282 1.672-.922V0h.734zM2.64-4.594c.89 0 1.468.797 1.468 2.047 0 1.203-.578 2-1.453 2-.922 0-1.531-.812-1.531-2.031 0-1.203.61-2.016 1.516-2.016zm0 0"/></symbol><symbol overflow="visible" id="aH"><path d="M.531-7.266V0h.75v-.672c.407.61.938.906 1.657.906 1.374 0 2.28-1.125 2.28-2.859 0-1.703-.859-2.75-2.234-2.75-.718 0-1.234.266-1.625.86v-2.75zm2.297 2.672c.922 0 1.516.813 1.516 2.047 0 1.188-.61 2-1.516 2-.89 0-1.469-.797-1.469-2.031 0-1.219.579-2.016 1.47-2.016zm0 0"/></symbol><symbol overflow="visible" id="aI"><path d="M3.875-5.219L2.422-1.156 1.094-5.22h-.89L1.968.016 1.64.844c-.125.375-.313.515-.657.515-.125 0-.265-.03-.453-.062v.75c.172.094.344.125.563.125.265 0 .562-.094.781-.25.266-.188.406-.406.563-.828L4.765-5.22zm0 0"/></symbol><symbol overflow="visible" id="aJ"><path d="M2.14-1.031H1.095V0H2.14zm0-4.188H1.095v1.032H2.14zm0 0"/></symbol><symbol overflow="visible" id="aK"><path d="M4.672 0l2.031-6.094V0h.89v-7.266H6.298L4.187-.937 2.031-7.266H.75V0h.875v-6.094L3.688 0zm0 0"/></symbol><symbol overflow="visible" id="aL"><path d="M4.719-2.188L5.469 0h1.047L3.953-7.266H2.766L.172 0h.984l.766-2.188zm-.25-.765H2.156l1.188-3.313zm0 0"/></symbol><symbol overflow="visible" id="aM"><path d="M6.438-7.266h-.875v5.938L1.765-7.266H.75V0h.89v-5.89L5.39 0h1.048zm0 0"/></symbol><symbol overflow="visible" id="aN"><path d="M.703-5.219V0h.828v-3.281c0-.75.547-1.36 1.235-1.36.609 0 .968.375.968 1.047V0h.829v-3.281c0-.75.546-1.36 1.234-1.36.61 0 .969.391.969 1.047V0h.828v-3.922c0-.937-.532-1.453-1.516-1.453-.687 0-1.11.219-1.61.797-.296-.563-.718-.797-1.39-.797-.703 0-1.172.266-1.61.89v-.734zm0 0"/></symbol><symbol overflow="visible" id="aP"><path d="M3.313-7.266v5.11c0 .578-.047.906-.22 1.156a1.054 1.054 0 01-.89.453c-.703 0-1.094-.469-1.094-1.312v-.47H.172v.642C.172-.516.953.234 2.187.234c1.266 0 2.063-.796 2.063-2.046v-5.454zm0 0"/></symbol><symbol overflow="visible" id="aQ"><path d="M.703-7.266V0h.828v-2.875c0-1.078.547-1.766 1.407-1.766.265 0 .546.079.734.235.25.172.344.422.344.781V0h.828v-3.953c0-.875-.625-1.422-1.64-1.422-.735 0-1.188.234-1.673.875v-2.766zm0 0"/></symbol><symbol overflow="visible" id="aR"><path d="M6.594-5.016C6.312-6.609 5.39-7.39 3.797-7.39c-.969 0-1.766.313-2.297.907C.844-5.766.484-4.72.484-3.547c0 1.188.36 2.219 1.047 2.922.563.578 1.282.86 2.235.86 1.765 0 2.765-.97 2.984-2.891h-.953c-.078.5-.188.844-.328 1.125-.313.61-.922.937-1.703.937-1.438 0-2.36-1.156-2.36-2.969 0-1.859.875-3 2.282-3 .593 0 1.14.172 1.437.454.266.25.422.562.531 1.093zm0 0"/></symbol><symbol overflow="visible" id="aS"><path d="M2.828-3.11H.453v.72h2.375zm0 0"/></symbol><symbol overflow="visible" id="aO"><path d="M2.063-.719c0-.265-.282-.594-.547-.594-.172 0-.516.22-.422.422C1.469-.156.562.984.312 1.25l.126.156C1.14 1.141 2.063.016 2.063-.719zm0 0"/></symbol><symbol overflow="visible" id="aT"><path d="M4.5-.172l-.047-.25c-.422.094-.687-.016-.687-.516v-2.03c0-.97-.313-1.595-1.375-1.595-.891 0-1.516.47-1.797 1.22l.344.187c.343-.453.53-.922.968-.938.86-.015 1.11.516 1.078 1.297l-1.296.438c-.72.234-1.344.468-1.344 1.296 0 .72.531 1.188 1.234 1.188.547 0 1.406-.797 1.406-.797s-.03.735.25.735c.735-.157.5-.11 1.266-.235zm-1.516-.86c-.218.266-.718.595-1.078.595-.422 0-.703-.391-.703-.782-.031-.718 1.781-1.265 1.781-1.265zm0 0"/></symbol><symbol overflow="visible" id="aU"><path d="M5.469.016V-.25c-.657-.063-.703-.016-.703-.703v-2.078c0-.953-.485-1.531-1.47-1.531-.64 0-1.124.343-1.53.812v-.766l-.047-.062c-1 .297-.719.219-1.516.406v.234c.672.063.75-.046.75.704v2.28c0 .72-.11.641-.781.704v.266a28.92 28.92 0 012.328 0V-.25c-.656-.063-.734.016-.734-.703v-2.328c.171-.406.75-.703 1.171-.703.72 0 1.016.515 1.016 1.171v1.782c0 .25-.015.797-.36.828v.219c.626-.032 1.25-.032 1.876 0zm0 0"/></symbol><symbol overflow="visible" id="aV"><path d="M5.469-.11v-.265S4.687-.141 4.687-1v-6.063l-.046-.093c-.875.234-.594.156-1.547.36v.234s.781-.235.781.53v1.673S3.297-4.563 3-4.563C1.64-4.563.375-3.484.375-2.078c0 1.234.781 2.203 2.063 2.203C3.593.109 3.89-.688 3.89-.688l-.016.782c.953-.157.672-.11 1.594-.203zM3.875-1.5c0 .563-.672 1.047-1.188 1.047-1 0-1.437-1.063-1.437-1.922 0-.89.39-1.766 1.406-1.766.219 0 1.219.25 1.219.563zm0 0"/></symbol><symbol overflow="visible" id="aW"><path d="M5.406-7.313L3.391-1.625 1.516-7.313H.28L2.75.032l-.453 1.157c-.172.515-.438.703-.922.703-.172 0-.375-.016-.625-.079V2.86c.234.125.484.188.781.188a1.87 1.87 0 001.094-.36c.36-.265.563-.562.797-1.156l3.25-8.844zm0 0"/></symbol><symbol overflow="visible" id="aX"><path d="M7.156-3.266c0-1.109-.078-1.78-.297-2.328-.468-1.203-1.578-1.922-2.953-1.922-2.031 0-3.344 1.563-3.344 3.954 0 2.406 1.266 3.89 3.313 3.89C5.547.328 6.719-.625 7-2.219H5.828C5.516-1.25 4.86-.75 3.922-.75a2.05 2.05 0 01-1.766-.953c-.265-.422-.375-.844-.39-1.563zm-5.36-.953c.095-1.343.923-2.234 2.095-2.234 1.14 0 2.03.953 2.03 2.156 0 .031 0 .063-.015.078zm0 0"/></symbol><symbol overflow="visible" id="aY"><path d="M7.469-.688c-.125.032-.188.032-.25.032-.407 0-.64-.203-.64-.578v-4.297c0-1.297-.938-1.985-2.735-1.985-1.063 0-1.953.297-2.438.844-.328.375-.468.797-.5 1.516h1.172c.094-.89.625-1.297 1.719-1.297 1.047 0 1.625.39 1.625 1.094v.312c0 .484-.281.688-1.203.813-1.657.203-1.907.25-2.344.437-.86.344-1.281 1-1.281 1.953C.594-.516 1.5.328 2.984.328 3.906.328 4.641 0 5.47-.75c.078.734.453 1.078 1.203 1.078.234 0 .422-.031.797-.125zM5.422-2.296c0 .39-.11.625-.453.938-.469.437-1.047.656-1.735.656-.906 0-1.437-.422-1.437-1.172 0-.766.516-1.156 1.766-1.328 1.218-.172 1.468-.235 1.859-.406zm0 0"/></symbol><symbol overflow="visible" id="aZ"><path d="M.969-7.313V0H2.14v-3.797c0-1.047.265-1.734.812-2.14.375-.25.719-.344 1.531-.36v-1.187c-.203-.016-.296-.032-.453-.032-.75 0-1.328.438-2 1.532v-1.329zm0 0"/></symbol><clipPath id="u"><path d="M293 136h104.055v20H293zm0 0"/></clipPath><clipPath id="v"><path d="M198.625 117.418H280v80.613h-81.375zm0 0"/></clipPath></defs><use xlink:href="#a" x="240.907" y="40.174"/><use xlink:href="#b" x="247.984" y="40.174"/><use xlink:href="#c" x="255.062" y="40.174"/><use xlink:href="#d" x="257.788" y="40.174"/><use xlink:href="#e" x="264.327" y="40.174"/><use xlink:href="#f" x="270.867" y="40.174"/><use xlink:href="#g" x="277.944" y="40.174"/><use xlink:href="#c" x="284.484" y="40.174"/><use xlink:href="#h" x="287.209" y="40.174"/><use xlink:href="#i" x="293.199" y="40.174"/><use xlink:href="#j" x="302.464" y="40.174"/><use xlink:href="#k" x="310.092" y="40.174"/><use xlink:href="#l" x="318.807" y="40.174"/><use xlink:href="#c" x="324.259" y="40.174"/><use xlink:href="#g" x="326.984" y="40.174"/><use xlink:href="#m" x="333.524" y="40.174"/><use xlink:href="#j" x="340.063" y="40.174"/><use xlink:href="#b" x="347.691" y="40.174"/><use xlink:href="#k" x="241.977" y="60.345"/><use xlink:href="#n" x="247.189" y="60.345"/><use xlink:href="#o" x="253.442" y="60.345"/><use xlink:href="#a" x="260.52" y="60.345"/><use xlink:href="#l" x="267.597" y="60.345"/><use xlink:href="#h" x="271.985" y="60.345"/><use xlink:href="#i" x="277.974" y="60.345"/><use xlink:href="#j" x="287.239" y="60.345"/><use xlink:href="#k" x="294.867" y="60.345"/><use xlink:href="#g" x="303.582" y="60.345"/><use xlink:href="#o" x="310.122" y="60.345"/><use xlink:href="#c" x="317.199" y="60.345"/><use xlink:href="#e" x="319.925" y="60.345"/><use xlink:href="#b" x="326.464" y="60.345"/><use xlink:href="#o" x="333.542" y="60.345"/><use xlink:href="#e" x="340.619" y="60.345"/><use xlink:href="#g" x="347.159" y="60.345"/><use xlink:href="#p" x="244.703" y="80.516"/><use xlink:href="#q" x="249.27" y="80.516"/><use xlink:href="#e" x="256.347" y="80.516"/><use xlink:href="#r" x="262.887" y="80.516"/><use xlink:href="#n" x="268.267" y="80.516"/><use xlink:href="#f" x="274.806" y="80.516"/><use xlink:href="#h" x="281.597" y="80.516"/><use xlink:href="#s" x="287.586" y="80.516"/><use xlink:href="#e" x="295.752" y="80.516"/><use xlink:href="#b" x="302.291" y="80.516"/><use xlink:href="#h" x="309.369" y="80.516"/><use xlink:href="#b" x="318.084" y="80.516"/><use xlink:href="#n" x="325.162" y="80.516"/><use xlink:href="#s" x="331.701" y="80.516"/><use xlink:href="#e" x="339.867" y="80.516"/><use xlink:href="#t" x="346.404" y="80.516"/><path d="M301.98 175.57c-1.91 0-3.578-1.398-3.578-3.55v-10.88h-2.609v10.88c0 3.648 2.848 6.015 6.187 6.015 3.313 0 6.16-2.367 6.16-6.015v-10.88h-2.581v10.88c0 2.152-1.668 3.55-3.579 3.55m10.829 2.223h9.234v-2.344h-6.676v-14.308h-2.558zm14.695 0h-2.461v-11.285h2.46zm-2.899-15.856c0 .895.774 1.567 1.668 1.567.918 0 1.641-.672 1.641-1.566 0-.895-.723-1.57-1.64-1.57-.895 0-1.669.675-1.669 1.57m9.38 10.972l1.523.363c.824.196 1.57.606 1.57 1.329 0 .847-.871 1.359-2.008 1.359-1.3-.004-2.101-.656-2.218-1.625h-2.297c.047 2.371 2.222 3.7 4.324 3.7 2.586 0 4.492-1.231 4.492-3.407 0-1.137-.504-2.688-2.945-3.29l-1.742-.437c-.602-.168-1.23-.433-1.375-.867a1.152 1.152 0 01.097-1.015c.239-.387.965-.63 1.594-.63.773 0 1.55.364 1.645 1.208h2.367c-.145-2.414-2.102-3.332-4.11-3.332-2.078 0-3.89 1.3-4.035 2.968-.144 1.817.723 3.024 3.117 3.676m10.61-.797c0-2.226 1.765-3.433 3.457-3.433 1.887 0 3.414 1.351 3.414 3.433s-1.527 3.504-3.414 3.504c-1.836 0-3.457-1.3-3.457-3.504m-.024 5.68v-1.645c.7 1.211 2.25 1.887 3.77 1.887 3.05 0 5.656-2.316 5.656-5.875 0-3.625-2.558-5.894-5.633-5.894-1.593 0-3.093.629-3.793 1.859v-7.758h-2.488v17.426zm17.961-2.176c-1.863 0-3.41-1.375-3.41-3.504 0-2.082 1.547-3.41 3.41-3.41 1.883 0 3.434 1.328 3.434 3.41 0 2.13-1.55 3.504-3.434 3.504m0 2.418c3.219 0 5.922-2.344 5.922-5.922s-2.703-5.847-5.922-5.847c-3.191 0-5.87 2.27-5.87 5.847 0 3.578 2.679 5.922 5.87 5.922m18.082-.242h2.465v-11.285h-2.465v1.594c-.773-1.282-2.445-1.836-3.797-1.836-3.046 0-5.726 2.27-5.726 5.87 0 3.606 2.68 5.9 5.726 5.9 1.403 0 3.047-.626 3.797-1.86zm-6.965-5.68c0-2.082 1.57-3.433 3.457-3.433 1.692 0 3.485 1.207 3.485 3.433 0 2.223-1.645 3.504-3.485 3.504-1.886 0-3.457-1.422-3.457-3.504zm0 0"/><g clip-path="url(#u)"><path d="M306.945 149.336c-.949 1.434-2.562 2.434-4.406 2.434-2.941 0-5.09-2.461-5.09-5.504 0-3.075 2.149-5.532 5.09-5.532 1.82 0 3.356.922 4.3 2.305l3.048-2.101c-1.535-2.25-4.2-3.735-7.348-3.735-5.039 0-8.851 4.043-8.851 9.063 0 4.964 3.812 9.03 8.851 9.03 3.203 0 5.887-1.534 7.426-3.862zm9.34-6.242h-3.527v11.949h3.527zm-3.988-4.43c0 1.176 1.023 2.094 2.223 2.094 1.203 0 2.171-.918 2.171-2.094 0-1.18-.968-2.074-2.171-2.074-1.2 0-2.223.894-2.223 2.074m11.539-1.816l-2.79 4.297h2.56l1.996-2.278 2.02 2.278h2.562l-2.817-4.297zm4.707 14.254c-.586.77-1.637 1.128-2.61 1.128-1.253 0-2.765-.617-2.94-2h8.75c.027-.308.054-.792.054-1.101 0-3.762-2.715-6.293-6.121-6.293-3.426 0-6.242 2.43-6.242 6.191 0 3.762 2.816 6.27 6.242 6.27 2.023 0 4.25-.64 5.453-2.426zm-5.5-3.094c.305-1.512 1.664-2.051 2.66-2.051.996 0 2.328.59 2.508 2.05zm15.328.71c0-1.816.945-2.429 2.203-2.429 1.203 0 2.074.793 2.074 2.379v6.375h3.555v-7.14c0-3.403-1.687-5.067-4.375-5.067-1.406 0-2.816.793-3.457 1.992v-1.734h-3.555v11.949h3.555zm10.852.31c0 3.761 3.07 6.269 6.5 6.269 2.148 0 4.07-.945 5.195-2.555l-2.895-2.05c-.484.769-1.378 1.206-2.3 1.206-1.512 0-2.97-1.156-2.97-2.87 0-1.715 1.458-2.79 2.97-2.79.922 0 1.816.434 2.3 1.203l2.895-2.074c-1.152-1.61-3.07-2.531-5.195-2.531-3.43 0-6.5 2.43-6.5 6.191m18.273-5.933h-3.531v11.949h3.531zm-3.988-4.43c0 1.176 1.02 2.094 2.222 2.094 1.204 0 2.172-.918 2.172-2.094 0-1.18-.968-2.074-2.172-2.074-1.203 0-2.222.894-2.222 2.074m16.71 16.379h3.528v-11.95h-3.527v1.329c-.922-1.332-2.719-1.586-3.485-1.586-3.046 0-6.09 2.379-6.09 6.219 0 3.836 3.043 6.218 6.09 6.218.922 0 2.715-.437 3.485-1.585zm-5.89-5.992c0-1.715 1.512-2.84 2.996-2.84 1.461 0 2.895 1.05 2.895 2.84 0 1.797-1.434 2.847-2.895 2.847-1.484 0-2.996-1.128-2.996-2.843zm17.945 1.488c.868.23 1.176.512 1.176 1.024 0 .613-.668.972-1.457 1-.972 0-1.742-.692-1.77-1.383h-3.324c.024 2.66 2.559 4.117 4.993 4.117 2.504 0 5.164-1.203 5.164-3.734 0-.766-.36-2.688-3.246-3.481l-2.024-.539c-.715-.18-1.023-.54-1.047-.895-.027-.539.485-.898 1.254-.898.563 0 1.328.152 1.356 1.05h3.347c-.023-2.917-2.53-3.964-4.91-3.964-2.508 0-4.633 1.637-4.656 3.402-.027 1.098 0 2.918 3.582 3.89zm0 0"/></g><path d="M248.992 165.004c-2.234 3.383-6.043 5.742-10.394 5.742-6.95 0-12.024-5.805-12.024-12.996 0-7.25 5.074-13.055 12.024-13.055 4.293 0 7.918 2.176 10.156 5.442l7.191-4.957c-3.629-5.317-9.914-8.82-17.347-8.82-11.903 0-20.91 9.546-20.91 21.39 0 11.727 9.007 21.332 20.91 21.332 7.554 0 13.898-3.625 17.527-9.125zm-35.785-24.188h1.95v-3.648h2.984v-1.695h-2.985v-2.086h3.77v-1.711h-5.719zm0 0"/><g clip-path="url(#v)"><path d="M279.234 117.414h-80.609v80.617h80.61zm-8.46 72.148h-63.688V125.88h63.687zm0 0"/></g><use xlink:href="#w" x="204.434" y="340.984"/><use xlink:href="#x" x="218.322" y="340.984"/><use xlink:href="#y" x="226.909" y="340.984"/><use xlink:href="#z" x="234.632" y="340.984"/><use xlink:href="#A" x="240.17" y="340.984"/><use xlink:href="#B" x="251.755" y="340.984"/><use xlink:href="#C" x="260.24" y="340.984"/><use xlink:href="#D" x="268.725" y="340.984"/><use xlink:href="#E" x="277.21" y="340.984"/><use xlink:href="#F" x="289.557" y="340.984"/><use xlink:href="#D" x="297.28" y="340.984"/><use xlink:href="#G" x="305.765" y="340.984"/><use xlink:href="#H" x="318.112" y="340.984"/><use xlink:href="#I" x="321.973" y="340.984"/><use xlink:href="#J" x="334.32" y="340.984"/><use xlink:href="#z" x="342.805" y="340.984"/><use xlink:href="#y" x="348.208" y="340.984"/><use xlink:href="#K" x="355.931" y="340.984"/><use xlink:href="#K" x="363.654" y="340.984"/><use xlink:href="#L" x="371.377" y="340.984"/><use xlink:href="#M" x="375.239" y="340.984"/><use xlink:href="#y" x="382.962" y="340.984"/><use xlink:href="#N" x="175.601" y="361.528"/><use xlink:href="#O" x="184.086" y="361.528"/><use xlink:href="#y" x="192.571" y="361.528"/><use xlink:href="#K" x="200.294" y="361.528"/><use xlink:href="#L" x="208.017" y="361.528"/><use xlink:href="#K" x="211.879" y="361.528"/><use xlink:href="#N" x="223.464" y="361.528"/><use xlink:href="#L" x="231.949" y="361.528"/><use xlink:href="#P" x="235.81" y="361.528"/><use xlink:href="#Q" x="240.434" y="361.528"/><use xlink:href="#y" x="244.295" y="361.528"/><use xlink:href="#R" x="255.88" y="361.528"/><use xlink:href="#L" x="266.685" y="361.528"/><use xlink:href="#P" x="270.547" y="361.528"/><use xlink:href="#O" x="275.171" y="361.528"/><use xlink:href="#F" x="287.517" y="361.528"/><use xlink:href="#S" x="299.102" y="361.528"/><use xlink:href="#C" x="307.587" y="361.528"/><use xlink:href="#z" x="316.072" y="361.528"/><use xlink:href="#T" x="321.221" y="361.528"/><use xlink:href="#y" x="328.944" y="361.528"/><use xlink:href="#G" x="336.667" y="361.528"/><use xlink:href="#B" x="349.014" y="361.528"/><use xlink:href="#L" x="357.499" y="361.528"/><use xlink:href="#D" x="361.361" y="361.528"/><use xlink:href="#y" x="369.846" y="361.528"/><use xlink:href="#U" x="381.43" y="361.528"/><use xlink:href="#z" x="391.457" y="361.528"/><use xlink:href="#y" x="396.859" y="361.528"/><use xlink:href="#F" x="404.582" y="361.528"/><use xlink:href="#V" x="412.306" y="361.528"/><use xlink:href="#W" x="231.524" y="469.504"/><use xlink:href="#X" x="237.243" y="469.504"/><use xlink:href="#Y" x="243.603" y="469.504"/><use xlink:href="#Z" x="249.963" y="469.504"/><use xlink:href="#aa" x="259.503" y="469.504"/><use xlink:href="#ab" x="266.226" y="469.504"/><use xlink:href="#ac" x="272.586" y="469.504"/><use xlink:href="#ad" x="276.742" y="469.504"/><use xlink:href="#ae" x="285.641" y="469.504"/><use xlink:href="#X" x="292.001" y="469.504"/><use xlink:href="#Z" x="298.361" y="469.504"/><use xlink:href="#af" x="304.722" y="469.504"/><use xlink:href="#Z" x="311.082" y="469.504"/><use xlink:href="#ag" x="317.442" y="469.504"/><use xlink:href="#ah" x="323.802" y="469.504"/><use xlink:href="#ab" x="333.328" y="469.504"/><use xlink:href="#ai" x="342.868" y="469.504"/><use xlink:href="#X" x="351.126" y="469.504"/><use xlink:href="#ab" x="357.486" y="469.504"/><use xlink:href="#aj" x="240.812" y="564.763"/><use xlink:href="#ak" x="246.14" y="564.763"/><use xlink:href="#al" x="255.666" y="564.763"/><use xlink:href="#am" x="263.296" y="564.763"/><use xlink:href="#an" x="272.194" y="564.763"/><use xlink:href="#ac" x="279.824" y="564.763"/><use xlink:href="#X" x="283.631" y="564.763"/><use xlink:href="#af" x="289.992" y="564.763"/><use xlink:href="#ac" x="296.254" y="564.763"/><use xlink:href="#ag" x="299.964" y="564.763"/><use xlink:href="#ah" x="306.324" y="564.763"/><use xlink:href="#ao" x="319.031" y="564.763"/><use xlink:href="#ag" x="327.288" y="564.763"/><use xlink:href="#ah" x="333.648" y="564.763"/><use xlink:href="#ab" x="343.174" y="564.763"/><use xlink:href="#ap" x="349.534" y="564.763"/><use xlink:href="#aj" x="251.197" y="587.351"/><use xlink:href="#al" x="256.525" y="587.351"/><use xlink:href="#aq" x="264.154" y="587.351"/><use xlink:href="#ab" x="270.515" y="587.351"/><use xlink:href="#am" x="276.875" y="587.351"/><use xlink:href="#ar" x="282.593" y="587.351"/><use xlink:href="#ag" x="285.132" y="587.351"/><use xlink:href="#as" x="291.492" y="587.351"/><use xlink:href="#ar" x="294.03" y="587.351"/><use xlink:href="#at" x="296.569" y="587.351"/><use xlink:href="#ad" x="299.749" y="587.351"/><use xlink:href="#ao" x="308.648" y="587.351"/><use xlink:href="#ag" x="316.905" y="587.351"/><use xlink:href="#ah" x="323.265" y="587.351"/><use xlink:href="#ab" x="332.791" y="587.351"/><use xlink:href="#ap" x="339.149" y="587.351"/><use xlink:href="#au" x="238.555" y="673.613"/><use xlink:href="#av" x="245.748" y="673.613"/><use xlink:href="#aw" x="247.96" y="673.613"/><use xlink:href="#aw" x="252.941" y="673.613"/><use xlink:href="#ax" x="257.922" y="673.613"/><use xlink:href="#ay" x="263.462" y="673.613"/><use xlink:href="#az" x="267.178" y="673.613"/><use xlink:href="#aA" x="269.947" y="673.613"/><use xlink:href="#az" x="275.486" y="673.613"/><use xlink:href="#av" x="278.256" y="673.613"/><use xlink:href="#aB" x="280.468" y="673.613"/><use xlink:href="#aC" x="286.007" y="673.613"/><use xlink:href="#aw" x="294.316" y="673.613"/><use xlink:href="#aD" x="299.297" y="673.613"/><use xlink:href="#aE" x="304.836" y="673.613"/><use xlink:href="#ax" x="310.375" y="673.613"/><use xlink:href="#ay" x="315.915" y="673.613"/><use xlink:href="#aF" x="319.531" y="673.613"/><use xlink:href="#av" x="324.512" y="673.613"/><use xlink:href="#aw" x="326.724" y="673.613"/><use xlink:href="#ax" x="331.705" y="673.613"/><use xlink:href="#aG" x="337.245" y="673.613"/><use xlink:href="#aH" x="345.553" y="673.613"/><use xlink:href="#aI" x="350.893" y="673.613"/><use xlink:href="#aJ" x="355.875" y="673.613"/><use xlink:href="#aK" x="93.231" y="694.201"/><use xlink:href="#aA" x="101.53" y="694.201"/><use xlink:href="#ay" x="107.069" y="694.201"/><use xlink:href="#aI" x="110.685" y="694.201"/><use xlink:href="#au" x="118.436" y="694.201"/><use xlink:href="#aB" x="125.629" y="694.201"/><use xlink:href="#ax" x="131.169" y="694.201"/><use xlink:href="#aL" x="139.477" y="694.201"/><use xlink:href="#aG" x="146.122" y="694.201"/><use xlink:href="#aF" x="151.662" y="694.201"/><use xlink:href="#av" x="156.643" y="694.201"/><use xlink:href="#aw" x="158.855" y="694.201"/><use xlink:href="#ax" x="163.836" y="694.201"/><use xlink:href="#ay" x="169.375" y="694.201"/><use xlink:href="#aM" x="175.462" y="694.201"/><use xlink:href="#aA" x="182.655" y="694.201"/><use xlink:href="#aN" x="188.195" y="694.201"/><use xlink:href="#ax" x="196.493" y="694.201"/><use xlink:href="#aO" x="202.032" y="694.201"/><use xlink:href="#aP" x="207.163" y="694.201"/><use xlink:href="#aB" x="212.144" y="694.201"/><use xlink:href="#aQ" x="217.684" y="694.201"/><use xlink:href="#aC" x="223.223" y="694.201"/><use xlink:href="#au" x="231.532" y="694.201"/><use xlink:href="#aB" x="238.725" y="694.201"/><use xlink:href="#ax" x="244.264" y="694.201"/><use xlink:href="#aR" x="252.573" y="694.201"/><use xlink:href="#aB" x="259.766" y="694.201"/><use xlink:href="#aS" x="265.305" y="694.201"/><use xlink:href="#aL" x="268.622" y="694.201"/><use xlink:href="#aG" x="275.267" y="694.201"/><use xlink:href="#aF" x="280.807" y="694.201"/><use xlink:href="#av" x="285.788" y="694.201"/><use xlink:href="#aw" x="288" y="694.201"/><use xlink:href="#ax" x="292.981" y="694.201"/><use xlink:href="#ay" x="298.52" y="694.201"/><use xlink:href="#aM" x="304.607" y="694.201"/><use xlink:href="#aA" x="311.8" y="694.201"/><use xlink:href="#aN" x="317.339" y="694.201"/><use xlink:href="#ax" x="325.638" y="694.201"/><use xlink:href="#aT" x="333.717" y="694.201"/><use xlink:href="#aU" x="338.629" y="694.201"/><use xlink:href="#aV" x="344.497" y="694.201"/><use xlink:href="#aP" x="352.955" y="694.201"/><use xlink:href="#aB" x="357.936" y="694.201"/><use xlink:href="#aQ" x="363.476" y="694.201"/><use xlink:href="#aC" x="369.015" y="694.201"/><use xlink:href="#au" x="377.324" y="694.201"/><use xlink:href="#aB" x="384.517" y="694.201"/><use xlink:href="#ax" x="390.056" y="694.201"/><use xlink:href="#aB" x="398.365" y="694.201"/><use xlink:href="#az" x="403.904" y="694.201"/><use xlink:href="#aQ" x="406.673" y="694.201"/><use xlink:href="#ax" x="412.213" y="694.201"/><use xlink:href="#ay" x="417.752" y="694.201"/><use xlink:href="#aR" x="423.839" y="694.201"/><use xlink:href="#aB" x="431.032" y="694.201"/><use xlink:href="#aS" x="436.571" y="694.201"/><use xlink:href="#aL" x="439.889" y="694.201"/><use xlink:href="#aG" x="446.534" y="694.201"/><use xlink:href="#aF" x="452.073" y="694.201"/><use xlink:href="#av" x="457.054" y="694.201"/><use xlink:href="#aw" x="459.266" y="694.201"/><use xlink:href="#ax" x="464.247" y="694.201"/><use xlink:href="#ay" x="469.786" y="694.201"/><use xlink:href="#aM" x="475.874" y="694.201"/><use xlink:href="#aA" x="483.067" y="694.201"/><use xlink:href="#aN" x="488.606" y="694.201"/><use xlink:href="#ax" x="496.905" y="694.201"/><use xlink:href="#aj" x="279.084" y="816.476"/><use xlink:href="#aW" x="284.412" y="816.476"/><use xlink:href="#aX" x="291.107" y="816.476"/><use xlink:href="#aY" x="298.862" y="816.476"/><use xlink:href="#aZ" x="306.617" y="816.476"/><use xlink:href="#ap" x="311.262" y="816.476"/></svg>