<svg xmlns="http://www.w3.org/2000/svg" xmlns:xlink="http://www.w3.org/1999/xlink" width="793.701" height="1122.52" viewBox="0 0 595.276 841.89"><defs><symbol overflow="visible" id="v"><path d="M8.813-.672a.796.796 0 01-.063.313.821.821 0 01-.156.218.67.67 0 01-.235.125c-.086.02-.171.032-.265.032h-.828c-.168 0-.313-.016-.438-.047a.986.986 0 01-.344-.188 1.654 1.654 0 01-.296-.36 9.328 9.328 0 01-.329-.609L3.516-5.593a12.144 12.144 0 01-.438-.843 15.03 15.03 0 01-.36-.891h-.015c.02.344.031.695.031 1.047.008.343.016.703.016 1.078v4.937a.2.2 0 01-.047.125.27.27 0 01-.125.11 1.174 1.174 0 01-.265.047 2.69 2.69 0 01-.438.03c-.168 0-.309-.01-.422-.03a1.366 1.366 0 01-.266-.047c-.062-.032-.105-.067-.125-.11a.238.238 0 01-.03-.125V-8.75c0-.227.062-.398.187-.516a.747.747 0 01.5-.171H2.75c.188 0 .344.015.469.046a.913.913 0 01.328.157c.101.074.195.18.281.312.094.125.188.281.281.469L5.938-5a32.563 32.563 0 01.625 1.219l.28.594c.095.199.188.39.282.578a73.758 73.758 0 01-.047-2.11v-4.437c0-.04.016-.082.047-.125a.42.42 0 01.14-.11c.07-.03.16-.05.266-.062a6.198 6.198 0 01.86 0 .659.659 0 01.25.062.3.3 0 01.125.11.217.217 0 01.046.125zm0 0"/></symbol><symbol overflow="visible" id="w"><path d="M8.734-3.516c0 .586-.09 1.106-.265 1.563-.168.45-.418.836-.75 1.156-.324.313-.73.555-1.219.719a5.26 5.26 0 01-1.672.25 5.55 5.55 0 01-1.61-.219 3.289 3.289 0 01-1.202-.687 2.997 2.997 0 01-.75-1.125c-.168-.446-.25-.973-.25-1.579v-5.734c0-.05.015-.094.046-.125a.314.314 0 01.157-.094 1 1 0 01.297-.062c.125-.02.28-.031.468-.031s.336.011.454.03c.124.013.222.032.296.063.07.024.125.055.157.094a.171.171 0 01.046.125v5.563c0 .375.047.703.141.984.094.273.223.5.39.688.177.18.384.312.626.406.238.086.508.125.812.125.301 0 .567-.047.797-.14.238-.095.442-.227.61-.407a1.75 1.75 0 00.375-.656 2.62 2.62 0 00.14-.891v-5.672c0-.05.016-.094.047-.125a.314.314 0 01.156-.094 1 1 0 01.297-.062 3.03 3.03 0 01.469-.031c.176 0 .32.011.437.03.125.013.223.032.297.063.07.024.125.055.156.094a.171.171 0 01.047.125zm0 0"/></symbol><symbol overflow="visible" id="x"><path d="M8.031-.25A.311.311 0 018-.11a.36.36 0 01-.14.094c-.075.02-.184.036-.329.047a9.75 9.75 0 01-1.062 0 1.737 1.737 0 01-.282-.047.356.356 0 01-.156-.109.762.762 0 01-.062-.156l-.844-2.11a7.147 7.147 0 00-.313-.625 1.784 1.784 0 00-.328-.468 1.12 1.12 0 00-.406-.282 1.43 1.43 0 00-.531-.093h-.594v3.593a.218.218 0 01-.047.141.544.544 0 01-.156.094 1.526 1.526 0 01-.297.047c-.125.02-.281.03-.469.03a3.04 3.04 0 01-.468-.03 1.476 1.476 0 01-.297-.047.493.493 0 01-.157-.094.268.268 0 01-.03-.14v-8.563c0-.219.05-.375.155-.469a.62.62 0 01.407-.14h2.453c.238 0 .437.007.594.015.164.012.316.024.453.031.375.055.71.149 1.015.282.313.136.57.308.782.515.207.211.367.461.484.75.113.293.172.625.172 1 0 .313-.043.602-.125.86a2.391 2.391 0 01-.36.703 2.59 2.59 0 01-.578.531 3.015 3.015 0 01-.765.36c.133.074.265.156.39.25.125.093.239.214.344.359.113.136.219.293.313.469.101.18.195.374.28.593l.798 1.86c.07.187.117.324.14.406a.633.633 0 01.047.203zM5.562-6.656c0-.313-.074-.57-.218-.782-.137-.218-.367-.367-.688-.453a3.861 3.861 0 00-.343-.046 3.171 3.171 0 00-.5-.032h-.86v2.672h.969c.27 0 .504-.031.703-.094a1.4 1.4 0 00.516-.265c.144-.125.25-.27.312-.438.07-.164.11-.351.11-.562zm0 0"/></symbol><symbol overflow="visible" id="y"><path d="M6.625-2.828c0 .492-.094.922-.281 1.297a2.767 2.767 0 01-.75.937c-.313.25-.684.446-1.11.578a4.84 4.84 0 01-1.359.188 4.13 4.13 0 01-.906-.094 5.83 5.83 0 01-.75-.187 2.729 2.729 0 01-.532-.235 1.573 1.573 0 01-.296-.219A.572.572 0 01.5-.828a2.225 2.225 0 01-.047-.516c0-.156.004-.281.016-.375a.95.95 0 01.047-.25c.02-.07.046-.117.078-.14a.218.218 0 01.14-.047c.07 0 .164.043.282.125a4.835 4.835 0 001.187.531c.27.086.582.125.938.125.226 0 .437-.023.625-.078.187-.063.343-.145.468-.25a.952.952 0 00.282-.375c.07-.156.109-.32.109-.5a.87.87 0 00-.172-.547A1.637 1.637 0 004-3.531a4.276 4.276 0 00-.64-.344c-.243-.102-.485-.21-.735-.328a8.973 8.973 0 01-.734-.406 2.7 2.7 0 01-.641-.532 2.448 2.448 0 01-.453-.734C.68-6.156.625-6.492.625-6.891c0-.445.082-.843.25-1.187.164-.344.39-.625.672-.844a3.08 3.08 0 011.016-.515 4.243 4.243 0 011.218-.172c.227 0 .453.023.672.062.227.031.438.078.625.14.195.055.367.118.516.188.156.074.254.137.297.188A.51.51 0 016-8.906c.02.031.035.078.047.14.008.055.016.121.016.204a3.618 3.618 0 01-.001.672 1.372 1.372 0 01-.046.234.262.262 0 01-.063.14.171.171 0 01-.125.047c-.055 0-.14-.031-.266-.093a4.14 4.14 0 00-.421-.22A3.455 3.455 0 004.547-8a2.396 2.396 0 00-.734-.11 1.75 1.75 0 00-.547.079c-.157.054-.29.125-.391.219a.77.77 0 00-.234.312 1.005 1.005 0 00-.079.406c0 .211.055.39.172.547.114.149.266.281.454.406.195.118.414.227.656.329.25.105.5.218.75.343.25.117.492.246.734.39.25.15.469.325.656.532.188.211.336.453.454.734.125.274.187.602.187.985zm0 0"/></symbol><symbol overflow="visible" id="z"><path d="M2.953-.266a.218.218 0 01-.047.141.544.544 0 01-.156.094 1.526 1.526 0 01-.297.047 2.94 2.94 0 01-.469.03 2.94 2.94 0 01-.453-.03 1.476 1.476 0 01-.297-.047.493.493 0 01-.156-.094.218.218 0 01-.047-.14v-8.907c0-.05.016-.094.047-.125a.314.314 0 01.156-.094 1 1 0 01.297-.062 2.94 2.94 0 01.453-.031c.196 0 .352.011.47.03.124.013.222.032.296.063.07.024.125.055.156.094a.171.171 0 01.047.125zm0 0"/></symbol><symbol overflow="visible" id="A"><path d="M8.594-7.969c0 .137-.008.258-.016.36a1.366 1.366 0 01-.047.25c-.023.062-.047.105-.078.125a.18.18 0 01-.11.03c-.073 0-.183-.038-.327-.124a3.047 3.047 0 00-.547-.281 5.817 5.817 0 00-.828-.282A4.12 4.12 0 005.5-8.03c-.45 0-.86.078-1.234.234a2.781 2.781 0 00-.954.672 3.13 3.13 0 00-.609 1.047A4.198 4.198 0 002.5-4.734c0 .543.07 1.023.219 1.437.144.406.344.75.594 1.031.257.274.57.48.937.625a3.39 3.39 0 001.203.204c.207 0 .414-.02.625-.063.207-.05.406-.129.594-.234v-2.188H4.875c-.086 0-.152-.05-.203-.156-.043-.113-.063-.3-.063-.563 0-.132.004-.25.016-.343a.706.706 0 01.047-.22.693.693 0 01.094-.124.148.148 0 01.109-.047h3.188a.4.4 0 01.203.047.491.491 0 01.156.125c.05.055.086.117.11.187a.687.687 0 01.046.266V-1a.942.942 0 01-.078.39c-.055.106-.156.188-.313.25a6.792 6.792 0 01-.593.204c-.23.062-.469.12-.719.172-.25.05-.508.086-.766.109-.25.02-.507.031-.765.031-.75 0-1.43-.105-2.032-.312a4.214 4.214 0 01-1.515-.938 4.214 4.214 0 01-.938-1.515c-.218-.594-.328-1.258-.328-2 0-.782.114-1.477.344-2.094a4.456 4.456 0 011-1.563 4.337 4.337 0 011.547-.984c.601-.227 1.281-.344 2.031-.344.406 0 .774.028 1.11.078.332.055.625.121.875.204.25.085.457.171.625.265.164.094.28.18.343.25.07.063.117.156.14.281.032.118.048.297.048.547zm0 0"/></symbol><symbol overflow="visible" id="B"><path d="M7.563-1.422c0 .117-.008.219-.016.313a1.325 1.325 0 01-.047.218 1.032 1.032 0 01-.047.157.488.488 0 01-.125.14 1.774 1.774 0 01-.312.219 3.66 3.66 0 01-.547.25 4.331 4.331 0 01-.766.203c-.281.05-.59.078-.922.078-.648 0-1.23-.101-1.75-.297a3.353 3.353 0 01-1.328-.89A4.12 4.12 0 01.86-2.516C.672-3.109.58-3.8.58-4.594c0-.8.1-1.515.312-2.14.218-.625.52-1.145.906-1.563a3.75 3.75 0 011.375-.969 4.695 4.695 0 011.781-.328c.258 0 .508.028.75.078.25.043.477.102.688.172.207.063.39.14.546.235.165.093.282.171.344.234.07.063.117.121.14.172a.384.384 0 01.063.172l.032.234a4.093 4.093 0 010 .719.73.73 0 01-.063.234.392.392 0 01-.078.14.171.171 0 01-.125.048c-.074 0-.168-.04-.281-.125a4.349 4.349 0 00-.422-.282 3.826 3.826 0 00-.64-.28 2.417 2.417 0 00-.876-.141c-.375 0-.71.078-1 .234a2.225 2.225 0 00-.75.656c-.21.282-.37.625-.484 1.032a5.387 5.387 0 00-.156 1.359c0 .562.054 1.047.171 1.453.114.406.274.742.485 1 .219.262.473.46.765.594.301.125.641.187 1.016.187.344 0 .64-.039.89-.125.25-.082.462-.172.641-.265.176-.094.32-.176.438-.25.113-.082.203-.125.266-.125a.21.21 0 01.109.03c.031.013.055.048.078.11.02.063.035.149.047.25a5.5 5.5 0 01.016.422zm0 0"/></symbol><symbol overflow="visible" id="C"><path d="M8.39-.266a.218.218 0 01-.046.141.544.544 0 01-.156.094 1.526 1.526 0 01-.297.047c-.118.02-.266.03-.454.03a3.04 3.04 0 01-.468-.03 1.476 1.476 0 01-.297-.047.545.545 0 01-.14-.094.218.218 0 01-.048-.14v-3.813h-3.53v3.812a.218.218 0 01-.048.141.544.544 0 01-.156.094 1.526 1.526 0 01-.297.047 2.94 2.94 0 01-.469.03 2.94 2.94 0 01-.453-.03 1.476 1.476 0 01-.297-.047.493.493 0 01-.156-.094.218.218 0 01-.047-.14v-8.907c0-.05.016-.094.047-.125a.314.314 0 01.156-.094 1 1 0 01.297-.062 2.94 2.94 0 01.453-.031c.196 0 .352.011.47.03.124.013.222.032.296.063.07.024.125.055.156.094a.171.171 0 01.047.125v3.453h3.531v-3.453c0-.05.016-.094.047-.125a.318.318 0 01.14-.094 1 1 0 01.298-.062c.125-.02.281-.031.468-.031.188 0 .336.011.454.03.125.013.222.032.296.063.07.024.126.055.157.094a.171.171 0 01.047.125zm0 0"/></symbol><symbol overflow="visible" id="D"><path d="M9.516-4.828c0 .781-.102 1.484-.297 2.11a4.07 4.07 0 01-.86 1.562c-.386.43-.867.758-1.437.984-.563.227-1.215.344-1.953.344-.742 0-1.387-.094-1.938-.281A3.33 3.33 0 011.671-1c-.366-.395-.64-.895-.827-1.5-.18-.602-.266-1.32-.266-2.156 0-.77.098-1.457.297-2.063a4.352 4.352 0 01.86-1.562 3.84 3.84 0 011.421-.985c.57-.226 1.235-.343 1.985-.343.718 0 1.347.101 1.89.296a3.29 3.29 0 011.375.876c.364.386.64.882.828 1.484.188.605.282 1.312.282 2.125zm-2.016.11c0-.5-.043-.954-.125-1.36a2.877 2.877 0 00-.39-1.047 1.888 1.888 0 00-.75-.672c-.305-.156-.688-.234-1.157-.234-.469 0-.867.09-1.187.265-.313.18-.57.418-.766.72a3.047 3.047 0 00-.406 1.03c-.086.399-.125.82-.125 1.266 0 .512.035.977.11 1.39.081.407.218.758.405 1.047.188.293.43.516.735.672.312.149.707.22 1.187.22.469 0 .86-.083 1.172-.25a2.04 2.04 0 00.766-.72c.195-.3.332-.648.406-1.046A6.45 6.45 0 007.5-4.72zm0 0"/></symbol><symbol overflow="visible" id="E"><path d="M6.219-.797c0 .149-.012.274-.032.375a1.372 1.372 0 01-.046.234.318.318 0 01-.094.141.171.171 0 01-.125.047H1.594a.62.62 0 01-.407-.14c-.105-.094-.156-.25-.156-.47v-8.562c0-.05.016-.094.047-.125a.314.314 0 01.156-.094 1 1 0 01.297-.062 2.94 2.94 0 01.453-.031c.196 0 .352.011.47.03.124.013.222.032.296.063.07.024.125.055.156.094a.171.171 0 01.047.125v7.594h2.969c.05 0 .094.016.125.047a.23.23 0 01.094.125c.02.062.035.148.046.25.02.093.032.215.032.36zm0 0"/></symbol><symbol overflow="visible" id="F"><path d="M6.328-8.656c0 .148-.012.273-.031.375a.75.75 0 01-.063.25.381.381 0 01-.078.125.18.18 0 01-.11.031H2.954v2.547h2.89c.052 0 .095.012.126.031a.277.277 0 01.078.125.73.73 0 01.062.234c.02.094.032.215.032.36 0 .148-.012.273-.032.375a.73.73 0 01-.062.234.392.392 0 01-.078.14.203.203 0 01-.125.032h-2.89V-.28a.218.218 0 01-.048.14.381.381 0 01-.156.11 1.526 1.526 0 01-.297.047 2.94 2.94 0 01-.469.03 2.94 2.94 0 01-.453-.03 1.476 1.476 0 01-.297-.047.356.356 0 01-.156-.11.218.218 0 01-.047-.14v-8.547c0-.219.051-.375.157-.469a.62.62 0 01.406-.14h4.453c.039 0 .078.015.11.046.03.024.054.063.077.125a.771.771 0 01.063.25c.02.094.031.215.031.36zm0 0"/></symbol><symbol overflow="visible" id="G"><path d="M7.484-6.578c0 .531-.086 1.008-.25 1.422-.156.406-.398.75-.718 1.031-.313.273-.7.48-1.157.625-.46.148-1 .219-1.625.219h-.78v3.015a.218.218 0 01-.048.141.544.544 0 01-.156.094 1.526 1.526 0 01-.297.047c-.125.02-.281.03-.469.03a3.04 3.04 0 01-.468-.03 1.476 1.476 0 01-.297-.047.493.493 0 01-.157-.094.268.268 0 01-.03-.14V-8.75c0-.227.054-.398.171-.516a.673.673 0 01.469-.171h2.234c.219 0 .426.011.625.03.207.012.453.048.735.11.28.055.566.156.859.313.29.148.535.336.734.562.207.23.364.5.47.813.1.312.155.656.155 1.03zm-2 .14c0-.32-.058-.593-.171-.812-.118-.219-.262-.375-.438-.469a1.335 1.335 0 00-.531-.187 3.535 3.535 0 00-.578-.047h-.813v3.203h.86c.3 0 .554-.04.765-.125a1.23 1.23 0 00.5-.344c.133-.156.234-.332.297-.531.07-.207.11-.438.11-.688zm0 0"/></symbol><symbol overflow="visible" id="H"><path d="M7.313-8.656c0 .148-.012.273-.032.375a1.372 1.372 0 01-.047.234.318.318 0 01-.093.14.18.18 0 01-.11.032H4.656v7.61a.218.218 0 01-.047.14.544.544 0 01-.156.094 1.526 1.526 0 01-.297.047 2.93 2.93 0 01-.453.03c-.187 0-.344-.01-.469-.03a1.476 1.476 0 01-.296-.047.493.493 0 01-.157-.094.218.218 0 01-.047-.14v-7.61H.375c-.055 0-.094-.008-.125-.031a.545.545 0 01-.094-.14.885.885 0 01-.047-.235 3.41 3.41 0 01-.015-.375c0-.145.004-.266.015-.36a.95.95 0 01.047-.25.344.344 0 01.094-.125.165.165 0 01.125-.046h6.656c.04 0 .078.015.11.046a.23.23 0 01.093.125c.02.063.036.149.047.25.02.094.032.215.032.36zm0 0"/></symbol><symbol overflow="visible" id="I"><path d="M9.453-6.984c.25-.11.281-.22.281-.297 0-.157-.109-.282-.265-.282-.031 0-.047.016-.25.11l-7.75 3.562c-.266.125-.297.22-.297.313 0 .094.016.172.297.312L9.219.297c.187.094.219.11.25.11.156 0 .265-.126.265-.282 0-.078-.03-.188-.28-.297L2.061-3.578zm0 0"/></symbol><symbol overflow="visible" id="Q"><path d="M9.453-3.266c.266-.14.281-.218.281-.312s-.03-.188-.28-.313L1.686-7.453c-.187-.094-.203-.11-.234-.11a.277.277 0 00-.281.266c0 .172.125.219.312.313l7.36 3.406L1.469-.172c-.297.125-.297.234-.297.313 0 .125.11.265.281.265.031 0 .031-.015.234-.11zm0 0"/></symbol><symbol overflow="visible" id="J"><path d="M8.516-4.86c0 .825-.106 1.544-.313 2.157-.21.605-.515 1.11-.922 1.515a3.706 3.706 0 01-1.468.891C5.226-.097 4.53 0 3.719 0h-2a.543.543 0 01-.328-.11c-.094-.07-.141-.206-.141-.406v-8.406c0-.195.047-.332.14-.406a.57.57 0 01.329-.11h2.14c.813 0 1.5.11 2.063.329.57.21 1.047.511 1.422.906.383.398.676.875.875 1.437.195.563.297 1.2.297 1.907zm-1.329.048A5.17 5.17 0 007-6.234a3.086 3.086 0 00-.594-1.141 2.795 2.795 0 00-1.031-.75c-.406-.176-.938-.266-1.594-.266H2.516v7.344h1.28c.602 0 1.11-.07 1.517-.219a2.64 2.64 0 001.046-.703c.282-.312.489-.703.625-1.172.133-.468.204-1.023.204-1.671zm0 0"/></symbol><symbol overflow="visible" id="K"><path d="M6.719-3.75c0 .188-.047.324-.14.406a.467.467 0 01-.329.125H1.953c0 .367.035.696.11.985.07.293.19.543.359.75.164.21.383.37.656.484.281.105.613.156 1 .156.313 0 .586-.02.828-.062.25-.051.461-.11.64-.172.177-.07.321-.129.438-.172a.728.728 0 01.266-.078c.031 0 .055.012.078.031a.1.1 0 01.063.063c.02.03.03.078.03.14.009.063.016.137.016.219a.888.888 0 01-.015.172.644.644 0 01-.016.125.179.179 0 01-.031.094.262.262 0 01-.063.093c-.03.024-.117.063-.25.125a3.267 3.267 0 01-.5.188 7.11 7.11 0 01-.734.14 4.736 4.736 0 01-.875.079c-.531 0-1-.075-1.406-.22A2.796 2.796 0 011.516-.75a2.938 2.938 0 01-.641-1.125C.738-2.32.672-2.844.672-3.438c0-.562.07-1.066.219-1.515.144-.445.351-.828.625-1.14.28-.321.613-.567 1-.735.394-.164.832-.25 1.312-.25.52 0 .957.086 1.313.25.363.168.66.39.89.672.239.281.41.61.516.984.113.375.172.777.172 1.203zM5.5-4.11c.02-.624-.121-1.117-.422-1.484-.293-.363-.726-.547-1.297-.547-.304 0-.57.059-.797.172a1.868 1.868 0 00-.562.453 1.93 1.93 0 00-.344.641c-.074.25-.117.508-.125.766zm0 0"/></symbol><symbol overflow="visible" id="L"><path d="M6.594-6.453c0 .18-.024.305-.063.375-.043.074-.101.11-.172.11h-.953c.176.179.297.374.36.593.07.21.109.43.109.656 0 .375-.063.711-.188 1a2.149 2.149 0 01-.53.75c-.22.2-.485.352-.798.453a3.209 3.209 0 01-1.03.157c-.274 0-.528-.032-.767-.094A1.456 1.456 0 012-2.734a1.603 1.603 0 00-.219.312.805.805 0 00-.078.375c0 .18.078.324.234.438.165.105.38.164.641.171l1.703.079c.332.011.633.058.907.14.269.074.503.188.703.344A1.553 1.553 0 016.53.422c0 .3-.062.586-.187.86-.125.269-.32.507-.578.718-.262.207-.594.367-1 .484a5.39 5.39 0 01-1.438.172c-.531 0-.984-.047-1.36-.14-.366-.086-.667-.204-.905-.36a1.355 1.355 0 01-.516-.562A1.549 1.549 0 01.39.89C.39.734.406.578.437.42.477.274.54.134.625 0a2.41 2.41 0 01.297-.39c.113-.126.25-.25.406-.376a1.203 1.203 0 01-.516-.453 1.092 1.092 0 01-.171-.593c0-.301.054-.567.171-.797a2.54 2.54 0 01.454-.625 2.66 2.66 0 01-.36-.61C.82-4.07.781-4.348.781-4.672c0-.375.063-.707.188-1 .125-.3.297-.55.515-.75.227-.207.5-.363.813-.469a3.006 3.006 0 011.031-.171c.195 0 .379.011.547.03.176.024.344.055.5.095h1.984c.082 0 .141.042.172.125a.81.81 0 01.063.359zM4.719-4.72c0-.445-.125-.797-.375-1.047-.242-.25-.59-.375-1.047-.375-.23 0-.434.043-.61.125a1.18 1.18 0 00-.421.313 1.46 1.46 0 00-.266.47 1.92 1.92 0 00-.078.562c0 .43.117.766.36 1.016.25.25.597.375 1.046.375.238 0 .442-.035.61-.11a1.41 1.41 0 00.437-.312c.113-.133.195-.29.25-.469.063-.176.094-.36.094-.547zm.61 5.203c0-.28-.122-.5-.36-.656-.23-.156-.54-.238-.922-.25L2.344-.469c-.156.117-.29.23-.39.344a2.756 2.756 0 00-.235.297 1.863 1.863 0 00-.125.297 1.391 1.391 0 00-.032.312c0 .313.16.551.485.719.32.164.77.25 1.344.25.363 0 .664-.04.906-.11.25-.074.445-.167.594-.28a.95.95 0 00.328-.407c.07-.148.11-.305.11-.469zm0 0"/></symbol><symbol overflow="visible" id="M"><path d="M4.953-6.313c0 .106-.008.196-.016.266a.397.397 0 01-.03.172.21.21 0 01-.048.094c-.023.023-.054.031-.093.031a.418.418 0 01-.141-.031c-.055-.02-.117-.04-.188-.063-.074-.02-.156-.039-.25-.062a1.178 1.178 0 00-.265-.032.875.875 0 00-.36.079 1.27 1.27 0 00-.374.234 3.792 3.792 0 00-.407.453c-.136.18-.293.402-.469.672v4.313a.2.2 0 01-.03.109c-.012.023-.044.043-.095.062A.72.72 0 012 .031a2.627 2.627 0 01-.578 0 .935.935 0 01-.188-.047.26.26 0 01-.093-.062.172.172 0 01-.032-.11V-6.75c0-.04.004-.07.016-.094a.239.239 0 01.094-.078.48.48 0 01.172-.031 2.372 2.372 0 01.53 0c.071 0 .13.012.173.031.039.024.066.047.078.078.02.024.031.055.031.094v.953c.176-.258.344-.473.5-.64a3.35 3.35 0 01.453-.391 1.34 1.34 0 01.422-.188c.133-.039.274-.062.422-.062.063 0 .129.008.203.016a3.1 3.1 0 01.25.046.937.937 0 01.25.063c.07.023.117.047.14.078a.206.206 0 01.063.063c.008.023.016.046.016.078a.684.684 0 01.016.156c.007.062.015.152.015.266zm0 0"/></symbol><symbol overflow="visible" id="N"><path d="M8.39-.516a.62.62 0 01-.046.25.668.668 0 01-.125.172.53.53 0 01-.172.094c-.063.008-.125.016-.188.016h-.406c-.125 0-.234-.012-.328-.032a1.183 1.183 0 01-.281-.14 1.314 1.314 0 01-.25-.297 5.276 5.276 0 01-.282-.469l-2.968-5.36a48.218 48.218 0 01-.922-1.766v1.08c.008.366.015.726.015 1.077v5.704a.179.179 0 01-.03.093c-.012.032-.044.059-.095.078-.042.012-.105.02-.187.032-.074.02-.168.03-.281.03-.117 0-.215-.01-.297-.03-.074-.012-.133-.02-.172-.032a.21.21 0 01-.094-.078.15.15 0 01-.031-.093v-8.704c0-.195.05-.336.156-.421a.608.608 0 01.36-.126h.593c.145 0 .266.016.36.047a.76.76 0 01.25.11c.07.054.144.133.219.234.07.106.148.23.234.375l2.297 4.14c.133.25.265.5.39.75.133.243.266.477.391.704.125.23.242.46.36.687.113.23.234.461.359.688a39.622 39.622 0 01-.016-1.203V-9.22c0-.039.004-.07.016-.094a.239.239 0 01.093-.078.351.351 0 01.188-.046 2.628 2.628 0 01.578 0 .32.32 0 01.188.046c.039.024.07.047.093.079.02.023.032.054.032.093zm0 0"/></symbol><symbol overflow="visible" id="O"><path d="M6.063-.172A.152.152 0 016-.047a.405.405 0 01-.172.063.994.994 0 01-.281.03c-.125 0-.23-.01-.313-.03-.074-.012-.125-.032-.156-.063a.165.165 0 01-.047-.125v-.656a3.528 3.528 0 01-.968.719c-.356.164-.727.25-1.11.25A3 3 0 012 0a1.9 1.9 0 01-.703-.375c-.2-.176-.356-.39-.469-.64a2.151 2.151 0 01-.156-.844c0-.375.07-.696.219-.97a1.96 1.96 0 01.656-.671 3.364 3.364 0 011.031-.406 6.11 6.11 0 011.375-.14h.906v-.5c0-.259-.027-.485-.078-.673a1.082 1.082 0 00-.265-.484A1.022 1.022 0 004.062-6a2.252 2.252 0 00-.703-.094c-.293 0-.558.04-.796.11-.243.062-.45.14-.626.234-.18.086-.328.164-.453.234-.117.063-.199.094-.25.094a.172.172 0 01-.109-.031c-.023-.02-.047-.047-.078-.078A.41.41 0 011-5.688a1.1 1.1 0 01-.016-.203c0-.113.008-.207.032-.28a.474.474 0 01.125-.204c.062-.063.171-.133.328-.219A4.531 4.531 0 012.719-7c.25-.05.5-.078.75-.078.469 0 .867.058 1.203.172.332.105.598.261.797.468.207.2.36.454.453.766.094.305.14.656.14 1.063zm-1.204-3H3.844c-.336 0-.625.031-.875.094a1.735 1.735 0 00-.61.25.938.938 0 00-.343.39 1.13 1.13 0 00-.11.516c0 .344.102.621.313.828.219.2.523.297.922.297.312 0 .601-.078.875-.234.27-.164.55-.414.843-.75zm0 0"/></symbol><symbol overflow="visible" id="P"><path d="M10.86-.188a.2.2 0 01-.032.11.31.31 0 01-.11.062.713.713 0 01-.171.047 2.77 2.77 0 01-.594 0 .935.935 0 01-.187-.047.26.26 0 01-.094-.062.172.172 0 01-.031-.11v-3.984c0-.281-.028-.531-.079-.75a1.577 1.577 0 00-.234-.594 1.067 1.067 0 00-.406-.375 1.163 1.163 0 00-.578-.14c-.281 0-.563.11-.844.328-.273.21-.574.523-.906.937v4.579a.2.2 0 01-.032.109.31.31 0 01-.109.062.72.72 0 01-.187.047 2.627 2.627 0 01-.579 0A.935.935 0 015.5-.016a.26.26 0 01-.094-.062.172.172 0 01-.031-.11v-3.984c0-.281-.027-.531-.078-.75a2.094 2.094 0 00-.234-.594 1.067 1.067 0 00-.407-.375 1.163 1.163 0 00-.578-.14c-.281 0-.562.11-.844.328-.28.21-.59.523-.921.937v4.579a.2.2 0 01-.032.109c-.011.023-.043.043-.094.062A.72.72 0 012 .031a2.627 2.627 0 01-.578 0 .935.935 0 01-.188-.047.26.26 0 01-.093-.062.172.172 0 01-.032-.11V-6.75c0-.04.004-.07.016-.094a.239.239 0 01.094-.078.48.48 0 01.172-.031 2.372 2.372 0 01.53 0c.071 0 .13.012.173.031.039.024.066.047.078.078.02.024.031.055.031.094v.875c.363-.414.719-.719 1.063-.906a2.178 2.178 0 011.062-.297c.27 0 .516.031.734.094.22.062.41.152.579.265.164.117.304.258.421.422.114.156.211.328.297.516a6.48 6.48 0 01.61-.594c.195-.164.383-.3.562-.406A2.24 2.24 0 018.078-7a1.89 1.89 0 01.516-.078c.426 0 .781.078 1.062.234.29.149.524.344.703.594.176.242.301.527.375.86.082.335.125.687.125 1.062zm0 0"/></symbol><symbol overflow="visible" id="R"><path d="M8.328-.438a.932.932 0 01.047.25.181.181 0 01-.047.157.444.444 0 01-.203.062 4.444 4.444 0 01-.719 0C7.32.02 7.254.008 7.203 0a.26.26 0 01-.094-.063.464.464 0 01-.062-.124l-.813-2.297H2.313L1.53-.22a.237.237 0 01-.062.125.265.265 0 01-.094.078.743.743 0 01-.203.047 3.547 3.547 0 01-.328.016A1.667 1.667 0 01.5.016a.428.428 0 01-.203-.063C.266-.078.25-.125.25-.187c.008-.07.035-.16.078-.266L3.484-9.22a.36.36 0 01.079-.125.227.227 0 01.14-.078c.063-.02.14-.035.235-.047a4.185 4.185 0 01.734 0c.101.012.187.028.25.047.07.012.125.04.156.078a.428.428 0 01.078.125zm-4.062-7.75H4.25L2.625-3.484h3.281zm0 0"/></symbol><symbol overflow="visible" id="S"><path d="M5.063-.219a.28.28 0 01-.079.14.34.34 0 01-.14.079c-.063.008-.14.02-.235.031a3.031 3.031 0 01-.64 0c-.074 0-.14-.008-.203-.015-.055-.012-.102-.02-.141-.032a.252.252 0 01-.11-.046.323.323 0 01-.078-.063c-.011-.031-.023-.063-.03-.094L.311-9a.68.68 0 01-.062-.25c0-.063.02-.11.063-.14.039-.04.109-.067.203-.079.101-.008.238-.015.406-.015.133 0 .238.007.312.015a.72.72 0 01.188.047c.05.012.086.031.11.063.019.03.038.074.062.125l2.703 7.937 2.64-7.922a.28.28 0 01.047-.125.147.147 0 01.094-.078.924.924 0 01.203-.047 4.185 4.185 0 01.719 0c.082.012.14.04.172.078.039.032.055.086.047.157-.012.062-.04.148-.078.25zm0 0"/></symbol><symbol overflow="visible" id="T"><path d="M6.5-.516c0 .086-.008.164-.016.235a.248.248 0 01-.046.156.239.239 0 01-.079.094A.18.18 0 016.25 0H1.719a.543.543 0 01-.328-.11c-.094-.07-.141-.206-.141-.406v-8.406c0-.195.047-.332.14-.406a.57.57 0 01.329-.11h4.484a.21.21 0 01.11.032c.03.023.05.054.062.094.02.042.035.101.047.171.02.063.031.141.031.235a.872.872 0 01-.031.234.621.621 0 01-.047.156.15.15 0 01-.063.094.18.18 0 01-.109.031H2.516v2.954h3.156a.21.21 0 01.11.03.313.313 0 01.077.095c.02.042.036.101.047.171a1.686 1.686 0 010 .453.621.621 0 01-.047.157.239.239 0 01-.078.093.322.322 0 01-.11.016H2.517v3.375H6.25a.21.21 0 01.11.031.313.313 0 01.077.094.289.289 0 01.047.172c.008.063.016.14.016.234zm0 0"/></symbol><symbol overflow="visible" id="U"><path d="M7.547-.188a.2.2 0 01-.031.11c-.012.023-.043.043-.094.062a.743.743 0 01-.203.047 3.713 3.713 0 01-.657 0 .935.935 0 01-.187-.047.254.254 0 01-.125-.093.795.795 0 01-.063-.141l-.859-2.234A8.098 8.098 0 005-3.172a1.845 1.845 0 00-.39-.547 1.523 1.523 0 00-.532-.36 1.935 1.935 0 00-.734-.124h-.828v4.016a.148.148 0 01-.047.109.356.356 0 01-.094.062c-.043.012-.105.02-.188.032-.085.02-.187.03-.312.03-.117 0-.215-.01-.297-.03-.086-.012-.152-.02-.203-.032a.26.26 0 01-.094-.062.172.172 0 01-.031-.11v-8.734c0-.195.047-.332.14-.406a.57.57 0 01.329-.11h2.015c.227 0 .422.008.579.016a3.76 3.76 0 011.406.344c.281.137.515.308.703.515.187.211.328.45.422.72.093.273.14.57.14.89 0 .312-.043.601-.125.86a1.92 1.92 0 01-.375.655 2.494 2.494 0 01-.578.5 3.032 3.032 0 01-.75.36c.157.062.297.148.422.25.133.105.254.23.36.375.113.148.218.32.312.515.094.188.191.403.297.641L7.39-.719c.062.18.101.305.125.375a.55.55 0 01.03.156zm-1.89-6.625c0-.375-.087-.687-.25-.937-.169-.258-.446-.445-.829-.563a2.535 2.535 0 00-.422-.062 4.672 4.672 0 00-.593-.031H2.516v3.187h1.218c.332 0 .618-.039.86-.125.238-.082.437-.191.593-.328.165-.144.286-.316.36-.516.07-.195.11-.406.11-.625zm0 0"/></symbol><symbol overflow="visible" id="V"><path d="M4.266-3.672v3.485a.2.2 0 01-.032.109.31.31 0 01-.109.062c-.043.012-.105.02-.188.032-.085.02-.183.03-.296.03-.125 0-.23-.01-.313-.03-.074-.012-.137-.02-.187-.032a.25.25 0 01-.11-.062A.172.172 0 013-.188v-3.484L.328-9a.776.776 0 01-.094-.25c-.011-.063 0-.11.032-.14.039-.04.109-.067.203-.079a4.636 4.636 0 01.734 0c.094.012.164.028.219.047.05.012.086.031.11.063a.693.693 0 01.093.125l1.297 2.718c.125.25.242.524.36.813l.374.844h.016c.113-.27.226-.54.344-.813.125-.281.25-.555.375-.828l1.312-2.719a.28.28 0 01.047-.125.212.212 0 01.11-.078.924.924 0 01.202-.047c.083-.008.188-.015.313-.015.176 0 .313.007.406.015.102.012.172.04.203.078.04.032.055.079.047.141a1.023 1.023 0 01-.093.25zm0 0"/></symbol><symbol overflow="visible" id="W"><path d="M6.156-.547c0 .094-.008.18-.015.25a.503.503 0 01-.063.172A.239.239 0 016-.031.18.18 0 015.89 0H1.72a.543.543 0 01-.328-.11c-.094-.07-.141-.206-.141-.406V-9.25c0-.04.008-.07.031-.094a.239.239 0 01.094-.078.924.924 0 01.203-.047 3.032 3.032 0 01.61 0 .72.72 0 01.187.047c.05.024.086.047.11.078.019.024.03.055.03.094v8.156h3.376c.039 0 .078.016.109.047a.313.313 0 01.078.094c.031.043.05.101.063.172.007.062.015.14.015.234zm0 0"/></symbol><symbol overflow="visible" id="X"><path d="M9.156-4.828c0 .762-.09 1.45-.265 2.062a4.32 4.32 0 01-.813 1.579c-.355.43-.805.757-1.344.984-.53.226-1.164.344-1.89.344C4.133.14 3.52.035 3-.172a3.45 3.45 0 01-1.281-.922c-.336-.406-.586-.906-.75-1.5C.8-3.195.719-3.89.719-4.672c0-.738.086-1.41.265-2.016.188-.613.457-1.132.813-1.562a3.65 3.65 0 011.344-.984c.539-.227 1.175-.344 1.906-.344.687 0 1.285.105 1.797.312.52.211.953.516 1.297.922.343.399.597.89.765 1.485.164.593.25 1.273.25 2.03zm-1.312.094c0-.54-.047-1.04-.14-1.5a3.277 3.277 0 00-.485-1.188 2.199 2.199 0 00-.89-.797c-.368-.187-.821-.281-1.36-.281-.543 0-1 .105-1.375.313a2.579 2.579 0 00-.906.812 3.34 3.34 0 00-.5 1.188c-.094.46-.141.937-.141 1.437 0 .555.047 1.063.14 1.531.094.461.25.86.47 1.203.218.336.507.594.874.782.364.187.828.28 1.39.28.54 0 1-.097 1.376-.296.375-.207.676-.484.906-.828a3.54 3.54 0 00.484-1.203c.102-.457.157-.942.157-1.453zm0 0"/></symbol><symbol overflow="visible" id="Y"><path d="M8.344-8.156c0 .094-.008.18-.016.25a.622.622 0 01-.047.172.239.239 0 01-.078.093.1.1 0 01-.078.032c-.063 0-.164-.047-.297-.141a3.929 3.929 0 00-.547-.297 5.21 5.21 0 00-.828-.312A3.947 3.947 0 005.328-8.5c-.523 0-.992.102-1.406.297a3.05 3.05 0 00-1.063.781 3.64 3.64 0 00-.656 1.203 4.883 4.883 0 00-.219 1.5c0 .594.082 1.125.25 1.594.164.469.395.867.688 1.188.3.324.656.57 1.062.734a3.82 3.82 0 001.36.234c.289 0 .586-.031.89-.094.301-.07.579-.18.829-.328v-2.75H4.874c-.086 0-.148-.039-.188-.125-.042-.082-.062-.207-.062-.375a1.3 1.3 0 01.016-.234.475.475 0 01.046-.172.152.152 0 01.079-.078.2.2 0 01.109-.031h3a.45.45 0 01.156.031c.063.012.114.04.156.078a.48.48 0 01.094.172.487.487 0 01.047.219v3.593a.68.68 0 01-.078.329c-.043.093-.137.18-.281.25a4.14 4.14 0 01-.547.234c-.219.086-.45.156-.688.219-.242.05-.48.086-.718.11-.243.03-.48.046-.72.046-.73 0-1.382-.11-1.952-.328a3.974 3.974 0 01-1.453-.969 4.294 4.294 0 01-.922-1.5C.758-3.254.656-3.906.656-4.625c0-.75.114-1.426.344-2.031a4.528 4.528 0 01.953-1.563c.414-.426.91-.754 1.484-.984.57-.238 1.211-.36 1.922-.36.352 0 .688.032 1 .094.32.063.602.137.844.219.25.086.457.18.625.281.164.094.281.172.344.235a.493.493 0 01.125.218c.031.086.047.204.047.36zm0 0"/></symbol><symbol overflow="visible" id="Z"><path d="M2.516-.188a.2.2 0 01-.032.11.31.31 0 01-.109.062c-.043.012-.105.02-.188.032-.085.02-.187.03-.312.03-.117 0-.215-.01-.297-.03-.086-.012-.152-.02-.203-.032a.26.26 0 01-.094-.062.172.172 0 01-.031-.11V-9.25c0-.04.008-.07.031-.094.02-.031.055-.054.11-.078a.924.924 0 01.203-.047 2.897 2.897 0 01.593 0 .72.72 0 01.188.047c.05.024.086.047.11.078.019.024.03.055.03.094zm0 0"/></symbol><symbol overflow="visible" id="aa"><path d="M11.516-.188a.2.2 0 01-.032.11.31.31 0 01-.109.062c-.043.012-.102.02-.172.032-.074.02-.172.03-.297.03-.117 0-.215-.01-.297-.03-.074-.012-.136-.02-.187-.032a.26.26 0 01-.094-.062.172.172 0 01-.031-.11v-8.218h-.016l-3.36 8.25a.262.262 0 01-.062.093.53.53 0 01-.125.063c-.043.008-.101.02-.171.031a2.314 2.314 0 01-.25.016c-.106 0-.196-.008-.266-.016C5.973.02 5.91.008 5.859 0a.575.575 0 01-.109-.063.264.264 0 01-.047-.093l-3.219-8.25H2.47v8.219a.2.2 0 01-.031.109c-.012.023-.043.043-.094.062-.055.012-.121.02-.203.032a1.11 1.11 0 01-.282.03c-.125 0-.23-.01-.312-.03-.074-.012-.133-.02-.172-.032a.26.26 0 01-.094-.062.172.172 0 01-.031-.11v-8.687c0-.195.05-.336.156-.422a.558.558 0 01.36-.14h.765c.156 0 .29.015.406.046a.928.928 0 01.297.141c.094.063.164.14.22.234.062.094.116.211.171.344L6.36-1.844h.032l2.843-6.812c.051-.145.11-.266.172-.36.063-.101.13-.187.203-.25a.716.716 0 01.25-.125c.094-.03.204-.046.329-.046h.796c.07 0 .141.011.204.03.07.024.128.06.171.11a.63.63 0 01.11.172.634.634 0 01.047.25zm0 0"/></symbol><symbol overflow="visible" id="ab"><path d="M7.047-6.672c0 .469-.078.899-.234 1.281a2.65 2.65 0 01-.657.97 3.082 3.082 0 01-1.078.609c-.418.148-.918.218-1.5.218H2.516v3.406a.148.148 0 01-.047.11.356.356 0 01-.094.062c-.043.012-.105.02-.188.032-.085.02-.187.03-.312.03-.117 0-.215-.01-.297-.03-.086-.012-.152-.02-.203-.032a.26.26 0 01-.094-.062.172.172 0 01-.031-.11V-8.89c0-.195.05-.336.156-.421a.54.54 0 01.344-.126h2.016c.207 0 .406.012.593.032.188.011.407.047.657.11.257.054.52.155.78.312.27.148.493.336.673.562.187.219.328.48.422.781.101.293.156.618.156.97zm-1.313.094c0-.375-.074-.692-.218-.953-.149-.258-.325-.453-.532-.578a1.747 1.747 0 00-.656-.235 3.96 3.96 0 00-.656-.062H2.516v3.797H3.64c.375 0 .687-.047.937-.141.25-.102.457-.238.625-.406.176-.176.305-.383.39-.625.095-.25.141-.516.141-.797zm0 0"/></symbol><symbol overflow="visible" id="ac"><path d="M6.328-2.64c0 .437-.086.828-.25 1.171-.168.344-.398.64-.687.89a2.854 2.854 0 01-1.016.548A4.486 4.486 0 013.109.14a4.81 4.81 0 01-.875-.078 5.146 5.146 0 01-.718-.188 3.598 3.598 0 01-.532-.25 1.882 1.882 0 01-.312-.203.67.67 0 01-.125-.235 1.531 1.531 0 01-.031-.359c0-.101.004-.191.015-.266a.475.475 0 01.11-.265.2.2 0 01.109-.031c.07 0 .164.043.281.125.125.086.285.18.485.28.195.095.43.184.703.266.281.086.597.125.953.125.27 0 .52-.035.75-.109.226-.07.422-.172.578-.297.164-.133.29-.3.375-.5.094-.195.14-.422.14-.672 0-.257-.062-.484-.187-.671a1.787 1.787 0 00-.484-.5c-.2-.145-.43-.274-.688-.391-.25-.125-.511-.25-.781-.375a11.442 11.442 0 01-.781-.406 3.628 3.628 0 01-.672-.532 2.52 2.52 0 01-.484-.718 2.443 2.443 0 01-.188-1c0-.383.07-.735.219-1.047.144-.313.344-.57.594-.781.257-.208.562-.364.906-.47a3.758 3.758 0 011.156-.171c.207 0 .414.023.625.062a3.706 3.706 0 011.094.344.993.993 0 01.281.188c.05.043.082.078.094.109.02.023.035.055.047.094a.841.841 0 01.015.156c.008.055.016.125.016.219s-.008.18-.016.25a.997.997 0 01-.047.172.15.15 0 01-.062.093.1.1 0 01-.078.032c-.055 0-.137-.032-.25-.094a8.48 8.48 0 00-.422-.234 2.688 2.688 0 00-.594-.235 2.445 2.445 0 00-.75-.11c-.262 0-.492.04-.687.11-.2.063-.36.156-.485.281a1.113 1.113 0 00-.281.422 1.339 1.339 0 00-.094.5c0 .262.055.485.172.672.125.188.285.356.485.5.207.149.437.281.687.406.258.125.523.25.797.375.27.125.531.262.781.407.258.148.488.324.688.53.207.2.375.438.5.72a2.3 2.3 0 01.187.968zm0 0"/></symbol><symbol overflow="visible" id="ad"><path d="M7.172-8.89c0 .085-.008.163-.016.234a.621.621 0 01-.047.156.239.239 0 01-.078.094.18.18 0 01-.11.031H4.267v8.188a.2.2 0 01-.032.109.31.31 0 01-.109.062c-.043.012-.105.02-.188.032-.074.02-.171.03-.296.03-.118 0-.215-.01-.297-.03-.086-.012-.153-.02-.203-.032a.26.26 0 01-.094-.062.172.172 0 01-.031-.11v-8.187H.359a.172.172 0 01-.109-.031.21.21 0 01-.078-.094.41.41 0 01-.047-.156 1.444 1.444 0 01-.016-.235c0-.093.004-.175.016-.25a.475.475 0 01.047-.171.27.27 0 01.078-.094.2.2 0 01.11-.031h6.562a.21.21 0 01.11.03.313.313 0 01.077.095c.02.042.036.101.047.171.008.075.016.157.016.25zm0 0"/></symbol><symbol overflow="visible" id="ae"><path d="M8.047-.188a.2.2 0 01-.031.11c-.012.023-.043.043-.094.062-.055.012-.121.02-.203.032-.074.02-.168.03-.282.03-.125 0-.23-.01-.312-.03-.074-.012-.137-.02-.188-.032a.25.25 0 01-.109-.062.308.308 0 01-.016-.11v-4.187H2.516v4.188a.2.2 0 01-.032.109.31.31 0 01-.109.062c-.043.012-.105.02-.188.032-.085.02-.187.03-.312.03-.117 0-.215-.01-.297-.03-.086-.012-.152-.02-.203-.032a.26.26 0 01-.094-.062.172.172 0 01-.031-.11V-9.25c0-.04.008-.07.031-.094a.239.239 0 01.094-.078.924.924 0 01.203-.047 3.032 3.032 0 01.61 0 .72.72 0 01.187.047c.05.024.086.047.11.078.019.024.03.055.03.094v3.781h4.297V-9.25c0-.04.004-.07.016-.094.02-.031.055-.054.11-.078a.935.935 0 01.187-.047c.082-.008.188-.015.313-.015.113 0 .207.007.28.015.083.012.15.028.204.047.05.024.082.047.094.078.02.024.03.055.03.094zm0 0"/></symbol><symbol overflow="visible" id="af"><path d="M10.297-.281a.42.42 0 01-.094.172.385.385 0 01-.172.093c-.062.02-.148.036-.25.047a4.263 4.263 0 01-.734 0 1.745 1.745 0 01-.266-.047.268.268 0 01-.156-.093.47.47 0 01-.078-.172L6.578-7.406h-.016L4.734-.281a.307.307 0 01-.078.172.265.265 0 01-.14.093c-.063.02-.149.036-.25.047a5.242 5.242 0 01-.781 0 1.745 1.745 0 01-.266-.047.35.35 0 01-.156-.093.47.47 0 01-.079-.172L.5-9a1.645 1.645 0 01-.063-.25c0-.063.02-.11.063-.14.04-.04.11-.067.203-.079a4.444 4.444 0 01.735 0 .72.72 0 01.187.047c.05.012.082.04.094.078.02.031.035.074.047.125L3.89-1.313h.015l2.016-7.89a.28.28 0 01.047-.125c.02-.04.054-.07.11-.094a.924.924 0 01.202-.047c.094-.008.211-.015.36-.015.132 0 .238.007.312.015.082.012.149.028.203.047a.246.246 0 01.11.094c.02.031.035.074.046.125l2.172 7.89H9.5l2.078-7.906a.73.73 0 01.031-.11.222.222 0 01.094-.093.924.924 0 01.203-.047 3.575 3.575 0 01.688 0c.082.012.144.04.187.078.04.032.055.079.047.141 0 .063-.012.152-.031.266zm0 0"/></symbol><symbol overflow="visible" id="ag"><path d="M6.219-8.89c0 .085-.008.163-.016.234a.355.355 0 01-.062.156.239.239 0 01-.079.094.15.15 0 01-.093.031H2.516v3.219H5.78c.032 0 .063.011.094.031.031.012.055.04.078.078.031.031.05.086.063.156a2.018 2.018 0 010 .485.355.355 0 01-.063.156.239.239 0 01-.078.094.15.15 0 01-.094.031H2.516v3.938a.179.179 0 01-.032.093.24.24 0 01-.109.078c-.043.012-.105.02-.188.032-.074.02-.18.03-.312.03-.117 0-.215-.01-.297-.03-.086-.012-.152-.02-.203-.032a.21.21 0 01-.094-.078.15.15 0 01-.031-.093v-8.735c0-.195.047-.332.14-.406a.57.57 0 01.329-.11h4.25c.031 0 .062.012.093.032a.313.313 0 01.079.094c.03.042.05.101.062.171.008.075.016.157.016.25zm0 0"/></symbol><symbol overflow="visible" id="ah"><path d="M7.563-1.328c0 .074-.008.14-.016.203a.429.429 0 01-.031.156.401.401 0 01-.047.11.406.406 0 01-.094.125 2.08 2.08 0 01-.313.234 4.46 4.46 0 01-1.375.516 4.659 4.659 0 01-.968.093 4.55 4.55 0 01-1.672-.296 3.445 3.445 0 01-1.266-.907c-.343-.394-.61-.883-.797-1.468-.187-.594-.28-1.27-.28-2.032C.703-5.375.8-6.07 1-6.687c.207-.614.492-1.133.86-1.563.363-.426.8-.75 1.312-.969a4.097 4.097 0 011.687-.344c.27 0 .536.028.797.079.258.054.5.12.719.203.219.074.41.164.578.265.164.106.281.188.344.25a.75.75 0 01.14.157c.02.03.036.074.047.125a.841.841 0 01.016.156c.008.062.016.137.016.219 0 .105-.008.195-.016.265a.997.997 0 01-.047.172.15.15 0 01-.062.094c-.024.023-.055.031-.094.031-.074 0-.172-.047-.297-.14A4.396 4.396 0 006.531-8a3.52 3.52 0 00-.703-.313 3.049 3.049 0 00-.984-.14c-.418 0-.797.086-1.14.25a2.392 2.392 0 00-.876.734c-.242.324-.43.719-.562 1.188-.137.468-.204 1.008-.204 1.61 0 .605.063 1.136.188 1.593.133.46.32.844.563 1.156.238.305.53.54.874.703a2.93 2.93 0 001.204.235c.375 0 .695-.047.968-.141.282-.094.52-.195.72-.313.194-.113.359-.218.484-.312s.222-.14.296-.14c.04 0 .07.011.094.03.02.012.035.04.047.079.02.043.035.101.047.172.008.074.016.168.016.28zm0 0"/></symbol><symbol overflow="visible" id="ai"><path d="M7.469-2.703a2.686 2.686 0 01-.422 1.5c-.137.2-.305.375-.5.531a2.79 2.79 0 01-.64.375 4.24 4.24 0 01-.782.219A4.832 4.832 0 014.187 0H1.72a.543.543 0 01-.328-.11c-.094-.07-.141-.206-.141-.406v-8.406c0-.195.047-.332.14-.406a.57.57 0 01.329-.11h2.14c.57 0 1.036.06 1.391.172.363.106.664.262.906.47.239.198.414.448.532.75.125.292.187.624.187 1 0 .218-.027.433-.078.64a2.417 2.417 0 01-.234.562 2.307 2.307 0 01-.391.469 1.87 1.87 0 01-.547.328c.258.055.5.14.719.266.226.125.426.293.593.5.165.199.297.433.391.703.094.262.14.555.14.875zM5.594-6.922c0-.226-.04-.437-.11-.625a1.122 1.122 0 00-.296-.469 1.234 1.234 0 00-.532-.296 2.875 2.875 0 00-.86-.11H2.5v3.063h1.422c.32 0 .582-.04.781-.125a1.23 1.23 0 00.5-.344c.133-.145.234-.313.297-.5a1.93 1.93 0 00.094-.594zm.562 4.281a1.8 1.8 0 00-.14-.734 1.342 1.342 0 00-.391-.547 1.683 1.683 0 00-.64-.328A3.85 3.85 0 004-4.36H2.5v3.329h1.813c.289 0 .539-.032.75-.094a1.57 1.57 0 00.562-.313c.164-.132.297-.3.39-.5.094-.195.141-.43.141-.703zm0 0"/></symbol><symbol overflow="visible" id="aj"><path d="M7.406-.203a.2.2 0 01-.031.11c-.012.03-.043.058-.094.077-.043.012-.105.02-.187.032a1.49 1.49 0 01-.328.03c-.168 0-.309-.01-.422-.03a.588.588 0 01-.235-.063.428.428 0 01-.125-.14l-3.468-4.72v4.72a.179.179 0 01-.032.093.24.24 0 01-.109.078c-.043.012-.105.02-.188.032-.085.02-.187.03-.312.03-.117 0-.215-.01-.297-.03-.086-.012-.152-.02-.203-.032a.21.21 0 01-.094-.078.15.15 0 01-.031-.093V-9.25c0-.04.008-.07.031-.094a.239.239 0 01.094-.078.924.924 0 01.203-.047 3.032 3.032 0 01.61 0 .72.72 0 01.187.047c.05.024.086.047.11.078.019.024.03.055.03.094v4.203l3.33-4.203a.58.58 0 01.11-.11.33.33 0 01.14-.062.924.924 0 01.203-.047 3.202 3.202 0 01.609 0 .72.72 0 01.188.047c.05.024.082.047.093.078.02.031.032.063.032.094a.416.416 0 01-.047.188A2.472 2.472 0 017-8.797l-3.14 3.75L7.233-.578c.082.125.13.215.141.265.02.043.031.079.031.11zm0 0"/></symbol><symbol overflow="visible" id="ak"><path d="M6.813-3.89c0 .656-.086 1.23-.25 1.718a3.116 3.116 0 01-.735 1.219 3.218 3.218 0 01-1.187.719C4.18-.078 3.629 0 2.984 0H1.375a.407.407 0 01-.25-.094C1.039-.156 1-.258 1-.406v-6.735c0-.156.04-.257.125-.312a.407.407 0 01.25-.094h1.719c.644 0 1.191.086 1.64.25.457.168.836.414 1.141.734.313.313.547.7.703 1.157.156.449.234.953.234 1.515zm-1.063.046c0-.406-.055-.785-.156-1.14a2.229 2.229 0 00-.469-.907 2.298 2.298 0 00-.828-.609c-.324-.145-.746-.219-1.266-.219H2v5.875h1.047c.476 0 .879-.054 1.203-.172a2.03 2.03 0 00.828-.562 2.3 2.3 0 00.5-.938c.113-.375.172-.816.172-1.328zm0 0"/></symbol><symbol overflow="visible" id="al"><path d="M1.86-.14a.11.11 0 01-.032.078C1.816-.04 1.79-.02 1.75 0a.582.582 0 01-.14.016 1.847 1.847 0 01-.47 0A.806.806 0 01.985 0a.323.323 0 01-.078-.063.155.155 0 01-.015-.078v-5.265c0-.02.004-.04.015-.063a.152.152 0 01.078-.062.358.358 0 01.157-.032 1.847 1.847 0 01.468 0c.063 0 .11.012.141.032.04.011.066.031.078.062.02.024.031.043.031.063zm.109-7.032c0 .23-.047.387-.14.469-.087.074-.243.11-.47.11-.218 0-.37-.036-.453-.11-.086-.082-.125-.234-.125-.453 0-.227.04-.383.125-.469.082-.082.239-.125.469-.125.227 0 .383.043.469.125.082.086.125.234.125.453zm0 0"/></symbol><symbol overflow="visible" id="am"><path d="M4.188-1.578c0 .273-.055.512-.157.719-.093.21-.234.386-.422.53A1.73 1.73 0 012.953 0c-.25.07-.527.11-.828.11a2.86 2.86 0 01-.531-.048 3.682 3.682 0 01-.453-.109 2.417 2.417 0 01-.344-.125.81.81 0 01-.203-.14A.35.35 0 01.5-.47a1.011 1.011 0 01-.031-.297.909.909 0 01.047-.312.088.088 0 01.046-.063.212.212 0 01.079-.015c.039 0 .101.027.187.078a2.763 2.763 0 00.734.344c.176.054.368.078.579.078.164 0 .316-.016.453-.047.133-.04.25-.094.344-.156a.762.762 0 00.218-.266.832.832 0 00.078-.375.662.662 0 00-.109-.375.984.984 0 00-.297-.266 1.92 1.92 0 00-.422-.203 31.88 31.88 0 00-.484-.187 5.038 5.038 0 01-.484-.235 1.907 1.907 0 01-.422-.296A1.618 1.618 0 01.703-3.5a1.479 1.479 0 01-.11-.61c0-.195.04-.39.126-.577.082-.196.203-.364.36-.5a1.66 1.66 0 01.593-.344c.238-.082.52-.125.844-.125a2.493 2.493 0 01.797.125c.113.031.207.07.28.11.083.042.145.077.188.109.04.03.067.058.078.078.02.023.032.046.032.078.007.031.015.07.015.11a.841.841 0 010 .327.227.227 0 01-.031.125c-.012.032-.027.055-.047.063-.012.011-.031.015-.062.015a.357.357 0 01-.157-.062 1.848 1.848 0 00-.25-.125 2.536 2.536 0 00-.375-.14 1.384 1.384 0 00-.484-.079c-.156 0-.297.024-.422.063a.955.955 0 00-.312.171.545.545 0 00-.188.235.71.71 0 00-.062.297c0 .156.035.289.109.39.082.094.188.184.313.266.125.074.265.14.421.203.164.063.332.133.5.203.164.063.329.137.485.219.164.086.312.184.437.297.125.117.223.258.297.422.07.156.11.351.11.578zm0 0"/></symbol><symbol overflow="visible" id="an"><path d="M5.375-3c0 .156-.043.266-.125.328a.376.376 0 01-.25.094H1.562c0 .293.024.558.079.797.062.23.16.43.296.593.133.168.313.297.532.391.219.086.484.125.797.125a3.529 3.529 0 001.171-.203c.145-.05.258-.094.344-.125A.632.632 0 015-1.063c.02 0 .04.008.063.016a.113.113 0 01.046.063c.02.023.032.058.032.109.007.055.015.117.015.188a.644.644 0 01-.015.125.433.433 0 01-.016.109c0 .023-.012.047-.031.078a.238.238 0 01-.047.063.922.922 0 01-.188.109c-.105.043-.242.09-.406.14a5.49 5.49 0 01-.578.11 3.99 3.99 0 01-.703.062c-.438 0-.82-.058-1.14-.171a2.194 2.194 0 01-.829-.547 2.353 2.353 0 01-.5-.891C.598-1.852.547-2.27.547-2.75c0-.445.055-.848.172-1.203.113-.363.281-.672.5-.922.218-.258.484-.453.797-.578a2.64 2.64 0 011.046-.203c.415 0 .766.07 1.047.203a1.9 1.9 0 01.72.531c.187.219.32.48.405.781.094.305.141.625.141.97zm-.969-.281c.008-.508-.105-.906-.343-1.188-.231-.289-.579-.437-1.047-.437-.23 0-.438.047-.625.14-.18.086-.329.2-.454.344-.117.149-.21.32-.28.516a2.07 2.07 0 00-.095.625zm0 0"/></symbol><symbol overflow="visible" id="ao"><path d="M3.969-5.047c0 .086-.008.156-.016.219a.49.49 0 01-.015.125.22.22 0 01-.047.078.1.1 0 01-.079.031.214.214 0 01-.109-.031.676.676 0 00-.156-.047 1.094 1.094 0 00-.188-.047.763.763 0 00-.516.031.847.847 0 00-.296.188c-.094.094-.2.215-.313.36a5.427 5.427 0 00-.375.546V-.14a.11.11 0 01-.03.078c-.013.024-.04.043-.079.063a.582.582 0 01-.14.016 1.847 1.847 0 01-.47 0A.806.806 0 01.985 0a.323.323 0 01-.078-.063.155.155 0 01-.015-.078v-5.265a.17.17 0 01.015-.078c.008-.02.031-.036.063-.047a.311.311 0 01.14-.032c.063-.007.133-.015.22-.015.081 0 .148.008.202.016.063 0 .11.011.14.03.032.012.052.028.063.048.02.023.032.046.032.078v.765a3.76 3.76 0 01.406-.5c.125-.132.242-.238.36-.312a.894.894 0 01.327-.156 1.28 1.28 0 01.344-.047c.05 0 .11.008.172.015.063 0 .125.012.188.032.07.011.132.027.187.046a.45.45 0 01.125.063c.031.012.047.027.047.047a.231.231 0 01.015.078.342.342 0 01.016.11c.008.054.016.124.016.218zm0 0"/></symbol><symbol overflow="visible" id="ap"><path d="M3.625-.531c0 .117-.012.21-.031.281a.262.262 0 01-.063.14.545.545 0 01-.14.094 1.42 1.42 0 01-.22.047 1.91 1.91 0 01-.25.047 2.858 2.858 0 01-.265.016c-.273 0-.508-.032-.703-.094-.2-.07-.36-.18-.484-.328a1.52 1.52 0 01-.266-.547 3.537 3.537 0 01-.078-.813V-4.75H.391a.18.18 0 01-.157-.094.697.697 0 01-.047-.297c0-.082.004-.144.016-.187a.644.644 0 01.031-.125c.02-.04.04-.067.063-.078a.378.378 0 01.094-.016h.734v-1.25a.16.16 0 01.016-.078c.007-.02.03-.04.062-.063a.358.358 0 01.156-.03 1.847 1.847 0 01.485 0 .27.27 0 01.14.03.231.231 0 01.063.063c.02.023.031.047.031.078v1.25h1.36c.03 0 .054.008.078.016.02.011.035.039.046.078.02.031.036.074.047.125.008.043.016.105.016.187a.57.57 0 01-.063.297c-.03.063-.074.094-.124.094h-1.36v2.922c0 .367.05.64.156.828.114.188.305.281.579.281a.681.681 0 00.234-.031c.07-.02.133-.035.187-.047a.48.48 0 00.141-.062.26.26 0 01.11-.032c.019 0 .038.008.062.016.02.012.031.031.031.063.008.023.02.058.031.109a.957.957 0 01.016.172zm0 0"/></symbol><symbol overflow="visible" id="aq"><path d="M4.844-.14c0 .054-.016.09-.047.109a.334.334 0 01-.125.047 1.966 1.966 0 01-.484 0 .31.31 0 01-.125-.047c-.032-.02-.047-.055-.047-.11v-.53c-.23.25-.485.444-.766.577a2.064 2.064 0 01-.89.203A2.569 2.569 0 011.593 0a1.577 1.577 0 01-.563-.313 1.466 1.466 0 01-.375-.5 1.662 1.662 0 01-.125-.671c0-.301.063-.555.188-.766.125-.219.297-.398.515-.547a2.63 2.63 0 01.829-.328c.332-.07.703-.11 1.109-.11h.719v-.406c0-.207-.024-.382-.063-.53a.955.955 0 00-.203-.391.906.906 0 00-.375-.235 1.827 1.827 0 00-.563-.078 2.01 2.01 0 00-.64.094 3.197 3.197 0 00-.5.187c-.137.063-.25.121-.344.172a.475.475 0 01-.219.078.155.155 0 01-.078-.015.323.323 0 01-.062-.079.252.252 0 01-.047-.109v-.156c0-.102.004-.18.015-.234a.23.23 0 01.094-.157c.063-.05.156-.11.281-.172.125-.07.27-.132.438-.187.164-.063.348-.11.547-.14.195-.04.398-.063.61-.063.374 0 .69.043.952.125.27.086.485.21.641.375.164.168.285.375.36.625.07.242.109.523.109.843zM3.89-2.532h-.829c-.261 0-.492.023-.687.062-.188.043-.352.11-.484.203a.825.825 0 00-.282.313.885.885 0 00-.093.422c0 .273.086.492.265.656.176.156.422.234.735.234.25 0 .476-.062.687-.187.219-.133.445-.332.688-.594zm0 0"/></symbol><symbol overflow="visible" id="ar"><path d="M4.672-.953c0 .074-.008.137-.016.187a.644.644 0 01-.015.125l-.032.079a.552.552 0 01-.093.109 1.236 1.236 0 01-.266.187 2.461 2.461 0 01-.453.22c-.18.062-.383.108-.61.14l.141.344c.082.164.14.304.172.421a.968.968 0 01-.016.719.711.711 0 01-.234.297 1.12 1.12 0 01-.375.188 1.65 1.65 0 01-.453.062c-.137 0-.266-.012-.39-.031a2.34 2.34 0 01-.313-.047 1.138 1.138 0 01-.188-.063c-.031-.011-.054-.027-.062-.046a.374.374 0 01-.032-.094v-.14c0-.118.008-.196.032-.235.02-.043.062-.063.125-.063h.718a.514.514 0 00.297-.078.282.282 0 00.11-.234.592.592 0 00-.047-.203 1.83 1.83 0 00-.094-.235l-.265-.61a1.97 1.97 0 01-1-.468 2.212 2.212 0 01-.594-.937A4.342 4.342 0 01.53-2.703c0-.52.063-.961.188-1.328.125-.375.297-.68.515-.922a2.08 2.08 0 01.766-.531 2.772 2.772 0 011.469-.125c.156.03.297.074.422.125.132.054.254.109.359.171a.942.942 0 01.219.172c.05.043.082.079.093.11.02.031.036.07.047.11.02.03.032.073.032.124v.156c0 .157-.016.266-.047.329-.032.062-.074.093-.125.093a.318.318 0 01-.203-.093 1.672 1.672 0 00-.297-.22 1.937 1.937 0 00-.422-.218 1.646 1.646 0 00-.578-.094c-.469 0-.828.18-1.078.532-.243.355-.36.87-.36 1.546 0 .344.032.649.094.907.063.25.156.464.281.64.125.168.274.293.453.375.188.086.395.125.625.125.227 0 .426-.035.594-.11.164-.07.305-.148.422-.234.125-.082.227-.156.313-.218.082-.07.148-.11.203-.11.02 0 .039.012.062.032.02.011.035.039.047.078.02.031.031.078.031.14.008.055.016.118.016.188zm0 0"/></symbol><symbol overflow="visible" id="as"><path d="M4.844-.14c0 .054-.016.09-.047.109a.334.334 0 01-.125.047 1.966 1.966 0 01-.484 0 .31.31 0 01-.125-.047c-.032-.02-.047-.055-.047-.11v-.53c-.23.25-.485.444-.766.577a2.064 2.064 0 01-.89.203A2.569 2.569 0 011.593 0a1.577 1.577 0 01-.563-.313 1.466 1.466 0 01-.375-.5 1.662 1.662 0 01-.125-.671c0-.301.063-.555.188-.766.125-.219.297-.398.515-.547a2.63 2.63 0 01.829-.328c.332-.07.703-.11 1.109-.11h.719v-.406c0-.207-.024-.382-.063-.53a.955.955 0 00-.203-.391.906.906 0 00-.375-.235 1.827 1.827 0 00-.563-.078 2.01 2.01 0 00-.64.094 3.197 3.197 0 00-.5.187c-.137.063-.25.121-.344.172a.475.475 0 01-.219.078.155.155 0 01-.078-.015.323.323 0 01-.062-.079.252.252 0 01-.047-.109v-.156c0-.102.004-.18.015-.234a.23.23 0 01.094-.157c.063-.05.156-.11.281-.172.125-.07.27-.132.438-.187.164-.063.348-.11.547-.14.195-.04.398-.063.61-.063.374 0 .69.043.952.125.27.086.485.21.641.375.164.168.285.375.36.625.07.242.109.523.109.843zM3.89-2.532h-.829c-.261 0-.492.023-.687.062-.188.043-.352.11-.484.203a.825.825 0 00-.282.313.885.885 0 00-.093.422c0 .273.086.492.265.656.176.156.422.234.735.234.25 0 .476-.062.687-.187.219-.133.445-.332.688-.594zm.921-5.14c0 .417-.105.734-.312.952-.2.219-.477.328-.828.328-.137 0-.262-.015-.375-.046a1.3 1.3 0 01-.313-.157 5.213 5.213 0 01-.265-.187c-.074-.063-.149-.125-.219-.188a.813.813 0 00-.234-.14.5.5 0 00-.235-.063c-.156 0-.265.059-.328.172a.952.952 0 00-.094.453.213.213 0 01-.015.078c0 .024-.016.04-.047.047a.374.374 0 01-.11.031H1.25a.684.684 0 01-.266-.046.146.146 0 01-.046-.079.36.36 0 01-.016-.125c0-.382.098-.691.297-.921.195-.227.472-.344.828-.344.207 0 .39.043.547.125.156.074.289.156.406.25.125.093.238.183.344.265a.583.583 0 00.36.125.36.36 0 00.312-.156c.07-.101.109-.254.109-.453 0-.063.02-.102.063-.125a.726.726 0 01.265-.031c.145 0 .238.015.281.047.051.023.079.086.079.187zM.173-5.548zm0 0"/></symbol><symbol overflow="visible" id="at"><path d="M5.781-2.828c0 .43-.058.824-.172 1.187a2.626 2.626 0 01-.515.922 2.211 2.211 0 01-.828.61 2.944 2.944 0 01-1.172.218c-.43 0-.805-.062-1.125-.187a2.198 2.198 0 01-.813-.563 2.429 2.429 0 01-.468-.89A4.144 4.144 0 01.53-2.72c0-.437.051-.832.156-1.187.114-.364.282-.676.5-.938a2.22 2.22 0 01.844-.593 2.91 2.91 0 011.172-.22c.438 0 .813.063 1.125.188.32.125.586.313.797.563.219.242.379.539.484.89.114.356.172.75.172 1.188zm-1.015.062c0-.28-.028-.546-.079-.796a1.92 1.92 0 00-.265-.672 1.322 1.322 0 00-.484-.454c-.211-.113-.47-.171-.782-.171-.281 0-.527.054-.734.156-.2.105-.367.25-.5.437-.125.18-.227.399-.297.657a3.36 3.36 0 00-.094.812c0 .293.024.57.078.828.051.25.141.469.266.657.125.187.285.34.484.453.207.105.47.156.782.156.28 0 .52-.047.718-.14.207-.102.38-.243.516-.423a1.94 1.94 0 00.297-.656c.062-.258.094-.539.094-.844zm0 0"/></symbol><symbol overflow="visible" id="au"><path d="M3.14-2.094c0 .336-.03.64-.093.922a1.721 1.721 0 01-.328.703 1.53 1.53 0 01-.61.438c-.242.093-.543.14-.906.14A2.196 2.196 0 01.843.08 1.427 1.427 0 01.532.015a1.013 1.013 0 01-.39-.156A2.98 2.98 0 00.078-.22 1.71 1.71 0 01.015-.5v-.578c.008-.094.02-.164.032-.219a.305.305 0 01.062-.125.179.179 0 01.094-.031c.04 0 .082.016.125.047.05.023.102.047.156.078.063.023.13.047.204.078.082.023.175.031.28.031a.902.902 0 00.266-.031.441.441 0 00.204-.156.857.857 0 00.125-.282c.03-.125.046-.285.046-.484v-5.187a.15.15 0 01.032-.094.381.381 0 01.125-.078A.993.993 0 012-7.578a4.263 4.263 0 01.734 0c.102.012.18.027.235.047a.269.269 0 01.125.078c.031.031.047.062.047.094zm0 0"/></symbol><symbol overflow="visible" id="av"><path d="M6-2.86a4.1 4.1 0 01-.172 1.22 2.617 2.617 0 01-.531.952 2.442 2.442 0 01-.906.61C4.035.066 3.617.14 3.14.14c-.461 0-.86-.063-1.204-.188a2.286 2.286 0 01-.859-.562 2.517 2.517 0 01-.5-.907A4.425 4.425 0 01.422-2.75c0-.445.055-.852.172-1.219.125-.363.3-.676.531-.937a2.24 2.24 0 01.89-.61 3.408 3.408 0 011.266-.218c.457 0 .86.062 1.203.187.344.125.625.313.844.563.227.242.395.543.5.906.113.355.172.762.172 1.219zm-1.516.063c0-.258-.023-.492-.062-.703a1.736 1.736 0 00-.203-.563.95.95 0 00-.39-.375c-.157-.093-.36-.14-.61-.14-.219 0-.414.043-.578.125a.942.942 0 00-.391.344 1.672 1.672 0 00-.234.562 2.94 2.94 0 00-.079.735c0 .261.02.5.063.718.04.211.11.399.203.563.094.156.223.281.39.375.165.086.368.125.61.125a1.165 1.165 0 00.969-.469c.113-.156.191-.336.234-.547.051-.219.078-.469.078-.75zm0 0"/></symbol><symbol overflow="visible" id="aw"><path d="M5.703-.203a.2.2 0 01-.031.11.238.238 0 01-.125.077c-.055.012-.125.02-.219.032a4.093 4.093 0 01-.703 0c-.094-.012-.172-.02-.234-.032a.204.204 0 01-.11-.078.172.172 0 01-.031-.11v-2.968c0-.25-.023-.445-.063-.594a1.384 1.384 0 00-.171-.375.621.621 0 00-.266-.234.856.856 0 00-.375-.078c-.188 0-.383.07-.578.203a3.26 3.26 0 00-.594.594v3.453a.2.2 0 01-.031.11.238.238 0 01-.125.077c-.055.012-.125.02-.219.032a4.263 4.263 0 01-.719 0C1.016.004.941-.004.891-.016a.327.327 0 01-.125-.078.172.172 0 01-.032-.11v-7.671a.18.18 0 01.032-.11.381.381 0 01.125-.077.987.987 0 01.218-.047 4.184 4.184 0 01.72 0c.093.011.163.027.218.046.062.024.101.047.125.079a.21.21 0 01.031.109V-5c.25-.25.504-.43.766-.547.27-.125.547-.187.828-.187.351 0 .648.058.89.171.25.118.446.278.594.485.157.2.266.433.328.703.063.273.094.602.094.984zm0 0"/></symbol><symbol overflow="visible" id="ax"><path d="M5.703-.203a.2.2 0 01-.031.11.238.238 0 01-.125.077c-.055.012-.125.02-.219.032a4.093 4.093 0 01-.703 0c-.094-.012-.172-.02-.234-.032a.204.204 0 01-.11-.078.172.172 0 01-.031-.11v-2.968c0-.25-.023-.445-.063-.594a1.384 1.384 0 00-.171-.375.621.621 0 00-.266-.234.856.856 0 00-.375-.078c-.188 0-.383.07-.578.203a3.26 3.26 0 00-.594.594v3.453a.2.2 0 01-.031.11.238.238 0 01-.125.077c-.055.012-.125.02-.219.032a4.263 4.263 0 01-.719 0C1.016.004.941-.004.891-.016a.327.327 0 01-.125-.078.172.172 0 01-.032-.11v-5.202c0-.04.008-.07.032-.094.02-.031.054-.055.109-.078a.935.935 0 01.188-.047 3.032 3.032 0 01.609 0 .72.72 0 01.187.047c.051.023.082.047.094.078a.14.14 0 01.031.094v.61A3.39 3.39 0 012.86-5.5c.301-.156.614-.234.938-.234.351 0 .648.058.89.171.25.118.446.278.594.485.157.2.266.433.328.703.063.262.094.578.094.953zm0 0"/></symbol><symbol overflow="visible" id="ay"><path d="M4.578-.266a.582.582 0 01-.078.157.28.28 0 01-.156.093.994.994 0 01-.282.032 6.936 6.936 0 01-.468.015h-.406c-.106 0-.2-.008-.282-.015-.074-.012-.136-.02-.187-.032a1.243 1.243 0 01-.125-.062.249.249 0 01-.078-.078c-.012-.032-.028-.07-.047-.125L.234-6.984a1.192 1.192 0 01-.093-.329c-.012-.082.007-.144.062-.187a.495.495 0 01.25-.078 6.985 6.985 0 01.906 0c.102.012.18.027.235.047.05.023.086.054.11.093.019.032.038.079.062.141l1.843 5.813 1.813-5.782a.475.475 0 01.047-.171.31.31 0 01.125-.094.993.993 0 01.234-.047c.113-.008.258-.016.438-.016.175 0 .312.012.406.032a.394.394 0 01.219.078c.039.043.05.105.03.187a1.554 1.554 0 01-.093.328zm0 0"/></symbol><symbol overflow="visible" id="az"><path d="M5.547-2.953c0 .18-.043.312-.125.406-.074.086-.184.125-.328.125H1.922c0 .219.023.422.078.61.05.18.133.328.25.453.113.125.258.226.438.296.187.063.406.094.656.094.258 0 .484-.015.672-.047a6.3 6.3 0 00.515-.125l.36-.125a.632.632 0 01.218-.062c.04 0 .07.008.094.016.02.011.035.039.047.078a.26.26 0 01.031.14 1.686 1.686 0 010 .469.806.806 0 01-.015.156.2.2 0 01-.032.11.318.318 0 01-.062.078.583.583 0 01-.203.125 3.451 3.451 0 01-.438.125 6.914 6.914 0 01-.593.11c-.231.038-.47.062-.72.062A3.945 3.945 0 012-.031a2.436 2.436 0 01-.875-.531 2.216 2.216 0 01-.516-.907C.492-1.832.438-2.258.438-2.75c0-.457.054-.867.171-1.234a2.72 2.72 0 01.532-.954c.226-.257.504-.457.828-.593a3.007 3.007 0 011.125-.203c.426 0 .797.062 1.11.187.312.125.566.305.765.531.195.23.343.5.437.813.094.312.14.652.14 1.016zm-1.422-.422c.008-.406-.074-.727-.25-.969-.18-.238-.453-.36-.828-.36-.188 0-.352.04-.485.11-.136.074-.25.172-.343.297A1.27 1.27 0 002-3.875c-.043.156-.07.324-.078.5zm0 0"/></symbol><symbol overflow="visible" id="aA"><path d="M4.078-4.922c0 .149-.008.266-.016.36a.568.568 0 01-.03.203.15.15 0 01-.063.093c-.024.024-.055.032-.094.032a.388.388 0 01-.11-.016c-.03-.008-.074-.02-.124-.031a1.104 1.104 0 00-.172-.047.554.554 0 00-.188-.031.692.692 0 00-.25.046 1.265 1.265 0 00-.25.157 2.354 2.354 0 00-.265.281c-.094.117-.2.262-.313.438v3.234a.2.2 0 01-.031.11.238.238 0 01-.125.077c-.055.012-.125.02-.219.032a4.263 4.263 0 01-.719 0C1.016.004.941-.004.891-.016a.327.327 0 01-.125-.078.172.172 0 01-.032-.11v-5.202c0-.04.008-.07.032-.094.02-.031.054-.055.109-.078a.935.935 0 01.188-.047 3.032 3.032 0 01.609 0 .72.72 0 01.187.047c.051.023.082.047.094.078a.14.14 0 01.031.094v.656a3.35 3.35 0 01.391-.484c.125-.125.238-.223.344-.297a.894.894 0 01.328-.157 1.11 1.11 0 01.328-.046c.05 0 .102.007.156.015.063 0 .125.012.188.032a.676.676 0 01.156.046c.05.012.086.028.11.047.019.024.035.043.046.063a.291.291 0 01.016.093c.008.043.016.106.016.188.007.086.015.195.015.328zm0 0"/></symbol><symbol overflow="visible" id="aB"><path d="M3.75 0l-.625 1.844c-.043.093-.14.16-.297.203-.148.05-.371.078-.672.078a1.94 1.94 0 01-.375-.031.562.562 0 01-.218-.063.188.188 0 01-.079-.125c0-.043.016-.093.047-.156L2.22 0a.29.29 0 01-.14-.11A.834.834 0 012-.265L.203-5.046a.874.874 0 01-.078-.313c0-.07.02-.13.063-.172a.47.47 0 01.234-.078 2.76 2.76 0 01.453-.032c.164 0 .297.008.39.016.102 0 .18.016.235.047.05.023.086.058.11.11a.77.77 0 01.093.202L2.937-1.78h.016l1.11-3.563a.509.509 0 01.093-.187.322.322 0 01.188-.078c.082-.02.234-.032.453-.032.164 0 .3.012.406.032a.519.519 0 01.25.078c.05.043.078.101.078.172a.93.93 0 01-.047.265zm0 0"/></symbol><symbol overflow="visible" id="aC"><path d="M4.969-.64c0 .117-.008.214-.016.296-.012.074-.027.14-.047.203-.011.055-.031.09-.062.11a.18.18 0 01-.11.031H1.281a.47.47 0 01-.328-.11C.867-.19.828-.315.828-.483v-6.86a.18.18 0 01.031-.11.237.237 0 01.125-.062c.063-.02.141-.035.235-.046.101-.02.226-.032.375-.032.156 0 .281.012.375.032.093.011.164.027.218.046.063.012.102.032.126.063.03.031.046.07.046.11v6.077h2.375a.21.21 0 01.11.032c.031.023.05.058.062.109a.72.72 0 01.047.188c.008.085.016.183.016.296zm0 0"/></symbol><symbol overflow="visible" id="aD"><path d="M5.422-5.047c0 .188-.024.328-.063.422-.043.086-.093.125-.156.125h-.61a.78.78 0 01.173.328c.039.117.062.234.062.36 0 .312-.055.59-.156.828a1.56 1.56 0 01-.422.593 1.95 1.95 0 01-.688.36 2.95 2.95 0 01-.89.125 1.81 1.81 0 01-.485-.063 1.154 1.154 0 01-.343-.14 1.42 1.42 0 00-.125.187.378.378 0 00-.063.219c0 .117.051.21.157.281a.761.761 0 00.421.125L3.5-1.25c.29.012.55.055.781.125.239.074.438.18.594.313.156.125.273.28.36.468.081.18.124.38.124.61 0 .257-.058.504-.171.734-.118.227-.29.426-.516.594-.219.164-.5.297-.844.39a4.44 4.44 0 01-1.187.141c-.45 0-.829-.04-1.141-.11a2.242 2.242 0 01-.766-.28 1.208 1.208 0 01-.437-.454A1.134 1.134 0 01.157.72c0-.125.015-.25.046-.375C.234.227.281.117.343.016a2.19 2.19 0 01.25-.297C.689-.383.79-.484.907-.578a.915.915 0 01-.39-.36 1.01 1.01 0 01-.125-.5c0-.226.05-.437.156-.625a1.77 1.77 0 01.406-.515 1.516 1.516 0 01-.328-.485C.539-3.257.5-3.5.5-3.78c0-.301.05-.57.156-.813.114-.238.266-.441.453-.61.188-.163.41-.288.672-.374.27-.094.567-.14.89-.14.157 0 .306.011.454.03.156.024.297.047.422.079h1.656c.07 0 .125.046.156.14.04.086.063.227.063.422zM3.547-3.813c0-.28-.078-.5-.235-.656-.156-.156-.374-.234-.656-.234a.942.942 0 00-.39.078.873.873 0 00-.438.5 1.199 1.199 0 00-.047.344c0 .261.078.469.235.625.156.148.375.219.656.219.144 0 .27-.02.375-.063a.639.639 0 00.281-.188.766.766 0 00.156-.28 1.03 1.03 0 00.063-.345zM3.89.345a.454.454 0 00-.22-.406c-.136-.094-.327-.141-.577-.141L2.047-.234a1.852 1.852 0 00-.235.218 1.104 1.104 0 00-.156.188.577.577 0 00-.062.172 1.013 1.013 0 00-.016.187c0 .196.098.344.297.438.195.101.473.156.828.156.219 0 .399-.023.547-.063a.94.94 0 00.375-.187.674.674 0 00.266-.531zm0 0"/></symbol><symbol overflow="visible" id="aE"><path d="M5.172-.188c0 .063-.024.11-.063.141a.422.422 0 01-.187.063 4.202 4.202 0 01-.75 0A.369.369 0 014-.047c-.031-.031-.047-.078-.047-.14v-.407c-.21.23-.453.414-.734.547a2.15 2.15 0 01-.906.188c-.282 0-.54-.04-.766-.11a1.875 1.875 0 01-.61-.312 1.48 1.48 0 01-.39-.531 2.041 2.041 0 01-.125-.75c0-.301.055-.563.172-.782a1.38 1.38 0 01.531-.562c.238-.145.531-.25.875-.313a6.27 6.27 0 011.219-.11h.515v-.312c0-.164-.023-.312-.062-.437a.653.653 0 00-.156-.297.705.705 0 00-.313-.188 1.529 1.529 0 00-.453-.062 2.2 2.2 0 00-.672.094c-.187.054-.355.11-.5.172a2.783 2.783 0 00-.375.187.483.483 0 01-.234.078.238.238 0 01-.125-.031.327.327 0 01-.078-.125.598.598 0 01-.047-.188 1.585 1.585 0 01-.016-.25c0-.125.008-.218.031-.28a.418.418 0 01.11-.188.788.788 0 01.281-.188c.133-.07.29-.133.469-.187.187-.063.39-.11.61-.14.218-.04.44-.063.671-.063.406 0 .754.043 1.047.125.289.074.531.195.719.359.187.168.32.383.406.64.082.262.125.57.125.923zM3.734-2.405h-.562a3.33 3.33 0 00-.61.047 1.052 1.052 0 00-.406.156.718.718 0 00-.234.265.638.638 0 00-.078.329c0 .218.066.39.203.515.144.125.336.188.578.188.207 0 .398-.051.578-.156.176-.102.352-.254.531-.454zm0 0"/></symbol><symbol overflow="visible" id="aF"><path d="M9.016-.203a.2.2 0 01-.032.11.238.238 0 01-.125.077c-.054.012-.125.02-.218.032a4.263 4.263 0 01-.72 0c-.093-.012-.171-.02-.234-.032a.204.204 0 01-.109-.078.172.172 0 01-.031-.11V-3.28c0-.176-.016-.336-.047-.485a1.085 1.085 0 00-.156-.375.654.654 0 00-.25-.234.856.856 0 00-.375-.078c-.168 0-.344.07-.532.203a3.54 3.54 0 00-.578.594v3.453a.148.148 0 01-.046.11.24.24 0 01-.11.077c-.055.012-.125.02-.219.032a4.263 4.263 0 01-.718 0c-.086-.012-.157-.02-.22-.032a.327.327 0 01-.124-.078.172.172 0 01-.031-.11V-3.28c0-.176-.016-.336-.047-.485a1.085 1.085 0 00-.157-.375.654.654 0 00-.25-.234.823.823 0 00-.359-.078.905.905 0 00-.547.203 3.54 3.54 0 00-.578.594v3.453a.2.2 0 01-.031.11.238.238 0 01-.125.077c-.055.012-.125.02-.219.032a4.263 4.263 0 01-.719 0C1.016.004.941-.004.891-.016a.327.327 0 01-.125-.078.172.172 0 01-.032-.11v-5.202c0-.04.008-.07.032-.094.02-.031.054-.055.109-.078a.935.935 0 01.188-.047 3.032 3.032 0 01.609 0 .72.72 0 01.187.047c.051.023.082.047.094.078a.14.14 0 01.031.094v.61a3.56 3.56 0 01.86-.704 1.89 1.89 0 01.906-.234c.207 0 .395.023.563.062.175.043.332.106.468.188.133.086.25.187.344.312.102.117.188.246.25.39.156-.163.305-.312.453-.437.156-.125.305-.222.453-.297.145-.07.29-.125.438-.156.144-.039.289-.062.437-.062.352 0 .645.058.875.171.239.118.43.278.578.485.145.2.25.433.313.703.062.262.094.543.094.844zm0 0"/></symbol><symbol overflow="visible" id="aG"><path d="M7.094-3.89c0 .699-.094 1.292-.282 1.78-.18.493-.437.891-.78 1.204a3.052 3.052 0 01-1.235.687C4.317-.07 3.742 0 3.078 0H1.281a.47.47 0 01-.328-.11C.867-.19.828-.315.828-.483v-6.579c0-.175.04-.3.125-.375a.489.489 0 01.328-.109H3.22c.664 0 1.234.078 1.703.234.469.157.863.391 1.187.704.32.304.567.683.735 1.14.164.461.25.985.25 1.578zm-1.578.062a3.83 3.83 0 00-.125-1 2.027 2.027 0 00-.407-.797 1.9 1.9 0 00-.718-.531c-.293-.125-.672-.188-1.141-.188h-.766v5.125h.797c.414 0 .766-.05 1.047-.156.29-.113.531-.281.719-.5a2.06 2.06 0 00.437-.813 3.89 3.89 0 00.157-1.14zm0 0"/></symbol><symbol overflow="visible" id="aI"><path d="M3.813-.719c0 .18-.012.313-.032.406a.42.42 0 01-.094.188.381.381 0 01-.156.11c-.062.019-.14.038-.234.062-.086.02-.184.035-.297.047-.105.008-.21.015-.313.015A2.48 2.48 0 011.922 0a1.3 1.3 0 01-.531-.328 1.552 1.552 0 01-.313-.578 3.352 3.352 0 01-.094-.844v-2.656H.36c-.074 0-.132-.047-.171-.14A1.556 1.556 0 01.14-5v-.281a.501.501 0 01.047-.188.24.24 0 01.078-.11.2.2 0 01.109-.03h.61v-1.157a.18.18 0 01.03-.109c.02-.031.055-.055.11-.078.063-.02.14-.035.234-.047a4.184 4.184 0 01.72 0c.093.012.163.027.218.047.05.023.086.047.11.078.03.031.046.07.046.11v1.156h1.125a.21.21 0 01.11.03c.03.024.05.06.062.11a.72.72 0 01.047.188c.008.074.015.168.015.281 0 .21-.023.36-.062.453-.031.094-.086.14-.156.14h-1.14v2.438c0 .282.038.496.124.64.094.15.254.22.485.22.082 0 .156-.004.218-.016l.156-.047.126-.047a.179.179 0 01.093-.031c.02 0 .04.012.063.031.02.012.035.04.047.078.007.043.02.102.03.172.009.063.017.149.017.25zm0 0"/></symbol><symbol overflow="visible" id="aK"><path d="M2.469-1.078c0 .156-.012.297-.031.422-.012.125-.04.246-.079.36a1.224 1.224 0 01-.14.327 4.315 4.315 0 01-.188.344l-.781 1.11a.53.53 0 01-.094.093.253.253 0 01-.125.063.713.713 0 01-.172.046 2.019 2.019 0 01-.25.016c-.117 0-.21-.008-.28-.016a.419.419 0 01-.142-.046c-.03-.024-.046-.047-.046-.079 0-.03.004-.07.015-.109l.719-1.61v-.921c0-.125.016-.227.047-.313a.387.387 0 01.14-.187.696.696 0 01.25-.078 1.97 1.97 0 01.375-.032c.133 0 .25.012.344.032a.595.595 0 01.25.078c.063.043.11.105.14.187a.908.908 0 01.048.313zm0 0"/></symbol><symbol overflow="visible" id="aH"><path d="M3.922-8.516c.062-.125.062-.156.062-.203 0-.14-.109-.25-.25-.25-.093 0-.187.063-.265.281L1.375-3.202c-.031.078-.063.14-.063.219 0 .03 0 .062.063.203l2.094 5.484c.047.125.11.281.265.281.141 0 .25-.109.25-.234 0-.031 0-.063-.062-.188l-2.11-5.546zm0 0"/></symbol><symbol overflow="visible" id="aJ"><path d="M3.266-2.781c.062-.14.062-.172.062-.203 0-.047 0-.063-.062-.204l-2.094-5.5c-.078-.203-.14-.28-.281-.28-.125 0-.235.109-.235.25 0 .03 0 .046.063.187l2.11 5.547L.718 2.53c-.063.14-.063.156-.063.219 0 .125.11.234.235.234.156 0 .203-.109.25-.234zm0 0"/></symbol><clipPath id="a"><path d="M43 77.016h28V110H43zm0 0"/></clipPath><clipPath id="b"><path d="M79 129h5v5.418h-5zm0 0"/></clipPath><clipPath id="c"><path d="M84 129h5v5.418h-5zm0 0"/></clipPath><clipPath id="d"><path d="M89 129h5v5.418h-5zm0 0"/></clipPath><clipPath id="e"><path d="M95 129h5v5.418h-5zm0 0"/></clipPath><clipPath id="f"><path d="M100 129h5v5.418h-5zm0 0"/></clipPath><clipPath id="g"><path d="M105 129h7v5.418h-7zm0 0"/></clipPath><clipPath id="h"><path d="M112 129h5v5.418h-5zm0 0"/></clipPath><clipPath id="i"><path d="M117 129h5v5.418h-5zm0 0"/></clipPath><clipPath id="j"><path d="M122 129h5v5.418h-5zm0 0"/></clipPath><clipPath id="k"><path d="M127 129h7v5.418h-7zm0 0"/></clipPath><clipPath id="l"><path d="M138 129h5v5.418h-5zm0 0"/></clipPath><clipPath id="m"><path d="M143 129h5v5.418h-5zm0 0"/></clipPath><clipPath id="n"><path d="M152 129h5v5.418h-5zm0 0"/></clipPath><clipPath id="o"><path d="M157 129h5v5.418h-5zm0 0"/></clipPath><clipPath id="p"><path d="M162 129h5v5.418h-5zm0 0"/></clipPath><clipPath id="q"><path d="M167 129h5v5.418h-5zm0 0"/></clipPath><clipPath id="r"><path d="M172 129h5.012v5.418H172zm0 0"/></clipPath><clipPath id="s"><path d="M17.25 89H46v43H17.25zm0 0"/></clipPath><clipPath id="t"><path d="M35 93h38v41.418H35zm0 0"/></clipPath><clipPath id="u"><path d="M0 180h191v661.89H0zm0 0"/></clipPath></defs><path d="M0 841.89h595.277V0H0zm0 0" fill="#fff"/><g clip-path="url(#a)"><path d="M47.46 81.633c3.185-3 7.58-4.54 11.915-4.617 2.188-.008 4.445.355 6.355 1.468 1.856 1.047 3.172 2.875 3.86 4.864.902 2.64.953 5.484.738 8.238-.637 6.426-3.23 12.7-7.539 17.535-.25.27-.45.606-.773.797-.243-.106-.207-.332-.118-.535a15.806 15.806 0 00.696-8.258c-.598-3.305-2.235-6.43-4.664-8.754-1.598-1.648-3.621-2.867-5.778-3.64-2.742-.961-5.746-1.075-8.59-.524a14.092 14.092 0 013.899-6.574" fill="#4383a1"/></g><path d="M84.61 93.922c-.563.101-1.067.59-1.044 1.187-.015 1.957 0 3.918-.004 5.875-.058.735.618 1.383 1.34 1.364 2.875.015 5.754.004 8.633.007.695.055 1.375-.546 1.363-1.253.008-1.997.008-3.993 0-5.989.043-.68-.609-1.238-1.261-1.226-2.602-.004-5.203 0-7.805-.004-.406.008-.816-.024-1.223.039m-.718-4.758c2.671-.102 5.351-.016 8.023-.047 1.113.028 2.246-.09 3.34.172 1.77.422 3.277 1.758 3.98 3.43.325.754.45 1.582.434 2.402-.008 2.18.02 4.36-.012 6.54-.097 2.866-2.656 5.386-5.523 5.448-3.188.036-6.375 0-9.563.016-.308.004-.68.074-.843.371-.192.36-.16.781-.168 1.176.011.715-.016 1.433.011 2.148.016.375.18.793.559.934.363.105.75.074 1.121.078 4.406-.004 8.809.004 13.215-.004.25.008.515 0 .746.113.223.125.234.407.242.63 0 1.074.004 2.152 0 3.226.031.32-.152.687-.516.68-4.863.015-9.73 0-14.593.007-2.383-.027-4.621-1.742-5.301-4.02-.246-.741-.25-1.526-.25-2.3.008-5.125-.012-10.254.012-15.383.004-2.789 2.324-5.32 5.086-5.617m25.199.074c.773-.144 1.566-.117 2.351-.117 4.211 0 8.422 0 12.63-.004.284.02.628 0 .835.235.262.285.223.699.235 1.058-.016.883.011 1.766-.012 2.645.004.324-.164.668-.48.777-.34.082-.692.05-1.036.055-4.363-.004-8.722 0-13.086-.004-.285.015-.601-.008-.84.172-.226.218-.203.554-.214.843.004 2.141.004 4.278 0 6.418.015.282-.008.621.222.832.215.215.547.192.828.207 2.793 0 5.586.004 8.38 0 .816-.027 1.644.055 2.413.352 1.614.57 2.926 1.906 3.489 3.52.52 1.37.273 2.863.332 4.289a5.688 5.688 0 01-1.27 3.808c-1.074 1.29-2.687 2.149-4.383 2.16-4.75-.004-9.504 0-14.257 0-.32.016-.711-.113-.778-.464-.113-.641-.035-1.297-.054-1.942.02-.605-.067-1.223.062-1.816.113-.38.563-.418.895-.426 4.628-.008 9.257 0 13.886-.004.375.027.797-.207.797-.621.047-.887.004-1.773.02-2.66-.008-.364.039-.739-.055-1.09-.129-.29-.473-.34-.754-.34-2.984-.004-5.973.008-8.96-.004-1.364-.008-2.766-.39-3.829-1.273-1.316-.95-2.055-2.574-2.062-4.184-.008-2.215 0-4.433 0-6.648-.012-1.578.632-3.157 1.777-4.25.793-.782 1.828-1.301 2.918-1.524m26.613 4.664c-.394.04-.785.25-1.004.586-.191.285-.172.645-.176.977.008 1.879-.003 3.762.008 5.64-.011.704.676 1.274 1.36 1.247 2.875.011 5.754.003 8.629.003.687.047 1.355-.566 1.332-1.257v-5.989c.046-.703-.649-1.27-1.325-1.222-2.941.008-5.882-.024-8.824.015m-.828-4.738c2.676-.102 5.352-.02 8.027-.043.98.016 1.973-.062 2.946.09 2.586.43 4.722 2.816 4.77 5.45.003 2.296.003 4.593 0 6.894-.036 2.453-1.876 4.699-4.22 5.351-.683.203-1.402.219-2.109.219-2.871-.004-5.742 0-8.613-.004-.367 0-.84.043-1.02.426-.195.418-.117.906-.133 1.355.024.73-.046 1.47.047 2.196.059.472.54.761.993.73 4.671.008 9.34 0 14.007.004.278.012.64.016.782.309.09.367.043.75.054 1.129-.015.918.024 1.84-.02 2.761 0 .293-.312.465-.577.45-4.829.007-9.66 0-14.489.003-1.636-.015-3.21-.82-4.246-2.07-.887-1-1.324-2.344-1.312-3.672-.008-5.015 0-10.031-.004-15.047 0-.699-.008-1.41.156-2.093.512-2.317 2.602-4.188 4.961-4.438m26.215 4.734c-.356.008-.692.278-.66.653-.016 2.258.004 4.515-.008 6.773.012.293-.016.649.234.856.239.199.57.168.86.18 2.953-.012 5.902.007 8.855-.008.379.027.664-.332.645-.692.007-2.37.004-4.742 0-7.113.047-.426-.383-.711-.77-.664-3.055.012-6.105-.016-9.156.015m-1.016-4.664c.703-.129 1.422-.117 2.133-.117h6.895c.953.004 1.933-.047 2.855.242 2.55.72 4.336 3.36 4.145 5.989-.004 2.03.003 4.066-.004 6.097-.04 2.942-2.633 5.625-5.598 5.668-3.07.024-6.145.004-9.219.008-.23.008-.496.012-.676.176-.187.172-.164.45-.18.683-.003 2.528 0 5.055 0 7.586-.003.258-.03.547-.222.746-.207.184-.504.165-.762.172-1.074-.007-2.148.004-3.222-.004-.262-.003-.563-.066-.715-.304-.172-.242-.152-.555-.164-.836.008-6.77-.004-13.535.008-20.305-.016-1.648.648-3.316 1.894-4.414.785-.726 1.79-1.187 2.832-1.387M80.64 121.941c.012.426-.07.868.047 1.286.52.074 1.051.02 1.579.027.007-.438.004-.879.004-1.317-.543 0-1.086 0-1.63.004m-.82.059c-.02-.477.356-.969.856-.969.527-.023 1.062-.02 1.59-.004.496.004.925.461.918.953.011.473.015.942-.004 1.415a.664.664 0 01-.57.652c-.637.062-1.282-.04-1.915.047-.039.136-.07.277-.086.422.844.039 1.7-.051 2.543.05.063.282.032.575.024.864a56.2 56.2 0 01-2.531 0c-.465-.008-.829-.465-.825-.914a117.23 117.23 0 010-2.516m4.012-.305c.14-.39.54-.668.953-.668.817-.015 1.633-.02 2.445.012.016.3.004.606-.082.898-.785.004-1.57 0-2.351 0 0 .438-.004.88.004 1.317.617.043 1.254-.082 1.851.09.961.367.696 2.058-.343 2.086-.848-.008-1.715.09-2.551-.067.004-.25.008-.496.015-.742.832-.2 1.696-.055 2.54-.098.003-.109.007-.324.007-.433-.55-.055-1.11.004-1.66-.043-.492-.047-.926-.508-.894-1.012-.004-.45-.047-.906.066-1.34m4.086.293c.016-.484.41-.945.906-.957.496-.027.989-.015 1.485-.008.324.016.75.098.863.454.191.441.133.941.094 1.41-.286 0-.575-.004-.86-.012-.039-.309-.043-.625-.047-.938h-1.515v2.586h1.52c.019-.34-.055-.695.07-1.015.261-.082.539-.059.804-.024.117.336.059.7.051 1.047-.02.496-.473.934-.973.91-.511.004-1.023.012-1.53-.007-.505-.032-.884-.524-.872-1.012-.008-.813-.016-1.625.004-2.434m4.977-.047c-.004.86 0 1.72 0 2.582h1.52v-2.585c-.509 0-1.017 0-1.52.003m-.364-.828c.387-.152.817-.078 1.223-.097.406.02.879-.075 1.215.218.261.204.386.536.379.868.004.77.004 1.539 0 2.312.027.5-.38 1.004-.891 1.02-.574.011-1.148.03-1.719-.012-.508-.098-.82-.637-.765-1.133.007-.762-.012-1.527.007-2.289a1.006 1.006 0 01.551-.887m3.504-.082c.297-.011.602-.011.899.008.015 1.16.004 2.324.007 3.484.66.012 1.325-.03 1.985.02.297.172.101.602.133.883-.774.023-1.547.023-2.32.011-.29 0-.555-.203-.66-.468-.079-.258-.056-.528-.06-.793.012-1.047-.011-2.098.016-3.145m4.539 3.492h1.621c0-.433 0-.863-.004-1.293-.53 0-1.062-.003-1.597.004-.028.43-.024.856-.02 1.29m-.808-2.626c.027-.277-.11-.644.086-.863.722-.039 1.449-.008 2.171-.015.551-.036 1.114.418 1.102.992.012.8.004 1.601.004 2.402a1 1 0 01-.543.906c-.574.235-1.223.082-1.828.121a.911.911 0 01-.985-.796c-.039-.54-.023-1.086-.011-1.625-.02-.31.234-.61.547-.61.625-.035 1.257 0 1.882-.015l.004-.457c-.808-.016-1.62.046-2.43-.04m7.247.196c-.024-.551.437-1.063.996-1.067.797-.011 1.594-.027 2.39.008.165.238.09.602 0 .867-.78.086-1.574.012-2.359.035 0 .438-.004.88.004 1.317.594.031 1.195-.055 1.781.066.832.239.875 1.524.188 1.953-.282.207-.653.16-.98.172-.614-.02-1.227.028-1.837-.023-.261-.047-.183-.371-.191-.559-.055-.242.21-.336.406-.336.715-.02 1.434.004 2.153-.007l-.012-.438c-.68-.098-1.434.14-2.063-.18-.648-.37-.472-1.191-.476-1.808m4.164-1.071c.25.028.566-.085.777.075.047 1.14 0 2.285.024 3.425h1.632c.004-1.16-.011-2.324.008-3.484.29-.016.578-.023.863-.023.133 1.086.028 2.191.063 3.285.066.539-.336 1.113-.898 1.133-.547.015-1.098.02-1.645-.004-.52-.004-.875-.54-.844-1.028.004-1.129-.027-2.254.02-3.379m4.859.918c.016.422-.05.86.047 1.274.516.097 1.047.023 1.57.043.004-.442.004-.88.004-1.32-.539 0-1.078 0-1.62.003m-.434-.718c.386-.301.906-.18 1.359-.207.445.007 1.004-.067 1.305.343.359.52.168 1.204.203 1.793.008.45-.364.883-.82.895-.532.043-1.067-.004-1.602.031-.024.414.012.828-.031 1.238-.168.258-.551.075-.813.079 0-1.094-.004-2.192 0-3.286-.004-.336.121-.687.399-.886m4.582.718c0 .438-.004.875.011 1.313.5.008 1.004.004 1.508.004.004-.442.004-.88.004-1.32-.508 0-1.016 0-1.523.003m-.914.047c.007-.488.41-.953.91-.96.492-.02.988-.012 1.48-.005.485-.015.922.395.961.872.035.488.027.984.008 1.472.008.344-.27.676-.621.688-.602.03-1.207-.008-1.809.015-.011.149-.015.297-.023.45.82.027 1.644-.047 2.46.046.005.293 0 .582-.019.875-.824-.007-1.644.016-2.469-.007-.511-.02-.906-.524-.882-1.02-.004-.809-.012-1.617.004-2.426m4.054-.062c.028-.496.48-.922.98-.903.493-.007.993-.015 1.485.008.445.016.84.399.883.836.027.344.035.688 0 1.031-.2.211-.567.079-.832.079-.125-.332-.059-.696-.074-1.04-.508 0-1.024 0-1.532.004-.02 1.16.028 2.329-.027 3.493-.289.007-.578.007-.867.011-.047-1.172-.028-2.347-.016-3.52m4.051-.894c.293-.011.582-.011.875-.008.012.282.14.614-.043.864-.254.101-.555.066-.816-.004-.047-.285-.028-.57-.016-.852m2.402.91c-.007.86-.007 1.72 0 2.582h1.633v-2.585c-.543 0-1.09 0-1.633.003m-.27-.843c.43-.137.895-.063 1.34-.082.372.011.805-.055 1.114.21.266.208.394.547.383.88 0 .769.004 1.539-.004 2.312.027.5-.383 1.004-.899 1.016-.425.02-.851.007-1.277.011-.289-.007-.617.016-.844-.195-.293-.223-.375-.605-.367-.953.008-.766-.012-1.531.012-2.297 0-.371.2-.742.543-.902m3.512 1.004c-.024-.418.21-.844.601-1.008.399-.133.832-.059 1.246-.078.422.004.938-.055 1.242.304.426.446.258 1.114.266 1.668-.285.008-.57.012-.852.012-.082-.348-.07-.707-.07-1.063-.539 0-1.078 0-1.613.004-.008 1.168.004 2.332-.008 3.5-.27 0-.539-.004-.805-.011-.015-1.11-.007-2.22-.007-3.328m8.171 1.14a38.89 38.89 0 000 1.278c.543.003 1.086.003 1.63.003.003-.43.003-.863.003-1.293-.547 0-1.09-.007-1.633.012m1.657-2.133c.191-.187.527-.046.78-.082.028 1.125.009 2.25.013 3.375.03.446-.25.942-.72 1.012-.542.055-1.089.031-1.636.023-.398-.003-.726-.332-.851-.69-.102-.493-.082-1-.043-1.497.015-.469.453-.84.91-.844.504-.023 1.004-.004 1.508-.008.027-.43-.012-.863.039-1.289m2.386.836c0 .434-.011.871.036 1.305.53.016 1.066.008 1.597.008.008-.438.004-.88.004-1.32-.543 0-1.09-.004-1.637.007m-.8-.039c.046-.453.43-.863.894-.879.496-.023.992-.011 1.488-.004.516-.02.98.442.98.957.013.497.032.997-.01 1.493a.663.663 0 01-.614.578c-.621.047-1.246-.024-1.863.031-.051.137-.079.281-.11.426.867.05 1.738-.04 2.602.058.004.293 0 .586-.02.875-.828-.007-1.656.016-2.484-.007-.512-.024-.895-.532-.879-1.024.004-.836-.027-1.672.016-2.504m-17.051.297c.285-.008.574-.008.867-.004.078 1.078.07 2.168.004 3.246-.293-.004-.582-.004-.875-.007a59.523 59.523 0 01.004-3.235" fill="#4383a1"/><g clip-path="url(#b)"><path d="M80.867 130.16c-.031.465-.031.926.016 1.387a58.85 58.85 0 001.879.008c.043-.45.066-.907.015-1.356-.625-.11-1.273-.027-1.91-.039m-1.039-.012c-.008-.523.438-.949.942-1 .648-.062 1.304-.039 1.957-.02.488.009 1 .333 1.074.849.062.507.047 1.03.015 1.546-.035.547-.507 1.075-1.078 1.067-.629.015-1.258-.016-1.886.02 0 .222-.004.445-.004.667.976.016 1.953-.011 2.925.016.047.328.059.66.047.992h-3.308c-.45-.183-.711-.668-.696-1.144 0-.996-.02-1.996.012-2.993" fill="#4383a1"/></g><g clip-path="url(#c)"><path d="M84.867 129.117c.977.012 1.95-.02 2.922.008.602.004 1.2.504 1.156 1.137-.02 1.34.043 2.683-.039 4.023h-.976c-.047-1.375-.004-2.758-.024-4.133-.68 0-1.363-.004-2.047 0-.007 1.38.008 2.758-.007 4.133h-.985c-.086-.726-.027-1.457-.043-2.187.02-.993-.047-1.993.043-2.98" fill="#4383a1"/></g><g clip-path="url(#d)"><path d="M90.273 129.43c.516-.446 1.247-.282 1.868-.317.601-.015 1.394-.035 1.703.602.203.535.09 1.133.097 1.695-.324.004-.648.02-.968-.031-.082-.402-.047-.82-.051-1.227-.649 0-1.3-.004-1.945 0-.008.47-.008.938-.008 1.407.57 0 1.144-.02 1.71.039 0 .308.016.62-.027.93-.547.136-1.125.035-1.683.062 0 .566.004 1.133-.012 1.695h-1.008c-.031-1.222-.004-2.45-.015-3.672.004-.414.004-.894.34-1.183" fill="#4383a1"/></g><g clip-path="url(#e)"><path d="M96.133 131.55c.625.009 1.258.02 1.883-.007.004-.445.12-.938-.043-1.352-.614-.09-1.235-.02-1.852-.039-.039.465-.039.934.012 1.399m-.926-1.895c.305-.539.992-.558 1.535-.543.656.043 1.434-.148 1.977.325.539.464.328 1.242.363 1.863.043.656-.52 1.304-1.187 1.289-.602.012-1.2-.008-1.797.004-.004.226-.004.457-.004.687.957.012 1.91-.031 2.863.028.008.328.008.648.004.976h-3.242a1.207 1.207 0 01-.649-1.043c-.027-.648 0-1.293-.011-1.941.03-.547-.098-1.133.148-1.645" fill="#4383a1"/></g><g clip-path="url(#f)"><path d="M100.363 129.508c.45-.496 1.18-.38 1.782-.395.53.02 1.132-.086 1.593.246.332.223.489.621.461 1.012-.023.336.07.719-.097 1.027-.329-.007-.758.133-1.024-.097-.047-.383-.02-.77-.02-1.149-.652 0-1.3-.004-1.953 0-.011 1.38.016 2.754-.011 4.133h-.977c-.105-1.105-.015-2.222-.047-3.336.016-.484-.105-1.066.293-1.441" fill="#4383a1"/></g><g clip-path="url(#g)"><path d="M105.098 129.125c1.582-.02 3.164-.004 4.746-.008.422-.012.883.102 1.148.453.317.344.219.84.238 1.266-.03 1.152.04 2.3-.043 3.45h-.976c-.047-1.38-.008-2.759-.023-4.134a97.514 97.514 0 00-1.512 0c-.016 1.38.011 2.758-.016 4.133h-.992c-.074-1.375-.012-2.758-.031-4.133a98.524 98.524 0 00-1.52 0c-.023 1.375.031 2.758-.027 4.133h-.992a174.794 174.794 0 010-5.16" fill="#4383a1"/></g><g clip-path="url(#h)"><path d="M113.422 131.895c-.11.445-.05.914-.04 1.37.462.02.923.016 1.384.02.168-.031.39.043.527-.082.059-.45.031-.902-.027-1.348-.61.008-1.235-.07-1.844.04m-1.09-2.766c.89-.02 1.785-.012 2.676-.012.422-.012.87.13 1.125.48.25.278.215.673.222 1.016-.015.88.012 1.762-.011 2.64.004.52-.453.9-.918 1.032h-2.114c-.43-.058-.867-.344-.94-.8-.075-.532-.06-1.075-.02-1.606a1.15 1.15 0 011.03-1.043c.645-.059 1.286-.012 1.93-.027 0-.22.004-.438.004-.657-.964-.004-1.933-.004-2.898 0a4.74 4.74 0 01-.086-1.023" fill="#4383a1"/></g><g clip-path="url(#i)"><path d="M118.387 130.195c-.02.45-.024.899.02 1.348.632.023 1.257.016 1.89.008.043-.461.039-.926.012-1.387-.641-.016-1.286-.047-1.922.031m-1.043.063c-.04-.602.52-1.094 1.097-1.125a17.564 17.564 0 011.977.008c.562.039 1.086.539 1.043 1.125.004.957.004 1.918 0 2.875.016.492-.258 1.03-.77 1.144h-3.12c-.008-.234-.024-.465-.008-.7 0-.116.027-.327.195-.292.855-.035 1.715 0 2.57-.012 0-.23 0-.46-.004-.691-.511 0-1.02.004-1.531.008-.387.023-.797-.051-1.07-.348-.567-.504-.348-1.324-.38-1.992" fill="#4383a1"/></g><g clip-path="url(#j)"><path d="M123.527 130.18a4.09 4.09 0 00.012 1.343c.617.079 1.242.016 1.863.036.008-.457.141-.973-.047-1.399-.609-.012-1.222-.039-1.828.02m-1.027-.246c.145-.47.621-.79 1.105-.805a18.066 18.066 0 011.84.008c.489.027.973.394 1.008.902.043.5.04 1.008.004 1.508-.039.52-.473 1.004-1 1.035-.648.031-1.297-.008-1.945.02l-.035.671c.851.02 1.703 0 2.558.008.137.008.3-.008.418.094.035.3.016.605.012.91h-3.055c-.437-.117-.875-.437-.937-.914-.055-.648-.008-1.305-.02-1.957.012-.492-.047-.992.047-1.48" fill="#4383a1"/></g><g clip-path="url(#k)"><path d="M127.598 129.121c1.504-.012 3.007.004 4.511-.008.434-.004.93.028 1.243.375.289.297.265.742.273 1.125-.012 1.227.008 2.45-.012 3.672h-1c-.066-1.375-.008-2.754-.027-4.133a98.524 98.524 0 00-1.52 0c-.007 1.38.016 2.754-.011 4.133h-.973c-.11-1.375-.023-2.758-.05-4.133a86.267 86.267 0 00-1.423 0c-.007 1.375.024 2.754-.015 4.133h-.992a113.793 113.793 0 01-.004-5.164" fill="#4383a1"/></g><g clip-path="url(#l)"><path d="M139.703 131.863c-.016.469-.012.938-.008 1.407.649.02 1.301.011 1.95.007 0-.476.003-.949-.004-1.425-.645-.008-1.293-.02-1.938.011m1.98-2.715c.305-.003.758-.171.97.102.07.64.007 1.293.027 1.938-.02.757.043 1.515-.032 2.265-.054.469-.5.77-.933.832h-2.082c-.45-.105-.863-.441-.938-.914-.062-.465-.05-.934-.023-1.398.023-.59.547-1.114 1.14-1.145.61-.043 1.223-.008 1.833-.02.011-.55-.04-1.109.039-1.66" fill="#4383a1"/></g><g clip-path="url(#m)"><path d="M144.82 130.152v3.13c.649-.005 1.301.007 1.95-.012.003-1.04.003-2.079 0-3.118-.653-.004-1.301 0-1.95 0m-1.023-.004c-.012-.515.422-.972.93-1.007.656-.047 1.32-.04 1.98-.008.578.027 1.133.527 1.098 1.133 0 .996.007 1.992-.008 2.988 0 .539-.496.957-1.004 1.031h-2.137c-.488-.094-.883-.527-.863-1.031-.016-1.035-.02-2.07.004-3.106" fill="#4383a1"/></g><g clip-path="url(#n)"><path d="M153.66 130.152c0 .47 0 .934.004 1.407h1.852v-1.407zm-.742-.675c.316-.344.812-.364 1.246-.364.5.008 1.004-.027 1.504.035.5.067.93.504.969 1.012.027.422.023.844.004 1.266-.004.625-.578 1.195-1.211 1.164-.586.012-1.176-.004-1.766.004-.008.562.02 1.129-.031 1.691h-.985c-.039-1.187-.007-2.37-.023-3.558.008-.426-.031-.922.293-1.25" fill="#4383a1"/></g><g clip-path="url(#o)"><path d="M158.676 130.152c-.008 1.04-.004 2.078-.004 3.118.683.015 1.367.015 2.05.003 0-1.043.005-2.082 0-3.12-.683 0-1.367-.005-2.046 0m-1.031.105c-.032-.606.52-1.102 1.101-1.125a19.842 19.842 0 011.867-.004c.516.008 1.047.375 1.13.906.042 1.035.003 2.07.019 3.106.054.574-.434 1.047-.969 1.144h-2.203c-.48-.117-.942-.512-.942-1.035-.02-1-.011-1.996-.003-2.992" fill="#4383a1"/></g><g clip-path="url(#p)"><path d="M163.059 129.508c.453-.508 1.187-.375 1.796-.395.586.016 1.352-.113 1.73.461.321.547.145 1.227.173 1.832-.324.004-.653.028-.973-.023-.082-.406-.047-.824-.05-1.23-.65 0-1.298-.005-1.946 0-.016 1.374.008 2.753-.012 4.132h-.984c-.066-1.148-.008-2.297-.031-3.445.008-.453-.075-.988.297-1.332" fill="#4383a1"/></g><g clip-path="url(#q)"><path d="M167.902 129.113c.328 0 .657.008.989.016.023.562.015 1.121.015 1.684.547.019 1.106-.07 1.64.062.134.29.079.637.032.945-.555.055-1.113.016-1.668.024-.004.476-.004.953 0 1.43.649.011 1.297.007 1.95.007.023-.422-.075-.87.085-1.27.313-.046.625-.015.942.009 0 .484.047.976-.032 1.464-.074.453-.515.75-.949.801h-2.101c-.508-.086-.942-.515-.922-1.05-.008-1.376-.031-2.747.02-4.122" fill="#4383a1"/></g><g clip-path="url(#r)"><path d="M174.023 130.152c-.007 1.04 0 2.078-.003 3.121.652.012 1.3.012 1.953-.003 0-1.04 0-2.079-.004-3.118a157.79 157.79 0 00-1.946 0m-.707-.714c.442-.407 1.086-.31 1.637-.325.582.024 1.266-.105 1.742.325.356.328.309.847.317 1.289-.024.875.027 1.757-.024 2.632-.015.5-.468.856-.937.926h-2.09c-.477-.062-.926-.426-.95-.93-.062-.84-.007-1.68-.03-2.52.011-.476-.051-1.042.335-1.398" fill="#4383a1"/></g><g clip-path="url(#s)"><path d="M27.93 89.508c3.449-.64 6.996-.438 10.437.14.219.032.442.082.653.165-.297.214-.618.394-.93.59-2.3 1.476-4.235 3.534-5.524 5.952a15.996 15.996 0 00-1.73 5.598c-.473 3.945.32 7.934 1.629 11.652.555 1.41 1.086 2.836 1.754 4.204 2.105 4.328 5.004 8.285 8.55 11.546.708.668 1.504 1.239 2.235 1.883.004.219-.102.297-.32.23-6.727-1.863-12.836-5.698-17.672-10.706a45.253 45.253 0 01-7.207-9.797c-1.637-3.121-2.735-6.633-2.532-10.192.137-2.703 1.145-5.402 3.028-7.378 1.984-2.153 4.797-3.34 7.629-3.887" fill="#b0d5d5"/></g><g clip-path="url(#t)"><path d="M71.621 95.027c.113-.437.09-.941.402-1.3.07.203.102.418.102.632.063 2.868-.242 5.754-.996 8.528-1.184 4.617-3.445 8.843-5.473 13.125-1.695 3.547-3.113 7.281-3.629 11.199-.215 1.664-.39 3.36-.988 4.945-.336.938-.996 1.871-2.012 2.13-1.332.347-2.699-.063-3.996-.38a26.542 26.542 0 01-11.87-6.562c-3.27-3.117-5.774-7-7.458-11.188.02-.336.348-.11.48.02a16.39 16.39 0 009.641 3.906c2.68.188 5.356-.418 7.832-1.39 3.614-1.426 6.766-3.84 9.36-6.704a36.743 36.743 0 008.605-16.96" fill="#73abb9"/></g><path d="M0 30.457h190.215V-.023H0zm0 0" fill="#4283a1"/><g clip-path="url(#u)"><path d="M.105 841.906h190.211v-660.93H.106zm0 0" fill="#4283a1"/></g><use xlink:href="#v" x="300.091" y="100.518"/><use xlink:href="#w" x="309.935" y="100.518"/><use xlink:href="#x" x="319.69" y="100.518"/><use xlink:href="#y" x="327.969" y="100.518"/><use xlink:href="#z" x="335.033" y="100.518"/><use xlink:href="#v" x="339.017" y="100.518"/><use xlink:href="#A" x="348.861" y="100.518"/><use xlink:href="#y" x="361.745" y="100.518"/><use xlink:href="#B" x="368.809" y="100.518"/><use xlink:href="#C" x="376.719" y="100.518"/><use xlink:href="#D" x="386.147" y="100.518"/><use xlink:href="#D" x="396.254" y="100.518"/><use xlink:href="#E" x="406.36" y="100.518"/><use xlink:href="#D" x="416.058" y="100.518"/><use xlink:href="#F" x="426.164" y="100.518"/><use xlink:href="#G" x="436.401" y="100.518"/><use xlink:href="#D" x="444.354" y="100.518"/><use xlink:href="#x" x="454.461" y="100.518"/><use xlink:href="#H" x="462.74" y="100.518"/><use xlink:href="#D" x="469.735" y="100.518"/><use xlink:href="#I" x="337.486" y="131.126"/><use xlink:href="#J" x="348.411" y="131.126"/><use xlink:href="#K" x="357.605" y="131.126"/><use xlink:href="#L" x="365.041" y="131.126"/><use xlink:href="#M" x="372.075" y="131.126"/><use xlink:href="#K" x="377.09" y="131.126"/><use xlink:href="#K" x="384.526" y="131.126"/><use xlink:href="#N" x="395.325" y="131.126"/><use xlink:href="#O" x="404.971" y="131.126"/><use xlink:href="#P" x="412.129" y="131.126"/><use xlink:href="#K" x="424.066" y="131.126"/><use xlink:href="#Q" x="431.515" y="131.126"/><use xlink:href="#R" x="295.801" y="331.813"/><use xlink:href="#S" x="307.825" y="331.813"/><use xlink:href="#T" x="316.304" y="331.813"/><use xlink:href="#U" x="323.601" y="331.813"/><use xlink:href="#V" x="331.507" y="331.813"/><use xlink:href="#W" x="342.151" y="331.813"/><use xlink:href="#X" x="348.12" y="331.813"/><use xlink:href="#N" x="358.014" y="331.813"/><use xlink:href="#Y" x="367.661" y="331.813"/><use xlink:href="#R" x="380.451" y="331.813"/><use xlink:href="#N" x="389.098" y="331.813"/><use xlink:href="#J" x="398.744" y="331.813"/><use xlink:href="#Z" x="411.315" y="331.813"/><use xlink:href="#aa" x="415.081" y="331.813"/><use xlink:href="#ab" x="427.858" y="331.813"/><use xlink:href="#U" x="435.578" y="331.813"/><use xlink:href="#T" x="443.692" y="331.813"/><use xlink:href="#ac" x="450.855" y="331.813"/><use xlink:href="#ac" x="457.722" y="331.813"/><use xlink:href="#Z" x="464.589" y="331.813"/><use xlink:href="#S" x="468.354" y="331.813"/><use xlink:href="#T" x="476.834" y="331.813"/><use xlink:href="#ad" x="264.176" y="349.94"/><use xlink:href="#ae" x="271.458" y="349.94"/><use xlink:href="#T" x="280.768" y="349.94"/><use xlink:href="#ac" x="287.931" y="349.94"/><use xlink:href="#Z" x="294.798" y="349.94"/><use xlink:href="#ac" x="298.564" y="349.94"/><use xlink:href="#ad" x="308.793" y="349.94"/><use xlink:href="#Z" x="316.075" y="349.94"/><use xlink:href="#ad" x="319.841" y="349.94"/><use xlink:href="#W" x="327.123" y="349.94"/><use xlink:href="#T" x="333.405" y="349.94"/><use xlink:href="#af" x="344.08" y="349.94"/><use xlink:href="#Z" x="357.374" y="349.94"/><use xlink:href="#ad" x="361.14" y="349.94"/><use xlink:href="#ae" x="368.422" y="349.94"/><use xlink:href="#R" x="381.109" y="349.94"/><use xlink:href="#ag" x="393.133" y="349.94"/><use xlink:href="#X" x="399.881" y="349.94"/><use xlink:href="#U" x="409.775" y="349.94"/><use xlink:href="#ah" x="417.755" y="349.94"/><use xlink:href="#T" x="425.723" y="349.94"/><use xlink:href="#J" x="433.02" y="349.94"/><use xlink:href="#W" x="445.591" y="349.94"/><use xlink:href="#Z" x="451.874" y="349.94"/><use xlink:href="#N" x="455.64" y="349.94"/><use xlink:href="#T" x="465.286" y="349.94"/><use xlink:href="#ai" x="475.96" y="349.94"/><use xlink:href="#U" x="484.088" y="349.94"/><use xlink:href="#T" x="492.203" y="349.94"/><use xlink:href="#R" x="499.351" y="349.94"/><use xlink:href="#aj" x="507.997" y="349.94"/><use xlink:href="#ak" x="361.893" y="371.381"/><use xlink:href="#al" x="369.248" y="371.381"/><use xlink:href="#am" x="371.992" y="371.381"/><use xlink:href="#am" x="376.667" y="371.381"/><use xlink:href="#an" x="381.343" y="371.381"/><use xlink:href="#ao" x="387.292" y="371.381"/><use xlink:href="#ap" x="391.459" y="371.381"/><use xlink:href="#aq" x="395.321" y="371.381"/><use xlink:href="#ar" x="401.047" y="371.381"/><use xlink:href="#as" x="406.008" y="371.381"/><use xlink:href="#at" x="411.734" y="371.381"/><use xlink:href="#au" x="327.277" y="670.592"/><use xlink:href="#av" x="331.235" y="670.592"/><use xlink:href="#aw" x="337.662" y="670.592"/><use xlink:href="#ax" x="344.078" y="670.592"/><use xlink:href="#ay" x="353.195" y="670.592"/><use xlink:href="#az" x="359.654" y="670.592"/><use xlink:href="#aA" x="365.672" y="670.592"/><use xlink:href="#aB" x="369.97" y="670.592"/><use xlink:href="#aC" x="378.334" y="670.592"/><use xlink:href="#av" x="383.39" y="670.592"/><use xlink:href="#ax" x="389.817" y="670.592"/><use xlink:href="#aD" x="396.232" y="670.592"/><use xlink:href="#ax" x="401.9" y="670.592"/><use xlink:href="#aE" x="408.315" y="670.592"/><use xlink:href="#aF" x="414.217" y="670.592"/><use xlink:href="#az" x="423.943" y="670.592"/><use xlink:href="#aG" x="432.663" y="670.592"/><use xlink:href="#av" x="440.2" y="670.592"/><use xlink:href="#az" x="446.627" y="670.592"/><use xlink:href="#aH" x="350.415" y="796.581"/><use xlink:href="#aF" x="355.064" y="796.581"/><use xlink:href="#av" x="364.79" y="796.581"/><use xlink:href="#ax" x="371.217" y="796.581"/><use xlink:href="#aI" x="377.524" y="796.581"/><use xlink:href="#aw" x="381.669" y="796.581"/><use xlink:href="#aJ" x="388.081" y="796.581"/><use xlink:href="#aK" x="392.73" y="796.581"/><use xlink:href="#aH" x="398.515" y="796.581"/><use xlink:href="#aB" x="403.164" y="796.581"/><use xlink:href="#az" x="408.694" y="796.581"/><use xlink:href="#aE" x="414.713" y="796.581"/><use xlink:href="#aA" x="420.615" y="796.581"/><use xlink:href="#aJ" x="424.862" y="796.581"/></svg>