<svg xmlns="http://www.w3.org/2000/svg" xmlns:xlink="http://www.w3.org/1999/xlink" width="793.701" height="1122.52" viewBox="0 0 595.276 841.89"><defs><symbol overflow="visible" id="d"><path d="M8.031-11.625v7.875c0 1.406-.719 2.078-2.219 2.078S3.61-2.344 3.61-3.75v-7.875H1.22v7.875c0 1.313.343 2.234 1.125 2.938C3.188-.047 4.422.359 5.813.359c1.406 0 2.64-.406 3.484-1.171.781-.704 1.125-1.625 1.125-2.938v-7.875zm0 0"/></symbol><symbol overflow="visible" id="e"><path d="M8.14 0h2.391v-11.625h-2.39v7.906l-4.61-7.906H1.078V0h2.39v-8.031zm0 0"/></symbol><symbol overflow="visible" id="f"><path d="M3.39-11.625H1V0h2.39zm0 0"/></symbol><symbol overflow="visible" id="g"><path d="M6.328 0l3.984-11.625H7.906l-2.531 8.75-2.578-8.75H.375L4.297 0zm0 0"/></symbol><symbol overflow="visible" id="h"><path d="M3.656-5H9.22v-2H3.656v-2.625h6v-2h-8.39V0h8.671v-2h-6.28zm0 0"/></symbol><symbol overflow="visible" id="i"><path d="M3.672-4.61h2.734c1.032 0 1.485.423 1.485 1.391 0 .094 0 .25-.016.469-.016.297-.016.578-.016.75 0 1.094.063 1.438.36 2h2.578v-.438c-.375-.203-.516-.437-.516-.953-.062-3.421-.125-3.578-1.61-4.218 1.313-.516 1.954-1.454 1.954-2.875 0-.922-.313-1.766-.875-2.344-.516-.531-1.25-.797-2.25-.797H1.281V0h2.39zm0-1.984v-3.031h2.875c.687 0 .969.063 1.266.297.28.25.421.64.421 1.187s-.156 1-.421 1.235c-.266.234-.579.312-1.266.312zm0 0"/></symbol><symbol overflow="visible" id="j"><path d="M9.672-8.078c0-1.063-.235-1.766-.813-2.406-.78-.86-2.062-1.329-3.75-1.329-2.78 0-4.39 1.313-4.39 3.579 0 1.796.906 2.671 3.265 3.125l1.625.312c1.594.297 2.188.75 2.188 1.688 0 .968-.89 1.562-2.344 1.562-1.625 0-2.531-.687-2.61-1.922H.517C.656-.984 2.359.36 5.328.36c2.984 0 4.766-1.39 4.766-3.75 0-1.843-.922-2.796-3.078-3.203l-1.813-.36C3.484-7.28 3-7.624 3-8.468c0-.875.781-1.422 2-1.422 1.516 0 2.36.625 2.438 1.813zm0 0"/></symbol><symbol overflow="visible" id="k"><path d="M6.14-9.625h3.391v-2H.22v2h3.53V0h2.39zm0 0"/></symbol><symbol overflow="visible" id="l"><path d="M6.672-4.297l3.687-7.328H7.688l-2.22 5.14-2.374-5.14H.438L4.28-4.297V0h2.39zm0 0"/></symbol><symbol overflow="visible" id="m"><path d="M6.219-11.813c-1.625 0-2.969.547-3.953 1.61C1.234-9.078.64-7.453.64-5.72c0 1.735.593 3.375 1.625 4.469C3.266-.156 4.578.36 6.234.36c1.657 0 2.97-.516 3.97-1.61 1-1.063 1.624-2.75 1.624-4.39 0-1.813-.594-3.438-1.625-4.563-1.015-1.094-2.312-1.61-3.984-1.61zm.015 2.047c1.954 0 3.204 1.594 3.204 4.11 0 2.375-1.297 3.984-3.204 3.984-1.937 0-3.203-1.61-3.203-4.047 0-2.437 1.266-4.047 3.203-4.047zm0 0"/></symbol><symbol overflow="visible" id="n"><path d="M3.563-5h5.093v-2H3.562v-2.625h5.782v-2H1.172V0h2.39zm0 0"/></symbol><symbol overflow="visible" id="o"><path d="M3.672-11.625h-2.39V0h7.952v-2H3.672zm0 0"/></symbol><symbol overflow="visible" id="p"><path d="M1.313 0H6.53c1.345 0 2.236-.25 2.94-.844.703-.594 1.14-1.578 1.14-2.5 0-1.156-.609-2.062-1.921-2.828 1.14-.734 1.593-1.406 1.593-2.39 0-.797-.406-1.641-1.047-2.22-.687-.577-1.5-.843-2.75-.843H1.313zm2.39-9.625h2.594c1.094 0 1.687.453 1.687 1.328C7.984-7.453 7.391-7 6.297-7H3.703zm0 4.625h2.844c1.172 0 1.766.516 1.766 1.516C8.313-2.516 7.718-2 6.546-2H3.703zm0 0"/></symbol><symbol overflow="visible" id="q"><path d="M3.61-4.14h2.968c2.14 0 3.516-1.516 3.516-3.876 0-2.328-1.328-3.609-3.75-3.609H1.219V0h2.39zm0-2v-3.485h2.218c1.281 0 1.875.563 1.875 1.75 0 1.188-.594 1.734-1.875 1.734zm0 0"/></symbol><symbol overflow="visible" id="r"><path d="M3.656-5H9.22v-2H3.656v-2.625h6v-2h-8.39V0h8.671v-2h-6.28zm4-9.922H5.641l-1.11 2.39h1.11zm0 0"/></symbol><symbol overflow="visible" id="s"><path d="M10.875-7.688c-.078-1-.297-1.64-.781-2.296-.89-1.172-2.328-1.829-4.063-1.829-3.297 0-5.328 2.344-5.328 6.11C.703-1.97 2.72.359 5.953.359c2.89 0 4.828-1.671 4.969-4.328H8.594C8.454-2.484 7.5-1.64 6.03-1.64c-1.86 0-2.937-1.5-2.937-4.03 0-2.563 1.125-4.095 3.015-4.095.829 0 1.516.282 1.954.844.25.313.39.625.53 1.235zm0 0"/></symbol><symbol overflow="visible" id="t"><path d="M8.984-2.64L9.844 0h2.765L8.094-13.078H5.109L.47 0h2.734l.89-2.64zM8.25-4.876H4.844l1.703-5.11zm0 0"/></symbol><symbol overflow="visible" id="u"><path d="M7.125 0l4.484-13.078H8.891L6.047-3.234 3.14-13.078H.437L4.845 0zm0 0"/></symbol><symbol overflow="visible" id="v"><path d="M9.406-4.047c.016-.219.016-.312.016-.437 0-.97-.14-1.86-.375-2.547-.656-1.766-2.219-2.813-4.172-2.813-2.781 0-4.484 2-4.484 5.25 0 3.11 1.687 5 4.437 5C7 .406 8.75-.828 9.312-2.719H6.829c-.297.766-1 1.219-1.906 1.219-.719 0-1.297-.313-1.656-.844-.235-.36-.329-.797-.36-1.703zM2.937-5.719c.172-1.468.797-2.203 1.907-2.203.625 0 1.203.297 1.562.797.235.36.344.734.39 1.406zm0 0"/></symbol><symbol overflow="visible" id="w"><path d="M1.125-9.688V0h2.516v-5.14c0-1.485.734-2.22 2.203-2.22.265 0 .453.016.797.079v-2.547c-.141-.016-.235-.016-.313-.016-1.14 0-2.156.75-2.687 2.063v-1.907zm0 0"/></symbol><symbol overflow="visible" id="x"><path d="M7.063-9.688l-2 7.047-2.141-7.046H.156L3.766.39v.078c0 .906-.688 1.61-1.563 1.61-.187 0-.344-.017-.656-.11v1.89c.375.047.594.063.89.063.626 0 1.391-.125 1.813-.297.703-.281 1-.703 1.422-1.844L9.656-9.688zm0 0"/></symbol><symbol overflow="visible" id="y"><path d="M4.125-13.078H1.437V0h8.954v-2.234H4.125zm0 0"/></symbol><symbol overflow="visible" id="z"><path d="M5.406-9.844C2.438-9.844.625-7.89.625-4.719.625-1.53 2.438.406 5.422.406c2.937 0 4.781-1.953 4.781-5.047 0-3.28-1.765-5.203-4.797-5.203zm.016 2.016c1.375 0 2.266 1.25 2.266 3.14 0 1.813-.922 3.079-2.266 3.079-1.375 0-2.281-1.266-2.281-3.11 0-1.843.906-3.11 2.28-3.11zm0 0"/></symbol><symbol overflow="visible" id="A"><path d="M1.125-9.688V0h2.516v-5.813c0-1.14.812-1.906 2.03-1.906 1.079 0 1.61.594 1.61 1.75V0h2.516v-6.5c0-2.125-1.188-3.344-3.25-3.344-1.313 0-2.188.485-2.906 1.563v-1.406zm0 0"/></symbol><symbol overflow="visible" id="B"><path d="M7.313-9.688v1.485c-.75-1.14-1.579-1.64-2.688-1.64C2.328-9.844.609-7.61.609-4.61.61-1.594 2.188.406 4.58.406c1.124 0 1.812-.328 2.734-1.39V.328c0 1.156-.875 1.969-2.125 1.969-.954 0-1.579-.39-1.782-1.125H.812c.016.75.297 1.266.954 1.812.765.625 1.843.922 3.328.922 2.922 0 4.61-1.312 4.61-3.578V-9.687zM5.171-7.75c1.25 0 2.187 1.313 2.187 3.11 0 1.75-.921 2.952-2.234 2.952-1.172 0-2-1.203-2-2.953 0-1.828.828-3.109 2.047-3.109zm0 0"/></symbol><symbol overflow="visible" id="C"><path d="M9.406-.313c-.453-.406-.578-.671-.578-1.171v-5.391c0-1.969-1.344-2.969-3.969-2.969S.875-8.734.72-6.5h2.42c.125-1 .53-1.328 1.78-1.328.97 0 1.454.328 1.454.969a.88.88 0 01-.438.765c-.343.172-.343.172-1.578.375l-1 .172C1.438-5.219.5-4.234.5-2.5c0 .828.234 1.516.688 2 .546.578 1.39.906 2.25.906C4.516.406 5.5-.047 6.39-.969c0 .5.046.688.28.969h2.735zM6.375-3.89c0 1.454-.719 2.282-2 2.282-.844 0-1.36-.454-1.36-1.172 0-.75.391-1.11 1.438-1.328l.86-.157c.656-.125.765-.171 1.062-.312zm0 0"/></symbol><symbol overflow="visible" id="D"><path d="M7.266 0H9.78v-13.078H7.266v4.64c-.625-.968-1.47-1.406-2.672-1.406-2.313 0-4.078 2.219-4.078 5.14 0 1.313.406 2.641 1.046 3.579C2.22-.203 3.407.406 4.595.406c1.203 0 2.047-.437 2.672-1.39zM5.14-7.75c1.28 0 2.125 1.234 2.125 3.094 0 1.75-.86 2.968-2.125 2.968-1.25 0-2.11-1.234-2.11-3.015 0-1.797.86-3.047 2.11-3.047zm0 0"/></symbol><symbol overflow="visible" id="E"><path d="M3.828-13.078H1.125V0h2.703zm0 0"/></symbol><symbol overflow="visible" id="F"><path d="M1.078-9.688V0h2.516v-5.813c0-1.187.64-1.906 1.719-1.906.843 0 1.359.485 1.359 1.266V0h2.516v-5.813c0-1.187.64-1.906 1.718-1.906.844 0 1.36.485 1.36 1.266V0h2.515v-6.86c0-1.874-1.156-2.984-3.094-2.984-1.218 0-2.078.422-2.828 1.438-.468-.922-1.437-1.438-2.64-1.438-1.11 0-1.828.375-2.657 1.36v-1.204zm0 0"/></symbol><symbol overflow="visible" id="G"><path d="M3.547-9.688h-2.5V3.906h2.5V-1.14C4.157-.078 5.016.438 6.25.438c2.328 0 4.047-2.204 4.047-5.141 0-1.36-.39-2.719-1.047-3.625-.64-.906-1.844-1.516-3-1.516-1.234 0-2.094.516-2.703 1.594zM5.672-7.75c1.266 0 2.11 1.234 2.11 3.094 0 1.75-.876 2.984-2.11 2.984-1.266 0-2.125-1.219-2.125-3.031 0-1.813.86-3.047 2.125-3.047zm0 0"/></symbol><symbol overflow="visible" id="H"><path d="M9.063-6.563c-.047-2.046-1.626-3.28-4.22-3.28C2.392-9.844.86-8.61.86-6.626c0 .656.204 1.203.547 1.578.328.344.64.516 1.578.813l2.985.937c.625.188.843.39.843.781 0 .594-.703.954-1.859.954-.64 0-1.172-.125-1.484-.344-.281-.188-.39-.39-.485-.907H.516C.594-.703 2.156.408 5.094.408c1.343 0 2.375-.282 3.078-.86.719-.563 1.156-1.469 1.156-2.422 0-1.25-.625-2.063-1.906-2.438L4.25-6.218c-.703-.218-.875-.36-.875-.765 0-.532.578-.891 1.453-.891 1.203 0 1.797.438 1.813 1.313zm0 0"/></symbol><symbol overflow="visible" id="I"><path d="M3.719-9.688H1.203V0H3.72zm0-3.39H1.203v2.25H3.72zm0 0"/></symbol><symbol overflow="visible" id="J"><path d="M6.281 0L9.61-9.688H6.953L5-2.593 2.906-9.688H.25L3.64 0zm0 0"/></symbol><symbol overflow="visible" id="K"><path d="M6.906-10.828h3.828v-2.25H.25v2.25h3.969V0h2.687zm0 0"/></symbol><symbol overflow="visible" id="L"><path d="M1.203-13.078V0H3.72v-5.813c0-1.109.797-1.906 1.937-1.906.532 0 .969.203 1.25.594.219.328.282.578.282 1.203V0h2.515v-6.5c0-1.188-.328-2.063-.984-2.61-.563-.468-1.36-.734-2.172-.734-1.234 0-2.14.5-2.828 1.563v-4.797zm0 0"/></symbol><symbol overflow="visible" id="M"><path d="M5.406-9.484H4v-2.61H1.484v2.61H.25v1.656h1.234v5.969c0 1.515.813 2.265 2.47 2.265.546 0 1-.047 1.452-.187v-1.766a3.043 3.043 0 01-.578.063C4.156-1.484 4-1.688 4-2.547v-5.281h1.406zm0 0"/></symbol><symbol overflow="visible" id="N"><path d="M3.719-13.078H1.203V0H3.72zm0 0"/></symbol><symbol overflow="visible" id="O"><path d="M11 0l2.734-9.688h-2.593L9.67-2.905 8.22-9.687H5.703l-1.469 6.78-1.546-6.78H.094L2.813 0h2.593l1.532-6.828L8.39 0zm0 0"/></symbol><symbol overflow="visible" id="P"><path d="M4.016-5.625h5.718v-2.25H4.016v-2.953h6.5v-2.25H1.328V0h2.688zm0 0"/></symbol><symbol overflow="visible" id="Q"><path d="M9.36-6.063c-.172-2.375-1.75-3.78-4.172-3.78-2.891 0-4.579 1.89-4.579 5.202C.61-1.453 2.281.406 5.141.406c2.359 0 3.984-1.453 4.218-3.765H6.953c-.312 1.265-.812 1.75-1.781 1.75-1.281 0-2.047-1.157-2.047-3.032 0-.921.172-1.78.484-2.359.282-.531.844-.828 1.563-.828 1.016 0 1.5.484 1.781 1.766zm0 0"/></symbol><symbol overflow="visible" id="R"><path d="M1.469 0h5.89c1.5 0 2.5-.281 3.297-.953.781-.656 1.297-1.766 1.297-2.813 0-1.296-.703-2.312-2.172-3.171 1.281-.829 1.781-1.579 1.781-2.688 0-.906-.437-1.86-1.171-2.5-.782-.672-1.688-.953-3.094-.953H1.469zm2.687-10.828h2.922c1.25 0 1.906.515 1.906 1.484 0 .953-.656 1.469-1.906 1.469H4.156zm0 5.203h3.219c1.313 0 1.984.578 1.984 1.703 0 1.094-.671 1.688-1.984 1.688H4.156zm0 0"/></symbol><symbol overflow="visible" id="S"><path d="M3.563-5.922v-7.156h-2.5V0h2.5v-3.172l1.015-1.094L6.891 0h2.937L6.297-6.031l3.297-3.657H6.75zm0 0"/></symbol><symbol overflow="visible" id="T"><path d="M4.688-10.172v7.516c0 .765-.407 1.187-1.125 1.187-.797 0-1.141-.39-1.141-1.328v-.969H.328v1c0 1.063.266 1.72.86 2.282.578.53 1.359.812 2.328.812C5.594.328 6.78-.75 6.78-2.656v-7.516zm0 0"/></symbol><symbol overflow="visible" id="U"><path d="M4.203-7.656C1.891-7.656.484-6.141.484-3.672c0 2.485 1.407 4 3.735 4 2.281 0 3.718-1.531 3.718-3.937 0-2.563-1.375-4.047-3.734-4.047zm.016 1.578c1.062 0 1.765.953 1.765 2.437 0 1.407-.718 2.391-1.765 2.391-1.063 0-1.782-.984-1.782-2.422 0-1.437.72-2.406 1.782-2.406zm0 0"/></symbol><symbol overflow="visible" id="V"><path d="M.938-10.172V0H2.89v-4.516C2.89-5.39 3.516-6 4.39-6c.421 0 .765.156.984.453.172.266.219.453.219.938V0h1.953v-5.047c0-.937-.25-1.61-.766-2.047-.437-.36-1.062-.562-1.687-.562-.969 0-1.657.39-2.203 1.203v-3.719zm0 0"/></symbol><symbol overflow="visible" id="W"><path d="M.875-7.531V0h1.953v-4.516c0-.89.625-1.484 1.578-1.484.844 0 1.266.453 1.266 1.36V0h1.953v-5.047c0-1.672-.922-2.61-2.531-2.61-1.016 0-1.703.376-2.266 1.204v-1.078zm0 0"/></symbol><symbol overflow="visible" id="X"><path d="M5.547 0L9.03-10.172H6.92L4.704-2.516l-2.266-7.656H.329L3.766 0zm0 0"/></symbol><symbol overflow="visible" id="Y"><path d="M7.313-3.156c.015-.172.015-.235.015-.328 0-.75-.11-1.454-.297-1.985-.5-1.375-1.718-2.187-3.234-2.187-2.172 0-3.485 1.562-3.485 4.078C.313-1.156 1.625.328 3.75.328c1.688 0 3.063-.969 3.484-2.453H5.313c-.235.61-.782.953-1.485.953-.562 0-1.015-.234-1.281-.656-.188-.281-.266-.61-.281-1.328zM2.28-4.453c.125-1.14.625-1.719 1.485-1.719a1.5 1.5 0 011.218.625c.172.281.266.578.297 1.094zm0 0"/></symbol><symbol overflow="visible" id="Z"><path d="M.875-7.531V0h1.953v-4c0-1.156.578-1.719 1.719-1.719.219 0 .344.016.61.047V-7.64c-.11-.015-.173-.015-.235-.015-.89 0-1.672.578-2.094 1.593V-7.53zm0 0"/></symbol><symbol overflow="visible" id="aa"><path d="M5.5-7.531L3.937-2.047 2.282-7.53H.125L2.938.312V.36c0 .72-.532 1.266-1.22 1.266-.155 0-.265-.016-.515-.094V3c.297.047.453.063.688.063.5 0 1.078-.11 1.421-.25.532-.22.782-.532 1.094-1.438L7.5-7.531zm0 0"/></symbol><symbol overflow="visible" id="ab"><path d="M3.203-10.172H1.11V0h6.97v-1.75H3.202zm0 0"/></symbol><symbol overflow="visible" id="ac"><path d="M5.688-7.531v1.156c-.579-.89-1.22-1.281-2.094-1.281-1.781 0-3.125 1.734-3.125 4.062 0 2.36 1.234 3.922 3.094 3.922.874 0 1.406-.266 2.124-1.094V.25c0 .906-.671 1.531-1.656 1.531-.734 0-1.234-.297-1.375-.875H.625c.016.594.234.985.75 1.406.594.485 1.422.735 2.594.735 2.265 0 3.578-1.031 3.578-2.797v-7.781zm-1.672 1.5c.984 0 1.703 1.015 1.703 2.422 0 1.359-.703 2.296-1.735 2.296-.921 0-1.562-.937-1.562-2.296 0-1.422.64-2.422 1.594-2.422zm0 0"/></symbol><symbol overflow="visible" id="ad"><path d="M7.313-.234c-.344-.329-.454-.532-.454-.922v-4.188c0-1.531-1.046-2.312-3.078-2.312-2.031 0-3.094.86-3.219 2.61h1.875c.11-.782.422-1.032 1.391-1.032.75 0 1.125.25 1.125.75 0 .25-.125.469-.328.578-.266.14-.266.14-1.234.297l-.782.14C1.11-4.063.391-3.296.391-1.938c0 .641.187 1.172.53 1.547.438.454 1.095.72 1.75.72.845 0 1.61-.376 2.298-1.079 0 .39.047.531.218.75h2.125zm-2.36-2.797c0 1.14-.562 1.781-1.547 1.781-.656 0-1.062-.36-1.062-.906 0-.594.312-.875 1.11-1.031l.671-.141c.516-.094.61-.125.828-.235zm0 0"/></symbol><symbol overflow="visible" id="ae"><path d="M.844-7.531V0h1.953v-4.516c0-.921.5-1.484 1.328-1.484.656 0 1.063.375 1.063.984V0H7.14v-4.516C7.14-5.437 7.64-6 8.484-6c.657 0 1.063.375 1.063.984V0H11.5v-5.328c0-1.469-.89-2.328-2.406-2.328-.938 0-1.61.328-2.203 1.11-.36-.704-1.11-1.11-2.047-1.11-.86 0-1.422.281-2.063 1.062v-.937zm0 0"/></symbol><symbol overflow="visible" id="af"><path d="M1.078 0h3.969c1.547 0 2.531-.36 3.219-1.188C9.062-2.14 9.5-3.515 9.5-5.094 9.5-6.656 9.062-8.03 8.266-9c-.688-.828-1.657-1.172-3.22-1.172H1.079zm2.094-1.75v-6.672h1.875c1.578 0 2.36 1.094 2.36 3.344 0 2.234-.782 3.328-2.36 3.328zm0 0"/></symbol><symbol overflow="visible" id="bE"><path d="M4.203-7.375H3.11v-2.031H1.156v2.031H.203v1.297h.953v4.625c0 1.187.625 1.781 1.907 1.781a3.73 3.73 0 001.14-.156v-1.375a2.778 2.778 0 01-.453.047c-.516 0-.64-.157-.64-.828v-4.094h1.093zm0 0"/></symbol><symbol overflow="visible" id="bG"><path d="M.89-2.031V0h1.204v.047c0 .937-.375 1.437-1.203 1.594v.78c.578-.062.968-.218 1.343-.515.563-.422.75-.937.75-2.031v-1.906zm0 0"/></symbol><symbol overflow="visible" id="ag"><path d="M4.234-7.734h2.86v-.985H.25v.985h2.875V0h1.11zm0 0"/></symbol><symbol overflow="visible" id="ah"><path d="M.844-8.719V0h.984v-3.453c0-1.281.672-2.11 1.703-2.11.313 0 .64.094.875.282.297.203.407.5.407.937V0h1v-4.734c0-1.047-.75-1.704-1.97-1.704-.89 0-1.421.266-2.015 1.032V-8.72zm0 0"/></symbol><symbol overflow="visible" id="ai"><path d="M6.125-2.797c0-.953-.063-1.531-.25-2-.406-1.031-1.36-1.64-2.531-1.64-1.735 0-2.86 1.328-2.86 3.39C.484-.984 1.563.281 3.328.281 4.75.281 5.75-.53 6-1.906H5c-.281.828-.844 1.265-1.64 1.265a1.722 1.722 0 01-1.5-.812c-.25-.36-.329-.719-.344-1.344zm-4.578-.812c.078-1.157.781-1.907 1.781-1.907.985 0 1.735.813 1.735 1.829v.078zm0 0"/></symbol><symbol overflow="visible" id="aj"><path d="M5.234-4.516C5.22-5.75 4.406-6.437 2.97-6.437c-1.469 0-2.406.75-2.406 1.906 0 .984.5 1.453 1.984 1.812l.937.219c.688.172.97.422.97.875 0 .578-.595.984-1.47.984-.53 0-.984-.156-1.234-.421-.156-.188-.234-.36-.297-.797H.406c.047 1.437.86 2.14 2.5 2.14 1.578 0 2.578-.781 2.578-1.984 0-.938-.53-1.453-1.765-1.75l-.953-.235c-.813-.187-1.157-.453-1.157-.89 0-.578.5-.938 1.313-.938.812 0 1.234.344 1.265 1zm0 0"/></symbol><symbol overflow="visible" id="ak"><path d="M1.797-6.266h-1V0h1zm0-2.453H.78v1.266h1.016zm0 0"/></symbol><symbol overflow="visible" id="al"><path d="M5.766 0v-6.266h-1v3.547c0 1.281-.672 2.125-1.704 2.125-.796 0-1.296-.484-1.296-1.234v-4.438H.78v4.829C.781-.391 1.547.28 2.766.28c.921 0 1.515-.328 2.093-1.156V0zm0 0"/></symbol><symbol overflow="visible" id="am"><path d="M.64-8.719V0h.907v-.797C2.016-.078 2.657.281 3.53.281c1.64 0 2.719-1.36 2.719-3.437 0-2.031-1.031-3.281-2.672-3.281-.86 0-1.469.312-1.937 1.015v-3.297zm2.735 3.203c1.125 0 1.844.97 1.844 2.47 0 1.421-.75 2.39-1.844 2.39-1.047 0-1.734-.953-1.734-2.422 0-1.469.687-2.438 1.734-2.438zm0 0"/></symbol><symbol overflow="visible" id="an"><path d="M.844-6.266V0h1v-3.938c0-.906.656-1.624 1.468-1.624.735 0 1.157.453 1.157 1.25V0h1v-3.938c0-.906.656-1.624 1.468-1.624.735 0 1.172.453 1.172 1.25V0h1v-4.703c0-1.125-.64-1.734-1.812-1.734-.844 0-1.344.25-1.938.953C5-6.156 4.5-6.438 3.688-6.438c-.844 0-1.391.313-1.938 1.063v-.89zm0 0"/></symbol><symbol overflow="visible" id="ao"><path d="M3.031-6.266H2.016v-1.718h-1v1.718H.172v.813h.844V-.72c0 .64.437 1 1.203 1 .25 0 .484-.031.812-.094V-.64a1.972 1.972 0 01-.469.047c-.437 0-.546-.125-.546-.562v-4.297H3.03zm0 0"/></symbol><symbol overflow="visible" id="ap"><path d="M5.922-8.719h-1v3.25C4.5-6.109 3.844-6.437 3-6.437 1.375-6.438.312-5.141.312-3.142.312-1.032 1.344.28 3.032.28c.859 0 1.468-.328 2-1.11V0h.89zm-2.75 3.203c1.078 0 1.75.97 1.75 2.454 0 1.453-.688 2.406-1.75 2.406-1.094 0-1.828-.969-1.828-2.422 0-1.469.734-2.438 1.828-2.438zm0 0"/></symbol><symbol overflow="visible" id="aq"><path d="M.844-6.266V0h1v-3.453c0-1.281.672-2.11 1.687-2.11.797 0 1.297.47 1.297 1.22V0h1v-4.734c0-1.032-.781-1.704-1.984-1.704-.938 0-1.531.36-2.094 1.22v-1.048zm0 0"/></symbol><symbol overflow="visible" id="ar"><path d="M.64 2.61h1.016V-.657c.516.64 1.11.937 1.922.937C5.188.281 6.25-1.03 6.25-3.03c0-2.094-1.031-3.406-2.688-3.406-.843 0-1.53.375-2 1.125v-.954H.641zm2.75-8.126c1.11 0 1.829.97 1.829 2.47 0 1.421-.735 2.39-1.828 2.39-1.047 0-1.735-.953-1.735-2.422 0-1.469.688-2.438 1.735-2.438zm0 0"/></symbol><symbol overflow="visible" id="as"><path d="M6.39-.578c-.109.015-.156.015-.202.015-.36 0-.547-.171-.547-.484v-3.687c0-1.11-.813-1.704-2.36-1.704-.906 0-1.656.25-2.078.72-.281.327-.406.687-.422 1.312h1c.078-.766.532-1.11 1.469-1.11.89 0 1.406.329 1.406.922v.266c0 .422-.25.594-1.047.687-1.406.188-1.625.235-2 .391C.875-2.953.5-2.39.5-1.578c0 1.14.797 1.86 2.063 1.86.78 0 1.421-.282 2.124-.923.063.625.375.922 1.032.922.203 0 .36-.031.672-.11zm-1.734-1.39c0 .327-.11.53-.406.812-.406.375-.89.562-1.484.562-.766 0-1.22-.375-1.22-1.015 0-.657.438-.985 1.5-1.141 1.048-.14 1.267-.188 1.61-.344zm0 0"/></symbol><symbol overflow="visible" id="at"><path d="M.828-6.266V0h1v-3.25c0-.89.234-1.484.703-1.828.313-.234.61-.297 1.313-.313v-1.015c-.172-.032-.266-.032-.39-.032-.642 0-1.142.375-1.704 1.313v-1.14zm0 0"/></symbol><symbol overflow="visible" id="au"><path d="M1.813-8.719h-1V0h1zm0 0"/></symbol><symbol overflow="visible" id="av"><path d="M3.078-6.266H2.047v-.984c0-.406.234-.625.687-.625.094 0 .125 0 .344.016v-.829a2.387 2.387 0 00-.562-.062c-.907 0-1.47.531-1.47 1.422v1.062H.22v.813h.828V0h1v-5.453h1.031zm0 0"/></symbol><symbol overflow="visible" id="aw"><path d="M3.016-6.266H1.969v-.984c0-.406.25-.625.703-.625.078 0 .11 0 .344.016v-.829a2.478 2.478 0 00-.563-.062c-.922 0-1.469.531-1.469 1.422v1.062H.141v.813h.843V0h.985v-5.453h1.047zm2.203 0h-1V0h1zm0-2.453h-1v1.266h1zm0 0"/></symbol><symbol overflow="visible" id="ax"><path d="M3.25-6.438c-1.75 0-2.813 1.25-2.813 3.36 0 2.094 1.047 3.36 2.829 3.36 1.75 0 2.828-1.266 2.828-3.313 0-2.172-1.032-3.406-2.844-3.406zm.016.922c1.125 0 1.796.907 1.796 2.47 0 1.468-.703 2.405-1.796 2.405-1.11 0-1.797-.921-1.797-2.437 0-1.516.687-2.438 1.797-2.438zm0 0"/></symbol><symbol overflow="visible" id="ay"><path d="M5.922 2.61v-8.876h-.89v.844c-.47-.656-1.173-1.016-2-1.016-1.641 0-2.72 1.344-2.72 3.422C.313-.984 1.345.281 2.985.281c.875 0 1.47-.312 1.938-1V2.61zm-2.75-8.126c1.078 0 1.75.97 1.75 2.47 0 1.437-.688 2.39-1.75 2.39-1.094 0-1.828-.969-1.828-2.422 0-1.453.734-2.438 1.828-2.438zm0 0"/></symbol><symbol overflow="visible" id="az"><path d="M4.922-6.266v.907c-.5-.735-1.11-1.079-1.906-1.079C1.422-6.438.344-5.063.344-3.03c0 1.031.281 1.875.797 2.469.468.53 1.125.843 1.78.843.798 0 1.345-.344 1.907-1.125v.313c0 .86-.11 1.375-.36 1.719-.265.359-.78.578-1.39.578-.453 0-.86-.11-1.125-.329-.234-.187-.328-.343-.39-.718H.546c.11 1.187 1.031 1.89 2.5 1.89.937 0 1.734-.296 2.14-.796.485-.579.657-1.375.657-2.844v-5.235zm-1.797.75c1.078 0 1.703.907 1.703 2.47 0 1.5-.64 2.405-1.703 2.405-1.078 0-1.734-.921-1.734-2.437 0-1.516.671-2.438 1.734-2.438zm0 0"/></symbol><symbol overflow="visible" id="aA"><path d="M1.063 0h3.359c2.203 0 3.547-1.656 3.547-4.36 0-2.702-1.328-4.359-3.547-4.359h-3.36zm1.109-.984v-6.75h2.062c1.72 0 2.625 1.156 2.625 3.39 0 2.188-.906 3.36-2.625 3.36zm0 0"/></symbol><symbol overflow="visible" id="aB"><path d="M5.625-4.156c-.047-.61-.172-1-.406-1.36-.438-.578-1.188-.921-2.063-.921C1.47-6.438.375-5.11.375-3.031.375-1 1.453.28 3.141.28c1.5 0 2.437-.906 2.562-2.437h-1C4.531-1.141 4.016-.641 3.172-.641c-1.11 0-1.766-.906-1.766-2.39 0-1.563.657-2.485 1.735-2.485.843 0 1.359.485 1.484 1.36zm0 0"/></symbol><symbol overflow="visible" id="aC"><path d="M2.203-3.688h2.735c.687 0 1.218-.203 1.687-.624.516-.485.75-1.047.75-1.844 0-1.64-.969-2.563-2.688-2.563H1.095V0h1.11zm0-.984v-3.062h2.313c1.062 0 1.703.578 1.703 1.53 0 .954-.64 1.532-1.703 1.532zm0 0"/></symbol><symbol overflow="visible" id="aD"><path d="M4.64-6.266L2.907-1.39l-1.61-4.875H.235L2.36.031l-.39.985c-.157.437-.375.609-.797.609-.14 0-.313-.016-.531-.078v.906c.203.11.406.156.671.156.329 0 .672-.109.938-.296.313-.235.484-.5.672-1L5.72-6.266zm0 0"/></symbol><symbol overflow="visible" id="aW"><path d="M5.594 0l2.453-7.297V0h1.047v-8.719H7.547L5.016-1.125 2.437-8.719H.891V0h1.062v-7.297L4.422 0zm0 0"/></symbol><symbol overflow="visible" id="aX"><path d="M5.672-2.625L6.562 0h1.25L4.75-8.719H3.312L.204 0h1.188l.921-2.625zm-.313-.922H2.58l1.437-3.969zm0 0"/></symbol><symbol overflow="visible" id="aY"><path d="M3.406 0l2.406-6.266H4.688L2.923-1.187 1.25-6.266H.125L2.313 0zm0 0"/></symbol><symbol overflow="visible" id="aZ"><path d="M7.719-8.719H6.672v7.125L2.109-8.719H.906V0h1.047v-7.063L6.47 0h1.25zm0 0"/></symbol><symbol overflow="visible" id="by"><path d="M3.984-8.719v6.14c0 .688-.078 1.079-.28 1.392-.22.328-.626.53-1.063.53-.829 0-1.297-.562-1.297-1.577v-.563H.204v.766C.203-.625 1.14.28 2.624.28c1.516 0 2.469-.953 2.469-2.453V-8.72zm0 0"/></symbol><symbol overflow="visible" id="bz"><path d="M7.906-6.016c-.343-1.906-1.437-2.843-3.36-2.843-1.171 0-2.109.375-2.75 1.093C1-6.906.579-5.672.579-4.25c0 1.422.438 2.656 1.266 3.516C2.516-.047 3.375.28 4.5.28c2.14 0 3.328-1.156 3.594-3.453H6.938c-.094.594-.204 1-.391 1.344-.36.719-1.094 1.125-2.031 1.125-1.735 0-2.829-1.39-2.829-3.563 0-2.234 1.047-3.609 2.735-3.609.703 0 1.36.219 1.719.547.328.297.5.672.64 1.312zm0 0"/></symbol><symbol overflow="visible" id="bA"><path d="M3.39-3.734H.548v.859H3.39zm0 0"/></symbol><symbol overflow="visible" id="aE"><path d="M3.938 2.531L1.5-3l2.438-5.516h-.61L.641-3l2.687 5.531zm0 0"/></symbol><symbol overflow="visible" id="aP"><path d="M3.938-3L1.233-8.516H.641L3.078-3 .641 2.531h.593zm0 0"/></symbol><symbol overflow="visible" id="aF"><path d="M2.703-3.11h2.235c1.593 0 2.625-1.14 2.625-2.906 0-1.734-.985-2.703-2.813-2.703H.906V0h1.797zm0-1.5v-2.609h1.672c.953 0 1.39.422 1.39 1.313 0 .89-.437 1.297-1.39 1.297zm0 0"/></symbol><symbol overflow="visible" id="aG"><path d="M.797-8.719V0h1.672v-3.875c0-.734.547-1.266 1.297-1.266.359 0 .64.125.843.391.141.219.188.39.188.813V0h1.672v-4.328c0-.797-.219-1.375-.657-1.75-.375-.313-.906-.484-1.453-.484-.828 0-1.421.328-1.89 1.046v-3.203zm0 0"/></symbol><symbol overflow="visible" id="aH"><path d="M.922 0h3.406c1.328 0 2.156-.313 2.75-1.016.688-.812 1.063-2 1.063-3.343 0-1.344-.375-2.532-1.063-3.344-.594-.719-1.406-1.016-2.75-1.016H.922zm1.797-1.5v-5.719h1.61c1.343 0 2.015.938 2.015 2.875 0 1.907-.672 2.844-2.016 2.844zm0 0"/></symbol><symbol overflow="visible" id="aI"><path d="M.75-6.453V0h1.672v-3.438c0-.968.5-1.468 1.469-1.468.187 0 .312.015.53.047v-1.688c-.093-.016-.155-.016-.202-.016-.766 0-1.438.5-1.797 1.375v-1.265zm0 0"/></symbol><symbol overflow="visible" id="aJ"><path d="M3.594-6.563C1.625-6.563.422-5.266.422-3.14S1.625.281 3.609.281c1.954 0 3.188-1.312 3.188-3.375 0-2.187-1.172-3.469-3.203-3.469zm.015 1.344c.922 0 1.516.828 1.516 2.094 0 1.219-.625 2.047-1.516 2.047-.906 0-1.515-.828-1.515-2.063 0-1.234.61-2.078 1.515-2.078zm0 0"/></symbol><symbol overflow="visible" id="aK"><path d="M4.875-6.453v.984c-.5-.765-1.047-1.093-1.797-1.093-1.531 0-2.672 1.5-2.672 3.484 0 2.015 1.047 3.36 2.64 3.36.75 0 1.204-.235 1.829-.938v.875c0 .765-.578 1.312-1.422 1.312-.625 0-1.047-.265-1.187-.75H.53c.016.5.203.844.64 1.203.516.422 1.235.625 2.22.625 1.953 0 3.078-.875 3.078-2.39v-6.672zM3.437-5.156c.844 0 1.47.86 1.47 2.062 0 1.172-.61 1.969-1.485 1.969-.797 0-1.344-.797-1.344-1.969 0-1.219.547-2.062 1.36-2.062zm0 0"/></symbol><symbol overflow="visible" id="aL"><path d="M6.266-.203c-.297-.281-.391-.453-.391-.781v-3.594c0-1.313-.89-1.984-2.64-1.984-1.735 0-2.657.734-2.75 2.234h1.609c.078-.672.36-.89 1.187-.89.64 0 .969.218.969.655 0 .22-.11.407-.297.5-.219.125-.219.125-1.047.25l-.672.126c-1.28.203-1.906.859-1.906 2.03 0 .548.156 1 .453 1.329.375.375.938.61 1.516.61.719 0 1.375-.313 1.953-.923 0 .329.047.454.203.641h1.813zM4.25-2.593c0 .968-.484 1.515-1.328 1.515-.563 0-.906-.297-.906-.781 0-.5.25-.735.953-.875l.562-.11c.453-.078.516-.11.719-.203zm0 0"/></symbol><symbol overflow="visible" id="aM"><path d="M.719-6.453V0H2.39v-3.875c0-.781.437-1.266 1.14-1.266.563 0 .922.329.922.844V0h1.672v-3.875c0-.781.422-1.266 1.14-1.266.563 0 .907.329.907.844V0h1.672v-4.563c0-1.265-.766-2-2.047-2-.813 0-1.39.282-1.89.954-.313-.61-.954-.954-1.766-.954-.735 0-1.22.25-1.766.907v-.797zm0 0"/></symbol><symbol overflow="visible" id="aN"><path d="M6.11 0h1.796v-8.719H6.11v5.938L2.656-8.72H.812V0H2.61v-6.031zm0 0"/></symbol><symbol overflow="visible" id="aO"><path d="M6.266-2.703c.015-.14.015-.203.015-.281 0-.657-.093-1.25-.25-1.704-.437-1.171-1.484-1.875-2.781-1.875-1.844 0-2.984 1.344-2.984 3.5C.266-.983 1.39.281 3.219.281c1.437 0 2.61-.828 2.984-2.094H4.547C4.344-1.296 3.89-1 3.28-1c-.484 0-.86-.203-1.11-.563-.155-.25-.218-.53-.233-1.14zm-4.313-1.11c.11-.984.531-1.468 1.281-1.468.407 0 .797.203 1.032.531.156.25.234.5.265.938zm0 0"/></symbol><symbol overflow="visible" id="aQ"><path d="M5.984-1.75L6.563 0h1.843L5.391-8.719H3.406L.312 0h1.829l.578-1.75zM5.5-3.25H3.234L4.36-6.656zm0 0"/></symbol><symbol overflow="visible" id="aR"><path d="M4.844 0h1.672v-8.719H4.844v3.094c-.422-.64-.985-.938-1.782-.938-1.546 0-2.718 1.485-2.718 3.438 0 .86.265 1.75.703 2.375C1.484-.125 2.266.281 3.063.281c.796 0 1.359-.312 1.78-.937zM3.437-5.156c.844 0 1.407.812 1.407 2.047 0 1.171-.578 1.984-1.407 1.984-.843 0-1.421-.828-1.421-2 0-1.203.578-2.031 1.421-2.031zm0 0"/></symbol><symbol overflow="visible" id="aS"><path d="M4.188 0l2.218-6.453H4.641L3.328-1.734l-1.39-4.72H.171L2.422 0zm0 0"/></symbol><symbol overflow="visible" id="aT"><path d="M2.469-6.453H.797V0h1.672zm0-2.266H.797v1.5h1.672zm0 0"/></symbol><symbol overflow="visible" id="aU"><path d="M6.031-4.375c-.015-1.36-1.078-2.188-2.797-2.188-1.64 0-2.656.829-2.656 2.157 0 .422.125.797.36 1.047.218.234.421.328 1.046.53l2 .626c.422.14.563.265.563.531 0 .39-.469.625-1.25.625-.422 0-.781-.078-.985-.219-.187-.14-.25-.265-.328-.609H.344C.39-.469 1.438.281 3.39.281c.906 0 1.578-.203 2.062-.578.469-.39.766-.984.766-1.61 0-.843-.422-1.374-1.266-1.624l-2.125-.61c-.469-.156-.578-.25-.578-.515 0-.36.375-.594.969-.594.797 0 1.187.297 1.203.875zm0 0"/></symbol><symbol overflow="visible" id="aV"><path d="M3.14-1.75H1.345V0H3.14zm0-4.469H1.345v1.75H3.14zm0 0"/></symbol><symbol overflow="visible" id="bw"><path d="M8.156-5.766c-.062-.75-.219-1.234-.594-1.718C6.891-8.36 5.829-8.86 4.517-8.86 2.062-8.86.53-7.094.53-4.281.531-1.484 2.047.28 4.47.28c2.172 0 3.61-1.265 3.718-3.25h-1.75c-.109 1.11-.812 1.735-1.921 1.735-1.391 0-2.204-1.125-2.204-3.016 0-1.938.86-3.078 2.266-3.078.625 0 1.14.219 1.469.64.187.235.281.454.39.922zm0 0"/></symbol><symbol overflow="visible" id="bx"><path d="M3.563-4.094H.313v1.625h3.25zm0 0"/></symbol><symbol overflow="visible" id="ba"><path d="M2.031-2.64h2.766l.14-.657H2.172l.39-1.86H5.72l.125-.655h-3.89L.718 0h.75zm0 0"/></symbol><symbol overflow="visible" id="bb"><path d="M3.844 0l.89-4.172h-.671l-.5 2.36c-.188.859-.75 1.421-1.422 1.421-.438 0-.72-.234-.72-.609 0-.063.016-.14.032-.219l.625-2.953h-.672L.72-.953c-.016.078-.016.172-.016.265 0 .547.406.875 1.094.875.625 0 1.078-.203 1.547-.64L3.25 0zm0 0"/></symbol><symbol overflow="visible" id="bc"><path d="M2.453-5.813h-.672L.547 0h.672zm0 0"/></symbol><symbol overflow="visible" id="bd"><path d="M2-2.469h1.813c.5 0 .874-.125 1.234-.406.5-.406.797-1 .797-1.656 0-.844-.5-1.282-1.485-1.282H1.953L.72 0h.75zm.14-.64l.438-2.047h1.547c.61 0 .953.265.953.781 0 .266-.094.531-.281.766-.266.343-.61.5-1.11.5zm0 0"/></symbol><symbol overflow="visible" id="be"><path d="M1.438-4.172L.546 0h.672l.468-2.172c.204-.969.766-1.453 1.641-1.422l.14-.672c-.093-.015-.155-.03-.25-.03-.468 0-.812.202-1.312.78l.14-.656zm0 0"/></symbol><symbol overflow="visible" id="bf"><path d="M3.063-4.297c-.75 0-1.391.344-1.797.922-.36.516-.625 1.39-.625 2.063 0 .89.609 1.5 1.5 1.5.765 0 1.375-.313 1.812-.922.375-.516.64-1.375.64-2.079 0-.421-.155-.828-.437-1.093-.281-.266-.64-.39-1.093-.39zm-.11.61c.594 0 .938.39.938 1.03 0 .47-.141.985-.36 1.391-.297.547-.719.829-1.281.829-.563 0-.906-.391-.906-1.032 0-.453.125-.984.343-1.375.297-.547.75-.844 1.266-.844zm0 0"/></symbol><symbol overflow="visible" id="bg"><path d="M2.953-4.172h-.687l.109-.547c.094-.406.234-.547.578-.547.063 0 .11 0 .219.016l.125-.547c-.156-.031-.235-.031-.36-.031-.624 0-1.062.36-1.187.937l-.156.72H1.03l-.11.53h.563L.704 0h.671l.781-3.64h.688zm0 0"/></symbol><symbol overflow="visible" id="bh"><path d="M4.484-1.86L4.516-2c.062-.375.109-.719.109-.938 0-.765-.672-1.359-1.531-1.359-.688 0-1.36.328-1.75.86-.375.5-.672 1.406-.672 2.062 0 .422.187.86.484 1.156.282.281.64.406 1.094.406.953 0 1.781-.593 2.016-1.453h-.657c-.296.547-.718.829-1.25.829-.625 0-.984-.391-.984-1.063 0-.172 0-.25.031-.36zm-2.937-.577c.219-.735.797-1.25 1.453-1.25.563 0 .922.39.922.984 0 .078-.016.14-.031.265zm0 0"/></symbol><symbol overflow="visible" id="bi"><path d="M4.094-3.016c.047-.156.047-.234.047-.343 0-.547-.532-.938-1.297-.938-.578 0-1.063.172-1.39.484-.282.282-.47.688-.47 1.063 0 .484.282.719 1.094.938l.594.14c.265.078.375.125.453.219.047.062.11.187.11.266 0 .14-.141.375-.266.484-.203.172-.531.265-.875.265-.563 0-.86-.203-.86-.609 0-.047 0-.11.016-.203H.531C.5-1.062.484-.969.484-.844c0 .64.563 1.031 1.485 1.031 1.187 0 1.953-.625 1.953-1.562 0-.484-.25-.75-.953-.922l-.61-.156c-.453-.11-.671-.266-.671-.469 0-.156.093-.36.234-.5.187-.187.422-.265.781-.265.469 0 .735.187.735.5 0 .062 0 .109-.016.171zm0 0"/></symbol><symbol overflow="visible" id="bj"><path d="M.875-.828L.687 0h.47C1.046.656.89.875.5.875l-.063.297C.97 1.188 1.36.812 1.5.125l.203-.953zm0 0"/></symbol><symbol overflow="visible" id="bk"><path d="M6.39-5.813h-.718L4.656-1.046 2.672-5.813h-.828L.609 0h.704l1-4.703L4.296 0h.844zm0 0"/></symbol><symbol overflow="visible" id="bl"><path d="M4.281-5.906c-.906 0-1.672.343-2.328 1.015A4.142 4.142 0 00.828-2.094c0 .688.219 1.297.578 1.656.39.391 1.032.625 1.703.625.75 0 1.438-.218 1.954-.625.937-.703 1.53-2 1.53-3.265 0-.625-.218-1.235-.562-1.594-.39-.39-1.031-.61-1.75-.61zm-.093.64c.53 0 1.046.235 1.312.579.219.28.328.656.328 1.14 0 .719-.25 1.5-.672 2.078-.468.64-1.156 1-1.937 1-.516 0-1.016-.219-1.297-.562-.219-.282-.328-.672-.328-1.125 0-.735.25-1.516.672-2.094a2.366 2.366 0 011.921-1.016zm0 0"/></symbol><symbol overflow="visible" id="bm"><path d="M3.125 0l3.25-5.813h-.781L2.906-.89 2.25-5.812h-.781L2.329 0zm0 0"/></symbol><symbol overflow="visible" id="bn"><path d="M4.172-1.75L4.39 0h.812l-.797-5.813h-.968L.14 0h.78l.985-1.75zm-.078-.61H2.25l1.531-2.656zm0 0"/></symbol><symbol overflow="visible" id="bo"><path d="M5.625-5.813L4.75-1.734C4.594-.938 3.937-.47 3.031-.47c-.765 0-1.281-.36-1.281-.906 0-.11.016-.234.047-.36l.86-4.077h-.75L1.093-2c-.047.266-.11.64-.11.766 0 .328.188.718.438.953.328.297.86.469 1.469.469 1.343 0 2.375-.75 2.609-1.922l.875-4.079zm0 0"/></symbol><symbol overflow="visible" id="bp"><path d="M1.438-4.172L.563 0h.671l.485-2.297c.187-.875.75-1.422 1.453-1.422.406 0 .703.281.703.64 0 .048-.016.173-.047.298L3.234 0h.672l.64-3c.016-.094.032-.203.032-.297 0-.61-.422-1-1.094-1-.593 0-1.125.219-1.546.64l.109-.515zm0 0"/></symbol><symbol overflow="visible" id="bq"><path d="M2.078-4.172h-.672L.531 0h.656zm.36-1.64h-.672l-.188.828h.672zm0 0"/></symbol><symbol overflow="visible" id="br"><path d="M2.281 0l2.485-4.172h-.72L2.095-.812l-.39-3.36H.968L1.563 0zm0 0"/></symbol><symbol overflow="visible" id="bs"><path d="M2.922-4.172h-.719l.25-1.156h-.672l-.25 1.156H.97l-.11.531h.563L.797-.687a1.096 1.096 0 00-.031.233c0 .39.28.64.718.64.157 0 .407-.03.516-.062l.125-.578c-.25.062-.281.062-.375.062-.188 0-.297-.093-.297-.218 0-.016.016-.063.016-.11l.625-2.922h.719zm0 0"/></symbol><symbol overflow="visible" id="bt"><path d="M4-4.172L2.14-.938l-.374-3.234h-.72L1.595.031l-.422.64c-.203.345-.328.423-.625.423-.078 0-.14-.016-.36-.032l-.124.594c.14.063.234.078.39.078.563 0 .969-.265 1.313-.859l2.937-5.047zm0 0"/></symbol><symbol overflow="visible" id="bu"><path d="M2.625-5.813h-.75L.641 0H4.25l.14-.656H1.517zm0 0"/></symbol><symbol overflow="visible" id="bv"><path d="M1.672-5.813L.438 0h.593l.125-.625c.11.25.188.36.297.484.219.203.531.329.89.329a2.1 2.1 0 001.454-.625c.531-.563.89-1.47.89-2.297 0-.891-.609-1.563-1.406-1.563-.328 0-.687.094-.922.234-.14.094-.234.188-.484.438l.453-2.188zm1.375 2.125c.594 0 .937.422.937 1.11 0 .453-.14.953-.359 1.344-.328.546-.75.796-1.266.796-.546 0-.89-.39-.89-1.015 0-.5.156-1.047.375-1.422.312-.531.734-.813 1.203-.813zm0 0"/></symbol><symbol overflow="visible" id="bB"><path d="M4.39-2.766l.016-.125c0-.125.016-.203.016-.234 0-.266-.156-.578-.36-.797-.25-.25-.578-.375-1.03-.375-.72 0-1.36.297-1.782.86C.875-2.954.61-2.095.61-1.36c0 .375.124.765.343 1.046.281.344.625.5 1.14.5.657 0 1.204-.234 1.579-.671.203-.235.328-.5.453-.954h-.672c-.234.657-.672 1-1.25 1-.547 0-.89-.39-.89-1 0-.515.156-1.125.421-1.53.297-.47.704-.72 1.188-.72.5 0 .812.282.812.735 0 .047 0 .11-.015.187zm0 0"/></symbol><symbol overflow="visible" id="bC"><path d="M4.406-.406c-.078.015-.11.015-.14.015-.204 0-.313-.078-.313-.234 0-.031 0-.047.016-.078l.515-2.39c.047-.22.047-.22.047-.298 0-.546-.562-.906-1.39-.906-1.11 0-1.782.469-1.938 1.36h.672c.063-.22.125-.344.234-.454.172-.171.516-.296.86-.296.469 0 .844.218.844.515 0 .031-.016.094-.016.156l-.031.141c-.063.328-.22.406-.797.469-1.078.094-1.406.172-1.797.422-.422.265-.656.687-.656 1.14 0 .64.437 1.031 1.156 1.031.266 0 .61-.062.89-.156.266-.093.376-.172.704-.469v.094c0 .328.218.531.609.531.078 0 .11 0 .313-.046.015-.016.062-.016.109-.032zm-.968-.906c-.11.5-.813.921-1.516.921-.453 0-.703-.187-.703-.53 0-.25.156-.516.39-.657.188-.125.438-.188.829-.25.734-.094.812-.11 1.156-.234zm0 0"/></symbol><symbol overflow="visible" id="bD"><path d="M4.594 2.953L1.75-3.5l2.844-6.453H3.89L.734-3.5l3.157 6.453zm0 0"/></symbol><symbol overflow="visible" id="bF"><path d="M4.594-3.5L1.437-9.953H.735L3.594-3.5.734 2.953h.704zm0 0"/></symbol><clipPath id="a"><path d="M140 57.066h11V78h-11zm0 0"/></clipPath><clipPath id="b"><path d="M200 61h12.77v18H200zm0 0"/></clipPath><clipPath id="c"><path d="M71.066 57.066H117V111.7H71.066zm0 0"/></clipPath></defs><path d="M0 841.89h595.277V0H0zm0 0" fill="#fff"/><path d="M131.14 64.7h-4.519v-2.657h12.102v2.656h-4.52v13.285h-3.062zm0 0" fill="#424a52"/><g clip-path="url(#a)"><path d="M144.168 59.387c1.14-.696 2.262-1.39 3.23-2.133l1.145 1.773c-1.094.79-1.992 1.317-3.305 1.985zm-3.379 2.656h9.918v2.656h-6.855v3.856h6.32v2.656h-6.32v4.117h6.855v2.656h-9.918zm0 0" fill="#424a52"/></g><path d="M153.137 66.422c0-2.922 1.722-4.621 5.758-4.621 1.507 0 3.062.191 4.398.527l-.34 2.61c-1.312-.239-2.844-.407-3.96-.407-2.114 0-2.794.719-2.794 2.418v6.13c0 1.698.68 2.417 2.793 2.417 1.117 0 2.649-.168 3.961-.41l.34 2.61a18.58 18.58 0 01-4.398.527c-4.036 0-5.758-1.7-5.758-4.618zm15.699-.527v12.09h-2.988V62.042h4.082l6.148 12.11v-12.11h2.988v15.941h-4.082zm16.695 12.089h-3.062V62.043h3.062zm3.039-11.562c0-2.922 1.723-4.621 5.758-4.621 1.508 0 3.063.191 4.399.527l-.34 2.61c-1.313-.239-2.844-.407-3.961-.407-2.113 0-2.793.719-2.793 2.418v6.13c0 1.698.68 2.417 2.793 2.417 1.117 0 2.648-.168 3.96-.41l.34 2.61c-1.335.335-2.89.527-4.398.527-4.035 0-5.758-1.7-5.758-4.618zm0 0" fill="#424a52"/><g clip-path="url(#b)"><path d="M203.613 73.148c0 1.508.778 2.418 3.063 2.418s3.062-.91 3.062-2.418v-6.27c0-1.507-.777-2.417-3.062-2.417-2.285 0-3.063.91-3.063 2.418zm9.188.168c0 2.657-1.555 4.907-6.125 4.907s-6.125-2.25-6.125-4.907v-6.605c0-2.66 1.554-4.91 6.125-4.91 4.57 0 6.125 2.25 6.125 4.91zm0 0" fill="#424a52"/></g><path d="M132.508 96.84h7.289v1.27h-8.723V82.167h1.434zm11.98 1.27h-1.433V82.167h1.433zm8.555.238c-1.41 0-3.184-.239-4.57-.762l.27-1.152a15.35 15.35 0 004.347.648c2.773 0 3.527-.816 3.527-2.852 0-2.464-.027-2.726-3.625-3.543-3.91-.882-4.347-1.578-4.347-4.785 0-2.609.972-3.972 5.03-3.972 1.41 0 3.087.238 4.18.55l-.171 1.196c-1.192-.262-2.696-.48-3.961-.48-3.207 0-3.645.769-3.645 2.753 0 2.586.074 2.707 3.477 3.543 4.25 1.055 4.496 1.653 4.496 4.668 0 2.61-.903 4.188-5.008 4.188m17.5-5.528c0-1.34-.805-2.25-2.676-2.25h-4.52v6.297h4.934c1.531 0 2.262-.742 2.262-2.012zm-.512-7.707c0-1.101-.633-1.699-2.02-1.699h-4.663v5.91h4.18c1.773 0 2.503-.91 2.503-2.176zm-8.117 12.996V82.168h6.074c2.188 0 3.477 1.031 3.477 3.137v1.914c0 1.27-.535 2.105-1.848 2.586 1.266.168 2.36 1.195 2.36 2.968v2.082c0 2.204-1.63 3.254-3.72 3.254zm22.965-4.546v-6.848c0-2.274-1.117-3.52-4.227-3.52-3.113 0-4.23 1.246-4.23 3.52v6.847c0 2.274 1.117 3.52 4.23 3.52 3.11 0 4.227-1.246 4.227-3.52m-4.227 4.786c-4.156 0-5.664-2.008-5.664-4.739v-6.941c0-2.727 1.508-4.738 5.664-4.738 4.157 0 5.66 2.011 5.66 4.738v6.941c0 2.73-1.503 4.739-5.66 4.739m11.301-5.648h6.66l-3.332-9.72zm7.094 1.222h-7.531l-1.508 4.187h-1.41l5.64-15.941h2.114l5.636 15.941h-1.41zm0 0" fill="#424a52"/><g clip-path="url(#c)"><path d="M93.68 111.7s-22.614-11.095-22.614-31.805V56.89h45.317v23.004c0 20.71-22.703 31.804-22.703 31.804" fill-rule="evenodd" fill="#00adef"/></g><path d="M105.785 74.195h-1.887v14.188h-4.082V74.195h-1.882v-2.843h7.851zm-18.23 14.176h-4.078l.003-17.02h4.07zm0 0" fill="#fff"/><path d="M97.758 61.707c-3.375 0-6.113 1.75-6.113 5.129v26.07c0 2.864 0 4.281-2.036 4.281-1.886 0-2.054-1.414-2.054-3.5a2.037 2.037 0 00-2.04-2.035c-1.124 0-2.038.91-2.038 2.035h-.004c0 2.872 2.761 4.348 6.136 4.348 3.38 0 6.118-1.75 6.118-5.129v-26.07c0-2.86 0-4.277 2.03-4.277 1.891 0 2.06 1.414 2.06 3.496a2.04 2.04 0 002.038 2.039 2.04 2.04 0 002.04-2.04h.003c0-2.87-2.761-4.347-6.14-4.347" fill="#fff"/><use xlink:href="#d" x="204.396" y="142.309"/><use xlink:href="#e" x="215.905" y="142.309"/><use xlink:href="#f" x="227.414" y="142.309"/><use xlink:href="#g" x="231.845" y="142.309"/><use xlink:href="#h" x="242.477" y="142.309"/><use xlink:href="#i" x="253.109" y="142.309"/><use xlink:href="#j" x="264.618" y="142.309"/><use xlink:href="#f" x="275.25" y="142.309"/><use xlink:href="#k" x="279.682" y="142.309"/><use xlink:href="#l" x="289.421" y="142.309"/><use xlink:href="#m" x="304.485" y="142.309"/><use xlink:href="#n" x="316.886" y="142.309"/><use xlink:href="#o" x="331.057" y="142.309"/><use xlink:href="#f" x="340.796" y="142.309"/><use xlink:href="#j" x="345.228" y="142.309"/><use xlink:href="#p" x="355.86" y="142.309"/><use xlink:href="#m" x="367.369" y="142.309"/><use xlink:href="#e" x="379.77" y="142.309"/><use xlink:href="#f" x="174.166" y="167.313"/><use xlink:href="#e" x="178.597" y="167.313"/><use xlink:href="#j" x="190.106" y="167.313"/><use xlink:href="#k" x="200.738" y="167.313"/><use xlink:href="#f" x="210.478" y="167.313"/><use xlink:href="#k" x="214.909" y="167.313"/><use xlink:href="#d" x="224.649" y="167.313"/><use xlink:href="#k" x="236.157" y="167.313"/><use xlink:href="#m" x="245.259" y="167.313"/><use xlink:href="#j" x="262.092" y="167.313"/><use xlink:href="#d" x="272.724" y="167.313"/><use xlink:href="#q" x="284.233" y="167.313"/><use xlink:href="#h" x="294.865" y="167.313"/><use xlink:href="#i" x="305.497" y="167.313"/><use xlink:href="#f" x="317.006" y="167.313"/><use xlink:href="#m" x="321.438" y="167.313"/><use xlink:href="#i" x="333.839" y="167.313"/><use xlink:href="#k" x="349.779" y="167.313"/><use xlink:href="#r" x="359.519" y="167.313"/><use xlink:href="#s" x="370.151" y="167.313"/><use xlink:href="#e" x="381.66" y="167.313"/><use xlink:href="#f" x="393.168" y="167.313"/><use xlink:href="#s" x="397.6" y="167.313"/><use xlink:href="#m" x="409.109" y="167.313"/><use xlink:href="#t" x="177.25" y="239.34"/><use xlink:href="#u" x="195.183" y="239.34"/><use xlink:href="#v" x="206.247" y="239.34"/><use xlink:href="#w" x="216.218" y="239.34"/><use xlink:href="#x" x="223.373" y="239.34"/><use xlink:href="#y" x="238.329" y="239.34"/><use xlink:href="#z" x="249.286" y="239.34"/><use xlink:href="#A" x="260.243" y="239.34"/><use xlink:href="#B" x="271.2" y="239.34"/><use xlink:href="#C" x="287.142" y="239.34"/><use xlink:href="#A" x="297.113" y="239.34"/><use xlink:href="#D" x="308.07" y="239.34"/><use xlink:href="#E" x="324.012" y="239.34"/><use xlink:href="#F" x="328.997" y="239.34"/><use xlink:href="#G" x="344.94" y="239.34"/><use xlink:href="#w" x="355.897" y="239.34"/><use xlink:href="#v" x="362.872" y="239.34"/><use xlink:href="#H" x="372.843" y="239.34"/><use xlink:href="#H" x="382.814" y="239.34"/><use xlink:href="#I" x="392.784" y="239.34"/><use xlink:href="#J" x="397.77" y="239.34"/><use xlink:href="#v" x="407.74" y="239.34"/><use xlink:href="#K" x="140.031" y="263.509"/><use xlink:href="#L" x="150.988" y="263.509"/><use xlink:href="#v" x="161.945" y="263.509"/><use xlink:href="#H" x="171.916" y="263.509"/><use xlink:href="#I" x="181.886" y="263.509"/><use xlink:href="#H" x="186.871" y="263.509"/><use xlink:href="#K" x="201.827" y="263.509"/><use xlink:href="#I" x="212.784" y="263.509"/><use xlink:href="#M" x="217.77" y="263.509"/><use xlink:href="#N" x="223.741" y="263.509"/><use xlink:href="#v" x="228.727" y="263.509"/><use xlink:href="#O" x="243.683" y="263.509"/><use xlink:href="#I" x="257.634" y="263.509"/><use xlink:href="#M" x="262.62" y="263.509"/><use xlink:href="#L" x="268.591" y="263.509"/><use xlink:href="#C" x="284.534" y="263.509"/><use xlink:href="#P" x="299.489" y="263.509"/><use xlink:href="#z" x="310.446" y="263.509"/><use xlink:href="#w" x="321.403" y="263.509"/><use xlink:href="#Q" x="328.021" y="263.509"/><use xlink:href="#v" x="337.991" y="263.509"/><use xlink:href="#D" x="347.962" y="263.509"/><use xlink:href="#y" x="363.904" y="263.509"/><use xlink:href="#I" x="374.861" y="263.509"/><use xlink:href="#A" x="379.846" y="263.509"/><use xlink:href="#v" x="390.803" y="263.509"/><use xlink:href="#R" x="405.759" y="263.509"/><use xlink:href="#w" x="418.707" y="263.509"/><use xlink:href="#v" x="425.683" y="263.509"/><use xlink:href="#C" x="435.653" y="263.509"/><use xlink:href="#S" x="445.624" y="263.509"/><use xlink:href="#T" x="211.871" y="332.353"/><use xlink:href="#U" x="219.626" y="332.353"/><use xlink:href="#V" x="228.148" y="332.353"/><use xlink:href="#W" x="236.67" y="332.353"/><use xlink:href="#X" x="249.07" y="332.353"/><use xlink:href="#Y" x="257.675" y="332.353"/><use xlink:href="#Z" x="265.43" y="332.353"/><use xlink:href="#aa" x="270.995" y="332.353"/><use xlink:href="#ab" x="282.628" y="332.353"/><use xlink:href="#U" x="291.15" y="332.353"/><use xlink:href="#W" x="299.672" y="332.353"/><use xlink:href="#ac" x="308.194" y="332.353"/><use xlink:href="#W" x="316.716" y="332.353"/><use xlink:href="#ad" x="325.238" y="332.353"/><use xlink:href="#ae" x="332.993" y="332.353"/><use xlink:href="#Y" x="345.392" y="332.353"/><use xlink:href="#af" x="357.025" y="332.353"/><use xlink:href="#U" x="367.095" y="332.353"/><use xlink:href="#Y" x="375.617" y="332.353"/><use xlink:href="#ag" x="201.061" y="406.537"/><use xlink:href="#ah" x="208.366" y="406.537"/><use xlink:href="#ai" x="215.013" y="406.537"/><use xlink:href="#aj" x="221.66" y="406.537"/><use xlink:href="#ak" x="227.637" y="406.537"/><use xlink:href="#aj" x="230.291" y="406.537"/><use xlink:href="#aj" x="239.593" y="406.537"/><use xlink:href="#al" x="245.57" y="406.537"/><use xlink:href="#am" x="252.217" y="406.537"/><use xlink:href="#an" x="258.864" y="406.537"/><use xlink:href="#ak" x="268.823" y="406.537"/><use xlink:href="#ao" x="271.477" y="406.537"/><use xlink:href="#ao" x="274.801" y="406.537"/><use xlink:href="#ai" x="278.124" y="406.537"/><use xlink:href="#ap" x="284.771" y="406.537"/><use xlink:href="#ak" x="294.742" y="406.537"/><use xlink:href="#aq" x="297.396" y="406.537"/><use xlink:href="#ar" x="307.367" y="406.537"/><use xlink:href="#as" x="314.014" y="406.537"/><use xlink:href="#at" x="320.661" y="406.537"/><use xlink:href="#ao" x="325.12" y="406.537"/><use xlink:href="#ak" x="328.444" y="406.537"/><use xlink:href="#as" x="331.098" y="406.537"/><use xlink:href="#au" x="337.745" y="406.537"/><use xlink:href="#av" x="343.722" y="406.537"/><use xlink:href="#al" x="347.046" y="406.537"/><use xlink:href="#au" x="353.693" y="406.537"/><use xlink:href="#aw" x="356.347" y="406.537"/><use xlink:href="#au" x="362.325" y="406.537"/><use xlink:href="#au" x="364.979" y="406.537"/><use xlink:href="#an" x="367.633" y="406.537"/><use xlink:href="#ai" x="377.591" y="406.537"/><use xlink:href="#aq" x="384.239" y="406.537"/><use xlink:href="#ao" x="390.886" y="406.537"/><use xlink:href="#ax" x="201.056" y="421.039"/><use xlink:href="#av" x="207.703" y="421.039"/><use xlink:href="#ao" x="214.35" y="421.039"/><use xlink:href="#ah" x="217.674" y="421.039"/><use xlink:href="#ai" x="224.321" y="421.039"/><use xlink:href="#at" x="234.291" y="421.039"/><use xlink:href="#ai" x="238.273" y="421.039"/><use xlink:href="#ay" x="244.92" y="421.039"/><use xlink:href="#al" x="251.567" y="421.039"/><use xlink:href="#ak" x="258.214" y="421.039"/><use xlink:href="#at" x="260.868" y="421.039"/><use xlink:href="#ai" x="264.849" y="421.039"/><use xlink:href="#an" x="271.496" y="421.039"/><use xlink:href="#ai" x="281.455" y="421.039"/><use xlink:href="#aq" x="288.102" y="421.039"/><use xlink:href="#ao" x="294.749" y="421.039"/><use xlink:href="#aj" x="298.072" y="421.039"/><use xlink:href="#av" x="307.374" y="421.039"/><use xlink:href="#ax" x="310.338" y="421.039"/><use xlink:href="#at" x="316.986" y="421.039"/><use xlink:href="#ao" x="324.29" y="421.039"/><use xlink:href="#ah" x="327.614" y="421.039"/><use xlink:href="#ai" x="334.261" y="421.039"/><use xlink:href="#ap" x="344.231" y="421.039"/><use xlink:href="#ai" x="350.879" y="421.039"/><use xlink:href="#az" x="357.526" y="421.039"/><use xlink:href="#at" x="364.053" y="421.039"/><use xlink:href="#ai" x="368.034" y="421.039"/><use xlink:href="#ai" x="374.681" y="421.039"/><use xlink:href="#ax" x="384.652" y="421.039"/><use xlink:href="#av" x="391.299" y="421.039"/><use xlink:href="#aA" x="236.556" y="443.356"/><use xlink:href="#ax" x="245.188" y="443.356"/><use xlink:href="#aB" x="251.835" y="443.356"/><use xlink:href="#ao" x="257.812" y="443.356"/><use xlink:href="#ax" x="261.136" y="443.356"/><use xlink:href="#at" x="267.783" y="443.356"/><use xlink:href="#ax" x="275.088" y="443.356"/><use xlink:href="#av" x="281.735" y="443.356"/><use xlink:href="#aC" x="288.382" y="443.356"/><use xlink:href="#ah" x="296.356" y="443.356"/><use xlink:href="#ak" x="303.003" y="443.356"/><use xlink:href="#au" x="305.657" y="443.356"/><use xlink:href="#ax" x="308.311" y="443.356"/><use xlink:href="#aj" x="314.958" y="443.356"/><use xlink:href="#ax" x="320.936" y="443.356"/><use xlink:href="#ar" x="327.583" y="443.356"/><use xlink:href="#ah" x="334.23" y="443.356"/><use xlink:href="#aD" x="340.518" y="443.356"/><use xlink:href="#ak" x="349.82" y="443.356"/><use xlink:href="#aq" x="352.474" y="443.356"/><use xlink:href="#aE" x="237.255" y="457.858"/><use xlink:href="#aF" x="241.822" y="457.858"/><use xlink:href="#aG" x="249.796" y="457.858"/><use xlink:href="#aH" x="257.101" y="457.858"/><use xlink:href="#aF" x="269.056" y="457.858"/><use xlink:href="#aI" x="277.03" y="457.858"/><use xlink:href="#aJ" x="281.442" y="457.858"/><use xlink:href="#aK" x="288.746" y="457.858"/><use xlink:href="#aI" x="296.051" y="457.858"/><use xlink:href="#aL" x="300.701" y="457.858"/><use xlink:href="#aM" x="307.348" y="457.858"/><use xlink:href="#aN" x="321.3" y="457.858"/><use xlink:href="#aL" x="329.932" y="457.858"/><use xlink:href="#aM" x="336.579" y="457.858"/><use xlink:href="#aO" x="347.207" y="457.858"/><use xlink:href="#aP" x="353.852" y="457.858"/><use xlink:href="#aQ" x="118.144" y="587.163"/><use xlink:href="#aR" x="126.776" y="587.163"/><use xlink:href="#aS" x="133.901" y="587.163"/><use xlink:href="#aT" x="140.548" y="587.163"/><use xlink:href="#aU" x="143.872" y="587.163"/><use xlink:href="#aO" x="150.519" y="587.163"/><use xlink:href="#aI" x="157.166" y="587.163"/><use xlink:href="#aV" x="161.816" y="587.163"/><use xlink:href="#aW" x="177.752" y="587.163"/><use xlink:href="#as" x="187.711" y="587.163"/><use xlink:href="#at" x="194.358" y="587.163"/><use xlink:href="#aD" x="198.698" y="587.163"/><use xlink:href="#aA" x="207.999" y="587.163"/><use xlink:href="#ax" x="216.63" y="587.163"/><use xlink:href="#ai" x="223.277" y="587.163"/><use xlink:href="#aX" x="233.248" y="587.163"/><use xlink:href="#ap" x="241.222" y="587.163"/><use xlink:href="#aY" x="247.869" y="587.163"/><use xlink:href="#ak" x="253.847" y="587.163"/><use xlink:href="#aj" x="256.501" y="587.163"/><use xlink:href="#ai" x="262.479" y="587.163"/><use xlink:href="#at" x="269.126" y="587.163"/><use xlink:href="#aZ" x="276.43" y="587.163"/><use xlink:href="#as" x="285.062" y="587.163"/><use xlink:href="#an" x="291.709" y="587.163"/><use xlink:href="#ai" x="301.668" y="587.163"/><use xlink:href="#ba" x="177.752" y="598.538"/><use xlink:href="#bb" x="182.622" y="598.538"/><use xlink:href="#bc" x="187.053" y="598.538"/><use xlink:href="#bc" x="188.822" y="598.538"/><use xlink:href="#bd" x="192.808" y="598.538"/><use xlink:href="#be" x="198.124" y="598.538"/><use xlink:href="#bf" x="200.778" y="598.538"/><use xlink:href="#bg" x="205.209" y="598.538"/><use xlink:href="#bh" x="207.186" y="598.538"/><use xlink:href="#bi" x="211.617" y="598.538"/><use xlink:href="#bi" x="215.602" y="598.538"/><use xlink:href="#bf" x="219.587" y="598.538"/><use xlink:href="#be" x="224.018" y="598.538"/><use xlink:href="#bj" x="226.274" y="598.538"/><use xlink:href="#bk" x="230.705" y="598.538"/><use xlink:href="#bl" x="236.46" y="598.538"/><use xlink:href="#bm" x="242.262" y="598.538"/><use xlink:href="#bn" x="246.94" y="598.538"/><use xlink:href="#bo" x="254.472" y="598.538"/><use xlink:href="#bp" x="260.227" y="598.538"/><use xlink:href="#bq" x="264.658" y="598.538"/><use xlink:href="#br" x="266.427" y="598.538"/><use xlink:href="#bh" x="270.213" y="598.538"/><use xlink:href="#be" x="274.645" y="598.538"/><use xlink:href="#bi" x="277.299" y="598.538"/><use xlink:href="#bq" x="281.284" y="598.538"/><use xlink:href="#bs" x="283.053" y="598.538"/><use xlink:href="#bt" x="285.269" y="598.538"/><use xlink:href="#bu" x="291.469" y="598.538"/><use xlink:href="#bq" x="295.901" y="598.538"/><use xlink:href="#bi" x="297.67" y="598.538"/><use xlink:href="#bv" x="301.655" y="598.538"/><use xlink:href="#bf" x="306.087" y="598.538"/><use xlink:href="#bp" x="310.518" y="598.538"/><use xlink:href="#bw" x="93.744" y="616.345"/><use xlink:href="#aJ" x="102.376" y="616.345"/><use xlink:href="#bx" x="109.68" y="616.345"/><use xlink:href="#aL" x="113.661" y="616.345"/><use xlink:href="#aR" x="120.308" y="616.345"/><use xlink:href="#aS" x="127.434" y="616.345"/><use xlink:href="#aT" x="134.081" y="616.345"/><use xlink:href="#aU" x="137.404" y="616.345"/><use xlink:href="#aO" x="144.051" y="616.345"/><use xlink:href="#aI" x="150.699" y="616.345"/><use xlink:href="#aU" x="155.17" y="616.345"/><use xlink:href="#aV" x="161.817" y="616.345"/><use xlink:href="#by" x="177.418" y="616.345"/><use xlink:href="#ax" x="183.396" y="616.345"/><use xlink:href="#ah" x="190.043" y="616.345"/><use xlink:href="#aq" x="196.69" y="616.345"/><use xlink:href="#aA" x="206.66" y="616.345"/><use xlink:href="#ax" x="215.292" y="616.345"/><use xlink:href="#ai" x="221.939" y="616.345"/><use xlink:href="#bz" x="231.91" y="616.345"/><use xlink:href="#ax" x="240.541" y="616.345"/><use xlink:href="#bA" x="247.189" y="616.345"/><use xlink:href="#aX" x="251.17" y="616.345"/><use xlink:href="#ap" x="259.144" y="616.345"/><use xlink:href="#aY" x="265.791" y="616.345"/><use xlink:href="#ak" x="271.768" y="616.345"/><use xlink:href="#aj" x="274.422" y="616.345"/><use xlink:href="#ai" x="280.4" y="616.345"/><use xlink:href="#at" x="287.047" y="616.345"/><use xlink:href="#aZ" x="294.352" y="616.345"/><use xlink:href="#as" x="302.983" y="616.345"/><use xlink:href="#an" x="309.631" y="616.345"/><use xlink:href="#ai" x="319.589" y="616.345"/><use xlink:href="#bn" x="177.752" y="627.72"/><use xlink:href="#bi" x="183.068" y="627.72"/><use xlink:href="#bi" x="187.053" y="627.72"/><use xlink:href="#bf" x="191.038" y="627.72"/><use xlink:href="#bB" x="195.47" y="627.72"/><use xlink:href="#bq" x="199.455" y="627.72"/><use xlink:href="#bC" x="201.224" y="627.72"/><use xlink:href="#bs" x="205.655" y="627.72"/><use xlink:href="#bh" x="207.871" y="627.72"/><use xlink:href="#bd" x="214.518" y="627.72"/><use xlink:href="#be" x="219.834" y="627.72"/><use xlink:href="#bf" x="222.488" y="627.72"/><use xlink:href="#bg" x="226.92" y="627.72"/><use xlink:href="#bh" x="228.896" y="627.72"/><use xlink:href="#bi" x="233.328" y="627.72"/><use xlink:href="#bi" x="237.313" y="627.72"/><use xlink:href="#bf" x="241.298" y="627.72"/><use xlink:href="#be" x="245.729" y="627.72"/><use xlink:href="#bj" x="247.985" y="627.72"/><use xlink:href="#bk" x="252.416" y="627.72"/><use xlink:href="#bl" x="258.17" y="627.72"/><use xlink:href="#bm" x="263.973" y="627.72"/><use xlink:href="#bn" x="268.651" y="627.72"/><use xlink:href="#bo" x="276.183" y="627.72"/><use xlink:href="#bp" x="281.937" y="627.72"/><use xlink:href="#bq" x="286.369" y="627.72"/><use xlink:href="#br" x="288.138" y="627.72"/><use xlink:href="#bh" x="291.924" y="627.72"/><use xlink:href="#be" x="296.355" y="627.72"/><use xlink:href="#bi" x="299.009" y="627.72"/><use xlink:href="#bq" x="302.994" y="627.72"/><use xlink:href="#bs" x="304.764" y="627.72"/><use xlink:href="#bt" x="306.979" y="627.72"/><use xlink:href="#bu" x="313.18" y="627.72"/><use xlink:href="#bq" x="317.611" y="627.72"/><use xlink:href="#bi" x="319.381" y="627.72"/><use xlink:href="#bv" x="323.366" y="627.72"/><use xlink:href="#bf" x="327.797" y="627.72"/><use xlink:href="#bp" x="332.228" y="627.72"/><use xlink:href="#by" x="177.418" y="644.722"/><use xlink:href="#ax" x="183.396" y="644.722"/><use xlink:href="#ah" x="190.043" y="644.722"/><use xlink:href="#aq" x="196.69" y="644.722"/><use xlink:href="#aA" x="206.66" y="644.722"/><use xlink:href="#ax" x="215.292" y="644.722"/><use xlink:href="#ai" x="221.939" y="644.722"/><use xlink:href="#ax" x="231.91" y="644.722"/><use xlink:href="#ao" x="238.557" y="644.722"/><use xlink:href="#ah" x="241.88" y="644.722"/><use xlink:href="#ai" x="248.528" y="644.722"/><use xlink:href="#at" x="255.175" y="644.722"/><use xlink:href="#bz" x="262.479" y="644.722"/><use xlink:href="#ax" x="271.111" y="644.722"/><use xlink:href="#bA" x="277.758" y="644.722"/><use xlink:href="#aX" x="281.739" y="644.722"/><use xlink:href="#ap" x="289.713" y="644.722"/><use xlink:href="#aY" x="296.36" y="644.722"/><use xlink:href="#ak" x="302.338" y="644.722"/><use xlink:href="#aj" x="304.992" y="644.722"/><use xlink:href="#ai" x="310.97" y="644.722"/><use xlink:href="#at" x="317.617" y="644.722"/><use xlink:href="#aZ" x="324.921" y="644.722"/><use xlink:href="#as" x="333.553" y="644.722"/><use xlink:href="#an" x="340.2" y="644.722"/><use xlink:href="#ai" x="350.159" y="644.722"/><use xlink:href="#ba" x="177.752" y="656.098"/><use xlink:href="#bb" x="182.622" y="656.098"/><use xlink:href="#bc" x="187.053" y="656.098"/><use xlink:href="#bc" x="188.822" y="656.098"/><use xlink:href="#bd" x="192.808" y="656.098"/><use xlink:href="#be" x="198.124" y="656.098"/><use xlink:href="#bf" x="200.778" y="656.098"/><use xlink:href="#bg" x="205.209" y="656.098"/><use xlink:href="#bh" x="207.186" y="656.098"/><use xlink:href="#bi" x="211.617" y="656.098"/><use xlink:href="#bi" x="215.602" y="656.098"/><use xlink:href="#bf" x="219.587" y="656.098"/><use xlink:href="#be" x="224.018" y="656.098"/><use xlink:href="#bj" x="226.274" y="656.098"/><use xlink:href="#bk" x="230.705" y="656.098"/><use xlink:href="#bl" x="236.46" y="656.098"/><use xlink:href="#bm" x="242.262" y="656.098"/><use xlink:href="#bn" x="246.94" y="656.098"/><use xlink:href="#bo" x="254.472" y="656.098"/><use xlink:href="#bp" x="260.227" y="656.098"/><use xlink:href="#bq" x="264.658" y="656.098"/><use xlink:href="#br" x="266.427" y="656.098"/><use xlink:href="#bh" x="270.213" y="656.098"/><use xlink:href="#be" x="274.645" y="656.098"/><use xlink:href="#bi" x="277.299" y="656.098"/><use xlink:href="#bq" x="281.284" y="656.098"/><use xlink:href="#bs" x="283.053" y="656.098"/><use xlink:href="#bt" x="285.269" y="656.098"/><use xlink:href="#bu" x="291.469" y="656.098"/><use xlink:href="#bq" x="295.901" y="656.098"/><use xlink:href="#bi" x="297.67" y="656.098"/><use xlink:href="#bv" x="301.655" y="656.098"/><use xlink:href="#bf" x="306.087" y="656.098"/><use xlink:href="#bp" x="310.518" y="656.098"/><use xlink:href="#bD" x="247.723" y="796.682"/><use xlink:href="#ae" x="253.051" y="796.682"/><use xlink:href="#U" x="265.451" y="796.682"/><use xlink:href="#W" x="273.973" y="796.682"/><use xlink:href="#bE" x="282.495" y="796.682"/><use xlink:href="#V" x="287.139" y="796.682"/><use xlink:href="#bF" x="295.661" y="796.682"/><use xlink:href="#bG" x="300.989" y="796.682"/><use xlink:href="#bD" x="308.744" y="796.682"/><use xlink:href="#aa" x="314.072" y="796.682"/><use xlink:href="#Y" x="321.687" y="796.682"/><use xlink:href="#ad" x="329.442" y="796.682"/><use xlink:href="#Z" x="337.197" y="796.682"/><g><use xlink:href="#bF" x="342.623" y="796.682"/></g></svg>