<svg xmlns="http://www.w3.org/2000/svg" xmlns:xlink="http://www.w3.org/1999/xlink" width="793.701" height="1122.52" viewBox="0 0 595.276 841.89"><defs><symbol overflow="visible" id="m"><path d="M8.984-2.64L9.844 0h2.765L8.094-13.078H5.109L.47 0h2.734l.89-2.64zM8.25-4.876H4.844l1.703-5.11zm0 0"/></symbol><symbol overflow="visible" id="n"><path d="M7.125 0l4.484-13.078H8.891L6.047-3.234 3.14-13.078H.437L4.845 0zm0 0"/></symbol><symbol overflow="visible" id="o"><path d="M9.406-4.047c.016-.219.016-.312.016-.437 0-.97-.14-1.86-.375-2.547-.656-1.766-2.219-2.813-4.172-2.813-2.781 0-4.484 2-4.484 5.25 0 3.11 1.687 5 4.437 5C7 .406 8.75-.828 9.312-2.719H6.829c-.297.766-1 1.219-1.906 1.219-.719 0-1.297-.313-1.656-.844-.235-.36-.329-.797-.36-1.703zM2.937-5.719c.172-1.468.797-2.203 1.907-2.203.625 0 1.203.297 1.562.797.235.36.344.734.39 1.406zm0 0"/></symbol><symbol overflow="visible" id="p"><path d="M1.125-9.688V0h2.516v-5.14c0-1.485.734-2.22 2.203-2.22.265 0 .453.016.797.079v-2.547c-.141-.016-.235-.016-.313-.016-1.14 0-2.156.75-2.687 2.063v-1.907zm0 0"/></symbol><symbol overflow="visible" id="q"><path d="M7.063-9.688l-2 7.047-2.141-7.046H.156L3.766.39v.078c0 .906-.688 1.61-1.563 1.61-.187 0-.344-.017-.656-.11v1.89c.375.047.594.063.89.063.626 0 1.391-.125 1.813-.297.703-.281 1-.703 1.422-1.844L9.656-9.688zm0 0"/></symbol><symbol overflow="visible" id="r"><path d="M4.125-13.078H1.437V0h8.954v-2.234H4.125zm0 0"/></symbol><symbol overflow="visible" id="s"><path d="M5.406-9.844C2.438-9.844.625-7.89.625-4.719.625-1.53 2.438.406 5.422.406c2.937 0 4.781-1.953 4.781-5.047 0-3.28-1.765-5.203-4.797-5.203zm.016 2.016c1.375 0 2.266 1.25 2.266 3.14 0 1.813-.922 3.079-2.266 3.079-1.375 0-2.281-1.266-2.281-3.11 0-1.843.906-3.11 2.28-3.11zm0 0"/></symbol><symbol overflow="visible" id="t"><path d="M1.125-9.688V0h2.516v-5.813c0-1.14.812-1.906 2.03-1.906 1.079 0 1.61.594 1.61 1.75V0h2.516v-6.5c0-2.125-1.188-3.344-3.25-3.344-1.313 0-2.188.485-2.906 1.563v-1.406zm0 0"/></symbol><symbol overflow="visible" id="u"><path d="M7.313-9.688v1.485c-.75-1.14-1.579-1.64-2.688-1.64C2.328-9.844.609-7.61.609-4.61.61-1.594 2.188.406 4.58.406c1.124 0 1.812-.328 2.734-1.39V.328c0 1.156-.875 1.969-2.125 1.969-.954 0-1.579-.39-1.782-1.125H.812c.016.75.297 1.266.954 1.812.765.625 1.843.922 3.328.922 2.922 0 4.61-1.312 4.61-3.578V-9.687zM5.171-7.75c1.25 0 2.187 1.313 2.187 3.11 0 1.75-.921 2.952-2.234 2.952-1.172 0-2-1.203-2-2.953 0-1.828.828-3.109 2.047-3.109zm0 0"/></symbol><symbol overflow="visible" id="v"><path d="M9.406-.313c-.453-.406-.578-.671-.578-1.171v-5.391c0-1.969-1.344-2.969-3.969-2.969S.875-8.734.72-6.5h2.42c.125-1 .53-1.328 1.78-1.328.97 0 1.454.328 1.454.969a.88.88 0 01-.438.765c-.343.172-.343.172-1.578.375l-1 .172C1.438-5.219.5-4.234.5-2.5c0 .828.234 1.516.688 2 .546.578 1.39.906 2.25.906C4.516.406 5.5-.047 6.39-.969c0 .5.046.688.28.969h2.735zM6.375-3.89c0 1.454-.719 2.282-2 2.282-.844 0-1.36-.454-1.36-1.172 0-.75.391-1.11 1.438-1.328l.86-.157c.656-.125.765-.171 1.062-.312zm0 0"/></symbol><symbol overflow="visible" id="w"><path d="M7.266 0H9.78v-13.078H7.266v4.64c-.625-.968-1.47-1.406-2.672-1.406-2.313 0-4.078 2.219-4.078 5.14 0 1.313.406 2.641 1.046 3.579C2.22-.203 3.407.406 4.595.406c1.203 0 2.047-.437 2.672-1.39zM5.14-7.75c1.28 0 2.125 1.234 2.125 3.094 0 1.75-.86 2.968-2.125 2.968-1.25 0-2.11-1.234-2.11-3.015 0-1.797.86-3.047 2.11-3.047zm0 0"/></symbol><symbol overflow="visible" id="x"><path d="M3.828-13.078H1.125V0h2.703zm0 0"/></symbol><symbol overflow="visible" id="y"><path d="M1.078-9.688V0h2.516v-5.813c0-1.187.64-1.906 1.719-1.906.843 0 1.359.485 1.359 1.266V0h2.516v-5.813c0-1.187.64-1.906 1.718-1.906.844 0 1.36.485 1.36 1.266V0h2.515v-6.86c0-1.874-1.156-2.984-3.094-2.984-1.218 0-2.078.422-2.828 1.438-.468-.922-1.437-1.438-2.64-1.438-1.11 0-1.828.375-2.657 1.36v-1.204zm0 0"/></symbol><symbol overflow="visible" id="z"><path d="M3.547-9.688h-2.5V3.906h2.5V-1.14C4.157-.078 5.016.438 6.25.438c2.328 0 4.047-2.204 4.047-5.141 0-1.36-.39-2.719-1.047-3.625-.64-.906-1.844-1.516-3-1.516-1.234 0-2.094.516-2.703 1.594zM5.672-7.75c1.266 0 2.11 1.234 2.11 3.094 0 1.75-.876 2.984-2.11 2.984-1.266 0-2.125-1.219-2.125-3.031 0-1.813.86-3.047 2.125-3.047zm0 0"/></symbol><symbol overflow="visible" id="A"><path d="M9.063-6.563c-.047-2.046-1.626-3.28-4.22-3.28C2.392-9.844.86-8.61.86-6.626c0 .656.204 1.203.547 1.578.328.344.64.516 1.578.813l2.985.937c.625.188.843.39.843.781 0 .594-.703.954-1.859.954-.64 0-1.172-.125-1.484-.344-.281-.188-.39-.39-.485-.907H.516C.594-.703 2.156.408 5.094.408c1.343 0 2.375-.282 3.078-.86.719-.563 1.156-1.469 1.156-2.422 0-1.25-.625-2.063-1.906-2.438L4.25-6.218c-.703-.218-.875-.36-.875-.765 0-.532.578-.891 1.453-.891 1.203 0 1.797.438 1.813 1.313zm0 0"/></symbol><symbol overflow="visible" id="B"><path d="M3.719-9.688H1.203V0H3.72zm0-3.39H1.203v2.25H3.72zm0 0"/></symbol><symbol overflow="visible" id="C"><path d="M6.281 0L9.61-9.688H6.953L5-2.593 2.906-9.688H.25L3.64 0zm0 0"/></symbol><symbol overflow="visible" id="D"><path d="M6.906-10.828h3.828v-2.25H.25v2.25h3.969V0h2.687zm0 0"/></symbol><symbol overflow="visible" id="E"><path d="M1.203-13.078V0H3.72v-5.813c0-1.109.797-1.906 1.937-1.906.532 0 .969.203 1.25.594.219.328.282.578.282 1.203V0h2.515v-6.5c0-1.188-.328-2.063-.984-2.61-.563-.468-1.36-.734-2.172-.734-1.234 0-2.14.5-2.828 1.563v-4.797zm0 0"/></symbol><symbol overflow="visible" id="F"><path d="M5.406-9.484H4v-2.61H1.484v2.61H.25v1.656h1.234v5.969c0 1.515.813 2.265 2.47 2.265.546 0 1-.047 1.452-.187v-1.766a3.043 3.043 0 01-.578.063C4.156-1.484 4-1.688 4-2.547v-5.281h1.406zm0 0"/></symbol><symbol overflow="visible" id="G"><path d="M3.719-13.078H1.203V0H3.72zm0 0"/></symbol><symbol overflow="visible" id="H"><path d="M11 0l2.734-9.688h-2.593L9.67-2.905 8.22-9.687H5.703l-1.469 6.78-1.546-6.78H.094L2.813 0h2.593l1.532-6.828L8.39 0zm0 0"/></symbol><symbol overflow="visible" id="I"><path d="M4.016-5.625h5.718v-2.25H4.016v-2.953h6.5v-2.25H1.328V0h2.688zm0 0"/></symbol><symbol overflow="visible" id="J"><path d="M9.36-6.063c-.172-2.375-1.75-3.78-4.172-3.78-2.891 0-4.579 1.89-4.579 5.202C.61-1.453 2.281.406 5.141.406c2.359 0 3.984-1.453 4.218-3.765H6.953c-.312 1.265-.812 1.75-1.781 1.75-1.281 0-2.047-1.157-2.047-3.032 0-.921.172-1.78.484-2.359.282-.531.844-.828 1.563-.828 1.016 0 1.5.484 1.781 1.766zm0 0"/></symbol><symbol overflow="visible" id="K"><path d="M1.469 0h5.89c1.5 0 2.5-.281 3.297-.953.781-.656 1.297-1.766 1.297-2.813 0-1.296-.703-2.312-2.172-3.171 1.281-.829 1.781-1.579 1.781-2.688 0-.906-.437-1.86-1.171-2.5-.782-.672-1.688-.953-3.094-.953H1.469zm2.687-10.828h2.922c1.25 0 1.906.515 1.906 1.484 0 .953-.656 1.469-1.906 1.469H4.156zm0 5.203h3.219c1.313 0 1.984.578 1.984 1.703 0 1.094-.671 1.688-1.984 1.688H4.156zm0 0"/></symbol><symbol overflow="visible" id="L"><path d="M3.563-5.922v-7.156h-2.5V0h2.5v-3.172l1.015-1.094L6.891 0h2.937L6.297-6.031l3.297-3.657H6.75zm0 0"/></symbol><symbol overflow="visible" id="M"><path d="M6.031-13.078v9.672c0 .984-.531 1.515-1.453 1.515-1.031 0-1.453-.5-1.453-1.703v-1.25H.437v1.297c0 1.36.313 2.203 1.094 2.922.75.672 1.75 1.031 2.985 1.031 2.671 0 4.203-1.375 4.203-3.812v-9.672zm0 0"/></symbol><symbol overflow="visible" id="N"><path d="M1.375 0H6.5c1.984 0 3.234-.469 4.125-1.531 1.031-1.219 1.594-2.985 1.594-5.016 0-2.016-.563-3.781-1.594-5.016-.89-1.062-2.125-1.515-4.125-1.515H1.375zm2.703-2.234v-8.594H6.5c2.016 0 3.031 1.406 3.031 4.297 0 2.875-1.015 4.297-3.031 4.297zm0 0"/></symbol><symbol overflow="visible" id="O"><path d="M9.703 0v-9.688H7.188v6.063c0 1.156-.797 1.906-2.016 1.906-1.078 0-1.625-.578-1.625-1.75v-6.219h-2.5v6.75C1.047-.812 2.219.406 4.28.406c1.313 0 2.188-.484 2.907-1.547V0zm0 0"/></symbol><symbol overflow="visible" id="P"><path d="M1.063-13.078V0h2.5v-.984C4.171-.031 5.016.406 6.25.406c2.313 0 4.063-2.203 4.063-5.125 0-1.312-.391-2.64-1.032-3.562-.672-.953-1.86-1.563-3.031-1.563-1.203 0-2.078.438-2.688 1.406v-4.64zM5.688-7.75c1.234 0 2.109 1.25 2.109 3.047 0 1.766-.875 3.016-2.11 3.016-1.28 0-2.125-1.22-2.125-3.063 0-1.766.876-3 2.126-3zm0 0"/></symbol><symbol overflow="visible" id="Q"><path d="M5.61-9.484H4.124v-.954c0-.5.219-.75.688-.75.203 0 .5.016.718.047v-1.875a16.604 16.604 0 00-1.437-.062c-1.672 0-2.485.797-2.485 2.422v1.172H.25v1.656h1.36V0h2.515v-7.828h1.484zm0 0"/></symbol><symbol overflow="visible" id="R"><path d="M9.828-9.688H7.313V0h2.515zm0-3.39H7.313v2.25h2.515zM5.531-9.484h-1.5v-.954c0-.5.219-.75.688-.75.218 0 .5.016.718.047v-1.875A16.604 16.604 0 004-13.078c-1.672 0-2.469.797-2.469 2.422v1.172H.156v1.656h1.375V0h2.5v-7.828h1.5zm0 0"/></symbol><symbol overflow="visible" id="S"><path d="M7.25-9.688v1.438c-.594-1.063-1.484-1.594-2.688-1.594C2.22-9.844.5-7.656.5-4.704c0 1.36.39 2.735 1.047 3.61C2.187-.172 3.39.438 4.53.438c1.235 0 2.125-.532 2.719-1.579v5.047h2.516V-9.688zM5.125-7.75c1.281 0 2.125 1.219 2.125 3.11 0 1.75-.86 2.968-2.125 2.968-1.25 0-2.11-1.219-2.11-3.031 0-1.813.86-3.047 2.11-3.047zm0 0"/></symbol><symbol overflow="visible" id="T"><path d="M4.047-4.656h3.36c2.405 0 3.952-1.719 3.952-4.36 0-2.625-1.5-4.062-4.218-4.062H1.359V0h2.688zm0-2.25v-3.922h2.516c1.437 0 2.093.625 2.093 1.969 0 1.328-.656 1.953-2.094 1.953zm0 0"/></symbol><symbol overflow="visible" id="U"><path d="M3.688-8.406v-2.25H2.266c-.047-.89.421-1.422 1.421-1.594v-.828a2.748 2.748 0 00-1.609.61c-.578.484-.797 1.077-.797 2.093v1.969zm4.078 0v-2.25H6.328c-.031-.89.438-1.422 1.438-1.594v-.828c-.61.031-1.188.25-1.61.61-.578.484-.812 1.077-.812 2.093v1.969zm0 0"/></symbol><symbol overflow="visible" id="V"><path d="M10.89-9.094c0-1.203-.265-1.984-.921-2.703-.875-.969-2.328-1.5-4.203-1.5-3.141 0-4.954 1.469-4.954 4.016 0 2.031 1.016 3.015 3.672 3.515l1.829.36c1.796.343 2.453.843 2.453 1.906 0 1.094-1 1.766-2.625 1.766-1.829 0-2.86-.782-2.954-2.172H.579C.734-1.11 2.656.406 5.984.406c3.375 0 5.375-1.578 5.375-4.234 0-2.063-1.046-3.125-3.468-3.594l-2.047-.406c-1.922-.375-2.469-.75-2.469-1.703 0-.985.875-1.61 2.25-1.61 1.719 0 2.656.72 2.75 2.047zm0 0"/></symbol><symbol overflow="visible" id="W"><path d="M1.313-13.078v2.25H2.75c.031.89-.438 1.406-1.438 1.594v.828c.61-.047 1.188-.25 1.61-.61.578-.484.812-1.078.812-2.109v-1.953zm4.156 0v2.25h1.437c.032.89-.437 1.406-1.437 1.594v.828c.61-.047 1.187-.25 1.61-.61.577-.484.812-1.078.812-2.109v-1.953zm0 0"/></symbol><symbol overflow="visible" id="X"><path d="M4.594 2.953L1.75-3.5l2.844-6.453H3.89L.734-3.5l3.157 6.453zm0 0"/></symbol><symbol overflow="visible" id="ad"><path d="M4.594-3.5L1.437-9.953H.735L3.594-3.5.734 2.953h.704zm0 0"/></symbol><symbol overflow="visible" id="Y"><path d="M.844-7.531V0h1.953v-4.516c0-.921.5-1.484 1.328-1.484.656 0 1.063.375 1.063.984V0H7.14v-4.516C7.14-5.437 7.64-6 8.484-6c.657 0 1.063.375 1.063.984V0H11.5v-5.328c0-1.469-.89-2.328-2.406-2.328-.938 0-1.61.328-2.203 1.11-.36-.704-1.11-1.11-2.047-1.11-.86 0-1.422.281-2.063 1.062v-.937zm0 0"/></symbol><symbol overflow="visible" id="Z"><path d="M4.203-7.656C1.891-7.656.484-6.141.484-3.672c0 2.485 1.407 4 3.735 4 2.281 0 3.718-1.531 3.718-3.937 0-2.563-1.375-4.047-3.734-4.047zm.016 1.578c1.062 0 1.765.953 1.765 2.437 0 1.407-.718 2.391-1.765 2.391-1.063 0-1.782-.984-1.782-2.422 0-1.437.72-2.406 1.782-2.406zm0 0"/></symbol><symbol overflow="visible" id="aa"><path d="M.875-7.531V0h1.953v-4.516c0-.89.625-1.484 1.578-1.484.844 0 1.266.453 1.266 1.36V0h1.953v-5.047c0-1.672-.922-2.61-2.531-2.61-1.016 0-1.703.376-2.266 1.204v-1.078zm0 0"/></symbol><symbol overflow="visible" id="ab"><path d="M4.203-7.375H3.11v-2.031H1.156v2.031H.203v1.297h.953v4.625c0 1.187.625 1.781 1.907 1.781a3.73 3.73 0 001.14-.156v-1.375a2.778 2.778 0 01-.453.047c-.516 0-.64-.157-.64-.828v-4.094h1.093zm0 0"/></symbol><symbol overflow="visible" id="ac"><path d="M.938-10.172V0H2.89v-4.516C2.89-5.39 3.516-6 4.39-6c.421 0 .765.156.984.453.172.266.219.453.219.938V0h1.953v-5.047c0-.937-.25-1.61-.766-2.047-.437-.36-1.062-.562-1.687-.562-.969 0-1.657.39-2.203 1.203v-3.719zm0 0"/></symbol><symbol overflow="visible" id="ae"><path d="M.89-2.031V0h1.204v.047c0 .937-.375 1.437-1.203 1.594v.78c.578-.062.968-.218 1.343-.515.563-.422.75-.937.75-2.031v-1.906zm0 0"/></symbol><symbol overflow="visible" id="af"><path d="M5.5-7.531L3.937-2.047 2.282-7.53H.125L2.938.312V.36c0 .72-.532 1.266-1.22 1.266-.155 0-.265-.016-.515-.094V3c.297.047.453.063.688.063.5 0 1.078-.11 1.421-.25.532-.22.782-.532 1.094-1.438L7.5-7.531zm0 0"/></symbol><symbol overflow="visible" id="ag"><path d="M7.313-3.156c.015-.172.015-.235.015-.328 0-.75-.11-1.454-.297-1.985-.5-1.375-1.718-2.187-3.234-2.187-2.172 0-3.485 1.562-3.485 4.078C.313-1.156 1.625.328 3.75.328c1.688 0 3.063-.969 3.484-2.453H5.313c-.235.61-.782.953-1.485.953-.562 0-1.015-.234-1.281-.656-.188-.281-.266-.61-.281-1.328zM2.28-4.453c.125-1.14.625-1.719 1.485-1.719a1.5 1.5 0 011.218.625c.172.281.266.578.297 1.094zm0 0"/></symbol><symbol overflow="visible" id="ah"><path d="M7.313-.234c-.344-.329-.454-.532-.454-.922v-4.188c0-1.531-1.046-2.312-3.078-2.312-2.031 0-3.094.86-3.219 2.61h1.875c.11-.782.422-1.032 1.391-1.032.75 0 1.125.25 1.125.75 0 .25-.125.469-.328.578-.266.14-.266.14-1.234.297l-.782.14C1.11-4.063.391-3.296.391-1.938c0 .641.187 1.172.53 1.547.438.454 1.095.72 1.75.72.845 0 1.61-.376 2.298-1.079 0 .39.047.531.218.75h2.125zm-2.36-2.797c0 1.14-.562 1.781-1.547 1.781-.656 0-1.062-.36-1.062-.906 0-.594.312-.875 1.11-1.031l.671-.141c.516-.094.61-.125.828-.235zm0 0"/></symbol><symbol overflow="visible" id="ai"><path d="M.875-7.531V0h1.953v-4c0-1.156.578-1.719 1.719-1.719.219 0 .344.016.61.047V-7.64c-.11-.015-.173-.015-.235-.015-.89 0-1.672.578-2.094 1.593V-7.53zm0 0"/></symbol><clipPath id="j"><path d="M.879.543h255.113v74.746H.88zm0 0"/></clipPath><clipPath id="b"><path d="M.879 15H49v60.188H.879zm0 0"/></clipPath><clipPath id="c"><path d="M10 .543h48V61H10zm0 0"/></clipPath><clipPath id="d"><path d="M235 25h20.992v27H235zm0 0"/></clipPath><clipPath id="e"><path d="M66 70h6v5.188h-6zm0 0"/></clipPath><clipPath id="f"><path d="M94 70h5v5.188h-5zm0 0"/></clipPath><clipPath id="g"><path d="M130 70h7v5.188h-7zm0 0"/></clipPath><clipPath id="h"><path d="M167 70h6v5.188h-6zm0 0"/></clipPath><clipPath id="i"><path d="M177 70h7v5.188h-7zm0 0"/></clipPath><clipPath id="a"><path d="M0 0h256v76H0z"/></clipPath><g id="k" clip-path="url(#a)"><g clip-path="url(#b)"><path d="M3.914 15.828c-1.668 0-3.02 1.32-3.02 2.95V72.14c0 1.625 1.352 2.945 3.02 2.945h41.578c1.672 0 3.024-1.316 3.024-2.945V59.949c0 .192-.137.348-.305.348h-.14c-6.016 0-11.735-2.996-15.665-8.215L24.7 41.855c-.14-.183-.433-.085-.433.145v16.438c0 1.027-.883 1.859-1.97 1.859H12.41c-1.297 0-2.348-.992-2.348-2.219V16.18c0-.192.137-.352.305-.352" fill="#02a593"/></g><g clip-path="url(#c)"><path d="M54.79.64H12.956c-1.598 0-2.895 1.266-2.895 2.825V16.18c0-.192.137-.352.305-.352h1.172c5.36 0 10.457 2.672 13.957 7.32L33.88 34.27c.14.187.437.09.437-.145V18.18c0-1.297 1.114-2.352 2.485-2.352h9.367c1.297 0 2.348.996 2.348 2.223v41.898c0 .192-.137.348-.305.348h6.578c1.602 0 2.898-1.266 2.898-2.824V3.465c0-1.559-1.296-2.824-2.898-2.824" fill="#1896ca"/></g><path d="M34.316 34.125a.243.243 0 01-.437.145l-8.383-11.122c-3.5-4.648-8.598-7.32-13.957-7.32h-1.172c-.168 0-.305.16-.305.352v41.898c0 1.227 1.051 2.219 2.348 2.219h9.887c1.086 0 1.969-.832 1.969-1.86V42c0-.23.293-.328.433-.145l7.707 10.227c3.934 5.215 9.649 8.215 15.664 8.215h.14c.169 0 .306-.156.306-.348V18.051c0-1.227-1.051-2.223-2.348-2.223h-9.367c-1.371 0-2.485 1.055-2.485 2.352zm165.27 15.918c-6.223 0-11.027-5.14-11.027-11.734v-.075c0-6.554 4.73-11.66 10.988-11.66 3.91 0 6.52 1.64 8.789 3.836l1.383-1.414c-2.684-2.457-5.477-4.172-10.133-4.172-7.527 0-13.04 6.11-13.04 13.485v.074c0 7.488 5.513 13.414 12.966 13.414 4.617 0 7.597-1.828 10.355-4.547l-1.304-1.266c-2.645 2.61-5.215 4.059-8.977 4.059M223.5 37.34c-6.184-1.266-7.602-2.942-7.602-5.7v-.074c0-2.718 2.536-4.914 6.372-4.914 2.867 0 5.328.817 7.785 2.942l1.23-1.532c-2.644-2.12-5.14-3.164-8.941-3.164-4.844 0-8.383 2.98-8.383 6.856v.074c0 3.945 2.535 6.07 8.793 7.34 5.922 1.191 7.375 2.793 7.375 5.547v.078c0 2.98-2.68 5.176-6.594 5.176-3.836 0-6.48-1.227-9.351-3.871l-1.266 1.449c3.129 2.797 6.336 4.172 10.508 4.172 5.027 0 8.64-2.903 8.64-7.114v-.074c0-3.8-2.53-5.96-8.566-7.191" fill="#213b6c"/><g clip-path="url(#d)"><path d="M254 25.27v12.07h-16.691V25.27h-1.934v26.078h1.934v-12.22H254v12.22h1.938V25.27zm0 0" fill="#213b6c"/></g><path d="M114.164 38.035c0 4.492-3.215 8.156-7.855 8.156-4.641 0-7.93-3.742-7.93-8.23v-.074c0-4.489 3.215-8.157 7.855-8.157 4.637 0 7.93 3.743 7.93 8.23zm-7.855-13.617c-8.082 0-13.954 6.098-13.954 13.543v.074c0 7.445 5.797 13.469 13.88 13.469 8.081 0 13.953-6.098 13.953-13.543v-.074c0-7.446-5.797-13.469-13.88-13.469m35.392.542a4.155 4.155 0 00-3.895 2.708l-5.84 15.738-5.84-15.738a4.155 4.155 0 00-3.895-2.707h-3.472l10.59 26.375h5.086l10.59-26.375zm-57.458 1.782h.004v14.375l-10.8-14.195a4.888 4.888 0 00-3.895-1.93h-2.887V51.18h5.688V34.53l11.34 14.887a4.468 4.468 0 003.554 1.762h2.434V24.96h-5.438zm63.621 13.633l3.48-8.492 3.481 8.492zm.899-15.414l-11.223 26.375h3.645a3.316 3.316 0 003.07-2.063l1.555-3.808h11.074l1.55 3.808a3.316 3.316 0 003.07 2.063h3.798L154.074 24.96zm17.804 24.129l.961 2.258h.977V39.539h14.754V37.75h-14.754V27.059h16.43v-1.79h-18.368zM67.645 62.406v1.696h2.433v.593h-2.433v1.965h-.696V61.8h3.43v.606zm6.238 2.484l-1.047-2.378-1.05 2.379zm.242.555h-2.582l-.535 1.215h-.715l2.203-4.855h.688l2.203 4.855h-.727zm2.672.95a2.351 2.351 0 01-.922-.891 2.448 2.448 0 01-.332-1.274c0-.468.11-.894.332-1.273a2.37 2.37 0 01.922-.887 2.71 2.71 0 011.32-.324c.38 0 .727.063 1.04.191.316.13.585.317.808.567l-.453.437a1.817 1.817 0 00-1.367-.578 1.96 1.96 0 00-.98.246c-.29.16-.52.383-.68.668-.169.285-.25.602-.25.953 0 .352.081.672.25.957.16.286.39.508.68.668a2 2 0 00.98.243 1.82 1.82 0 001.367-.582l.453.437c-.223.25-.492.438-.813.567a2.667 2.667 0 01-1.043.195c-.488 0-.925-.106-1.312-.32m4.535-.235c-.363-.37-.543-.902-.543-1.594v-2.761h.695v2.73c0 1.043.454 1.563 1.368 1.563.441 0 .78-.125 1.02-.383.233-.258.35-.653.35-1.18v-2.73h.676v2.761c0 .696-.183 1.23-.543 1.598-.359.367-.863.55-1.511.55-.649 0-1.153-.183-1.512-.554m4.883-4.355h.695v4.25h2.63v.605h-3.325zm6.023 4.25a2.25 2.25 0 001.04-.227c.3-.152.53-.367.69-.644.16-.274.243-.59.243-.954 0-.359-.082-.68-.242-.953a1.616 1.616 0 00-.692-.64 2.25 2.25 0 00-1.039-.23H90.93v3.648zm-2.004-4.25h2.047c.512 0 .969.101 1.367.304.399.203.707.489.926.856.223.367.332.789.332 1.265 0 .477-.11.899-.332 1.27a2.23 2.23 0 01-.926.855 2.972 2.972 0 01-1.367.305h-2.047zm8.411 3.085l-1.047-2.378-1.047 2.379zm.246.555h-2.582l-.536 1.215h-.714l2.199-4.855h.687l2.207 4.855h-.73zm3.886.61c.391 0 .739-.075 1.035-.227.301-.152.532-.367.692-.64a1.84 1.84 0 00.242-.958c0-.359-.078-.68-.242-.953a1.616 1.616 0 00-.692-.64 2.245 2.245 0 00-1.035-.23h-1.312v3.648zm-2.007-4.25h2.046c.516 0 .973.101 1.368.304.398.203.707.489.925.856.223.367.332.789.332 1.265 0 .477-.109.899-.332 1.27a2.23 2.23 0 01-.925.855c-.395.204-.852.305-1.368.305h-2.046zm9.156 4.25v.605h-3.528v-4.855h3.43v.601h-2.734v1.492h2.433v.59h-2.433v1.567zm4.789 0c.39 0 .738-.075 1.039-.227a1.65 1.65 0 00.687-.64 1.84 1.84 0 00.243-.958c0-.359-.079-.68-.243-.953a1.628 1.628 0 00-.687-.64c-.3-.153-.649-.23-1.04-.23h-1.312v3.648zm-2.008-4.25h2.047c.516 0 .969.101 1.367.304.399.203.707.489.93.856.219.367.328.789.328 1.265 0 .477-.11.899-.328 1.27a2.264 2.264 0 01-.93.855c-.398.204-.851.305-1.367.305h-2.047zm9.156 4.25v.605h-3.527v-4.855h3.43v.601h-2.735v1.492h2.434v.59h-2.434v1.567zm3.641.34a2.351 2.351 0 01-.922-.891 2.448 2.448 0 01-.332-1.274c0-.468.11-.894.332-1.273a2.38 2.38 0 01.926-.887 2.69 2.69 0 011.316-.324c.38 0 .727.063 1.043.191.313.13.582.317.805.567l-.453.437a1.811 1.811 0 00-1.367-.578c-.36 0-.688.082-.977.246a1.73 1.73 0 00-.684.668 1.873 1.873 0 00-.246.953c0 .352.082.672.246.957.164.286.391.508.684.668.29.16.617.243.977.243.543 0 1-.196 1.367-.582l.453.437c-.223.25-.492.438-.809.567a2.673 2.673 0 01-1.047.195c-.484 0-.921-.106-1.312-.32m4.055-4.59h.695v4.855h-.695zm4.41-.399l-.64-.535-.642.535h-.601l.922-.902h.64l.922.902zm1.164 4.649v.605h-3.528v-4.855h3.43v.601h-2.734v1.492h2.437v.59h-2.437v1.567zm5.199-4.25v4.855h-.57l-2.914-3.62v3.62h-.696v-4.855h.57l2.915 3.62v-3.62zm2.211 4.59a2.351 2.351 0 01-.922-.891 2.486 2.486 0 01-.332-1.274c0-.468.113-.894.332-1.273a2.38 2.38 0 01.926-.887 2.69 2.69 0 011.316-.324c.38 0 .727.063 1.043.191.313.13.582.317.805.567l-.453.437a1.811 1.811 0 00-1.367-.578c-.36 0-.688.082-.977.246a1.73 1.73 0 00-.684.668 1.835 1.835 0 00-.246.953c0 .352.078.672.246.957.165.286.391.508.684.668.29.16.617.243.977.243a1.82 1.82 0 001.367-.582l.453.437c-.223.25-.492.438-.809.567a2.687 2.687 0 01-1.047.195c-.484 0-.921-.106-1.312-.32m4.055-4.59h.695v4.855h-.695zm4.902 3.085l-1.05-2.378-1.048 2.379zm.242.555h-2.582l-.535 1.215h-.715l2.2-4.855h.687l2.207 4.855h-.73zm2.238 1.102c-.34-.113-.609-.262-.804-.442l.258-.543c.187.168.421.305.714.41.29.102.582.153.891.153.402 0 .703-.066.902-.203.2-.137.297-.32.297-.547 0-.164-.054-.3-.164-.402a1.067 1.067 0 00-.402-.243 7.86 7.86 0 00-.676-.187 6.8 6.8 0 01-.883-.262 1.511 1.511 0 01-.578-.406c-.16-.184-.238-.43-.238-.738 0-.262.066-.492.203-.703.137-.207.344-.375.621-.5s.621-.188 1.035-.188c.285 0 .57.04.848.113.277.075.516.18.715.32l-.23.555a2.523 2.523 0 00-1.333-.398c-.394 0-.687.074-.883.215a.662.662 0 00-.296.558c0 .164.054.301.164.403.113.105.25.187.414.242.164.059.386.121.672.187.363.086.656.176.878.262.223.09.415.223.575.402.16.18.238.426.238.73 0 .255-.07.49-.207.7-.137.207-.352.375-.633.496-.281.125-.629.184-1.039.184a3.33 3.33 0 01-1.059-.168m5.97 0c-.34-.113-.61-.262-.802-.442l.254-.543c.188.168.422.305.711.41.293.102.59.153.895.153.402 0 .703-.066.902-.203a.642.642 0 00.297-.547c0-.164-.055-.3-.164-.402a1.037 1.037 0 00-.402-.243 7.47 7.47 0 00-.676-.187 6.8 6.8 0 01-.883-.262 1.511 1.511 0 01-.578-.406c-.16-.184-.238-.43-.238-.738 0-.262.066-.492.203-.703.136-.207.344-.375.62-.5.278-.125.622-.188 1.036-.188.285 0 .57.04.848.113.277.075.515.18.714.32l-.23.555a2.523 2.523 0 00-1.332-.398c-.395 0-.688.074-.887.215a.668.668 0 00-.293.558.52.52 0 00.168.403c.11.105.246.187.41.246.165.054.387.117.672.183.364.086.657.176.88.262.222.09.413.223.573.402.16.18.239.426.239.73 0 .255-.07.49-.207.7-.14.207-.352.375-.633.496-.281.125-.629.184-1.04.184-.366 0-.718-.055-1.058-.168m7.001-.692c.284-.16.51-.382.675-.668.164-.285.246-.605.246-.957 0-.351-.082-.668-.246-.953a1.762 1.762 0 00-.676-.668 1.872 1.872 0 00-.96-.246c-.356 0-.68.082-.97.246a1.78 1.78 0 00-.68.668 1.873 1.873 0 00-.245.953c0 .352.082.672.246.957.164.286.394.508.68.668.289.16.613.243.968.243.36 0 .68-.082.961-.243m-2.285.54a2.345 2.345 0 01-.926-.895 2.42 2.42 0 01-.336-1.27c0-.464.11-.89.336-1.27.223-.378.532-.675.926-.89a2.724 2.724 0 011.324-.324c.489 0 .926.11 1.32.324.395.215.7.512.922.887.223.379.333.805.333 1.273 0 .473-.11.899-.333 1.278a2.369 2.369 0 01-.921.887c-.395.214-.832.32-1.32.32-.489 0-.93-.106-1.325-.32m5.715 0c-.39-.215-.7-.512-.918-.891a2.451 2.451 0 01-.336-1.274c0-.468.113-.894.336-1.273.219-.375.527-.672.922-.887a2.71 2.71 0 011.32-.324c.379 0 .727.063 1.04.191.316.13.585.317.808.567l-.453.437a1.817 1.817 0 00-1.368-.578c-.363 0-.687.082-.98.246a1.73 1.73 0 00-.684.668 1.873 1.873 0 00-.246.953c0 .352.082.672.246.957.164.286.391.508.684.668.293.16.617.243.98.243.543 0 .997-.196 1.368-.582l.453.437c-.223.25-.496.438-.813.567a2.667 2.667 0 01-1.043.195c-.484 0-.925-.106-1.316-.32m4.059-4.59h.69v4.855h-.69zm4.898 3.085l-1.047-2.378-1.05 2.379zm.246.555h-2.586l-.531 1.215h-.715l2.2-4.855h.687l2.207 4.855h-.73zm1.878-3.64h.696v4.855h-.695zm2.407 4.742c-.344-.113-.61-.262-.804-.442l.257-.543c.184.168.422.305.711.41.29.102.586.153.89.153.403 0 .704-.066.903-.203.2-.137.301-.32.301-.547 0-.164-.055-.3-.164-.402a1.067 1.067 0 00-.402-.243 8.291 8.291 0 00-.676-.187 7.08 7.08 0 01-.887-.262 1.527 1.527 0 01-.574-.406c-.16-.184-.242-.43-.242-.738 0-.262.07-.492.207-.703.136-.207.343-.375.62-.5.278-.125.622-.188 1.036-.188.285 0 .566.04.844.113.277.075.52.18.718.32l-.23.555a2.523 2.523 0 00-1.332-.398c-.395 0-.688.074-.887.215a.668.668 0 00-.293.558.53.53 0 00.164.403c.114.105.25.187.414.242.164.059.387.121.668.187a6.8 6.8 0 01.883.262c.223.09.414.223.574.402.157.18.239.426.239.73 0 .255-.07.49-.207.7a1.424 1.424 0 01-.633.496c-.281.125-.63.184-1.043.184-.363 0-.715-.055-1.055-.168m9.133-.492v.605h-3.523v-4.855h3.43v.601h-2.735v1.492h2.433v.59h-2.433v1.567zm6.965-4.25v4.855h-.695v-2.164h-2.79v2.164h-.695v-4.855h.695v2.086h2.79v-2.086zm1.851 4.355c-.359-.37-.543-.902-.543-1.594v-2.761h.696v2.73c0 1.043.457 1.563 1.367 1.563.445 0 .785-.125 1.02-.383.238-.258.355-.653.355-1.18v-2.73h.672v2.761c0 .696-.18 1.23-.54 1.598-.363.367-.866.55-1.511.55-.648 0-1.156-.183-1.516-.554m9.391.5l-.008-3.539-1.754 2.95h-.32l-1.758-2.93v3.52h-.664v-4.856h.57l2.024 3.414 2-3.414h.57l.008 4.855zm4.871-1.77l-1.047-2.378-1.047 2.379zm.246.555h-2.582l-.535 1.215h-.715l2.2-4.855h.687l2.207 4.855h-.73zm6.059-3.64v4.855h-.57l-2.915-3.62v3.62h-.695v-4.855h.57l2.915 3.62v-3.62zm4.203 3.085l-1.047-2.378-1.047 2.379zm.246.555h-2.582l-.535 1.215H223l2.2-4.855h.687l2.207 4.855h-.727zm2.238 1.102c-.343-.113-.61-.262-.804-.442l.257-.543c.188.168.422.305.711.41.29.102.586.153.891.153.402 0 .703-.066.902-.203.2-.137.301-.32.301-.547 0-.164-.055-.3-.164-.402a1.067 1.067 0 00-.402-.243 8.292 8.292 0 00-.676-.187 7.08 7.08 0 01-.887-.262 1.527 1.527 0 01-.574-.406c-.16-.184-.238-.43-.238-.738 0-.262.066-.492.203-.703.137-.207.344-.375.62-.5.278-.125.622-.188 1.036-.188.285 0 .566.04.844.113.277.075.515.18.715.32l-.227.555a2.523 2.523 0 00-1.332-.398c-.394 0-.687.074-.887.215a.668.668 0 00-.293.558.53.53 0 00.164.403c.114.105.25.187.415.242.164.059.386.121.667.187a6.8 6.8 0 01.883.262c.223.09.414.223.575.402.16.18.238.426.238.73 0 .255-.07.49-.207.7-.14.207-.352.375-.633.496-.281.125-.629.184-1.043.184-.363 0-.715-.055-1.055-.168" fill="#213b6c"/><g clip-path="url(#e)"><path d="M67.266 74.496c-.403-.394-.602-.95-.602-1.672v-2.691h1.375v2.648c0 .778.309 1.168.922 1.168.61 0 .918-.39.918-1.168v-2.648h1.351v2.691c0 .723-.199 1.278-.597 1.672-.403.395-.965.59-1.684.59-.722 0-1.285-.195-1.683-.59" fill="#213b6c"/></g><path d="M76.781 70.133v4.855h-1.129l-2.144-2.586v2.586h-1.344v-4.855h1.129l2.144 2.586v-2.586zm.973 0h1.375v4.855h-1.375zm7.269 0l-2.082 4.855h-1.355l-2.074-4.855h1.484l1.32 3.164 1.344-3.164zm4.184 3.793v1.062h-3.902v-4.855h3.812v1.062h-2.449v.817h2.156v1.027h-2.156v.887zm3.539-2.524c-.144-.125-.355-.187-.637-.187h-.765v1.422h.765c.282 0 .493-.063.637-.184.145-.121.215-.297.215-.523 0-.227-.07-.403-.215-.528m-.652 2.297h-.75v1.29h-1.375v-4.856h2.222c.438 0 .82.07 1.145.215.324.148.574.355.75.625.176.273.266.59.266.957 0 .351-.082.656-.247.918a1.675 1.675 0 01-.707.613l1.047 1.527h-1.468zm0 0" fill="#213b6c"/><g clip-path="url(#f)"><path d="M95.668 74.941c-.367-.097-.672-.226-.902-.39l.453-1.012c.215.145.469.258.754.348.289.086.57.129.847.129.528 0 .793-.13.793-.395 0-.137-.078-.238-.226-.308a4.24 4.24 0 00-.727-.211 6.988 6.988 0 01-.914-.254 1.534 1.534 0 01-.633-.434c-.175-.2-.261-.465-.261-.805 0-.296.078-.562.242-.8.16-.239.402-.426.722-.567.325-.137.72-.207 1.184-.207.32 0 .637.035.945.106.309.07.582.18.82.316l-.425 1.02c-.461-.25-.91-.375-1.344-.375-.273 0-.473.043-.598.12-.125.083-.187.188-.187.317s.074.227.223.293c.148.063.386.133.714.203.368.078.676.16.918.25.243.094.454.235.633.434.176.195.266.46.266.8 0 .29-.082.555-.242.79-.16.234-.407.425-.727.566-.324.14-.719.21-1.183.21a4.47 4.47 0 01-1.145-.144" fill="#213b6c"/></g><path d="M99.598 70.133h1.37v4.855h-1.37zm4.593 3.762c.418 0 .75-.122 1.004-.356.25-.234.38-.562.38-.977 0-.417-.13-.746-.38-.98-.254-.234-.586-.355-1.004-.355h-.867v2.668zm-2.242-3.762h2.297c.535 0 1.004.097 1.418.297.41.199.73.48.957.847.227.364.34.793.34 1.285 0 .489-.113.915-.34 1.282a2.247 2.247 0 01-.957.847c-.414.2-.883.297-1.418.297h-2.297zm8.516 2.898l-.625-1.554-.625 1.554zm.402 1.016h-2.055l-.378.941h-1.403l2.145-4.855h1.351l2.153 4.855h-1.43zm4.442-.152c.418 0 .754-.122 1.004-.356.253-.234.378-.562.378-.977 0-.417-.125-.746-.379-.98-.25-.234-.585-.355-1.003-.355h-.868v2.668zm-2.239-3.762h2.293c.535 0 1.008.097 1.418.297.414.199.73.48.957.847.227.364.34.793.34 1.285 0 .489-.113.915-.34 1.282a2.225 2.225 0 01-.957.847c-.41.2-.883.297-1.418.297h-2.293zm9.633 3.793v1.062h-3.902v-4.855h3.812v1.062h-2.449v.817h2.156v1.027h-2.156v.887zm7.402-3.793v4.855h-1.128l-2.145-2.586v2.586h-1.348v-4.855h1.133l2.145 2.586v-2.586zm0 0" fill="#213b6c"/><g clip-path="url(#g)"><path d="M134.195 73.773c.2-.113.356-.277.473-.488.117-.21.176-.453.176-.722 0-.274-.059-.516-.176-.727a1.237 1.237 0 00-.473-.488 1.293 1.293 0 00-.668-.176c-.242 0-.464.058-.664.176a1.233 1.233 0 00-.472.488 1.47 1.47 0 00-.172.727c0 .269.054.511.172.722.117.211.273.375.472.488.2.118.422.176.664.176.246 0 .47-.058.668-.176m-2.05.989a2.47 2.47 0 01-.965-.903 2.447 2.447 0 01-.352-1.296c0-.485.117-.918.352-1.301a2.47 2.47 0 01.965-.903c.41-.214.87-.324 1.382-.324.516 0 .977.11 1.387.324.41.22.73.52.965.903.234.383.351.816.351 1.3 0 .481-.117.91-.351 1.297a2.47 2.47 0 01-.965.903 2.94 2.94 0 01-1.387.324c-.511 0-.972-.11-1.382-.324" fill="#213b6c"/></g><path d="M141.71 70.133l-2.081 4.855h-1.352l-2.074-4.855h1.484l1.317 3.164 1.348-3.164zm2.974 2.898l-.625-1.554-.625 1.554zm.402 1.016h-2.055l-.383.941h-1.402l2.145-4.855h1.355l2.152 4.855h-1.433zm6.461-.152c.418 0 .75-.122 1.004-.356.25-.234.375-.562.375-.977 0-.417-.125-.746-.375-.98-.254-.234-.586-.355-1.004-.355h-.867v2.668zm-2.242-3.762h2.297c.53 0 1.003.097 1.418.297.41.199.73.48.957.847.226.364.34.793.34 1.285 0 .489-.114.915-.34 1.282a2.247 2.247 0 01-.957.847c-.415.2-.887.297-1.418.297h-2.297zm9.633 3.793v1.062h-3.899v-4.855h3.809v1.062h-2.45v.817h2.16v1.027h-2.16v.887zm2.785-3.793h1.37v3.765h2.321v1.09h-3.691zm4.234 0h1.371v4.855h-1.371zm0 0" fill="#213b6c"/><g clip-path="url(#h)"><path d="M168.871 74.941c-.371-.097-.672-.226-.902-.39l.449-1.012c.219.145.469.258.758.348.285.086.566.129.847.129.528 0 .79-.13.79-.395 0-.137-.075-.238-.223-.308a4.353 4.353 0 00-.727-.211 6.892 6.892 0 01-.918-.254 1.521 1.521 0 01-.629-.434c-.175-.2-.265-.465-.265-.805 0-.296.082-.562.242-.8.164-.239.406-.426.727-.567.32-.137.714-.207 1.183-.207.317 0 .633.035.945.106.309.07.582.18.817.316l-.422 1.02c-.465-.25-.914-.375-1.348-.375-.273 0-.472.043-.597.12-.125.083-.188.188-.188.317s.074.227.223.293c.148.063.387.133.715.203.37.078.675.16.922.25.242.09.453.235.628.434.18.195.27.46.27.8 0 .29-.082.555-.242.79-.164.234-.406.425-.73.566-.325.14-.72.21-1.18.21a4.44 4.44 0 01-1.145-.144" fill="#213b6c"/></g><path d="M176.031 73.504c0-.328-.238-.492-.719-.492h-1.152v.984h1.153c.48 0 .718-.164.718-.492m-1.87-2.379v.938h.94c.465 0 .696-.16.696-.473 0-.313-.23-.465-.695-.465zm3.023 1.785c.156.207.238.457.238.746 0 .426-.172.754-.516.985-.34.234-.836.347-1.484.347h-2.625v-4.855h2.488c.617 0 1.09.113 1.414.34.324.23.485.539.485.93 0 .23-.055.437-.168.62a1.165 1.165 0 01-.485.434c.278.098.496.25.653.453" fill="#213b6c"/><g clip-path="url(#i)"><path d="M181.254 73.773a1.2 1.2 0 00.469-.488c.117-.21.175-.453.175-.722 0-.274-.058-.516-.175-.727a1.202 1.202 0 00-.47-.488 1.293 1.293 0 00-.667-.176c-.246 0-.469.058-.668.176-.2.113-.356.277-.469.488a1.47 1.47 0 00-.176.727c0 .269.059.511.176.722a1.2 1.2 0 00.469.488c.2.118.422.176.668.176.246 0 .469-.058.668-.176m-2.05.989a2.443 2.443 0 01-.966-.903 2.447 2.447 0 01-.351-1.296c0-.485.117-.918.351-1.301.23-.383.555-.684.965-.903a2.913 2.913 0 011.383-.324c.512 0 .973.11 1.383.324.41.22.73.52.965.903.234.383.351.816.351 1.3 0 .481-.117.91-.351 1.297a2.47 2.47 0 01-.965.903c-.41.215-.871.324-1.383.324-.516 0-.977-.11-1.383-.324" fill="#213b6c"/></g><path d="M186.79 73.031l-.626-1.554-.625 1.554zm.405 1.016h-2.058l-.38.941h-1.402l2.145-4.855h1.352l2.152 4.855h-1.43zm0 0" fill="#213b6c"/></g><g clip-path="url(#j)" id="l"><use xlink:href="#k"/></g></defs><path d="M0 841.89h595.277V0H0zm0 0" fill="#fff"/><use xlink:href="#l" transform="translate(22 29)"/><use xlink:href="#m" x="177.25" y="249.201" fill="#193d6c"/><use xlink:href="#n" x="195.183" y="249.201" fill="#193d6c"/><g fill="#193d6c"><use xlink:href="#o" x="206.247" y="249.201"/><use xlink:href="#p" x="216.218" y="249.201"/></g><use xlink:href="#q" x="223.373" y="249.201" fill="#193d6c"/><g fill="#193d6c"><use xlink:href="#r" x="238.329" y="249.201"/><use xlink:href="#s" x="249.286" y="249.201"/><use xlink:href="#t" x="260.243" y="249.201"/><use xlink:href="#u" x="271.2" y="249.201"/></g><g fill="#193d6c"><use xlink:href="#v" x="287.142" y="249.201"/><use xlink:href="#t" x="297.113" y="249.201"/><use xlink:href="#w" x="308.07" y="249.201"/></g><g fill="#193d6c"><use xlink:href="#x" x="324.012" y="249.201"/><use xlink:href="#y" x="328.997" y="249.201"/><use xlink:href="#z" x="344.94" y="249.201"/><use xlink:href="#p" x="355.897" y="249.201"/><use xlink:href="#o" x="362.872" y="249.201"/><use xlink:href="#A" x="372.843" y="249.201"/><use xlink:href="#A" x="382.814" y="249.201"/><use xlink:href="#B" x="392.784" y="249.201"/><use xlink:href="#C" x="397.77" y="249.201"/><use xlink:href="#o" x="407.74" y="249.201"/></g><g fill="#193d6c"><use xlink:href="#D" x="140.031" y="270.954"/><use xlink:href="#E" x="150.988" y="270.954"/><use xlink:href="#o" x="161.945" y="270.954"/><use xlink:href="#A" x="171.916" y="270.954"/><use xlink:href="#B" x="181.886" y="270.954"/><use xlink:href="#A" x="186.871" y="270.954"/></g><g fill="#193d6c"><use xlink:href="#D" x="201.827" y="270.954"/><use xlink:href="#B" x="212.784" y="270.954"/><use xlink:href="#F" x="217.77" y="270.954"/><use xlink:href="#G" x="223.741" y="270.954"/><use xlink:href="#o" x="228.727" y="270.954"/></g><g fill="#193d6c"><use xlink:href="#H" x="243.683" y="270.954"/><use xlink:href="#B" x="257.634" y="270.954"/><use xlink:href="#F" x="262.62" y="270.954"/><use xlink:href="#E" x="268.591" y="270.954"/></g><use xlink:href="#v" x="284.534" y="270.954" fill="#193d6c"/><g fill="#193d6c"><use xlink:href="#I" x="299.489" y="270.954"/><use xlink:href="#s" x="310.446" y="270.954"/><use xlink:href="#p" x="321.403" y="270.954"/></g><g fill="#193d6c"><use xlink:href="#J" x="328.021" y="270.954"/><use xlink:href="#o" x="337.991" y="270.954"/><use xlink:href="#w" x="347.962" y="270.954"/></g><g fill="#193d6c"><use xlink:href="#r" x="363.904" y="270.954"/><use xlink:href="#B" x="374.861" y="270.954"/><use xlink:href="#t" x="379.846" y="270.954"/><use xlink:href="#o" x="390.803" y="270.954"/></g><g fill="#193d6c"><use xlink:href="#K" x="405.759" y="270.954"/><use xlink:href="#p" x="418.707" y="270.954"/><use xlink:href="#o" x="425.683" y="270.954"/><use xlink:href="#v" x="435.653" y="270.954"/><use xlink:href="#L" x="445.624" y="270.954"/></g><g fill="#193d6c"><use xlink:href="#M" x="187.31" y="410.771"/><use xlink:href="#s" x="197.281" y="410.771"/><use xlink:href="#E" x="208.238" y="410.771"/><use xlink:href="#t" x="219.195" y="410.771"/></g><use xlink:href="#n" x="235.137" y="410.771" fill="#193d6c"/><g fill="#193d6c"><use xlink:href="#o" x="246.201" y="410.771"/><use xlink:href="#p" x="256.172" y="410.771"/></g><use xlink:href="#q" x="263.327" y="410.771" fill="#193d6c"/><g fill="#193d6c"><use xlink:href="#r" x="278.283" y="410.771"/><use xlink:href="#s" x="289.24" y="410.771"/><use xlink:href="#t" x="300.197" y="410.771"/><use xlink:href="#u" x="311.154" y="410.771"/><use xlink:href="#t" x="322.111" y="410.771"/><use xlink:href="#v" x="333.068" y="410.771"/><use xlink:href="#y" x="343.038" y="410.771"/><use xlink:href="#o" x="358.981" y="410.771"/></g><g fill="#193d6c"><use xlink:href="#N" x="373.937" y="410.771"/><use xlink:href="#s" x="386.884" y="410.771"/><use xlink:href="#o" x="397.841" y="410.771"/></g><g fill="#193d6c"><use xlink:href="#D" x="138.417" y="554.741"/><use xlink:href="#E" x="149.374" y="554.741"/><use xlink:href="#o" x="160.331" y="554.741"/><use xlink:href="#A" x="170.302" y="554.741"/><use xlink:href="#B" x="180.272" y="554.741"/><use xlink:href="#A" x="185.257" y="554.741"/></g><g fill="#193d6c"><use xlink:href="#A" x="200.213" y="554.741"/><use xlink:href="#O" x="210.184" y="554.741"/><use xlink:href="#P" x="221.141" y="554.741"/><use xlink:href="#y" x="232.098" y="554.741"/><use xlink:href="#B" x="248.04" y="554.741"/><use xlink:href="#F" x="253.026" y="554.741"/><use xlink:href="#F" x="258.997" y="554.741"/><use xlink:href="#o" x="264.969" y="554.741"/><use xlink:href="#w" x="274.939" y="554.741"/></g><g fill="#193d6c"><use xlink:href="#B" x="290.882" y="554.741"/><use xlink:href="#t" x="295.867" y="554.741"/></g><g fill="#193d6c"><use xlink:href="#z" x="311.809" y="554.741"/><use xlink:href="#v" x="322.766" y="554.741"/><use xlink:href="#p" x="332.737" y="554.741"/></g><g fill="#193d6c"><use xlink:href="#F" x="340.071" y="554.741"/><use xlink:href="#B" x="346.043" y="554.741"/><use xlink:href="#v" x="351.028" y="554.741"/><use xlink:href="#G" x="360.999" y="554.741"/></g><g fill="#193d6c"><use xlink:href="#Q" x="370.97" y="554.741"/><use xlink:href="#O" x="376.941" y="554.741"/><use xlink:href="#G" x="387.898" y="554.741"/><use xlink:href="#R" x="392.883" y="554.741"/><use xlink:href="#G" x="403.84" y="554.741"/><use xlink:href="#G" x="408.826" y="554.741"/><use xlink:href="#y" x="413.811" y="554.741"/><use xlink:href="#o" x="429.753" y="554.741"/><use xlink:href="#t" x="439.724" y="554.741"/><use xlink:href="#F" x="450.681" y="554.741"/></g><g fill="#193d6c"><use xlink:href="#s" x="141.08" y="576.493"/><use xlink:href="#Q" x="152.037" y="576.493"/></g><g fill="#193d6c"><use xlink:href="#F" x="162.994" y="576.493"/><use xlink:href="#E" x="168.966" y="576.493"/><use xlink:href="#o" x="179.922" y="576.493"/></g><g fill="#193d6c"><use xlink:href="#p" x="194.878" y="576.493"/><use xlink:href="#o" x="201.854" y="576.493"/><use xlink:href="#S" x="211.825" y="576.493"/><use xlink:href="#O" x="222.782" y="576.493"/><use xlink:href="#B" x="233.739" y="576.493"/><use xlink:href="#p" x="238.724" y="576.493"/><use xlink:href="#o" x="245.7" y="576.493"/><use xlink:href="#y" x="255.671" y="576.493"/><use xlink:href="#o" x="271.613" y="576.493"/><use xlink:href="#t" x="281.583" y="576.493"/><use xlink:href="#F" x="292.54" y="576.493"/><use xlink:href="#A" x="298.512" y="576.493"/></g><use xlink:href="#Q" x="313.468" y="576.493" fill="#193d6c"/><g fill="#193d6c"><use xlink:href="#s" x="319.081" y="576.493"/><use xlink:href="#p" x="330.038" y="576.493"/></g><g fill="#193d6c"><use xlink:href="#F" x="341.999" y="576.493"/><use xlink:href="#E" x="347.971" y="576.493"/><use xlink:href="#o" x="358.928" y="576.493"/></g><g fill="#193d6c"><use xlink:href="#w" x="373.884" y="576.493"/><use xlink:href="#o" x="384.841" y="576.493"/><use xlink:href="#u" x="394.811" y="576.493"/><use xlink:href="#p" x="405.768" y="576.493"/><use xlink:href="#o" x="412.744" y="576.493"/><use xlink:href="#o" x="422.715" y="576.493"/></g><g fill="#193d6c"><use xlink:href="#s" x="437.671" y="576.493"/><use xlink:href="#Q" x="448.628" y="576.493"/></g><g fill="#193d6c"><use xlink:href="#N" x="196.886" y="610.171"/><use xlink:href="#s" x="209.833" y="610.171"/><use xlink:href="#J" x="220.79" y="610.171"/><use xlink:href="#F" x="230.761" y="610.171"/><use xlink:href="#s" x="236.733" y="610.171"/><use xlink:href="#p" x="247.69" y="610.171"/></g><g fill="#193d6c"><use xlink:href="#s" x="259.651" y="610.171"/><use xlink:href="#Q" x="270.608" y="610.171"/></g><g fill="#193d6c"><use xlink:href="#T" x="281.565" y="610.171"/><use xlink:href="#E" x="293.526" y="610.171"/><use xlink:href="#B" x="304.483" y="610.171"/><use xlink:href="#G" x="309.468" y="610.171"/><use xlink:href="#s" x="314.453" y="610.171"/><use xlink:href="#A" x="325.41" y="610.171"/><use xlink:href="#s" x="335.381" y="610.171"/><use xlink:href="#z" x="346.338" y="610.171"/><use xlink:href="#E" x="357.295" y="610.171"/></g><use xlink:href="#q" x="367.893" y="610.171" fill="#193d6c"/><g fill="#193d6c"><use xlink:href="#B" x="382.849" y="610.171"/><use xlink:href="#t" x="387.834" y="610.171"/></g><g fill="#193d6c"><use xlink:href="#U" x="225.587" y="631.923"/><use xlink:href="#V" x="234.553" y="631.923"/><use xlink:href="#J" x="246.515" y="631.923"/><use xlink:href="#B" x="256.485" y="631.923"/><use xlink:href="#o" x="261.471" y="631.923"/><use xlink:href="#t" x="271.441" y="631.923"/><use xlink:href="#F" x="282.398" y="631.923"/><use xlink:href="#B" x="288.37" y="631.923"/><use xlink:href="#R" x="293.355" y="631.923"/><use xlink:href="#J" x="304.312" y="631.923"/></g><g fill="#193d6c"><use xlink:href="#I" x="319.268" y="631.923"/><use xlink:href="#B" x="330.225" y="631.923"/><use xlink:href="#o" x="335.21" y="631.923"/><use xlink:href="#G" x="345.181" y="631.923"/><use xlink:href="#w" x="350.166" y="631.923"/><use xlink:href="#W" x="361.123" y="631.923"/></g><use xlink:href="#X" x="245.785" y="768.961" fill="#193d6c"/><g fill="#193d6c"><use xlink:href="#Y" x="251.113" y="768.961"/><use xlink:href="#Z" x="263.513" y="768.961"/><use xlink:href="#aa" x="272.035" y="768.961"/><use xlink:href="#ab" x="280.557" y="768.961"/><use xlink:href="#ac" x="285.201" y="768.961"/></g><use xlink:href="#ad" x="293.723" y="768.961" fill="#193d6c"/><use xlink:href="#ae" x="299.051" y="768.961" fill="#193d6c"/><use xlink:href="#X" x="306.806" y="768.961" fill="#193d6c"/><use xlink:href="#af" x="312.134" y="768.961" fill="#193d6c"/><g fill="#193d6c"><use xlink:href="#ag" x="319.749" y="768.961"/><use xlink:href="#ah" x="327.504" y="768.961"/><use xlink:href="#ai" x="335.259" y="768.961"/></g><use xlink:href="#ad" x="340.684" y="768.961" fill="#193d6c"/></svg>