<?xml version="1.0" encoding="UTF-8" ?>
<!DOCTYPE svg PUBLIC "-//W3C//DTD SVG 1.1//EN" "http://www.w3.org/Graphics/SVG/1.1/DTD/svg11.dtd">
<svg width="1057pt" height="403pt" viewBox="0 0 1057 403" version="1.1" xmlns="http://www.w3.org/2000/svg">
<g id="#ffffffff">
<path fill="#ffffff" opacity="1.00" d=" M 304.31 61.38 C 308.72 55.09 316.23 51.11 323.92 51.05 C 331.94 50.83 339.88 54.92 344.44 61.51 C 349.67 68.84 350.38 79.15 346.03 87.06 C 343.84 91.38 340.17 94.72 336.11 97.25 C 336.05 115.84 336.16 134.44 336.06 153.03 C 336.12 156.45 334.26 159.52 331.87 161.83 C 318.70 175.00 305.56 188.22 292.38 201.38 C 289.95 203.93 286.51 205.35 282.99 205.19 C 254.68 205.19 226.37 205.19 198.07 205.21 C 193.95 214.85 185.16 222.47 174.75 224.34 C 160.98 227.23 145.99 219.52 140.30 206.67 C 134.11 193.83 138.21 177.15 149.65 168.66 C 160.75 159.81 177.87 160.04 188.68 169.25 C 192.84 172.55 195.81 177.04 198.05 181.81 C 224.93 181.82 251.80 181.81 278.68 181.81 C 289.94 170.54 301.19 159.27 312.44 147.99 C 312.43 131.06 312.46 114.12 312.43 97.19 C 307.83 94.34 303.87 90.33 301.76 85.29 C 298.36 77.60 299.38 68.19 304.31 61.38 M 165.44 181.67 C 159.75 183.17 155.57 189.10 156.43 194.99 C 157.09 201.49 163.61 206.60 170.09 205.75 C 176.73 205.24 182.20 198.61 181.14 191.95 C 180.38 184.71 172.39 179.50 165.44 181.67 Z" />
<path fill="#ffffff" opacity="1.00" d=" M 377.75 60.82 C 382.57 54.23 390.86 50.36 399.01 51.00 C 407.09 51.45 414.72 56.30 418.66 63.35 C 423.05 70.95 422.95 80.91 418.33 88.38 C 416.20 92.10 412.88 94.93 409.32 97.25 C 409.25 125.50 409.22 153.76 409.17 182.02 C 409.34 185.52 407.86 188.91 405.36 191.32 C 382.26 214.48 359.12 237.60 336.02 260.76 C 336.06 277.66 336.03 294.56 336.11 311.46 C 341.16 314.50 345.34 319.09 347.31 324.71 C 350.03 332.13 348.89 340.84 344.30 347.29 C 339.80 353.82 331.97 357.90 324.03 357.74 C 315.86 357.75 307.91 353.27 303.60 346.35 C 298.76 338.86 298.45 328.67 302.99 320.97 C 305.16 316.99 308.62 313.91 312.41 311.51 C 312.46 292.95 312.33 274.39 312.39 255.84 C 312.32 252.56 313.94 249.51 316.24 247.26 C 338.91 224.55 361.61 201.85 384.29 179.15 C 385.21 178.35 385.68 177.25 385.53 176.03 C 385.49 149.77 385.53 123.50 385.51 97.24 C 380.81 94.46 376.78 90.41 374.76 85.28 C 371.44 77.35 372.55 67.70 377.75 60.82 Z" />
</g>
<g id="#008eb3ff">
<path fill="#008eb3" opacity="1.00" d=" M 36.64 52.60 C 45.32 33.31 65.80 20.15 86.96 20.29 C 190.32 20.26 293.68 20.29 397.04 20.28 C 412.18 20.06 427.31 26.24 437.79 37.21 C 449.34 48.81 455.06 65.83 452.96 82.06 C 451.70 93.26 446.60 103.82 439.13 112.21 C 439.13 136.13 439.18 160.05 439.17 183.97 C 439.16 194.26 434.86 204.39 427.55 211.62 C 407.08 232.15 386.56 252.64 366.09 273.18 C 366.05 281.15 365.99 289.12 365.95 297.10 C 376.28 308.31 381.68 323.88 379.95 339.08 C 378.21 358.60 364.91 376.32 346.96 384.00 C 339.76 387.15 331.90 388.69 324.05 388.66 C 245.01 388.65 165.97 388.68 86.93 388.64 C 65.78 388.76 45.33 375.62 36.64 356.34 C 33.27 349.05 31.61 341.01 31.66 332.99 C 31.67 247.33 31.67 161.67 31.66 76.00 C 31.61 67.96 33.25 59.91 36.64 52.60 M 304.31 61.38 C 299.38 68.19 298.36 77.60 301.76 85.29 C 303.87 90.33 307.83 94.34 312.43 97.19 C 312.46 114.12 312.43 131.06 312.44 147.99 C 301.19 159.27 289.94 170.54 278.68 181.81 C 251.80 181.81 224.93 181.82 198.05 181.81 C 195.81 177.04 192.84 172.55 188.68 169.25 C 177.87 160.04 160.75 159.81 149.65 168.66 C 138.21 177.15 134.11 193.83 140.30 206.67 C 145.99 219.52 160.98 227.23 174.75 224.34 C 185.16 222.47 193.95 214.85 198.07 205.21 C 226.37 205.19 254.68 205.19 282.99 205.19 C 286.51 205.35 289.95 203.93 292.38 201.38 C 305.56 188.22 318.70 175.00 331.87 161.83 C 334.26 159.52 336.12 156.45 336.06 153.03 C 336.16 134.44 336.05 115.84 336.11 97.25 C 340.17 94.72 343.84 91.38 346.03 87.06 C 350.38 79.15 349.67 68.84 344.44 61.51 C 339.88 54.92 331.94 50.83 323.92 51.05 C 316.23 51.11 308.72 55.09 304.31 61.38 M 377.75 60.82 C 372.55 67.70 371.44 77.35 374.76 85.28 C 376.78 90.41 380.81 94.46 385.51 97.24 C 385.53 123.50 385.49 149.77 385.53 176.03 C 385.68 177.25 385.21 178.35 384.29 179.15 C 361.61 201.85 338.91 224.55 316.24 247.26 C 313.94 249.51 312.32 252.56 312.39 255.84 C 312.33 274.39 312.46 292.95 312.41 311.51 C 308.62 313.91 305.16 316.99 302.99 320.97 C 298.45 328.67 298.76 338.86 303.60 346.35 C 307.91 353.27 315.86 357.75 324.03 357.74 C 331.97 357.90 339.80 353.82 344.30 347.29 C 348.89 340.84 350.03 332.13 347.31 324.71 C 345.34 319.09 341.16 314.50 336.11 311.46 C 336.03 294.56 336.06 277.66 336.02 260.76 C 359.12 237.60 382.26 214.48 405.36 191.32 C 407.86 188.91 409.34 185.52 409.17 182.02 C 409.22 153.76 409.25 125.50 409.32 97.25 C 412.88 94.93 416.20 92.10 418.33 88.38 C 422.95 80.91 423.05 70.95 418.66 63.35 C 414.72 56.30 407.09 51.45 399.01 51.00 C 390.86 50.36 382.57 54.23 377.75 60.82 Z" />
<path fill="#008eb3" opacity="1.00" d=" M 689.38 109.30 C 693.48 101.84 701.50 97.08 709.87 96.17 C 718.91 95.16 728.78 96.11 736.43 101.47 C 741.07 104.68 744.14 109.61 746.19 114.78 C 740.84 116.60 735.49 118.38 730.14 120.16 C 728.68 117.08 726.91 113.85 723.71 112.30 C 719.09 110.04 713.42 110.10 708.69 111.94 C 704.13 113.73 703.70 120.72 707.70 123.34 C 717.61 128.19 729.87 127.18 739.02 133.96 C 744.53 138.23 748.40 144.91 748.31 152.00 C 748.59 162.41 741.59 172.22 732.10 176.14 C 725.46 178.90 718.11 179.45 711.00 179.02 C 702.57 178.42 693.88 175.34 688.22 168.83 C 685.15 165.40 683.36 161.09 682.08 156.73 C 687.90 155.40 693.72 154.09 699.55 152.77 C 700.79 156.10 702.45 159.54 705.63 161.43 C 710.36 164.32 716.31 164.53 721.63 163.49 C 725.91 162.69 730.05 158.56 728.88 153.94 C 728.02 149.94 723.60 148.59 720.18 147.60 C 710.72 145.19 700.38 143.79 692.62 137.35 C 685.00 130.41 684.70 117.98 689.38 109.30 Z" />
<path fill="#008eb3" opacity="1.00" d=" M 763.86 107.87 C 769.18 101.09 777.38 96.84 785.94 96.08 C 795.30 95.12 805.66 96.61 812.89 103.12 C 819.70 109.19 822.42 118.38 823.56 127.14 C 816.96 127.57 810.36 127.97 803.76 128.38 C 803.37 123.81 802.90 118.85 799.83 115.19 C 796.48 111.19 790.49 110.45 785.76 112.03 C 781.62 113.47 778.98 117.41 777.67 121.42 C 775.42 128.33 775.36 135.72 775.67 142.92 C 776.04 147.98 776.50 153.32 779.20 157.76 C 783.57 164.83 795.05 165.87 800.53 159.58 C 803.29 156.49 804.30 152.35 805.25 148.42 C 811.35 148.81 817.45 149.16 823.56 149.55 C 822.51 157.36 819.68 165.31 813.70 170.71 C 799.92 183.31 775.60 181.77 763.74 167.24 C 757.10 159.46 754.63 149.00 754.47 138.98 C 754.14 128.00 756.74 116.49 763.86 107.87 Z" />
<path fill="#008eb3" opacity="1.00" d=" M 503.87 97.04 C 510.16 97.04 516.46 97.03 522.76 97.04 C 522.76 124.00 522.76 150.97 522.76 177.93 C 516.46 177.93 510.16 177.93 503.86 177.93 C 503.86 150.97 503.86 124.00 503.87 97.04 Z" />
<path fill="#008eb3" opacity="1.00" d=" M 539.00 97.04 C 545.83 97.05 552.65 97.01 559.48 97.06 C 568.59 112.96 577.86 128.77 586.92 144.70 C 586.31 128.83 586.79 112.93 586.64 97.04 C 591.52 97.03 596.40 97.03 601.28 97.04 C 601.28 124.00 601.28 150.96 601.28 177.93 C 595.89 177.94 590.50 177.93 585.11 177.93 C 574.51 159.73 564.00 141.48 553.37 123.29 C 554.22 141.48 553.54 159.72 553.76 177.93 C 548.83 177.93 543.92 177.93 539.00 177.93 C 538.99 150.97 538.99 124.00 539.00 97.04 Z" />
<path fill="#008eb3" opacity="1.00" d=" M 617.39 97.04 C 636.67 97.03 655.95 97.04 675.23 97.04 C 675.23 102.18 675.23 107.31 675.23 112.45 C 662.37 112.46 649.51 112.44 636.66 112.46 C 636.65 117.98 636.65 123.51 636.66 129.03 C 646.77 129.04 656.88 129.03 666.99 129.04 C 666.99 134.12 666.99 139.19 666.99 144.27 C 656.88 144.27 646.77 144.27 636.66 144.27 C 636.65 150.16 636.66 156.04 636.66 161.93 C 649.51 161.93 662.37 161.92 675.23 161.93 C 675.23 167.26 675.23 172.59 675.23 177.93 C 655.95 177.93 636.67 177.93 617.39 177.93 C 617.40 150.96 617.39 124.00 617.39 97.04 Z" />
<path fill="#008eb3" opacity="1.00" d=" M 165.44 181.67 C 172.39 179.50 180.38 184.71 181.14 191.95 C 182.20 198.61 176.73 205.24 170.09 205.75 C 163.61 206.60 157.09 201.49 156.43 194.99 C 155.57 189.10 159.75 183.17 165.44 181.67 Z" />
<path fill="#008eb3" opacity="1.00" d=" M 545.01 205.03 C 546.43 205.03 547.86 205.03 549.30 205.03 C 552.57 215.05 555.84 225.07 559.09 235.09 C 557.80 235.09 556.52 235.09 555.25 235.09 C 554.23 232.17 553.22 229.24 552.21 226.32 C 548.51 226.31 544.80 226.31 541.10 226.31 C 540.19 229.23 539.30 232.15 538.41 235.08 C 537.35 235.08 536.30 235.09 535.25 235.10 C 538.50 225.08 541.75 215.05 545.01 205.03 M 546.79 209.07 C 545.23 213.87 543.67 218.68 542.13 223.49 C 545.22 223.49 548.31 223.49 551.41 223.48 C 549.88 218.67 548.34 213.87 546.79 209.07 Z" />
<path fill="#008eb3" opacity="1.00" d=" M 564.72 206.70 C 570.62 202.22 580.47 204.39 582.92 211.72 C 582.10 212.00 580.47 212.55 579.65 212.82 C 577.97 208.13 571.91 205.98 567.70 208.67 C 565.13 210.03 564.74 214.21 567.38 215.72 C 571.71 218.12 577.30 217.51 581.25 220.76 C 585.24 224.14 584.27 231.14 579.93 233.81 C 575.97 236.23 570.75 236.21 566.55 234.43 C 563.43 233.11 561.69 230.09 560.27 227.20 C 561.09 226.99 562.72 226.56 563.53 226.34 C 565.45 231.64 571.75 233.88 576.79 231.72 C 579.87 230.58 581.05 225.78 578.27 223.71 C 574.26 221.03 568.96 221.57 564.92 218.95 C 561.03 216.16 560.83 209.58 564.72 206.70 Z" />
<path fill="#008eb3" opacity="1.00" d=" M 590.90 206.85 C 596.75 202.17 606.84 204.32 609.29 211.76 C 608.46 212.01 606.81 212.53 605.98 212.78 C 604.34 208.24 598.57 206.08 594.37 208.48 C 591.73 209.65 590.95 213.75 593.42 215.50 C 597.86 218.28 603.94 217.36 607.93 221.06 C 611.63 224.65 610.42 231.49 606.02 233.97 C 602.01 236.24 596.83 236.21 592.69 234.32 C 589.67 232.97 588.00 229.99 586.62 227.16 C 587.45 226.97 589.11 226.58 589.94 226.39 C 591.87 231.86 598.60 234.01 603.62 231.48 C 606.46 230.05 607.26 225.35 604.39 223.54 C 600.35 221.05 595.13 221.52 591.16 218.87 C 587.44 216.08 587.22 209.77 590.90 206.85 Z" />
<path fill="#008eb3" opacity="1.00" d=" M 622.33 205.31 C 627.01 203.29 633.03 204.70 635.95 208.99 C 640.70 215.69 640.23 225.68 635.07 232.04 C 630.43 237.69 620.28 236.62 616.99 230.05 C 612.61 222.22 613.61 209.71 622.33 205.31 M 623.38 208.39 C 618.72 211.47 618.11 217.84 618.63 222.94 C 619.01 227.40 621.86 232.86 627.01 232.63 C 631.26 232.71 633.92 228.59 634.69 224.86 C 635.63 220.05 635.63 214.50 632.65 210.37 C 630.62 207.51 626.39 206.65 623.38 208.39 Z" />
<path fill="#008eb3" opacity="1.00" d=" M 646.05 210.02 C 649.07 204.54 656.83 202.75 662.04 206.08 C 664.83 207.86 666.00 211.09 667.08 214.06 C 666.21 214.24 664.46 214.60 663.59 214.78 C 662.62 212.73 661.93 210.37 660.06 208.93 C 656.94 206.50 651.88 207.55 649.93 210.97 C 647.33 215.42 647.28 221.00 648.48 225.89 C 649.40 229.66 652.82 233.26 657.01 232.44 C 660.86 232.06 662.56 228.20 663.68 225.02 C 664.80 225.27 665.93 225.52 667.06 225.78 C 666.17 228.15 665.39 230.69 663.58 232.56 C 659.18 237.28 650.44 236.59 646.91 231.13 C 642.79 225.03 642.47 216.43 646.05 210.02 Z" />
<path fill="#008eb3" opacity="1.00" d=" M 672.32 205.04 C 673.57 205.03 674.82 205.03 676.08 205.04 C 676.09 215.06 676.09 225.07 676.08 235.09 C 674.82 235.09 673.57 235.09 672.32 235.09 C 672.32 225.07 672.32 215.06 672.32 205.04 Z" />
<path fill="#008eb3" opacity="1.00" d=" M 690.40 205.04 C 691.83 205.04 693.27 205.03 694.72 205.04 C 697.98 215.05 701.25 225.07 704.51 235.09 C 703.55 235.09 701.63 235.10 700.67 235.10 C 699.64 232.17 698.62 229.25 697.62 226.32 C 693.91 226.31 690.20 226.31 686.49 226.32 C 685.60 229.24 684.70 232.17 683.81 235.10 C 683.02 235.09 681.45 235.09 680.67 235.09 C 683.90 225.07 687.17 215.06 690.40 205.04 M 687.54 223.48 C 690.63 223.49 693.72 223.49 696.82 223.49 C 695.28 218.68 693.74 213.87 692.20 209.06 C 690.64 213.87 689.09 218.67 687.54 223.48 Z" />
<path fill="#008eb3" opacity="1.00" d=" M 705.80 205.04 C 712.79 205.03 719.79 205.03 726.79 205.04 C 726.79 205.86 726.79 207.51 726.79 208.34 C 723.90 208.34 721.03 208.34 718.16 208.34 C 718.15 217.26 718.16 226.18 718.15 235.09 C 716.90 235.09 715.65 235.09 714.41 235.09 C 714.41 226.18 714.41 217.26 714.41 208.35 C 711.54 208.34 708.67 208.34 705.81 208.34 C 705.81 207.51 705.80 205.86 705.80 205.04 Z" />
<path fill="#008eb3" opacity="1.00" d=" M 731.67 205.04 C 738.01 205.03 744.35 205.03 750.70 205.04 C 750.70 205.86 750.69 207.51 750.69 208.34 C 745.60 208.34 740.52 208.34 735.44 208.34 C 735.44 211.53 735.43 214.71 735.44 217.89 C 739.47 217.89 743.50 217.90 747.54 217.90 C 747.54 218.66 747.55 220.19 747.56 220.95 C 743.51 220.96 739.48 220.96 735.44 220.97 C 735.44 224.57 735.44 228.18 735.44 231.79 C 740.66 231.79 745.89 231.79 751.12 231.79 C 751.12 232.62 751.12 234.27 751.12 235.09 C 744.63 235.10 738.15 235.10 731.67 235.09 C 731.67 225.07 731.67 215.05 731.67 205.04 Z" />
<path fill="#008eb3" opacity="1.00" d=" M 769.01 205.03 C 770.28 205.03 771.56 205.03 772.86 205.04 C 772.86 213.95 772.86 222.87 772.86 231.79 C 777.49 231.79 782.12 231.79 786.75 231.79 C 786.75 232.62 786.75 234.27 786.75 235.09 C 780.83 235.10 774.92 235.10 769.00 235.09 C 768.99 225.07 768.99 215.05 769.01 205.03 Z" />
<path fill="#008eb3" opacity="1.00" d=" M 797.91 205.03 C 799.33 205.03 800.76 205.03 802.21 205.04 C 805.47 215.05 808.74 225.07 812.00 235.09 C 810.71 235.09 809.43 235.09 808.16 235.10 C 807.14 232.17 806.12 229.24 805.11 226.32 C 801.40 226.31 797.69 226.31 793.99 226.31 C 793.05 229.18 792.42 232.16 791.21 234.93 C 790.44 235.01 788.91 235.16 788.14 235.24 C 791.34 225.15 794.66 215.10 797.91 205.03 M 799.70 209.02 C 798.15 213.84 796.58 218.66 795.04 223.49 C 798.12 223.49 801.21 223.49 804.31 223.48 C 802.78 218.66 801.22 213.85 799.70 209.02 Z" />
<path fill="#008eb3" opacity="1.00" d=" M 816.60 205.04 C 822.25 205.46 828.31 203.97 833.69 206.18 C 839.03 208.92 838.19 217.52 832.35 219.15 C 839.24 220.65 840.30 231.03 834.02 233.98 C 828.49 236.07 822.37 234.72 816.60 235.09 C 816.59 225.07 816.60 215.05 816.60 205.04 M 820.23 208.11 C 820.23 211.38 820.23 214.65 820.24 217.92 C 823.70 217.84 827.26 218.28 830.65 217.36 C 834.44 216.07 834.62 209.65 830.59 208.53 C 827.20 207.74 823.67 208.18 820.23 208.11 M 820.24 220.80 C 820.23 224.46 820.23 228.12 820.24 231.78 C 823.93 231.66 827.74 232.25 831.35 231.26 C 835.82 229.71 835.17 222.62 830.94 221.21 C 827.42 220.44 823.79 220.86 820.24 220.80 Z" />
<path fill="#008eb3" opacity="1.00" d=" M 851.23 205.02 C 856.01 203.34 861.80 205.14 864.48 209.53 C 868.79 216.28 868.24 225.96 863.11 232.14 C 858.41 237.72 848.28 236.55 845.07 229.94 C 840.62 221.95 841.87 208.84 851.23 205.02 M 851.43 208.44 C 846.85 211.56 846.24 217.87 846.77 222.94 C 847.16 227.33 849.90 232.73 854.97 232.63 C 859.01 232.83 861.78 229.09 862.65 225.52 C 863.79 220.70 863.85 215.13 861.10 210.82 C 859.17 207.63 854.62 206.52 851.43 208.44 Z" />
<path fill="#008eb3" opacity="1.00" d=" M 873.67 205.04 C 878.46 205.14 883.28 204.74 888.06 205.30 C 893.12 205.91 896.39 211.91 894.40 216.56 C 893.69 218.95 891.44 220.21 889.46 221.42 C 891.44 225.96 893.35 230.53 895.28 235.09 C 893.96 235.09 892.65 235.09 891.35 235.09 C 889.49 230.75 887.65 226.41 885.79 222.08 C 882.92 222.08 880.05 222.08 877.19 222.08 C 877.19 226.42 877.18 230.75 877.19 235.09 C 876.31 235.09 874.55 235.09 873.67 235.09 C 873.66 225.07 873.66 215.06 873.67 205.04 M 877.19 208.35 C 877.18 211.90 877.18 215.45 877.19 219.01 C 880.71 218.93 884.31 219.38 887.78 218.59 C 891.91 217.29 892.55 210.43 888.28 208.88 C 884.69 207.85 880.87 208.49 877.19 208.35 Z" />
<path fill="#008eb3" opacity="1.00" d=" M 908.13 205.02 C 909.55 205.03 910.99 205.04 912.43 205.05 C 915.67 215.07 918.96 225.07 922.21 235.09 C 920.91 235.09 919.63 235.09 918.36 235.09 C 917.34 232.17 916.33 229.24 915.33 226.32 C 911.62 226.31 907.91 226.31 904.21 226.31 C 903.30 229.23 902.41 232.16 901.52 235.09 C 900.73 235.09 899.16 235.09 898.37 235.09 C 901.62 225.07 904.87 215.04 908.13 205.02 M 909.90 209.07 C 908.34 213.87 906.79 218.68 905.24 223.49 C 908.33 223.49 911.42 223.49 914.52 223.49 C 912.99 218.68 911.45 213.87 909.90 209.07 Z" />
<path fill="#008eb3" opacity="1.00" d=" M 923.50 205.04 C 930.50 205.03 937.50 205.03 944.50 205.04 C 944.50 205.86 944.49 207.51 944.49 208.34 C 941.61 208.34 938.74 208.34 935.87 208.34 C 935.85 217.26 935.87 226.18 935.86 235.10 C 934.60 235.09 933.35 235.09 932.12 235.09 C 932.11 226.18 932.12 217.26 932.11 208.35 C 929.24 208.34 926.37 208.34 923.51 208.34 C 923.51 207.51 923.51 205.86 923.50 205.04 Z" />
<path fill="#008eb3" opacity="1.00" d=" M 955.29 205.32 C 959.97 203.29 966.00 204.70 968.93 208.99 C 973.66 215.69 973.21 225.67 968.05 232.02 C 963.44 237.67 953.30 236.64 950.00 230.09 C 945.57 222.27 946.57 209.73 955.29 205.32 M 956.39 208.37 C 951.71 211.42 951.08 217.79 951.60 222.88 C 951.97 227.36 954.81 232.86 959.99 232.63 C 964.23 232.71 966.89 228.60 967.66 224.88 C 968.61 220.04 968.60 214.47 965.59 210.33 C 963.55 207.52 959.38 206.67 956.39 208.37 Z" />
<path fill="#008eb3" opacity="1.00" d=" M 978.50 205.04 C 983.48 205.19 988.52 204.63 993.46 205.41 C 998.43 206.38 1001.27 212.51 999.05 217.00 C 998.26 219.18 996.11 220.26 994.30 221.42 C 996.28 225.96 998.19 230.53 1000.12 235.09 C 998.80 235.09 997.49 235.09 996.19 235.10 C 994.33 230.76 992.48 226.42 990.64 222.09 C 987.76 222.08 984.89 222.08 982.03 222.08 C 982.03 226.42 982.02 230.75 982.03 235.09 C 981.15 235.09 979.39 235.09 978.51 235.09 C 978.50 225.07 978.50 215.06 978.50 205.04 M 982.03 208.35 C 982.02 211.90 982.02 215.45 982.03 219.01 C 985.56 218.92 989.19 219.40 992.67 218.57 C 996.75 217.23 997.36 210.47 993.15 208.89 C 989.56 207.84 985.72 208.50 982.03 208.35 Z" />
<path fill="#008eb3" opacity="1.00" d=" M 1002.61 205.04 C 1004.08 205.03 1005.55 205.03 1007.04 205.04 C 1009.70 209.64 1012.35 214.25 1015.03 218.85 C 1017.72 214.25 1020.38 209.63 1023.08 205.03 C 1023.93 205.03 1025.64 205.04 1026.50 205.04 C 1023.27 210.90 1019.57 216.51 1016.61 222.49 C 1016.15 226.67 1016.57 230.89 1016.44 235.09 C 1015.50 235.09 1013.61 235.09 1012.67 235.09 C 1012.53 230.89 1012.96 226.65 1012.49 222.47 C 1009.52 216.49 1005.83 210.89 1002.61 205.04 Z" />
<path fill="#008eb3" opacity="1.00" d=" M 538.87 249.46 C 543.83 249.69 548.96 248.82 553.82 250.16 C 559.87 252.26 561.16 261.37 556.15 265.24 C 552.35 268.31 547.12 267.08 542.63 267.32 C 542.63 271.38 542.62 275.45 542.63 279.52 C 541.69 279.52 539.81 279.52 538.87 279.51 C 538.86 269.50 538.85 259.48 538.87 249.46 M 542.63 252.62 C 542.62 256.47 542.62 260.32 542.63 264.18 C 545.93 264.04 549.44 264.71 552.59 263.50 C 556.73 261.45 556.27 254.42 551.91 252.94 C 548.85 252.33 545.72 252.65 542.63 252.62 Z" />
<path fill="#008eb3" opacity="1.00" d=" M 571.34 249.48 C 575.96 247.82 581.60 249.36 584.38 253.50 C 589.03 260.21 588.56 270.10 583.44 276.43 C 578.85 282.07 568.74 281.08 565.41 274.57 C 560.82 266.60 562.00 253.43 571.34 249.48 M 572.37 252.49 C 568.81 254.13 567.38 258.28 566.97 261.91 C 566.49 266.61 567.06 272.06 570.71 275.44 C 573.90 278.27 579.44 277.23 581.39 273.42 C 584.14 268.44 584.27 262.10 582.23 256.84 C 580.80 253.02 576.19 250.74 572.37 252.49 Z" />
<path fill="#008eb3" opacity="1.00" d=" M 593.88 249.46 C 598.67 249.58 603.49 249.14 608.26 249.72 C 613.25 250.32 616.54 256.16 614.68 260.79 C 614.01 263.26 611.75 264.62 609.70 265.81 C 611.63 270.38 613.57 274.94 615.50 279.51 C 614.52 279.52 612.55 279.52 611.57 279.52 C 609.74 275.26 607.93 271.00 606.11 266.73 L 605.71 266.49 C 602.94 266.50 600.17 266.50 597.41 266.51 C 597.41 270.84 597.40 275.18 597.41 279.51 C 596.22 279.51 595.05 279.51 593.88 279.52 C 593.87 269.50 593.87 259.48 593.88 249.46 M 597.41 252.77 C 597.40 256.32 597.40 259.87 597.41 263.43 C 600.88 263.35 604.41 263.77 607.84 263.06 C 612.01 261.91 612.84 255.11 608.69 253.38 C 605.07 252.22 601.15 252.93 597.41 252.77 Z" />
<path fill="#008eb3" opacity="1.00" d=" M 618.90 249.46 C 625.89 249.45 632.88 249.46 639.87 249.46 C 639.87 250.55 639.87 251.65 639.88 252.76 C 637.00 252.76 634.12 252.76 631.25 252.77 C 631.24 261.68 631.25 270.60 631.24 279.52 C 630.31 279.52 628.44 279.52 627.50 279.52 C 627.49 270.60 627.51 261.68 627.50 252.77 C 624.62 252.76 621.75 252.76 618.89 252.76 C 618.88 251.65 618.89 250.56 618.90 249.46 Z" />
<path fill="#008eb3" opacity="1.00" d=" M 661.89 249.46 C 662.92 249.46 663.96 249.45 665.01 249.45 C 665.01 255.98 665.06 262.51 665.01 269.04 C 664.98 272.17 664.44 275.74 661.80 277.79 C 658.23 280.57 653.06 280.71 649.00 279.01 C 645.56 277.49 644.41 273.48 644.35 270.01 C 644.20 263.16 644.33 256.31 644.30 249.45 C 645.24 249.46 647.12 249.46 648.06 249.46 C 648.09 255.99 648.02 262.52 648.07 269.05 C 648.14 271.36 648.14 274.26 650.39 275.61 C 653.09 277.18 656.80 277.28 659.44 275.51 C 661.47 274.05 661.82 271.36 661.87 269.05 C 661.95 262.52 661.85 255.99 661.89 249.46 Z" />
<path fill="#008eb3" opacity="1.00" d=" M 673.96 253.96 C 677.31 248.68 685.14 247.25 690.26 250.69 C 692.64 252.26 693.69 255.01 694.85 257.48 C 693.70 257.78 692.54 258.09 691.40 258.40 C 690.41 256.52 689.68 254.27 687.71 253.19 C 683.92 250.74 678.14 252.26 676.56 256.64 C 674.27 262.18 674.13 269.23 677.71 274.26 C 680.48 277.87 686.62 278.02 689.49 274.45 C 691.17 272.56 691.03 269.88 691.33 267.53 C 688.78 267.51 686.24 267.51 683.71 267.51 C 683.70 266.46 683.70 265.41 683.70 264.37 C 687.47 264.36 691.24 264.36 695.02 264.37 C 695.02 269.58 695.07 274.80 694.95 280.01 C 694.37 279.97 693.21 279.89 692.64 279.85 C 692.44 278.97 692.05 277.22 691.85 276.34 C 687.88 280.95 680.23 281.42 675.73 277.36 C 669.65 271.38 669.38 260.89 673.96 253.96 Z" />
<path fill="#008eb3" opacity="1.00" d=" M 708.76 249.47 C 710.18 249.46 711.60 249.45 713.05 249.45 C 716.33 259.47 719.59 269.49 722.85 279.52 C 721.89 279.52 719.97 279.52 719.01 279.52 C 717.98 276.59 716.97 273.66 715.95 270.73 C 712.24 270.73 708.54 270.73 704.83 270.73 C 703.92 273.61 703.24 276.57 702.05 279.35 C 701.29 279.43 699.77 279.59 699.01 279.67 C 702.16 269.57 705.51 259.54 708.76 249.47 M 710.54 253.48 C 708.98 258.29 707.42 263.10 705.88 267.91 C 708.97 267.91 712.06 267.91 715.16 267.91 C 713.63 263.10 712.09 258.29 710.54 253.48 Z" />
<path fill="#008eb3" opacity="1.00" d=" M 727.45 249.45 C 728.73 249.45 730.01 249.46 731.30 249.46 C 731.30 258.38 731.30 267.29 731.31 276.21 C 735.93 276.21 740.56 276.21 745.20 276.21 C 745.20 277.04 745.20 278.69 745.20 279.51 C 739.28 279.52 733.37 279.52 727.45 279.52 C 727.45 269.50 727.45 259.47 727.45 249.45 Z" />
</g>
<g id="#64c8ecff">
<path fill="#64c8ec" opacity="1.00" d=" M 981.89 98.10 C 989.24 95.42 997.38 95.20 1005.00 96.83 C 1012.03 98.30 1018.49 102.56 1022.28 108.71 C 1025.82 114.22 1027.34 120.72 1028.24 127.13 C 1021.64 127.58 1015.05 127.97 1008.46 128.39 C 1008.01 123.91 1007.62 119.03 1004.66 115.39 C 1001.27 111.14 994.94 110.36 990.07 112.17 C 985.61 113.92 983.12 118.46 981.90 122.85 C 979.96 130.07 979.99 137.65 980.50 145.06 C 980.93 149.51 981.55 154.17 984.05 158.00 C 988.45 164.74 999.39 165.76 1004.91 159.89 C 1007.90 156.79 1008.92 152.48 1009.94 148.43 C 1016.02 148.78 1022.11 149.16 1028.20 149.54 C 1027.21 157.75 1024.02 166.07 1017.53 171.48 C 1003.83 183.01 980.87 181.57 969.05 167.97 C 963.15 161.46 960.24 152.76 959.45 144.13 C 958.50 134.01 959.50 123.37 964.31 114.27 C 968.06 107.07 974.19 100.92 981.89 98.10 Z" />
<path fill="#64c8ec" opacity="1.00" d=" M 826.31 97.05 C 846.10 97.03 865.90 97.03 885.69 97.05 C 885.69 102.38 885.70 107.71 885.68 113.03 C 879.01 113.06 872.33 113.03 865.67 113.05 C 865.66 134.68 865.67 156.30 865.66 177.92 C 859.26 177.95 852.86 177.95 846.46 177.92 C 846.45 156.30 846.46 134.68 846.45 113.05 C 839.74 113.03 833.03 113.06 826.32 113.03 C 826.30 107.71 826.31 102.38 826.31 97.05 Z" />
<path fill="#64c8ec" opacity="1.00" d=" M 894.95 97.05 C 914.23 97.03 933.51 97.03 952.80 97.05 C 952.80 102.18 952.80 107.31 952.79 112.44 C 939.94 112.47 927.08 112.44 914.23 112.46 C 914.21 117.98 914.21 123.50 914.23 129.02 C 924.34 129.06 934.45 129.01 944.56 129.05 C 944.56 134.12 944.57 139.20 944.55 144.27 C 934.44 144.28 924.33 144.26 914.23 144.28 C 914.21 150.16 914.22 156.04 914.22 161.92 C 927.07 161.94 939.93 161.91 952.79 161.94 C 952.80 167.27 952.80 172.60 952.80 177.93 C 933.52 177.94 914.24 177.94 894.96 177.93 C 894.94 150.97 894.95 124.01 894.95 97.05 Z" />
<path fill="#64c8ec" opacity="1.00" d=" M 503.68 205.05 C 504.97 205.05 506.27 205.06 507.57 205.06 C 507.57 229.88 507.59 254.70 507.56 279.52 C 506.26 279.51 504.96 279.51 503.68 279.50 C 503.67 254.69 503.66 229.87 503.68 205.05 Z" />
</g>
</svg>
