<?xml version="1.0" encoding="UTF-8" standalone="no"?><!DOCTYPE svg PUBLIC "-//W3C//DTD SVG 1.1//EN" "http://www.w3.org/Graphics/SVG/1.1/DTD/svg11.dtd"><svg width="100%" height="100%" viewBox="0 0 836 1181" version="1.1" xmlns="http://www.w3.org/2000/svg" xmlns:xlink="http://www.w3.org/1999/xlink" xml:space="preserve" xmlns:serif="http://www.serif.com/" style="fill-rule:evenodd;clip-rule:evenodd;stroke-linejoin:round;stroke-miterlimit:2;"><g id="_-c97c72ff" serif:id="#c97c72ff"><path d="M28.82,0l2.05,0c-0.37,9.01 -0.17,18.04 -0.07,27.06c9.25,-8.87 18.1,-18.16 27.32,-27.06l2.34,0c0.1,9.52 0,19.05 0.07,28.57c9.32,0.04 18.65,0.05 27.97,-0.01c0.09,-9.52 0.02,-19.04 0.06,-28.56l1.54,0c0.45,9.04 -0.04,18.09 0.27,27.13c9.27,-8.93 18.08,-18.33 27.47,-27.13l2.37,0c0.08,9.53 -0.02,19.06 0.06,28.58c9.29,0.04 18.59,-0.02 27.88,0.06c0.3,-9.55 0.1,-19.09 0.13,-28.64l2.38,0c9.18,8.85 18.02,18.04 27.12,26.98c0.04,-9 0.01,-17.99 0.03,-26.98l2.26,0c0.02,9.53 -0.06,19.06 0.07,28.59c9.22,0.01 18.44,-0.01 27.65,0.01c0.06,-9.53 0.02,-19.07 0.04,-28.6l1.57,0c0.77,9.01 0.03,18.06 0.39,27.09c9.31,-8.83 18.08,-18.23 27.36,-27.09l2.21,0c0.31,9.04 -0.04,18.08 0.25,27.12c9.35,-8.82 18.11,-18.25 27.39,-27.12l2.25,0c0.24,9.53 0,19.06 0.14,28.59c9.34,0 18.69,0.03 28.04,-0.02c0.06,-9.52 -0.01,-19.05 0.04,-28.57l2.38,0c9.23,8.89 18.05,18.21 27.31,27.07c0.13,-9.02 0.02,-18.05 0.08,-27.07l1.9,0c0.06,9.54 -0.04,19.07 0.06,28.61c9.21,-0.02 18.42,-0.03 27.63,0c0.08,-9.54 0.04,-19.07 0.02,-28.61l2.67,0c9.2,8.87 18.1,18.05 27.2,27.03c0.07,-9.01 0.01,-18.02 0.03,-27.03l1.83,0c0.51,9.53 -0.07,19.07 0.31,28.61c9.27,-0.04 18.55,0 27.82,-0.03c0.08,-9.52 0.01,-19.05 0.05,-28.58l1.56,0c0.65,19.46 0,38.95 0.33,58.42c19.28,0.05 38.57,0.01 57.85,0.02c0.26,-19.48 0.02,-38.96 0.12,-58.44l1.52,0c0.5,18.99 0.01,38 0.24,56.99c19.05,-19.02 37.95,-38.2 57.23,-56.99l2.49,0c0.1,19.48 -0.06,38.95 0.08,58.43c19.15,0.04 38.29,-0.01 57.44,0.02c0.16,-19.48 0.02,-38.97 0.08,-58.45l2.61,0c18.98,19.15 38.12,38.15 57.21,57.19c0.13,-19.07 -0.01,-38.13 0.06,-57.19l1.64,0c0.55,19.47 -0.02,38.96 0.29,58.44c19.2,-0.01 38.41,0.04 57.62,-0.03c0.11,-19.47 -0.03,-38.94 0.07,-58.41l2.38,0c19.15,18.85 38.11,37.91 57.07,56.96c0,-18.99 0,-37.97 0.01,-56.96l1.98,0c0.1,19.47 -0.05,38.93 0.08,58.4c19.76,0.29 39.54,-0.38 59.28,0.34l0,1.65c-51.67,-0.36 -103.35,-0.04 -155.03,-0.15l-545,0c-4.26,0.05 -8.56,-0.28 -12.79,0.3c-4.39,0.7 -7.73,3.91 -10.71,6.95c-14.24,14.42 -28.64,28.68 -42.98,42.99c-3.14,3.13 -6.72,6.23 -8.05,10.62c-1.46,4.82 -0.83,9.92 -0.94,14.87c0,348.34 0.01,696.69 0,1045.03l-1.67,0c-0.45,-26.65 -0.06,-53.31 -0.19,-79.97c-0.01,-108.43 0.01,-216.86 -0.01,-325.29c-19.54,-0.16 -39.09,-0.04 -58.63,-0.06l0,-1.97c19.06,0.01 38.11,0.1 57.17,-0.05c-19.07,-19.03 -38.16,-38.05 -57.17,-57.13l0,-2.41c19.55,0.36 39.11,0.18 58.67,0.07c-0.08,-19.22 0.01,-38.44 -0.05,-57.66c-19.54,-0.08 -39.08,0 -58.62,-0.04l0,-1.64c19.05,-0.48 38.11,0 57.17,-0.22c-18.89,-19.26 -38.21,-38.1 -57.17,-57.29l0,-2.63c19.54,0.08 39.09,0.04 58.63,0.02c0.01,-19.15 0.02,-38.3 0,-57.45c-19.54,-0.11 -39.09,-0.01 -58.63,-0.05l0,-2.15c18.96,-19.19 38.19,-38.12 57.19,-57.28c-19.06,-0.26 -38.13,-0.05 -57.19,-0.11l0,-1.93c19.55,0.03 39.09,0.1 58.64,-0.03c0.01,-19.2 -0.02,-38.41 0.02,-57.62c-19.56,-0.13 -39.11,-0.02 -58.66,-0.06l0,-2.21c9.61,0 19.21,0.06 28.82,0.07c-0.01,-9.22 -0.01,-18.44 0,-27.65c-9.61,-0.07 -19.21,-0.03 -28.82,-0.04l0,-2.1c9.05,0.36 18.12,0.12 27.17,0.09c-8.87,-9.3 -18.29,-18.08 -27.17,-27.38l0,-2.4c9.59,0.1 19.18,0.02 28.78,0.06c0.07,-9.3 0.02,-18.59 0.03,-27.88c-9.6,-0.07 -19.21,-0.04 -28.81,-0.03l0,-1.86c9.15,0.06 18.31,0.12 27.46,-0.06c-9.04,-9.27 -18.35,-18.27 -27.46,-27.48l0,-2.31c9.61,0.04 19.21,0.02 28.82,0.01c-0.01,-9.27 -0.01,-18.54 0,-27.81c-9.61,-0.05 -19.21,-0.02 -28.82,-0.03l0,-2.58c9.17,-9 18.24,-18.1 27.33,-27.19c-9.11,-0.21 -18.22,-0.07 -27.33,-0.1l0,-2.59c9.37,-8.87 18.41,-18.11 27.5,-27.27c-9.16,-0.25 -18.33,-0.07 -27.5,-0.13l0,-1.47c9.58,-0.53 19.18,-0.08 28.76,-0.23c0.08,-9.31 0.08,-18.62 0,-27.93c-9.58,-0.02 -19.17,-0.02 -28.76,-0.01l0,-1.7c9.15,-0.47 18.32,0 27.48,-0.26c-9.02,-9.33 -18.49,-18.23 -27.48,-27.58l0,-2.29c9.61,0.05 19.21,0.03 28.82,0.01c-0.01,-9.2 0.01,-18.39 -0.02,-27.59c-9.6,-0.02 -19.2,-0.03 -28.8,0l0,-2.66c9.02,-9.21 18.24,-18.23 27.38,-27.32c-9.13,-0.17 -18.25,-0.05 -27.38,-0.09l0,-1.95c9.59,0.42 19.19,0.1 28.79,0.16c0.04,-9.3 0.03,-18.6 0,-27.9c-9.59,-0.05 -19.19,-0.03 -28.79,-0.02l0,-2.29c9.03,-9.29 18.37,-18.29 27.43,-27.56c-9.14,-0.26 -18.29,-0.07 -27.43,-0.13l0,-1.58c9.58,-0.46 19.19,-0.07 28.78,-0.21c0.06,-9.53 0.02,-19.05 0.04,-28.58m3.34,28.62c8.81,-0.08 17.63,0.02 26.44,-0.04c0.12,-8.81 -0.05,-17.61 0.08,-26.42c-8.86,8.8 -17.72,17.6 -26.52,26.46m59.75,-0.04c8.83,0.01 17.66,0.04 26.49,-0.01c0.06,-8.81 -0.02,-17.62 0.02,-26.43c-9,8.64 -17.81,17.49 -26.51,26.44m58.36,-26.37c-0.07,8.8 -0.07,17.6 0,26.39c8.67,-0.05 17.34,0.1 26.01,-0.09c-8.42,-9 -17.42,-17.45 -26.01,-26.3m60.97,26.43c8.8,-0.08 17.6,-0.02 26.41,-0.05c0.1,-8.79 0,-17.59 0.04,-26.38c-8.9,8.72 -17.67,17.58 -26.45,26.43m29.76,-0.01c8.84,-0.1 17.69,0.02 26.53,-0.07c0.08,-8.79 -0.01,-17.59 0.05,-26.39c-8.99,8.68 -17.65,17.71 -26.58,26.46m58.22,-26.62c0.04,8.87 -0.07,17.73 0.05,26.59c8.85,0.01 17.7,-0.06 26.55,0.04c-8.84,-8.9 -17.76,-17.73 -26.6,-26.63m417.87,0.06c-0.16,18.79 -0.11,37.59 -0.03,56.38c18.72,-0.08 37.44,0.11 56.16,-0.1c-18.53,-18.93 -37.48,-37.46 -56.13,-56.28m-357.88,0.26c-0.28,8.77 -0.49,17.54 -0.04,26.31c8.69,-0.12 17.38,0.05 26.07,-0.11c-8.45,-8.95 -17.37,-17.45 -26.03,-26.2m120.65,56.06c18.66,0.13 37.33,0 55.99,0.06c0.53,-18.69 -0.08,-37.4 0.21,-56.1c-18.94,18.47 -37.56,37.27 -56.2,56.04m117.86,-56.25c-0.14,18.75 -0.11,37.52 -0.02,56.27c18.79,0.02 37.57,0.11 56.35,-0.04c-18.66,-18.86 -37.43,-37.62 -56.33,-56.23m-566.99,29.75c-0.03,8.92 -0.19,17.85 0.13,26.77c9.25,-0.13 18.5,0.01 27.76,-0.09c0.03,-9.39 0.02,-18.77 0.01,-28.15c-8.21,-0.1 -16.43,-0.01 -24.64,-0.07c-1.17,0.2 -3.68,-0.57 -3.26,1.54m29.79,-1.49c0.01,8.86 -0.1,17.73 0.07,26.59c8.81,-8.87 17.62,-17.73 26.52,-26.5c-8.86,-0.24 -17.73,-0.09 -26.59,-0.09m29.79,-0.01c-0.05,9.41 -0.06,18.82 0.01,28.23c9.36,-0.02 18.72,0.01 28.08,-0.02c0.04,-9.39 0.01,-18.79 0.01,-28.19c-9.36,-0.07 -18.73,-0.03 -28.1,-0.02m29.93,0.01c0.03,9.42 -0.1,18.84 0.08,28.26c9.31,-0.44 18.63,-0.07 27.95,-0.28c0.09,-9.28 -0.03,-18.56 0.08,-27.83c-9.37,-0.36 -18.74,-0.12 -28.11,-0.15m30,-0.02c0.08,9.38 -0.21,18.77 0.15,28.14c9.15,-0.21 18.29,0.05 27.44,-0.15c-0.06,-9.33 -0.01,-18.65 -0.03,-27.98c-9.19,-0.03 -18.38,-0.02 -27.56,-0.01m31.01,0.03c4.24,4.2 8.36,8.52 12.7,12.61c4.16,-4.12 8.36,-8.22 12.36,-12.51c-8.35,-0.27 -16.71,-0.11 -25.06,-0.1m28.49,0c-0.02,8.85 -0.12,17.69 0.07,26.54c8.95,-8.65 17.67,-17.55 26.39,-26.43c-8.82,-0.29 -17.64,-0.11 -26.46,-0.11m29.76,-0.01c0.03,9.35 -0.09,18.69 0.08,28.04c9.3,0 18.6,0.03 27.9,-0.03c0.19,-9.32 0.03,-18.65 0.09,-27.98c-9.36,-0.1 -18.71,-0.06 -28.07,-0.03m29.87,-0.01c0.01,9.35 -0.12,18.71 0.07,28.06c9.32,-0.02 18.63,0.02 27.95,-0.03c0.12,-9.34 0.04,-18.68 0.05,-28.02c-9.36,-0.05 -18.72,-0.03 -28.07,-0.01m29.86,0c0.03,9.35 -0.15,18.71 0.11,28.07c9.29,-0.08 18.58,0.08 27.87,-0.09c-0.03,-9.34 0.15,-18.68 -0.13,-28.02c-9.29,0.06 -18.57,0 -27.85,0.04m31.45,0.06c8.48,9.03 17.46,17.59 26.15,26.42c0.08,-8.83 0.05,-17.66 0.03,-26.49c-8.73,0.03 -17.46,-0.09 -26.18,0.07m28.38,-0.09c-0.08,9.36 -0.3,18.72 0.13,28.08c9.18,-0.01 18.36,0.05 27.54,-0.05c0.03,-9.33 0.02,-18.67 0.01,-28.01c-9.23,-0.01 -18.45,0.01 -27.68,-0.02m30.97,0.04c8.98,8.82 17.82,17.78 26.73,26.66c-0.02,-8.89 0.01,-17.78 -0.02,-26.67c-8.9,-0.02 -17.81,-0.04 -26.71,0.01m-387.93,28.25c8.9,-0.08 17.8,-0.02 26.69,-0.03c0.03,-8.89 0.04,-17.78 -0.01,-26.67c-8.87,8.92 -17.8,17.78 -26.68,26.7m59.73,-0.06c8.9,0.05 17.8,0.03 26.7,0c0.02,-8.9 0.05,-17.8 -0.01,-26.7c-8.98,8.82 -17.92,17.69 -26.69,26.7m118.32,-26.6c-0.1,8.32 -0.15,16.63 0.02,24.95c3.75,-4.13 8.1,-7.71 11.67,-11.98l0.08,-0.8c-3.59,-4.35 -7.98,-7.98 -11.77,-12.17m15.15,12.48c4.09,4.26 8.37,8.33 12.5,12.55c0.04,-8.36 -0.01,-16.72 0.04,-25.07c-4.18,4.17 -8.38,8.32 -12.54,12.52m16.02,13.98c8.77,-0.04 17.54,0.02 26.31,-0.03c0.15,-8.82 -0.02,-17.64 0.1,-26.47c-8.89,8.75 -17.71,17.58 -26.41,26.5m117.85,-26.52c0.02,8.86 -0.16,17.72 0.13,26.57c8.74,-0.14 17.48,0.02 26.22,-0.09c-8.7,-8.91 -17.58,-17.64 -26.35,-26.48m59.66,0.02c-0.11,8.79 -0.06,17.58 -0.05,26.38c8.79,0.2 17.59,0.14 26.38,0.04c-8.63,-8.95 -17.52,-17.65 -26.33,-26.42m-207.14,26.44c8.17,0.07 16.34,0.08 24.52,0c-3.93,-4.31 -8.14,-8.34 -12.28,-12.43c-4.15,4.07 -8.39,8.07 -12.24,12.43m-150.87,1.92c-0.24,8.72 -0.17,17.45 -0.03,26.17c8.93,-8.5 17.54,-17.35 26.24,-26.09c-8.73,-0.11 -17.47,0 -26.21,-0.08m29.69,0.07c0.03,9.31 -0.11,18.62 0.09,27.92c9.28,0.01 18.55,-0.02 27.83,0c0.25,-9.3 0.06,-18.6 0.11,-27.9c-9.34,-0.1 -18.69,-0.09 -28.03,-0.02m29.8,-0.02c-0.05,8.88 -0.03,17.75 -0.01,26.62c5.61,-5.62 11.2,-11.26 16.82,-16.87c3.48,-3.39 6.66,-7.18 10.84,-9.76c-9.22,0.01 -18.44,-0.04 -27.65,0.01m-58.24,27.88c8.69,0 17.39,0.24 26.07,-0.06l0.38,-0.38c0.33,-8.66 -0.01,-17.36 0.1,-26.03c-8.95,8.72 -17.75,17.59 -26.55,26.47m-1.37,1.85c0.01,9.29 -0.02,18.58 0,27.87c9.32,0.06 18.65,0.38 27.96,-0.1c-0.05,-9.25 -0.02,-18.49 -0.01,-27.73c-9.32,-0.13 -18.64,-0.05 -27.95,-0.04m29.79,0c0.06,9.26 -0.07,18.52 0.08,27.78c1.37,-2.02 2.76,-4.03 4.49,-5.76c7.4,-7.32 14.7,-14.74 22.15,-22.01c-8.91,-0.06 -17.82,-0.05 -26.72,-0.01m-57.91,27.91c8.74,0.24 17.48,-0.12 26.22,0.06c0,-8.84 0.09,-17.68 -0.06,-26.51c-8.69,8.85 -17.85,17.24 -26.16,26.45m28.13,2.12c0,9.21 -0.08,18.41 0.04,27.62c9.3,-0.01 18.59,0.01 27.88,-0.03c0.01,-9.17 0.02,-18.35 -0.02,-27.53c-9.3,-0.14 -18.6,-0.04 -27.9,-0.06m-28.53,29.64c8.78,8.88 17.68,17.65 26.59,26.4c0.08,-8.82 0.05,-17.64 0.03,-26.45c-8.87,-0.02 -17.75,-0.11 -26.62,0.05m28.57,-0.07c-0.15,9.27 0.02,18.55 -0.09,27.82c9.32,0.3 18.65,0.08 27.97,0.11c0.02,-9.27 -0.01,-18.55 0.03,-27.82c-9.3,-0.26 -18.61,-0.06 -27.91,-0.11m1.96,29.9c3.48,4.67 7.82,8.66 12.16,12.53c4.03,-4.21 8.33,-8.16 12.25,-12.48c-8.14,-0.19 -16.27,-0.12 -24.41,-0.05m-1.94,1.31c-0.11,8.36 -0.15,16.72 0.03,25.08c4.2,-4 8.17,-8.22 12.4,-12.18c-3.69,-4.71 -8.23,-8.66 -12.43,-12.9m15.31,12.7c4.09,4.24 8.44,8.23 12.55,12.45c0.02,-8.35 -0.07,-16.7 0.06,-25.05c-4.16,4.25 -8.44,8.37 -12.61,12.6m-13.88,13.91c8.33,-0.09 16.65,0.05 24.98,-0.09c-3.87,-4.41 -8.24,-8.33 -12.32,-12.53c-4.37,4.05 -8.47,8.38 -12.66,12.62m-1.47,1.69c-0.02,8.79 -0.16,17.59 0.09,26.38c8.96,-8.58 17.75,-17.34 26.36,-26.26c-8.81,-0.27 -17.63,-0.09 -26.45,-0.12m-28.11,27.99c8.72,0.1 17.43,0.08 26.14,0.01c0.1,-8.78 0.05,-17.56 0.05,-26.34c-8.69,8.81 -17.67,17.34 -26.19,26.33m29.8,-0.01c8.74,0.06 17.49,0.21 26.22,-0.1c0,-8.74 -0.01,-17.48 0,-26.22c-8.75,8.76 -17.7,17.33 -26.22,26.32m-1.7,2c-0.02,9.33 -0.07,18.67 0.02,28.01c9.29,-0.01 18.6,0.19 27.89,-0.12c-0.01,-9.29 0.02,-18.57 0,-27.86c-9.3,-0.1 -18.61,-0.06 -27.91,-0.03m-28.43,28c8.82,0.07 17.65,0.06 26.48,0.02c0.07,-8.85 0.08,-17.69 0,-26.53c-8.87,8.8 -17.78,17.56 -26.48,26.51m28.41,1.87c-0.01,9.28 -0.03,18.56 0.01,27.84c9.31,-0.01 18.63,0.04 27.94,-0.04c-0.03,-9.25 -0.02,-18.5 0.01,-27.76c-9.32,-0.1 -18.64,-0.04 -27.96,-0.04m-28.3,29.82c8.82,8.73 17.56,17.53 26.39,26.24c0.05,-8.76 0.01,-17.53 0.02,-26.3c-8.8,-0.03 -17.61,-0.08 -26.41,0.06m28.31,-0.03c-0.01,9.3 -0.05,18.61 0.03,27.92c9.3,-0.01 18.6,0.03 27.9,-0.02c0,-9.27 -0.03,-18.54 0.02,-27.81c-9.31,-0.28 -18.63,-0.13 -27.95,-0.09m1.48,29.72c8.72,8.91 17.72,17.55 26.46,26.45c-0.04,-8.8 0.02,-17.6 -0.04,-26.4c-8.81,-0.07 -17.61,-0.04 -26.42,-0.05m-1.43,1.48c-0.14,8.78 -0.04,17.56 -0.06,26.34c8.81,0.18 17.62,0.1 26.42,0.04c-8.56,-9.01 -17.51,-17.65 -26.36,-26.38m-28.64,28.3c8.88,8.87 17.79,17.7 26.65,26.58c0.08,-8.85 0.04,-17.7 0.04,-26.55c-8.9,-0.05 -17.79,0.02 -26.69,-0.03m28.7,-0.01c-0.22,9.31 -0.19,18.63 0,27.94c9.21,0.05 18.42,-0.04 27.63,0.05c0.38,-9.3 0.12,-18.61 0.16,-27.91c-9.26,-0.12 -18.52,-0.01 -27.79,-0.08m1.21,29.93c8.9,8.82 17.75,17.69 26.63,26.53c-0.06,-8.84 0,-17.68 -0.04,-26.52c-8.86,-0.09 -17.72,-0.06 -26.59,-0.01m-1.26,1.6c-0.15,8.66 -0.06,17.32 -0.05,25.98c8.75,0.04 17.5,-0.01 26.26,0.02c-8.76,-8.65 -17.35,-17.47 -26.21,-26m27.93,89.24c-18.69,18.75 -37.51,37.36 -56.13,56.18c18.66,0.1 37.31,-0.04 55.96,0.07c0.29,-18.75 -0.04,-37.5 0.17,-56.25m-56.31,117.79c3.58,3.95 7.47,7.61 11.19,11.43c15.12,14.83 29.89,30 45.03,44.81c0.06,-18.75 0.01,-37.49 0.03,-56.24c-18.75,-0.2 -37.5,-0.2 -56.25,0m-0.4,119.17c18.97,18.66 37.52,37.75 56.61,56.3c0.1,-18.76 -0.01,-37.52 0.05,-56.28c-18.89,-0.11 -37.77,-0.06 -56.66,-0.02Z" style="fill:#ff3c28;fill-rule:nonzero;"/></g></svg>