<?xml version="1.0" encoding="UTF-8" standalone="no"?>
<!DOCTYPE svg PUBLIC "-//W3C//DTD SVG 1.1//EN" "http://www.w3.org/Graphics/SVG/1.1/DTD/svg11.dtd">
<svg width="100%" height="100%" viewBox="0 0 1687 284" version="1.1" xmlns="http://www.w3.org/2000/svg" xmlns:xlink="http://www.w3.org/1999/xlink" xml:space="preserve" xmlns:serif="http://www.serif.com/" style="fill-rule:evenodd;clip-rule:evenodd;stroke-linejoin:round;stroke-miterlimit:2;">
    <g transform="matrix(1,0,0,1,-284.67,-283.46)">
        <g>
            <path d="M871.85,404.95L649.13,404.95L649.13,347.1L672.27,323.96L851.6,323.96L851.6,283.46L698.01,283.46C695.33,283.46 692.7,283.99 690.26,285C687.82,286.01 685.59,287.49 683.69,289.39L614.56,358.52C612.66,360.42 611.18,362.66 610.17,365.09C609.16,367.52 608.63,370.15 608.63,372.84L608.63,425.2C608.63,430.79 610.9,435.85 614.56,439.52C618.22,443.18 623.29,445.45 628.88,445.45L851.6,445.45L851.6,503.3L828.46,526.44L608.63,526.44L608.63,566.93L802.72,566.93C805.4,566.93 808.03,566.4 810.47,565.39C812.9,564.38 815.14,562.9 817.04,561L886.17,491.87C888.07,489.97 889.55,487.73 890.56,485.3C891.57,482.87 892.1,480.24 892.1,477.55L892.1,425.2C892.1,419.61 889.83,414.55 886.17,410.88C882.51,407.21 877.44,404.95 871.85,404.95Z" style="fill:rgb(255,60,40);fill-rule:nonzero;"/>
            <path d="M487.15,526.43L487.15,372.84C487.15,370.16 486.62,367.53 485.61,365.09C484.6,362.65 483.12,360.42 481.22,358.52L412.09,289.39C410.19,287.49 407.95,286.01 405.52,285C403.09,283.99 400.46,283.46 397.77,283.46L284.67,283.46L284.67,323.96L423.51,323.96L446.65,347.1L446.65,526.43L284.67,526.43L284.67,566.92L568.13,566.92L568.13,526.43L487.15,526.43Z" style="fill:rgb(255,60,40);fill-rule:nonzero;"/>
            <path d="M1320.18,526.43L1297.04,503.29L1297.04,283.46L1256.55,283.46L1256.55,477.55C1256.55,480.23 1257.08,482.86 1258.09,485.3C1259.1,487.73 1260.58,489.97 1262.48,491.87L1331.61,561C1333.51,562.9 1335.75,564.38 1338.18,565.39C1340.61,566.4 1343.24,566.93 1345.93,566.93L1540.02,566.93L1540.02,526.44L1320.18,526.44L1320.18,526.43Z" style="fill:rgb(255,60,40);fill-rule:nonzero;"/>
            <path d="M1149.35,378.74L1120.72,350.11L973.09,497.74L973.09,283.46L932.6,283.46L932.6,477.55C932.6,480.23 933.13,482.86 934.14,485.3C935.15,487.74 936.63,489.97 938.53,491.87L1007.66,561C1009.56,562.9 1011.8,564.38 1014.23,565.39C1016.66,566.4 1019.29,566.93 1021.98,566.93L1216.07,566.93L1216.07,526.44L1001.67,526.44L1149.35,378.74Z" style="fill:rgb(255,60,40);fill-rule:nonzero;"/>
        </g>
        <g>
            <path d="M1621,283.46L1626.77,283.46L1626.77,289.23L1621,289.23L1621,283.46ZM1621.38,293.08L1626.38,293.08L1626.38,325.14L1621.38,325.14L1621.38,293.08Z" style="fill:rgb(255,60,40);fill-rule:nonzero;"/>
            <path d="M1636.12,293.08L1640.11,293.08L1640.11,295.97L1641.2,295.97L1644.53,293.08L1659.28,293.08L1665.88,299.68L1665.88,325.13L1660.94,325.13L1661,301.67L1657.09,297.69L1645.93,297.69L1641.06,301.79L1641.12,325.13L1636.12,325.13L1636.12,293.08Z" style="fill:rgb(255,60,40);fill-rule:nonzero;"/>
            <path d="M1674.73,320.59L1695.5,320.59L1698.19,317.83L1698.19,313.86L1695.5,311.1L1679.86,311.1L1674.41,305.84L1674.41,298.47L1679.8,293.08L1701.41,293.08L1701.54,297.7L1682.11,297.7L1679.35,300.33L1679.35,303.86L1682.04,306.55L1697.75,306.55L1703.07,311.94L1703.13,319.76L1697.81,325.15L1674.86,325.15L1674.73,320.59Z" style="fill:rgb(255,60,40);fill-rule:nonzero;"/>
            <path d="M1713.9,321.29L1713.9,297.63L1707.49,297.63L1707.43,293.08L1713.84,293.08L1713.84,284.75L1718.84,284.75L1718.84,293.08L1730.7,293.08L1730.64,297.63L1718.78,297.63L1718.78,319.3L1720,320.52L1730.96,320.52L1730.96,325.14L1717.75,325.14L1713.9,321.29Z" style="fill:rgb(255,60,40);fill-rule:nonzero;"/>
            <path d="M1737.17,283.46L1742.94,283.46L1742.94,289.23L1737.17,289.23L1737.17,283.46ZM1737.55,293.08L1742.55,293.08L1742.55,325.14L1737.55,325.14L1737.55,293.08Z" style="fill:rgb(255,60,40);fill-rule:nonzero;"/>
            <path d="M1754.93,321.29L1754.93,297.63L1748.52,297.63L1748.46,293.08L1754.87,293.08L1754.87,284.75L1759.87,284.75L1759.87,293.08L1771.73,293.08L1771.67,297.63L1759.81,297.63L1759.81,319.3L1761.03,320.52L1771.99,320.52L1771.99,325.14L1758.78,325.14L1754.93,321.29Z" style="fill:rgb(255,60,40);fill-rule:nonzero;"/>
            <path d="M1778.33,318.47L1778.33,293.08L1783.2,293.08L1783.2,316.61L1787.18,320.52L1797.25,320.52L1801.99,316.42L1801.99,293.08L1806.99,293.08L1806.99,325.14L1803.01,325.14L1802.95,322.25L1801.99,322.25L1798.59,325.14L1784.93,325.14L1778.33,318.47Z" style="fill:rgb(255,60,40);fill-rule:nonzero;"/>
            <path d="M1819.36,321.29L1819.36,297.63L1812.95,297.63L1812.89,293.08L1819.3,293.08L1819.3,284.75L1824.3,284.75L1824.3,293.08L1836.16,293.08L1836.1,297.63L1824.24,297.63L1824.24,319.3L1825.46,320.52L1836.42,320.52L1836.42,325.14L1823.21,325.14L1819.36,321.29Z" style="fill:rgb(255,60,40);fill-rule:nonzero;"/>
            <path d="M1842.44,317.96L1842.44,300.33L1849.56,293.09L1866.93,293.09L1874.17,300.27L1874.17,317.96L1866.93,325.14L1849.56,325.14L1842.44,317.96ZM1864.75,320.52L1869.24,316.03L1869.24,302.18L1864.75,297.69L1851.8,297.69L1847.31,302.11L1847.31,316.02L1851.86,320.51L1864.75,320.51L1864.75,320.52Z" style="fill:rgb(255,60,40);fill-rule:nonzero;"/>
            <path d="M1620.74,401.18L1641.51,401.18L1644.2,398.42L1644.2,394.45L1641.51,391.69L1625.87,391.69L1620.42,386.43L1620.42,379.06L1625.81,373.67L1647.42,373.67L1647.55,378.29L1628.12,378.29L1625.36,380.92L1625.36,384.45L1628.05,387.14L1643.76,387.14L1649.08,392.53L1649.14,400.35L1643.82,405.74L1620.87,405.74L1620.74,401.18Z" style="fill:rgb(255,60,40);fill-rule:nonzero;"/>
            <path d="M1657.03,399.07L1657.03,373.68L1661.9,373.68L1661.9,397.21L1665.88,401.12L1675.95,401.12L1680.69,397.02L1680.69,373.68L1685.69,373.68L1685.69,405.74L1681.71,405.74L1681.65,402.85L1680.69,402.85L1677.29,405.74L1663.63,405.74L1657.03,399.07Z" style="fill:rgb(255,60,40);fill-rule:nonzero;"/>
            <path d="M1695.43,373.68L1699.41,373.68L1699.47,377.08L1700.56,377.08L1704.6,373.68L1718.7,373.68L1725.82,380.86L1725.82,398.55L1718.7,405.73L1700.43,405.73L1700.43,418.55L1695.43,418.55L1695.43,373.68ZM1716.4,401.12L1720.89,396.63L1720.89,382.78L1716.4,378.29L1705.95,378.29L1700.37,382.97L1700.37,401.11L1716.4,401.11L1716.4,401.12Z" style="fill:rgb(255,60,40);fill-rule:nonzero;"/>
            <path d="M1734.35,398.55L1734.35,380.92L1741.47,373.68L1758.14,373.68L1765.32,380.86L1765.32,392.4L1739.23,392.4L1739.23,396.63L1743.72,401.12L1762.95,401.12L1762.95,405.74L1741.47,405.74L1734.35,398.55ZM1760.44,387.78L1760.38,382.78L1755.89,378.29L1743.71,378.29L1739.22,382.78L1739.28,387.78L1760.44,387.78Z" style="fill:rgb(255,60,40);fill-rule:nonzero;"/>
            <path d="M1773.71,373.68L1777.69,373.68L1777.75,376.5L1778.78,376.5L1781.99,373.68L1795.07,373.68L1795.07,378.3L1783.47,378.3L1778.66,382.28L1778.72,405.74L1773.72,405.74L1773.72,373.68L1773.71,373.68Z" style="fill:rgb(255,60,40);fill-rule:nonzero;"/>
            <path d="M1799.17,364.06L1804.94,364.06L1804.94,369.83L1799.17,369.83L1799.17,364.06ZM1799.55,373.68L1804.55,373.68L1804.55,405.74L1799.55,405.74L1799.55,373.68Z" style="fill:rgb(255,60,40);fill-rule:nonzero;"/>
            <path d="M1813.72,398.55L1813.72,380.92L1820.84,373.68L1838.21,373.68L1845.45,380.86L1845.45,398.55L1838.21,405.73L1820.84,405.73L1813.72,398.55ZM1836.03,401.12L1840.52,396.63L1840.52,382.78L1836.03,378.29L1823.08,378.29L1818.59,382.71L1818.59,396.62L1823.14,401.11L1836.03,401.11L1836.03,401.12Z" style="fill:rgb(255,60,40);fill-rule:nonzero;"/>
            <path d="M1854.62,373.68L1858.6,373.68L1858.66,376.5L1859.69,376.5L1862.9,373.68L1875.98,373.68L1875.98,378.3L1864.38,378.3L1859.57,382.28L1859.63,405.74L1854.63,405.74L1854.63,373.68L1854.62,373.68Z" style="fill:rgb(255,60,40);fill-rule:nonzero;"/>
            <path d="M1900.4,398.55L1900.4,380.92L1907.52,373.68L1925.79,373.68L1925.79,360.86L1930.73,360.86L1930.73,405.74L1926.76,405.74L1926.76,402.28L1925.67,402.28L1921.63,405.74L1907.53,405.74L1900.4,398.55ZM1920.27,401.12L1925.78,396.44L1925.78,378.3L1909.75,378.3L1905.26,382.72L1905.26,396.63L1909.81,401.12L1920.27,401.12Z" style="fill:rgb(255,60,40);fill-rule:nonzero;"/>
            <path d="M1940.28,398.55L1940.28,380.92L1947.4,373.68L1964.07,373.68L1971.25,380.86L1971.25,392.4L1945.16,392.4L1945.16,396.63L1949.65,401.12L1968.88,401.12L1968.88,405.74L1947.4,405.74L1940.28,398.55ZM1966.37,387.78L1966.31,382.78L1961.82,378.29L1949.64,378.29L1945.15,382.78L1945.21,387.78L1966.37,387.78Z" style="fill:rgb(255,60,40);fill-rule:nonzero;"/>
            <path d="M1620.81,479.15L1620.81,461.52L1627.93,454.28L1644.6,454.28L1651.78,461.46L1651.78,473L1625.69,473L1625.69,477.23L1630.18,481.72L1649.41,481.72L1649.41,486.34L1627.93,486.34L1620.81,479.15ZM1646.9,468.38L1646.84,463.38L1642.35,458.89L1630.17,458.89L1625.68,463.38L1625.74,468.38L1646.9,468.38Z" style="fill:rgb(255,60,40);fill-rule:nonzero;"/>
            <path d="M1660.16,454.28L1664.15,454.28L1664.15,457.17L1665.24,457.17L1668.57,454.28L1683.32,454.28L1689.92,460.88L1689.92,486.33L1684.98,486.33L1685.04,462.87L1681.13,458.89L1669.97,458.89L1665.1,462.99L1665.16,486.33L1660.16,486.33L1660.16,454.28Z" style="fill:rgb(255,60,40);fill-rule:nonzero;"/>
            <path d="M1701.2,494.6L1721.78,494.6L1724.22,492.1L1724.22,483.7L1723.26,483.7L1720.12,486.33L1705.95,486.33L1698.83,479.15L1698.83,461.52L1705.95,454.28L1729.16,454.28L1729.16,493.97L1723.97,499.16L1701.15,499.16L1701.2,494.6ZM1718.71,481.72L1724.29,477.04L1724.23,458.9L1708.2,458.9L1703.71,463.32L1703.71,477.23L1708.26,481.72L1718.71,481.72Z" style="fill:rgb(255,60,40);fill-rule:nonzero;"/>
            <path d="M1738.39,479.15L1738.39,461.52L1745.51,454.28L1762.18,454.28L1769.36,461.46L1769.36,473L1743.27,473L1743.27,477.23L1747.76,481.72L1766.99,481.72L1766.99,486.34L1745.51,486.34L1738.39,479.15ZM1764.48,468.38L1764.42,463.38L1759.93,458.89L1747.75,458.89L1743.26,463.38L1743.32,468.38L1764.48,468.38Z" style="fill:rgb(255,60,40);fill-rule:nonzero;"/>
            <path d="M1777.74,454.28L1781.73,454.28L1781.73,457.17L1782.82,457.17L1786.15,454.28L1800.9,454.28L1807.5,460.88L1807.5,486.33L1802.56,486.33L1802.62,462.87L1798.71,458.89L1787.55,458.89L1782.68,462.99L1782.74,486.33L1777.74,486.33L1777.74,454.28Z" style="fill:rgb(255,60,40);fill-rule:nonzero;"/>
            <path d="M1817.36,441.45L1822.24,441.45L1822.24,456.71L1823.33,456.71L1826.15,454.27L1840.45,454.27L1847.05,460.87L1847.05,486.32L1842.11,486.32L1842.17,462.86L1838.13,458.88L1827.49,458.88L1822.23,463.3L1822.23,486.32L1817.36,486.32L1817.36,441.45Z" style="fill:rgb(255,60,40);fill-rule:nonzero;"/>
            <path d="M1855.01,480.95L1854.95,472.36L1860.91,466.46L1879.63,466.46L1879.69,462.42L1876.23,458.83L1859.05,458.83L1859.05,454.28L1878.35,454.28L1884.57,460.5L1884.57,486.34L1880.66,486.34L1880.66,483L1879.63,483L1875.59,486.33L1860.33,486.33L1855.01,480.95ZM1874.11,481.78L1879.62,477.1L1879.62,471.07L1863.08,471.07L1859.87,474.21L1859.93,479.02L1862.56,481.78L1874.11,481.78Z" style="fill:rgb(255,60,40);fill-rule:nonzero;"/>
            <path d="M1894.05,454.28L1898.03,454.28L1898.09,457.1L1899.12,457.1L1902.33,454.28L1915.41,454.28L1915.41,458.9L1903.81,458.9L1899,462.88L1899.06,486.34L1894.06,486.34L1894.06,454.28L1894.05,454.28Z" style="fill:rgb(255,60,40);fill-rule:nonzero;"/>
            <path d="M1919.5,444.66L1925.27,444.66L1925.27,450.43L1919.5,450.43L1919.5,444.66ZM1919.89,454.28L1924.89,454.28L1924.89,486.34L1919.89,486.34L1919.89,454.28Z" style="fill:rgb(255,60,40);fill-rule:nonzero;"/>
            <path d="M1933.1,480.95L1933.04,472.36L1939,466.46L1957.72,466.46L1957.78,462.42L1954.32,458.83L1937.14,458.83L1937.14,454.28L1956.44,454.28L1962.66,460.5L1962.66,486.34L1958.75,486.34L1958.75,483L1957.72,483L1953.68,486.33L1938.42,486.33L1933.1,480.95ZM1952.2,481.78L1957.71,477.1L1957.71,471.07L1941.17,471.07L1937.96,474.21L1938.02,479.02L1940.65,481.78L1952.2,481.78Z" style="fill:rgb(255,60,40);fill-rule:nonzero;"/>
            <path d="M1620.81,559.75L1620.81,542.12L1627.93,534.88L1646.2,534.88L1646.2,522.06L1651.14,522.06L1651.14,566.94L1647.17,566.94L1647.17,563.48L1646.08,563.48L1642.04,566.94L1627.94,566.94L1620.81,559.75ZM1640.68,562.31L1646.19,557.63L1646.19,539.49L1630.16,539.49L1625.67,543.91L1625.67,557.82L1630.22,562.31L1640.68,562.31Z" style="fill:rgb(255,60,40);fill-rule:nonzero;"/>
            <path d="M1660.69,559.75L1660.69,542.12L1667.81,534.88L1684.48,534.88L1691.66,542.06L1691.66,553.6L1665.57,553.6L1665.57,557.83L1670.06,562.32L1689.29,562.32L1689.29,566.94L1667.81,566.94L1660.69,559.75ZM1686.78,548.98L1686.72,543.98L1682.23,539.49L1670.05,539.49L1665.56,543.98L1665.62,548.98L1686.78,548.98Z" style="fill:rgb(255,60,40);fill-rule:nonzero;"/>
            <path d="M1722.87,526.67L1716.72,526.67L1716.59,522.05L1727.75,522.05L1727.75,566.93L1722.81,566.93L1722.87,526.67Z" style="fill:rgb(255,60,40);fill-rule:nonzero;"/>
            <path d="M1737.49,525.26L1743.26,525.26L1743.26,531.03L1737.49,531.03L1737.49,525.26ZM1737.88,534.87L1742.88,534.87L1742.88,566.93L1737.88,566.93L1737.88,534.87Z" style="fill:rgb(255,60,40);fill-rule:nonzero;"/>
            <path d="M1751.98,562.38L1772.75,562.38L1775.44,559.62L1775.44,555.65L1772.75,552.89L1757.11,552.89L1751.66,547.63L1751.66,540.26L1757.05,534.87L1778.66,534.87L1778.79,539.49L1759.36,539.49L1756.6,542.12L1756.6,545.65L1759.29,548.34L1775,548.34L1780.32,553.73L1780.38,561.55L1775.06,566.94L1752.11,566.94L1751.98,562.38Z" style="fill:rgb(255,60,40);fill-rule:nonzero;"/>
            <path d="M1788.91,522.05L1793.78,522.05L1793.78,537.57L1794.87,537.57L1797.95,534.88L1812.06,534.88L1819.24,542.06L1819.18,559.75L1812.06,566.93L1788.92,566.93L1788.92,522.05L1788.91,522.05ZM1809.81,562.31L1814.36,557.82L1814.3,543.97L1809.81,539.48L1799.36,539.48L1793.78,544.16L1793.84,562.3L1809.81,562.3L1809.81,562.31Z" style="fill:rgb(255,60,40);fill-rule:nonzero;"/>
            <path d="M1827.82,559.75L1827.82,542.12L1834.94,534.88L1852.31,534.88L1859.55,542.06L1859.55,559.75L1852.31,566.93L1834.94,566.93L1827.82,559.75ZM1850.14,562.31L1854.63,557.82L1854.63,543.97L1850.14,539.48L1837.19,539.48L1832.7,543.9L1832.7,557.81L1837.25,562.3L1850.14,562.3L1850.14,562.31Z" style="fill:rgb(255,60,40);fill-rule:nonzero;"/>
            <path d="M1867.19,561.54L1867.13,552.95L1873.09,547.05L1891.81,547.05L1891.87,543.01L1888.41,539.42L1871.23,539.42L1871.23,534.87L1890.53,534.87L1896.75,541.09L1896.75,566.93L1892.84,566.93L1892.84,563.6L1891.81,563.6L1887.77,566.93L1872.51,566.93L1867.19,561.54ZM1886.29,562.38L1891.8,557.7L1891.8,551.67L1875.26,551.67L1872.05,554.81L1872.11,559.62L1874.74,562.38L1886.29,562.38Z" style="fill:rgb(255,60,40);fill-rule:nonzero;"/>
        </g>
    </g>
</svg>
