<svg xmlns="http://www.w3.org/2000/svg" xmlns:xlink="http://www.w3.org/1999/xlink" width="793.707" height="1122.52" viewBox="0 0 595.28 841.89"><defs><symbol overflow="visible" id="v"><path d="M8.813-.672a.796.796 0 01-.063.313.821.821 0 01-.156.218.67.67 0 01-.235.125c-.086.02-.171.032-.265.032h-.828c-.168 0-.313-.016-.438-.047a.986.986 0 01-.344-.188 1.654 1.654 0 01-.296-.36 9.328 9.328 0 01-.329-.609L3.516-5.593a12.144 12.144 0 01-.438-.843 15.03 15.03 0 01-.36-.891h-.015c.02.344.031.695.031 1.047.008.343.016.703.016 1.078v4.937a.2.2 0 01-.047.125.27.27 0 01-.125.11 1.174 1.174 0 01-.265.047 2.69 2.69 0 01-.438.03c-.168 0-.309-.01-.422-.03a1.366 1.366 0 01-.266-.047c-.062-.032-.105-.067-.125-.11a.238.238 0 01-.03-.125V-8.75c0-.227.062-.398.187-.516a.747.747 0 01.5-.171H2.75c.188 0 .344.015.469.046a.913.913 0 01.328.157c.101.074.195.18.281.312.094.125.188.281.281.469L5.938-5a32.563 32.563 0 01.625 1.219l.28.594c.095.199.188.39.282.578a73.758 73.758 0 01-.047-2.11v-4.437c0-.04.016-.082.047-.125a.42.42 0 01.14-.11c.07-.03.16-.05.266-.062a6.198 6.198 0 01.86 0 .659.659 0 01.25.062.3.3 0 01.125.11.217.217 0 01.046.125zm0 0"/></symbol><symbol overflow="visible" id="w"><path d="M8.734-3.516c0 .586-.09 1.106-.265 1.563-.168.45-.418.836-.75 1.156-.324.313-.73.555-1.219.719a5.26 5.26 0 01-1.672.25 5.55 5.55 0 01-1.61-.219 3.289 3.289 0 01-1.202-.687 2.997 2.997 0 01-.75-1.125c-.168-.446-.25-.973-.25-1.579v-5.734c0-.05.015-.094.046-.125a.314.314 0 01.157-.094 1 1 0 01.297-.062c.125-.02.28-.031.468-.031s.336.011.454.03c.124.013.222.032.296.063.07.024.125.055.157.094a.171.171 0 01.046.125v5.563c0 .375.047.703.141.984.094.273.223.5.39.688.177.18.384.312.626.406.238.086.508.125.812.125.301 0 .567-.047.797-.14.238-.095.442-.227.61-.407a1.75 1.75 0 00.375-.656 2.62 2.62 0 00.14-.891v-5.672c0-.05.016-.094.047-.125a.314.314 0 01.156-.094 1 1 0 01.297-.062 3.03 3.03 0 01.469-.031c.176 0 .32.011.437.03.125.013.223.032.297.063.07.024.125.055.156.094a.171.171 0 01.047.125zm0 0"/></symbol><symbol overflow="visible" id="x"><path d="M8.031-.25A.311.311 0 018-.11a.36.36 0 01-.14.094c-.075.02-.184.036-.329.047a9.75 9.75 0 01-1.062 0 1.737 1.737 0 01-.282-.047.356.356 0 01-.156-.109.762.762 0 01-.062-.156l-.844-2.11a7.147 7.147 0 00-.313-.625 1.784 1.784 0 00-.328-.468 1.12 1.12 0 00-.406-.282 1.43 1.43 0 00-.531-.093h-.594v3.593a.218.218 0 01-.047.141.544.544 0 01-.156.094 1.526 1.526 0 01-.297.047c-.125.02-.281.03-.469.03a3.04 3.04 0 01-.468-.03 1.476 1.476 0 01-.297-.047.493.493 0 01-.157-.094.268.268 0 01-.03-.14v-8.563c0-.219.05-.375.155-.469a.62.62 0 01.407-.14h2.453c.238 0 .437.007.594.015.164.012.316.024.453.031.375.055.71.149 1.015.282.313.136.57.308.782.515.207.211.367.461.484.75.113.293.172.625.172 1 0 .313-.043.602-.125.86a2.391 2.391 0 01-.36.703 2.59 2.59 0 01-.578.531 3.015 3.015 0 01-.765.36c.133.074.265.156.39.25.125.093.239.214.344.359.113.136.219.293.313.469.101.18.195.374.28.593l.798 1.86c.07.187.117.324.14.406a.633.633 0 01.047.203zM5.562-6.656c0-.313-.074-.57-.218-.782-.137-.218-.367-.367-.688-.453a3.861 3.861 0 00-.343-.046 3.171 3.171 0 00-.5-.032h-.86v2.672h.969c.27 0 .504-.031.703-.094a1.4 1.4 0 00.516-.265c.144-.125.25-.27.312-.438.07-.164.11-.351.11-.562zm0 0"/></symbol><symbol overflow="visible" id="y"><path d="M6.625-2.828c0 .492-.094.922-.281 1.297a2.767 2.767 0 01-.75.937c-.313.25-.684.446-1.11.578a4.84 4.84 0 01-1.359.188 4.13 4.13 0 01-.906-.094 5.83 5.83 0 01-.75-.187 2.729 2.729 0 01-.532-.235 1.573 1.573 0 01-.296-.219A.572.572 0 01.5-.828a2.225 2.225 0 01-.047-.516c0-.156.004-.281.016-.375a.95.95 0 01.047-.25c.02-.07.046-.117.078-.14a.218.218 0 01.14-.047c.07 0 .164.043.282.125a4.835 4.835 0 001.187.531c.27.086.582.125.938.125.226 0 .437-.023.625-.078.187-.063.343-.145.468-.25a.952.952 0 00.282-.375c.07-.156.109-.32.109-.5a.87.87 0 00-.172-.547A1.637 1.637 0 004-3.531a4.276 4.276 0 00-.64-.344c-.243-.102-.485-.21-.735-.328a8.973 8.973 0 01-.734-.406 2.7 2.7 0 01-.641-.532 2.448 2.448 0 01-.453-.734C.68-6.156.625-6.492.625-6.891c0-.445.082-.843.25-1.187.164-.344.39-.625.672-.844a3.08 3.08 0 011.016-.515 4.243 4.243 0 011.218-.172c.227 0 .453.023.672.062.227.031.438.078.625.14.195.055.367.118.516.188.156.074.254.137.297.188A.51.51 0 016-8.906c.02.031.035.078.047.14.008.055.016.121.016.204a3.618 3.618 0 01-.001.672 1.372 1.372 0 01-.046.234.262.262 0 01-.063.14.171.171 0 01-.125.047c-.055 0-.14-.031-.266-.093a4.14 4.14 0 00-.421-.22A3.455 3.455 0 004.547-8a2.396 2.396 0 00-.734-.11 1.75 1.75 0 00-.547.079c-.157.054-.29.125-.391.219a.77.77 0 00-.234.312 1.005 1.005 0 00-.079.406c0 .211.055.39.172.547.114.149.266.281.454.406.195.118.414.227.656.329.25.105.5.218.75.343.25.117.492.246.734.39.25.15.469.325.656.532.188.211.336.453.454.734.125.274.187.602.187.985zm0 0"/></symbol><symbol overflow="visible" id="z"><path d="M2.953-.266a.218.218 0 01-.047.141.544.544 0 01-.156.094 1.526 1.526 0 01-.297.047 2.94 2.94 0 01-.469.03 2.94 2.94 0 01-.453-.03 1.476 1.476 0 01-.297-.047.493.493 0 01-.156-.094.218.218 0 01-.047-.14v-8.907c0-.05.016-.094.047-.125a.314.314 0 01.156-.094 1 1 0 01.297-.062 2.94 2.94 0 01.453-.031c.196 0 .352.011.47.03.124.013.222.032.296.063.07.024.125.055.156.094a.171.171 0 01.047.125zm0 0"/></symbol><symbol overflow="visible" id="A"><path d="M8.594-7.969c0 .137-.008.258-.016.36a1.366 1.366 0 01-.047.25c-.023.062-.047.105-.078.125a.18.18 0 01-.11.03c-.073 0-.183-.038-.327-.124a3.047 3.047 0 00-.547-.281 5.817 5.817 0 00-.828-.282A4.12 4.12 0 005.5-8.03c-.45 0-.86.078-1.234.234a2.781 2.781 0 00-.954.672 3.13 3.13 0 00-.609 1.047A4.198 4.198 0 002.5-4.734c0 .543.07 1.023.219 1.437.144.406.344.75.594 1.031.257.274.57.48.937.625a3.39 3.39 0 001.203.204c.207 0 .414-.02.625-.063.207-.05.406-.129.594-.234v-2.188H4.875c-.086 0-.152-.05-.203-.156-.043-.113-.063-.3-.063-.563 0-.132.004-.25.016-.343a.706.706 0 01.047-.22.693.693 0 01.094-.124.148.148 0 01.109-.047h3.188a.4.4 0 01.203.047.491.491 0 01.156.125c.05.055.086.117.11.187a.687.687 0 01.046.266V-1a.942.942 0 01-.078.39c-.055.106-.156.188-.313.25a6.792 6.792 0 01-.593.204c-.23.062-.469.12-.719.172-.25.05-.508.086-.766.109-.25.02-.507.031-.765.031-.75 0-1.43-.105-2.032-.312a4.214 4.214 0 01-1.515-.938 4.214 4.214 0 01-.938-1.515c-.218-.594-.328-1.258-.328-2 0-.782.114-1.477.344-2.094a4.456 4.456 0 011-1.563 4.337 4.337 0 011.547-.984c.601-.227 1.281-.344 2.031-.344.406 0 .774.028 1.11.078.332.055.625.121.875.204.25.085.457.171.625.265.164.094.28.18.343.25.07.063.117.156.14.281.032.118.048.297.048.547zm0 0"/></symbol><symbol overflow="visible" id="B"><path d="M7.563-1.422c0 .117-.008.219-.016.313a1.325 1.325 0 01-.047.218 1.032 1.032 0 01-.047.157.488.488 0 01-.125.14 1.774 1.774 0 01-.312.219 3.66 3.66 0 01-.547.25 4.331 4.331 0 01-.766.203c-.281.05-.59.078-.922.078-.648 0-1.23-.101-1.75-.297a3.353 3.353 0 01-1.328-.89A4.12 4.12 0 01.86-2.516C.672-3.109.58-3.8.58-4.594c0-.8.1-1.515.312-2.14.218-.625.52-1.145.906-1.563a3.75 3.75 0 011.375-.969 4.695 4.695 0 011.781-.328c.258 0 .508.028.75.078.25.043.477.102.688.172.207.063.39.14.546.235.165.093.282.171.344.234.07.063.117.121.14.172a.384.384 0 01.063.172l.032.234a4.093 4.093 0 010 .719.73.73 0 01-.063.234.392.392 0 01-.078.14.171.171 0 01-.125.048c-.074 0-.168-.04-.281-.125a4.349 4.349 0 00-.422-.282 3.826 3.826 0 00-.64-.28 2.417 2.417 0 00-.876-.141c-.375 0-.71.078-1 .234a2.225 2.225 0 00-.75.656c-.21.282-.37.625-.484 1.032a5.387 5.387 0 00-.156 1.359c0 .562.054 1.047.171 1.453.114.406.274.742.485 1 .219.262.473.46.765.594.301.125.641.187 1.016.187.344 0 .64-.039.89-.125.25-.082.462-.172.641-.265.176-.094.32-.176.438-.25.113-.082.203-.125.266-.125a.21.21 0 01.109.03c.031.013.055.048.078.11.02.063.035.149.047.25a5.5 5.5 0 01.016.422zm0 0"/></symbol><symbol overflow="visible" id="C"><path d="M8.39-.266a.218.218 0 01-.046.141.544.544 0 01-.156.094 1.526 1.526 0 01-.297.047c-.118.02-.266.03-.454.03a3.04 3.04 0 01-.468-.03 1.476 1.476 0 01-.297-.047.545.545 0 01-.14-.094.218.218 0 01-.048-.14v-3.813h-3.53v3.812a.218.218 0 01-.048.141.544.544 0 01-.156.094 1.526 1.526 0 01-.297.047 2.94 2.94 0 01-.469.03 2.94 2.94 0 01-.453-.03 1.476 1.476 0 01-.297-.047.493.493 0 01-.156-.094.218.218 0 01-.047-.14v-8.907c0-.05.016-.094.047-.125a.314.314 0 01.156-.094 1 1 0 01.297-.062 2.94 2.94 0 01.453-.031c.196 0 .352.011.47.03.124.013.222.032.296.063.07.024.125.055.156.094a.171.171 0 01.047.125v3.453h3.531v-3.453c0-.05.016-.094.047-.125a.318.318 0 01.14-.094 1 1 0 01.298-.062c.125-.02.281-.031.468-.031.188 0 .336.011.454.03.125.013.222.032.296.063.07.024.126.055.157.094a.171.171 0 01.047.125zm0 0"/></symbol><symbol overflow="visible" id="D"><path d="M9.516-4.828c0 .781-.102 1.484-.297 2.11a4.07 4.07 0 01-.86 1.562c-.386.43-.867.758-1.437.984-.563.227-1.215.344-1.953.344-.742 0-1.387-.094-1.938-.281A3.33 3.33 0 011.671-1c-.366-.395-.64-.895-.827-1.5-.18-.602-.266-1.32-.266-2.156 0-.77.098-1.457.297-2.063a4.352 4.352 0 01.86-1.562 3.84 3.84 0 011.421-.985c.57-.226 1.235-.343 1.985-.343.718 0 1.347.101 1.89.296a3.29 3.29 0 011.375.876c.364.386.64.882.828 1.484.188.605.282 1.312.282 2.125zm-2.016.11c0-.5-.043-.954-.125-1.36a2.877 2.877 0 00-.39-1.047 1.888 1.888 0 00-.75-.672c-.305-.156-.688-.234-1.157-.234-.469 0-.867.09-1.187.265-.313.18-.57.418-.766.72a3.047 3.047 0 00-.406 1.03c-.086.399-.125.82-.125 1.266 0 .512.035.977.11 1.39.081.407.218.758.405 1.047.188.293.43.516.735.672.312.149.707.22 1.187.22.469 0 .86-.083 1.172-.25a2.04 2.04 0 00.766-.72c.195-.3.332-.648.406-1.046A6.45 6.45 0 007.5-4.72zm0 0"/></symbol><symbol overflow="visible" id="E"><path d="M6.219-.797c0 .149-.012.274-.032.375a1.372 1.372 0 01-.046.234.318.318 0 01-.094.141.171.171 0 01-.125.047H1.594a.62.62 0 01-.407-.14c-.105-.094-.156-.25-.156-.47v-8.562c0-.05.016-.094.047-.125a.314.314 0 01.156-.094 1 1 0 01.297-.062 2.94 2.94 0 01.453-.031c.196 0 .352.011.47.03.124.013.222.032.296.063.07.024.125.055.156.094a.171.171 0 01.047.125v7.594h2.969c.05 0 .094.016.125.047a.23.23 0 01.094.125c.02.062.035.148.046.25.02.093.032.215.032.36zm0 0"/></symbol><symbol overflow="visible" id="F"><path d="M6.328-8.656c0 .148-.012.273-.031.375a.75.75 0 01-.063.25.381.381 0 01-.078.125.18.18 0 01-.11.031H2.954v2.547h2.89c.052 0 .095.012.126.031a.277.277 0 01.078.125.73.73 0 01.062.234c.02.094.032.215.032.36 0 .148-.012.273-.032.375a.73.73 0 01-.062.234.392.392 0 01-.078.14.203.203 0 01-.125.032h-2.89V-.28a.218.218 0 01-.048.14.381.381 0 01-.156.11 1.526 1.526 0 01-.297.047 2.94 2.94 0 01-.469.03 2.94 2.94 0 01-.453-.03 1.476 1.476 0 01-.297-.047.356.356 0 01-.156-.11.218.218 0 01-.047-.14v-8.547c0-.219.051-.375.157-.469a.62.62 0 01.406-.14h4.453c.039 0 .078.015.11.046.03.024.054.063.077.125a.771.771 0 01.063.25c.02.094.031.215.031.36zm0 0"/></symbol><symbol overflow="visible" id="G"><path d="M7.484-6.578c0 .531-.086 1.008-.25 1.422-.156.406-.398.75-.718 1.031-.313.273-.7.48-1.157.625-.46.148-1 .219-1.625.219h-.78v3.015a.218.218 0 01-.048.141.544.544 0 01-.156.094 1.526 1.526 0 01-.297.047c-.125.02-.281.03-.469.03a3.04 3.04 0 01-.468-.03 1.476 1.476 0 01-.297-.047.493.493 0 01-.157-.094.268.268 0 01-.03-.14V-8.75c0-.227.054-.398.171-.516a.673.673 0 01.469-.171h2.234c.219 0 .426.011.625.03.207.012.453.048.735.11.28.055.566.156.859.313.29.148.535.336.734.562.207.23.364.5.47.813.1.312.155.656.155 1.03zm-2 .14c0-.32-.058-.593-.171-.812-.118-.219-.262-.375-.438-.469a1.335 1.335 0 00-.531-.187 3.535 3.535 0 00-.578-.047h-.813v3.203h.86c.3 0 .554-.04.765-.125a1.23 1.23 0 00.5-.344c.133-.156.234-.332.297-.531.07-.207.11-.438.11-.688zm0 0"/></symbol><symbol overflow="visible" id="H"><path d="M7.313-8.656c0 .148-.012.273-.032.375a1.372 1.372 0 01-.047.234.318.318 0 01-.093.14.18.18 0 01-.11.032H4.656v7.61a.218.218 0 01-.047.14.544.544 0 01-.156.094 1.526 1.526 0 01-.297.047 2.93 2.93 0 01-.453.03c-.187 0-.344-.01-.469-.03a1.476 1.476 0 01-.296-.047.493.493 0 01-.157-.094.218.218 0 01-.047-.14v-7.61H.375c-.055 0-.094-.008-.125-.031a.545.545 0 01-.094-.14.885.885 0 01-.047-.235 3.41 3.41 0 01-.015-.375c0-.145.004-.266.015-.36a.95.95 0 01.047-.25.344.344 0 01.094-.125.165.165 0 01.125-.046h6.656c.04 0 .078.015.11.046a.23.23 0 01.093.125c.02.063.036.149.047.25.02.094.032.215.032.36zm0 0"/></symbol><symbol overflow="visible" id="I"><path d="M9.453-6.984c.25-.11.281-.22.281-.297 0-.157-.109-.282-.265-.282-.031 0-.047.016-.25.11l-7.75 3.562c-.266.125-.297.22-.297.313 0 .094.016.172.297.312L9.219.297c.187.094.219.11.25.11.156 0 .265-.126.265-.282 0-.078-.03-.188-.28-.297L2.061-3.578zm0 0"/></symbol><symbol overflow="visible" id="Q"><path d="M9.453-3.266c.266-.14.281-.218.281-.312s-.03-.188-.28-.313L1.686-7.453c-.187-.094-.203-.11-.234-.11a.277.277 0 00-.281.266c0 .172.125.219.312.313l7.36 3.406L1.469-.172c-.297.125-.297.234-.297.313 0 .125.11.265.281.265.031 0 .031-.015.234-.11zm0 0"/></symbol><symbol overflow="visible" id="J"><path d="M8.516-4.86c0 .825-.106 1.544-.313 2.157-.21.605-.515 1.11-.922 1.515a3.706 3.706 0 01-1.468.891C5.226-.097 4.53 0 3.719 0h-2a.543.543 0 01-.328-.11c-.094-.07-.141-.206-.141-.406v-8.406c0-.195.047-.332.14-.406a.57.57 0 01.329-.11h2.14c.813 0 1.5.11 2.063.329.57.21 1.047.511 1.422.906.383.398.676.875.875 1.437.195.563.297 1.2.297 1.907zm-1.329.048A5.17 5.17 0 007-6.234a3.086 3.086 0 00-.594-1.141 2.795 2.795 0 00-1.031-.75c-.406-.176-.938-.266-1.594-.266H2.516v7.344h1.28c.602 0 1.11-.07 1.517-.219a2.64 2.64 0 001.046-.703c.282-.312.489-.703.625-1.172.133-.468.204-1.023.204-1.671zm0 0"/></symbol><symbol overflow="visible" id="K"><path d="M6.719-3.75c0 .188-.047.324-.14.406a.467.467 0 01-.329.125H1.953c0 .367.035.696.11.985.07.293.19.543.359.75.164.21.383.37.656.484.281.105.613.156 1 .156.313 0 .586-.02.828-.062.25-.051.461-.11.64-.172.177-.07.321-.129.438-.172a.728.728 0 01.266-.078c.031 0 .055.012.078.031a.1.1 0 01.063.063c.02.03.03.078.03.14.009.063.016.137.016.219a.888.888 0 01-.015.172.644.644 0 01-.016.125.179.179 0 01-.031.094.262.262 0 01-.063.093c-.03.024-.117.063-.25.125a3.267 3.267 0 01-.5.188 7.11 7.11 0 01-.734.14 4.736 4.736 0 01-.875.079c-.531 0-1-.075-1.406-.22A2.796 2.796 0 011.516-.75a2.938 2.938 0 01-.641-1.125C.738-2.32.672-2.844.672-3.438c0-.562.07-1.066.219-1.515.144-.445.351-.828.625-1.14.28-.321.613-.567 1-.735.394-.164.832-.25 1.312-.25.52 0 .957.086 1.313.25.363.168.66.39.89.672.239.281.41.61.516.984.113.375.172.777.172 1.203zM5.5-4.11c.02-.624-.121-1.117-.422-1.484-.293-.363-.726-.547-1.297-.547-.304 0-.57.059-.797.172a1.868 1.868 0 00-.562.453 1.93 1.93 0 00-.344.641c-.074.25-.117.508-.125.766zm0 0"/></symbol><symbol overflow="visible" id="L"><path d="M6.594-6.453c0 .18-.024.305-.063.375-.043.074-.101.11-.172.11h-.953c.176.179.297.374.36.593.07.21.109.43.109.656 0 .375-.063.711-.188 1a2.149 2.149 0 01-.53.75c-.22.2-.485.352-.798.453a3.209 3.209 0 01-1.03.157c-.274 0-.528-.032-.767-.094A1.456 1.456 0 012-2.734a1.603 1.603 0 00-.219.312.805.805 0 00-.078.375c0 .18.078.324.234.438.165.105.38.164.641.171l1.703.079c.332.011.633.058.907.14.269.074.503.188.703.344A1.553 1.553 0 016.53.422c0 .3-.062.586-.187.86-.125.269-.32.507-.578.718-.262.207-.594.367-1 .484a5.39 5.39 0 01-1.438.172c-.531 0-.984-.047-1.36-.14-.366-.086-.667-.204-.905-.36a1.355 1.355 0 01-.516-.562A1.549 1.549 0 01.39.89C.39.734.406.578.437.42.477.274.54.134.625 0a2.41 2.41 0 01.297-.39c.113-.126.25-.25.406-.376a1.203 1.203 0 01-.516-.453 1.092 1.092 0 01-.171-.593c0-.301.054-.567.171-.797a2.54 2.54 0 01.454-.625 2.66 2.66 0 01-.36-.61C.82-4.07.781-4.348.781-4.672c0-.375.063-.707.188-1 .125-.3.297-.55.515-.75.227-.207.5-.363.813-.469a3.006 3.006 0 011.031-.171c.195 0 .379.011.547.03.176.024.344.055.5.095h1.984c.082 0 .141.042.172.125a.81.81 0 01.063.359zM4.719-4.72c0-.445-.125-.797-.375-1.047-.242-.25-.59-.375-1.047-.375-.23 0-.434.043-.61.125a1.18 1.18 0 00-.421.313 1.46 1.46 0 00-.266.47 1.92 1.92 0 00-.078.562c0 .43.117.766.36 1.016.25.25.597.375 1.046.375.238 0 .442-.035.61-.11a1.41 1.41 0 00.437-.312c.113-.133.195-.29.25-.469.063-.176.094-.36.094-.547zm.61 5.203c0-.28-.122-.5-.36-.656-.23-.156-.54-.238-.922-.25L2.344-.469c-.156.117-.29.23-.39.344a2.756 2.756 0 00-.235.297 1.863 1.863 0 00-.125.297 1.391 1.391 0 00-.032.312c0 .313.16.551.485.719.32.164.77.25 1.344.25.363 0 .664-.04.906-.11.25-.074.445-.167.594-.28a.95.95 0 00.328-.407c.07-.148.11-.305.11-.469zm0 0"/></symbol><symbol overflow="visible" id="M"><path d="M4.953-6.313c0 .106-.008.196-.016.266a.397.397 0 01-.03.172.21.21 0 01-.048.094c-.023.023-.054.031-.093.031a.418.418 0 01-.141-.031c-.055-.02-.117-.04-.188-.063-.074-.02-.156-.039-.25-.062a1.178 1.178 0 00-.265-.032.875.875 0 00-.36.079 1.27 1.27 0 00-.374.234 3.792 3.792 0 00-.407.453c-.136.18-.293.402-.469.672v4.313a.2.2 0 01-.03.109c-.012.023-.044.043-.095.062A.72.72 0 012 .031a2.627 2.627 0 01-.578 0 .935.935 0 01-.188-.047.26.26 0 01-.093-.062.172.172 0 01-.032-.11V-6.75c0-.04.004-.07.016-.094a.239.239 0 01.094-.078.48.48 0 01.172-.031 2.372 2.372 0 01.53 0c.071 0 .13.012.173.031.039.024.066.047.078.078.02.024.031.055.031.094v.953c.176-.258.344-.473.5-.64a3.35 3.35 0 01.453-.391 1.34 1.34 0 01.422-.188c.133-.039.274-.062.422-.062.063 0 .129.008.203.016a3.1 3.1 0 01.25.046.937.937 0 01.25.063c.07.023.117.047.14.078a.206.206 0 01.063.063c.008.023.016.046.016.078a.684.684 0 01.016.156c.007.062.015.152.015.266zm0 0"/></symbol><symbol overflow="visible" id="N"><path d="M8.39-.516a.62.62 0 01-.046.25.668.668 0 01-.125.172.53.53 0 01-.172.094c-.063.008-.125.016-.188.016h-.406c-.125 0-.234-.012-.328-.032a1.183 1.183 0 01-.281-.14 1.314 1.314 0 01-.25-.297 5.276 5.276 0 01-.282-.469l-2.968-5.36a48.218 48.218 0 01-.922-1.766v1.08c.008.366.015.726.015 1.077v5.704a.179.179 0 01-.03.093c-.012.032-.044.059-.095.078-.042.012-.105.02-.187.032-.074.02-.168.03-.281.03-.117 0-.215-.01-.297-.03-.074-.012-.133-.02-.172-.032a.21.21 0 01-.094-.078.15.15 0 01-.031-.093v-8.704c0-.195.05-.336.156-.421a.608.608 0 01.36-.126h.593c.145 0 .266.016.36.047a.76.76 0 01.25.11c.07.054.144.133.219.234.07.106.148.23.234.375l2.297 4.14c.133.25.265.5.39.75.133.243.266.477.391.704.125.23.242.46.36.687.113.23.234.461.359.688a39.622 39.622 0 01-.016-1.203V-9.22c0-.039.004-.07.016-.094a.239.239 0 01.093-.078.351.351 0 01.188-.046 2.628 2.628 0 01.578 0 .32.32 0 01.188.046c.039.024.07.047.093.079.02.023.032.054.032.093zm0 0"/></symbol><symbol overflow="visible" id="O"><path d="M6.063-.172A.152.152 0 016-.047a.405.405 0 01-.172.063.994.994 0 01-.281.03c-.125 0-.23-.01-.313-.03-.074-.012-.125-.032-.156-.063a.165.165 0 01-.047-.125v-.656a3.528 3.528 0 01-.968.719c-.356.164-.727.25-1.11.25A3 3 0 012 0a1.9 1.9 0 01-.703-.375c-.2-.176-.356-.39-.469-.64a2.151 2.151 0 01-.156-.844c0-.375.07-.696.219-.97a1.96 1.96 0 01.656-.671 3.364 3.364 0 011.031-.406 6.11 6.11 0 011.375-.14h.906v-.5c0-.259-.027-.485-.078-.673a1.082 1.082 0 00-.265-.484A1.022 1.022 0 004.062-6a2.252 2.252 0 00-.703-.094c-.293 0-.558.04-.796.11-.243.062-.45.14-.626.234-.18.086-.328.164-.453.234-.117.063-.199.094-.25.094a.172.172 0 01-.109-.031c-.023-.02-.047-.047-.078-.078A.41.41 0 011-5.688a1.1 1.1 0 01-.016-.203c0-.113.008-.207.032-.28a.474.474 0 01.125-.204c.062-.063.171-.133.328-.219A4.531 4.531 0 012.719-7c.25-.05.5-.078.75-.078.469 0 .867.058 1.203.172.332.105.598.261.797.468.207.2.36.454.453.766.094.305.14.656.14 1.063zm-1.204-3H3.844c-.336 0-.625.031-.875.094a1.735 1.735 0 00-.61.25.938.938 0 00-.343.39 1.13 1.13 0 00-.11.516c0 .344.102.621.313.828.219.2.523.297.922.297.312 0 .601-.078.875-.234.27-.164.55-.414.843-.75zm0 0"/></symbol><symbol overflow="visible" id="P"><path d="M10.86-.188a.2.2 0 01-.032.11.31.31 0 01-.11.062.713.713 0 01-.171.047 2.77 2.77 0 01-.594 0 .935.935 0 01-.187-.047.26.26 0 01-.094-.062.172.172 0 01-.031-.11v-3.984c0-.281-.028-.531-.079-.75a1.577 1.577 0 00-.234-.594 1.067 1.067 0 00-.406-.375 1.163 1.163 0 00-.578-.14c-.281 0-.563.11-.844.328-.273.21-.574.523-.906.937v4.579a.2.2 0 01-.032.109.31.31 0 01-.109.062.72.72 0 01-.187.047 2.627 2.627 0 01-.579 0A.935.935 0 015.5-.016a.26.26 0 01-.094-.062.172.172 0 01-.031-.11v-3.984c0-.281-.027-.531-.078-.75a2.094 2.094 0 00-.234-.594 1.067 1.067 0 00-.407-.375 1.163 1.163 0 00-.578-.14c-.281 0-.562.11-.844.328-.28.21-.59.523-.921.937v4.579a.2.2 0 01-.032.109c-.011.023-.043.043-.094.062A.72.72 0 012 .031a2.627 2.627 0 01-.578 0 .935.935 0 01-.188-.047.26.26 0 01-.093-.062.172.172 0 01-.032-.11V-6.75c0-.04.004-.07.016-.094a.239.239 0 01.094-.078.48.48 0 01.172-.031 2.372 2.372 0 01.53 0c.071 0 .13.012.173.031.039.024.066.047.078.078.02.024.031.055.031.094v.875c.363-.414.719-.719 1.063-.906a2.178 2.178 0 011.062-.297c.27 0 .516.031.734.094.22.062.41.152.579.265.164.117.304.258.421.422.114.156.211.328.297.516a6.48 6.48 0 01.61-.594c.195-.164.383-.3.562-.406A2.24 2.24 0 018.078-7a1.89 1.89 0 01.516-.078c.426 0 .781.078 1.062.234.29.149.524.344.703.594.176.242.301.527.375.86.082.335.125.687.125 1.062zm0 0"/></symbol><symbol overflow="visible" id="R"><path d="M8.328-.438a.932.932 0 01.047.25.181.181 0 01-.047.157.444.444 0 01-.203.062 4.444 4.444 0 01-.719 0C7.32.02 7.254.008 7.203 0a.26.26 0 01-.094-.063.464.464 0 01-.062-.124l-.813-2.297H2.313L1.53-.22a.237.237 0 01-.062.125.265.265 0 01-.094.078.743.743 0 01-.203.047 3.547 3.547 0 01-.328.016A1.667 1.667 0 01.5.016a.428.428 0 01-.203-.063C.266-.078.25-.125.25-.187c.008-.07.035-.16.078-.266L3.484-9.22a.36.36 0 01.079-.125.227.227 0 01.14-.078c.063-.02.14-.035.235-.047a4.185 4.185 0 01.734 0c.101.012.187.028.25.047.07.012.125.04.156.078a.428.428 0 01.078.125zm-4.062-7.75H4.25L2.625-3.484h3.281zm0 0"/></symbol><symbol overflow="visible" id="S"><path d="M5.063-.219a.28.28 0 01-.079.14.34.34 0 01-.14.079c-.063.008-.14.02-.235.031a3.031 3.031 0 01-.64 0c-.074 0-.14-.008-.203-.015-.055-.012-.102-.02-.141-.032a.252.252 0 01-.11-.046.323.323 0 01-.078-.063c-.011-.031-.023-.063-.03-.094L.311-9a.68.68 0 01-.062-.25c0-.063.02-.11.063-.14.039-.04.109-.067.203-.079.101-.008.238-.015.406-.015.133 0 .238.007.312.015a.72.72 0 01.188.047c.05.012.086.031.11.063.019.03.038.074.062.125l2.703 7.937 2.64-7.922a.28.28 0 01.047-.125.147.147 0 01.094-.078.924.924 0 01.203-.047 4.185 4.185 0 01.719 0c.082.012.14.04.172.078.039.032.055.086.047.157-.012.062-.04.148-.078.25zm0 0"/></symbol><symbol overflow="visible" id="T"><path d="M6.5-.516c0 .086-.008.164-.016.235a.248.248 0 01-.046.156.239.239 0 01-.079.094A.18.18 0 016.25 0H1.719a.543.543 0 01-.328-.11c-.094-.07-.141-.206-.141-.406v-8.406c0-.195.047-.332.14-.406a.57.57 0 01.329-.11h4.484a.21.21 0 01.11.032c.03.023.05.054.062.094.02.042.035.101.047.171.02.063.031.141.031.235a.872.872 0 01-.031.234.621.621 0 01-.047.156.15.15 0 01-.063.094.18.18 0 01-.109.031H2.516v2.954h3.156a.21.21 0 01.11.03.313.313 0 01.077.095c.02.042.036.101.047.171a1.686 1.686 0 010 .453.621.621 0 01-.047.157.239.239 0 01-.078.093.322.322 0 01-.11.016H2.517v3.375H6.25a.21.21 0 01.11.031.313.313 0 01.077.094.289.289 0 01.047.172c.008.063.016.14.016.234zm0 0"/></symbol><symbol overflow="visible" id="U"><path d="M7.547-.188a.2.2 0 01-.031.11c-.012.023-.043.043-.094.062a.743.743 0 01-.203.047 3.713 3.713 0 01-.657 0 .935.935 0 01-.187-.047.254.254 0 01-.125-.093.795.795 0 01-.063-.141l-.859-2.234A8.098 8.098 0 005-3.172a1.845 1.845 0 00-.39-.547 1.523 1.523 0 00-.532-.36 1.935 1.935 0 00-.734-.124h-.828v4.016a.148.148 0 01-.047.109.356.356 0 01-.094.062c-.043.012-.105.02-.188.032-.085.02-.187.03-.312.03-.117 0-.215-.01-.297-.03-.086-.012-.152-.02-.203-.032a.26.26 0 01-.094-.062.172.172 0 01-.031-.11v-8.734c0-.195.047-.332.14-.406a.57.57 0 01.329-.11h2.015c.227 0 .422.008.579.016a3.76 3.76 0 011.406.344c.281.137.515.308.703.515.187.211.328.45.422.72.093.273.14.57.14.89 0 .312-.043.601-.125.86a1.92 1.92 0 01-.375.655 2.494 2.494 0 01-.578.5 3.032 3.032 0 01-.75.36c.157.062.297.148.422.25.133.105.254.23.36.375.113.148.218.32.312.515.094.188.191.403.297.641L7.39-.719c.062.18.101.305.125.375a.55.55 0 01.03.156zm-1.89-6.625c0-.375-.087-.687-.25-.937-.169-.258-.446-.445-.829-.563a2.535 2.535 0 00-.422-.062 4.672 4.672 0 00-.593-.031H2.516v3.187h1.218c.332 0 .618-.039.86-.125.238-.082.437-.191.593-.328.165-.144.286-.316.36-.516.07-.195.11-.406.11-.625zm0 0"/></symbol><symbol overflow="visible" id="V"><path d="M4.266-3.672v3.485a.2.2 0 01-.032.109.31.31 0 01-.109.062c-.043.012-.105.02-.188.032-.085.02-.183.03-.296.03-.125 0-.23-.01-.313-.03-.074-.012-.137-.02-.187-.032a.25.25 0 01-.11-.062A.172.172 0 013-.188v-3.484L.328-9a.776.776 0 01-.094-.25c-.011-.063 0-.11.032-.14.039-.04.109-.067.203-.079a4.636 4.636 0 01.734 0c.094.012.164.028.219.047.05.012.086.031.11.063a.693.693 0 01.093.125l1.297 2.718c.125.25.242.524.36.813l.374.844h.016c.113-.27.226-.54.344-.813.125-.281.25-.555.375-.828l1.312-2.719a.28.28 0 01.047-.125.212.212 0 01.11-.078.924.924 0 01.202-.047c.083-.008.188-.015.313-.015.176 0 .313.007.406.015.102.012.172.04.203.078.04.032.055.079.047.141a1.023 1.023 0 01-.093.25zm0 0"/></symbol><symbol overflow="visible" id="W"><path d="M6.156-.547c0 .094-.008.18-.015.25a.503.503 0 01-.063.172A.239.239 0 016-.031.18.18 0 015.89 0H1.72a.543.543 0 01-.328-.11c-.094-.07-.141-.206-.141-.406V-9.25c0-.04.008-.07.031-.094a.239.239 0 01.094-.078.924.924 0 01.203-.047 3.032 3.032 0 01.61 0 .72.72 0 01.187.047c.05.024.086.047.11.078.019.024.03.055.03.094v8.156h3.376c.039 0 .078.016.109.047a.313.313 0 01.078.094c.031.043.05.101.063.172.007.062.015.14.015.234zm0 0"/></symbol><symbol overflow="visible" id="X"><path d="M9.156-4.828c0 .762-.09 1.45-.265 2.062a4.32 4.32 0 01-.813 1.579c-.355.43-.805.757-1.344.984-.53.226-1.164.344-1.89.344C4.133.14 3.52.035 3-.172a3.45 3.45 0 01-1.281-.922c-.336-.406-.586-.906-.75-1.5C.8-3.195.719-3.89.719-4.672c0-.738.086-1.41.265-2.016.188-.613.457-1.132.813-1.562a3.65 3.65 0 011.344-.984c.539-.227 1.175-.344 1.906-.344.687 0 1.285.105 1.797.312.52.211.953.516 1.297.922.343.399.597.89.765 1.485.164.593.25 1.273.25 2.03zm-1.312.094c0-.54-.047-1.04-.14-1.5a3.277 3.277 0 00-.485-1.188 2.199 2.199 0 00-.89-.797c-.368-.187-.821-.281-1.36-.281-.543 0-1 .105-1.375.313a2.579 2.579 0 00-.906.812 3.34 3.34 0 00-.5 1.188c-.094.46-.141.937-.141 1.437 0 .555.047 1.063.14 1.531.094.461.25.86.47 1.203.218.336.507.594.874.782.364.187.828.28 1.39.28.54 0 1-.097 1.376-.296.375-.207.676-.484.906-.828a3.54 3.54 0 00.484-1.203c.102-.457.157-.942.157-1.453zm0 0"/></symbol><symbol overflow="visible" id="Y"><path d="M8.344-8.156c0 .094-.008.18-.016.25a.622.622 0 01-.047.172.239.239 0 01-.078.093.1.1 0 01-.078.032c-.063 0-.164-.047-.297-.141a3.929 3.929 0 00-.547-.297 5.21 5.21 0 00-.828-.312A3.947 3.947 0 005.328-8.5c-.523 0-.992.102-1.406.297a3.05 3.05 0 00-1.063.781 3.64 3.64 0 00-.656 1.203 4.883 4.883 0 00-.219 1.5c0 .594.082 1.125.25 1.594.164.469.395.867.688 1.188.3.324.656.57 1.062.734a3.82 3.82 0 001.36.234c.289 0 .586-.031.89-.094.301-.07.579-.18.829-.328v-2.75H4.874c-.086 0-.148-.039-.188-.125-.042-.082-.062-.207-.062-.375a1.3 1.3 0 01.016-.234.475.475 0 01.046-.172.152.152 0 01.079-.078.2.2 0 01.109-.031h3a.45.45 0 01.156.031c.063.012.114.04.156.078a.48.48 0 01.094.172.487.487 0 01.047.219v3.593a.68.68 0 01-.078.329c-.043.093-.137.18-.281.25a4.14 4.14 0 01-.547.234c-.219.086-.45.156-.688.219-.242.05-.48.086-.718.11-.243.03-.48.046-.72.046-.73 0-1.382-.11-1.952-.328a3.974 3.974 0 01-1.453-.969 4.294 4.294 0 01-.922-1.5C.758-3.254.656-3.906.656-4.625c0-.75.114-1.426.344-2.031a4.528 4.528 0 01.953-1.563c.414-.426.91-.754 1.484-.984.57-.238 1.211-.36 1.922-.36.352 0 .688.032 1 .094.32.063.602.137.844.219.25.086.457.18.625.281.164.094.281.172.344.235a.493.493 0 01.125.218c.031.086.047.204.047.36zm0 0"/></symbol><symbol overflow="visible" id="Z"><path d="M2.516-.188a.2.2 0 01-.032.11.31.31 0 01-.109.062c-.043.012-.105.02-.188.032-.085.02-.187.03-.312.03-.117 0-.215-.01-.297-.03-.086-.012-.152-.02-.203-.032a.26.26 0 01-.094-.062.172.172 0 01-.031-.11V-9.25c0-.04.008-.07.031-.094.02-.031.055-.054.11-.078a.924.924 0 01.203-.047 2.897 2.897 0 01.593 0 .72.72 0 01.188.047c.05.024.086.047.11.078.019.024.03.055.03.094zm0 0"/></symbol><symbol overflow="visible" id="aa"><path d="M11.516-.188a.2.2 0 01-.032.11.31.31 0 01-.109.062c-.043.012-.102.02-.172.032-.074.02-.172.03-.297.03-.117 0-.215-.01-.297-.03-.074-.012-.136-.02-.187-.032a.26.26 0 01-.094-.062.172.172 0 01-.031-.11v-8.218h-.016l-3.36 8.25a.262.262 0 01-.062.093.53.53 0 01-.125.063c-.043.008-.101.02-.171.031a2.314 2.314 0 01-.25.016c-.106 0-.196-.008-.266-.016C5.973.02 5.91.008 5.859 0a.575.575 0 01-.109-.063.264.264 0 01-.047-.093l-3.219-8.25H2.47v8.219a.2.2 0 01-.031.109c-.012.023-.043.043-.094.062-.055.012-.121.02-.203.032a1.11 1.11 0 01-.282.03c-.125 0-.23-.01-.312-.03-.074-.012-.133-.02-.172-.032a.26.26 0 01-.094-.062.172.172 0 01-.031-.11v-8.687c0-.195.05-.336.156-.422a.558.558 0 01.36-.14h.765c.156 0 .29.015.406.046a.928.928 0 01.297.141c.094.063.164.14.22.234.062.094.116.211.171.344L6.36-1.844h.032l2.843-6.812c.051-.145.11-.266.172-.36.063-.101.13-.187.203-.25a.716.716 0 01.25-.125c.094-.03.204-.046.329-.046h.796c.07 0 .141.011.204.03.07.024.128.06.171.11a.63.63 0 01.11.172.634.634 0 01.047.25zm0 0"/></symbol><symbol overflow="visible" id="ab"><path d="M7.047-6.672c0 .469-.078.899-.234 1.281a2.65 2.65 0 01-.657.97 3.082 3.082 0 01-1.078.609c-.418.148-.918.218-1.5.218H2.516v3.406a.148.148 0 01-.047.11.356.356 0 01-.094.062c-.043.012-.105.02-.188.032-.085.02-.187.03-.312.03-.117 0-.215-.01-.297-.03-.086-.012-.152-.02-.203-.032a.26.26 0 01-.094-.062.172.172 0 01-.031-.11V-8.89c0-.195.05-.336.156-.421a.54.54 0 01.344-.126h2.016c.207 0 .406.012.593.032.188.011.407.047.657.11.257.054.52.155.78.312.27.148.493.336.673.562.187.219.328.48.422.781.101.293.156.618.156.97zm-1.313.094c0-.375-.074-.692-.218-.953-.149-.258-.325-.453-.532-.578a1.747 1.747 0 00-.656-.235 3.96 3.96 0 00-.656-.062H2.516v3.797H3.64c.375 0 .687-.047.937-.141.25-.102.457-.238.625-.406.176-.176.305-.383.39-.625.095-.25.141-.516.141-.797zm0 0"/></symbol><symbol overflow="visible" id="ac"><path d="M6.328-2.64c0 .437-.086.828-.25 1.171-.168.344-.398.64-.687.89a2.854 2.854 0 01-1.016.548A4.486 4.486 0 013.109.14a4.81 4.81 0 01-.875-.078 5.146 5.146 0 01-.718-.188 3.598 3.598 0 01-.532-.25 1.882 1.882 0 01-.312-.203.67.67 0 01-.125-.235 1.531 1.531 0 01-.031-.359c0-.101.004-.191.015-.266a.475.475 0 01.11-.265.2.2 0 01.109-.031c.07 0 .164.043.281.125.125.086.285.18.485.28.195.095.43.184.703.266.281.086.597.125.953.125.27 0 .52-.035.75-.109.226-.07.422-.172.578-.297.164-.133.29-.3.375-.5.094-.195.14-.422.14-.672 0-.257-.062-.484-.187-.671a1.787 1.787 0 00-.484-.5c-.2-.145-.43-.274-.688-.391-.25-.125-.511-.25-.781-.375a11.442 11.442 0 01-.781-.406 3.628 3.628 0 01-.672-.532 2.52 2.52 0 01-.484-.718 2.443 2.443 0 01-.188-1c0-.383.07-.735.219-1.047.144-.313.344-.57.594-.781.257-.208.562-.364.906-.47a3.758 3.758 0 011.156-.171c.207 0 .414.023.625.062a3.706 3.706 0 011.094.344.993.993 0 01.281.188c.05.043.082.078.094.109.02.023.035.055.047.094a.841.841 0 01.015.156c.008.055.016.125.016.219s-.008.18-.016.25a.997.997 0 01-.047.172.15.15 0 01-.062.093.1.1 0 01-.078.032c-.055 0-.137-.032-.25-.094a8.48 8.48 0 00-.422-.234 2.688 2.688 0 00-.594-.235 2.445 2.445 0 00-.75-.11c-.262 0-.492.04-.687.11-.2.063-.36.156-.485.281a1.113 1.113 0 00-.281.422 1.339 1.339 0 00-.094.5c0 .262.055.485.172.672.125.188.285.356.485.5.207.149.437.281.687.406.258.125.523.25.797.375.27.125.531.262.781.407.258.148.488.324.688.53.207.2.375.438.5.72a2.3 2.3 0 01.187.968zm0 0"/></symbol><symbol overflow="visible" id="ad"><path d="M7.172-8.89c0 .085-.008.163-.016.234a.621.621 0 01-.047.156.239.239 0 01-.078.094.18.18 0 01-.11.031H4.267v8.188a.2.2 0 01-.032.109.31.31 0 01-.109.062c-.043.012-.105.02-.188.032-.074.02-.171.03-.296.03-.118 0-.215-.01-.297-.03-.086-.012-.153-.02-.203-.032a.26.26 0 01-.094-.062.172.172 0 01-.031-.11v-8.187H.359a.172.172 0 01-.109-.031.21.21 0 01-.078-.094.41.41 0 01-.047-.156 1.444 1.444 0 01-.016-.235c0-.093.004-.175.016-.25a.475.475 0 01.047-.171.27.27 0 01.078-.094.2.2 0 01.11-.031h6.562a.21.21 0 01.11.03.313.313 0 01.077.095c.02.042.036.101.047.171.008.075.016.157.016.25zm0 0"/></symbol><symbol overflow="visible" id="ae"><path d="M8.047-.188a.2.2 0 01-.031.11c-.012.023-.043.043-.094.062-.055.012-.121.02-.203.032-.074.02-.168.03-.282.03-.125 0-.23-.01-.312-.03-.074-.012-.137-.02-.188-.032a.25.25 0 01-.109-.062.308.308 0 01-.016-.11v-4.187H2.516v4.188a.2.2 0 01-.032.109.31.31 0 01-.109.062c-.043.012-.105.02-.188.032-.085.02-.187.03-.312.03-.117 0-.215-.01-.297-.03-.086-.012-.152-.02-.203-.032a.26.26 0 01-.094-.062.172.172 0 01-.031-.11V-9.25c0-.04.008-.07.031-.094a.239.239 0 01.094-.078.924.924 0 01.203-.047 3.032 3.032 0 01.61 0 .72.72 0 01.187.047c.05.024.086.047.11.078.019.024.03.055.03.094v3.781h4.297V-9.25c0-.04.004-.07.016-.094.02-.031.055-.054.11-.078a.935.935 0 01.187-.047c.082-.008.188-.015.313-.015.113 0 .207.007.28.015.083.012.15.028.204.047.05.024.082.047.094.078.02.024.03.055.03.094zm0 0"/></symbol><symbol overflow="visible" id="af"><path d="M10.297-.281a.42.42 0 01-.094.172.385.385 0 01-.172.093c-.062.02-.148.036-.25.047a4.263 4.263 0 01-.734 0 1.745 1.745 0 01-.266-.047.268.268 0 01-.156-.093.47.47 0 01-.078-.172L6.578-7.406h-.016L4.734-.281a.307.307 0 01-.078.172.265.265 0 01-.14.093c-.063.02-.149.036-.25.047a5.242 5.242 0 01-.781 0 1.745 1.745 0 01-.266-.047.35.35 0 01-.156-.093.47.47 0 01-.079-.172L.5-9a1.645 1.645 0 01-.063-.25c0-.063.02-.11.063-.14.04-.04.11-.067.203-.079a4.444 4.444 0 01.735 0 .72.72 0 01.187.047c.05.012.082.04.094.078.02.031.035.074.047.125L3.89-1.313h.015l2.016-7.89a.28.28 0 01.047-.125c.02-.04.054-.07.11-.094a.924.924 0 01.202-.047c.094-.008.211-.015.36-.015.132 0 .238.007.312.015.082.012.149.028.203.047a.246.246 0 01.11.094c.02.031.035.074.046.125l2.172 7.89H9.5l2.078-7.906a.73.73 0 01.031-.11.222.222 0 01.094-.093.924.924 0 01.203-.047 3.575 3.575 0 01.688 0c.082.012.144.04.187.078.04.032.055.079.047.141 0 .063-.012.152-.031.266zm0 0"/></symbol><symbol overflow="visible" id="ag"><path d="M6.219-8.89c0 .085-.008.163-.016.234a.355.355 0 01-.062.156.239.239 0 01-.079.094.15.15 0 01-.093.031H2.516v3.219H5.78c.032 0 .063.011.094.031.031.012.055.04.078.078.031.031.05.086.063.156a2.018 2.018 0 010 .485.355.355 0 01-.063.156.239.239 0 01-.078.094.15.15 0 01-.094.031H2.516v3.938a.179.179 0 01-.032.093.24.24 0 01-.109.078c-.043.012-.105.02-.188.032-.074.02-.18.03-.312.03-.117 0-.215-.01-.297-.03-.086-.012-.152-.02-.203-.032a.21.21 0 01-.094-.078.15.15 0 01-.031-.093v-8.735c0-.195.047-.332.14-.406a.57.57 0 01.329-.11h4.25c.031 0 .062.012.093.032a.313.313 0 01.079.094c.03.042.05.101.062.171.008.075.016.157.016.25zm0 0"/></symbol><symbol overflow="visible" id="ah"><path d="M7.563-1.328c0 .074-.008.14-.016.203a.429.429 0 01-.031.156.401.401 0 01-.047.11.406.406 0 01-.094.125 2.08 2.08 0 01-.313.234 4.46 4.46 0 01-1.375.516 4.659 4.659 0 01-.968.093 4.55 4.55 0 01-1.672-.296 3.445 3.445 0 01-1.266-.907c-.343-.394-.61-.883-.797-1.468-.187-.594-.28-1.27-.28-2.032C.703-5.375.8-6.07 1-6.687c.207-.614.492-1.133.86-1.563.363-.426.8-.75 1.312-.969a4.097 4.097 0 011.687-.344c.27 0 .536.028.797.079.258.054.5.12.719.203.219.074.41.164.578.265.164.106.281.188.344.25a.75.75 0 01.14.157c.02.03.036.074.047.125a.841.841 0 01.016.156c.008.062.016.137.016.219 0 .105-.008.195-.016.265a.997.997 0 01-.047.172.15.15 0 01-.062.094c-.024.023-.055.031-.094.031-.074 0-.172-.047-.297-.14A4.396 4.396 0 006.531-8a3.52 3.52 0 00-.703-.313 3.049 3.049 0 00-.984-.14c-.418 0-.797.086-1.14.25a2.392 2.392 0 00-.876.734c-.242.324-.43.719-.562 1.188-.137.468-.204 1.008-.204 1.61 0 .605.063 1.136.188 1.593.133.46.32.844.563 1.156.238.305.53.54.874.703a2.93 2.93 0 001.204.235c.375 0 .695-.047.968-.141.282-.094.52-.195.72-.313.194-.113.359-.218.484-.312s.222-.14.296-.14c.04 0 .07.011.094.03.02.012.035.04.047.079.02.043.035.101.047.172.008.074.016.168.016.28zm0 0"/></symbol><symbol overflow="visible" id="ai"><path d="M7.469-2.703a2.686 2.686 0 01-.422 1.5c-.137.2-.305.375-.5.531a2.79 2.79 0 01-.64.375 4.24 4.24 0 01-.782.219A4.832 4.832 0 014.187 0H1.72a.543.543 0 01-.328-.11c-.094-.07-.141-.206-.141-.406v-8.406c0-.195.047-.332.14-.406a.57.57 0 01.329-.11h2.14c.57 0 1.036.06 1.391.172.363.106.664.262.906.47.239.198.414.448.532.75.125.292.187.624.187 1 0 .218-.027.433-.078.64a2.417 2.417 0 01-.234.562 2.307 2.307 0 01-.391.469 1.87 1.87 0 01-.547.328c.258.055.5.14.719.266.226.125.426.293.593.5.165.199.297.433.391.703.094.262.14.555.14.875zM5.594-6.922c0-.226-.04-.437-.11-.625a1.122 1.122 0 00-.296-.469 1.234 1.234 0 00-.532-.296 2.875 2.875 0 00-.86-.11H2.5v3.063h1.422c.32 0 .582-.04.781-.125a1.23 1.23 0 00.5-.344c.133-.145.234-.313.297-.5a1.93 1.93 0 00.094-.594zm.562 4.281a1.8 1.8 0 00-.14-.734 1.342 1.342 0 00-.391-.547 1.683 1.683 0 00-.64-.328A3.85 3.85 0 004-4.36H2.5v3.329h1.813c.289 0 .539-.032.75-.094a1.57 1.57 0 00.562-.313c.164-.132.297-.3.39-.5.094-.195.141-.43.141-.703zm0 0"/></symbol><symbol overflow="visible" id="aj"><path d="M7.406-.203a.2.2 0 01-.031.11c-.012.03-.043.058-.094.077-.043.012-.105.02-.187.032a1.49 1.49 0 01-.328.03c-.168 0-.309-.01-.422-.03a.588.588 0 01-.235-.063.428.428 0 01-.125-.14l-3.468-4.72v4.72a.179.179 0 01-.032.093.24.24 0 01-.109.078c-.043.012-.105.02-.188.032-.085.02-.187.03-.312.03-.117 0-.215-.01-.297-.03-.086-.012-.152-.02-.203-.032a.21.21 0 01-.094-.078.15.15 0 01-.031-.093V-9.25c0-.04.008-.07.031-.094a.239.239 0 01.094-.078.924.924 0 01.203-.047 3.032 3.032 0 01.61 0 .72.72 0 01.187.047c.05.024.086.047.11.078.019.024.03.055.03.094v4.203l3.33-4.203a.58.58 0 01.11-.11.33.33 0 01.14-.062.924.924 0 01.203-.047 3.202 3.202 0 01.609 0 .72.72 0 01.188.047c.05.024.082.047.093.078.02.031.032.063.032.094a.416.416 0 01-.047.188A2.472 2.472 0 017-8.797l-3.14 3.75L7.233-.578c.082.125.13.215.141.265.02.043.031.079.031.11zm0 0"/></symbol><symbol overflow="visible" id="ak"><path d="M6.813-3.89c0 .656-.086 1.23-.25 1.718a3.116 3.116 0 01-.735 1.219 3.218 3.218 0 01-1.187.719C4.18-.078 3.629 0 2.984 0H1.375a.407.407 0 01-.25-.094C1.039-.156 1-.258 1-.406v-6.735c0-.156.04-.257.125-.312a.407.407 0 01.25-.094h1.719c.644 0 1.191.086 1.64.25.457.168.836.414 1.141.734.313.313.547.7.703 1.157.156.449.234.953.234 1.515zm-1.063.046c0-.406-.055-.785-.156-1.14a2.229 2.229 0 00-.469-.907 2.298 2.298 0 00-.828-.609c-.324-.145-.746-.219-1.266-.219H2v5.875h1.047c.476 0 .879-.054 1.203-.172a2.03 2.03 0 00.828-.562 2.3 2.3 0 00.5-.938c.113-.375.172-.816.172-1.328zm0 0"/></symbol><symbol overflow="visible" id="al"><path d="M1.86-.14a.11.11 0 01-.032.078C1.816-.04 1.79-.02 1.75 0a.582.582 0 01-.14.016 1.847 1.847 0 01-.47 0A.806.806 0 01.985 0a.323.323 0 01-.078-.063.155.155 0 01-.015-.078v-5.265c0-.02.004-.04.015-.063a.152.152 0 01.078-.062.358.358 0 01.157-.032 1.847 1.847 0 01.468 0c.063 0 .11.012.141.032.04.011.066.031.078.062.02.024.031.043.031.063zm.109-7.032c0 .23-.047.387-.14.469-.087.074-.243.11-.47.11-.218 0-.37-.036-.453-.11-.086-.082-.125-.234-.125-.453 0-.227.04-.383.125-.469.082-.082.239-.125.469-.125.227 0 .383.043.469.125.082.086.125.234.125.453zm0 0"/></symbol><symbol overflow="visible" id="am"><path d="M4.188-1.578c0 .273-.055.512-.157.719-.093.21-.234.386-.422.53A1.73 1.73 0 012.953 0c-.25.07-.527.11-.828.11a2.86 2.86 0 01-.531-.048 3.682 3.682 0 01-.453-.109 2.417 2.417 0 01-.344-.125.81.81 0 01-.203-.14A.35.35 0 01.5-.47a1.011 1.011 0 01-.031-.297.909.909 0 01.047-.312.088.088 0 01.046-.063.212.212 0 01.079-.015c.039 0 .101.027.187.078a2.763 2.763 0 00.734.344c.176.054.368.078.579.078.164 0 .316-.016.453-.047.133-.04.25-.094.344-.156a.762.762 0 00.218-.266.832.832 0 00.078-.375.662.662 0 00-.109-.375.984.984 0 00-.297-.266 1.92 1.92 0 00-.422-.203 31.88 31.88 0 00-.484-.187 5.038 5.038 0 01-.484-.235 1.907 1.907 0 01-.422-.296A1.618 1.618 0 01.703-3.5a1.479 1.479 0 01-.11-.61c0-.195.04-.39.126-.577.082-.196.203-.364.36-.5a1.66 1.66 0 01.593-.344c.238-.082.52-.125.844-.125a2.493 2.493 0 01.797.125c.113.031.207.07.28.11.083.042.145.077.188.109.04.03.067.058.078.078.02.023.032.046.032.078.007.031.015.07.015.11a.841.841 0 010 .327.227.227 0 01-.031.125c-.012.032-.027.055-.047.063-.012.011-.031.015-.062.015a.357.357 0 01-.157-.062 1.848 1.848 0 00-.25-.125 2.536 2.536 0 00-.375-.14 1.384 1.384 0 00-.484-.079c-.156 0-.297.024-.422.063a.955.955 0 00-.312.171.545.545 0 00-.188.235.71.71 0 00-.062.297c0 .156.035.289.109.39.082.094.188.184.313.266.125.074.265.14.421.203.164.063.332.133.5.203.164.063.329.137.485.219.164.086.312.184.437.297.125.117.223.258.297.422.07.156.11.351.11.578zm0 0"/></symbol><symbol overflow="visible" id="an"><path d="M5.375-3c0 .156-.043.266-.125.328a.376.376 0 01-.25.094H1.562c0 .293.024.558.079.797.062.23.16.43.296.593.133.168.313.297.532.391.219.086.484.125.797.125a3.529 3.529 0 001.171-.203c.145-.05.258-.094.344-.125A.632.632 0 015-1.063c.02 0 .04.008.063.016a.113.113 0 01.046.063c.02.023.032.058.032.109.007.055.015.117.015.188a.644.644 0 01-.015.125.433.433 0 01-.016.109c0 .023-.012.047-.031.078a.238.238 0 01-.047.063.922.922 0 01-.188.109c-.105.043-.242.09-.406.14a5.49 5.49 0 01-.578.11 3.99 3.99 0 01-.703.062c-.438 0-.82-.058-1.14-.171a2.194 2.194 0 01-.829-.547 2.353 2.353 0 01-.5-.891C.598-1.852.547-2.27.547-2.75c0-.445.055-.848.172-1.203.113-.363.281-.672.5-.922.218-.258.484-.453.797-.578a2.64 2.64 0 011.046-.203c.415 0 .766.07 1.047.203a1.9 1.9 0 01.72.531c.187.219.32.48.405.781.094.305.141.625.141.97zm-.969-.281c.008-.508-.105-.906-.343-1.188-.231-.289-.579-.437-1.047-.437-.23 0-.438.047-.625.14-.18.086-.329.2-.454.344-.117.149-.21.32-.28.516a2.07 2.07 0 00-.095.625zm0 0"/></symbol><symbol overflow="visible" id="ao"><path d="M3.969-5.047c0 .086-.008.156-.016.219a.49.49 0 01-.015.125.22.22 0 01-.047.078.1.1 0 01-.079.031.214.214 0 01-.109-.031.676.676 0 00-.156-.047 1.094 1.094 0 00-.188-.047.763.763 0 00-.516.031.847.847 0 00-.296.188c-.094.094-.2.215-.313.36a5.427 5.427 0 00-.375.546V-.14a.11.11 0 01-.03.078c-.013.024-.04.043-.079.063a.582.582 0 01-.14.016 1.847 1.847 0 01-.47 0A.806.806 0 01.985 0a.323.323 0 01-.078-.063.155.155 0 01-.015-.078v-5.265a.17.17 0 01.015-.078c.008-.02.031-.036.063-.047a.311.311 0 01.14-.032c.063-.007.133-.015.22-.015.081 0 .148.008.202.016.063 0 .11.011.14.03.032.012.052.028.063.048.02.023.032.046.032.078v.765a3.76 3.76 0 01.406-.5c.125-.132.242-.238.36-.312a.894.894 0 01.327-.156 1.28 1.28 0 01.344-.047c.05 0 .11.008.172.015.063 0 .125.012.188.032.07.011.132.027.187.046a.45.45 0 01.125.063c.031.012.047.027.047.047a.231.231 0 01.015.078.342.342 0 01.016.11c.008.054.016.124.016.218zm0 0"/></symbol><symbol overflow="visible" id="ap"><path d="M3.625-.531c0 .117-.012.21-.031.281a.262.262 0 01-.063.14.545.545 0 01-.14.094 1.42 1.42 0 01-.22.047 1.91 1.91 0 01-.25.047 2.858 2.858 0 01-.265.016c-.273 0-.508-.032-.703-.094-.2-.07-.36-.18-.484-.328a1.52 1.52 0 01-.266-.547 3.537 3.537 0 01-.078-.813V-4.75H.391a.18.18 0 01-.157-.094.697.697 0 01-.047-.297c0-.082.004-.144.016-.187a.644.644 0 01.031-.125c.02-.04.04-.067.063-.078a.378.378 0 01.094-.016h.734v-1.25a.16.16 0 01.016-.078c.007-.02.03-.04.062-.063a.358.358 0 01.156-.03 1.847 1.847 0 01.485 0 .27.27 0 01.14.03.231.231 0 01.063.063c.02.023.031.047.031.078v1.25h1.36c.03 0 .054.008.078.016.02.011.035.039.046.078.02.031.036.074.047.125.008.043.016.105.016.187a.57.57 0 01-.063.297c-.03.063-.074.094-.124.094h-1.36v2.922c0 .367.05.64.156.828.114.188.305.281.579.281a.681.681 0 00.234-.031c.07-.02.133-.035.187-.047a.48.48 0 00.141-.062.26.26 0 01.11-.032c.019 0 .038.008.062.016.02.012.031.031.031.063.008.023.02.058.031.109a.957.957 0 01.016.172zm0 0"/></symbol><symbol overflow="visible" id="aq"><path d="M4.844-.14c0 .054-.016.09-.047.109a.334.334 0 01-.125.047 1.966 1.966 0 01-.484 0 .31.31 0 01-.125-.047c-.032-.02-.047-.055-.047-.11v-.53c-.23.25-.485.444-.766.577a2.064 2.064 0 01-.89.203A2.569 2.569 0 011.593 0a1.577 1.577 0 01-.563-.313 1.466 1.466 0 01-.375-.5 1.662 1.662 0 01-.125-.671c0-.301.063-.555.188-.766.125-.219.297-.398.515-.547a2.63 2.63 0 01.829-.328c.332-.07.703-.11 1.109-.11h.719v-.406c0-.207-.024-.382-.063-.53a.955.955 0 00-.203-.391.906.906 0 00-.375-.235 1.827 1.827 0 00-.563-.078 2.01 2.01 0 00-.64.094 3.197 3.197 0 00-.5.187c-.137.063-.25.121-.344.172a.475.475 0 01-.219.078.155.155 0 01-.078-.015.323.323 0 01-.062-.079.252.252 0 01-.047-.109v-.156c0-.102.004-.18.015-.234a.23.23 0 01.094-.157c.063-.05.156-.11.281-.172.125-.07.27-.132.438-.187.164-.063.348-.11.547-.14.195-.04.398-.063.61-.063.374 0 .69.043.952.125.27.086.485.21.641.375.164.168.285.375.36.625.07.242.109.523.109.843zM3.89-2.532h-.829c-.261 0-.492.023-.687.062-.188.043-.352.11-.484.203a.825.825 0 00-.282.313.885.885 0 00-.093.422c0 .273.086.492.265.656.176.156.422.234.735.234.25 0 .476-.062.687-.187.219-.133.445-.332.688-.594zm0 0"/></symbol><symbol overflow="visible" id="ar"><path d="M4.672-.953c0 .074-.008.137-.016.187a.644.644 0 01-.015.125l-.032.079a.552.552 0 01-.093.109 1.236 1.236 0 01-.266.187 2.461 2.461 0 01-.453.22c-.18.062-.383.108-.61.14l.141.344c.082.164.14.304.172.421a.968.968 0 01-.016.719.711.711 0 01-.234.297 1.12 1.12 0 01-.375.188 1.65 1.65 0 01-.453.062c-.137 0-.266-.012-.39-.031a2.34 2.34 0 01-.313-.047 1.138 1.138 0 01-.188-.063c-.031-.011-.054-.027-.062-.046a.374.374 0 01-.032-.094v-.14c0-.118.008-.196.032-.235.02-.043.062-.063.125-.063h.718a.514.514 0 00.297-.078.282.282 0 00.11-.234.592.592 0 00-.047-.203 1.83 1.83 0 00-.094-.235l-.265-.61a1.97 1.97 0 01-1-.468 2.212 2.212 0 01-.594-.937A4.342 4.342 0 01.53-2.703c0-.52.063-.961.188-1.328.125-.375.297-.68.515-.922a2.08 2.08 0 01.766-.531 2.772 2.772 0 011.469-.125c.156.03.297.074.422.125.132.054.254.109.359.171a.942.942 0 01.219.172c.05.043.082.079.093.11.02.031.036.07.047.11.02.03.032.073.032.124v.156c0 .157-.016.266-.047.329-.032.062-.074.093-.125.093a.318.318 0 01-.203-.093 1.672 1.672 0 00-.297-.22 1.937 1.937 0 00-.422-.218 1.646 1.646 0 00-.578-.094c-.469 0-.828.18-1.078.532-.243.355-.36.87-.36 1.546 0 .344.032.649.094.907.063.25.156.464.281.64.125.168.274.293.453.375.188.086.395.125.625.125.227 0 .426-.035.594-.11.164-.07.305-.148.422-.234.125-.082.227-.156.313-.218.082-.07.148-.11.203-.11.02 0 .039.012.062.032.02.011.035.039.047.078.02.031.031.078.031.14.008.055.016.118.016.188zm0 0"/></symbol><symbol overflow="visible" id="as"><path d="M4.844-.14c0 .054-.016.09-.047.109a.334.334 0 01-.125.047 1.966 1.966 0 01-.484 0 .31.31 0 01-.125-.047c-.032-.02-.047-.055-.047-.11v-.53c-.23.25-.485.444-.766.577a2.064 2.064 0 01-.89.203A2.569 2.569 0 011.593 0a1.577 1.577 0 01-.563-.313 1.466 1.466 0 01-.375-.5 1.662 1.662 0 01-.125-.671c0-.301.063-.555.188-.766.125-.219.297-.398.515-.547a2.63 2.63 0 01.829-.328c.332-.07.703-.11 1.109-.11h.719v-.406c0-.207-.024-.382-.063-.53a.955.955 0 00-.203-.391.906.906 0 00-.375-.235 1.827 1.827 0 00-.563-.078 2.01 2.01 0 00-.64.094 3.197 3.197 0 00-.5.187c-.137.063-.25.121-.344.172a.475.475 0 01-.219.078.155.155 0 01-.078-.015.323.323 0 01-.062-.079.252.252 0 01-.047-.109v-.156c0-.102.004-.18.015-.234a.23.23 0 01.094-.157c.063-.05.156-.11.281-.172.125-.07.27-.132.438-.187.164-.063.348-.11.547-.14.195-.04.398-.063.61-.063.374 0 .69.043.952.125.27.086.485.21.641.375.164.168.285.375.36.625.07.242.109.523.109.843zM3.89-2.532h-.829c-.261 0-.492.023-.687.062-.188.043-.352.11-.484.203a.825.825 0 00-.282.313.885.885 0 00-.093.422c0 .273.086.492.265.656.176.156.422.234.735.234.25 0 .476-.062.687-.187.219-.133.445-.332.688-.594zm.921-5.14c0 .417-.105.734-.312.952-.2.219-.477.328-.828.328-.137 0-.262-.015-.375-.046a1.3 1.3 0 01-.313-.157 5.213 5.213 0 01-.265-.187c-.074-.063-.149-.125-.219-.188a.813.813 0 00-.234-.14.5.5 0 00-.235-.063c-.156 0-.265.059-.328.172a.952.952 0 00-.094.453.213.213 0 01-.015.078c0 .024-.016.04-.047.047a.374.374 0 01-.11.031H1.25a.684.684 0 01-.266-.046.146.146 0 01-.046-.079.36.36 0 01-.016-.125c0-.382.098-.691.297-.921.195-.227.472-.344.828-.344.207 0 .39.043.547.125.156.074.289.156.406.25.125.093.238.183.344.265a.583.583 0 00.36.125.36.36 0 00.312-.156c.07-.101.109-.254.109-.453 0-.063.02-.102.063-.125a.726.726 0 01.265-.031c.145 0 .238.015.281.047.051.023.079.086.079.187zM.173-5.548zm0 0"/></symbol><symbol overflow="visible" id="at"><path d="M5.781-2.828c0 .43-.058.824-.172 1.187a2.626 2.626 0 01-.515.922 2.211 2.211 0 01-.828.61 2.944 2.944 0 01-1.172.218c-.43 0-.805-.062-1.125-.187a2.198 2.198 0 01-.813-.563 2.429 2.429 0 01-.468-.89A4.144 4.144 0 01.53-2.72c0-.437.051-.832.156-1.187.114-.364.282-.676.5-.938a2.22 2.22 0 01.844-.593 2.91 2.91 0 011.172-.22c.438 0 .813.063 1.125.188.32.125.586.313.797.563.219.242.379.539.484.89.114.356.172.75.172 1.188zm-1.015.062c0-.28-.028-.546-.079-.796a1.92 1.92 0 00-.265-.672 1.322 1.322 0 00-.484-.454c-.211-.113-.47-.171-.782-.171-.281 0-.527.054-.734.156-.2.105-.367.25-.5.437-.125.18-.227.399-.297.657a3.36 3.36 0 00-.094.812c0 .293.024.57.078.828.051.25.141.469.266.657.125.187.285.34.484.453.207.105.47.156.782.156.28 0 .52-.047.718-.14.207-.102.38-.243.516-.423a1.94 1.94 0 00.297-.656c.062-.258.094-.539.094-.844zm0 0"/></symbol><symbol overflow="visible" id="au"><path d="M3.14-2.094c0 .336-.03.64-.093.922a1.721 1.721 0 01-.328.703 1.53 1.53 0 01-.61.438c-.242.093-.543.14-.906.14A2.196 2.196 0 01.843.08 1.427 1.427 0 01.532.015a1.013 1.013 0 01-.39-.156A2.98 2.98 0 00.078-.22 1.71 1.71 0 01.015-.5v-.578c.008-.094.02-.164.032-.219a.305.305 0 01.062-.125.179.179 0 01.094-.031c.04 0 .082.016.125.047.05.023.102.047.156.078.063.023.13.047.204.078.082.023.175.031.28.031a.902.902 0 00.266-.031.441.441 0 00.204-.156.857.857 0 00.125-.282c.03-.125.046-.285.046-.484v-5.187a.15.15 0 01.032-.094.381.381 0 01.125-.078A.993.993 0 012-7.578a4.263 4.263 0 01.734 0c.102.012.18.027.235.047a.269.269 0 01.125.078c.031.031.047.062.047.094zm0 0"/></symbol><symbol overflow="visible" id="av"><path d="M6-2.86a4.1 4.1 0 01-.172 1.22 2.617 2.617 0 01-.531.952 2.442 2.442 0 01-.906.61C4.035.066 3.617.14 3.14.14c-.461 0-.86-.063-1.204-.188a2.286 2.286 0 01-.859-.562 2.517 2.517 0 01-.5-.907A4.425 4.425 0 01.422-2.75c0-.445.055-.852.172-1.219.125-.363.3-.676.531-.937a2.24 2.24 0 01.89-.61 3.408 3.408 0 011.266-.218c.457 0 .86.062 1.203.187.344.125.625.313.844.563.227.242.395.543.5.906.113.355.172.762.172 1.219zm-1.516.063c0-.258-.023-.492-.062-.703a1.736 1.736 0 00-.203-.563.95.95 0 00-.39-.375c-.157-.093-.36-.14-.61-.14-.219 0-.414.043-.578.125a.942.942 0 00-.391.344 1.672 1.672 0 00-.234.562 2.94 2.94 0 00-.079.735c0 .261.02.5.063.718.04.211.11.399.203.563.094.156.223.281.39.375.165.086.368.125.61.125a1.165 1.165 0 00.969-.469c.113-.156.191-.336.234-.547.051-.219.078-.469.078-.75zm0 0"/></symbol><symbol overflow="visible" id="aw"><path d="M5.703-.203a.2.2 0 01-.031.11.238.238 0 01-.125.077c-.055.012-.125.02-.219.032a4.093 4.093 0 01-.703 0c-.094-.012-.172-.02-.234-.032a.204.204 0 01-.11-.078.172.172 0 01-.031-.11v-2.968c0-.25-.023-.445-.063-.594a1.384 1.384 0 00-.171-.375.621.621 0 00-.266-.234.856.856 0 00-.375-.078c-.188 0-.383.07-.578.203a3.26 3.26 0 00-.594.594v3.453a.2.2 0 01-.031.11.238.238 0 01-.125.077c-.055.012-.125.02-.219.032a4.263 4.263 0 01-.719 0C1.016.004.941-.004.891-.016a.327.327 0 01-.125-.078.172.172 0 01-.032-.11v-7.671a.18.18 0 01.032-.11.381.381 0 01.125-.077.987.987 0 01.218-.047 4.184 4.184 0 01.72 0c.093.011.163.027.218.046.062.024.101.047.125.079a.21.21 0 01.031.109V-5c.25-.25.504-.43.766-.547.27-.125.547-.187.828-.187.351 0 .648.058.89.171.25.118.446.278.594.485.157.2.266.433.328.703.063.273.094.602.094.984zm0 0"/></symbol><symbol overflow="visible" id="ax"><path d="M5.703-.203a.2.2 0 01-.031.11.238.238 0 01-.125.077c-.055.012-.125.02-.219.032a4.093 4.093 0 01-.703 0c-.094-.012-.172-.02-.234-.032a.204.204 0 01-.11-.078.172.172 0 01-.031-.11v-2.968c0-.25-.023-.445-.063-.594a1.384 1.384 0 00-.171-.375.621.621 0 00-.266-.234.856.856 0 00-.375-.078c-.188 0-.383.07-.578.203a3.26 3.26 0 00-.594.594v3.453a.2.2 0 01-.031.11.238.238 0 01-.125.077c-.055.012-.125.02-.219.032a4.263 4.263 0 01-.719 0C1.016.004.941-.004.891-.016a.327.327 0 01-.125-.078.172.172 0 01-.032-.11v-5.202c0-.04.008-.07.032-.094.02-.031.054-.055.109-.078a.935.935 0 01.188-.047 3.032 3.032 0 01.609 0 .72.72 0 01.187.047c.051.023.082.047.094.078a.14.14 0 01.031.094v.61A3.39 3.39 0 012.86-5.5c.301-.156.614-.234.938-.234.351 0 .648.058.89.171.25.118.446.278.594.485.157.2.266.433.328.703.063.262.094.578.094.953zm0 0"/></symbol><symbol overflow="visible" id="ay"><path d="M4.578-.266a.582.582 0 01-.078.157.28.28 0 01-.156.093.994.994 0 01-.282.032 6.936 6.936 0 01-.468.015h-.406c-.106 0-.2-.008-.282-.015-.074-.012-.136-.02-.187-.032a1.243 1.243 0 01-.125-.062.249.249 0 01-.078-.078c-.012-.032-.028-.07-.047-.125L.234-6.984a1.192 1.192 0 01-.093-.329c-.012-.082.007-.144.062-.187a.495.495 0 01.25-.078 6.985 6.985 0 01.906 0c.102.012.18.027.235.047.05.023.086.054.11.093.019.032.038.079.062.141l1.843 5.813 1.813-5.782a.475.475 0 01.047-.171.31.31 0 01.125-.094.993.993 0 01.234-.047c.113-.008.258-.016.438-.016.175 0 .312.012.406.032a.394.394 0 01.219.078c.039.043.05.105.03.187a1.554 1.554 0 01-.093.328zm0 0"/></symbol><symbol overflow="visible" id="az"><path d="M5.547-2.953c0 .18-.043.312-.125.406-.074.086-.184.125-.328.125H1.922c0 .219.023.422.078.61.05.18.133.328.25.453.113.125.258.226.438.296.187.063.406.094.656.094.258 0 .484-.015.672-.047a6.3 6.3 0 00.515-.125l.36-.125a.632.632 0 01.218-.062c.04 0 .07.008.094.016.02.011.035.039.047.078a.26.26 0 01.031.14 1.686 1.686 0 010 .469.806.806 0 01-.015.156.2.2 0 01-.032.11.318.318 0 01-.062.078.583.583 0 01-.203.125 3.451 3.451 0 01-.438.125 6.914 6.914 0 01-.593.11c-.231.038-.47.062-.72.062A3.945 3.945 0 012-.031a2.436 2.436 0 01-.875-.531 2.216 2.216 0 01-.516-.907C.492-1.832.438-2.258.438-2.75c0-.457.054-.867.171-1.234a2.72 2.72 0 01.532-.954c.226-.257.504-.457.828-.593a3.007 3.007 0 011.125-.203c.426 0 .797.062 1.11.187.312.125.566.305.765.531.195.23.343.5.437.813.094.312.14.652.14 1.016zm-1.422-.422c.008-.406-.074-.727-.25-.969-.18-.238-.453-.36-.828-.36-.188 0-.352.04-.485.11-.136.074-.25.172-.343.297A1.27 1.27 0 002-3.875c-.043.156-.07.324-.078.5zm0 0"/></symbol><symbol overflow="visible" id="aA"><path d="M4.078-4.922c0 .149-.008.266-.016.36a.568.568 0 01-.03.203.15.15 0 01-.063.093c-.024.024-.055.032-.094.032a.388.388 0 01-.11-.016c-.03-.008-.074-.02-.124-.031a1.104 1.104 0 00-.172-.047.554.554 0 00-.188-.031.692.692 0 00-.25.046 1.265 1.265 0 00-.25.157 2.354 2.354 0 00-.265.281c-.094.117-.2.262-.313.438v3.234a.2.2 0 01-.031.11.238.238 0 01-.125.077c-.055.012-.125.02-.219.032a4.263 4.263 0 01-.719 0C1.016.004.941-.004.891-.016a.327.327 0 01-.125-.078.172.172 0 01-.032-.11v-5.202c0-.04.008-.07.032-.094.02-.031.054-.055.109-.078a.935.935 0 01.188-.047 3.032 3.032 0 01.609 0 .72.72 0 01.187.047c.051.023.082.047.094.078a.14.14 0 01.031.094v.656a3.35 3.35 0 01.391-.484c.125-.125.238-.223.344-.297a.894.894 0 01.328-.157 1.11 1.11 0 01.328-.046c.05 0 .102.007.156.015.063 0 .125.012.188.032a.676.676 0 01.156.046c.05.012.086.028.11.047.019.024.035.043.046.063a.291.291 0 01.016.093c.008.043.016.106.016.188.007.086.015.195.015.328zm0 0"/></symbol><symbol overflow="visible" id="aB"><path d="M3.75 0l-.625 1.844c-.043.093-.14.16-.297.203-.148.05-.371.078-.672.078a1.94 1.94 0 01-.375-.031.562.562 0 01-.218-.063.188.188 0 01-.079-.125c0-.043.016-.093.047-.156L2.22 0a.29.29 0 01-.14-.11A.834.834 0 012-.265L.203-5.046a.874.874 0 01-.078-.313c0-.07.02-.13.063-.172a.47.47 0 01.234-.078 2.76 2.76 0 01.453-.032c.164 0 .297.008.39.016.102 0 .18.016.235.047.05.023.086.058.11.11a.77.77 0 01.093.202L2.937-1.78h.016l1.11-3.563a.509.509 0 01.093-.187.322.322 0 01.188-.078c.082-.02.234-.032.453-.032.164 0 .3.012.406.032a.519.519 0 01.25.078c.05.043.078.101.078.172a.93.93 0 01-.047.265zm0 0"/></symbol><symbol overflow="visible" id="aC"><path d="M4.969-.64c0 .117-.008.214-.016.296-.012.074-.027.14-.047.203-.011.055-.031.09-.062.11a.18.18 0 01-.11.031H1.281a.47.47 0 01-.328-.11C.867-.19.828-.315.828-.483v-6.86a.18.18 0 01.031-.11.237.237 0 01.125-.062c.063-.02.141-.035.235-.046.101-.02.226-.032.375-.032.156 0 .281.012.375.032.093.011.164.027.218.046.063.012.102.032.126.063.03.031.046.07.046.11v6.077h2.375a.21.21 0 01.11.032c.031.023.05.058.062.109a.72.72 0 01.047.188c.008.085.016.183.016.296zm0 0"/></symbol><symbol overflow="visible" id="aD"><path d="M5.422-5.047c0 .188-.024.328-.063.422-.043.086-.093.125-.156.125h-.61a.78.78 0 01.173.328c.039.117.062.234.062.36 0 .312-.055.59-.156.828a1.56 1.56 0 01-.422.593 1.95 1.95 0 01-.688.36 2.95 2.95 0 01-.89.125 1.81 1.81 0 01-.485-.063 1.154 1.154 0 01-.343-.14 1.42 1.42 0 00-.125.187.378.378 0 00-.063.219c0 .117.051.21.157.281a.761.761 0 00.421.125L3.5-1.25c.29.012.55.055.781.125.239.074.438.18.594.313.156.125.273.28.36.468.081.18.124.38.124.61 0 .257-.058.504-.171.734-.118.227-.29.426-.516.594-.219.164-.5.297-.844.39a4.44 4.44 0 01-1.187.141c-.45 0-.829-.04-1.141-.11a2.242 2.242 0 01-.766-.28 1.208 1.208 0 01-.437-.454A1.134 1.134 0 01.157.72c0-.125.015-.25.046-.375C.234.227.281.117.343.016a2.19 2.19 0 01.25-.297C.689-.383.79-.484.907-.578a.915.915 0 01-.39-.36 1.01 1.01 0 01-.125-.5c0-.226.05-.437.156-.625a1.77 1.77 0 01.406-.515 1.516 1.516 0 01-.328-.485C.539-3.257.5-3.5.5-3.78c0-.301.05-.57.156-.813.114-.238.266-.441.453-.61.188-.163.41-.288.672-.374.27-.094.567-.14.89-.14.157 0 .306.011.454.03.156.024.297.047.422.079h1.656c.07 0 .125.046.156.14.04.086.063.227.063.422zM3.547-3.813c0-.28-.078-.5-.235-.656-.156-.156-.374-.234-.656-.234a.942.942 0 00-.39.078.873.873 0 00-.438.5 1.199 1.199 0 00-.047.344c0 .261.078.469.235.625.156.148.375.219.656.219.144 0 .27-.02.375-.063a.639.639 0 00.281-.188.766.766 0 00.156-.28 1.03 1.03 0 00.063-.345zM3.89.345a.454.454 0 00-.22-.406c-.136-.094-.327-.141-.577-.141L2.047-.234a1.852 1.852 0 00-.235.218 1.104 1.104 0 00-.156.188.577.577 0 00-.062.172 1.013 1.013 0 00-.016.187c0 .196.098.344.297.438.195.101.473.156.828.156.219 0 .399-.023.547-.063a.94.94 0 00.375-.187.674.674 0 00.266-.531zm0 0"/></symbol><symbol overflow="visible" id="aE"><path d="M5.172-.188c0 .063-.024.11-.063.141a.422.422 0 01-.187.063 4.202 4.202 0 01-.75 0A.369.369 0 014-.047c-.031-.031-.047-.078-.047-.14v-.407c-.21.23-.453.414-.734.547a2.15 2.15 0 01-.906.188c-.282 0-.54-.04-.766-.11a1.875 1.875 0 01-.61-.312 1.48 1.48 0 01-.39-.531 2.041 2.041 0 01-.125-.75c0-.301.055-.563.172-.782a1.38 1.38 0 01.531-.562c.238-.145.531-.25.875-.313a6.27 6.27 0 011.219-.11h.515v-.312c0-.164-.023-.312-.062-.437a.653.653 0 00-.156-.297.705.705 0 00-.313-.188 1.529 1.529 0 00-.453-.062 2.2 2.2 0 00-.672.094c-.187.054-.355.11-.5.172a2.783 2.783 0 00-.375.187.483.483 0 01-.234.078.238.238 0 01-.125-.031.327.327 0 01-.078-.125.598.598 0 01-.047-.188 1.585 1.585 0 01-.016-.25c0-.125.008-.218.031-.28a.418.418 0 01.11-.188.788.788 0 01.281-.188c.133-.07.29-.133.469-.187.187-.063.39-.11.61-.14.218-.04.44-.063.671-.063.406 0 .754.043 1.047.125.289.074.531.195.719.359.187.168.32.383.406.64.082.262.125.57.125.923zM3.734-2.405h-.562a3.33 3.33 0 00-.61.047 1.052 1.052 0 00-.406.156.718.718 0 00-.234.265.638.638 0 00-.078.329c0 .218.066.39.203.515.144.125.336.188.578.188.207 0 .398-.051.578-.156.176-.102.352-.254.531-.454zm0 0"/></symbol><symbol overflow="visible" id="aF"><path d="M9.016-.203a.2.2 0 01-.032.11.238.238 0 01-.125.077c-.054.012-.125.02-.218.032a4.263 4.263 0 01-.72 0c-.093-.012-.171-.02-.234-.032a.204.204 0 01-.109-.078.172.172 0 01-.031-.11V-3.28c0-.176-.016-.336-.047-.485a1.085 1.085 0 00-.156-.375.654.654 0 00-.25-.234.856.856 0 00-.375-.078c-.168 0-.344.07-.532.203a3.54 3.54 0 00-.578.594v3.453a.148.148 0 01-.046.11.24.24 0 01-.11.077c-.055.012-.125.02-.219.032a4.263 4.263 0 01-.718 0c-.086-.012-.157-.02-.22-.032a.327.327 0 01-.124-.078.172.172 0 01-.031-.11V-3.28c0-.176-.016-.336-.047-.485a1.085 1.085 0 00-.157-.375.654.654 0 00-.25-.234.823.823 0 00-.359-.078.905.905 0 00-.547.203 3.54 3.54 0 00-.578.594v3.453a.2.2 0 01-.031.11.238.238 0 01-.125.077c-.055.012-.125.02-.219.032a4.263 4.263 0 01-.719 0C1.016.004.941-.004.891-.016a.327.327 0 01-.125-.078.172.172 0 01-.032-.11v-5.202c0-.04.008-.07.032-.094.02-.031.054-.055.109-.078a.935.935 0 01.188-.047 3.032 3.032 0 01.609 0 .72.72 0 01.187.047c.051.023.082.047.094.078a.14.14 0 01.031.094v.61a3.56 3.56 0 01.86-.704 1.89 1.89 0 01.906-.234c.207 0 .395.023.563.062.175.043.332.106.468.188.133.086.25.187.344.312.102.117.188.246.25.39.156-.163.305-.312.453-.437.156-.125.305-.222.453-.297.145-.07.29-.125.438-.156.144-.039.289-.062.437-.062.352 0 .645.058.875.171.239.118.43.278.578.485.145.2.25.433.313.703.062.262.094.543.094.844zm0 0"/></symbol><symbol overflow="visible" id="aG"><path d="M7.094-3.89c0 .699-.094 1.292-.282 1.78-.18.493-.437.891-.78 1.204a3.052 3.052 0 01-1.235.687C4.317-.07 3.742 0 3.078 0H1.281a.47.47 0 01-.328-.11C.867-.19.828-.315.828-.483v-6.579c0-.175.04-.3.125-.375a.489.489 0 01.328-.109H3.22c.664 0 1.234.078 1.703.234.469.157.863.391 1.187.704.32.304.567.683.735 1.14.164.461.25.985.25 1.578zm-1.578.062a3.83 3.83 0 00-.125-1 2.027 2.027 0 00-.407-.797 1.9 1.9 0 00-.718-.531c-.293-.125-.672-.188-1.141-.188h-.766v5.125h.797c.414 0 .766-.05 1.047-.156.29-.113.531-.281.719-.5a2.06 2.06 0 00.437-.813 3.89 3.89 0 00.157-1.14zm0 0"/></symbol><symbol overflow="visible" id="aI"><path d="M3.813-.719c0 .18-.012.313-.032.406a.42.42 0 01-.094.188.381.381 0 01-.156.11c-.062.019-.14.038-.234.062-.086.02-.184.035-.297.047-.105.008-.21.015-.313.015A2.48 2.48 0 011.922 0a1.3 1.3 0 01-.531-.328 1.552 1.552 0 01-.313-.578 3.352 3.352 0 01-.094-.844v-2.656H.36c-.074 0-.132-.047-.171-.14A1.556 1.556 0 01.14-5v-.281a.501.501 0 01.047-.188.24.24 0 01.078-.11.2.2 0 01.109-.03h.61v-1.157a.18.18 0 01.03-.109c.02-.031.055-.055.11-.078.063-.02.14-.035.234-.047a4.184 4.184 0 01.72 0c.093.012.163.027.218.047.05.023.086.047.11.078.03.031.046.07.046.11v1.156h1.125a.21.21 0 01.11.03c.03.024.05.06.062.11a.72.72 0 01.047.188c.008.074.015.168.015.281 0 .21-.023.36-.062.453-.031.094-.086.14-.156.14h-1.14v2.438c0 .282.038.496.124.64.094.15.254.22.485.22.082 0 .156-.004.218-.016l.156-.047.126-.047a.179.179 0 01.093-.031c.02 0 .04.012.063.031.02.012.035.04.047.078.007.043.02.102.03.172.009.063.017.149.017.25zm0 0"/></symbol><symbol overflow="visible" id="aK"><path d="M2.469-1.078c0 .156-.012.297-.031.422-.012.125-.04.246-.079.36a1.224 1.224 0 01-.14.327 4.315 4.315 0 01-.188.344l-.781 1.11a.53.53 0 01-.094.093.253.253 0 01-.125.063.713.713 0 01-.172.046 2.019 2.019 0 01-.25.016c-.117 0-.21-.008-.28-.016a.419.419 0 01-.142-.046c-.03-.024-.046-.047-.046-.079 0-.03.004-.07.015-.109l.719-1.61v-.921c0-.125.016-.227.047-.313a.387.387 0 01.14-.187.696.696 0 01.25-.078 1.97 1.97 0 01.375-.032c.133 0 .25.012.344.032a.595.595 0 01.25.078c.063.043.11.105.14.187a.908.908 0 01.048.313zm0 0"/></symbol><symbol overflow="visible" id="aH"><path d="M3.922-8.516c.062-.125.062-.156.062-.203 0-.14-.109-.25-.25-.25-.093 0-.187.063-.265.281L1.375-3.202c-.031.078-.063.14-.063.219 0 .03 0 .062.063.203l2.094 5.484c.047.125.11.281.265.281.141 0 .25-.109.25-.234 0-.031 0-.063-.062-.188l-2.11-5.546zm0 0"/></symbol><symbol overflow="visible" id="aJ"><path d="M3.266-2.781c.062-.14.062-.172.062-.203 0-.047 0-.063-.062-.204l-2.094-5.5c-.078-.203-.14-.28-.281-.28-.125 0-.235.109-.235.25 0 .03 0 .046.063.187l2.11 5.547L.718 2.53c-.063.14-.063.156-.063.219 0 .125.11.234.235.234.156 0 .203-.109.25-.234zm0 0"/></symbol><clipPath id="a"><path d="M43 77.027h28V110H43zm0 0"/></clipPath><clipPath id="b"><path d="M79 129h5v5.426h-5zm0 0"/></clipPath><clipPath id="c"><path d="M84 129h5v5.426h-5zm0 0"/></clipPath><clipPath id="d"><path d="M89 129h5v5.426h-5zm0 0"/></clipPath><clipPath id="e"><path d="M95 129h5v5.426h-5zm0 0"/></clipPath><clipPath id="f"><path d="M100 129h5v5.426h-5zm0 0"/></clipPath><clipPath id="g"><path d="M105 129h7v5.426h-7zm0 0"/></clipPath><clipPath id="h"><path d="M112 129h5v5.426h-5zm0 0"/></clipPath><clipPath id="i"><path d="M117 129h5v5.426h-5zm0 0"/></clipPath><clipPath id="j"><path d="M122 129h5v5.426h-5zm0 0"/></clipPath><clipPath id="k"><path d="M127 129h7v5.426h-7zm0 0"/></clipPath><clipPath id="l"><path d="M138 129h5v5.426h-5zm0 0"/></clipPath><clipPath id="m"><path d="M143 129h5v5.426h-5zm0 0"/></clipPath><clipPath id="n"><path d="M152 129h5v5.426h-5zm0 0"/></clipPath><clipPath id="o"><path d="M157 129h5v5.426h-5zm0 0"/></clipPath><clipPath id="p"><path d="M162 129h5v5.426h-5zm0 0"/></clipPath><clipPath id="q"><path d="M167 129h5v5.426h-5zm0 0"/></clipPath><clipPath id="r"><path d="M172 129h5.012v5.426H172zm0 0"/></clipPath><clipPath id="s"><path d="M17.246 89H45v43H17.246zm0 0"/></clipPath><clipPath id="t"><path d="M35 93h38v41.426H35zm0 0"/></clipPath><clipPath id="u"><path d="M0 180h191v661.89H0zm0 0"/></clipPath></defs><g clip-path="url(#a)"><path d="M47.457 81.645c3.184-3 7.578-4.54 11.918-4.618 2.184-.007 4.441.356 6.355 1.465 1.856 1.051 3.168 2.875 3.856 4.863.902 2.645.957 5.485.742 8.243-.64 6.425-3.23 12.695-7.543 17.53-.246.274-.445.606-.77.798-.245-.106-.206-.328-.117-.531a15.864 15.864 0 00.696-8.262c-.602-3.301-2.235-6.426-4.664-8.75-1.602-1.649-3.621-2.867-5.778-3.64-2.746-.966-5.746-1.075-8.59-.524a14.085 14.085 0 013.895-6.574" fill="#4383a1"/></g><path d="M84.61 93.93c-.563.101-1.067.59-1.044 1.187-.015 1.961-.004 3.918-.004 5.88-.062.733.614 1.382 1.336 1.362 2.88.016 5.758.004 8.633.008.696.051 1.38-.547 1.367-1.254.004-1.996.004-3.992 0-5.988.043-.684-.609-1.242-1.261-1.227-2.602-.007-5.203 0-7.805-.003-.41.007-.82-.028-1.223.035m-.718-4.754c2.671-.106 5.347-.016 8.02-.047 1.112.027 2.245-.09 3.343.168 1.77.426 3.277 1.758 3.98 3.43.325.757.45 1.582.434 2.402-.012 2.183.02 4.363-.016 6.543-.097 2.867-2.656 5.387-5.523 5.445-3.184.04-6.371.004-9.559.02-.312.004-.68.074-.843.37-.196.36-.165.782-.168 1.173.011.718-.016 1.433.007 2.152.016.375.18.79.559.934.367.105.75.074 1.125.078 4.402-.004 8.809 0 13.21-.004.25.004.517 0 .75.113.22.121.231.402.24.629a444.22 444.22 0 010 3.227c.03.316-.153.683-.513.68-4.867.015-9.73 0-14.593.007-2.387-.027-4.621-1.742-5.305-4.023-.242-.739-.25-1.524-.246-2.297.008-5.13-.012-10.258.008-15.387.004-2.785 2.328-5.32 5.09-5.613m25.195.074c.777-.148 1.57-.121 2.355-.121h12.63c.284.016.628-.004.835.234.262.285.223.7.23 1.059-.011.883.012 1.762-.011 2.644.008.325-.16.668-.48.778-.34.082-.692.047-1.036.054-4.359-.003-8.722 0-13.086-.003-.28.011-.597-.008-.84.168-.222.218-.199.558-.21.847v6.418c.011.281-.012.621.218.828.215.219.551.196.832.211 2.793-.004 5.582.004 8.38 0 .816-.027 1.644.055 2.41.352 1.617.566 2.925 1.906 3.488 3.52.52 1.37.277 2.859.336 4.288a5.736 5.736 0 01-1.27 3.809c-1.074 1.285-2.691 2.144-4.387 2.16-4.75-.004-9.503 0-14.253-.004-.32.02-.711-.11-.782-.46-.113-.641-.03-1.298-.054-1.942.023-.606-.063-1.223.066-1.82.113-.375.563-.418.89-.426 4.63-.008 9.258.004 13.887-.004.375.031.801-.203.801-.617.043-.887.004-1.774.02-2.66-.012-.364.035-.739-.059-1.094-.125-.29-.473-.336-.75-.336-2.988-.004-5.973.004-8.96-.004-1.364-.012-2.77-.39-3.833-1.277-1.316-.95-2.055-2.575-2.058-4.18-.008-2.215-.004-4.434-.004-6.652-.012-1.575.632-3.153 1.777-4.247a5.814 5.814 0 012.918-1.523m26.614 4.66c-.395.04-.786.25-1.005.586-.191.29-.168.649-.172.98.008 1.88-.007 3.758.004 5.641-.007.703.676 1.274 1.36 1.246 2.879.008 5.754.004 8.633.004.683.043 1.355-.566 1.332-1.262v-5.984c.046-.703-.653-1.27-1.325-1.223-2.941.008-5.886-.023-8.828.012m-.824-4.734c2.672-.102 5.352-.02 8.027-.047.98.02 1.97-.059 2.946.094 2.582.43 4.718 2.812 4.765 5.449.008 2.297.004 4.594 0 6.89-.031 2.458-1.875 4.704-4.218 5.352-.68.203-1.403.223-2.11.219-2.867-.004-5.738.004-8.61 0-.37-.004-.84.043-1.019.422-.195.422-.117.906-.133 1.36.024.73-.05 1.464.043 2.19.059.477.54.766.996.735 4.668.008 9.336 0 14.004.004.282.011.645.015.786.308.09.368.039.75.05 1.125-.015.922.028 1.844-.02 2.766 0 .293-.312.465-.577.45-4.828.007-9.657-.005-14.485.003-1.636-.016-3.21-.82-4.25-2.07-.882-1-1.324-2.348-1.308-3.672-.008-5.016 0-10.031-.004-15.047-.004-.703-.008-1.41.152-2.098.516-2.312 2.606-4.187 4.965-4.433m26.211 4.734c-.352.004-.688.278-.656.649-.02 2.257 0 4.52-.012 6.777.012.289-.016.648.234.855.243.2.57.168.86.18 2.953-.012 5.906.004 8.855-.012.38.032.664-.328.645-.687.011-2.371.004-4.746.004-7.117.043-.422-.383-.707-.774-.66-3.05.011-6.105-.016-9.156.015m-1.012-4.668c.703-.129 1.418-.113 2.13-.113h6.894c.957.004 1.933-.047 2.859.242 2.55.715 4.332 3.356 4.145 5.984-.004 2.036.003 4.067-.004 6.098-.043 2.945-2.637 5.629-5.602 5.668-3.07.024-6.144.008-9.215.012-.234.008-.496.008-.676.176-.187.171-.164.449-.183.68v7.59c-.004.257-.031.546-.219.745-.21.184-.508.164-.766.172-1.074-.008-2.144.004-3.218-.004-.266-.004-.563-.07-.719-.305-.172-.242-.152-.554-.16-.835.008-6.77-.008-13.54.004-20.305-.012-1.649.652-3.317 1.898-4.414.781-.727 1.785-1.188 2.832-1.39M80.637 121.95c.015.425-.067.87.047 1.284.523.079 1.054.024 1.578.028.008-.438.008-.875.008-1.313h-1.633m-.82.063c-.016-.477.355-.969.855-.969.531-.027 1.062-.02 1.594-.004.496.004.925.461.914.953.015.469.02.942-.004 1.41a.664.664 0 01-.567.657c-.64.058-1.28-.04-1.918.046a3.093 3.093 0 00-.086.422c.848.04 1.704-.05 2.543.051.067.281.032.574.028.863a53.39 53.39 0 01-2.531 0c-.47-.011-.832-.464-.825-.914-.015-.84-.011-1.68-.004-2.515m4.016-.305c.14-.394.54-.668.953-.668a42.55 42.55 0 012.445.012c.012.3.004.605-.085.894-.782.008-1.567.004-2.352.004 0 .438 0 .875.008 1.317.613.043 1.25-.082 1.851.09.961.363.696 2.054-.347 2.085-.848-.007-1.711.09-2.551-.066.004-.25.008-.496.02-.742.828-.203 1.69-.055 2.535-.098.004-.11.007-.324.007-.433-.55-.055-1.105 0-1.656-.047-.496-.043-.93-.504-.898-1.012-.004-.445-.043-.902.07-1.336m4.086.293c.016-.484.41-.945.906-.96a20.29 20.29 0 011.48-.005c.329.016.755.098.868.45.191.445.129.945.094 1.41-.29 0-.575 0-.864-.008a9.416 9.416 0 01-.047-.938h-1.511v2.586h1.52c.015-.34-.055-.695.07-1.02.257-.078.539-.054.8-.019.118.332.059.7.055 1.047-.02.496-.477.93-.973.906-.511.008-1.023.016-1.535-.008-.5-.03-.883-.523-.87-1.011-.005-.809-.016-1.621.007-2.43m4.972-.05v2.585h1.524v-2.586h-1.523m-.364-.824c.387-.156.817-.078 1.223-.098.406.02.883-.078 1.215.215.265.203.39.54.379.867.004.77.004 1.543 0 2.313.027.5-.38 1.008-.89 1.023-.571.012-1.145.028-1.716-.015-.511-.094-.824-.633-.77-1.13.009-.765-.007-1.527.009-2.292 0-.371.226-.715.55-.883m3.504-.085c.301-.009.602-.009.903.01.011 1.16.004 2.321.004 3.485.664.012 1.328-.031 1.988.016.293.176.101.601.133.886-.778.02-1.551.02-2.325.012-.285 0-.554-.207-.66-.469-.078-.257-.05-.53-.054-.793.011-1.05-.016-2.097.011-3.148m4.543 3.492h1.621c0-.43 0-.86-.004-1.289-.535-.004-1.066-.004-1.597 0-.031.43-.028.86-.02 1.29m-.812-2.626c.031-.277-.11-.64.086-.86.722-.038 1.449-.01 2.172-.015.554-.035 1.113.418 1.101.989.012.8.008 1.601.004 2.402a1 1 0 01-.54.91c-.573.234-1.226.082-1.831.121-.477.047-.938-.32-.98-.8-.04-.54-.024-1.083-.012-1.626-.024-.308.23-.605.543-.605.629-.035 1.257 0 1.886-.02l.004-.453c-.812-.02-1.625.043-2.433-.043m7.246.199c-.024-.55.437-1.062 1-1.066.793-.012 1.594-.027 2.39.008.16.238.09.598-.003.863-.782.09-1.575.016-2.36.04 0 .437 0 .874.004 1.316.594.03 1.2-.059 1.785.066.832.238.875 1.523.188 1.953-.282.207-.653.16-.98.172-.614-.02-1.231.027-1.84-.023-.262-.051-.184-.371-.192-.559-.055-.242.215-.336.406-.336.719-.02 1.438.004 2.156-.008-.007-.148-.011-.297-.015-.441-.68-.094-1.43.14-2.063-.18-.644-.367-.468-1.191-.476-1.805m4.164-1.074c.254.031.566-.082.781.078.047 1.141-.004 2.282.02 3.422.547.004 1.09.004 1.636.004.004-1.164-.015-2.324.008-3.484.285-.02.574-.024.863-.024.133 1.086.024 2.192.06 3.285.065.536-.337 1.114-.9 1.133-.546.012-1.093.02-1.64-.004-.52-.004-.875-.543-.848-1.027.004-1.129-.023-2.258.02-3.383m4.863.922c.016.422-.055.856.043 1.274.516.097 1.05.023 1.574.039.004-.438 0-.88 0-1.317-.539 0-1.078 0-1.617.004m-.433-.723c.386-.296.906-.175 1.355-.203.445.008 1.004-.066 1.309.344.359.52.164 1.2.203 1.793.004.45-.364.879-.824.895-.532.039-1.067-.004-1.598.03-.024.411.008.825-.031 1.24-.168.257-.555.073-.813.077-.004-1.097-.008-2.191 0-3.285-.004-.34.117-.687.399-.89m4.582.722c-.004.434-.008.871.007 1.313.504.007 1.008.004 1.508.004.008-.442.004-.883.004-1.32-.508 0-1.016 0-1.52.003m-.913.043c.007-.484.41-.95.906-.957a20.98 20.98 0 011.484-.004c.485-.02.922.39.961.871.031.489.024.98.004 1.473.008.344-.27.672-.617.683-.602.032-1.207-.003-1.813.02-.007.148-.015.297-.02.45.821.023 1.645-.048 2.462.046 0 .29-.004.582-.02.875-.824-.008-1.648.016-2.472-.008-.512-.023-.907-.523-.883-1.02 0-.808-.012-1.62.008-2.429m4.054-.058c.024-.497.477-.926.977-.903.496-.012.992-.02 1.488.004.441.02.836.402.883.84a6.12 6.12 0 010 1.031c-.203.211-.57.078-.832.074-.125-.328-.059-.691-.074-1.035h-1.536c-.015 1.164.028 2.332-.023 3.492-.293.008-.582.012-.871.016-.047-1.172-.027-2.348-.012-3.52m4.051-.897c.29-.009.582-.013.875-.005.008.278.137.613-.047.86-.254.105-.555.07-.812 0-.047-.286-.028-.57-.016-.856m2.402.914c-.007.86-.007 1.719 0 2.578.543.004 1.086.004 1.633.004-.004-.863-.004-1.726 0-2.586-.547 0-1.09 0-1.633.004m-.27-.844c.43-.136.891-.062 1.337-.082.375.012.808-.058 1.113.211.27.207.395.543.383.875.004.774.004 1.543 0 2.313.027.504-.387 1.008-.899 1.02-.425.019-.855.003-1.28.007-.286-.008-.618.016-.84-.195-.294-.219-.376-.602-.368-.953.004-.766-.012-1.528.008-2.297 0-.371.203-.738.547-.899m3.512 1.004c-.028-.418.207-.843.597-1.008.403-.132.832-.058 1.25-.078.422.004.934-.058 1.238.305.43.445.258 1.113.266 1.668a30.74 30.74 0 01-.851.012c-.079-.348-.07-.707-.067-1.063-.539 0-1.078-.004-1.617.004-.008 1.164.004 2.332-.008 3.5-.27 0-.535-.004-.805-.012-.015-1.109-.007-2.218-.003-3.328m8.168 1.141c-.004.426-.004.851 0 1.277.542.004 1.085.004 1.632.004v-1.293a37.924 37.924 0 00-1.632.012m1.656-2.137c.191-.187.531-.047.781-.078.031 1.125.012 2.25.012 3.375.031.445-.25.941-.715 1.012-.547.054-1.094.027-1.637.02-.398 0-.73-.333-.851-.692-.106-.488-.082-.996-.043-1.492.015-.473.453-.844.91-.848.5-.023 1.004 0 1.504-.004.027-.43-.012-.863.039-1.293m2.39.84c-.004.434-.015.871.036 1.3.53.016 1.062.013 1.597.013.004-.442.004-.88.004-1.32-.547 0-1.094-.009-1.637.007m-.804-.043c.05-.45.43-.86.894-.875.496-.023.992-.016 1.488-.004.52-.023.985.442.981.953.016.496.031 1-.012 1.496a.662.662 0 01-.61.579c-.62.042-1.245-.024-1.866.03-.051.134-.075.282-.106.427.863.05 1.738-.043 2.602.058.004.29 0 .582-.024.875-.828-.012-1.652.016-2.48-.008-.512-.027-.895-.53-.879-1.023 0-.836-.027-1.672.012-2.508m-17.051.301c.289-.008.578-.008.867-.004.078 1.078.07 2.168.004 3.242-.29 0-.582-.004-.871-.008a55.67 55.67 0 010-3.23" fill="#4383a1"/><g clip-path="url(#b)"><path d="M80.863 130.172c-.027.46-.027.926.016 1.387.625.015 1.254.007 1.883.007.043-.449.066-.906.015-1.355-.629-.11-1.277-.031-1.914-.04m-1.039-.015c-.004-.52.442-.949.942-.996.652-.062 1.308-.039 1.957-.02.492.008 1.004.333 1.074.844.066.512.05 1.036.016 1.551-.036.547-.508 1.074-1.075 1.063-.629.02-1.258-.016-1.886.023-.004.219-.004.441-.008.664.976.02 1.953-.012 2.93.02.046.328.058.66.042.992h-3.304c-.453-.188-.711-.668-.696-1.145 0-1-.02-1.996.008-2.996" fill="#4383a1"/></g><g clip-path="url(#c)"><path d="M84.867 129.125c.973.012 1.945-.016 2.918.012.602 0 1.2.504 1.156 1.136-.015 1.34.047 2.684-.039 4.024h-.972c-.051-1.379-.008-2.758-.024-4.137-.683 0-1.363 0-2.047.004-.011 1.375.008 2.754-.011 4.133h-.98c-.09-.727-.028-1.457-.044-2.188.02-.992-.047-1.992.043-2.984" fill="#4383a1"/></g><g clip-path="url(#d)"><path d="M90.27 129.441c.515-.445 1.246-.285 1.87-.316.598-.016 1.395-.035 1.704.598.199.539.09 1.132.094 1.699-.32 0-.649.02-.97-.031-.081-.403-.046-.82-.05-1.23-.648 0-1.297 0-1.945.003-.008.469-.008.938-.004 1.406.566-.004 1.14-.023 1.707.04 0 .308.015.62-.028.925-.546.14-1.125.04-1.68.067 0 .562.005 1.128-.011 1.695h-1.012c-.027-1.227 0-2.45-.015-3.676.004-.41.004-.89.34-1.18" fill="#4383a1"/></g><g clip-path="url(#e)"><path d="M96.129 131.563c.629.007 1.258.019 1.887-.012 0-.442.12-.934-.047-1.348-.61-.094-1.235-.02-1.848-.043a7.01 7.01 0 00.008 1.403m-.922-1.895c.3-.54.988-.559 1.535-.543.656.043 1.43-.152 1.973.324.543.461.328 1.242.363 1.863.047.657-.52 1.305-1.187 1.29-.598.011-1.196-.008-1.797 0 0 .23 0 .46-.004.691.957.008 1.914-.031 2.867.027.004.325.004.649 0 .977h-3.238a1.23 1.23 0 01-.653-1.047c-.027-.645.004-1.293-.007-1.938.027-.546-.098-1.132.148-1.644" fill="#4383a1"/></g><g clip-path="url(#f)"><path d="M100.363 129.52c.45-.497 1.176-.38 1.778-.395.535.02 1.136-.086 1.597.246.328.223.489.621.457 1.012-.023.336.075.719-.097 1.023-.328-.008-.758.137-1.02-.097-.047-.38-.023-.766-.023-1.149-.649 0-1.301 0-1.95.004-.011 1.379.012 2.754-.011 4.133h-.977c-.11-1.11-.02-2.223-.05-3.336.015-.484-.102-1.066.296-1.441" fill="#4383a1"/></g><g clip-path="url(#g)"><path d="M105.094 129.137c1.582-.02 3.164-.004 4.746-.012.422-.012.887.105 1.152.457.317.344.219.84.235 1.266-.028 1.148.043 2.3-.04 3.449h-.976c-.05-1.379-.008-2.758-.023-4.137-.504 0-1.012 0-1.516.004-.012 1.375.012 2.754-.012 4.133h-.996c-.07-1.375-.008-2.758-.031-4.137h-1.516c-.027 1.38.031 2.758-.031 4.137h-.992a174.79 174.79 0 010-5.16" fill="#4383a1"/></g><g clip-path="url(#h)"><path d="M113.422 131.902c-.11.45-.05.914-.043 1.371.46.024.922.02 1.387.02.168-.027.386.047.523-.082a5.16 5.16 0 00-.023-1.344c-.614.008-1.239-.07-1.844.035m-1.094-2.761c.89-.024 1.79-.016 2.68-.012.418-.016.867.129 1.125.48.25.274.215.668.219 1.016-.016.879.011 1.758-.008 2.637 0 .523-.453.902-.918 1.035h-2.114c-.433-.059-.87-.348-.94-.8-.075-.532-.06-1.075-.024-1.61.039-.535.5-1 1.035-1.043.64-.055 1.285-.008 1.926-.024.004-.222.004-.441.004-.656a349.21 349.21 0 00-2.895 0 4.75 4.75 0 01-.09-1.023" fill="#4383a1"/></g><g clip-path="url(#i)"><path d="M118.387 130.203c-.024.45-.028.902.02 1.352.628.023 1.257.015 1.886.007.043-.46.043-.925.016-1.386-.641-.016-1.286-.047-1.922.027m-1.047.067c-.035-.606.523-1.098 1.097-1.125.66-.032 1.32-.04 1.977.003.563.043 1.09.54 1.047 1.13 0 .956.004 1.913-.004 2.874.02.493-.258 1.032-.77 1.145h-3.117c-.011-.234-.023-.469-.011-.7.004-.117.03-.327.195-.292.855-.035 1.715 0 2.574-.016-.004-.23-.004-.46-.004-.687-.511 0-1.023.003-1.531.003-.387.028-.797-.046-1.07-.343-.567-.504-.352-1.328-.383-1.992" fill="#4383a1"/></g><g clip-path="url(#j)"><path d="M123.523 130.191c-.066.442-.066.899.016 1.344.613.078 1.238.016 1.86.031.011-.457.14-.968-.047-1.394-.606-.016-1.223-.04-1.829.02m-1.027-.247c.149-.472.625-.793 1.11-.808.609-.02 1.226-.032 1.84.011.484.028.968.391 1.003.903.043.5.04 1.004.004 1.508-.035.515-.473 1.004-1 1.035-.648.031-1.293-.008-1.941.02a19.12 19.12 0 00-.035.667c.851.024 1.703 0 2.554.008.14.008.305-.004.418.098.04.3.02.605.016.91h-3.055c-.437-.117-.879-.438-.937-.914-.055-.653-.008-1.305-.024-1.957.012-.496-.043-.996.047-1.48" fill="#4383a1"/></g><g clip-path="url(#k)"><path d="M127.598 129.133c1.504-.016 3.007 0 4.511-.008.434-.004.93.027 1.239.375.289.297.265.738.277 1.125-.012 1.223.004 2.445-.012 3.672h-1c-.066-1.375-.011-2.758-.031-4.133a98.018 98.018 0 00-1.516 0c-.011 1.375.012 2.754-.015 4.133h-.973c-.11-1.375-.02-2.758-.047-4.137h-1.422c-.011 1.38.024 2.758-.02 4.137h-.987a113.793 113.793 0 01-.004-5.164" fill="#4383a1"/></g><g clip-path="url(#l)"><path d="M139.7 131.875c-.012.469-.009.938-.009 1.406.653.016 1.301.008 1.954.008 0-.476 0-.953-.004-1.43-.649-.004-1.293-.02-1.942.016m1.985-2.715c.3-.004.757-.172.964.098.07.644.012 1.293.032 1.941-.024.754.039 1.512-.032 2.266-.054.465-.5.765-.937.832h-2.078c-.45-.106-.867-.442-.942-.914-.058-.465-.046-.934-.023-1.399.023-.593.55-1.117 1.14-1.148.61-.04 1.223-.004 1.837-.016.011-.55-.04-1.11.039-1.66" fill="#4383a1"/></g><g clip-path="url(#m)"><path d="M144.816 130.16v3.13c.653 0 1.301.01 1.95-.009.004-1.039.007-2.078 0-3.117-.649-.004-1.301-.004-1.95-.004m-1.023 0c-.012-.515.422-.972.934-1.012a17.56 17.56 0 011.976-.003c.582.023 1.133.527 1.098 1.128 0 .997.012 1.997-.004 2.993-.004.539-.5.957-1.008 1.03h-2.137c-.484-.093-.882-.526-.859-1.034a91.216 91.216 0 010-3.102" fill="#4383a1"/></g><g clip-path="url(#n)"><path d="M153.66 130.16v1.41h1.852v-1.41zm-.746-.676c.316-.34.813-.359 1.25-.359.5.008 1.004-.027 1.5.035.5.067.93.504.969 1.012.031.422.027.844.008 1.262-.004.625-.582 1.195-1.211 1.168-.59.011-1.18-.008-1.77 0-.004.566.02 1.132-.031 1.695h-.984c-.04-1.188-.008-2.375-.024-3.559.008-.425-.027-.922.293-1.254" fill="#4383a1"/></g><g clip-path="url(#o)"><path d="M158.672 130.164c-.004 1.04 0 2.078 0 3.117.683.016 1.367.012 2.05 0 0-1.039 0-2.078-.003-3.12-.684 0-1.364 0-2.047.003m-1.031.106c-.028-.606.52-1.102 1.101-1.125a21.261 21.261 0 011.867-.008c.516.011 1.051.379 1.13.91.042 1.031.007 2.07.019 3.101.054.579-.43 1.047-.969 1.149h-2.203c-.48-.117-.938-.512-.941-1.04-.02-.995-.008-1.991-.004-2.987" fill="#4383a1"/></g><g clip-path="url(#p)"><path d="M163.055 129.52c.453-.508 1.191-.375 1.797-.395.59.016 1.351-.117 1.73.46.324.548.148 1.227.172 1.833-.324.004-.649.023-.969-.027-.082-.403-.047-.82-.05-1.23-.653 0-1.301 0-1.95.003-.015 1.375.008 2.754-.012 4.133h-.98c-.07-1.149-.008-2.297-.035-3.445.008-.457-.07-.993.297-1.332" fill="#4383a1"/></g><g clip-path="url(#q)"><path d="M167.898 129.125c.332 0 .66.004.993.016.023.562.015 1.12.015 1.683.543.02 1.106-.07 1.637.063.137.289.078.636.031.945-.554.055-1.113.012-1.668.023v1.43c.653.012 1.301.008 1.953.008.02-.422-.074-.871.082-1.273.313-.043.63-.016.942.007.004.489.047.98-.031 1.465-.075.457-.512.754-.95.805h-2.097c-.512-.086-.942-.516-.926-1.05-.004-1.376-.031-2.75.02-4.122" fill="#4383a1"/></g><g clip-path="url(#r)"><path d="M174.023 130.164c-.007 1.04-.003 2.078-.003 3.117.648.016 1.3.016 1.949 0v-3.117a157.79 157.79 0 00-1.946 0m-.71-.715c.44-.406 1.09-.308 1.64-.328.582.027 1.266-.101 1.738.328.36.328.313.848.317 1.29-.02.874.027 1.753-.02 2.628-.02.504-.472.86-.937.93h-2.09c-.477-.067-.93-.426-.953-.934-.063-.836-.004-1.68-.028-2.515.008-.477-.054-1.047.333-1.399" fill="#4383a1"/></g><g clip-path="url(#s)"><path d="M27.93 89.52c3.445-.641 6.992-.438 10.433.136.223.035.442.082.653.168-.297.215-.618.395-.926.586-2.305 1.48-4.238 3.54-5.528 5.953a15.959 15.959 0 00-1.726 5.598c-.477 3.95.32 7.937 1.625 11.652.555 1.414 1.086 2.84 1.754 4.207 2.105 4.328 5.004 8.285 8.55 11.547.712.668 1.505 1.238 2.235 1.88.008.222-.102.296-.32.233-6.727-1.863-12.836-5.703-17.668-10.71a45.101 45.101 0 01-7.207-9.793c-1.64-3.122-2.735-6.633-2.535-10.192.136-2.703 1.144-5.406 3.03-7.379 1.981-2.156 4.798-3.34 7.63-3.886" fill="#b0d5d5"/></g><g clip-path="url(#t)"><path d="M71.617 95.04c.117-.438.094-.942.403-1.306.07.204.105.418.101.637.063 2.867-.242 5.754-.996 8.527-1.18 4.618-3.441 8.84-5.469 13.125-1.695 3.547-3.117 7.278-3.633 11.2-.214 1.664-.39 3.359-.984 4.941-.34.941-.996 1.871-2.012 2.133-1.332.344-2.703-.063-4-.383a26.464 26.464 0 01-11.867-6.559c-3.27-3.12-5.777-7.003-7.46-11.187.023-.336.347-.113.48.02a16.406 16.406 0 009.644 3.906c2.676.187 5.352-.418 7.832-1.395 3.614-1.422 6.762-3.836 9.36-6.699a36.7 36.7 0 008.601-16.96" fill="#73abb9"/></g><path d="M0 30.469h190.21V-.011H0zm0 0" fill="#4283a1"/><g clip-path="url(#u)"><path d="M.102 841.918h190.21v-660.93H.102zm0 0" fill="#4283a1"/></g><use xlink:href="#v" x="300.093" y="100.517"/><use xlink:href="#w" x="309.941" y="100.517"/><use xlink:href="#x" x="319.7" y="100.517"/><use xlink:href="#y" x="327.979" y="100.517"/><use xlink:href="#z" x="335.047" y="100.517"/><use xlink:href="#v" x="339.037" y="100.517"/><use xlink:href="#A" x="348.885" y="100.517"/><use xlink:href="#y" x="361.767" y="100.517"/><use xlink:href="#B" x="368.835" y="100.517"/><use xlink:href="#C" x="376.741" y="100.517"/><use xlink:href="#D" x="386.17" y="100.517"/><use xlink:href="#D" x="396.273" y="100.517"/><use xlink:href="#E" x="406.375" y="100.517"/><use xlink:href="#D" x="416.073" y="100.517"/><use xlink:href="#F" x="426.176" y="100.517"/><use xlink:href="#G" x="436.412" y="100.517"/><use xlink:href="#D" x="444.362" y="100.517"/><use xlink:href="#x" x="454.465" y="100.517"/><use xlink:href="#H" x="462.743" y="100.517"/><use xlink:href="#D" x="469.737" y="100.517"/><use xlink:href="#I" x="337.487" y="131.125"/><use xlink:href="#J" x="348.412" y="131.125"/><use xlink:href="#K" x="357.603" y="131.125"/><use xlink:href="#L" x="365.045" y="131.125"/><use xlink:href="#M" x="372.083" y="131.125"/><use xlink:href="#K" x="377.104" y="131.125"/><use xlink:href="#K" x="384.547" y="131.125"/><use xlink:href="#N" x="395.351" y="131.125"/><use xlink:href="#O" x="405.005" y="131.125"/><use xlink:href="#P" x="412.163" y="131.125"/><use xlink:href="#K" x="424.103" y="131.125"/><use xlink:href="#Q" x="431.516" y="131.125"/><use xlink:href="#R" x="295.802" y="331.813"/><use xlink:href="#S" x="307.832" y="331.813"/><use xlink:href="#T" x="316.305" y="331.813"/><use xlink:href="#U" x="323.598" y="331.813"/><use xlink:href="#V" x="331.503" y="331.813"/><use xlink:href="#W" x="342.143" y="331.813"/><use xlink:href="#X" x="348.106" y="331.813"/><use xlink:href="#N" x="357.999" y="331.813"/><use xlink:href="#Y" x="367.653" y="331.813"/><use xlink:href="#R" x="380.445" y="331.813"/><use xlink:href="#N" x="389.097" y="331.813"/><use xlink:href="#J" x="398.751" y="331.813"/><use xlink:href="#Z" x="411.319" y="331.813"/><use xlink:href="#aa" x="415.085" y="331.813"/><use xlink:href="#ab" x="427.862" y="331.813"/><use xlink:href="#U" x="435.588" y="331.813"/><use xlink:href="#T" x="443.703" y="331.813"/><use xlink:href="#ac" x="450.861" y="331.813"/><use xlink:href="#ac" x="457.72" y="331.813"/><use xlink:href="#Z" x="464.58" y="331.813"/><use xlink:href="#S" x="468.345" y="331.813"/><use xlink:href="#T" x="476.819" y="331.813"/><use xlink:href="#ad" x="264.178" y="349.94"/><use xlink:href="#ae" x="271.456" y="349.94"/><use xlink:href="#T" x="280.766" y="349.94"/><use xlink:href="#ac" x="287.924" y="349.94"/><use xlink:href="#Z" x="294.783" y="349.94"/><use xlink:href="#ac" x="298.549" y="349.94"/><use xlink:href="#ad" x="308.771" y="349.94"/><use xlink:href="#Z" x="316.049" y="349.94"/><use xlink:href="#ad" x="319.815" y="349.94"/><use xlink:href="#W" x="327.092" y="349.94"/><use xlink:href="#T" x="333.369" y="349.94"/><use xlink:href="#af" x="344.039" y="349.94"/><use xlink:href="#Z" x="357.339" y="349.94"/><use xlink:href="#ad" x="361.105" y="349.94"/><use xlink:href="#ae" x="368.383" y="349.94"/><use xlink:href="#R" x="381.07" y="349.94"/><use xlink:href="#ag" x="393.1" y="349.94"/><use xlink:href="#X" x="399.84" y="349.94"/><use xlink:href="#U" x="409.733" y="349.94"/><use xlink:href="#ah" x="417.713" y="349.94"/><use xlink:href="#T" x="425.678" y="349.94"/><use xlink:href="#J" x="432.97" y="349.94"/><use xlink:href="#W" x="445.523" y="349.94"/><use xlink:href="#Z" x="451.8" y="349.94"/><use xlink:href="#N" x="455.566" y="349.94"/><use xlink:href="#T" x="465.22" y="349.94"/><use xlink:href="#ai" x="475.905" y="349.94"/><use xlink:href="#U" x="484.034" y="349.94"/><use xlink:href="#T" x="492.149" y="349.94"/><use xlink:href="#R" x="499.292" y="349.94"/><use xlink:href="#aj" x="507.945" y="349.94"/><use xlink:href="#ak" x="361.895" y="371.38"/><use xlink:href="#al" x="369.247" y="371.38"/><use xlink:href="#am" x="371.985" y="371.38"/><use xlink:href="#am" x="376.66" y="371.38"/><use xlink:href="#an" x="381.334" y="371.38"/><use xlink:href="#ao" x="387.288" y="371.38"/><use xlink:href="#ap" x="391.46" y="371.38"/><use xlink:href="#aq" x="395.322" y="371.38"/><use xlink:href="#ar" x="401.048" y="371.38"/><use xlink:href="#as" x="406.01" y="371.38"/><use xlink:href="#at" x="411.736" y="371.38"/><use xlink:href="#au" x="327.279" y="670.591"/><use xlink:href="#av" x="331.236" y="670.591"/><use xlink:href="#aw" x="337.668" y="670.591"/><use xlink:href="#ax" x="344.088" y="670.591"/><use xlink:href="#ay" x="353.21" y="670.591"/><use xlink:href="#az" x="359.666" y="670.591"/><use xlink:href="#aA" x="365.679" y="670.591"/><use xlink:href="#aB" x="369.971" y="670.591"/><use xlink:href="#aC" x="378.34" y="670.591"/><use xlink:href="#av" x="383.397" y="670.591"/><use xlink:href="#ax" x="389.829" y="670.591"/><use xlink:href="#aD" x="396.249" y="670.591"/><use xlink:href="#ax" x="401.915" y="670.591"/><use xlink:href="#aE" x="408.335" y="670.591"/><use xlink:href="#aF" x="414.241" y="670.591"/><use xlink:href="#az" x="423.961" y="670.591"/><use xlink:href="#aG" x="432.676" y="670.591"/><use xlink:href="#av" x="440.208" y="670.591"/><use xlink:href="#az" x="446.64" y="670.591"/><use xlink:href="#aH" x="350.416" y="796.58"/><use xlink:href="#aF" x="355.065" y="796.58"/><use xlink:href="#av" x="364.785" y="796.58"/><use xlink:href="#ax" x="371.216" y="796.58"/><use xlink:href="#aI" x="377.529" y="796.58"/><use xlink:href="#aw" x="381.677" y="796.58"/><use xlink:href="#aJ" x="388.082" y="796.58"/><use xlink:href="#aK" x="392.731" y="796.58"/><use xlink:href="#aH" x="398.516" y="796.58"/><use xlink:href="#aB" x="403.166" y="796.58"/><use xlink:href="#az" x="408.701" y="796.58"/><use xlink:href="#aE" x="414.715" y="796.58"/><use xlink:href="#aA" x="420.621" y="796.58"/><use xlink:href="#aJ" x="424.864" y="796.58"/></svg>