<?xml version="1.0" encoding="UTF-8" standalone="no"?>
<!DOCTYPE svg PUBLIC "-//W3C//DTD SVG 20010904//EN"
"http://www.w3.org/TR/2001/REC-SVG-20010904/DTD/svg10.dtd">
<!-- Created with Inkscape (http://www.inkscape.org/) -->
<svg
   id="svg1"
   sodipodi:version="0.32"
   inkscape:version="0.39"
   width="160.00000pt"
   height="160.00000pt"
   sodipodi:docbase="/home/nicu/Desktop/knit"
   sodipodi:docname="knitting.svg"
   xmlns="http://www.w3.org/2000/svg"
   xmlns:cc="http://web.resource.org/cc/"
   xmlns:inkscape="http://www.inkscape.org/namespaces/inkscape"
   xmlns:sodipodi="http://sodipodi.sourceforge.net/DTD/sodipodi-0.dtd"
   xmlns:rdf="http://www.w3.org/1999/02/22-rdf-syntax-ns#"
   xmlns:dc="http://purl.org/dc/elements/1.1/"
   xmlns:xlink="http://www.w3.org/1999/xlink">
  <defs
     id="defs3" />
  <sodipodi:namedview
     id="base"
     pagecolor="#ffffff"
     bordercolor="#666666"
     borderopacity="1.0"
     inkscape:pageopacity="0.0"
     inkscape:pageshadow="2"
     inkscape:zoom="1.00000000"
     inkscape:cx="41.680023"
     inkscape:cy="93.995514"
     inkscape:window-width="818"
     inkscape:window-height="528"
     inkscape:window-x="231"
     inkscape:window-y="63" />
  <path
     style="fill:#000000;fill-opacity:1.0000000;fill-rule:evenodd;stroke:none;stroke-width:1.0000000pt;stroke-linecap:butt;stroke-linejoin:miter;stroke-opacity:1.0000000;"
     d="M 54.085086,41.353505 C 49.525564,40.521756 44.665461,44.249594 49.657470,46.930066 C 54.647140,57.632090 43.973746,59.233926 36.930760,63.035039 C 35.015203,68.019411 23.856489,75.091406 33.434086,74.012143 C 43.154139,76.460417 47.815000,80.083927 50.949661,89.202188 C 57.032806,90.532228 51.656343,97.900868 49.295757,97.016598 C 44.703780,91.622508 48.022132,95.975868 51.053012,95.879998 C 43.225308,94.266628 37.509511,78.328525 38.174345,78.481223 C 37.629030,82.355390 42.837163,90.495638 37.481167,83.592474 C 29.234656,73.955107 20.084869,64.967245 12.720155,54.650586 C 13.775951,46.830796 -0.53618250,59.914357 9.0753514,58.213467 C 14.504088,64.312565 20.674748,71.054353 25.644579,76.755923 C 18.694050,86.086578 13.354209,98.384118 18.127563,109.89933 C 21.555723,120.17186 23.688757,131.61306 30.573815,140.17537 C 39.439589,141.68915 45.899533,152.55285 55.846737,150.13548 C 43.121292,152.04337 50.283111,134.72601 53.739385,127.84743 C 59.169017,117.22543 66.555226,107.64044 74.987757,99.233918 C 67.894396,103.66603 61.648637,113.91986 56.437801,121.56667 C 50.733818,129.11253 48.492016,141.87762 46.945406,148.10923 C 39.293689,143.74504 46.956333,130.70737 49.828128,123.65187 C 55.504635,113.00015 62.859368,103.22995 71.362822,94.677338 C 65.092443,98.463078 59.519667,107.58365 54.603130,114.24207 C 48.507280,123.74133 42.569167,134.45301 43.362726,146.12094 C 34.405564,140.70346 40.871560,126.86467 44.020097,118.92102 C 47.124894,113.92244 52.341138,103.38150 56.066944,102.74029 C 62.482304,106.45859 57.120975,94.561158 63.757230,93.576308 C 72.297982,84.445041 57.949542,100.01371 59.261154,94.892048 C 58.964676,89.779758 56.407897,79.975615 63.602784,87.627288 C 72.999293,94.965258 82.974304,105.12212 81.673751,118.04749 C 81.166531,124.63098 83.865364,140.40717 81.310070,140.87206 C 78.373976,136.19576 71.513109,131.34504 80.733641,134.08496 C 84.364226,132.67835 71.404440,134.18811 72.085857,128.97475 C 67.450730,123.77234 61.773031,118.47404 70.077845,113.54336 C 73.065145,106.25545 77.167717,119.00519 81.272110,115.32592 C 73.989449,115.26650 72.505835,108.61795 77.426843,105.56828 C 66.730248,114.99471 56.837181,126.50216 53.294750,140.80379 C 51.736533,144.24400 53.784787,154.53270 53.429329,144.80433 C 53.405750,139.83055 58.547631,125.66962 56.990249,138.08157 C 56.928440,148.62343 56.077584,159.45098 59.772711,169.52875 C 61.329257,177.80304 63.298895,162.17301 62.988091,159.45545 C 63.735437,153.84340 60.197464,140.47445 63.503146,139.98905 C 61.357335,143.33803 66.481562,152.37971 63.806556,143.75207 C 64.246725,136.73058 73.644257,150.51638 79.645970,147.64545 C 78.549557,148.19064 60.366566,147.12200 64.001368,149.06755 C 73.637921,146.37135 83.620359,148.68626 88.013812,158.28311 C 89.905020,162.65465 103.64521,173.28694 96.438548,162.06384 C 94.034094,153.82159 83.257085,147.86405 83.064604,140.29821 C 82.160357,129.52161 83.361483,118.46323 81.236184,107.85631 C 76.930507,97.422658 68.081407,89.114068 58.421459,83.616201 C 57.294164,79.353253 56.695582,71.895420 63.214029,77.725318 C 74.837643,85.695018 84.718833,97.648738 88.069919,111.51682 C 89.202010,123.00329 90.192036,135.01243 86.910175,146.21896 C 88.660227,147.09237 90.171650,132.79057 89.760824,127.98604 C 89.857348,117.09894 89.197304,105.58430 82.338614,96.541698 C 76.106628,87.430798 68.390639,78.103065 57.608389,74.435286 C 56.757701,64.438180 55.858164,54.445271 54.948973,44.453334 C 57.332709,43.393343 56.492575,41.062773 54.085086,41.353505 z M 52.442007,42.210728 C 59.513386,42.853246 44.129085,47.509806 50.758958,42.309225 L 52.442007,42.210728 z M 54.030658,45.809008 C 55.652766,64.924545 57.716684,82.854745 58.671933,102.01496 C 52.911061,103.39214 55.877157,90.800048 54.121035,86.687678 C 53.525933,81.407246 51.968866,66.074486 52.144836,66.379136 C 53.531256,78.166386 54.917670,89.953638 56.304089,101.74089 C 57.714679,99.811938 56.327150,95.233448 56.464715,92.306978 C 54.540710,77.124149 53.097164,61.353545 50.873906,46.536826 C 50.499785,45.291556 53.202362,47.150112 54.030658,45.809008 z M 11.249520,53.370446 C 12.718970,57.142480 2.4698769,58.722797 9.2532344,53.631813 C 9.6478704,53.427370 10.832942,53.447507 11.249520,53.370446 z M 61.673739,52.956690 C 57.336200,52.173519 53.400671,55.461819 60.064538,53.668127 C 67.048130,59.107112 76.230578,62.701184 83.386997,68.556966 C 95.613368,79.978631 107.00790,93.907468 110.72556,110.57710 C 110.85648,119.22093 115.17837,129.87193 109.28816,136.91010 C 107.68078,140.13740 100.71276,146.67795 104.47848,139.59945 C 106.49696,129.56722 106.00463,118.95370 103.66498,109.03163 C 97.060416,93.188968 87.120760,78.197708 73.644404,67.397222 C 68.761968,65.597896 58.775996,59.578407 57.117159,59.410432 C 63.564635,65.431316 73.097045,65.471955 78.764007,72.600907 C 89.472946,83.819987 98.987506,96.966678 103.70758,111.84829 C 104.97760,122.20621 106.71397,133.61323 102.11686,143.35205 C 90.670449,151.19935 98.315346,131.75555 96.990036,125.31149 C 97.827866,110.56697 91.205804,96.589488 81.288903,85.980553 C 74.816813,79.236063 66.230237,69.697088 57.540633,68.591346 C 72.294513,74.701702 83.341628,87.747398 91.200406,101.29023 C 98.641666,114.67028 95.892464,130.38506 95.140620,144.88656 C 95.682146,147.73449 80.808248,147.99817 90.591026,147.78050 C 98.988546,148.32532 104.03863,141.35225 110.90416,141.91895 C 126.29274,141.01388 141.78177,139.48016 157.21031,140.37803 C 164.97927,139.43762 174.99415,142.82927 181.08005,136.81480 C 185.15086,133.84209 197.75669,133.52632 194.41686,125.69846 C 184.70299,116.82071 169.89871,126.54315 160.22573,117.15091 C 161.64260,109.49421 175.24667,113.81426 181.87037,113.84343 C 186.16001,114.48086 199.87611,116.37792 188.37873,113.49850 C 183.93348,112.71004 177.81854,112.17691 185.56145,112.60431 C 192.38264,111.79178 175.22182,111.05264 172.87118,111.07795 C 164.67549,111.90853 150.24341,109.08557 147.41873,118.95086 C 154.31503,125.20432 165.29594,121.95087 173.87576,122.58154 C 179.61569,122.61724 195.23458,120.84786 191.68039,129.80966 C 177.15395,135.90591 162.10439,136.16138 146.64894,138.10218 C 134.33174,139.45312 121.34851,138.78228 108.99396,138.74279 C 114.54774,141.05834 129.25338,138.65856 130.94706,139.52704 C 123.88057,139.47183 111.02509,142.17367 107.97808,139.94334 C 115.54464,131.28895 118.39850,120.12144 121.58682,109.34647 C 119.69309,96.374868 113.43462,84.339620 108.57771,72.233223 C 106.21589,63.091467 98.040536,57.150443 88.644191,57.288764 C 80.232400,57.712189 72.307673,53.559728 63.875066,53.148408 L 61.673739,52.956690 z M 61.639860,53.634249 C 68.563844,55.677594 81.530465,52.904964 81.820769,62.980255 C 82.962418,71.658007 80.770717,55.442263 81.967496,57.508591 C 87.728384,58.109645 100.82943,58.516559 100.27116,62.665195 C 95.835603,62.487955 80.909161,74.596520 91.463910,67.476673 C 98.229956,62.600653 105.41628,60.731097 107.24458,70.962911 C 110.33848,79.632251 118.37648,92.871248 117.08162,99.371218 C 112.08536,98.921998 107.57370,94.457728 104.22439,92.492218 C 109.10819,100.33857 122.65027,97.531588 120.94314,109.12626 C 118.77375,115.53085 115.38430,129.62345 112.77857,130.74037 C 112.79551,121.28112 112.48173,111.46959 109.13670,102.52008 C 110.43913,106.83904 127.14128,111.20686 116.13764,106.76505 C 107.68344,104.38285 106.98777,95.675848 102.01048,89.276818 C 93.974318,82.804888 109.16602,82.996963 110.01752,78.229613 C 104.04823,83.157380 97.063156,86.681358 93.495913,77.857359 C 87.150058,70.168079 79.417997,63.442809 70.156410,59.720651 C 67.480749,57.799180 63.258281,54.329777 61.639860,53.634249 z M 12.262803,55.826596 C 24.282089,71.789600 38.822799,85.623390 51.161311,101.34157 C 51.102592,104.43348 46.332194,98.031958 44.355958,96.556108 C 36.453169,87.742688 28.550377,78.929271 20.647587,70.115853 C 30.398779,80.719639 40.149972,91.323428 49.901164,101.92721 C 49.934966,99.559128 46.217795,96.840702 44.619555,94.395592 C 33.271748,82.058535 21.632365,69.867264 10.284556,57.530208 C 8.0405762,58.773136 12.037205,56.293135 12.262803,55.826596 z M 50.561783,56.920406 C 49.982823,63.251489 56.129724,77.306765 45.808713,70.898913 C 42.007346,71.145721 31.507391,62.058192 39.166471,69.142644 C 45.918127,72.035276 55.132488,72.193232 52.938419,81.971463 C 53.171348,85.913703 55.667526,95.284828 50.780559,87.899668 C 46.779555,81.959693 46.376771,78.819559 52.814664,81.024540 C 46.177808,78.421716 34.489932,74.543657 31.541275,71.701874 C 35.365956,62.954553 42.272331,61.257761 50.561783,56.920406 z M 95.636347,59.342677 C 92.250809,58.943083 81.700755,65.798926 83.931814,65.820270 C 86.957024,62.513057 92.817188,61.377141 95.636347,59.342677 z M 43.803139,60.663915 C 43.319638,64.518174 57.001258,68.038066 46.918553,63.387154 C 45.763049,62.634633 44.612853,61.802834 43.803139,60.663915 z M 104.83420,67.354803 C 101.08885,67.171782 90.002832,73.179357 91.875899,73.588339 C 95.461412,70.410988 101.55592,69.374126 104.83420,67.354803 z M 107.30729,73.012415 C 102.26942,73.901296 89.357243,84.092103 101.00557,76.747374 C 102.21226,75.238434 107.47659,74.703311 107.30729,73.012415 z M 26.135809,77.247154 C 30.981785,81.968303 28.021595,91.021898 34.320862,96.150228 C 35.964382,99.547518 50.234750,110.80847 41.190704,102.32784 C 35.013439,98.214488 27.812318,85.534280 29.838739,81.358537 C 33.463210,84.560898 35.017372,88.260398 37.395461,92.265768 C 41.280499,97.924208 53.153785,100.87025 43.553014,107.66279 C 38.377356,114.45322 37.237992,123.95361 27.890180,126.32991 C 19.553207,129.88746 36.233325,125.05147 36.502449,121.20374 C 32.350635,126.27949 36.720828,139.48581 31.471580,139.73495 C 25.059164,133.49999 23.563856,123.42302 20.388461,115.17946 C 17.119469,108.24126 15.764041,93.479628 19.062190,91.347718 C 18.505358,103.06382 27.698028,111.62961 36.231426,118.18860 C 31.441379,112.05538 20.966335,105.92469 20.100677,96.027918 C 17.174920,91.363908 23.181674,79.906106 24.094702,81.880847 C 22.005075,93.145848 28.372041,104.00271 37.536520,110.17238 C 45.393605,115.64138 31.880812,104.88267 30.538233,102.77488 C 24.448002,96.464208 23.404538,85.654577 25.338166,78.506719 L 26.135809,77.247154 z M 100.78578,84.226004 C 100.27590,88.881988 116.99783,94.264858 114.38354,92.250248 C 109.27176,90.961398 104.20101,88.312668 100.78578,84.226004 z M 60.979241,86.038472 C 56.219487,89.777898 61.136662,88.974528 60.979241,86.038472 z M 35.367539,87.546038 C 38.738392,91.300838 42.109244,95.055638 45.480096,98.810438 C 41.581851,95.584818 37.361764,92.377048 35.367539,87.546038 z M 54.220598,93.118958 C 58.423042,101.64013 50.062758,106.25538 46.438668,113.27580 C 40.796475,122.06277 37.456035,132.60314 38.619819,143.10580 C 29.601772,137.23477 36.645847,122.72507 40.161264,114.44509 C 43.853866,109.51638 45.838890,101.25692 51.713632,102.99437 C 51.732544,98.853338 49.949406,96.729318 54.220598,93.118958 z M 164.01891,112.37854 C 153.73566,112.96011 160.62558,122.17444 167.30507,121.91517 C 162.04650,122.43843 142.31911,122.40179 151.84703,114.22128 C 155.79626,112.25299 159.71349,112.52797 164.01891,112.37854 z M 70.227911,114.15713 C 68.508832,120.00682 88.792170,123.67092 75.885522,119.64535 C 73.611138,118.27926 71.736839,116.32213 70.227911,114.15713 z M 32.216894,115.13959 C 29.301591,117.26366 14.938358,116.76461 25.695396,117.34165 C 26.854007,117.15584 33.359161,117.03769 32.216894,115.13959 z M 65.942356,118.96779 C 67.570772,123.29454 76.730123,128.74521 81.339866,128.21647 C 75.489676,126.72454 69.964303,123.48187 65.942356,118.96779 z M 64.383971,121.47226 C 74.757578,134.89049 85.050865,146.91123 94.212912,161.18995 C 96.652714,165.63041 99.468652,169.49070 94.271513,163.86631 C 93.736531,161.33101 90.244790,157.80098 88.568235,155.10677 C 80.272079,144.36577 71.392770,134.06211 63.096610,123.32111 C 62.923909,125.69554 67.074829,129.04222 68.468983,131.61725 C 76.444104,141.95031 84.273433,151.84601 92.248554,162.17907 C 81.623031,149.65988 72.027728,136.65107 62.215785,123.38886 C 62.925611,122.35355 63.544991,122.41393 64.383971,121.47226 z M 61.809250,123.99867 C 64.714403,128.66419 74.113670,138.98684 72.757611,139.80623 C 66.446171,135.55701 59.509471,132.50525 61.809250,123.99867 z M 60.755424,126.15714 C 60.623924,139.71401 62.541143,152.75648 61.395516,166.26321 C 59.967669,175.37434 57.090567,154.31727 57.871618,149.46763 C 57.874990,145.29675 57.553707,130.43532 58.098350,132.13052 C 58.189111,141.75145 58.425662,152.97605 58.516428,162.59700 C 60.115140,160.80875 58.947210,154.60830 59.395720,151.70891 C 59.324035,144.19771 59.398130,135.95758 59.326445,128.44639 C 59.995136,127.23061 59.921345,127.26274 60.755424,126.15714 z M 194.49209,127.26789 C 194.82824,128.90018 194.57329,128.49327 194.49209,127.26789 z M 192.96759,130.67261 C 186.49443,133.39684 180.58698,136.42844 174.36459,139.12371 C 164.58607,139.54298 154.79500,139.18326 145.01340,139.04046 C 161.01751,137.17969 177.89587,136.80829 192.96759,130.67261 z M 61.877005,131.87528 C 65.356473,137.97959 80.158567,142.36953 77.154111,146.79994 C 70.571503,144.56108 59.680476,140.52455 61.877005,131.87528 z "
     id="path1194"
     sodipodi:nodetypes="ccccccccccccccccccccccccccccccccccccccccccccccccccccccccccccccccccccccccccccccccccccccccccccccccccccccccccccccccccccccccccccccccccccccccccccccccccccccccccccccccccccccccccccccccccccccccccccccccccccccccccccccccccccccccccccccccccccc" />
  <metadata
     id="metadata5">
    <rdf:RDF
       id="RDF6">
      <cc:Work
         rdf:about=""
         id="Work7">
        <dc:format
           id="format8">image/svg+xml</dc:format>
        <dc:type
           id="type10"
           rdf:resource="http://purl.org/dc/dcmitype/StillImage" />
        <dc:title
           id="title1194">knitting</dc:title>
        <dc:creator
           id="creator1196">
          <cc:Agent
             id="Agent1197">
            <dc:title
               id="title1198">Nicu Buculei</dc:title>
          </cc:Agent>
        </dc:creator>
        <dc:rights
           id="rights1200">
          <cc:Agent
             id="Agent1201">
            <dc:title
               id="title1202">Nicu Buculei</dc:title>
          </cc:Agent>
        </dc:rights>
        <cc:license
           id="license1204"
           rdf:resource="http://web.resource.org/cc/PublicDomain" />
      </cc:Work>
      <cc:License
         rdf:about="http://web.resource.org/cc/PublicDomain"
         id="License1205">
        <cc:permits
           rdf:resource="http://web.resource.org/cc/Reproduction"
           id="permits1206" />
        <cc:permits
           rdf:resource="http://web.resource.org/cc/Distribution"
           id="permits1207" />
        <cc:permits
           rdf:resource="http://web.resource.org/cc/DerivativeWorks"
           id="permits1208" />
      </cc:License>
    </rdf:RDF>
  </metadata>
</svg>
