<?xml version="1.0" encoding="UTF-8" standalone="no"?>
<!DOCTYPE svg PUBLIC "-//W3C//DTD SVG 20010904//EN"
"http://www.w3.org/TR/2001/REC-SVG-20010904/DTD/svg10.dtd">
<!-- Created with Inkscape (http://www.inkscape.org/) -->
<svg
   id="svg1"
   sodipodi:version="0.32"
   inkscape:version="0.40"
   width="160.00000pt"
   height="160.00000pt"
   sodipodi:docbase="/home/nicu/Desktop/winter"
   sodipodi:docname="snowman.svg"
   xmlns="http://www.w3.org/2000/svg"
   xmlns:cc="http://web.resource.org/cc/"
   xmlns:inkscape="http://www.inkscape.org/namespaces/inkscape"
   xmlns:sodipodi="http://sodipodi.sourceforge.net/DTD/sodipodi-0.dtd"
   xmlns:rdf="http://www.w3.org/1999/02/22-rdf-syntax-ns#"
   xmlns:dc="http://purl.org/dc/elements/1.1/"
   xmlns:xlink="http://www.w3.org/1999/xlink">
  <defs
     id="defs3">
    <linearGradient
       id="linearGradient2863">
      <stop
         style="stop-color:#ffffff;stop-opacity:1.0000000;"
         offset="0.0000000"
         id="stop2864" />
      <stop
         style="stop-color:#ffffff;stop-opacity:0.0000000;"
         offset="1.0000000"
         id="stop2865" />
    </linearGradient>
    <linearGradient
       id="linearGradient1611">
      <stop
         style="stop-color:#000000;stop-opacity:1.0000000;"
         offset="0.0000000"
         id="stop1612" />
      <stop
         style="stop-color:#66696c;stop-opacity:1.0000000;"
         offset="1.0000000"
         id="stop1613" />
    </linearGradient>
    <linearGradient
       id="linearGradient1596">
      <stop
         style="stop-color:#d5894f;stop-opacity:1.0000000;"
         offset="0.0000000"
         id="stop1597" />
      <stop
         style="stop-color:#ea1f00;stop-opacity:1.0000000;"
         offset="1.0000000"
         id="stop1598" />
    </linearGradient>
    <linearGradient
       id="linearGradient1591">
      <stop
         style="stop-color:#d5cb4f;stop-opacity:1.0000000;"
         offset="0.0000000"
         id="stop1592" />
      <stop
         style="stop-color:#cda81f;stop-opacity:1.0000000;"
         offset="1.0000000"
         id="stop1593" />
    </linearGradient>
    <linearGradient
       id="linearGradient1586">
      <stop
         style="stop-color:#c57e4f;stop-opacity:1.0000000;"
         offset="0.0000000"
         id="stop1587" />
      <stop
         style="stop-color:#91371a;stop-opacity:1.0000000;"
         offset="1.0000000"
         id="stop1588" />
    </linearGradient>
    <linearGradient
       inkscape:collect="always"
       xlink:href="#linearGradient1586"
       id="linearGradient1589"
       x1="0.39516130"
       y1="0.40625000"
       x2="0.74193549"
       y2="0.71875000" />
    <linearGradient
       inkscape:collect="always"
       xlink:href="#linearGradient1591"
       id="linearGradient1590"
       x1="0.39516130"
       y1="0.17187500"
       x2="0.91935486"
       y2="0.89843750" />
    <linearGradient
       inkscape:collect="always"
       xlink:href="#linearGradient1596"
       id="linearGradient1595"
       x1="0.45112783"
       y1="0.46875000"
       x2="0.85338348"
       y2="0.92968750" />
    <linearGradient
       inkscape:collect="always"
       xlink:href="#linearGradient2863"
       id="linearGradient2862"
       x1="0.046511628"
       y1="0.50781250"
       x2="1.1046512"
       y2="0.42187500" />
    <linearGradient
       inkscape:collect="always"
       xlink:href="#linearGradient2863"
       id="linearGradient2227"
       x1="0.11567164"
       y1="0.11363637"
       x2="1.0412844"
       y2="0.57812500" />
    <linearGradient
       inkscape:collect="always"
       xlink:href="#linearGradient2863"
       id="linearGradient1581"
       x1="0.11567164"
       y1="0.19090909"
       x2="1.0223881"
       y2="0.55454546" />
    <linearGradient
       inkscape:collect="always"
       xlink:href="#linearGradient2863"
       id="linearGradient1583"
       x1="0.30487806"
       y1="-0.062500000"
       x2="0.81097561"
       y2="0.46875000" />
    <linearGradient
       inkscape:collect="always"
       xlink:href="#linearGradient2863"
       id="linearGradient1585"
       x1="0.092592590"
       y1="-0.078125000"
       x2="0.54320985"
       y2="0.49218750" />
    <linearGradient
       inkscape:collect="always"
       xlink:href="#linearGradient2863"
       id="linearGradient1593"
       x1="0.091549292"
       y1="-0.65625000"
       x2="0.50704223"
       y2="0.72656250" />
    <linearGradient
       inkscape:collect="always"
       xlink:href="#linearGradient2863"
       id="linearGradient1597"
       x1="0.30555555"
       y1="-0.37500000"
       x2="0.41666666"
       y2="0.50781250" />
    <linearGradient
       inkscape:collect="always"
       xlink:href="#linearGradient2863"
       id="linearGradient1599"
       x1="0.22619048"
       y1="-0.27343750"
       x2="0.51785713"
       y2="0.63281250" />
    <linearGradient
       inkscape:collect="always"
       xlink:href="#linearGradient1611"
       id="linearGradient3037"
       gradientTransform="scale(1.751676,0.570882)"
       x1="57.865761"
       y1="10.387796"
       x2="22.619778"
       y2="-27.607649"
       gradientUnits="userSpaceOnUse" />
    <linearGradient
       inkscape:collect="always"
       xlink:href="#linearGradient1611"
       id="linearGradient3041"
       gradientTransform="scale(1.173800,0.851934)"
       x1="75.055504"
       y1="-6.4349437"
       x2="38.302143"
       y2="-33.208000"
       gradientUnits="userSpaceOnUse" />
    <linearGradient
       inkscape:collect="always"
       xlink:href="#linearGradient1611"
       id="linearGradient1800"
       gradientTransform="scale(1.924772,0.519542)"
       x1="39.643597"
       y1="-53.602066"
       x2="27.019644"
       y2="-63.293083"
       gradientUnits="userSpaceOnUse" />
  </defs>
  <sodipodi:namedview
     id="base"
     pagecolor="#ffffff"
     bordercolor="#666666"
     borderopacity="1.0"
     inkscape:pageopacity="0.0"
     inkscape:pageshadow="2"
     inkscape:zoom="1.0000000"
     inkscape:cx="80.000000"
     inkscape:cy="121.76184"
     inkscape:window-width="1152"
     inkscape:window-height="793"
     inkscape:window-x="0"
     inkscape:window-y="25"
     inkscape:current-layer="svg1" />
  <metadata
     id="metadata4">
    <rdf:RDF
       id="RDF5">
      <cc:Work
         rdf:about=""
         id="Work6">
        <dc:format
           id="format7">image/svg+xml</dc:format>
        <dc:type
           id="type9"
           rdf:resource="http://purl.org/dc/dcmitype/StillImage" />
      </cc:Work>
    </rdf:RDF>
  </metadata>
  <g
     id="g2437">
    <path
       style="fill:#ffffff;fill-opacity:1.0000000;fill-rule:evenodd;stroke:none;stroke-width:1.2500000;stroke-linecap:butt;stroke-linejoin:miter;stroke-opacity:1.0000000;stroke-miterlimit:4.0000000;stroke-dasharray:none;"
       d="M 79.156250,39.500000 C 67.405847,40.487102 54.019486,43.789466 48.538451,55.476687 C 44.199668,64.544892 47.891760,77.163197 56.496712,82.251712 C 59.834978,85.461190 73.574210,82.884479 71.949104,85.284605 C 55.088898,89.629770 37.288389,101.13807 34.597297,119.69025 C 31.631310,134.15162 34.190912,149.56585 29.280028,163.57046 C 24.705250,171.69883 16.949522,186.09727 30.450224,185.69333 C 40.438029,187.20019 50.498523,188.13682 60.531250,189.28125 C 89.255832,189.51347 117.32508,187.31469 126.31021,181.33842 C 127.90546,171.78561 118.50054,165.04595 118.75015,154.80194 C 115.73201,139.34106 122.03385,122.88756 115.09080,108.03194 C 113.20236,96.108032 103.06522,84.717672 95.328776,79.620413 C 106.54224,72.896659 108.06665,54.270409 99.084709,44.988707 C 93.757369,40.402260 85.906104,39.735631 79.156250,39.500000 z "
       id="path908"
       sodipodi:nodetypes="cccccccccccccc" />
    <path
       style="fill:#d2f3ff;fill-opacity:1.0000000;fill-rule:evenodd;stroke:none;stroke-width:1.2500000;stroke-linecap:butt;stroke-linejoin:miter;stroke-miterlimit:4.0000000;stroke-opacity:1.0000000;"
       d="M 49.125000,55.593750 C 44.786215,64.661954 48.488798,77.286485 57.093750,82.375000 C 60.432016,85.584480 73.552003,83.247861 71.926897,85.647991 C 55.066690,89.993153 37.878592,101.26032 35.187500,119.81250 C 32.221512,134.27387 34.785885,149.68289 29.875000,163.68750 C 25.300221,171.81588 17.530548,186.21644 31.031250,185.81250 C 41.019056,187.31936 41.835046,160.81938 44.531250,151.43750 C 53.479117,123.91853 46.147265,104.14414 76.718750,86.250000 C 77.882830,78.534129 64.856490,81.178729 57.000000,73.343750 C 50.419425,68.698561 54.736331,55.172787 49.125000,55.593750 z M 118.71875,154.59375 C 124.95101,194.95425 97.017969,173.89708 106.09375,186.84375 C 122.69712,184.20515 117.29612,187.10127 126.28125,181.12500 C 127.87650,171.57219 118.46914,164.83776 118.71875,154.59375 z "
       id="path2238"
       sodipodi:nodetypes="cccccccccccccc" />
    <path
       style="fill:#000000;fill-opacity:1.0000000;fill-rule:evenodd;stroke:none;stroke-width:1.3245914;stroke-linecap:butt;stroke-linejoin:miter;stroke-miterlimit:4.0000000;stroke-opacity:1.0000000;"
       d="M 87.562500,70.406250 C 86.424140,70.897023 86.809387,72.428125 86.033721,73.061748 C 83.934432,74.953915 81.795044,76.960474 79.093694,77.947111 C 76.542858,78.235803 73.932189,78.198554 71.404279,77.739237 C 70.827516,77.535341 68.541766,76.953212 69.132423,78.125609 C 70.203245,79.187427 71.845112,79.123776 73.239781,79.325404 C 75.334482,79.465438 77.475602,79.579052 79.547165,79.204334 C 82.783110,78.068240 85.189521,75.499218 87.769100,73.359613 C 88.208207,72.864492 88.034831,71.774980 88.307245,71.146277 C 88.105187,70.854592 87.766858,70.695874 87.562500,70.406250 z "
       id="path913" />
    <g
       id="g1586">
      <path
         style="fill:#000000;fill-opacity:1.0000000;fill-rule:evenodd;stroke:none;stroke-width:1.2500000;stroke-linecap:butt;stroke-linejoin:miter;stroke-opacity:1.0000000;stroke-miterlimit:4.0000000;stroke-dasharray:none;"
         d="M 58.247512,61.676762 C 55.775772,61.676762 66.496862,54.398412 66.496862,60.346037 C 66.677522,60.346037 65.440142,64.338212 63.197122,64.338212 C 63.197122,65.937544 59.649632,62.807659 58.247512,61.676762 z "
         id="path914" />
      <path
         style="fill:url(#linearGradient1583);fill-opacity:1.0000000;fill-rule:evenodd;stroke:none;stroke-width:1.2500000;stroke-linecap:butt;stroke-linejoin:miter;stroke-miterlimit:4.0000000;stroke-opacity:1.0000000;"
         d="M 58.295015,61.642512 C 55.823275,61.642512 66.544365,54.364162 66.544365,60.311787 C 66.725025,60.311787 65.487645,64.303962 63.244625,64.303962 C 63.244625,65.903294 59.697135,62.773409 58.295015,61.642512 z "
         id="path1582" />
    </g>
    <g
       id="g1589">
      <path
         style="fill:#000000;fill-opacity:1.0000000;fill-rule:evenodd;stroke:none;stroke-width:1.2500000;stroke-linecap:butt;stroke-linejoin:miter;stroke-opacity:1.0000000;stroke-miterlimit:4.0000000;stroke-dasharray:none;"
         d="M 82.170632,56.353861 C 87.057182,52.412546 85.164422,57.019223 89.595052,57.019223 C 89.595052,61.333392 82.995572,62.459654 82.995572,59.680673 C 81.331842,59.680673 81.051652,60.866530 82.170632,56.353861 z "
         id="path915" />
      <path
         style="fill:url(#linearGradient1585);fill-opacity:1.0000000;fill-rule:evenodd;stroke:none;stroke-width:1.2500000;stroke-linecap:butt;stroke-linejoin:miter;stroke-miterlimit:4.0000000;stroke-opacity:1.0000000;"
         d="M 82.079353,56.352331 C 86.965903,52.411016 85.073143,57.017693 89.503773,57.017693 C 89.503773,61.331862 82.904293,62.458124 82.904293,59.679143 C 81.240563,59.679143 80.960373,60.865000 82.079353,56.352331 z "
         id="path1584" />
    </g>
    <g
       id="g1606">
      <path
         style="fill:#000000;fill-opacity:1.0000000;fill-rule:evenodd;stroke:none;stroke-width:1.2500000;stroke-linecap:butt;stroke-linejoin:miter;stroke-miterlimit:4.0000000;stroke-opacity:1.0000000;"
         d="M 71.141357,107.97650 C 71.141357,105.35915 69.030718,115.78051 72.187027,115.78051 C 77.478486,115.78051 81.518650,109.71073 78.461039,109.71073 C 76.002820,107.67227 75.591264,107.97650 71.141357,107.97650 z "
         id="path916" />
      <path
         style="fill:url(#linearGradient1593);fill-opacity:1.0000000;fill-rule:evenodd;stroke:none;stroke-width:1.2500000;stroke-linecap:butt;stroke-linejoin:miter;stroke-miterlimit:4.0000000;stroke-opacity:1.0000000;"
         d="M 71.097478,107.95250 C 71.097478,105.33515 68.986839,115.75651 72.143148,115.75651 C 77.434607,115.75651 81.474767,109.68673 78.417157,109.68673 C 75.958941,107.64827 75.547385,107.95250 71.097478,107.95250 z "
         id="path1592" />
    </g>
    <g
       id="g1603">
      <path
         style="fill:#000000;fill-opacity:1.0000000;fill-rule:evenodd;stroke:none;stroke-width:1.2500000;stroke-linecap:butt;stroke-linejoin:miter;stroke-opacity:1.0000000;stroke-miterlimit:4.0000000;stroke-dasharray:none;"
         d="M 73.470302,133.07994 C 71.303959,133.07994 62.783597,134.44088 67.695755,138.40284 C 67.695755,142.10565 76.722257,137.73749 77.594977,137.73749 C 77.594977,134.56900 78.085020,135.31318 73.470302,133.07994 z "
         id="path917" />
      <path
         style="fill:url(#linearGradient1597);fill-opacity:1.0000000;fill-rule:evenodd;stroke:none;stroke-width:1.2500000;stroke-linecap:butt;stroke-linejoin:miter;stroke-miterlimit:4.0000000;stroke-opacity:1.0000000;"
         d="M 73.607483,132.89512 C 71.441140,132.89512 62.920778,134.25606 67.832936,138.21802 C 67.832936,141.92083 76.859434,137.55267 77.732154,137.55267 C 77.732154,134.38418 78.222204,135.12836 73.607483,132.89512 z "
         id="path1594" />
    </g>
    <g
       id="g1600">
      <path
         style="fill:#000000;fill-opacity:1.0000000;fill-rule:evenodd;stroke:none;stroke-width:1.2500000;stroke-linecap:butt;stroke-linejoin:miter;stroke-opacity:1.0000000;stroke-miterlimit:4.0000000;stroke-dasharray:none;"
         d="M 71.820430,159.02909 C 69.603482,160.81720 66.210387,166.34808 69.345622,166.34808 C 71.776584,166.34808 77.594977,166.25330 77.594977,163.68662 C 77.594977,162.51603 73.405522,160.30756 71.820430,159.02909 z "
         id="path918" />
      <path
         style="fill:url(#linearGradient1599);fill-opacity:1.0000000;fill-rule:evenodd;stroke:none;stroke-width:1.2500000;stroke-linecap:butt;stroke-linejoin:miter;stroke-miterlimit:4.0000000;stroke-opacity:1.0000000;"
         d="M 71.748428,158.74977 C 69.531480,160.53788 66.138385,166.06876 69.273620,166.06876 C 71.704582,166.06876 77.522975,165.97398 77.522975,163.40730 C 77.522975,162.23671 73.333525,160.02824 71.748428,158.74977 z "
         id="path1598" />
    </g>
    <path
       style="fill:#dadada;fill-opacity:1.0000000;fill-rule:evenodd;stroke:none;stroke-width:1.1169723pt;stroke-linecap:butt;stroke-linejoin:miter;stroke-opacity:1.0000000;"
       d="M 84.660029,80.436380 C 84.706344,78.131762 91.697747,78.548071 95.283081,77.027688 C 99.910201,74.828066 100.60008,67.465507 103.53195,67.441021 C 105.56155,70.755051 99.213472,76.669362 97.236397,79.056456 C 96.374299,79.681418 85.253534,85.264348 84.660029,80.436380 z "
       id="path1638"
       sodipodi:nodetypes="ccccc" />
    <path
       style="fill:#000000;fill-opacity:1.0000000;fill-rule:evenodd;stroke:none;stroke-width:1.2500000;stroke-linecap:butt;stroke-linejoin:miter;stroke-miterlimit:4.0000000;stroke-opacity:1.0000000;"
       d="M 79.281250,39.250000 C 67.802051,40.130576 54.540680,43.554832 48.687500,54.500000 C 42.848811,64.973804 47.886140,80.512200 59.406250,84.531250 C 62.476728,85.511971 69.835860,84.606962 70.281250,85.562500 C 55.599089,89.764267 40.763714,99.063880 35.531250,114.12500 C 30.494030,130.25068 34.327610,147.71607 28.875000,163.75000 C 25.922118,169.46846 21.718557,175.51627 22.625000,182.25000 C 24.338901,188.13378 31.710516,186.16155 36.250000,187.50000 C 45.060909,188.48369 53.870340,189.83492 62.718750,190.31250 C 81.260358,190.19980 100.04796,190.00653 118.18750,185.75000 C 121.83648,184.35187 128.89966,183.82048 127.25000,178.21875 C 126.34442,169.97565 119.22232,163.58818 119.53125,155.06250 C 116.57894,139.61733 122.77114,123.12180 115.90625,108.31250 C 113.78472,96.695485 105.87909,86.809916 96.500000,80.000000 C 107.60136,72.369515 108.77915,54.530923 99.687500,44.906250 C 94.074111,40.132393 86.335430,39.501124 79.281250,39.250000 z M 79.312500,40.500000 C 86.654041,40.850046 95.393443,41.342929 100.31250,47.593750 C 107.23384,57.193650 105.32425,75.217007 95.245871,79.047768 C 94.883259,79.764546 95.125000,80.239583 95.125000,80.593750 C 104.61413,87.284959 112.48891,97.140924 114.71875,108.68750 C 121.52883,123.45389 115.29487,139.91406 118.31250,155.31250 C 117.82446,164.79855 127.02869,171.81171 125.87500,181.34375 C 116.87423,186.10873 106.37255,186.69775 96.437500,187.84375 C 83.948320,188.80471 71.270400,189.35276 58.812500,188.84375 C 48.098901,187.71867 37.360876,186.43539 26.718750,185.00000 C 21.079330,182.51564 24.613818,175.21898 26.375000,171.18750 C 28.472028,166.93986 31.136382,162.90751 31.750000,158.09375 C 35.089541,142.69615 31.869219,126.19888 38.000000,111.37500 C 44.412081,97.855139 58.532460,89.846449 72.531250,86.218750 C 72.844961,81.948729 65.028070,84.731495 62.093750,83.656250 C 54.206469,83.069127 49.019700,75.036934 47.812500,67.812500 C 45.740531,57.795829 52.752510,47.959160 61.937500,44.437500 C 67.421221,42.055579 73.388450,41.016452 79.312500,40.500000 z "
       id="path1689"
       sodipodi:nodetypes="cccccccccccccccccccccccccccccccccc" />
    <g
       id="g2332">
      <path
         style="fill:url(#linearGradient1589);fill-opacity:1;fill-rule:evenodd;stroke:none;stroke-width:1.2500000;stroke-linecap:butt;stroke-linejoin:miter;stroke-miterlimit:4.0000000;stroke-opacity:1.0000000;"
         d="M 105.21626,117.73410 C 105.21626,118.07443 112.94116,107.51131 115.11548,105.75757 C 117.98629,102.27230 125.32832,96.189540 128.31445,93.781030 C 132.59653,90.327268 136.99274,83.965085 139.86355,82.469865 C 142.77835,81.831906 145.31597,84.384864 144.67801,87.336767 C 142.84792,88.612684 138.82226,91.674767 134.19895,95.959070 C 128.57108,101.06274 117.94591,115.45117 116.76536,116.40337 C 115.05067,117.78637 111.57017,123.72236 110.16588,123.72236 C 106.68078,123.72236 105.21626,120.42816 105.21626,117.73410 z "
         id="path919"
         sodipodi:nodetypes="ccccccccc" />
      <path
         style="fill:url(#linearGradient1590);fill-opacity:1.0000000;fill-rule:evenodd;stroke:none;stroke-width:1.2500000;stroke-linecap:butt;stroke-linejoin:miter;stroke-miterlimit:4.0000000;stroke-opacity:1.0000000;"
         d="M 168.81250,29.218750 C 163.93106,36.558066 155.34479,46.644674 153.06250,47.781250 C 140.71851,57.869146 140.92908,65.948600 144.90625,70.875000 C 139.18279,75.188706 137.53125,78.806171 137.53125,82.687500 C 139.10615,84.601375 140.54752,89.281250 146.34375,89.281250 C 149.44173,89.281253 156.14477,84.259903 157.12500,80.218750 C 158.77046,80.716097 160.54042,81.144497 162.46875,81.500000 C 169.48347,81.236014 174.17460,75.122872 178.27258,70.804943 C 186.28614,63.996143 191.76012,52.795829 194.87500,42.437500 C 194.09923,41.890601 191.98047,40.360063 193.12500,39.031250 C 191.32327,37.912884 185.63850,37.192242 186.43750,35.312500 C 184.24743,34.078387 179.11637,35.129077 180.46875,32.656250 C 178.03307,31.446107 171.75619,32.190824 175.78125,29.906250 C 173.49287,28.884365 170.56064,29.888102 168.81250,29.218750 z "
         id="path920"
         sodipodi:nodetypes="cccccccccccccc" />
      <path
         style="fill:#000000;fill-opacity:1.0000000;fill-rule:evenodd;stroke:none;stroke-width:1.2500000;stroke-linecap:butt;stroke-linejoin:miter;stroke-miterlimit:4.0000000;stroke-opacity:1.0000000;"
         d="M 168.68750,27.906250 C 164.47806,34.051964 159.87309,39.953665 154.62500,45.250000 C 152.28580,47.144869 149.88800,49.013097 147.87500,51.281250 C 144.30240,55.148780 141.10801,60.331657 142.18750,65.812500 C 142.49945,67.602161 143.44693,69.143832 144.53125,70.562500 C 138.39968,75.078541 136.56250,79.022522 136.56250,83.156250 L 136.56250,83.406250 L 136.71875,83.562500 C 136.80291,83.664770 136.97446,83.936015 137.06250,84.062500 C 135.42582,85.578810 133.91607,87.275356 132.37500,88.875000 C 130.24208,91.365752 127.78938,93.538666 125.21875,95.562500 C 121.35710,98.782662 117.52626,102.07537 114.15625,105.81250 C 110.86987,109.19103 108.16098,113.07802 105.21875,116.75000 C 104.19530,117.71892 104.46591,118.00833 104.43750,118.90625 C 104.61292,121.65829 106.65888,124.47662 109.59375,124.56250 C 111.45476,124.58450 112.37071,122.56112 113.46875,121.34375 C 114.79502,119.57860 116.11373,117.80280 117.71875,116.28125 C 122.89060,109.90790 127.79446,103.26554 133.56250,97.406250 C 136.43301,94.647252 139.52514,92.096891 142.71875,89.687500 C 143.66889,90.074266 144.69125,90.406250 146.00000,90.406250 C 148.02330,90.406254 150.73675,88.864920 153.12500,86.843750 C 155.34171,84.967762 157.19030,82.653588 157.50000,80.375000 C 158.03266,80.527770 162.40177,82.319289 164.34888,81.786008 C 169.31826,81.014955 173.59028,76.886587 176.81250,73.312500 C 177.93329,72.215158 178.23261,71.504590 178.63211,70.430256 C 179.72716,69.941268 182.31347,67.707374 183.25000,66.437500 C 188.90762,59.044913 193.01072,50.511685 195.71875,41.625000 C 194.84787,40.906651 192.66732,39.715894 194.00000,38.500000 C 193.99222,37.622582 191.78399,37.269458 190.90625,36.875000 C 189.84730,36.309962 186.78356,36.213270 187.31250,34.562500 C 186.33255,33.636484 184.50827,33.525584 183.12500,33.375000 C 181.45950,33.565061 180.97167,32.682579 181.21875,31.718750 C 179.45458,30.737880 177.37497,30.847351 175.46875,30.375000 C 175.69196,29.849432 178.07450,29.393377 176.71875,29.031250 C 174.39034,27.673505 171.63614,28.630618 169.15625,28.062500 C 169.00000,28.010417 168.84375,27.958333 168.68750,27.906250 z M 169.18750,29.343750 C 170.57772,29.915579 173.91832,28.898588 174.12500,30.125000 C 172.85337,31.711503 171.04571,33.343066 169.87500,35.218750 C 166.63647,40.394674 164.69957,44.766591 159.21875,49.562500 C 158.41255,50.718734 155.62557,52.727780 153.96875,55.031250 C 158.44398,52.897623 161.42627,48.738728 164.40625,44.937500 C 167.65151,40.756745 170.37231,36.143657 173.93750,32.218750 C 175.35886,30.908158 177.58379,32.360842 179.37500,32.437500 C 180.91145,33.727785 177.19916,34.963496 176.68750,36.593750 C 172.19002,42.440090 171.87067,47.048526 166.15625,51.875000 C 165.46783,52.938097 163.04980,54.414549 161.71875,56.593750 C 166.44378,54.115292 169.97647,48.998694 172.93750,44.750000 C 175.42038,41.219146 176.84668,37.689292 180.06250,34.750000 C 180.85269,33.920102 180.33343,33.902775 181.68750,34.406250 C 183.23737,34.818954 187.41444,34.415648 185.21875,36.875000 C 181.01386,44.127195 180.27471,48.260553 174.62500,54.500000 C 173.87619,55.510937 171.35819,58.814306 169.78125,60.562500 C 174.70328,56.250569 178.22252,50.632417 181.75000,45.187500 C 183.51984,42.363735 185.22039,39.490462 186.81250,36.562500 C 188.48979,37.620061 190.49764,37.949228 192.28125,38.781250 C 187.17010,46.752242 185.97072,48.586487 181.43750,56.906250 C 180.30240,57.738485 176.90590,65.460040 177.93750,64.843750 C 181.62513,57.638736 186.09300,50.870942 190.40625,44.031250 C 191.52542,43.039333 192.27752,39.123662 193.59375,41.531250 C 194.97543,42.585427 193.03312,44.721049 192.84375,46.218750 C 189.54165,54.765659 185.13338,63.057221 178.71875,69.687500 C 178.44539,69.927469 178.41366,70.164559 178.14795,70.416138 C 177.20576,68.548977 173.29538,65.974134 172.21875,65.156250 C 166.23597,61.569619 164.03012,61.454169 157.53125,59.093750 C 157.10512,58.891622 153.77848,57.540553 153.40625,57.250000 C 155.80465,59.425082 157.16449,59.770152 158.78125,60.750000 C 165.12453,62.831747 172.48726,66.373968 177.84375,70.562500 C 174.52679,73.727200 171.67864,77.609224 167.28125,79.343750 C 165.05674,80.221530 162.59138,81.196867 160.28125,80.422482 C 159.37094,80.237127 155.52888,78.989415 154.62500,78.718750 C 154.58898,78.008849 148.73259,75.573079 145.53125,69.968750 C 145.52766,69.964550 145.50359,69.972952 145.50000,69.968750 C 144.85960,69.218288 144.29933,68.432798 143.96875,67.468750 C 142.04634,63.044265 144.04018,58.109758 146.81250,54.531250 C 149.19438,51.353336 152.21667,48.713522 155.34375,46.312500 C 160.52337,41.163457 165.03878,35.342312 169.18750,29.343750 z M 145.31250,71.562500 C 145.53917,71.826653 152.12386,78.589937 156.28125,80.000000 C 156.13364,81.691161 154.48943,84.032668 152.31250,85.875000 C 150.06158,87.779964 147.29839,89.156250 146.00000,89.156250 C 145.16637,89.156251 144.58448,88.922936 143.93750,88.750000 C 144.29717,88.487753 141.90565,87.712667 140.68750,86.250000 C 140.34343,86.235109 137.89927,83.072267 137.84375,83.000000 C 137.88434,79.258922 139.42481,75.877232 145.31250,71.562500 z M 138.31250,84.187500 C 139.12531,85.496482 140.28192,87.131535 142.09375,88.312500 C 141.58583,88.676741 140.44447,89.749581 140.00000,90.156250 C 135.69778,93.613181 131.54346,97.288879 128.03125,101.56250 C 124.01204,106.22059 120.32500,111.16203 116.37500,115.87500 C 113.98360,118.01942 112.60029,121.05872 110.18750,123.18750 C 108.79084,123.60539 107.24324,122.60799 106.53125,121.40625 C 105.94457,120.21161 104.99924,118.38882 106.31250,117.37500 C 109.34000,113.53764 112.19367,109.52564 115.65625,106.06250 C 119.96157,101.31743 125.06770,97.418076 129.90625,93.250000 C 132.69788,90.703696 135.56831,86.773824 138.31250,84.187500 z "
         id="path1621"
         sodipodi:nodetypes="cccccccccccccccccccccccccccccccccccccccccccccccccccccccccccccccccccccccccccccccccccccccccccccccc" />
    </g>
    <g
       id="g2423">
      <path
         style="fill:url(#linearGradient3037);fill-opacity:1.0000000;fill-rule:evenodd;stroke:none;stroke-width:1.2500000;stroke-linecap:butt;stroke-linejoin:miter;stroke-miterlimit:4.0000000;stroke-opacity:1.0000000;"
         d="M 85.331817,0.82275200 C 97.858416,-1.9360880 120.40530,-11.679817 105.91489,-17.787736 C 97.816479,-21.291757 75.875732,-16.710253 60.647523,-12.326414 C 51.915488,-9.8118050 23.911307,-5.8685640 31.743074,3.6245440 C 37.374303,10.730826 68.486005,5.5559320 85.331817,0.82275200 z "
         id="path923"
         sodipodi:nodetypes="ccccc"
         transform="translate(4.465709,50.07975)" />
      <path
         style="fill:url(#linearGradient2227);fill-opacity:1.0000000;fill-rule:evenodd;stroke:none;stroke-width:1.2500000;stroke-linecap:butt;stroke-linejoin:miter;stroke-miterlimit:4.0000000;stroke-opacity:1.0000000;"
         d="M 58.680461,5.6231680 C 43.136887,1.7479000 76.178129,-16.216057 60.949919,-11.832218 C 52.217884,-9.3176090 25.808599,-6.3313060 31.885980,3.1618020 C 38.155168,8.1947190 48.533215,6.0501280 58.680461,5.6231680 z "
         id="path2866"
         sodipodi:nodetypes="cccc"
         transform="translate(4.465709,50.07975)" />
      <path
         style="fill:url(#linearGradient1800);fill-opacity:1.0;fill-rule:evenodd;stroke:none;stroke-width:1.2500000;stroke-linecap:butt;stroke-linejoin:miter;stroke-miterlimit:4.0000000;stroke-opacity:1.0000000;"
         d="M 43.555095,-29.102031 C 44.584833,-33.248761 81.919915,-40.560655 84.152770,-36.058407 C 78.386307,-26.216195 49.748386,-24.154439 43.555095,-29.102031 z "
         id="path925"
         sodipodi:nodetypes="ccc"
         transform="translate(4.465709,50.07975)" />
      <path
         style="fill:url(#linearGradient1581);fill-opacity:1.0000000;fill-rule:evenodd;stroke:none;stroke-width:1.2500000;stroke-linecap:butt;stroke-linejoin:miter;stroke-miterlimit:4.0000000;stroke-opacity:1.0000000;"
         d="M 44.982594,-29.817135 C 46.947910,-32.253112 59.081028,-34.854602 60.439197,-35.443935 C 54.534201,-32.698499 57.113630,-30.447730 58.310130,-29.199593 C 55.638773,-28.555809 48.079239,-27.343339 44.982594,-29.817135 z "
         id="path958"
         sodipodi:nodetypes="cccc"
         transform="translate(4.465709,50.07975)" />
      <path
         style="fill:url(#linearGradient3041);fill-opacity:1.0000000;fill-rule:evenodd;stroke:none;stroke-width:1.2500000;stroke-linecap:butt;stroke-linejoin:miter;stroke-miterlimit:4.0000000;stroke-opacity:1.0000000;"
         d="M 43.730942,-29.349972 C 50.942944,-25.522221 77.042736,-33.043279 83.422321,-35.893982 C 82.179382,-31.841844 86.564144,-17.126807 91.632162,-13.937015 C 87.804411,-9.6312620 55.400853,2.3682030 47.250579,-1.7785270 C 50.525861,-10.915827 41.786549,-29.349972 43.730942,-29.349972 z "
         id="path924"
         sodipodi:nodetypes="ccccc"
         transform="translate(4.465709,50.07975)" />
      <path
         style="fill:url(#linearGradient2862);fill-opacity:1.0000000;fill-rule:evenodd;stroke:none;stroke-width:1.2500000;stroke-linecap:butt;stroke-linejoin:miter;stroke-miterlimit:4.0000000;stroke-opacity:1.0000000;"
         d="M 44.132777,-28.543984 C 49.169109,-27.737997 51.820017,-28.611175 58.199602,-29.286208 C 56.956663,-25.234070 59.407496,-7.1346580 62.662456,-2.8570310 C 57.263388,-1.6939120 53.989630,-0.81453700 48.256767,-1.8186330 C 50.323344,-11.318545 44.745232,-25.233321 44.132777,-28.543984 z "
         id="path2860"
         sodipodi:nodetypes="ccccc"
         transform="translate(4.465709,50.07975)" />
      <path
         style="fill:#000000;fill-opacity:1.0000000;fill-rule:evenodd;stroke:none;stroke-width:1.2500000;stroke-linecap:butt;stroke-linejoin:miter;stroke-miterlimit:4.0000000;stroke-opacity:1.0000000;"
         d="M 76.562500,-38.343750 C 72.681053,-38.225032 67.737110,-37.583398 62.843750,-36.687500 C 57.950389,-35.791603 53.094944,-34.648829 49.375000,-33.437500 C 47.515027,-32.831837 45.957562,-32.209226 44.781250,-31.593750 C 44.193093,-31.286014 43.697179,-30.982372 43.312500,-30.656250 C 42.927820,-30.330130 42.614996,-29.963084 42.500000,-29.500000 L 42.406250,-29.125000 C 42.406250,-29.125000 43.061876,-27.291612 43.312500,-26.343750 C 43.813748,-24.448028 44.612916,-21.891214 45.375000,-19.031250 C 46.151074,-16.118784 46.843331,-12.915061 47.156250,-9.9062500 C 44.514523,-9.2365520 41.822257,-8.6055160 39.375000,-7.7500000 C 35.778889,-6.4928670 32.677865,-5.0497200 30.875000,-3.1562500 C 29.973567,-2.2095150 29.383056,-1.1127930 29.343750,0.093750000 C 29.304443,1.3002930 29.799842,2.5784000 30.843750,3.8437500 C 32.448474,5.8688190 35.614745,6.8333090 39.656250,7.2812500 C 43.697754,7.7291910 48.648799,7.5947580 53.968750,7.0937500 C 64.597969,6.0927400 76.601630,3.5942180 85.062500,1.2187500 L 85.062500,1.2500000 C 91.399813,-0.14572100 100.17727,-3.2837480 105.68750,-6.9062500 C 108.44262,-8.7175010 110.45728,-10.617118 110.78125,-12.781250 C 110.94324,-13.863316 110.58996,-14.973006 109.75000,-15.937500 C 108.91004,-16.901994 107.61543,-17.776193 105.75000,-18.562500 C 103.58544,-19.499060 100.63365,-19.884082 97.156250,-19.875000 C 94.560116,-19.868220 91.465195,-19.476057 88.406250,-19.093750 C 87.410981,-20.852866 86.472902,-22.863869 85.750000,-24.968750 C 84.973740,-27.228998 84.402120,-29.545791 84.093750,-31.500000 C 83.798499,-33.371070 83.813141,-34.873807 84.031250,-35.718750 C 84.094338,-35.817508 84.191067,-35.899413 84.250000,-36.000000 L 84.406250,-36.281250 L 84.281250,-36.593750 C 84.274467,-36.607427 84.257059,-36.611571 84.250000,-36.625000 L 83.875000,-36.968750 C 83.335830,-37.546469 82.530693,-37.902377 81.468750,-38.093750 C 80.158603,-38.329854 78.503230,-38.403110 76.562500,-38.343750 z M 76.593750,-37.093750 C 78.483273,-37.151546 80.086980,-37.084588 81.250000,-36.875000 C 81.936822,-36.751229 82.130611,-36.552298 82.375000,-36.375000 C 78.972657,-34.951416 74.663760,-32.930200 66.892634,-31.268862 C 62.800994,-30.394138 55.542530,-29.364679 52.031250,-29.156250 C 48.802719,-28.964607 46.214273,-29.272783 44.562500,-29.968750 C 44.799476,-30.132226 45.000554,-30.289181 45.343750,-30.468750 C 46.415020,-31.029268 47.961363,-31.657388 49.781250,-32.250000 C 53.421023,-33.435225 58.214270,-34.581114 63.062500,-35.468750 C 67.910729,-36.356387 72.814700,-36.978162 76.593750,-37.093750 z M 97.156250,-18.562500 C 100.54494,-18.564518 103.36535,-18.221701 105.25000,-17.406250 C 107.00717,-16.665578 108.16087,-15.873236 108.81250,-15.125000 C 109.46413,-14.376764 109.64105,-13.702192 109.53125,-12.968750 C 109.31165,-11.501867 107.63613,-9.6705260 105.00000,-7.9375000 C 99.727743,-4.4714470 90.970530,-1.3318690 84.781250,0.031250000 L 84.750000,0.031250000 C 76.366453,2.3867820 64.410210,4.8515940 53.875000,5.8437500 C 48.607396,6.3398280 43.683403,6.4637460 39.781250,6.0312500 C 35.879096,5.5987540 33.023390,4.5593230 31.812500,3.0312500 C 30.898465,1.9233230 30.566517,0.99221600 30.593750,0.15625000 C 30.620982,-0.67971600 31.022195,-1.4840470 31.781250,-2.2812500 C 33.299360,-3.8756560 36.263782,-5.3328580 39.781250,-6.5625000 C 42.100426,-7.3732410 44.685822,-7.9813270 47.218750,-8.6250000 C 47.370685,-6.2262840 47.293094,-3.9641530 46.656250,-2.1875000 L 46.468750,-1.6562500 L 46.968750,-1.4062500 C 49.264080,-0.23842200 52.861290,-0.28981000 57.156250,-0.90625000 C 61.451210,-1.5226900 66.427820,-2.7641080 71.250000,-4.2812500 C 76.072180,-5.7983920 80.737670,-7.5719230 84.468750,-9.2500000 C 86.334290,-10.089038 87.986390,-10.908825 89.281250,-11.656250 C 90.576110,-12.403675 91.517710,-13.070770 92.093750,-13.718750 L 92.593750,-14.250000 L 91.968750,-14.656250 C 91.028847,-15.247824 90.053886,-16.442405 89.125000,-17.875000 C 91.921887,-18.186976 94.795792,-18.561094 97.156250,-18.562500 z M 48.437500,-8.9687500 C 48.586203,-6.6414700 48.537785,-4.3803300 47.968750,-2.4375000 C 49.828440,-1.6720270 53.048420,-1.5578440 57.000000,-2.1250000 C 61.192590,-2.7267460 66.099040,-3.9661480 70.875000,-5.4687500 C 75.650960,-6.9713520 80.292910,-8.7530190 83.968750,-10.406250 C 85.806670,-11.232865 87.414540,-12.033256 88.656250,-12.750000 C 89.645210,-13.320856 90.191860,-13.746347 90.656250,-14.156250 C 89.580654,-15.016277 88.620526,-16.319642 87.375000,-18.375000 C 86.100328,-20.687131 85.245266,-22.574480 84.562500,-24.562500 C 83.764430,-26.886254 83.166320,-29.237047 82.843750,-31.281250 C 82.672839,-32.364332 82.821600,-34.511789 82.839621,-35.360826 C 80.086854,-33.173391 55.518239,-27.039029 44.187500,-28.187500 C 44.269929,-27.759534 44.356190,-27.349579 44.531250,-26.687500 C 45.019409,-24.841281 45.823466,-22.234486 46.593750,-19.343750 C 47.363313,-16.455722 48.089386,-13.302520 48.406250,-10.250000"
         id="path1634"
         sodipodi:nodetypes="ccccccccccccccccccccccccccccccccccccccccccccccccccccccccccccccccccccccccccccccccccccc"
         transform="translate(4.465709,50.07975)" />
    </g>
    <g
       id="g1686">
      <path
         style="fill:url(#linearGradient1595);fill-opacity:1;fill-rule:evenodd;stroke:none;stroke-width:1.2500000;stroke-linecap:butt;stroke-linejoin:miter;stroke-opacity:1.0000000;stroke-miterlimit:4.0000000;stroke-dasharray:none;"
         d="M 70.808516,67.291239 C 66.891120,68.786034 63.734802,70.320934 60.398284,71.660504 C 53.233178,74.025592 47.007100,78.419136 40.716546,82.466136 C 39.241244,87.065846 46.400859,83.462788 48.522563,82.886713 C 53.010001,82.337995 56.608344,79.209248 61.057324,78.668899 C 65.981542,77.193317 71.061650,76.055221 75.794854,74.044357 C 79.756995,71.394951 75.781304,67.992295 70.808516,67.291239 z "
         id="path912"
         sodipodi:nodetypes="ccccccc" />
      <path
         style="fill:#000000;fill-opacity:1.0000000;fill-rule:evenodd;stroke:none;stroke-width:1.2500000;stroke-linecap:butt;stroke-linejoin:miter;stroke-miterlimit:4.0000000;stroke-opacity:1.0000000;"
         d="M 71.044418,66.439606 C 66.648044,68.096434 62.437000,70.208884 58.008947,71.785234 C 51.738321,74.312399 46.165143,78.202331 40.513169,81.845853 C 39.859785,83.000350 40.173351,84.982086 41.732342,85.128139 C 43.456446,85.362881 45.099844,84.582590 46.708301,84.080617 C 47.964931,83.549798 49.275540,83.168921 50.624603,82.975345 C 54.398823,82.050831 57.635611,79.528991 61.544419,79.064603 C 66.570083,77.533718 71.766903,76.450671 76.569151,74.272273 C 77.849583,73.487747 78.873327,71.765929 78.071001,70.306347 C 76.742706,67.783408 73.664397,66.861691 71.044418,66.439606 z M 71.169418,67.720856 C 73.315630,68.105448 75.669696,68.841907 76.939439,70.745378 C 77.560990,72.344914 75.806387,73.489825 74.466780,73.818171 C 70.007710,75.511352 65.355607,76.626477 60.779714,77.936104 C 56.507017,78.583305 52.976711,81.548313 48.669419,82.064603 C 46.475857,82.683955 44.407882,83.900784 42.075085,83.911246 C 40.496966,83.305599 42.440859,81.849410 43.291962,81.545608 C 48.932890,77.869130 54.625338,74.068717 61.080799,71.969455 C 64.472364,70.621520 67.754484,69.011644 71.169418,67.720856 z "
         id="path1061" />
    </g>
  </g>
</svg>
