<?xml version="1.0" encoding="UTF-8" standalone="no"?>
<!DOCTYPE svg PUBLIC "-//W3C//DTD SVG 20010904//EN"
"http://www.w3.org/TR/2001/REC-SVG-20010904/DTD/svg10.dtd">
<!-- Created with Inkscape (http://www.inkscape.org/) -->
<svg
   id="svg1"
   sodipodi:version="0.32"
   inkscape:version="0.38.1"
   width="80.000000pt"
   height="80.000000pt"
   sodipodi:docbase="/home/nicu/Desktop/weather"
   sodipodi:docname="snowstorm.svg"
   xmlns="http://www.w3.org/2000/svg"
   xmlns:inkscape="http://www.inkscape.org/namespaces/inkscape"
   xmlns:sodipodi="http://sodipodi.sourceforge.net/DTD/sodipodi-0.dtd"
   xmlns:xlink="http://www.w3.org/1999/xlink">
  <defs
     id="defs3">
    <linearGradient
       id="linearGradient869">
      <stop
         style="stop-color:#ddf3f3;stop-opacity:1.0000000;"
         offset="0.0000000"
         id="stop870" />
      <stop
         style="stop-color:#ffffff;stop-opacity:1.0000000;"
         offset="0.18528455"
         id="stop871" />
      <stop
         style="stop-color:#f3f3f3;stop-opacity:1.0000000;"
         offset="1.0000000"
         id="stop874" />
    </linearGradient>
    <linearGradient
       id="linearGradient912">
      <stop
         style="stop-color:#b1f3f3;stop-opacity:1.0000000;"
         offset="0.0000000"
         id="stop913" />
      <stop
         style="stop-color:#ffffff;stop-opacity:1.0000000;"
         offset="0.28319508"
         id="stop855" />
      <stop
         style="stop-color:#e2ffff;stop-opacity:1.0000000;"
         offset="0.43082523"
         id="stop1077" />
      <stop
         style="stop-color:#ffffff;stop-opacity:1.0000000;"
         offset="0.69532084"
         id="stop1078" />
      <stop
         style="stop-color:#bdffff;stop-opacity:1.0000000;"
         offset="1.0000000"
         id="stop914" />
    </linearGradient>
    <radialGradient
       xlink:href="#linearGradient912"
       id="radialGradient915" />
    <linearGradient
       xlink:href="#linearGradient912"
       id="linearGradient854"
       x1="0.92142856"
       y1="0.74218750"
       x2="0.021428572"
       y2="0.17187500" />
    <linearGradient
       xlink:href="#linearGradient869"
       id="linearGradient875"
       x1="0.16304348"
       y1="0.20161290"
       x2="0.98550725"
       y2="0.94354838" />
  </defs>
  <sodipodi:namedview
     id="base"
     pagecolor="#ffffff"
     bordercolor="#666666"
     borderopacity="1.0"
     inkscape:pageopacity="0.0"
     inkscape:pageshadow="2"
     inkscape:zoom="1.0000000"
     inkscape:cx="45.442627"
     inkscape:cy="58.964233"
     inkscape:window-width="837"
     inkscape:window-height="694"
     inkscape:window-x="39"
     inkscape:window-y="117" />
  <path
     style="fill:url(#linearGradient854);fill-rule:evenodd;stroke:#000000;stroke-width:1.2500000;stroke-linejoin:round;stroke-dasharray:none;"
     d="M 75.476316,34.356109 L 73.593751,37.493704 L 72.603948,35.305134 L 70.488487,36.273528 L 72.157566,39.914688 L 69.149343,44.950334 L 68.043093,42.277568 L 69.304606,40.921817 L 67.596711,39.333651 L 67.053290,39.914688 L 66.684540,39.023766 L 64.530264,39.895320 L 64.821382,40.611931 L 64.316777,40.534459 L 63.928619,42.839236 L 65.888816,43.149122 L 67.654935,47.448789 L 65.733553,50.663856 L 65.461843,49.985980 L 63.288158,50.818799 L 64.219737,53.201047 L 62.162500,56.629160 L 60.629277,53.956394 L 62.162500,51.361099 L 60.163487,50.179659 L 59.290132,51.651617 L 57.485198,48.514022 L 60.512829,43.536479 L 62.958224,43.400904 L 62.822369,41.076760 L 61.968421,41.115496 L 62.822369,39.721009 L 60.823356,38.520201 L 59.891777,40.050263 L 59.464803,39.314284 L 57.446382,40.476356 L 58.494408,42.335671 L 56.146053,46.209245 L 52.691448,40.205206 L 54.321711,36.467207 L 52.206250,35.537549 L 51.255263,37.726118 L 49.605592,34.879041 C 48.932786,35.266399 48.259978,35.653756 47.587171,36.041114 L 49.411513,39.198076 L 47.004934,39.004398 L 46.830263,41.309174 L 50.828290,41.638428 L 53.758882,46.712810 L 50.886513,46.383556 L 50.304277,44.601712 L 48.091777,45.318323 L 48.344079,46.093038 L 47.373684,45.976831 L 47.101974,48.281608 L 47.878290,48.378447 L 47.548355,48.785172 L 49.353290,50.237762 L 50.595395,48.688333 L 55.214474,49.230633 L 57.077632,52.465067 L 56.359540,52.368228 L 56.049013,54.673005 L 58.552632,55.021626 L 60.668092,58.701522 L 57.368750,58.662786 L 55.893750,56.028756 L 53.855921,57.152092 L 54.671053,58.624050 L 51.061184,58.604682 L 48.285855,53.491565 L 49.411513,51.302995 L 47.334869,50.237762 L 46.946711,50.993109 L 46.170395,49.559887 L 44.113158,50.663856 L 44.986513,52.252021 L 44.113158,52.252021 L 44.093750,54.576165 L 46.248026,54.595533 L 48.402303,58.585314 L 41.454276,58.527211 L 39.047697,55.234673 L 37.165132,56.590424 L 38.562500,58.507843 L 35.282566,58.488475 L 35.263158,60.812620 L 38.931250,60.831987 L 37.533882,62.807510 L 39.435855,64.143893 L 41.745395,60.870723 L 47.625987,60.909459 L 45.879276,63.214235 L 44.054934,62.807510 L 43.550329,65.073551 L 44.326645,65.247862 L 43.744408,66.022577 L 45.588158,67.436431 L 46.053948,66.816659 L 46.248026,67.300856 L 48.441119,66.468038 L 47.723027,64.628090 L 50.537171,60.928827 L 54.282895,60.967563 L 53.836513,61.529231 L 55.660856,62.981821 L 57.232895,60.986930 L 60.260527,61.006298 L 58.475000,64.182629 L 55.447369,64.182629 L 55.447369,66.506773 L 57.155263,66.506773 L 55.369737,69.663736 L 49.527961,69.605633 L 48.169408,67.572006 L 46.228619,68.850286 L 46.694408,69.566897 L 45.064145,69.547529 L 45.044737,71.871673 L 46.849671,71.891041 L 46.422698,72.646388 L 48.441119,73.789093 L 49.508553,71.910409 L 54.069408,71.968513 L 50.653619,78.011288 L 46.577961,78.495485 L 46.869079,80.800262 L 49.236842,80.509744 L 47.625987,83.376188 L 49.644408,84.518893 L 51.449342,81.342562 L 52.477961,83.492396 L 54.574013,82.485266 L 52.827303,78.882842 L 55.699671,73.789093 L 56.883553,76.423123 L 55.641448,77.817610 L 57.388158,79.347671 L 57.912171,78.747267 L 58.319737,79.657557 L 60.454606,78.708532 L 60.144079,77.991920 L 60.648685,78.069392 L 60.978619,75.764615 L 59.018421,75.474097 L 57.135856,71.251902 L 58.979606,67.978732 L 59.270724,68.656607 L 61.425000,67.765685 L 60.435198,65.422173 L 62.317764,62.110267 L 64.122698,65.228494 L 62.764145,67.610742 L 64.782566,68.753446 L 65.481250,67.552638 L 67.305593,70.709601 L 64.530264,75.415994 L 62.084869,75.590305 L 62.240132,77.895081 L 63.113487,77.836977 L 62.259540,79.270200 L 64.277961,80.432272 L 65.190132,78.882842 L 65.636514,79.618822 L 67.635527,78.437381 L 66.548685,76.578066 L 68.644737,73.033746 L 72.176974,79.134625 L 70.799014,82.388427 L 72.953290,83.298717 L 73.651974,81.652448 L 74.835856,83.705442 L 76.854277,82.524002 L 75.146382,79.560718 L 78.076974,79.773764 L 78.251645,77.449620 L 73.865461,77.159102 C 73.826743,77.155219 73.787879,77.159102 73.749014,77.159102 L 70.799014,72.084720 L 74.117764,72.433342 L 74.700001,74.215186 L 76.912501,73.459839 L 76.660198,72.704492 L 77.630593,72.801331 L 77.882895,70.496555 L 77.087172,70.419083 L 77.417106,69.992990 L 75.573356,68.559768 L 74.350658,70.128565 L 69.362829,69.605633 L 67.499671,66.390566 L 68.547698,66.526141 L 68.838816,64.221365 L 66.024671,63.853375 L 64.277961,60.831987 L 67.732566,60.754516 L 69.285198,63.330443 L 71.284211,62.149003 L 70.410856,60.677044 L 74.040132,60.599573 L 76.970724,65.635219 L 75.903290,67.843156 L 77.999343,68.850286 L 78.368093,68.056203 L 79.202632,69.489425 L 81.221053,68.327353 L 80.308882,66.758556 L 81.162830,66.739188 L 81.124014,64.415043 L 78.969737,64.453779 L 76.699014,60.541469 L 83.627632,60.386526 L 86.131251,63.620961 L 87.975001,62.207106 L 86.519409,60.309055 L 89.799343,60.231583 L 89.741119,57.907439 L 86.111843,57.984911 L 87.431580,56.009388 L 85.471382,54.731108 L 83.278290,58.062382 L 77.378290,58.197957 L 79.066777,55.854445 L 80.910527,56.203066 L 81.337501,53.917658 L 80.541777,53.762715 L 81.124014,52.968632 L 79.222040,51.612881 L 78.756251,52.252021 L 78.562172,51.767824 L 76.407895,52.658746 L 77.184211,54.479326 L 74.486514,58.275429 L 70.721382,58.372268 L 71.167764,57.771864 L 69.304606,56.377377 L 67.771382,58.430372 L 63.734540,58.527211 L 66.160527,54.479326 L 69.168750,54.537430 L 69.226974,52.213285 L 67.538487,52.174549 L 69.401645,49.075690 L 75.224014,49.288737 L 76.524343,51.341731 L 78.503948,50.102187 L 78.057566,49.385576 L 79.687830,49.443680 L 79.765461,47.119535 L 77.941119,47.061432 L 78.387501,46.325453 L 76.407895,45.105277 L 75.301645,46.964592 L 70.760198,46.790282 L 74.311843,40.844345 L 78.387501,40.456988 L 78.174014,38.132844 L 75.786843,38.365258 L 77.475330,35.556917 L 75.476316,34.356109 z "
     id="path1074"
     sodipodi:nodetypes="cccccccccccccccccccccccccccccccccccccccccccccccccccccccccccccccccccccccccccccccccccccccccccccccccccccccccccccccccccccccccccccccccccccccccccccccccccccccccccccccccccccccccccccccccccccccccccccccccccccccccccccccccccccccccccccccccccccccccccccccccccccccccccccccccccc" />
  <path
     style="fill:url(#linearGradient875);fill-rule:evenodd;stroke:#000000;stroke-width:1.2500000;stroke-linejoin:round;stroke-dasharray:none;"
     d="M 41.080465,31.228190 C 40.257170,27.677543 33.295436,22.473555 29.125556,23.446431 C 23.903620,24.709746 21.498290,28.794700 25.230399,31.874046 C 21.928395,29.916265 13.689764,28.231761 9.2242678,35.052567 C 6.4522913,40.133701 14.302041,43.312581 16.703444,42.936781 C 12.108387,42.452603 0.78715720,50.732701 5.8280155,54.950431 C 12.039135,59.237641 26.266592,54.601637 26.891304,51.020740 C 25.505256,56.257121 41.313202,57.262416 41.704265,49.984675 C 40.576029,53.396796 51.855043,57.028353 57.217236,55.639003 C 63.937719,54.202503 63.129668,49.352965 62.334465,47.874253 C 67.503678,48.391851 75.597441,49.675425 79.182690,45.021088 C 81.681713,40.622813 80.195981,35.710259 76.978989,34.165002 C 73.473816,32.703825 69.643895,32.779970 65.176828,35.254987 C 68.721400,33.233733 66.535261,26.715821 62.982816,25.283957 C 58.934165,23.657727 54.069964,23.340343 49.701216,24.131034 C 46.101453,24.636160 40.404617,27.295719 41.080465,31.228190 z "
     id="path853"
     sodipodi:nodetypes="cccccccccccccccc" />

  <rdf:RDF 
   xmlns="http://web.resource.org/cc/"
   xmlns:dc="http://purl.org/dc/elements/1.1/"
   xmlns:rdf="http://www.w3.org/1999/02/22-rdf-syntax-ns#">
  <Work rdf:about="">
    <dc:title>Clipart by Nicu Buculei - w_cloud</dc:title>
    <dc:rights>
       <Agent>
         <dc:title>Nicu Buculei</dc:title>
       </Agent>
    </dc:rights>
    <dc:type rdf:resource="http://purl.org/dc/dcmitype/StillImage" />
    <license rdf:resource="http://web.resource.org/cc/PublicDomain" />
  </Work>
   
  <License rdf:about="http://web.resource.org/cc/PublicDomain">
     <permits rdf:resource="http://web.resource.org/cc/Reproduction" />
     <permits rdf:resource="http://web.resource.org/cc/Distribution" />
     <permits rdf:resource="http://web.resource.org/cc/DerivativeWorks" />
  </License>

</rdf:RDF>
</svg>
