<svg xmlns="http://www.w3.org/2000/svg" xmlns:xlink="http://www.w3.org/1999/xlink" width="793.701" height="1122.52" viewBox="0 0 595.276 841.89"><defs><symbol overflow="visible" id="f"><path d="M4.469-27.328h9.672c3.175 0 5.656.324 7.437.969 1.79.636 3.3 1.742 4.531 3.312 1.844 2.356 2.766 5.371 2.766 9.047 0 3.938-1.059 7.188-3.172 9.75C23.391-1.414 19.68 0 14.578 0H4.468zm3.593 3.39V-3.39h6.016c7.145 0 10.719-3.504 10.719-10.515 0-3.594-.899-6.16-2.688-7.703-1.793-1.551-4.777-2.328-8.953-2.328zm0 0"/></symbol><symbol overflow="visible" id="g"><path d="M30.406-13.594c0 4.45-1.277 8-3.828 10.656-2.543 2.657-5.95 3.985-10.219 3.985-4.062 0-7.308-1.285-9.734-3.86C4.207-5.394 3-8.848 3-13.171c0-4.457 1.281-8.039 3.844-10.75 2.562-2.707 5.953-4.062 10.172-4.062 4.082 0 7.332 1.304 9.75 3.906 2.425 2.594 3.64 6.09 3.64 10.484zm-4.047.156c0-7.55-3.183-11.328-9.547-11.328-3.054 0-5.445 1-7.171 3-1.73 2-2.594 4.778-2.594 8.328 0 3.586.832 6.356 2.5 8.313 1.664 1.96 4.02 2.938 7.062 2.938 3.082 0 5.477-.985 7.188-2.954 1.707-1.976 2.562-4.742 2.562-8.296zm0 0"/></symbol><symbol overflow="visible" id="h"><path d="M28.047-20.36h-4.188c-1.105-2.882-3.601-4.328-7.484-4.328-3.012 0-5.367.985-7.063 2.954-1.699 1.968-2.546 4.71-2.546 8.218 0 3.555.851 6.329 2.562 8.329 1.719 2 4.094 3 7.125 3 3.781 0 6.285-1.493 7.516-4.485h4.437c-1.605 5.149-5.636 7.719-12.093 7.719-4.18 0-7.493-1.32-9.938-3.969-2.438-2.656-3.656-6.238-3.656-10.75 0-4.394 1.242-7.867 3.734-10.422 2.5-2.55 5.883-3.828 10.156-3.828 3.07 0 5.63.68 7.672 2.031 2.051 1.356 3.305 3.2 3.766 5.532zm0 0"/></symbol><symbol overflow="visible" id="i"><path d="M24.844-27.328v3.39h-9.75V0h-3.61v-23.938h-9.78v-3.39zm0 0"/></symbol><symbol overflow="visible" id="j"><path d="M4.703-27.328h7.75c6.602 0 9.906 2.297 9.906 6.89 0 3.938-1.882 6.29-5.64 7.047l-.485.094.47.125c1.968.469 3.257 1.078 3.874 1.828.625.742 1.39 2.602 2.297 5.578L24-2.046c.176.616.398 1.296.672 2.046h-3.828a32.598 32.598 0 01-.547-1.688l-1.172-4.03c-.656-2.302-1.547-3.891-2.672-4.766-1.117-.875-2.805-1.313-5.062-1.313l-3.079-.015V0H4.704zm3.61 3.36v9.046h3.906c4.32 0 6.484-1.504 6.484-4.515 0-3-2.328-4.5-6.984-4.5zm0 0"/></symbol><symbol overflow="visible" id="k"><path d="M16.86-27.39L27.25 0h-3.969l-2.625-7.25H8.453L5.813 0h-3.97L12.25-27.39zm2.624 17.046l-4.937-14.36-4.953 14.36zm0 0"/></symbol><symbol overflow="visible" id="l"><path d="M19.563-27.328v3.39h-11.5v8.11h11.234v3.39H8.062v8.907h11.813V0H4.469v-27.328zm0 0"/></symbol><symbol overflow="visible" id="m"><path d="M4.61-27.328h6.624c3.989 0 6.883.672 8.688 2.015 1.8 1.344 2.703 3.5 2.703 6.47 0 5.718-3.48 8.577-10.438 8.577l-3.984-.03V0H4.61zm3.593 3.39v10.282l3.703-.016c4.664 0 7-1.687 7-5.062 0-3.47-2.261-5.203-6.781-5.203zm0 0"/></symbol><symbol overflow="visible" id="n"><path d="M28.594-13.188v11.97l-.5.202c-3.68 1.383-7.297 2.079-10.86 2.079-4.46 0-7.976-1.29-10.547-3.875-2.562-2.594-3.843-6.133-3.843-10.626 0-4.457 1.281-7.992 3.844-10.609 2.57-2.613 6.062-3.922 10.468-3.922 6.157 0 9.922 2.32 11.297 6.953H24.36l-.203-.406C23-23.648 20.613-24.766 17-24.766c-3.156 0-5.633.985-7.422 2.953-1.793 1.961-2.687 4.653-2.687 8.079 0 3.656.972 6.496 2.921 8.515 1.946 2.024 4.688 3.032 8.22 3.032 1.843 0 4.015-.383 6.515-1.157l.797-.234v-6.516h-5.938v-3.094zm0 0"/></symbol><symbol overflow="visible" id="o"><path d="M34.828-27.328L37.281 0h-3.703l-1.687-23.406L22.547 0h-3.985L9.204-23.406 7.531 0H3.828l2.438-27.328h5.046l9.235 23.344 9.25-23.344zm0 0"/></symbol><symbol overflow="visible" id="r"><path d="M5.25 3.375L2-4l3.25-7.36h-.797L.843-4l3.61 7.375zm0 0"/></symbol><symbol overflow="visible" id="C"><path d="M5.25-4l-3.61-7.36H.845L4.094-4 .844 3.375h.797zm0 0"/></symbol><symbol overflow="visible" id="s"><path d="M3.61-4.14h2.968c2.14 0 3.516-1.516 3.516-3.876 0-2.328-1.328-3.609-3.75-3.609H1.219V0h2.39zm0-2v-3.485h2.218c1.281 0 1.875.563 1.875 1.75 0 1.188-.594 1.734-1.875 1.734zm0 0"/></symbol><symbol overflow="visible" id="t"><path d="M1.063-11.625V0h2.234v-5.156c0-1 .719-1.703 1.719-1.703.484 0 .859.187 1.125.53.187.282.25.516.25 1.063V0h2.234v-5.766c0-1.078-.297-1.843-.875-2.328-.5-.422-1.219-.656-1.938-.656-1.093 0-1.89.453-2.515 1.39v-4.265zm0 0"/></symbol><symbol overflow="visible" id="u"><path d="M1.234 0h4.532c1.765 0 2.89-.422 3.671-1.36.922-1.077 1.422-2.656 1.422-4.452 0-1.797-.5-3.375-1.421-4.47-.782-.937-1.891-1.343-3.672-1.343H1.234zm2.391-2v-7.625h2.14c1.813 0 2.704 1.25 2.704 3.828C8.469-3.25 7.579-2 5.766-2zm0 0"/></symbol><symbol overflow="visible" id="v"><path d="M1-8.61V0h2.234v-4.578c0-1.297.657-1.953 1.97-1.953.234 0 .39.015.687.062v-2.265c-.125-.016-.204-.016-.266-.016-1.016 0-1.906.672-2.39 1.828v-1.687zm0 0"/></symbol><symbol overflow="visible" id="w"><path d="M4.797-8.75C2.172-8.75.563-7.016.563-4.187.563-1.36 2.171.359 4.813.359c2.609 0 4.25-1.734 4.25-4.484 0-2.922-1.579-4.625-4.266-4.625zm.016 1.797c1.234 0 2.03 1.11 2.03 2.797 0 1.61-.827 2.718-2.03 2.718-1.204 0-2.016-1.109-2.016-2.75 0-1.64.812-2.765 2.015-2.765zm0 0"/></symbol><symbol overflow="visible" id="x"><path d="M6.5-8.61v1.329C5.828-8.297 5.094-8.75 4.11-8.75c-2.032 0-3.563 2-3.563 4.656C.547-1.422 1.937.36 4.062.36c1 0 1.61-.296 2.438-1.234V.281c0 1.047-.781 1.766-1.89 1.766-.844 0-1.407-.36-1.579-1.016H.72c.015.672.265 1.14.844 1.61.687.562 1.64.828 2.968.828 2.594 0 4.094-1.156 4.094-3.188v-8.89zM4.594-6.89c1.11 0 1.937 1.171 1.937 2.765 0 1.563-.812 2.625-1.968 2.625-1.063 0-1.797-1.063-1.797-2.625 0-1.625.734-2.766 1.828-2.766zm0 0"/></symbol><symbol overflow="visible" id="y"><path d="M8.344-.266c-.39-.375-.5-.609-.5-1.062V-6.11c0-1.75-1.203-2.641-3.532-2.641C2-8.75.783-7.766.642-5.766h2.156c.11-.89.469-1.187 1.562-1.187.875 0 1.297.297 1.297.86 0 .296-.14.546-.375.671-.312.156-.312.156-1.406.344l-.89.156C1.28-4.64.452-3.766.452-2.219c0 .735.203 1.344.594 1.766.5.516 1.25.812 2.016.812.953 0 1.828-.406 2.609-1.218 0 .437.047.609.25.859h2.422zM5.656-3.453c0 1.281-.64 2.015-1.765 2.015-.75 0-1.22-.39-1.22-1.03 0-.673.36-.985 1.282-1.188l.766-.14c.593-.11.687-.142.937-.267zm0 0"/></symbol><symbol overflow="visible" id="z"><path d="M.953-8.61V0h2.235v-5.156c0-1.063.578-1.703 1.53-1.703.75 0 1.204.437 1.204 1.125V0h2.234v-5.156c0-1.063.578-1.703 1.531-1.703.75 0 1.22.437 1.22 1.125V0h2.218v-6.094c0-1.672-1.016-2.656-2.734-2.656-1.079 0-1.844.375-2.516 1.281C7.453-8.28 6.594-8.75 5.531-8.75c-.984 0-1.625.328-2.36 1.219V-8.61zm0 0"/></symbol><symbol overflow="visible" id="A"><path d="M8.14 0h2.391v-11.625h-2.39v7.906l-4.61-7.906H1.078V0h2.39v-8.031zm0 0"/></symbol><symbol overflow="visible" id="B"><path d="M8.344-3.61c.031-.187.031-.265.031-.374 0-.86-.14-1.657-.344-2.266-.578-1.563-1.953-2.5-3.703-2.5C1.86-8.75.344-6.969.344-4.078c0 2.75 1.5 4.437 3.937 4.437 1.938 0 3.5-1.093 3.985-2.78H6.078c-.281.687-.89 1.077-1.719 1.077-.625 0-1.14-.265-1.453-.75-.219-.312-.297-.703-.328-1.515zM2.609-5.077c.141-1.313.704-1.969 1.688-1.969.562 0 1.078.266 1.39.719.204.312.313.656.36 1.25zm0 0"/></symbol><symbol overflow="visible" id="D"><path d="M9.672-8.078c0-1.063-.235-1.766-.813-2.406-.78-.86-2.062-1.329-3.75-1.329-2.78 0-4.39 1.313-4.39 3.579 0 1.796.906 2.671 3.265 3.125l1.625.312c1.594.297 2.188.75 2.188 1.688 0 .968-.89 1.562-2.344 1.562-1.625 0-2.531-.687-2.61-1.922H.517C.656-.984 2.359.36 5.328.36c2.984 0 4.766-1.39 4.766-3.75 0-1.843-.922-2.796-3.078-3.203l-1.813-.36C3.484-7.28 3-7.624 3-8.468c0-.875.781-1.422 2-1.422 1.516 0 2.36.625 2.438 1.813zm0 0"/></symbol><symbol overflow="visible" id="E"><path d="M3.156-8.61H.922V3.47h2.234v-4.485c.547.953 1.314 1.39 2.39 1.39 2.079 0 3.595-1.938 3.595-4.547 0-1.219-.344-2.422-.922-3.219-.563-.812-1.64-1.359-2.672-1.359-1.078 0-1.844.469-2.39 1.422zm1.875 1.72c1.14 0 1.89 1.109 1.89 2.75 0 1.562-.78 2.656-1.89 2.656-1.11 0-1.875-1.079-1.875-2.688 0-1.61.766-2.719 1.875-2.719zm0 0"/></symbol><symbol overflow="visible" id="F"><path d="M8.313-5.39C8.155-7.485 6.75-8.75 4.608-8.75 2.047-8.75.547-7.062.547-4.125.547-1.297 2.03.359 4.578.359 6.656.36 8.11-.92 8.312-2.984H6.188C5.89-1.86 5.452-1.438 4.593-1.438c-1.14 0-1.828-1.015-1.828-2.687 0-.813.171-1.578.437-2.094.25-.468.75-.734 1.39-.734.907 0 1.329.437 1.595 1.562zm0 0"/></symbol><symbol overflow="visible" id="G"><path d="M3.297-8.61H1.062V0h2.235zm0-3.015H1.062v2h2.235zm0 0"/></symbol><symbol overflow="visible" id="H"><path d="M3.297-11.625H1.062V0h2.235zm0 0"/></symbol><symbol overflow="visible" id="I"><path d="M7.313-8.61H.625v1.797h3.969L.328-1.796V0h7.125v-1.797h-4.36l4.22-5.016zm0 0"/></symbol><symbol overflow="visible" id="J"><path d="M4.797-8.438h-1.25v-2.296H1.328v2.296H.218v1.485h1.11v5.297c0 1.36.719 2.015 2.172 2.015.5 0 .906-.046 1.297-.171v-1.563a3.312 3.312 0 01-.516.047c-.578 0-.734-.172-.734-.938v-4.687h1.25zm0 0"/></symbol><symbol overflow="visible" id="K"><path d="M1-8.61V0h2.234v-5.156c0-1.032.72-1.703 1.797-1.703.969 0 1.438.53 1.438 1.546V0h2.234v-5.766c0-1.906-1.047-2.984-2.89-2.984-1.157 0-1.938.438-2.579 1.39v-1.25zm0 0"/></symbol><symbol overflow="visible" id="L"><path d="M6.281-8.61L4.5-2.343 2.594-8.609H.14L3.344.344v.078c0 .812-.61 1.422-1.39 1.422-.173 0-.298-.016-.579-.094v1.672c.328.047.516.062.797.062.547 0 1.219-.109 1.61-.265.624-.25.89-.625 1.25-1.64L8.577-8.61zm0 0"/></symbol><symbol overflow="visible" id="M"><path d="M7.984-2.344L8.75 0h2.453L7.188-11.625H4.546L.422 0h2.437l.782-2.344zm-.656-1.984H4.297l1.516-4.547zm0 0"/></symbol><symbol overflow="visible" id="N"><path d="M6.328 0l3.984-11.625H7.906l-2.531 8.75-2.578-8.75H.375L4.297 0zm0 0"/></symbol><symbol overflow="visible" id="O"><path d="M3.672-11.625h-2.39V0h7.952v-2H3.672zm0 0"/></symbol><symbol overflow="visible" id="P"><path d="M6.453 0h2.234v-11.625H6.454v4.14C5.891-8.343 5.141-8.75 4.078-8.75c-2.047 0-3.61 1.969-3.61 4.578 0 1.156.344 2.344.923 3.172C1.969-.172 3.03.36 4.078.36c1.063 0 1.813-.391 2.375-1.235zM4.578-6.89c1.125 0 1.875 1.109 1.875 2.75 0 1.562-.766 2.64-1.875 2.64-1.125 0-1.89-1.094-1.89-2.672 0-1.594.765-2.719 1.89-2.719zm0 0"/></symbol><symbol overflow="visible" id="Q"><path d="M3.39-11.625H1V0h2.39zm0 0"/></symbol><symbol overflow="visible" id="R"><path d="M8.047-5.828C8.016-7.656 6.609-8.75 4.297-8.75 2.125-8.75.766-7.656.766-5.875c0 .563.171 1.063.484 1.39.297.313.563.454 1.39.72l2.672.828c.547.187.75.359.75.703 0 .53-.625.843-1.656.843-.578 0-1.047-.109-1.328-.296-.234-.172-.344-.36-.437-.813H.469C.53-.625 1.906.36 4.53.36c1.19 0 2.095-.25 2.736-.767.64-.5 1.015-1.297 1.015-2.14 0-1.126-.547-1.845-1.687-2.173L3.78-5.53C3.156-5.72 3-5.844 3-6.203 3-6.672 3.5-7 4.281-7c1.078 0 1.594.39 1.61 1.172zm0 0"/></symbol><symbol overflow="visible" id="S"><path d="M5.578 0l2.969-8.61h-2.36L4.454-2.312 2.578-8.608H.218L3.235 0zm0 0"/></symbol><symbol overflow="visible" id="T"><path d="M6.14-9.625h3.391v-2H.22v2h3.53V0h2.39zm0 0"/></symbol><symbol overflow="visible" id="U"><path d="M9.766 0l2.437-8.61H9.891L8.594-2.577 7.297-8.61H5.063L3.766-2.58 2.39-8.608H.078L2.5 0h2.297l1.375-6.078L7.453 0zm0 0"/></symbol><symbol overflow="visible" id="V"><path d="M3.563-5h5.093v-2H3.562v-2.625h5.782v-2H1.172V0h2.39zm0 0"/></symbol><symbol overflow="visible" id="W"><path d="M1.313 0H6.53c1.345 0 2.236-.25 2.94-.844.703-.594 1.14-1.578 1.14-2.5 0-1.156-.609-2.062-1.921-2.828 1.14-.734 1.593-1.406 1.593-2.39 0-.797-.406-1.641-1.047-2.22-.687-.577-1.5-.843-2.75-.843H1.313zm2.39-9.625h2.594c1.094 0 1.687.453 1.687 1.328C7.984-7.453 7.391-7 6.297-7H3.703zm0 4.625h2.844c1.172 0 1.766.516 1.766 1.516C8.313-2.516 7.718-2 6.546-2H3.703zm0 0"/></symbol><symbol overflow="visible" id="X"><path d="M3.172-5.266v-6.359H.937V0h2.235v-2.828l.89-.969L6.126 0h2.61L5.593-5.36 8.53-8.61H6zm0 0"/></symbol><symbol overflow="visible" id="Y"><path d="M4.688-10.172v7.516c0 .765-.407 1.187-1.125 1.187-.797 0-1.141-.39-1.141-1.328v-.969H.328v1c0 1.063.266 1.72.86 2.282.578.53 1.359.812 2.328.812C5.594.328 6.78-.75 6.78-2.656v-7.516zm0 0"/></symbol><symbol overflow="visible" id="Z"><path d="M4.203-7.656C1.891-7.656.484-6.141.484-3.672c0 2.485 1.407 4 3.735 4 2.281 0 3.718-1.531 3.718-3.937 0-2.563-1.375-4.047-3.734-4.047zm.016 1.578c1.062 0 1.765.953 1.765 2.437 0 1.407-.718 2.391-1.765 2.391-1.063 0-1.782-.984-1.782-2.422 0-1.437.72-2.406 1.782-2.406zm0 0"/></symbol><symbol overflow="visible" id="aa"><path d="M.938-10.172V0H2.89v-4.516C2.89-5.39 3.516-6 4.39-6c.421 0 .765.156.984.453.172.266.219.453.219.938V0h1.953v-5.047c0-.937-.25-1.61-.766-2.047-.437-.36-1.062-.562-1.687-.562-.969 0-1.657.39-2.203 1.203v-3.719zm0 0"/></symbol><symbol overflow="visible" id="ab"><path d="M.875-7.531V0h1.953v-4.516c0-.89.625-1.484 1.578-1.484.844 0 1.266.453 1.266 1.36V0h1.953v-5.047c0-1.672-.922-2.61-2.531-2.61-1.016 0-1.703.376-2.266 1.204v-1.078zm0 0"/></symbol><symbol overflow="visible" id="ac"><path d="M5.547 0L9.03-10.172H6.92L4.704-2.516l-2.266-7.656H.329L3.766 0zm0 0"/></symbol><symbol overflow="visible" id="ad"><path d="M7.313-3.156c.015-.172.015-.235.015-.328 0-.75-.11-1.454-.297-1.985-.5-1.375-1.718-2.187-3.234-2.187-2.172 0-3.485 1.562-3.485 4.078C.313-1.156 1.625.328 3.75.328c1.688 0 3.063-.969 3.484-2.453H5.313c-.235.61-.782.953-1.485.953-.562 0-1.015-.234-1.281-.656-.188-.281-.266-.61-.281-1.328zM2.28-4.453c.125-1.14.625-1.719 1.485-1.719a1.5 1.5 0 011.218.625c.172.281.266.578.297 1.094zm0 0"/></symbol><symbol overflow="visible" id="ae"><path d="M.875-7.531V0h1.953v-4c0-1.156.578-1.719 1.719-1.719.219 0 .344.016.61.047V-7.64c-.11-.015-.173-.015-.235-.015-.89 0-1.672.578-2.094 1.593V-7.53zm0 0"/></symbol><symbol overflow="visible" id="af"><path d="M5.5-7.531L3.937-2.047 2.282-7.53H.125L2.938.312V.36c0 .72-.532 1.266-1.22 1.266-.155 0-.265-.016-.515-.094V3c.297.047.453.063.688.063.5 0 1.078-.11 1.421-.25.532-.22.782-.532 1.094-1.438L7.5-7.531zm0 0"/></symbol><symbol overflow="visible" id="ag"><path d="M3.203-10.172H1.11V0h6.97v-1.75H3.202zm0 0"/></symbol><symbol overflow="visible" id="ah"><path d="M5.688-7.531v1.156c-.579-.89-1.22-1.281-2.094-1.281-1.781 0-3.125 1.734-3.125 4.062 0 2.36 1.234 3.922 3.094 3.922.874 0 1.406-.266 2.124-1.094V.25c0 .906-.671 1.531-1.656 1.531-.734 0-1.234-.297-1.375-.875H.625c.016.594.234.985.75 1.406.594.485 1.422.735 2.594.735 2.265 0 3.578-1.031 3.578-2.797v-7.781zm-1.672 1.5c.984 0 1.703 1.015 1.703 2.422 0 1.359-.703 2.296-1.735 2.296-.921 0-1.562-.937-1.562-2.296 0-1.422.64-2.422 1.594-2.422zm0 0"/></symbol><symbol overflow="visible" id="ai"><path d="M7.313-.234c-.344-.329-.454-.532-.454-.922v-4.188c0-1.531-1.046-2.312-3.078-2.312-2.031 0-3.094.86-3.219 2.61h1.875c.11-.782.422-1.032 1.391-1.032.75 0 1.125.25 1.125.75 0 .25-.125.469-.328.578-.266.14-.266.14-1.234.297l-.782.14C1.11-4.063.391-3.296.391-1.938c0 .641.187 1.172.53 1.547.438.454 1.095.72 1.75.72.845 0 1.61-.376 2.298-1.079 0 .39.047.531.218.75h2.125zm-2.36-2.797c0 1.14-.562 1.781-1.547 1.781-.656 0-1.062-.36-1.062-.906 0-.594.312-.875 1.11-1.031l.671-.141c.516-.094.61-.125.828-.235zm0 0"/></symbol><symbol overflow="visible" id="aj"><path d="M.844-7.531V0h1.953v-4.516c0-.921.5-1.484 1.328-1.484.656 0 1.063.375 1.063.984V0H7.14v-4.516C7.14-5.437 7.64-6 8.484-6c.657 0 1.063.375 1.063.984V0H11.5v-5.328c0-1.469-.89-2.328-2.406-2.328-.938 0-1.61.328-2.203 1.11-.36-.704-1.11-1.11-2.047-1.11-.86 0-1.422.281-2.063 1.062v-.937zm0 0"/></symbol><symbol overflow="visible" id="ak"><path d="M1.078 0h3.969c1.547 0 2.531-.36 3.219-1.188C9.062-2.14 9.5-3.515 9.5-5.094 9.5-6.656 9.062-8.03 8.266-9c-.688-.828-1.657-1.172-3.22-1.172H1.079zm2.094-1.75v-6.672h1.875c1.578 0 2.36 1.094 2.36 3.344 0 2.234-.782 3.328-2.36 3.328zm0 0"/></symbol><symbol overflow="visible" id="al"><path d="M6.61-3.063L7.655 0H9.11L5.547-10.172H3.859L.234 0h1.391l1.063-3.063zM6.25-4.14H3.016l1.671-4.64zm0 0"/></symbol><symbol overflow="visible" id="am"><path d="M3.547-7.313H2.344v-2.015H1.188v2.015H.203v.954h.984v5.515c0 .75.5 1.172 1.407 1.172.281 0 .562-.031.953-.11V-.75a2.912 2.912 0 01-.563.047c-.5 0-.64-.14-.64-.656v-5h1.203zm0 0"/></symbol><symbol overflow="visible" id="an"><path d="M.984-10.172V0h1.157v-4.031c0-1.5.78-2.469 1.968-2.469.391 0 .766.125 1.047.328.328.234.469.594.469 1.11V0h1.156v-5.531c0-1.219-.875-1.985-2.297-1.985-1.03 0-1.671.313-2.343 1.204v-3.86zm0 0"/></symbol><symbol overflow="visible" id="ao"><path d="M7.156-3.266c0-1.109-.078-1.78-.297-2.328-.468-1.203-1.578-1.922-2.953-1.922-2.031 0-3.344 1.563-3.344 3.954 0 2.406 1.266 3.89 3.313 3.89C5.547.328 6.719-.625 7-2.219H5.828C5.516-1.25 4.86-.75 3.922-.75a2.05 2.05 0 01-1.766-.953c-.265-.422-.375-.844-.39-1.563zm-5.36-.953c.095-1.343.923-2.234 2.095-2.234 1.14 0 2.03.953 2.03 2.156 0 .031 0 .063-.015.078zm0 0"/></symbol><symbol overflow="visible" id="ap"><path d="M6.11-5.281c-.016-1.438-.954-2.235-2.657-2.235-1.687 0-2.797.875-2.797 2.235 0 1.14.578 1.687 2.313 2.093l1.094.266c.812.203 1.125.5 1.125 1.031 0 .672-.688 1.141-1.704 1.141-.625 0-1.156-.188-1.453-.484-.172-.22-.265-.422-.328-.938H.47C.53-.484 1.484.328 3.39.328 5.234.328 6.406-.594 6.406-2c0-1.078-.61-1.688-2.062-2.031l-1.125-.266c-.938-.219-1.344-.531-1.344-1.047 0-.672.594-1.11 1.547-1.11.937 0 1.437.407 1.469 1.173zm0 0"/></symbol><symbol overflow="visible" id="aq"><path d="M2.094-7.313H.938V0h1.156zm0-2.859H.922v1.469h1.172zm0 0"/></symbol><symbol overflow="visible" id="ar"><path d="M6.719 0v-7.313H5.562v4.141c0 1.5-.78 2.469-1.984 2.469-.922 0-1.515-.547-1.515-1.438v-5.171H.905v5.64c0 1.219.906 2 2.328 2 1.08 0 1.767-.39 2.439-1.344V0zm0 0"/></symbol><symbol overflow="visible" id="as"><path d="M.75-10.172V0h1.047v-.938C2.359-.078 3.094.329 4.109.329c1.938 0 3.188-1.578 3.188-4.016 0-2.374-1.203-3.828-3.125-3.828-1 0-1.719.375-2.266 1.188v-3.844zm3.203 3.735c1.297 0 2.125 1.14 2.125 2.875 0 1.671-.86 2.796-2.125 2.796-1.234 0-2.047-1.125-2.047-2.828 0-1.719.813-2.844 2.047-2.844zm0 0"/></symbol><symbol overflow="visible" id="at"><path d="M.984-7.313V0h1.172v-4.594c0-1.062.766-1.906 1.703-1.906.875 0 1.36.531 1.36 1.469V0H6.39v-4.594c0-1.062.765-1.906 1.718-1.906.844 0 1.344.547 1.344 1.469V0h1.172v-5.484c0-1.313-.75-2.032-2.11-2.032-.984 0-1.562.282-2.25 1.11-.437-.782-1.015-1.11-1.968-1.11-.969 0-1.625.36-2.25 1.235v-1.032zm0 0"/></symbol><symbol overflow="visible" id="au"><path d="M6.906-10.172H5.75v3.781c-.484-.734-1.266-1.125-2.25-1.125C1.61-7.516.36-6 .36-3.672c0 2.469 1.218 4 3.187 4 1 0 1.703-.39 2.328-1.297V0h1.031zM3.703-6.437c1.25 0 2.047 1.125 2.047 2.859 0 1.687-.813 2.812-2.031 2.812-1.297 0-2.14-1.125-2.14-2.828 0-1.703.843-2.844 2.124-2.844zm0 0"/></symbol><symbol overflow="visible" id="av"><path d="M.984-7.313V0h1.172v-4.031c0-1.5.781-2.469 1.969-2.469.922 0 1.516.563 1.516 1.438V0h1.156v-5.531c0-1.203-.906-1.985-2.313-1.985-1.093 0-1.796.407-2.437 1.438v-1.234zm0 0"/></symbol><symbol overflow="visible" id="aw"><path d="M.75 3.047h1.172V-.766c.625.75 1.297 1.094 2.25 1.094 1.89 0 3.125-1.531 3.125-3.86 0-2.452-1.203-3.984-3.14-3.984-.985 0-1.782.438-2.329 1.313v-1.11H.75zm3.219-9.485c1.281 0 2.11 1.141 2.11 2.875 0 1.672-.845 2.797-2.11 2.797-1.235 0-2.047-1.125-2.047-2.828 0-1.719.812-2.844 2.047-2.844zm0 0"/></symbol><symbol overflow="visible" id="ax"><path d="M7.469-.688c-.125.032-.188.032-.25.032-.407 0-.64-.203-.64-.578v-4.297c0-1.297-.938-1.985-2.735-1.985-1.063 0-1.953.297-2.438.844-.328.375-.468.797-.5 1.516h1.172c.094-.89.625-1.297 1.719-1.297 1.047 0 1.625.39 1.625 1.094v.312c0 .484-.281.688-1.203.813-1.657.203-1.907.25-2.344.437-.86.344-1.281 1-1.281 1.953C.594-.516 1.5.328 2.984.328 3.906.328 4.641 0 5.47-.75c.078.734.453 1.078 1.203 1.078.234 0 .422-.031.797-.125zM5.422-2.296c0 .39-.11.625-.453.938-.469.437-1.047.656-1.735.656-.906 0-1.437-.422-1.437-1.172 0-.766.516-1.156 1.766-1.328 1.218-.172 1.468-.235 1.859-.406zm0 0"/></symbol><symbol overflow="visible" id="ay"><path d="M.969-7.313V0H2.14v-3.797c0-1.047.265-1.734.812-2.14.375-.25.719-.344 1.531-.36v-1.187c-.203-.016-.296-.032-.453-.032-.75 0-1.328.438-2 1.532v-1.329zm0 0"/></symbol><symbol overflow="visible" id="az"><path d="M2.125-10.172H.953V0h1.172zm0 0"/></symbol><symbol overflow="visible" id="aA"><path d="M3.594-7.313H2.39v-1.14c0-.485.28-.735.796-.735h.407v-.953a2.428 2.428 0 00-.656-.078c-1.063 0-1.704.625-1.704 1.672v1.235H.25v.953h.984V0h1.157v-6.36h1.203zm0 0"/></symbol><symbol overflow="visible" id="aB"><path d="M3.516-7.313h-1.22v-1.14c0-.485.282-.735.813-.735h.407v-.953a2.5 2.5 0 00-.657-.078c-1.078 0-1.718.625-1.718 1.672v1.235H.17v.953h.97V0h1.156v-6.36h1.219zm2.562 0H4.922V0h1.156zm0-2.859H4.922v1.469h1.156zm0 0"/></symbol><symbol overflow="visible" id="aC"><path d="M3.797-7.516C1.75-7.516.5-6.062.5-3.594.5-1.14 1.734.328 3.813.328c2.046 0 3.296-1.469 3.296-3.875 0-2.515-1.203-3.969-3.312-3.969zm.015 1.063c1.313 0 2.094 1.078 2.094 2.89 0 1.72-.812 2.813-2.093 2.813-1.297 0-2.094-1.078-2.094-2.844 0-1.765.797-2.86 2.093-2.86zm0 0"/></symbol><symbol overflow="visible" id="aD"><path d="M6.906 3.047v-10.36H5.875v.985C5.328-7.11 4.5-7.516 3.547-7.516c-1.922 0-3.188 1.579-3.188 4C.36-1.14 1.563.328 3.484.328 4.5.328 5.204-.047 5.75-.844v3.89zM3.72-6.438c1.234 0 2.031 1.125 2.031 2.875 0 1.672-.813 2.797-2.031 2.797-1.297 0-2.14-1.125-2.14-2.828 0-1.687.843-2.844 2.14-2.844zm0 0"/></symbol><symbol overflow="visible" id="aE"><path d="M5.75-7.313v1.063c-.594-.86-1.297-1.266-2.234-1.266-1.86 0-3.11 1.61-3.11 3.985 0 1.203.313 2.172.922 2.875.547.61 1.328.984 2.094.984.922 0 1.562-.39 2.219-1.312v.375c0 .984-.125 1.593-.422 1.984-.313.438-.907.688-1.625.688-.531 0-1-.141-1.313-.391-.265-.203-.39-.406-.453-.828H.641c.125 1.375 1.203 2.203 2.921 2.203 1.079 0 2.016-.36 2.5-.938.547-.671.766-1.593.766-3.312v-6.11zm-2.11.86c1.25 0 2 1.062 2 2.89 0 1.75-.75 2.813-1.984 2.813-1.265 0-2.031-1.078-2.031-2.844 0-1.765.781-2.86 2.016-2.86zm0 0"/></symbol><symbol overflow="visible" id="aF"><path d="M1.234 0h3.922c2.578 0 4.157-1.922 4.157-5.094 0-3.156-1.563-5.078-4.157-5.078H1.234zm1.313-1.14v-7.891h2.39c2.016 0 3.079 1.36 3.079 3.953 0 2.562-1.063 3.937-3.079 3.937zm0 0"/></symbol><symbol overflow="visible" id="aG"><path d="M6.578-4.86c-.062-.702-.219-1.171-.5-1.577-.5-.672-1.375-1.079-2.39-1.079-1.97 0-3.25 1.563-3.25 3.985 0 2.36 1.25 3.86 3.234 3.86 1.734 0 2.844-1.048 2.984-2.845H5.484C5.281-1.344 4.688-.75 3.704-.75 2.405-.75 1.64-1.797 1.64-3.531c0-1.828.765-2.922 2.03-2.922.97 0 1.595.578 1.735 1.594zm0 0"/></symbol><symbol overflow="visible" id="aI"><path d="M2.563-4.313h3.203c.796 0 1.421-.234 1.968-.718.61-.563.875-1.219.875-2.157 0-1.906-1.125-2.984-3.14-2.984H1.266V0h1.296zm0-1.14v-3.578H5.28c1.235 0 1.969.672 1.969 1.797 0 1.109-.734 1.78-1.969 1.78zm0 0"/></symbol><symbol overflow="visible" id="aJ"><path d="M9.016-10.172H7.78v8.313l-5.31-8.313H1.063V0H2.28v-8.25L7.547 0h1.469zm0 0"/></symbol><symbol overflow="visible" id="aL"><path d="M1.219-1.453V0h.828v.25c0 .969-.172 1.25-.828 1.266v.53c.968 0 1.453-.624 1.453-1.827v-1.672zm0 0"/></symbol><symbol overflow="visible" id="aM"><path d="M3.984 0l2.797-7.313H5.47L3.406-1.375 1.453-7.313H.141L2.703 0zm0 0"/></symbol><symbol overflow="visible" id="aN"><path d="M6.531 0l2.86-8.531V0h1.234v-10.172H8.812L5.86-1.312l-3.015-8.86H1.047V0H2.28v-8.531L5.156 0zm0 0"/></symbol><symbol overflow="visible" id="aO"><path d="M5.406-7.313L3.391-1.625 1.516-7.313H.28L2.75.032l-.453 1.157c-.172.515-.438.703-.922.703-.172 0-.375-.016-.625-.079V2.86c.234.125.484.188.781.188a1.87 1.87 0 001.094-.36c.36-.265.563-.562.797-1.156l3.25-8.844zm0 0"/></symbol><symbol overflow="visible" id="aQ"><path d="M4.64-10.172v7.156c0 .813-.077 1.266-.312 1.625-.25.391-.734.625-1.25.625-.969 0-1.515-.656-1.515-1.843v-.657H.234v.891C.234-.719 1.328.328 3.063.328c1.78 0 2.874-1.11 2.874-2.875v-7.625zm0 0"/></symbol><symbol overflow="visible" id="aR"><path d="M9.234-7.016c-.406-2.234-1.687-3.328-3.921-3.328-1.36 0-2.47.438-3.22 1.281-.921 1-1.421 2.454-1.421 4.094 0 1.672.515 3.11 1.484 4.11.781.796 1.781 1.187 3.11 1.187 2.484 0 3.875-1.344 4.187-4.047H8.11c-.11.703-.25 1.172-.469 1.579-.407.844-1.282 1.313-2.36 1.313-2.031 0-3.312-1.61-3.312-4.156 0-2.61 1.218-4.204 3.187-4.204.828 0 1.594.25 2.016.641.375.344.594.781.734 1.531zm0 0"/></symbol><symbol overflow="visible" id="aS"><path d="M3.969-4.36H.64v1.016h3.328zm0 0"/></symbol><symbol overflow="visible" id="aH"><path d="M4.594 2.953L1.75-3.5l2.844-6.453H3.89L.734-3.5l3.157 6.453zm0 0"/></symbol><symbol overflow="visible" id="aK"><path d="M4.594-3.5L1.437-9.953H.735L3.594-3.5.734 2.953h.704zm0 0"/></symbol><symbol overflow="visible" id="aP"><path d="M2.89-1c0-.375-.39-.828-.765-.828-.234 0-.734.297-.594.578.532 1.047-.75 2.625-1.078 3l.156.219C1.61 1.609 2.891.03 2.891-1zm0 0"/></symbol><symbol overflow="visible" id="aT"><path d="M6.297-.234l-.063-.36c-.578.14-.953-.015-.953-.719v-2.843c0-1.36-.437-2.219-1.937-2.235-1.25 0-2.125.672-2.516 1.704l.485.28c.468-.64.734-1.296 1.359-1.312 1.203-.047 1.547.703 1.515 1.797l-1.812.61C1.359-2.97.485-2.641.485-1.5c0 1.016.75 1.672 1.718 1.672.766 0 1.985-1.125 1.985-1.125S4.14.094 4.53.094c1.016-.235.688-.157 1.766-.328zm-2.11-1.204c-.328.36-1.015.829-1.515.829-.594 0-.985-.547-1-1.11-.031-.984 2.516-1.75 2.516-1.75zm0 0"/></symbol><symbol overflow="visible" id="aU"><path d="M7.64.016v-.36c-.906-.094-.968-.015-.968-1v-2.89c0-1.344-.688-2.157-2.047-2.157-.906 0-1.578.485-2.156 1.141v-1.078l-.063-.078C1-6 1.406-6.094.296-5.828v.312c.938.094 1.048-.062 1.048 1v3.172c0 1.016-.157.907-1.094 1v.36a55.805 55.805 0 013.234 0v-.36c-.906-.094-1.015.016-1.015-1v-3.25c.234-.562 1.047-.968 1.64-.968 1.016 0 1.438.703 1.438 1.625v2.484c0 .344-.031 1.125-.516 1.172v.297c.875-.047 1.75-.047 2.61 0zm0 0"/></symbol><symbol overflow="visible" id="aV"><path d="M7.656-.156v-.36s-1.093.313-1.093-.875v-8.484l-.079-.14c-1.218.312-.812.218-2.156.5v.328s1.094-.329 1.094.75v2.343s-.797-.297-1.219-.297C2.297-6.39.516-4.89.516-2.92.516-1.17 1.625.188 3.422.173c1.61-.016 2.031-1.14 2.031-1.14L5.406.124c1.36-.203.953-.156 2.25-.281zM5.422-2.094c0 .781-.922 1.469-1.672 1.469-1.39 0-2-1.5-2-2.703 0-1.235.547-2.469 1.969-2.469.297 0 1.703.344 1.703.781zm0 0"/></symbol><symbol overflow="visible" id="aW"><path d="M3.61 2.328L1.374-2.75l2.234-5.063h-.546L.578-2.75l2.485 5.078zm0 0"/></symbol><symbol overflow="visible" id="bc"><path d="M3.61-2.75L1.124-7.813H.578L2.813-2.75.578 2.328h.547zm0 0"/></symbol><symbol overflow="visible" id="aX"><path d="M.656-5.922V0h1.531v-3.547c0-.719.391-1.156 1.047-1.156.516 0 .844.281.844.766V0H5.61v-3.547c0-.719.391-1.156 1.047-1.156.516 0 .828.281.828.766V0h1.547v-4.188c0-1.14-.703-1.828-1.89-1.828-.75 0-1.266.266-1.735.875-.281-.562-.875-.875-1.61-.875-.671 0-1.108.235-1.624.829v-.735zm0 0"/></symbol><symbol overflow="visible" id="aY"><path d="M3.297-6.016C1.484-6.016.39-4.812.39-2.875.39-.937 1.484.25 3.312.25 5.11.25 6.235-.938 6.235-2.844c0-2-1.093-3.172-2.937-3.172zm.015 1.235c.844 0 1.391.765 1.391 1.922 0 1.109-.578 1.875-1.39 1.875-.844 0-1.391-.766-1.391-1.891 0-1.14.547-1.906 1.39-1.906zm0 0"/></symbol><symbol overflow="visible" id="aZ"><path d="M.688-5.922V0h1.53v-3.547c0-.703.5-1.156 1.25-1.156.657 0 .985.36.985 1.062V0h1.531v-3.969c0-1.297-.734-2.047-1.984-2.047-.797 0-1.344.297-1.781.954v-.86zm0 0"/></symbol><symbol overflow="visible" id="ba"><path d="M3.297-5.797h-.86v-1.578H.907v1.578h-.75v1.016h.75v3.64c0 .938.5 1.391 1.5 1.391.343 0 .609-.031.89-.125V-.938c-.156.016-.235.032-.344.032-.406 0-.515-.125-.515-.656v-3.22h.859zm0 0"/></symbol><symbol overflow="visible" id="bb"><path d="M.734-7.984V0h1.532v-3.547c0-.687.5-1.156 1.187-1.156.328 0 .594.11.766.36.125.187.172.343.172.734V0h1.53v-3.969c0-.734-.187-1.25-.593-1.594A2.173 2.173 0 004-6.016c-.766 0-1.313.313-1.734.954v-2.922zm0 0"/></symbol><symbol overflow="visible" id="bd"><path d="M.703-1.594V0h.938v.031c0 .75-.297 1.125-.938 1.266v.61c.453-.063.75-.173 1.047-.407.438-.344.594-.75.594-1.594v-1.5zm0 0"/></symbol><symbol overflow="visible" id="be"><path d="M4.313-5.922l-1.22 4.313-1.312-4.313H.094L2.297.234v.047c0 .563-.406.985-.953.985-.11 0-.203 0-.407-.063V2.36c.235.032.36.047.547.047.391 0 .844-.078 1.11-.187.422-.188.61-.438.875-1.14l2.422-7zm0 0"/></symbol><symbol overflow="visible" id="bf"><path d="M5.734-2.469c.016-.14.016-.187.016-.265 0-.594-.094-1.141-.234-1.563-.391-1.062-1.344-1.719-2.532-1.719-1.703 0-2.75 1.235-2.75 3.22C.234-.907 1.266.25 2.954.25c1.312 0 2.39-.75 2.733-1.922H4.173c-.188.484-.61.75-1.172.75-.438 0-.781-.187-1-.515-.156-.22-.203-.485-.219-1.032zM1.797-3.5c.094-.89.484-1.344 1.156-1.344.39 0 .735.188.953.5.14.219.219.438.25.844zm0 0"/></symbol><symbol overflow="visible" id="bg"><path d="M5.734-.188c-.265-.25-.343-.421-.343-.718v-3.281c0-1.22-.829-1.829-2.422-1.829-1.594 0-2.438.688-2.531 2.047h1.484C2-4.579 2.25-4.78 3-4.78c.594 0 .89.203.89.593a.514.514 0 01-.265.47c-.203.109-.203.109-.969.218l-.61.11c-1.17.201-1.732.81-1.732 1.872 0 .5.14.907.406 1.204.344.359.86.562 1.39.562.657 0 1.25-.281 1.797-.844 0 .313.031.422.172.594h1.656zM3.891-2.374c0 .89-.438 1.39-1.22 1.39-.515 0-.827-.28-.827-.718 0-.453.234-.672.875-.813l.515-.093c.407-.079.485-.094.657-.188zm0 0"/></symbol><symbol overflow="visible" id="bh"><path d="M.688-5.922V0h1.53v-3.14c0-.907.454-1.344 1.36-1.344.156 0 .266 0 .469.03V-6c-.078-.016-.14-.016-.188-.016-.687 0-1.312.47-1.64 1.266v-1.172zm0 0"/></symbol><symbol overflow="visible" id="bi"><path d="M2.328-7.984H.688V0h1.64zm0 0"/></symbol><symbol overflow="visible" id="bj"><path d="M3.422-5.797h-.906v-.578c0-.313.14-.453.421-.453.126 0 .297 0 .438.031v-1.156a19.834 19.834 0 00-.875-.031C1.484-7.984.984-7.5.984-6.5v.703H.156v1.016h.828V0h1.532v-4.781h.906zm0 0"/></symbol><symbol overflow="visible" id="bk"><path d="M2.266-5.922H.734V0h1.532zm0-2.062H.734v1.375h1.532zm0 0"/></symbol><symbol overflow="visible" id="bl"><path d="M2.36-6.219L3.796 0h1.64L6.86-6.219V0H8.5v-7.984H6.031L4.625-1.625l-1.453-6.36H.719V0h1.64zm0 0"/></symbol><symbol overflow="visible" id="bm"><path d="M4.469-5.922V-5c-.453-.703-.969-1.016-1.64-1.016C1.421-6.016.374-4.64.374-2.812.375-.97 1.344.25 2.797.25c.687 0 1.11-.203 1.672-.86v.813c0 .703-.532 1.203-1.297 1.203-.594 0-.969-.25-1.094-.687H.5c0 .453.172.765.578 1.094.469.39 1.125.578 2.031.578 1.782 0 2.813-.797 2.813-2.188v-6.125zM3.156-4.734c.766 0 1.328.796 1.328 1.89 0 1.078-.546 1.813-1.359 1.813-.719 0-1.219-.735-1.219-1.813 0-1.11.5-1.89 1.25-1.89zm0 0"/></symbol><symbol overflow="visible" id="bn"><path d="M6.656-5.547c0-.734-.172-1.219-.562-1.656-.547-.594-1.422-.906-2.578-.906C1.594-8.11.5-7.22.5-5.656c0 1.234.625 1.828 2.234 2.14l1.125.22c1.094.202 1.5.515 1.5 1.155 0 .672-.609 1.079-1.609 1.079-1.125 0-1.75-.47-1.797-1.329H.343C.454-.67 1.626.25 3.657.25c2.063 0 3.281-.969 3.281-2.578 0-1.266-.64-1.922-2.125-2.203l-1.234-.25C2.406-5 2.063-5.234 2.063-5.813c0-.609.53-.984 1.374-.984 1.047 0 1.626.438 1.672 1.25zm0 0"/></symbol><symbol overflow="visible" id="bo"><path d="M5.719-3.703c-.11-1.438-1.078-2.313-2.547-2.313-1.766 0-2.797 1.157-2.797 3.172C.375-.89 1.391.25 3.141.25c1.437 0 2.437-.89 2.578-2.297H4.25c-.203.766-.5 1.063-1.094 1.063-.781 0-1.25-.704-1.25-1.86 0-.547.11-1.078.297-1.422.172-.328.516-.515.953-.515.625 0 .922.297 1.094 1.078zm0 0"/></symbol><symbol overflow="visible" id="bp"><path d="M2.266-7.984H.734V0h1.532zm0 0"/></symbol><symbol overflow="visible" id="bq"><path d="M7.078-7.984H6.11v6.53l-4.171-6.53H.827V0h.969v-6.469L5.922 0h1.156zm0 0"/></symbol><symbol overflow="visible" id="br"><path d="M4.266-8.11C1.969-8.11.422-6.421.422-3.937.422-1.438 1.969.25 4.266.25c.968 0 1.828-.297 2.484-.844.86-.734 1.375-1.969 1.375-3.265 0-2.579-1.516-4.25-3.86-4.25zm0 .891c1.718 0 2.843 1.313 2.843 3.328 0 1.938-1.156 3.25-2.843 3.25-1.688 0-2.829-1.312-2.829-3.296 0-1.97 1.141-3.282 2.829-3.282zm0 0"/></symbol><symbol overflow="visible" id="bs"><path d="M4.297 0l2.766-7.984H5.984l-2.218 6.75-2.344-6.75H.328L3.203 0zm0 0"/></symbol><symbol overflow="visible" id="bt"><path d="M5.188-2.406L6.016 0h1.14L4.344-7.984H3.03L.187 0h1.079l.843-2.406zm-.282-.844H2.36l1.329-3.64zm0 0"/></symbol><symbol overflow="visible" id="bu"><path d="M6.047-7.984v5.609c0 1.078-.781 1.734-2.063 1.734-.593 0-1.078-.14-1.453-.421-.39-.313-.578-.72-.578-1.313v-5.61H.937v5.61C.938-.75 2.095.25 3.985.25 5.86.25 7.063-.781 7.063-2.375v-5.61zm0 0"/></symbol><symbol overflow="visible" id="bv"><path d="M.766-5.734V0h.921v-3.172c0-1.172.61-1.937 1.547-1.937.735 0 1.188.437 1.188 1.14V0h.906v-4.344c0-.953-.703-1.562-1.812-1.562-.86 0-1.407.328-1.907 1.125v-.953zm0 0"/></symbol><symbol overflow="visible" id="bw"><path d="M1.64-5.734H.735V0h.907zm0-2.25H.72v1.156h.922zm0 0"/></symbol><symbol overflow="visible" id="bx"><path d="M3.125 0l2.203-5.734H4.297L2.672-1.078 1.14-5.734H.109L2.125 0zm0 0"/></symbol><symbol overflow="visible" id="by"><path d="M5.625-2.563c0-.874-.078-1.406-.234-1.828-.375-.937-1.25-1.515-2.329-1.515-1.593 0-2.624 1.234-2.624 3.11 0 1.89 1 3.046 2.609 3.046C4.359.25 5.266-.5 5.5-1.734h-.922c-.25.75-.766 1.14-1.5 1.14-.578 0-1.078-.265-1.375-.75-.219-.328-.297-.656-.312-1.218zm-4.219-.75c.078-1.062.735-1.75 1.657-1.75.89 0 1.578.75 1.578 1.688v.063zm0 0"/></symbol><symbol overflow="visible" id="bz"><path d="M.75-5.734V0h.922v-2.984c0-.813.219-1.36.656-1.672.281-.203.547-.266 1.188-.282v-.937c-.157-.016-.235-.031-.344-.031-.594 0-1.047.36-1.578 1.203v-1.031zm0 0"/></symbol><symbol overflow="visible" id="bA"><path d="M4.797-4.14c-.016-1.126-.75-1.766-2.078-1.766-1.344 0-2.203.687-2.203 1.75 0 .906.453 1.328 1.812 1.656l.86.203c.64.156.89.39.89.813 0 .53-.547.89-1.344.89-.484 0-.906-.14-1.14-.375-.14-.172-.203-.328-.25-.734H.375C.422-.391 1.156.25 2.656.25c1.453 0 2.375-.703 2.375-1.813 0-.859-.484-1.328-1.625-1.609l-.875-.203c-.75-.172-1.062-.422-1.062-.813 0-.53.468-.875 1.218-.875.735 0 1.126.313 1.141.922zm0 0"/></symbol><symbol overflow="visible" id="bB"><path d="M2.781-5.734h-.937v-1.579H.937v1.579h-.78V-5h.78v4.344c0 .578.391.906 1.094.906.219 0 .438-.016.75-.078v-.766a1.786 1.786 0 01-.437.047c-.39 0-.5-.11-.5-.515V-5h.937zm0 0"/></symbol><symbol overflow="visible" id="bC"><path d="M4.25-5.734L2.656-1.266 1.187-5.734H.22L2.156.016l-.344.921c-.14.407-.359.547-.734.547-.14 0-.297-.015-.484-.062v.828c.187.094.375.14.61.14.296 0 .609-.093.859-.28.28-.204.453-.438.624-.907l2.547-6.937zm0 0"/></symbol><symbol overflow="visible" id="bD"><path d="M1.89-7.984H.876V0h4.969v-.89H1.89zm0 0"/></symbol><symbol overflow="visible" id="bE"><path d="M.594-7.984V0h.812v-.734c.438.671 1.032.984 1.828.984 1.516 0 2.5-1.234 2.5-3.14 0-1.86-.953-3.016-2.453-3.016-.797 0-1.36.297-1.781.937v-3.015zm2.5 2.937c1.031 0 1.687.89 1.687 2.25 0 1.313-.687 2.188-1.687 2.188C2.14-.61 1.5-1.484 1.5-2.83c0-1.343.64-2.218 1.594-2.218zm0 0"/></symbol><symbol overflow="visible" id="bF"><path d="M2.984-5.906C1.375-5.906.391-4.75.391-2.828.39-.891 1.359.25 2.984.25c1.61 0 2.61-1.14 2.61-3.031 0-1.985-.953-3.125-2.61-3.125zm0 .843c1.032 0 1.657.844 1.657 2.266C4.64-1.453 4-.594 2.984-.594c-1.015 0-1.64-.844-1.64-2.234 0-1.375.625-2.235 1.64-2.235zm0 0"/></symbol><clipPath id="a"><path d="M0 .875h348v10H0zm0 0"/></clipPath><clipPath id="e"><path d="M0 792h92v49.89H0zm0 0"/></clipPath><clipPath id="b"><path d="M0 0h596v842H0z"/></clipPath><g clip-path="url(#a)" id="c"><path d="M.383 10.168H347.87V.926H.383zm0 0" fill="#aeb3b6"/></g><g id="q" clip-path="url(#b)"><path d="M0 49.504h60.559V-.023H0zm0 396.203h37.375v-49.531H0zm0 0" fill="#5c666c"/><path d="M0 346.652v49.528l57.14-.004v-49.524zm0 148.582h57.242v-49.53H0zm0 99.047h37.266v-49.527H0zm0 0" fill="#bed62f"/><path d="M0 544.758h91.227v-49.531H0zm0 99.047h76.152V594.28H0zm0 0" fill="#5c666c"/><path d="M0 297.129h110.566v-49.524H0zm0 0" fill="#bed62f"/><path d="M0 346.656h75.89v-49.531H0zm0 0" fill="#5c666c"/><path d="M0 99.031h142.98V49.504H0zm0 0" fill="#bed62f"/><path d="M0 148.578h93.707V99.043H0zm0 0" fill="#5c666c"/><path d="M0 99.043h142.98v-49.54H0zm0 99.07h9.242v-49.535H0zm0 0" fill="#bed62f"/><path d="M31.102 90.258L17.934 69.242v21.016h-7.079V58.285h8.657l12 19.438V58.285h7.12v31.973zm28.328-6.356c4.418 0 9.199-2.98 9.199-9.656s-4.781-9.695-9.2-9.695c-4.464 0-9.25 3.02-9.25 9.695 0 6.676 4.786 9.656 9.25 9.656m0-26.293c8.977 0 16.594 6.54 16.594 16.684 0 10.102-7.617 16.644-16.593 16.644-9.02 0-16.645-6.542-16.645-16.644 0-10.145 7.625-16.684 16.645-16.684m39.554.676h7.575l-11.68 31.973H87.53L75.805 58.285h7.843l7.715 22.504zm14.254 18.985h7.758l-3.836-11.051zm10.012 6.492h-12.355l-2.301 6.496h-7.489l12.047-31.973h8.25l11.907 31.973h-7.758zM10.54 109.27h6.558v29.078h-6.559zm132.44 4.71h6.56v29.079h-6.56zm-93.039 24.368v-19.274l-7.586 19.274h-5.25l-7.582-19.028v19.028h-6.156V109.27h8.453l7.996 19.644 7.582-19.644h8.903v29.078zm26.856-20.301c-.203-1.352-1.313-3.652-4.836-3.652-2.418 0-3.977 1.52-3.977 3.12 0 1.391.864 2.422 2.875 2.786l3.887.742c5.543 1.023 8.406 4.594 8.406 8.73 0 4.555-3.808 9.188-10.742 9.188-8.031 0-11.48-5.207-11.89-9.309l5.945-1.433c.25 2.664 2.05 5 6.031 5 2.54 0 4.098-1.23 4.098-3.031 0-1.481-1.188-2.543-3.114-2.918l-3.98-.735c-4.922-.941-7.914-4.222-7.914-8.531 0-5.492 4.84-9.348 10.414-9.348 7.262 0 10.012 4.348 10.621 7.75zm0 0" fill="#fff"/><path d="M17.145 152.895h2.128v10.808h-2.128zm6.183 10.808h-2.027v-7.496h1.969v.926c.457-.778 1.355-1.13 2.164-1.13 1.859 0 2.71 1.325 2.71 2.974v4.726h-2.027v-4.375c0-.84-.41-1.492-1.387-1.492-.882 0-1.402.687-1.402 1.555zm9.008-8.32v.82h1.691v1.738h-1.691v5.758h-2.043v-5.758h-1.25v-1.738h1.25v-.851c0-1.696 1.066-2.793 2.73-2.793.426 0 .84.078 1.004.156v1.703c-.105-.027-.3-.078-.636-.078-.457 0-1.055.203-1.055 1.043m7.82 4.567c0-1.415-.914-2.13-1.902-2.13-.992 0-1.906.715-1.906 2.13 0 1.405.914 2.136 1.906 2.136.988 0 1.902-.711 1.902-2.137m2.028 0c0 2.309-1.688 3.985-3.93 3.985s-3.934-1.676-3.934-3.985c0-2.312 1.692-3.976 3.934-3.976s3.93 1.664 3.93 3.976m5.886-1.734a3.012 3.012 0 00-.61-.063c-1.034 0-1.937.508-1.937 2.121v3.426h-2.027v-7.496h1.969v1.113c.453-.992 1.488-1.175 2.133-1.175.168 0 .32.015.472.035zm1.145 5.488v-7.496h1.933v.91c.41-.73 1.375-1.129 2.2-1.129 1.015 0 1.84.442 2.222 1.254.594-.918 1.383-1.254 2.375-1.254 1.39 0 2.715.84 2.715 2.856v4.86h-1.965v-4.45c0-.809-.394-1.418-1.328-1.418-.87 0-1.383.672-1.383 1.476v4.391H53.97v-4.45c0-.808-.41-1.417-1.324-1.417-.883 0-1.403.652-1.403 1.476v4.391zm17.406-3.031v-.34l-1.691.262c-.52.078-.93.367-.93.945 0 .441.32.863.977.863.855 0 1.644-.406 1.644-1.73m-2.406-1.281l1.84-.274c.43-.062.566-.273.566-.535 0-.535-.41-.977-1.266-.977-.882 0-1.37.563-1.43 1.215l-1.8-.375c.121-1.175 1.207-2.472 3.215-2.472 2.383 0 3.265 1.343 3.265 2.847v3.692c0 .398.043.933.086 1.191h-1.855c-.05-.2-.078-.61-.078-.898-.38.593-1.094 1.113-2.207 1.113-1.602 0-2.578-1.082-2.578-2.254 0-1.344.992-2.09 2.242-2.273m8.594-3.188h1.507v1.8H72.81v3.142c0 .656.308.867.886.867.243 0 .516-.035.621-.063v1.68c-.18.074-.543.18-1.14.18-1.465 0-2.38-.868-2.38-2.317v-3.488h-1.355v-1.8h.38c.796 0 1.16-.52 1.16-1.192v-1.051h1.828zm2.945.004h2.027v7.5h-2.027zm1.004-3.723c.699 0 1.25.567 1.25 1.266 0 .672-.551 1.234-1.25 1.234a1.25 1.25 0 01-1.25-1.234c0-.7.562-1.266 1.25-1.266m8.172 7.466c0-1.415-.918-2.13-1.903-2.13-.992 0-1.91.715-1.91 2.13 0 1.405.918 2.136 1.91 2.136.985 0 1.903-.711 1.903-2.137m2.023 0c0 2.309-1.691 3.985-3.926 3.985-2.246 0-3.937-1.676-3.937-3.985 0-2.312 1.691-3.976 3.937-3.976 2.235 0 3.926 1.664 3.926 3.976m3.344 3.754H88.27v-7.496h1.96v.926c.461-.778 1.36-1.13 2.168-1.13 1.86 0 2.715 1.325 2.715 2.974v4.726h-2.027v-4.375c0-.84-.414-1.492-1.39-1.492-.883 0-1.4.687-1.4 1.555zM27.125 178.95v-7.575l-3.11 7.574h-1.753l-3.11-7.515v7.515h-2.007v-10.808h2.77l3.245 7.804 3.172-7.804h2.867v10.808zm0 0" fill="#5c666c"/><use xlink:href="#c" transform="translate(195 168)" mask="url(#d)"/><path d="M35.387 175.914v-.332l-1.692.258c-.52.074-.933.363-.933.941 0 .446.32.871.98.871.852 0 1.645-.406 1.645-1.738m-2.407-1.281l1.84-.274c.426-.058.567-.273.567-.53 0-.536-.41-.977-1.262-.977-.887 0-1.375.562-1.434 1.218l-1.804-.379c.125-1.171 1.207-2.468 3.222-2.468 2.375 0 3.258 1.34 3.258 2.847v3.692c0 .394.047.925.094 1.187h-1.863c-.047-.203-.075-.61-.075-.898-.378.594-1.097 1.11-2.21 1.11-1.598 0-2.579-1.083-2.579-2.255 0-1.34.993-2.09 2.246-2.273m8.168 4.317h-2.027v-7.5h1.969v.929c.457-.777 1.355-1.129 2.164-1.129 1.86 0 2.71 1.324 2.71 2.969v4.73h-2.026v-4.375c0-.84-.41-1.492-1.387-1.492-.883 0-1.403.684-1.403 1.555zm10.778-3.036v-.332l-1.692.258c-.52.074-.925.363-.925.941 0 .446.316.871.972.871.852 0 1.645-.406 1.645-1.738m-2.406-1.281l1.847-.274c.422-.058.559-.273.559-.53 0-.536-.41-.977-1.262-.977-.887 0-1.379.562-1.437 1.218l-1.793-.379c.117-1.171 1.199-2.468 3.21-2.468 2.38 0 3.262 1.34 3.262 2.847v3.692c0 .394.051.925.094 1.187h-1.86c-.046-.203-.074-.61-.074-.898-.382.594-1.101 1.11-2.214 1.11-1.602 0-2.57-1.083-2.57-2.255 0-1.34.984-2.09 2.238-2.273m11.187.34c0-1.164-.793-1.891-1.77-1.891-1.003 0-1.796.727-1.796 1.89 0 1.173.746 1.903 1.797 1.903 1.039 0 1.769-.746 1.769-1.902m-3.781 3.898c.14.824.793 1.414 1.754 1.414 1.277 0 1.996-.633 1.996-2.086v-.547c-.305.489-1.008.961-2.086.961-1.996 0-3.492-1.539-3.492-3.64 0-1.985 1.43-3.66 3.492-3.66 1.187 0 1.875.515 2.129 1.019v-.883h1.953v6.692c0 2.058-1.113 3.933-3.93 3.933-2.062 0-3.43-1.281-3.644-2.715zm12.351-4.527c-.035-.746-.52-1.48-1.68-1.48-1.05 0-1.628.792-1.679 1.48zm1.887 2.453c-.383 1.297-1.57 2.383-3.414 2.383-2.059 0-3.875-1.485-3.875-4.012 0-2.39 1.77-3.953 3.691-3.953 2.32 0 3.704 1.484 3.704 3.894 0 .286-.032.594-.032.621h-5.363c.043.997.883 1.711 1.887 1.711.949 0 1.465-.476 1.71-1.144zm1.418 2.153v-7.5h1.938v.91c.41-.731 1.37-1.126 2.19-1.126 1.024 0 1.849.438 2.228 1.246.593-.91 1.386-1.246 2.378-1.246 1.387 0 2.711.836 2.711 2.852v4.863h-1.965v-4.453c0-.805-.394-1.414-1.324-1.414-.867 0-1.39.668-1.39 1.473v4.394h-2.012v-4.453c0-.805-.41-1.414-1.324-1.414-.883 0-1.407.652-1.407 1.473v4.394zm18.051-4.606c-.031-.746-.524-1.48-1.68-1.48-1.05 0-1.629.792-1.676 1.48zm1.887 2.453c-.38 1.297-1.57 2.383-3.41 2.383-2.063 0-3.876-1.485-3.876-4.012 0-2.39 1.77-3.953 3.688-3.953 2.316 0 3.707 1.484 3.707 3.894 0 .286-.031.594-.031.621h-5.364c.043.997.883 1.711 1.883 1.711.95 0 1.469-.476 1.711-1.144zm3.445 2.153h-2.028v-7.5h1.97v.929c.456-.777 1.355-1.129 2.163-1.129 1.856 0 2.711 1.324 2.711 2.969v4.73h-2.027v-4.375c0-.84-.414-1.492-1.383-1.492-.89 0-1.406.684-1.406 1.555zm9.09-7.5h1.504v1.8h-1.504v3.137c0 .656.304.867.882.867.239 0 .516-.027.622-.059v1.676c-.18.078-.547.188-1.145.188-1.46 0-2.375-.871-2.375-2.32v-3.489h-1.352v-1.8h.376c.796 0 1.16-.52 1.16-1.188v-1.051h1.832zm-82.532 15.093c-.109-.598-.597-1.527-1.968-1.527-1.02 0-1.692.66-1.692 1.375 0 .593.38 1.062 1.172 1.214l1.512.29c1.965.378 3.02 1.664 3.02 3.187 0 1.664-1.391 3.336-3.907 3.336-2.863 0-4.133-1.844-4.297-3.379l1.95-.523c.093 1.07.84 2.027 2.367 2.027 1.125 0 1.75-.563 1.75-1.324 0-.621-.473-1.11-1.313-1.281l-1.508-.305c-1.722-.352-2.832-1.465-2.832-3.09 0-1.926 1.723-3.387 3.762-3.387 2.621 0 3.629 1.582 3.871 2.809zm4.786 3.902c0 1.352.882 2.114 1.918 2.114 1.039 0 1.558-.684 1.722-1.266l1.785.602c-.336 1.246-1.507 2.523-3.507 2.523-2.207 0-3.946-1.672-3.946-3.973 0-2.32 1.703-3.98 3.883-3.98 2.043 0 3.207 1.265 3.523 2.531l-1.812.61c-.184-.63-.656-1.266-1.66-1.266-1.04 0-1.906.742-1.906 2.105m8.656 3.75h-2.028v-11.039h2.028v4.16c.488-.578 1.308-.824 2.027-.824 1.91 0 2.793 1.328 2.793 2.977v4.726h-2.027v-4.379c0-.84-.414-1.492-1.39-1.492-.856 0-1.356.637-1.403 1.461zm11.859-3.75c0-1.422-.914-2.136-1.906-2.136-.988 0-1.902.714-1.902 2.136 0 1.399.914 2.13 1.902 2.13.992 0 1.906-.716 1.906-2.13m2.028 0c0 2.301-1.692 3.973-3.934 3.973-2.238 0-3.93-1.672-3.93-3.973 0-2.32 1.692-3.98 3.93-3.98 2.242 0 3.934 1.66 3.934 3.98m6.586 0c0-1.422-.91-2.136-1.903-2.136-.992 0-1.91.714-1.91 2.136 0 1.399.918 2.13 1.91 2.13.992 0 1.903-.716 1.903-2.13m2.027 0c0 2.301-1.692 3.973-3.93 3.973-2.242 0-3.937-1.672-3.937-3.973 0-2.32 1.695-3.98 3.937-3.98 2.238 0 3.93 1.66 3.93 3.98m1.312-7.289h2.028v11.04h-2.028zm.786 14.922H0v49.527h60.563zm0 0" fill="#5c666c"/><path d="M57.242 742.852H0v49.527h57.242zm0 0" fill="#bed62f"/><g clip-path="url(#e)"><path d="M91.227 792.379H0v49.527h91.227zm0 0" fill="#5c666c"/></g><path d="M93.766 643.8H0v49.532h93.766zm0 0" fill="#bed62f"/><path d="M110.566 742.816H0v-49.488h110.566zm0 0" fill="#5c666c"/><g fill="#5c666c"><use xlink:href="#f" x="192.283" y="93.074"/><use xlink:href="#g" x="222.951" y="93.074"/></g><use xlink:href="#h" x="255.382" y="93.074" fill="#5c666c"/><use xlink:href="#i" x="284.82" y="93.074" fill="#5c666c"/><use xlink:href="#g" x="309.707" y="93.074" fill="#5c666c"/><use xlink:href="#j" x="342.138" y="93.074" fill="#5c666c"/><use xlink:href="#k" x="367.64" y="93.074" fill="#5c666c"/><use xlink:href="#i" x="393.06" y="93.074" fill="#5c666c"/><use xlink:href="#l" x="418.603" y="93.074" fill="#5c666c"/><g fill="#5c666c"><use xlink:href="#m" x="192.201" y="134.076"/><use xlink:href="#j" x="215.817" y="134.076"/></g><g fill="#5c666c"><use xlink:href="#g" x="241.155" y="134.076"/><use xlink:href="#n" x="273.586" y="134.076"/></g><use xlink:href="#j" x="305.115" y="134.076" fill="#5c666c"/><use xlink:href="#k" x="330.699" y="134.076" fill="#5c666c"/><use xlink:href="#o" x="358.825" y="134.076" fill="#5c666c"/></g><filter id="p" filterUnits="objectBoundingBox" x="0%" y="0%" width="100%" height="100%"><feColorMatrix in="SourceGraphic" values="0 0 0 0 1 0 0 0 0 1 0 0 0 0 1 0 0 0 1 0"/></filter><mask id="d"><g filter="url(#p)"><path fill-opacity=".2" d="M0 0h596v842H0z"/></g></mask></defs><use xlink:href="#q"/><use xlink:href="#r" x="198.624" y="294.998" fill="#646464"/><g fill="#646464"><use xlink:href="#s" x="204.714" y="294.998"/><use xlink:href="#t" x="215.346" y="294.998"/><use xlink:href="#u" x="225.086" y="294.998"/></g><g fill="#646464"><use xlink:href="#s" x="241.026" y="294.998"/><use xlink:href="#v" x="251.658" y="294.998"/></g><g fill="#646464"><use xlink:href="#w" x="257.54" y="294.998"/><use xlink:href="#x" x="267.279" y="294.998"/><use xlink:href="#v" x="277.019" y="294.998"/><use xlink:href="#y" x="283.219" y="294.998"/><use xlink:href="#z" x="292.082" y="294.998"/></g><g fill="#646464"><use xlink:href="#A" x="310.684" y="294.998"/><use xlink:href="#y" x="322.193" y="294.998"/><use xlink:href="#z" x="331.056" y="294.998"/><use xlink:href="#B" x="345.227" y="294.998"/></g><use xlink:href="#C" x="354.088" y="294.998" fill="#646464"/><g fill="#bebebe"><use xlink:href="#D" x="198.624" y="331.275"/><use xlink:href="#E" x="209.256" y="331.275"/><use xlink:href="#B" x="218.996" y="331.275"/><use xlink:href="#F" x="227.858" y="331.275"/><use xlink:href="#G" x="236.721" y="331.275"/><use xlink:href="#y" x="241.152" y="331.275"/><use xlink:href="#H" x="250.015" y="331.275"/><use xlink:href="#G" x="254.447" y="331.275"/><use xlink:href="#I" x="258.878" y="331.275"/><use xlink:href="#y" x="266.848" y="331.275"/><use xlink:href="#J" x="275.711" y="331.275"/><use xlink:href="#G" x="281.019" y="331.275"/><use xlink:href="#w" x="285.45" y="331.275"/><use xlink:href="#K" x="295.19" y="331.275"/></g><g fill="#bebebe"><use xlink:href="#G" x="309.361" y="331.275"/><use xlink:href="#K" x="313.792" y="331.275"/></g><use xlink:href="#r" x="327.962" y="331.275" fill="#bebebe"/><g fill="#bebebe"><use xlink:href="#D" x="334.051" y="331.275"/><use xlink:href="#E" x="344.683" y="331.275"/><use xlink:href="#B" x="354.423" y="331.275"/><use xlink:href="#F" x="363.285" y="331.275"/><use xlink:href="#G" x="372.148" y="331.275"/><use xlink:href="#y" x="376.579" y="331.275"/><use xlink:href="#H" x="385.442" y="331.275"/><use xlink:href="#G" x="389.874" y="331.275"/><use xlink:href="#J" x="394.305" y="331.275"/><use xlink:href="#L" x="399.613" y="331.275"/></g><g fill="#bebebe"><use xlink:href="#A" x="412.907" y="331.275"/><use xlink:href="#y" x="424.416" y="331.275"/><use xlink:href="#z" x="433.279" y="331.275"/><use xlink:href="#B" x="447.45" y="331.275"/></g><use xlink:href="#C" x="456.311" y="331.275" fill="#bebebe"/><use xlink:href="#M" x="197.987" y="398.734" fill="#646464"/><use xlink:href="#N" x="213.927" y="398.734" fill="#646464"/><g fill="#646464"><use xlink:href="#B" x="223.762" y="398.734"/><use xlink:href="#v" x="232.625" y="398.734"/></g><use xlink:href="#L" x="238.985" y="398.734" fill="#646464"/><g fill="#646464"><use xlink:href="#O" x="252.279" y="398.734"/><use xlink:href="#w" x="262.019" y="398.734"/><use xlink:href="#K" x="271.758" y="398.734"/><use xlink:href="#x" x="281.498" y="398.734"/></g><g fill="#646464"><use xlink:href="#y" x="295.669" y="398.734"/><use xlink:href="#K" x="304.531" y="398.734"/><use xlink:href="#P" x="314.271" y="398.734"/></g><g fill="#646464"><use xlink:href="#Q" x="328.442" y="398.734"/><use xlink:href="#z" x="332.873" y="398.734"/><use xlink:href="#E" x="347.044" y="398.734"/><use xlink:href="#v" x="356.783" y="398.734"/><use xlink:href="#B" x="362.984" y="398.734"/><use xlink:href="#R" x="371.847" y="398.734"/><use xlink:href="#R" x="380.71" y="398.734"/><use xlink:href="#G" x="389.572" y="398.734"/><use xlink:href="#S" x="394.004" y="398.734"/><use xlink:href="#B" x="402.866" y="398.734"/></g><g fill="#646464"><use xlink:href="#T" x="198.083" y="418.069"/><use xlink:href="#t" x="207.822" y="418.069"/><use xlink:href="#B" x="217.562" y="418.069"/><use xlink:href="#R" x="226.425" y="418.069"/><use xlink:href="#G" x="235.287" y="418.069"/><use xlink:href="#R" x="239.719" y="418.069"/></g><g fill="#646464"><use xlink:href="#T" x="253.013" y="418.069"/><use xlink:href="#G" x="262.752" y="418.069"/><use xlink:href="#J" x="267.184" y="418.069"/><use xlink:href="#H" x="272.492" y="418.069"/><use xlink:href="#B" x="276.923" y="418.069"/></g><g fill="#646464"><use xlink:href="#U" x="290.217" y="418.069"/><use xlink:href="#G" x="302.619" y="418.069"/><use xlink:href="#J" x="307.05" y="418.069"/><use xlink:href="#t" x="312.358" y="418.069"/></g><use xlink:href="#y" x="326.529" y="418.069" fill="#646464"/><g fill="#646464"><use xlink:href="#V" x="339.823" y="418.069"/><use xlink:href="#w" x="349.563" y="418.069"/><use xlink:href="#v" x="359.302" y="418.069"/></g><g fill="#646464"><use xlink:href="#F" x="365.184" y="418.069"/><use xlink:href="#B" x="374.047" y="418.069"/><use xlink:href="#P" x="382.91" y="418.069"/></g><g fill="#646464"><use xlink:href="#O" x="397.08" y="418.069"/><use xlink:href="#G" x="406.82" y="418.069"/><use xlink:href="#K" x="411.251" y="418.069"/><use xlink:href="#B" x="420.991" y="418.069"/></g><g fill="#646464"><use xlink:href="#W" x="434.285" y="418.069"/><use xlink:href="#v" x="445.794" y="418.069"/><use xlink:href="#B" x="451.994" y="418.069"/><use xlink:href="#y" x="460.857" y="418.069"/><use xlink:href="#X" x="469.72" y="418.069"/></g><g fill="#646464"><use xlink:href="#Y" x="198.192" y="440.478"/><use xlink:href="#Z" x="205.947" y="440.478"/><use xlink:href="#aa" x="214.469" y="440.478"/><use xlink:href="#ab" x="222.991" y="440.478"/></g><use xlink:href="#ac" x="235.391" y="440.478" fill="#646464"/><g fill="#646464"><use xlink:href="#ad" x="243.996" y="440.478"/><use xlink:href="#ae" x="251.751" y="440.478"/></g><use xlink:href="#af" x="257.316" y="440.478" fill="#646464"/><g fill="#646464"><use xlink:href="#ag" x="268.949" y="440.478"/><use xlink:href="#Z" x="277.471" y="440.478"/><use xlink:href="#ab" x="285.993" y="440.478"/><use xlink:href="#ah" x="294.515" y="440.478"/><use xlink:href="#ab" x="303.037" y="440.478"/><use xlink:href="#ai" x="311.559" y="440.478"/><use xlink:href="#aj" x="319.314" y="440.478"/><use xlink:href="#ad" x="331.713" y="440.478"/></g><g fill="#646464"><use xlink:href="#ak" x="343.346" y="440.478"/><use xlink:href="#Z" x="353.416" y="440.478"/><use xlink:href="#ad" x="361.938" y="440.478"/></g><use xlink:href="#al" x="198.122" y="605.44" fill="#646464"/><g fill="#646464"><use xlink:href="#am" x="211.303" y="605.44"/><use xlink:href="#an" x="215.18" y="605.44"/><use xlink:href="#ao" x="222.935" y="605.44"/><use xlink:href="#ap" x="230.69" y="605.44"/><use xlink:href="#aq" x="237.664" y="605.44"/><use xlink:href="#ap" x="240.76" y="605.44"/></g><g fill="#646464"><use xlink:href="#ap" x="251.611" y="605.44"/><use xlink:href="#ar" x="258.585" y="605.44"/><use xlink:href="#as" x="266.34" y="605.44"/><use xlink:href="#at" x="274.095" y="605.44"/><use xlink:href="#aq" x="285.714" y="605.44"/><use xlink:href="#am" x="288.81" y="605.44"/><use xlink:href="#am" x="292.687" y="605.44"/><use xlink:href="#ao" x="296.565" y="605.44"/><use xlink:href="#au" x="304.32" y="605.44"/></g><g fill="#646464"><use xlink:href="#aq" x="315.952" y="605.44"/><use xlink:href="#av" x="319.049" y="605.44"/></g><g fill="#646464"><use xlink:href="#aw" x="330.681" y="605.44"/><use xlink:href="#ax" x="338.436" y="605.44"/><use xlink:href="#ay" x="346.191" y="605.44"/></g><g fill="#646464"><use xlink:href="#am" x="351.393" y="605.44"/><use xlink:href="#aq" x="355.271" y="605.44"/><use xlink:href="#ax" x="358.367" y="605.44"/><use xlink:href="#az" x="366.122" y="605.44"/></g><g fill="#646464"><use xlink:href="#aA" x="373.096" y="605.44"/><use xlink:href="#ar" x="376.973" y="605.44"/><use xlink:href="#az" x="384.728" y="605.44"/><use xlink:href="#aB" x="387.825" y="605.44"/><use xlink:href="#az" x="394.799" y="605.44"/><use xlink:href="#az" x="397.895" y="605.44"/><use xlink:href="#at" x="400.991" y="605.44"/><use xlink:href="#ao" x="412.61" y="605.44"/><use xlink:href="#av" x="420.365" y="605.44"/><use xlink:href="#am" x="428.12" y="605.44"/></g><g fill="#646464"><use xlink:href="#aC" x="435.874" y="605.44"/><use xlink:href="#aA" x="443.629" y="605.44"/></g><g fill="#646464"><use xlink:href="#am" x="451.384" y="605.44"/><use xlink:href="#an" x="455.262" y="605.44"/><use xlink:href="#ao" x="463.017" y="605.44"/></g><g fill="#646464"><use xlink:href="#ay" x="198.624" y="622.359"/><use xlink:href="#ao" x="203.269" y="622.359"/><use xlink:href="#aD" x="211.024" y="622.359"/><use xlink:href="#ar" x="218.778" y="622.359"/><use xlink:href="#aq" x="226.533" y="622.359"/><use xlink:href="#ay" x="229.63" y="622.359"/><use xlink:href="#ao" x="234.274" y="622.359"/><use xlink:href="#at" x="242.029" y="622.359"/><use xlink:href="#ao" x="253.648" y="622.359"/><use xlink:href="#av" x="261.403" y="622.359"/><use xlink:href="#am" x="269.158" y="622.359"/><use xlink:href="#ap" x="273.035" y="622.359"/></g><use xlink:href="#aA" x="283.886" y="622.359" fill="#646464"/><g fill="#646464"><use xlink:href="#aC" x="287.345" y="622.359"/><use xlink:href="#ay" x="295.1" y="622.359"/></g><g fill="#646464"><use xlink:href="#am" x="303.622" y="622.359"/><use xlink:href="#an" x="307.5" y="622.359"/><use xlink:href="#ao" x="315.255" y="622.359"/></g><g fill="#646464"><use xlink:href="#au" x="326.887" y="622.359"/><use xlink:href="#ao" x="334.642" y="622.359"/><use xlink:href="#aE" x="342.397" y="622.359"/></g><g fill="#646464"><use xlink:href="#ay" x="350.012" y="622.359"/><use xlink:href="#ao" x="354.657" y="622.359"/><use xlink:href="#ao" x="362.412" y="622.359"/></g><g fill="#646464"><use xlink:href="#aC" x="374.044" y="622.359"/><use xlink:href="#aA" x="381.799" y="622.359"/></g><g fill="#646464"><use xlink:href="#aF" x="389.554" y="622.359"/><use xlink:href="#aC" x="399.624" y="622.359"/><use xlink:href="#aG" x="407.379" y="622.359"/><use xlink:href="#am" x="414.353" y="622.359"/><use xlink:href="#aC" x="418.231" y="622.359"/><use xlink:href="#ay" x="425.985" y="622.359"/></g><g fill="#646464"><use xlink:href="#aq" x="434.508" y="622.359"/><use xlink:href="#av" x="437.604" y="622.359"/></g><use xlink:href="#aH" x="449.233" y="622.359" fill="#646464"/><g fill="#646464"><use xlink:href="#aI" x="454.561" y="622.359"/><use xlink:href="#an" x="463.864" y="622.359"/><use xlink:href="#aF" x="471.619" y="622.359"/></g><g fill="#646464"><use xlink:href="#aI" x="485.567" y="622.359"/><use xlink:href="#ay" x="494.87" y="622.359"/><use xlink:href="#aC" x="499.514" y="622.359"/><use xlink:href="#aE" x="507.269" y="622.359"/></g><use xlink:href="#ay" x="514.885" y="622.359" fill="#646464"/><g fill="#646464"><use xlink:href="#ax" x="519.39" y="622.359"/><use xlink:href="#at" x="527.145" y="622.359"/></g><g fill="#646464"><use xlink:href="#aJ" x="198.624" y="639.277"/><use xlink:href="#ax" x="208.694" y="639.277"/><use xlink:href="#at" x="216.449" y="639.277"/><use xlink:href="#ao" x="228.068" y="639.277"/></g><use xlink:href="#aK" x="235.823" y="639.277" fill="#646464"/><use xlink:href="#aL" x="241.151" y="639.277" fill="#646464"/><g fill="#646464"><use xlink:href="#ar" x="248.906" y="639.277"/><use xlink:href="#av" x="256.661" y="639.277"/><use xlink:href="#au" x="264.416" y="639.277"/><use xlink:href="#ao" x="272.171" y="639.277"/><use xlink:href="#ay" x="279.926" y="639.277"/></g><g fill="#646464"><use xlink:href="#am" x="288.448" y="639.277"/><use xlink:href="#an" x="292.325" y="639.277"/><use xlink:href="#ao" x="300.08" y="639.277"/></g><g fill="#646464"><use xlink:href="#ap" x="311.712" y="639.277"/><use xlink:href="#ar" x="318.686" y="639.277"/><use xlink:href="#aw" x="326.441" y="639.277"/><use xlink:href="#ao" x="334.196" y="639.277"/><use xlink:href="#ay" x="341.951" y="639.277"/></g><g fill="#646464"><use xlink:href="#aM" x="347.014" y="639.277"/><use xlink:href="#aq" x="353.988" y="639.277"/><use xlink:href="#ap" x="357.084" y="639.277"/><use xlink:href="#aq" x="364.058" y="639.277"/><use xlink:href="#aC" x="367.155" y="639.277"/><use xlink:href="#av" x="374.909" y="639.277"/></g><g fill="#646464"><use xlink:href="#aC" x="386.542" y="639.277"/><use xlink:href="#aA" x="394.297" y="639.277"/></g><g fill="#646464"><use xlink:href="#aN" x="402.052" y="639.277"/><use xlink:href="#ax" x="413.67" y="639.277"/><use xlink:href="#ay" x="421.425" y="639.277"/></g><use xlink:href="#aO" x="426.488" y="639.277" fill="#646464"/><g fill="#646464"><use xlink:href="#aF" x="437.339" y="639.277"/><use xlink:href="#aC" x="447.41" y="639.277"/><use xlink:href="#ao" x="455.165" y="639.277"/></g><g fill="#646464"><use xlink:href="#al" x="466.797" y="639.277"/><use xlink:href="#au" x="476.1" y="639.277"/><use xlink:href="#aM" x="483.855" y="639.277"/><use xlink:href="#aq" x="490.829" y="639.277"/><use xlink:href="#ap" x="493.925" y="639.277"/><use xlink:href="#ao" x="500.899" y="639.277"/><use xlink:href="#ay" x="508.654" y="639.277"/></g><g fill="#646464"><use xlink:href="#aJ" x="198.624" y="656.196"/><use xlink:href="#ax" x="208.694" y="656.196"/><use xlink:href="#at" x="216.449" y="656.196"/><use xlink:href="#ao" x="228.068" y="656.196"/></g><use xlink:href="#aP" x="235.823" y="656.196" fill="#646464"/><g fill="#646464"><use xlink:href="#aQ" x="243.006" y="656.196"/><use xlink:href="#aC" x="249.98" y="656.196"/><use xlink:href="#an" x="257.735" y="656.196"/><use xlink:href="#av" x="265.49" y="656.196"/></g><g fill="#646464"><use xlink:href="#aF" x="277.122" y="656.196"/><use xlink:href="#aC" x="287.192" y="656.196"/><use xlink:href="#ao" x="294.947" y="656.196"/></g><g fill="#646464"><use xlink:href="#aR" x="306.58" y="656.196"/><use xlink:href="#aC" x="316.65" y="656.196"/><use xlink:href="#aS" x="324.405" y="656.196"/><use xlink:href="#al" x="329.049" y="656.196"/><use xlink:href="#au" x="338.352" y="656.196"/><use xlink:href="#aM" x="346.107" y="656.196"/><use xlink:href="#aq" x="353.081" y="656.196"/><use xlink:href="#ap" x="356.178" y="656.196"/><use xlink:href="#ao" x="363.151" y="656.196"/><use xlink:href="#ay" x="370.906" y="656.196"/></g><g fill="#646464"><use xlink:href="#aJ" x="379.428" y="656.196"/><use xlink:href="#ax" x="389.499" y="656.196"/><use xlink:href="#at" x="397.254" y="656.196"/><use xlink:href="#ao" x="408.872" y="656.196"/></g><g fill="#646464"><use xlink:href="#aT" x="420.181" y="656.196"/><use xlink:href="#aU" x="427.057" y="656.196"/><use xlink:href="#aV" x="435.272" y="656.196"/></g><g fill="#646464"><use xlink:href="#aQ" x="447.114" y="656.196"/><use xlink:href="#aC" x="454.088" y="656.196"/><use xlink:href="#an" x="461.843" y="656.196"/><use xlink:href="#av" x="469.598" y="656.196"/></g><g fill="#646464"><use xlink:href="#aF" x="481.23" y="656.196"/><use xlink:href="#aC" x="491.3" y="656.196"/><use xlink:href="#ao" x="499.055" y="656.196"/></g><g fill="#646464"><use xlink:href="#aC" x="198.624" y="673.114"/><use xlink:href="#am" x="206.379" y="673.114"/><use xlink:href="#an" x="210.256" y="673.114"/><use xlink:href="#ao" x="218.011" y="673.114"/><use xlink:href="#ay" x="225.766" y="673.114"/></g><g fill="#646464"><use xlink:href="#aR" x="234.288" y="673.114"/><use xlink:href="#aC" x="244.359" y="673.114"/><use xlink:href="#aS" x="252.113" y="673.114"/><use xlink:href="#al" x="256.758" y="673.114"/><use xlink:href="#au" x="266.061" y="673.114"/><use xlink:href="#aM" x="273.816" y="673.114"/><use xlink:href="#aq" x="280.79" y="673.114"/><use xlink:href="#ap" x="283.886" y="673.114"/><use xlink:href="#ao" x="290.86" y="673.114"/><use xlink:href="#ay" x="298.615" y="673.114"/></g><g fill="#646464"><use xlink:href="#aJ" x="307.137" y="673.114"/><use xlink:href="#ax" x="317.207" y="673.114"/><use xlink:href="#at" x="324.962" y="673.114"/><use xlink:href="#ao" x="336.581" y="673.114"/></g><use xlink:href="#aW" x="198.624" y="710.534" fill="#646464"/><g fill="#646464"><use xlink:href="#aX" x="202.811" y="710.534"/><use xlink:href="#aY" x="212.553" y="710.534"/><use xlink:href="#aZ" x="219.249" y="710.534"/><use xlink:href="#ba" x="225.945" y="710.534"/><use xlink:href="#bb" x="229.595" y="710.534"/></g><use xlink:href="#bc" x="236.29" y="710.534" fill="#646464"/><use xlink:href="#bd" x="240.476" y="710.534" fill="#646464"/><use xlink:href="#aW" x="246.569" y="710.534" fill="#646464"/><use xlink:href="#be" x="250.755" y="710.534" fill="#646464"/><g fill="#646464"><use xlink:href="#bf" x="256.739" y="710.534"/><use xlink:href="#bg" x="262.832" y="710.534"/><use xlink:href="#bh" x="268.925" y="710.534"/></g><use xlink:href="#bc" x="273.188" y="710.534" fill="#646464"/><g fill="#646464"><use xlink:href="#bi" x="198.624" y="755.316"/><use xlink:href="#aZ" x="201.671" y="755.316"/><use xlink:href="#bj" x="208.366" y="755.316"/></g><g fill="#646464"><use xlink:href="#aY" x="211.797" y="755.316"/><use xlink:href="#bh" x="218.492" y="755.316"/><use xlink:href="#aX" x="222.755" y="755.316"/><use xlink:href="#bg" x="232.498" y="755.316"/><use xlink:href="#ba" x="238.591" y="755.316"/><use xlink:href="#bk" x="242.24" y="755.316"/><use xlink:href="#aY" x="245.287" y="755.316"/><use xlink:href="#aZ" x="251.983" y="755.316"/></g><g fill="#646464"><use xlink:href="#bl" x="261.725" y="755.316"/><use xlink:href="#bg" x="270.854" y="755.316"/><use xlink:href="#aZ" x="276.947" y="755.316"/><use xlink:href="#bg" x="283.643" y="755.316"/></g><use xlink:href="#bm" x="289.627" y="755.316" fill="#646464"/><g fill="#646464"><use xlink:href="#bf" x="296.432" y="755.316"/><use xlink:href="#aX" x="302.525" y="755.316"/><use xlink:href="#bf" x="312.268" y="755.316"/><use xlink:href="#aZ" x="318.361" y="755.316"/><use xlink:href="#ba" x="325.057" y="755.316"/></g><g fill="#646464"><use xlink:href="#bn" x="331.753" y="755.316"/><use xlink:href="#bo" x="339.062" y="755.316"/></g><g fill="#646464"><use xlink:href="#bb" x="345.046" y="755.316"/><use xlink:href="#aY" x="351.742" y="755.316"/><use xlink:href="#aY" x="358.438" y="755.316"/><use xlink:href="#bp" x="365.134" y="755.316"/></g><g fill="#646464"><use xlink:href="#bq" x="198.624" y="771.751"/><use xlink:href="#br" x="206.536" y="771.751"/></g><use xlink:href="#bs" x="214.514" y="771.751" fill="#646464"/><use xlink:href="#bt" x="220.947" y="771.751" fill="#646464"/><g fill="#646464"><use xlink:href="#bu" x="231.303" y="771.751"/><use xlink:href="#bv" x="239.216" y="771.751"/><use xlink:href="#bw" x="245.309" y="771.751"/><use xlink:href="#bx" x="247.742" y="771.751"/></g><g fill="#646464"><use xlink:href="#by" x="252.947" y="771.751"/><use xlink:href="#bz" x="259.04" y="771.751"/><use xlink:href="#bA" x="262.69" y="771.751"/><use xlink:href="#bw" x="268.169" y="771.751"/><use xlink:href="#bB" x="270.602" y="771.751"/><use xlink:href="#bC" x="273.649" y="771.751"/></g><g fill="#646464"><use xlink:href="#bD" x="282.175" y="771.751"/><use xlink:href="#bw" x="288.268" y="771.751"/><use xlink:href="#bA" x="290.701" y="771.751"/><use xlink:href="#bE" x="296.18" y="771.751"/><use xlink:href="#bF" x="302.273" y="771.751"/><use xlink:href="#bv" x="308.366" y="771.751"/></g></svg>